<?xml version="1.0" encoding="UTF-8" standalone="no"?>
<!-- CLEANED: 1481022966/916bca4758f1c10b879217de6f86cae7 -->
<!-- Created with Inkscape (http://www.inkscape.org/) -->
<svg
   xmlns:dc="http://purl.org/dc/elements/1.1/"
   xmlns:cc="http://creativecommons.org/ns#"
   xmlns:rdf="http://www.w3.org/1999/02/22-rdf-syntax-ns#"
   xmlns:svg="http://www.w3.org/2000/svg"
   xmlns="http://www.w3.org/2000/svg"
   xmlns:xlink="http://www.w3.org/1999/xlink"
   xmlns:sodipodi="http://sodipodi.sourceforge.net/DTD/sodipodi-0.dtd"
   xmlns:inkscape="http://www.inkscape.org/namespaces/inkscape"
   id="svg2"
   version="1.1"
   inkscape:version="0.48.3.1 r9886"
   width="1000"
   height="770"
   sodipodi:docname="161130_petter.svg"
   inkscape:export-xdpi="90"
   inkscape:export-ydpi="90">
  <metadata
     id="metadata8">
    <rdf:RDF>
      <cc:Work
         rdf:about="">
        <dc:format>image/svg+xml</dc:format>
        <dc:type
           rdf:resource="http://purl.org/dc/dcmitype/StillImage" />
        <dc:title />
      </cc:Work>
    </rdf:RDF>
  </metadata>
  <defs
     id="defs6" />
  <sodipodi:namedview
     pagecolor="#ffffff"
     bordercolor="#646464"
     borderopacity="1"
     objecttolerance="10"
     gridtolerance="10"
     guidetolerance="10"
     inkscape:pageopacity="0"
     inkscape:pageshadow="2"
     inkscape:window-width="640"
     inkscape:window-height="480"
     id="namedview4"
     showgrid="false"
     inkscape:zoom="0.38648614"
     inkscape:cx="464.82489"
     inkscape:cy="423.66954"
     inkscape:current-layer="layer2">
    <sodipodi:guide
       position="1000,1000"
       orientation="1000,0"
       id="guide4143" />
    <sodipodi:guide
       position="1000,770"
       orientation="0,-1000"
       id="guide3159" />
    <sodipodi:guide
       position="0,770"
       orientation="770,0"
       id="guide3161" />
    <sodipodi:guide
       position="0,0"
       orientation="0,1000"
       id="guide3163" />
    <sodipodi:guide
       position="1000,0"
       orientation="-770,0"
       id="guide3165" />
  </sodipodi:namedview>
  <g
     inkscape:groupmode="layer"
     id="layer2"
     inkscape:label="BG">
    <path
       style="fill:#454837"
       d="m 0,-3e-6 1000,0 L 1000,770 0,770 z"
       id="rect3237"
       inkscape:connector-curvature="0" />
    <path
       inkscape:connector-curvature="0"
       style="fill:none;stroke:#000000;stroke-width:1"
       d="M 20.843798,0 0,20.8438 M 0,49.12807 49.12807,0 M 77.412341,0 0,77.41234 M 0,105.69661 105.69661,0 M 133.98088,0 0,133.98088 M 0,162.26516 162.26515,0 M 190.54943,0 0,190.54943 M 0,218.8337 218.8337,0 M 247.11797,0 0,247.11797 M 0,275.40224 275.40224,0 M 303.68651,0 0,303.68651 M 0,331.97078 331.97078,0 M 360.25505,0 0,360.25505 M 0,388.53933 388.53933,0 M 416.8236,0 0,416.8236 M 0,445.10787 445.10787,0 M 473.39214,0 0,473.39214 M 0,501.67641 501.67641,0 M 529.96068,0 0,529.96068 M 0,558.24495 558.24495,0 M 586.52922,0 0,586.52922 M 0,614.81349 614.81349,0 M 643.09777,0 0,643.09777 M 0,671.38204 671.38204,0 M 699.66631,0 0,699.66631 M 0,727.95062 727.95058,0 M 756.23485,0 0,756.23482 M 14.519102,770.00002 784.51912,0 M 812.80339,0 42.803373,770.00002 m 28.284272,0 L 841.08766,0 M 869.37194,0 99.371916,770.00002 m 28.284274,0 L 897.65621,0 m 28.28427,0 -770.00002,770.00002 m 28.28427,0 L 954.22475,0 M 982.50902,0 212.509,770.00002 m 28.28427,0 L 1000,10.79329 m 0,28.28427 -730.92246,730.92246 m 28.28427,0 L 1000,67.36183 m 0,28.28428 -674.35391,674.35391 m 28.28427,0 L 1000,123.93038 m 0,28.28427 -617.78537,617.78537 m 28.28427,0 L 1000,180.49892 m 0,28.28427 -561.21683,561.21683 m 28.28427,0 L 1000,237.06746 m 0,28.28427 -504.64829,504.64829 m 28.28427,0 L 1000,293.63601 m 0,28.28427 -448.07974,448.07974 m 28.28427,0 L 1000,350.20455 m 0,28.28427 -391.5112,391.5112 m 28.28427,0 L 1000,406.77309 m 0,28.28427 -334.94266,334.94266 m 28.28427,0 L 1000,463.34163 m 0,28.28427 -278.37412,278.37412 m 28.28428,0 L 1000,519.91018 m 0,28.28427 -221.80557,221.80557 m 28.28427,0 L 1000,576.47872 m 0,28.28427 -165.23703,165.23703 m 28.28427,0 L 1000,633.04726 m 0,28.28427 -108.66849,108.66849 m 28.28427,0 L 1000,689.6158 m 0,28.28432 -52.09995,52.0999 m 28.28427,0 L 1000,746.18432"
       id="path3274" />
  </g>
  <g
     inkscape:groupmode="layer"
     id="layer3"
     inkscape:label="CONTENT"
     style="display:inline"
     sodipodi:insensitive="true">
    <image
       y="0"
       x="235"
       id="image3200"
       xlink:href="../../../src/2014/8996_020.jpg"
       height="770"
       width="530" />
  </g>
  <g
     inkscape:groupmode="layer"
     id="layer1"
     inkscape:label="COVER"
     style="display:inline"
     sodipodi:insensitive="true">
    <path
       style="opacity:0.95;fill:#ffffff"
       d="m -4500,-4555 0,9900 10000,0 0,-9900 z M 0,0 1000,0 1000,770 0,770 z"
       id="path4112"
       inkscape:connector-curvature="0"
       sodipodi:nodetypes="cccccccccc" />
  </g>
</svg>
