<?xml version="1.0" encoding="UTF-8" standalone="no"?>
<!-- Created with Inkscape (http://www.inkscape.org/) -->

<svg
   xmlns:dc="http://purl.org/dc/elements/1.1/"
   xmlns:cc="http://creativecommons.org/ns#"
   xmlns:rdf="http://www.w3.org/1999/02/22-rdf-syntax-ns#"
   xmlns:svg="http://www.w3.org/2000/svg"
   xmlns="http://www.w3.org/2000/svg"
   xmlns:sodipodi="http://sodipodi.sourceforge.net/DTD/sodipodi-0.dtd"
   xmlns:inkscape="http://www.inkscape.org/namespaces/inkscape"
   id="svg2"
   version="1.1"
   inkscape:version="0.48.3.1 r9886"
   width="545.66876"
   height="765.35376"
   xml:space="preserve"
   sodipodi:docname="160510_A5x2-icons.svg"><metadata
     id="metadata8"><rdf:RDF><cc:Work
         rdf:about=""><dc:format>image/svg+xml</dc:format><dc:type
           rdf:resource="http://purl.org/dc/dcmitype/StillImage" /><dc:title /></cc:Work></rdf:RDF></metadata><defs
     id="defs6"><clipPath
       clipPathUnits="userSpaceOnUse"
       id="clipPath42"><path
         inkscape:connector-curvature="0"
         d="M 0,0 160,0 160,160 0,160 0,0 z"
         id="path44" /></clipPath><clipPath
       clipPathUnits="userSpaceOnUse"
       id="clipPath578"><path
         inkscape:connector-curvature="0"
         d="M 0,0 160,0 160,160 0,160 0,0 z"
         id="path580" /></clipPath><clipPath
       clipPathUnits="userSpaceOnUse"
       id="clipPath18"><path
         inkscape:connector-curvature="0"
         d="m 0,0 436.535,0 0,612.28302 -436.535,0 L 0,0 z"
         id="path20" /></clipPath></defs><sodipodi:namedview
     pagecolor="#cccccc"
     bordercolor="#666666"
     borderopacity="1"
     objecttolerance="10"
     gridtolerance="10"
     guidetolerance="10"
     inkscape:pageopacity="1"
     inkscape:pageshadow="2"
     inkscape:window-width="640"
     inkscape:window-height="480"
     id="namedview4"
     showgrid="false"
     inkscape:zoom="7.6301255"
     inkscape:cx="642.79317"
     inkscape:cy="1381.2708"
     inkscape:current-layer="layer1"
     units="mm"
     guidecolor="#ff0000"
     guideopacity="0.47058824"
     guidehicolor="#00ff00"
     guidehiopacity="1"
     inkscape:snap-global="false"
     showguides="false"
     showborder="false"
     inkscape:showpageshadow="false"><sodipodi:guide
       position="21.259843,754.72441"
       orientation="0,1048.8189"
       id="guide4271" /><sodipodi:guide
       position="1070.0787,754.72441"
       orientation="744.09449,0"
       id="guide4273" /><sodipodi:guide
       position="1070.0787,10.62992"
       orientation="0,-1048.8189"
       id="guide4275" /><sodipodi:guide
       position="21.259843,10.62992"
       orientation="-744.09449,-4.6185278e-14"
       id="guide4277" /><sodipodi:guide
       position="545.669,10.63"
       orientation="-761.31029,0"
       id="guide4301" /><inkscape:grid
       type="xygrid"
       id="grid4326"
       empspacing="5"
       visible="true"
       enabled="true"
       snapvisiblegridlinesonly="true"
       units="mm"
       spacingx="8mm"
       spacingy="8mm"
       originx="10mm" /></sodipodi:namedview><g
     style="display:none"
     id="refbuild"
     inkscape:groupmode="layer"
     inkscape:label="XX_Referenz"
     sodipodi:insensitive="true"><path
       style="color:#000000;fill:#ffffff;fill-opacity:1;fill-rule:nonzero;stroke:none;stroke-width:0;marker:none;visibility:visible;display:inline;overflow:visible;enable-background:accumulate"
       d="m 10.625,0 0,765.34375 10.625,0 524.40625,0 524.43755,0 10.625,0 0,-765.34375 -10.625,0 L 21.25,0 10.625,0 z"
       id="canvasfull"
       inkscape:connector-curvature="0" /><path
       style="color:#000000;fill:#ff00ff;fill-opacity:1;fill-rule:nonzero;stroke:none;stroke-width:0;marker:none;visibility:visible;display:inline;overflow:visible;enable-background:accumulate"
       d="m 10.625,0 0,765.34375 10.625,0 L 21.25,0 10.625,0 z"
       id="outercropleft"
       inkscape:connector-curvature="0" /><path
       style="color:#000000;fill:#ff00ff;fill-opacity:1;fill-rule:nonzero;stroke:none;stroke-width:0;marker:none;visibility:visible;display:inline;overflow:visible;enable-background:accumulate"
       d="m 10.625,754.71875 0,10.625 535.03125,0 0,-10.625 -535.03125,0 z"
       id="bottomcropleft"
       inkscape:connector-curvature="0" /><path
       style="color:#000000;fill:#ff00ff;fill-opacity:1;fill-rule:nonzero;stroke:none;stroke-width:0;marker:none;visibility:visible;display:inline;overflow:visible;enable-background:accumulate"
       d="m 10.625,0 0,10.625 535.03125,0 0,-10.625 L 10.625,0 z"
       id="topcropleft"
       inkscape:connector-curvature="0" /><path
       style="color:#000000;fill:none;stroke:#0000ff;stroke-width:1;stroke-linecap:butt;stroke-linejoin:miter;stroke-miterlimit:4;stroke-opacity:1;stroke-dasharray:none;stroke-dashoffset:0;marker:none;visibility:visible;display:inline;overflow:visible;enable-background:accumulate"
       d="m 10.629921,-10.00046 0,785.35433"
       id="beforecropleft"
       inkscape:connector-curvature="0"
       sodipodi:nodetypes="cc" /><path
       style="color:#000000;fill:#00ff00;fill-opacity:1;fill-rule:nonzero;stroke:none;stroke-width:0;marker:none;visibility:visible;display:inline;overflow:visible;enable-background:accumulate"
       d="m 1070.0938,0 0,765.34375 10.625,0 0,-765.34375 -10.625,0 z"
       id="outercropright"
       inkscape:connector-curvature="0" /><path
       style="color:#000000;fill:#00ff00;fill-opacity:1;fill-rule:nonzero;stroke:none;stroke-width:0;marker:none;visibility:visible;display:inline;overflow:visible;enable-background:accumulate"
       d="m 545.65625,754.71875 0,10.625 535.06255,0 0,-10.625 -535.06255,0 z"
       id="bottomcropright"
       inkscape:connector-curvature="0" /><path
       style="color:#000000;fill:#00ff00;fill-opacity:1;fill-rule:nonzero;stroke:none;stroke-width:0;marker:none;visibility:visible;display:inline;overflow:visible;enable-background:accumulate"
       d="m 545.65625,0 0,10.625 535.06255,0 0,-10.625 -535.06255,0 z"
       id="topcropright"
       inkscape:connector-curvature="0" /><path
       style="color:#000000;fill:#00ff00;fill-opacity:1;fill-rule:nonzero;stroke:#0000ff;stroke-width:1;stroke-linecap:butt;stroke-linejoin:miter;stroke-miterlimit:4;stroke-opacity:1;stroke-dasharray:none;stroke-dashoffset:0;marker:none;visibility:visible;display:inline;overflow:visible;enable-background:accumulate"
       d="m 1080.7081,-10.00046 0,785.35433"
       id="beforecropright"
       inkscape:connector-curvature="0"
       sodipodi:nodetypes="cc" /><path
       style="color:#000000;fill:#ffff00;fill-opacity:1;fill-rule:nonzero;stroke:#00ff00;stroke-width:0;stroke-linecap:round;stroke-linejoin:miter;stroke-miterlimit:4;stroke-opacity:1;stroke-dashoffset:0;marker:none;visibility:visible;display:inline;overflow:visible;enable-background:accumulate"
       d="m 556.29876,-4.6023438e-4 -10.63,0 0,765.35433023438 10.63,0 z"
       id="innercropright"
       inkscape:connector-curvature="0" /><path
       style="color:#000000;fill:#ffff00;fill-opacity:1;fill-rule:nonzero;stroke:#00ff00;stroke-width:0;stroke-linecap:round;stroke-linejoin:miter;stroke-miterlimit:4;stroke-opacity:1;stroke-dashoffset:0;marker:none;visibility:visible;display:inline;overflow:visible;enable-background:accumulate"
       d="m 545.66876,-4.6023438e-4 -10.63,0 0,765.35433023438 10.63,0 z"
       id="innercropleft"
       inkscape:connector-curvature="0" /><path
       style="opacity:0.5;color:#000000;fill:#ffffff;fill-opacity:1;stroke:none"
       d="m 21.25,10.625 0,744.0937 1048.8438,0 0,-744.0937 -1048.8438,0 z"
       id="canvasoverlay"
       inkscape:connector-curvature="0" /><path
       style="fill:none;stroke:#00ff00;stroke-width:1px;stroke-linecap:butt;stroke-linejoin:miter;stroke-opacity:1;display:inline"
       d="m 545.669,771.94051 0,-778.5270405"
       id="centerbuild"
       inkscape:connector-curvature="0" /></g><g
     inkscape:label="XX_PAGE"
     inkscape:groupmode="layer"
     id="refcanvas"
     style="display:inline"
     sodipodi:insensitive="true"><path
       sodipodi:nodetypes="ccccc"
       inkscape:connector-curvature="0"
       id="canvas"
       d="m 21.259843,10.62935 1048.818857,0 0,744.09449 -1048.818857,0 z"
       style="color:#000000;fill:#ffffff;fill-opacity:1;stroke:none;stroke-width:1;marker:none;visibility:visible;display:inline" /><path
       style="fill:none;stroke:#000000;stroke-width:1px;stroke-linecap:butt;stroke-linejoin:miter;stroke-opacity:1;display:inline"
       d="m 545.669,771.94051 0,-778.5270403"
       id="center"
       inkscape:connector-curvature="0" /></g><g
     style="display:none"
     inkscape:label="XX_REF151007"
     id="g3075"
     inkscape:groupmode="layer"
     sodipodi:insensitive="true"><g
   style="fill:none;stroke:#ff00ff"
   transform="matrix(1.25,0,0,-1.25,674.14812,36.295005)"
   id="g3077"><path
     id="path3079"
     style="fill:none;stroke:#ff00ff;stroke-width:0.199;stroke-linecap:butt;stroke-linejoin:miter;stroke-miterlimit:10;stroke-opacity:1;stroke-dasharray:none"
     d="M 0,0 270.65,0"
     inkscape:connector-curvature="0" /></g><g
   style="fill:none;stroke:#ff00ff"
   transform="matrix(1.25,0,0,-1.25,674.14812,51.331255)"
   id="g3081"><path
     id="path3083"
     style="fill:none;stroke:#ff00ff;stroke-width:0.199;stroke-linecap:butt;stroke-linejoin:miter;stroke-miterlimit:10;stroke-opacity:1;stroke-dasharray:none"
     d="M 0,0 270.65,0"
     inkscape:connector-curvature="0" /></g><g
   style="fill:none;stroke:#ff00ff"
   transform="matrix(1.25,0,0,-1.25,674.14812,69.077505)"
   id="g3085"><path
     id="path3087"
     style="fill:none;stroke:#ff00ff;stroke-width:0.199;stroke-linecap:butt;stroke-linejoin:miter;stroke-miterlimit:10;stroke-opacity:1;stroke-dasharray:none"
     d="M 0,0 270.65,0"
     inkscape:connector-curvature="0" /></g><g
   style="fill:none;stroke:#ff00ff"
   transform="matrix(1.25,0,0,-1.25,674.02312,650.8675)"
   id="g3089"><path
     id="path3091"
     style="fill:none;stroke:#ff00ff;stroke-width:0.199;stroke-linecap:butt;stroke-linejoin:miter;stroke-miterlimit:10;stroke-opacity:1;stroke-dasharray:none"
     d="M 0,0 0,465.332"
     inkscape:connector-curvature="0" /></g><g
   style="fill:none;stroke:#ff00ff"
   transform="matrix(1.25,0,0,-1.25,1012.5844,650.8675)"
   id="g3093"><path
     id="path3095"
     style="fill:none;stroke:#ff00ff;stroke-width:0.199;stroke-linecap:butt;stroke-linejoin:miter;stroke-miterlimit:10;stroke-opacity:1;stroke-dasharray:none"
     d="M 0,0 0,465.332"
     inkscape:connector-curvature="0" /></g><g
   style="fill:none;stroke:#ff00ff"
   transform="matrix(1.25,0,0,-1.25,1017.5656,650.8675)"
   id="g3097"><path
     id="path3099"
     style="fill:none;stroke:#ff00ff;stroke-width:0.199;stroke-linecap:butt;stroke-linejoin:miter;stroke-miterlimit:10;stroke-opacity:1;stroke-dasharray:none"
     d="M 0,0 0,465.332"
     inkscape:connector-curvature="0" /></g><g
   style="fill:none;stroke:#ff00ff"
   transform="matrix(1.25,0,0,-1.25,674.14812,650.7425)"
   id="g3105"><path
     id="path3107"
     style="fill:none;stroke:#ff00ff;stroke-width:0.199;stroke-linecap:butt;stroke-linejoin:miter;stroke-miterlimit:10;stroke-opacity:1;stroke-dasharray:none"
     d="M 0,0 270.65,0"
     inkscape:connector-curvature="0" /></g><g
   style="fill:none;stroke:#ff00ff"
   transform="matrix(1.25,0,0,-1.25,674.14812,704.14125)"
   id="g3109"><path
     id="path3111"
     style="fill:none;stroke:#ff00ff;stroke-width:0.199;stroke-linecap:butt;stroke-linejoin:miter;stroke-miterlimit:10;stroke-opacity:1;stroke-dasharray:none"
     d="M 0,0 270.65,0"
     inkscape:connector-curvature="0" /></g><text
   id="text3113"
   x="587.19934"
   y="715.59247"
   style="font-size:15px;fill:#ff00ff;stroke:none"><tspan
     id="tspan3115"
     y="715.59247"
     x="587.19934"
     style="font-size:6.22662497px;font-variant:normal;writing-mode:lr-tb;fill:#ff00ff;fill-opacity:1;fill-rule:nonzero;stroke:none;font-family:Nimbus Sans L;-inkscape-font-specification:NimbusSanL-Regu">1</tspan></text>








<path
   d="m 78.807421,36.295005 338.312509,0"
   style="fill:none;stroke:#ff00ff;stroke-width:0.24875;stroke-linecap:butt;stroke-linejoin:miter;stroke-miterlimit:10;stroke-opacity:1;stroke-dasharray:none"
   id="path3117"
   inkscape:connector-curvature="0" /><path
   d="m 78.807421,51.331255 338.312509,0"
   style="fill:none;stroke:#ff00ff;stroke-width:0.24875;stroke-linecap:butt;stroke-linejoin:miter;stroke-miterlimit:10;stroke-opacity:1;stroke-dasharray:none"
   id="path3119"
   inkscape:connector-curvature="0" /><path
   d="m 78.807421,69.077505 338.312509,0"
   style="fill:none;stroke:#ff00ff;stroke-width:0.24875;stroke-linecap:butt;stroke-linejoin:miter;stroke-miterlimit:10;stroke-opacity:1;stroke-dasharray:none"
   id="path3121"
   inkscape:connector-curvature="0" /><path
   d="m 73.949921,650.8675 0,-581.664995"
   style="fill:none;stroke:#ff00ff;stroke-width:0.24875;stroke-linecap:butt;stroke-linejoin:miter;stroke-miterlimit:10;stroke-opacity:1;stroke-dasharray:none"
   id="path3125"
   inkscape:connector-curvature="0" /><path
   d="m 78.682421,650.8675 0,-581.664995"
   style="fill:none;stroke:#ff00ff;stroke-width:0.24875;stroke-linecap:butt;stroke-linejoin:miter;stroke-miterlimit:10;stroke-opacity:1;stroke-dasharray:none"
   id="path3127"
   inkscape:connector-curvature="0" /><path
   d="m 417.24368,650.8675 0,-581.664995"
   style="fill:none;stroke:#ff00ff;stroke-width:0.24875;stroke-linecap:butt;stroke-linejoin:miter;stroke-miterlimit:10;stroke-opacity:1;stroke-dasharray:none"
   id="path3129"
   inkscape:connector-curvature="0" /><path
   d="m 78.807421,650.7425 338.312509,0"
   style="fill:none;stroke:#ff00ff;stroke-width:0.24875;stroke-linecap:butt;stroke-linejoin:miter;stroke-miterlimit:10;stroke-opacity:1;stroke-dasharray:none"
   id="path3131"
   inkscape:connector-curvature="0" /><path
   d="m 78.807421,704.14125 338.312509,0"
   style="fill:none;stroke:#ff00ff;stroke-width:0.24875;stroke-linecap:butt;stroke-linejoin:miter;stroke-miterlimit:10;stroke-opacity:1;stroke-dasharray:none"
   id="path3133"
   inkscape:connector-curvature="0" /><text
   y="715.59247"
   x="500.60495"
   id="text3135"
   style="font-size:15px;fill:#ff00ff;stroke:none"><tspan
     style="font-size:6.22662497px;font-variant:normal;writing-mode:lr-tb;fill:#ff00ff;fill-opacity:1;fill-rule:nonzero;stroke:none;font-family:Nimbus Sans L;-inkscape-font-specification:NimbusSanL-Regu"
     x="500.60495"
     y="715.59247"
     id="tspan3137">2</tspan></text>








<path
   inkscape:connector-curvature="0"
   id="path68"
   style="color:#000000;fill:none;stroke:#ff00ff;stroke-width:0.24875;stroke-linecap:butt;stroke-linejoin:miter;stroke-miterlimit:10;stroke-opacity:1;stroke-dasharray:none;stroke-dashoffset:0;marker:none;visibility:visible;display:inline;overflow:visible;enable-background:accumulate"
   d="m 607.60179,70.73733 33.219,0 0,33.219 -33.219,0 0,-33.219 z" /><path
   inkscape:connector-curvature="0"
   id="path68-3"
   style="fill:#ffffff;fill-opacity:1;fill-rule:nonzero;stroke:#ff00ff;stroke-width:0.44292;stroke-linecap:butt;stroke-linejoin:miter;stroke-miterlimit:4;stroke-opacity:1;stroke-dasharray:none"
   d="m 449.1186,70.737325 33.219,0 0,33.218995 -33.219,0 0,-33.218995 z" /></g><g
     inkscape:groupmode="layer"
     id="layer1"
     inkscape:label="001"><path
   style="color:#000000;fill:#ffffff;fill-opacity:1;fill-rule:nonzero;stroke:none;stroke-width:2;marker:none;visibility:visible;display:inline;overflow:visible;enable-background:accumulate"
   d="m -160,-159.64624 35,0 0,35 -35,0 z"
   id="rect2990-3"
   inkscape:connector-curvature="0" /><path
   style="color:#000000;fill:#ffffff;fill-opacity:1;fill-rule:nonzero;stroke:none;stroke-width:2;marker:none;visibility:visible;display:inline;overflow:visible;enable-background:accumulate"
   d="m 60,-349.64624 35,0 0,35 -35,0 z"
   id="rect2990"
   inkscape:connector-curvature="0" /><path
   d="m 65.205921,-328.90776 11.268999,8.12062 8.213241,-3.62552 2.771848,-10.48764 0.139192,-0.57031 2.793883,-1.6822 -5.5e-5,-1e-5 -2.701328,0.0156 2.576015,-1.9079 -3.067353,0.31769 -2.827434,-2.24054 -4.454371,1.37057 -1.25533,2.86576 -7.804433,-6.99791 -1.183514,2.04376 0.972022,4.16928 -2.125316,-0.33555 2.636013,4.54899 -1.195507,-0.15564 -0.803309,-0.29949 3.277836,4.13944 z"
   id="path3052"
   inkscape:connector-curvature="0"
   style="fill:#2aa9e0"
   sodipodi:nodetypes="cccccccccccccccccccccc" /><path
   inkscape:connector-curvature="0"
   id="path3051"
   d="m 111,-349.64624 35,0 0,35 -35,0 z"
   style="color:#000000;fill:#ffffff;fill-opacity:1;fill-rule:nonzero;stroke:none;stroke-width:2;marker:none;visibility:visible;display:inline;overflow:visible;enable-background:accumulate" /><path
   sodipodi:nodetypes="cccccccccccccccccccccc"
   style="fill:#2aa9e0"
   inkscape:connector-curvature="0"
   id="path3053"
   d="m 137.03057,-341.45683 -13.81955,-1.39816 -5.30012,7.24641 2.84333,10.46849 0.16461,0.5635 -1.57847,2.85377 5e-5,-2e-5 2.33162,-1.36418 -1.27695,2.9403 2.49757,-1.8088 3.5689,0.52665 3.17231,-3.41414 -0.34573,-3.10948 10.25779,2.15815 0.003,-2.36171 -2.92643,-3.12469 2.00835,-0.77206 -4.55735,-2.62154 1.11316,-0.46296 0.84543,-0.14229 -4.90841,-1.94594 z" /><path
   style="color:#000000;fill:#ffffff;fill-opacity:1;fill-rule:nonzero;stroke:none;stroke-width:2;marker:none;visibility:visible;display:inline;overflow:visible;enable-background:accumulate"
   d="m 60,-499.64624 35,0 0,35 -35,0 z"
   id="rect2990-0"
   inkscape:connector-curvature="0" /><path
   style="color:#000000;fill:#00ff00;fill-opacity:1;fill-rule:nonzero;stroke:none;stroke-width:2;marker:none;visibility:visible;display:inline;overflow:visible;enable-background:accumulate"
   d="m 92.5,-482.14624 c 0,8.28427 -6.715729,15 -15,15 -8.284271,0 -14.999999,-6.71573 -14.999999,-15 0,-8.28427 6.715728,-15 14.999999,-15 8.284271,0 15,6.71573 15,15 z"
   id="path2994"
   inkscape:connector-curvature="0" /><path
   style="font-size:12px;font-style:normal;font-variant:normal;font-weight:900;font-stretch:normal;text-align:start;line-height:140.99999666%;letter-spacing:0px;word-spacing:0px;writing-mode:lr-tb;text-anchor:start;fill:#ffffff;fill-opacity:1;stroke:none;font-family:Aileron;-inkscape-font-specification:Aileron Heavy"
   inkscape:connector-curvature="0"
   id="path3006"
   d="m 75.690087,-482.6086 c 1.048012,-0.36989 1.556607,-1.10966 1.556607,-2.08062 0,-1.38707 -0.986367,-2.49673 -2.743329,-2.7125 -0.539418,-0.0617 -0.786011,-0.0617 -1.356252,-0.0617 l -4.361585,0 0,10.63425 4.238289,0 c 0.678125,0 1.032602,0 1.572021,-0.0616 1.433311,-0.16953 3.051568,-1.1559 3.051568,-3.14404 0,-1.2946 -0.61648,-2.1885 -1.957319,-2.5738 m -4.130406,-2.69709 1.248369,0 c 0.246592,0 0.493182,0.0154 0.693538,0.0462 0.524005,0.0771 0.847658,0.36989 0.847658,0.97096 0,0.63189 -0.354476,0.89389 -0.863069,0.97095 -0.200356,0.0308 -0.431535,0.0462 -0.678127,0.0462 l -1.248369,0 0,-2.03438 m 2.188498,6.30349 c -0.200355,0.0154 -0.446947,0.0154 -0.693537,0.0154 l -1.494961,0 0,-2.28097 1.4179,0 c 0.246592,0 0.493183,0 0.693539,0.0154 0.570241,0.0462 1.078837,0.41613 1.078837,1.12508 0,0.69354 -0.508596,1.09425 -1.001778,1.12507" /><path
   style="font-size:12px;font-style:normal;font-variant:normal;font-weight:900;font-stretch:normal;text-align:start;line-height:140.99999666%;letter-spacing:0px;word-spacing:0px;writing-mode:lr-tb;text-anchor:start;fill:#ffffff;fill-opacity:1;stroke:none;font-family:Aileron;-inkscape-font-specification:Aileron Heavy"
   inkscape:connector-curvature="0"
   id="path3008"
   d="m 83.86174,-480.89787 3.745107,-6.5655 -3.036157,0 -2.018967,4.20747 -2.096027,-4.20747 -3.113216,0 3.745107,6.5655 0,4.06875 2.774153,0 0,-4.06875" /><text
   sodipodi:linespacing="141%"
   id="text3001"
   y="-478.00623"
   x="38.850159"
   style="font-size:12px;font-style:normal;font-variant:normal;font-weight:900;font-stretch:normal;text-align:start;line-height:140.99999666%;letter-spacing:0px;word-spacing:0px;writing-mode:lr-tb;text-anchor:start;fill:#ff0000;fill-opacity:1;stroke:none;font-family:Aileron;-inkscape-font-specification:Aileron Heavy"
   xml:space="preserve"><tspan
     y="-478.00623"
     x="38.850159"
     id="tspan3003"
     sodipodi:role="line">BY</tspan></text>

<path
   inkscape:connector-curvature="0"
   id="rect2987-7"
   d="m -159.5,-269.14624 34,0 0,34 -34,0 z"
   style="color:#000000;fill:#ffffff;fill-opacity:1;fill-rule:nonzero;stroke:#ff3300;stroke-width:1;stroke-linecap:square;stroke-linejoin:round;stroke-miterlimit:4;stroke-opacity:1;stroke-dashoffset:0;marker:none;visibility:visible;display:inline;overflow:visible;enable-background:accumulate" /><text
   sodipodi:linespacing="125%"
   id="text3110"
   y="-254.02991"
   x="-142.32245"
   style="font-size:16px;font-style:normal;font-variant:normal;font-weight:500;font-stretch:normal;text-align:center;line-height:125%;letter-spacing:0px;word-spacing:0px;writing-mode:lr-tb;text-anchor:middle;fill:#ff3300;fill-opacity:1;stroke:none;display:inline;font-family:Source Code Pro;-inkscape-font-specification:Source Code Pro Medium"
   xml:space="preserve"><tspan
     y="-254.02991"
     x="-142.32245"
     id="tspan3112"
     sodipodi:role="line">BUY</tspan><tspan
     id="tspan3114"
     y="-234.02991"
     x="-142.32245"
     sodipodi:role="line"
     dy="-5.7535357">NOW</tspan></text>

<path
   inkscape:connector-curvature="0"
   id="rect2987-7-0"
   d="m -159.5,-229.14624 34,0 0,34 -34,0 z"
   style="color:#000000;fill:#ffffff;fill-opacity:1;fill-rule:nonzero;stroke:#ff3300;stroke-width:1;stroke-linecap:square;stroke-linejoin:round;stroke-miterlimit:4;stroke-opacity:1;stroke-dashoffset:0;marker:none;visibility:visible;display:inline;overflow:visible;enable-background:accumulate" /><text
   xml:space="preserve"
   style="font-size:16px;font-style:normal;font-variant:normal;font-weight:500;font-stretch:normal;text-align:center;line-height:125%;letter-spacing:0px;word-spacing:0px;writing-mode:lr-tb;text-anchor:middle;fill:#ff3300;fill-opacity:1;stroke:none;display:inline;font-family:Source Code Pro;-inkscape-font-specification:Source Code Pro Medium"
   x="-142.32245"
   y="-214.02991"
   id="text3060"
   sodipodi:linespacing="125%"><tspan
     sodipodi:role="line"
     id="tspan3062"
     x="-142.32245"
     y="-214.02991">SEE</tspan><tspan
     sodipodi:role="line"
     x="-142.32245"
     y="-194.02991"
     id="tspan3064"
     dy="-5.7535357">DOK</tspan></text>

<path
   inkscape:connector-curvature="0"
   d="m -150.02858,-148.71128 0,1.03059 3.02199,0 0,-1.03059 c 0,-2.49457 2.02961,-4.52395 4.52383,-4.52395 2.49423,0 4.52372,2.02938 4.52372,4.52395 l 0,7.45448 3.02199,0 0,-7.45448 c 0,-4.16069 -3.38513,-7.54582 -7.54571,-7.54582 -4.16046,0 -7.54582,3.38513 -7.54582,7.54582"
   style="fill:#ff3300;fill-opacity:1;fill-rule:nonzero;stroke:none"
   id="path2424" /><path
   inkscape:connector-curvature="0"
   d="m -139.97781,-136.9062 c 0,1.37661 -1.11611,2.49271 -2.49306,2.49271 -1.37684,0 -2.49306,-1.1161 -2.49306,-2.49271 0,-1.37742 1.11622,-2.49364 2.49306,-2.49364 1.37695,0 2.49306,1.11622 2.49306,2.49364"
   style="fill:#ff3300;fill-opacity:1;fill-rule:nonzero;stroke:none"
   id="path2426" /><path
   inkscape:connector-curvature="0"
   d="m -148.37597,-136.93311 c 0,-3.24009 2.63612,-5.87598 5.87609,-5.87598 3.23985,0 5.87562,2.63589 5.87562,5.87598 0,3.23973 -2.63577,5.87609 -5.87562,5.87609 -3.23997,0 -5.87609,-2.63636 -5.87609,-5.87609 m -3.02188,0 c 0,4.90573 3.992,8.89773 8.89797,8.89773 4.90608,0 8.89773,-3.992 8.89773,-8.89773 0,-4.90643 -3.99165,-8.89797 -8.89773,-8.89797 -4.90597,0 -8.89797,3.99154 -8.89797,8.89797"
   style="fill:#ff3300;fill-opacity:1;fill-rule:nonzero;stroke:none"
   id="path2428" /><path
   inkscape:connector-curvature="0"
   id="rect2987-7-3"
   d="m -159.5,-309.14624 34,0 0,34 -34,0 z"
   style="color:#000000;fill:#ffffff;fill-opacity:1;fill-rule:nonzero;stroke:#ff3300;stroke-width:1;stroke-linecap:square;stroke-linejoin:round;stroke-miterlimit:4;stroke-opacity:1;stroke-dashoffset:0;marker:none;visibility:visible;display:inline;overflow:visible;enable-background:accumulate" /><text
   sodipodi:linespacing="125%"
   id="text2990-1"
   y="-294.02991"
   x="-142.32245"
   style="font-size:16px;font-style:normal;font-variant:normal;font-weight:500;font-stretch:normal;text-align:center;line-height:125%;letter-spacing:0px;word-spacing:0px;writing-mode:lr-tb;text-anchor:middle;fill:#ff3300;fill-opacity:1;stroke:none;display:inline;font-family:Source Code Pro;-inkscape-font-specification:Source Code Pro Medium"
   xml:space="preserve"><tspan
     y="-294.02991"
     x="-142.32245"
     id="tspan2992-4"
     sodipodi:role="line">GET</tspan><tspan
     dy="-5.818182"
     id="tspan2994-0"
     y="-274.02991"
     x="-142.32245"
     sodipodi:role="line">SRC</tspan></text>

<path
   inkscape:connector-curvature="0"
   id="path3128"
   d="m 180,-589.64624 35,0 0,35 -35,0 z"
   style="color:#000000;fill:#ffffff;fill-opacity:1;fill-rule:nonzero;stroke:none;stroke-width:2;marker:none;visibility:visible;display:inline;overflow:visible;enable-background:accumulate" /><path
   inkscape:connector-curvature="0"
   id="path3130"
   d="m 212.5,-572.14624 c 0,8.28427 -6.71573,15 -15,15 -8.28427,0 -15,-6.71573 -15,-15 0,-8.28427 6.71573,-15 15,-15 8.28427,0 15,6.71573 15,15 z"
   style="color:#000000;fill:#e6e6e6;fill-opacity:1;fill-rule:nonzero;stroke:none;stroke-width:2;marker:none;visibility:visible;display:inline;overflow:visible;enable-background:accumulate" /><text
   xml:space="preserve"
   style="font-size:20px;font-style:normal;font-variant:normal;font-weight:bold;font-stretch:normal;text-align:start;line-height:140.99999666%;letter-spacing:0px;word-spacing:0px;writing-mode:lr-tb;text-anchor:start;fill:#ffffff;fill-opacity:1;stroke:none;font-family:Fira Mono;-inkscape-font-specification:Fira Mono Bold"
   x="191.35001"
   y="-564.64624"
   id="text3136"
   sodipodi:linespacing="141%"><tspan
     sodipodi:role="line"
     id="tspan3138"
     x="191.35001"
     y="-564.64624">i</tspan></text>

<path
   style="color:#000000;fill:#ffffff;fill-opacity:1;fill-rule:nonzero;stroke:none;stroke-width:2;marker:none;visibility:visible;display:inline;overflow:visible;enable-background:accumulate"
   d="m 370,-690.64624 35,0 0,35 -35,0 z"
   id="path3140"
   inkscape:connector-curvature="0" /><path
   style="color:#000000;fill:#e6e6e6;fill-opacity:1;fill-rule:nonzero;stroke:none;stroke-width:2;marker:none;visibility:visible;display:inline;overflow:visible;enable-background:accumulate"
   d="m 402.5,-673.14624 c 0,8.28427 -6.71573,15 -15,15 -8.28427,0 -15,-6.71573 -15,-15 0,-8.28427 6.71573,-15 15,-15 8.28427,0 15,6.71573 15,15 z"
   id="path3142"
   inkscape:connector-curvature="0" /><text
   sodipodi:linespacing="141%"
   id="text3144"
   y="-663.71997"
   x="380.86865"
   style="font-size:27px;font-style:normal;font-variant:normal;font-weight:bold;font-stretch:condensed;text-align:start;line-height:140.99999666%;letter-spacing:0px;word-spacing:0px;writing-mode:lr-tb;text-anchor:start;fill:#ffffff;fill-opacity:1;stroke:none;font-family:Liberation Sans Narrow;-inkscape-font-specification:Liberation Sans Narrow Bold Condensed"
   xml:space="preserve"><tspan
     y="-663.71997"
     x="380.86865"
     id="tspan3146"
     sodipodi:role="line">?</tspan></text>

<path
   inkscape:connector-curvature="0"
   id="path3148"
   d="m 470,-499.64624 35,0 0,35 -35,0 z"
   style="color:#000000;fill:#ffffff;fill-opacity:1;fill-rule:nonzero;stroke:none;stroke-width:2;marker:none;visibility:visible;display:inline;overflow:visible;enable-background:accumulate" /><path
   inkscape:connector-curvature="0"
   id="path3150"
   d="m 502.5,-482.14624 c 0,8.28427 -6.71573,15 -15,15 -8.28427,0 -15,-6.71573 -15,-15 0,-8.28427 6.71573,-15 15,-15 8.28427,0 15,6.71573 15,15 z"
   style="color:#000000;fill:#e6e6e6;fill-opacity:1;fill-rule:nonzero;stroke:none;stroke-width:2;marker:none;visibility:visible;display:inline;overflow:visible;enable-background:accumulate" /><path
   style="color:#000000;fill:#ffffff;fill-opacity:1;fill-rule:nonzero;stroke:none;stroke-width:2;marker:none;visibility:visible;display:inline;overflow:visible;enable-background:accumulate"
   d="m 480,-479.64624 15,0 0,15 -15,0 z"
   id="path3156"
   inkscape:connector-curvature="0"
   sodipodi:nodetypes="ccccc" /><path
   sodipodi:nodetypes="cccc"
   inkscape:connector-curvature="0"
   id="path3158"
   d="m 476.8934,-482.14624 10.6066,-10.6066 10.6066,10.6066 z"
   style="color:#000000;fill:#ffffff;fill-opacity:1;fill-rule:nonzero;stroke:none;stroke-width:2;marker:none;visibility:visible;display:inline;overflow:visible;enable-background:accumulate" /><path
   style="color:#000000;fill:#ffffff;fill-opacity:1;fill-rule:nonzero;stroke:none;stroke-width:2;marker:none;visibility:visible;display:inline;overflow:visible;enable-background:accumulate"
   d="m 510,-499.64624 35,0 0,35 -35,0 z"
   id="path3160"
   inkscape:connector-curvature="0" /><path
   style="color:#000000;fill:#e6e6e6;fill-opacity:1;fill-rule:nonzero;stroke:none;stroke-width:2;marker:none;visibility:visible;display:inline;overflow:visible;enable-background:accumulate"
   d="m 542.5,-482.14624 c 0,8.28427 -6.71573,15 -15,15 -8.28427,0 -15,-6.71573 -15,-15 0,-8.28427 6.71573,-15 15,-15 8.28427,0 15,6.71573 15,15 z"
   id="path3162"
   inkscape:connector-curvature="0" /><path
   sodipodi:nodetypes="ccccc"
   inkscape:connector-curvature="0"
   id="path3164"
   d="m 521,-482.64624 13,0 0,18 -13,0 z"
   style="color:#000000;fill:#ffffff;fill-opacity:1;fill-rule:nonzero;stroke:none;stroke-width:2;marker:none;visibility:visible;display:inline;overflow:visible;enable-background:accumulate" /><path
   style="color:#000000;fill:#ffffff;fill-opacity:1;fill-rule:nonzero;stroke:none;stroke-width:2;marker:none;visibility:visible;display:inline;overflow:visible;enable-background:accumulate"
   d="m 517.8934,-481.14624 9.6066,-9.6066 9.6066,9.6066 z"
   id="path3166"
   inkscape:connector-curvature="0"
   sodipodi:nodetypes="cccc" /><path
   inkscape:connector-curvature="0"
   id="path3168"
   d="m 510,-459.64624 35,0 0,35 -35,0 z"
   style="color:#000000;fill:#ffffff;fill-opacity:1;fill-rule:nonzero;stroke:none;stroke-width:2;marker:none;visibility:visible;display:inline;overflow:visible;enable-background:accumulate" /><path
   inkscape:connector-curvature="0"
   id="path3170"
   d="m 542.5,-442.14624 c 0,8.28427 -6.71573,15 -15,15 -8.28427,0 -15,-6.71573 -15,-15 0,-8.28427 6.71573,-15 15,-15 8.28427,0 15,6.71573 15,15 z"
   style="color:#000000;fill:#e6e6e6;fill-opacity:1;fill-rule:nonzero;stroke:none;stroke-width:2;marker:none;visibility:visible;display:inline;overflow:visible;enable-background:accumulate" /><path
   style="color:#000000;fill:#ffff00;fill-opacity:1;fill-rule:nonzero;stroke:none;stroke-width:2;marker:none;visibility:visible;display:inline;overflow:visible;enable-background:accumulate"
   d="m 521,-442.64624 13,0 0,17 -6.5,-5 -6.5,5 z"
   id="path3172"
   inkscape:connector-curvature="0"
   sodipodi:nodetypes="cccccc" /><path
   sodipodi:nodetypes="cccc"
   inkscape:connector-curvature="0"
   id="path3174"
   d="m 517.8934,-445.14624 9.6066,-9.6066 9.6066,9.6066 z"
   style="color:#000000;fill:#00ff00;fill-opacity:1;fill-rule:nonzero;stroke:none;stroke-width:2;marker:none;visibility:visible;display:inline;overflow:visible;enable-background:accumulate" /><path
   style="color:#000000;fill:#ffffff;fill-opacity:1;fill-rule:nonzero;stroke:none;stroke-width:2;marker:none;visibility:visible;display:inline;overflow:visible;enable-background:accumulate"
   d="m 230,-589.64624 35,0 0,35 -35,0 z"
   id="path3188"
   inkscape:connector-curvature="0" /><path
   style="color:#000000;fill:#e6e6e6;fill-opacity:1;fill-rule:nonzero;stroke:none;stroke-width:2;marker:none;visibility:visible;display:inline;overflow:visible;enable-background:accumulate"
   d="m 262.5,-572.14624 c 0,8.28427 -6.71573,15 -15,15 -8.28427,0 -15,-6.71573 -15,-15 0,-8.28427 6.71573,-15 15,-15 8.28427,0 15,6.71573 15,15 z"
   id="path3190"
   inkscape:connector-curvature="0" /><text
   sodipodi:linespacing="141%"
   id="text3192"
   y="-565.64624"
   x="241.35001"
   style="font-size:20px;font-style:normal;font-variant:normal;font-weight:bold;font-stretch:normal;text-align:start;line-height:140.99999665999999365%;letter-spacing:0px;word-spacing:0px;writing-mode:lr-tb;text-anchor:start;fill:#ffff00;fill-opacity:1;stroke:none;font-family:Fira Mono;-inkscape-font-specification:Fira Mono Bold"
   xml:space="preserve"><tspan
     y="-565.64624"
     x="241.35001"
     id="tspan3194"
     sodipodi:role="line">ยง</tspan></text>

<path
   inkscape:connector-curvature="0"
   id="path3224"
   d="m 545,-634.64624 -35,0 0,-35 35,0 z"
   style="color:#000000;fill:#ffffff;fill-opacity:1;fill-rule:nonzero;stroke:none;stroke-width:2;marker:none;visibility:visible;display:inline;overflow:visible;enable-background:accumulate" /><path
   inkscape:connector-curvature="0"
   id="path3226"
   d="m 512.5,-652.14624 c 0,-8.28427 6.71573,-15 15,-15 8.28427,0 15,6.71573 15,15 0,8.28427 -6.71573,15 -15,15 -8.28427,0 -15,-6.71573 -15,-15 z"
   style="color:#000000;fill:#e6e6e6;fill-opacity:1;fill-rule:nonzero;stroke:none;stroke-width:2;marker:none;visibility:visible;display:inline;overflow:visible;enable-background:accumulate" /><path
   style="color:#000000;fill:#ffffff;fill-opacity:1;fill-rule:nonzero;stroke:none;stroke-width:2;marker:none;visibility:visible;display:inline;overflow:visible;enable-background:accumulate"
   d="m 534,-651.64624 -13,0 0,-18 13,0 z"
   id="path3228"
   inkscape:connector-curvature="0"
   sodipodi:nodetypes="ccccc" /><path
   sodipodi:nodetypes="cccc"
   inkscape:connector-curvature="0"
   id="path3230"
   d="m 537.1066,-653.14624 -9.6066,9.6066 -9.6066,-9.6066 z"
   style="color:#000000;fill:#ffffff;fill-opacity:1;fill-rule:nonzero;stroke:none;stroke-width:2;marker:none;visibility:visible;display:inline;overflow:visible;enable-background:accumulate" /><path
   style="color:#000000;fill:#ffffff;fill-opacity:1;fill-rule:nonzero;stroke:none;stroke-width:2;marker:none;visibility:visible;display:inline;overflow:visible;enable-background:accumulate"
   d="m 545,-594.64624 -35,0 0,-35 35,0 z"
   id="path3232"
   inkscape:connector-curvature="0" /><path
   style="color:#000000;fill:#e6e6e6;fill-opacity:1;fill-rule:nonzero;stroke:none;stroke-width:2;marker:none;visibility:visible;display:inline;overflow:visible;enable-background:accumulate"
   d="m 512.5,-612.14624 c 0,-8.28427 6.71573,-15 15,-15 8.28427,0 15,6.71573 15,15 0,8.28427 -6.71573,15 -15,15 -8.28427,0 -15,-6.71573 -15,-15 z"
   id="path3234"
   inkscape:connector-curvature="0" /><path
   sodipodi:nodetypes="cccccc"
   inkscape:connector-curvature="0"
   id="path3236"
   d="m 534,-611.64624 -13,0 0,-17 6.5,5 6.5,-5 z"
   style="color:#000000;fill:#ffff00;fill-opacity:1;fill-rule:nonzero;stroke:none;stroke-width:2;marker:none;visibility:visible;display:inline;overflow:visible;enable-background:accumulate" /><path
   style="color:#000000;fill:#00ff00;fill-opacity:1;fill-rule:nonzero;stroke:none;stroke-width:2;marker:none;visibility:visible;display:inline;overflow:visible;enable-background:accumulate"
   d="m 537.1066,-609.14624 -9.6066,9.6066 -9.6066,-9.6066 z"
   id="path3238"
   inkscape:connector-curvature="0"
   sodipodi:nodetypes="cccc" /><path
   inkscape:connector-curvature="0"
   id="path3282"
   d="m 560,-499.64624 35,0 0,35 -35,0 z"
   style="color:#000000;fill:#ffffff;fill-opacity:1;fill-rule:nonzero;stroke:none;stroke-width:2;marker:none;visibility:visible;display:inline;overflow:visible;enable-background:accumulate" /><path
   inkscape:connector-curvature="0"
   id="path3284"
   d="m 592.5,-482.14624 c 0,8.28427 -6.71573,15 -15,15 -8.28427,0 -15,-6.71573 -15,-15 0,-8.28427 6.71573,-15 15,-15 8.28427,0 15,6.71573 15,15 z"
   style="color:#000000;fill:#e6e6e6;fill-opacity:1;fill-rule:nonzero;stroke:none;stroke-width:2;marker:none;visibility:visible;display:inline;overflow:visible;enable-background:accumulate" /><path
   style="color:#000000;fill:#ffffff;fill-opacity:1;fill-rule:nonzero;stroke:none;stroke-width:2;marker:none;visibility:visible;display:inline;overflow:visible;enable-background:accumulate"
   d="m 573,-482.64624 9,0 0,18 -9,0 z"
   id="path3286"
   inkscape:connector-curvature="0"
   sodipodi:nodetypes="ccccc" /><path
   sodipodi:nodetypes="cccc"
   inkscape:connector-curvature="0"
   id="path3288"
   d="m 567.8934,-481.14624 9.6066,-9.6066 9.6066,9.6066 z"
   style="color:#000000;fill:#ffffff;fill-opacity:1;fill-rule:nonzero;stroke:none;stroke-width:2;marker:none;visibility:visible;display:inline;overflow:visible;enable-background:accumulate" /><path
   style="color:#000000;fill:#ffffff;fill-opacity:1;fill-rule:nonzero;stroke:none;stroke-width:2;marker:none;visibility:visible;display:inline;overflow:visible;enable-background:accumulate"
   d="m 560,-459.64624 35,0 0,35 -35,0 z"
   id="path3290"
   inkscape:connector-curvature="0" /><path
   style="color:#000000;fill:#e6e6e6;fill-opacity:1;fill-rule:nonzero;stroke:none;stroke-width:2;marker:none;visibility:visible;display:inline;overflow:visible;enable-background:accumulate"
   d="m 592.5,-442.14624 c 0,8.28427 -6.71573,15 -15,15 -8.28427,0 -15,-6.71573 -15,-15 0,-8.28427 6.71573,-15 15,-15 8.28427,0 15,6.71573 15,15 z"
   id="path3292"
   inkscape:connector-curvature="0" /><path
   sodipodi:nodetypes="cccccc"
   inkscape:connector-curvature="0"
   id="path3294"
   d="m 572,-442.64624 11,0 0,17 -5.5,-5 -5.5,5 z"
   style="color:#000000;fill:#00ff00;fill-opacity:1;fill-rule:nonzero;stroke:none;stroke-width:2;marker:none;visibility:visible;display:inline;overflow:visible;enable-background:accumulate" /><path
   style="color:#000000;fill:#ffff00;fill-opacity:1;fill-rule:nonzero;stroke:none;stroke-width:2;marker:none;visibility:visible;display:inline;overflow:visible;enable-background:accumulate"
   d="m 567.8934,-441.14624 9.6066,-9.6066 9.6066,9.6066 z"
   id="path3296"
   inkscape:connector-curvature="0"
   sodipodi:nodetypes="cccc" /><path
   inkscape:connector-curvature="0"
   id="path3423"
   d="m 100,-499.64624 35,0 0,35 -35,0 z"
   style="color:#000000;fill:#ffffff;fill-opacity:1;fill-rule:nonzero;stroke:none;stroke-width:2;marker:none;visibility:visible;display:inline;overflow:visible;enable-background:accumulate" /><path
   inkscape:connector-curvature="0"
   id="path3425"
   d="m 132.5,-482.14624 c 0,8.28427 -6.71573,15 -15,15 -8.28427,0 -15,-6.71573 -15,-15 0,-8.28427 6.71573,-15 15,-15 8.28427,0 15,6.71573 15,15 z"
   style="color:#000000;fill:#e6e6e6;fill-opacity:1;fill-rule:nonzero;stroke:none;stroke-width:2;marker:none;visibility:visible;display:inline;overflow:visible;enable-background:accumulate" /><path
   d="m 115.69009,-482.6086 c 1.04801,-0.36989 1.5566,-1.10966 1.5566,-2.08062 0,-1.38707 -0.98636,-2.49673 -2.74332,-2.7125 -0.53942,-0.0617 -0.78602,-0.0617 -1.35626,-0.0617 l -4.36158,0 0,10.63425 4.23829,0 c 0.67812,0 1.0326,0 1.57202,-0.0616 1.43331,-0.16953 3.05157,-1.1559 3.05157,-3.14404 0,-1.2946 -0.61648,-2.1885 -1.95732,-2.5738 m -4.13041,-2.69709 1.24837,0 c 0.24659,0 0.49318,0.0154 0.69354,0.0462 0.524,0.0771 0.84766,0.36989 0.84766,0.97096 0,0.63189 -0.35448,0.89389 -0.86307,0.97095 -0.20036,0.0308 -0.43154,0.0462 -0.67813,0.0462 l -1.24837,0 0,-2.03438 m 2.1885,6.30349 c -0.20036,0.0154 -0.44695,0.0154 -0.69354,0.0154 l -1.49496,0 0,-2.28097 1.4179,0 c 0.24659,0 0.49318,0 0.69354,0.0154 0.57024,0.0462 1.07884,0.41613 1.07884,1.12508 0,0.69354 -0.5086,1.09425 -1.00178,1.12507"
   id="path3427"
   inkscape:connector-curvature="0"
   style="font-size:12px;font-style:normal;font-variant:normal;font-weight:900;font-stretch:normal;text-align:start;line-height:140.99999666%;letter-spacing:0px;word-spacing:0px;writing-mode:lr-tb;text-anchor:start;fill:#ffffff;fill-opacity:1;stroke:none;font-family:Aileron;-inkscape-font-specification:Aileron Heavy" /><path
   d="m 123.86174,-480.89787 3.74511,-6.5655 -3.03616,0 -2.01897,4.20747 -2.09602,-4.20747 -3.11322,0 3.74511,6.5655 0,4.06875 2.77415,0 0,-4.06875"
   id="path3429"
   inkscape:connector-curvature="0"
   style="font-size:12px;font-style:normal;font-variant:normal;font-weight:900;font-stretch:normal;text-align:start;line-height:140.99999666%;letter-spacing:0px;word-spacing:0px;writing-mode:lr-tb;text-anchor:start;fill:#ffffff;fill-opacity:1;stroke:none;font-family:Aileron;-inkscape-font-specification:Aileron Heavy" /><path
   style="color:#000000;fill:#ffffff;fill-opacity:1;fill-rule:nonzero;stroke:none;stroke-width:2;marker:none;visibility:visible;display:inline;overflow:visible;enable-background:accumulate"
   d="m 615,-634.64624 -35,0 0,-35 35,0 z"
   id="path3120"
   inkscape:connector-curvature="0" /><path
   style="color:#000000;fill:#e6e6e6;fill-opacity:1;fill-rule:nonzero;stroke:none;stroke-width:2;marker:none;visibility:visible;display:inline;overflow:visible;enable-background:accumulate"
   d="m 582.5,-652.14624 c 0,-8.28427 6.71573,-15 15,-15 8.28427,0 15,6.71573 15,15 0,8.28427 -6.71573,15 -15,15 -8.28427,0 -15,-6.71573 -15,-15 z"
   id="path3122"
   inkscape:connector-curvature="0" /><path
   sodipodi:nodetypes="ccccc"
   inkscape:connector-curvature="0"
   id="path3124"
   d="m 604,-651.64624 -13,0 0,-18 13,0 z"
   style="color:#000000;fill:#ffffff;fill-opacity:1;fill-rule:nonzero;stroke:none;stroke-width:2;marker:none;visibility:visible;display:inline;overflow:visible;enable-background:accumulate" /><path
   style="color:#000000;fill:#ffffff;fill-opacity:1;fill-rule:nonzero;stroke:none;stroke-width:2;marker:none;visibility:visible;display:inline;overflow:visible;enable-background:accumulate"
   d="m 607.1066,-653.14624 -9.6066,9.6066 -9.6066,-9.6066 z"
   id="path3126"
   inkscape:connector-curvature="0"
   sodipodi:nodetypes="cccc" /><path
   inkscape:connector-curvature="0"
   id="path3132"
   d="m 582.5,-692.14624 c 0,0 6.71573,-8.27881 15,-8.27881 8.28427,0 15,8.27881 15,8.27881 0,0 -6.71573,8.27881 -15,8.27881 -8.28427,0 -15,-8.27881 -15,-8.27881 z"
   style="color:#000000;fill:#e6e6e6;fill-opacity:1;fill-rule:nonzero;stroke:none;stroke-width:2;marker:none;visibility:visible;display:inline;overflow:visible;enable-background:accumulate"
   sodipodi:nodetypes="cscsc" /><path
   sodipodi:nodetypes="cscsc"
   style="color:#000000;fill:#e6e6e6;fill-opacity:1;fill-rule:nonzero;stroke:none;stroke-width:2;marker:none;visibility:visible;display:inline;overflow:visible;enable-background:accumulate"
   d="m 582.5,-742.14624 c 0,0 6.71573,-15 15,-15 8.28427,0 15,15 15,15 0,0 -6.71573,15 -15,15 -8.28427,0 -15,-15 -15,-15 z"
   id="path3134"
   inkscape:connector-curvature="0" /><path
   inkscape:connector-curvature="0"
   id="path3136"
   d="m 592.03472,-692.14624 c 0,-3.01839 2.44689,-5.46528 5.46528,-5.46528 3.01839,0 5.46528,2.44689 5.46528,5.46528 0,3.01839 -2.44689,5.46528 -5.46528,5.46528 -3.01839,0 -5.46528,-2.44689 -5.46528,-5.46528 z"
   style="color:#000000;fill:#cccccc;fill-opacity:1;fill-rule:nonzero;stroke:none;stroke-width:2;marker:none;visibility:visible;display:inline;overflow:visible;enable-background:accumulate" /><path
   style="color:#000000;fill:#ffffff;fill-opacity:1;fill-rule:nonzero;stroke:none;stroke-width:2;marker:none;visibility:visible;display:inline;overflow:visible;enable-background:accumulate"
   d="m 593.9104,-692.14624 c 0,-1.98248 1.60712,-3.5896 3.5896,-3.5896 1.98248,0 3.5896,1.60712 3.5896,3.5896 0,1.98248 -1.60712,3.5896 -3.5896,3.5896 -1.98248,0 -3.5896,-1.60712 -3.5896,-3.5896 z"
   id="path3138"
   inkscape:connector-curvature="0" /><path
   inkscape:connector-curvature="0"
   id="path3141"
   d="m 665,-634.64624 -35,0 0,-35 35,0 z"
   style="color:#000000;fill:#ffffff;fill-opacity:1;fill-rule:nonzero;stroke:none;stroke-width:2;marker:none;visibility:visible;display:inline;overflow:visible;enable-background:accumulate" /><path
   inkscape:connector-curvature="0"
   id="path3143"
   d="m 632.5,-652.14624 c 0,-8.28427 6.71573,-15 15,-15 8.28427,0 15,6.71573 15,15 0,8.28427 -6.71573,15 -15,15 -8.28427,0 -15,-6.71573 -15,-15 z"
   style="color:#000000;fill:#ffff00;fill-opacity:1;fill-rule:nonzero;stroke:none;stroke-width:2;marker:none;visibility:visible;display:inline;overflow:visible;enable-background:accumulate" /><path
   sodipodi:nodetypes="cscsc"
   style="color:#000000;fill:#e6e6e6;fill-opacity:1;fill-rule:nonzero;stroke:none;stroke-width:2;marker:none;visibility:visible;display:inline;overflow:visible;enable-background:accumulate"
   d="m 632.5,-652.14624 c 0,0 6.71573,-8.27881 15,-8.27881 8.28427,0 15,8.27881 15,8.27881 0,0 -6.71573,8.27881 -15,8.27881 -8.28427,0 -15,-8.27881 -15,-8.27881 z"
   id="path3155"
   inkscape:connector-curvature="0" /><path
   style="color:#000000;fill:#cccccc;fill-opacity:1;fill-rule:nonzero;stroke:none;stroke-width:2;marker:none;visibility:visible;display:inline;overflow:visible;enable-background:accumulate"
   d="m 642.03472,-652.14624 c 0,-3.01839 2.44689,-5.46528 5.46528,-5.46528 3.01839,0 5.46528,2.44689 5.46528,5.46528 0,3.01839 -2.44689,5.46528 -5.46528,5.46528 -3.01839,0 -5.46528,-2.44689 -5.46528,-5.46528 z"
   id="path3157"
   inkscape:connector-curvature="0" /><path
   inkscape:connector-curvature="0"
   id="path3159"
   d="m 643.9104,-652.14624 c 0,-1.98248 1.60712,-3.5896 3.5896,-3.5896 1.98248,0 3.5896,1.60712 3.5896,3.5896 0,1.98248 -1.60712,3.5896 -3.5896,3.5896 -1.98248,0 -3.5896,-1.60712 -3.5896,-3.5896 z"
   style="color:#000000;fill:#ffffff;fill-opacity:1;fill-rule:nonzero;stroke:none;stroke-width:2;marker:none;visibility:visible;display:inline;overflow:visible;enable-background:accumulate" /><path
   style="color:#000000;fill:#ffffff;fill-opacity:1;fill-rule:nonzero;stroke:none;stroke-width:2;marker:none;visibility:visible;display:inline;overflow:visible;enable-background:accumulate"
   d="m 665,-594.64624 -35,0 0,-35 35,0 z"
   id="path3161"
   inkscape:connector-curvature="0" /><path
   style="color:#000000;fill:#ffff00;fill-opacity:1;fill-rule:nonzero;stroke:none;stroke-width:2;marker:none;visibility:visible;display:inline;overflow:visible;enable-background:accumulate"
   d="m 632.5,-612.14624 c 0,-8.28427 6.71573,-15 15,-15 8.28427,0 15,6.71573 15,15 0,8.28427 -6.71573,15 -15,15 -8.28427,0 -15,-6.71573 -15,-15 z"
   id="path3163"
   inkscape:connector-curvature="0" /><path
   inkscape:connector-curvature="0"
   id="path3165"
   d="m 632.5,-612.14624 c 0,0 6.71573,-8.27881 15,-8.27881 8.28427,0 15,8.27881 15,8.27881 0,0 -6.71573,8.27881 -15,8.27881 -8.28427,0 -15,-8.27881 -15,-8.27881 z"
   style="color:#000000;fill:#e6e6e6;fill-opacity:1;fill-rule:nonzero;stroke:none;stroke-width:2;marker:none;visibility:visible;display:inline;overflow:visible;enable-background:accumulate"
   sodipodi:nodetypes="cscsc" /><path
   inkscape:connector-curvature="0"
   id="path3167"
   d="m 642.03472,-610.14624 c 0,-3.01839 2.44689,-5.46528 5.46528,-5.46528 3.01839,0 5.46528,2.44689 5.46528,5.46528 0,3.01839 -2.44689,5.46528 -5.46528,5.46528 -3.01839,0 -5.46528,-2.44689 -5.46528,-5.46528 z"
   style="color:#000000;fill:#cccccc;fill-opacity:1;fill-rule:nonzero;stroke:none;stroke-width:2;marker:none;visibility:visible;display:inline;overflow:visible;enable-background:accumulate" /><path
   style="color:#000000;fill:#ffffff;fill-opacity:1;fill-rule:nonzero;stroke:none;stroke-width:2;marker:none;visibility:visible;display:inline;overflow:visible;enable-background:accumulate"
   d="m 643.9104,-608.14624 c 0,-1.98248 1.60712,-3.5896 3.5896,-3.5896 1.98248,0 3.5896,1.60712 3.5896,3.5896 0,1.98248 -1.60712,3.5896 -3.5896,3.5896 -1.98248,0 -3.5896,-1.60712 -3.5896,-3.5896 z"
   id="path3169"
   inkscape:connector-curvature="0" /></g></svg>