<?xml version="1.0" encoding="UTF-8" standalone="no"?>
<!-- Created with Inkscape (http://www.inkscape.org/) -->

<svg
   xmlns:dc="http://purl.org/dc/elements/1.1/"
   xmlns:cc="http://creativecommons.org/ns#"
   xmlns:rdf="http://www.w3.org/1999/02/22-rdf-syntax-ns#"
   xmlns:svg="http://www.w3.org/2000/svg"
   xmlns="http://www.w3.org/2000/svg"
   xmlns:sodipodi="http://sodipodi.sourceforge.net/DTD/sodipodi-0.dtd"
   xmlns:inkscape="http://www.inkscape.org/namespaces/inkscape"
   id="svg2"
   version="1.1"
   inkscape:version="0.48.3.1 r9886"
   width="545.66876"
   height="765.35376"
   xml:space="preserve"
   sodipodi:docname="160512_A5x2-signet.svg"><metadata
     id="metadata8"><rdf:RDF><cc:Work
         rdf:about=""><dc:format>image/svg+xml</dc:format><dc:type
           rdf:resource="http://purl.org/dc/dcmitype/StillImage" /><dc:title /></cc:Work></rdf:RDF></metadata><defs
     id="defs6"><clipPath
       clipPathUnits="userSpaceOnUse"
       id="clipPath42"><path
         inkscape:connector-curvature="0"
         d="M 0,0 160,0 160,160 0,160 0,0 z"
         id="path44" /></clipPath><clipPath
       clipPathUnits="userSpaceOnUse"
       id="clipPath578"><path
         inkscape:connector-curvature="0"
         d="M 0,0 160,0 160,160 0,160 0,0 z"
         id="path580" /></clipPath><clipPath
       clipPathUnits="userSpaceOnUse"
       id="clipPath18"><path
         inkscape:connector-curvature="0"
         d="m 0,0 436.535,0 0,612.28302 -436.535,0 L 0,0 z"
         id="path20" /></clipPath></defs><sodipodi:namedview
     pagecolor="#cccccc"
     bordercolor="#666666"
     borderopacity="1"
     objecttolerance="10"
     gridtolerance="10"
     guidetolerance="10"
     inkscape:pageopacity="1"
     inkscape:pageshadow="2"
     inkscape:window-width="640"
     inkscape:window-height="480"
     id="namedview4"
     showgrid="false"
     inkscape:zoom="1.2173969"
     inkscape:cx="1608.7991"
     inkscape:cy="1018.7194"
     inkscape:current-layer="layer1"
     units="mm"
     guidecolor="#ff0000"
     guideopacity="0.47058824"
     guidehicolor="#00ff00"
     guidehiopacity="1"
     inkscape:snap-global="false"
     showguides="false"
     showborder="false"
     inkscape:showpageshadow="false"><sodipodi:guide
       position="21.259843,754.72441"
       orientation="0,1048.8189"
       id="guide4271" /><sodipodi:guide
       position="1070.0787,754.72441"
       orientation="744.09449,0"
       id="guide4273" /><sodipodi:guide
       position="1070.0787,10.62992"
       orientation="0,-1048.8189"
       id="guide4275" /><sodipodi:guide
       position="21.259843,10.62992"
       orientation="-744.09449,-4.6185278e-14"
       id="guide4277" /><sodipodi:guide
       position="545.669,10.63"
       orientation="-761.31029,0"
       id="guide4301" /><inkscape:grid
       type="xygrid"
       id="grid4326"
       empspacing="5"
       visible="true"
       enabled="true"
       snapvisiblegridlinesonly="true"
       units="mm"
       spacingx="8mm"
       spacingy="8mm"
       originx="10mm" /></sodipodi:namedview><g
     style="display:inline"
     id="refbuild"
     inkscape:groupmode="layer"
     inkscape:label="XX_Referenz"
     sodipodi:insensitive="true"><path
       style="color:#000000;fill:#ffffff;fill-opacity:1;fill-rule:nonzero;stroke:none;stroke-width:0;marker:none;visibility:visible;display:inline;overflow:visible;enable-background:accumulate"
       d="m 10.625,0 0,765.34375 10.625,0 524.40625,0 524.43755,0 10.625,0 0,-765.34375 -10.625,0 L 21.25,0 10.625,0 z"
       id="canvasfull"
       inkscape:connector-curvature="0" /><path
       style="color:#000000;fill:#ff00ff;fill-opacity:1;fill-rule:nonzero;stroke:none;stroke-width:0;marker:none;visibility:visible;display:inline;overflow:visible;enable-background:accumulate"
       d="m 10.625,0 0,765.34375 10.625,0 L 21.25,0 10.625,0 z"
       id="outercropleft"
       inkscape:connector-curvature="0" /><path
       style="color:#000000;fill:#ff00ff;fill-opacity:1;fill-rule:nonzero;stroke:none;stroke-width:0;marker:none;visibility:visible;display:inline;overflow:visible;enable-background:accumulate"
       d="m 10.625,754.71875 0,10.625 535.03125,0 0,-10.625 -535.03125,0 z"
       id="bottomcropleft"
       inkscape:connector-curvature="0" /><path
       style="color:#000000;fill:#ff00ff;fill-opacity:1;fill-rule:nonzero;stroke:none;stroke-width:0;marker:none;visibility:visible;display:inline;overflow:visible;enable-background:accumulate"
       d="m 10.625,0 0,10.625 535.03125,0 0,-10.625 L 10.625,0 z"
       id="topcropleft"
       inkscape:connector-curvature="0" /><path
       style="color:#000000;fill:none;stroke:#0000ff;stroke-width:1;stroke-linecap:butt;stroke-linejoin:miter;stroke-miterlimit:4;stroke-opacity:1;stroke-dasharray:none;stroke-dashoffset:0;marker:none;visibility:visible;display:inline;overflow:visible;enable-background:accumulate"
       d="m 10.629921,-10.00046 0,785.35433"
       id="beforecropleft"
       inkscape:connector-curvature="0"
       sodipodi:nodetypes="cc" /><path
       style="color:#000000;fill:#00ff00;fill-opacity:1;fill-rule:nonzero;stroke:none;stroke-width:0;marker:none;visibility:visible;display:inline;overflow:visible;enable-background:accumulate"
       d="m 1070.0938,0 0,765.34375 10.625,0 0,-765.34375 -10.625,0 z"
       id="outercropright"
       inkscape:connector-curvature="0" /><path
       style="color:#000000;fill:#00ff00;fill-opacity:1;fill-rule:nonzero;stroke:none;stroke-width:0;marker:none;visibility:visible;display:inline;overflow:visible;enable-background:accumulate"
       d="m 545.65625,754.71875 0,10.625 535.06255,0 0,-10.625 -535.06255,0 z"
       id="bottomcropright"
       inkscape:connector-curvature="0" /><path
       style="color:#000000;fill:#00ff00;fill-opacity:1;fill-rule:nonzero;stroke:none;stroke-width:0;marker:none;visibility:visible;display:inline;overflow:visible;enable-background:accumulate"
       d="m 545.65625,0 0,10.625 535.06255,0 0,-10.625 -535.06255,0 z"
       id="topcropright"
       inkscape:connector-curvature="0" /><path
       style="color:#000000;fill:#00ff00;fill-opacity:1;fill-rule:nonzero;stroke:#0000ff;stroke-width:1;stroke-linecap:butt;stroke-linejoin:miter;stroke-miterlimit:4;stroke-opacity:1;stroke-dasharray:none;stroke-dashoffset:0;marker:none;visibility:visible;display:inline;overflow:visible;enable-background:accumulate"
       d="m 1080.7081,-10.00046 0,785.35433"
       id="beforecropright"
       inkscape:connector-curvature="0"
       sodipodi:nodetypes="cc" /><path
       style="color:#000000;fill:#ffff00;fill-opacity:1;fill-rule:nonzero;stroke:#00ff00;stroke-width:0;stroke-linecap:round;stroke-linejoin:miter;stroke-miterlimit:4;stroke-opacity:1;stroke-dashoffset:0;marker:none;visibility:visible;display:inline;overflow:visible;enable-background:accumulate"
       d="m 556.29876,-4.6023438e-4 -10.63,0 0,765.35433023438 10.63,0 z"
       id="innercropright"
       inkscape:connector-curvature="0" /><path
       style="color:#000000;fill:#ffff00;fill-opacity:1;fill-rule:nonzero;stroke:#00ff00;stroke-width:0;stroke-linecap:round;stroke-linejoin:miter;stroke-miterlimit:4;stroke-opacity:1;stroke-dashoffset:0;marker:none;visibility:visible;display:inline;overflow:visible;enable-background:accumulate"
       d="m 545.66876,-4.6023438e-4 -10.63,0 0,765.35433023438 10.63,0 z"
       id="innercropleft"
       inkscape:connector-curvature="0" /><path
       style="opacity:0.5;color:#000000;fill:#ffffff;fill-opacity:1;stroke:none"
       d="m 21.25,10.625 0,744.0937 1048.8438,0 0,-744.0937 -1048.8438,0 z"
       id="canvasoverlay"
       inkscape:connector-curvature="0" /><path
       style="fill:none;stroke:#00ff00;stroke-width:1px;stroke-linecap:butt;stroke-linejoin:miter;stroke-opacity:1;display:inline"
       d="m 545.669,771.94051 0,-778.5270405"
       id="centerbuild"
       inkscape:connector-curvature="0" /></g><g
     inkscape:label="XX_PAGE"
     inkscape:groupmode="layer"
     id="refcanvas"
     style="display:inline"
     sodipodi:insensitive="true"><path
       sodipodi:nodetypes="ccccc"
       inkscape:connector-curvature="0"
       id="canvas"
       d="m 21.259843,10.62935 1048.818857,0 0,744.09449 -1048.818857,0 z"
       style="color:#000000;fill:#ffffff;fill-opacity:1;stroke:none;stroke-width:1;marker:none;visibility:visible;display:inline" /><path
       style="fill:none;stroke:#000000;stroke-width:1px;stroke-linecap:butt;stroke-linejoin:miter;stroke-opacity:1;display:inline"
       d="m 545.669,771.94051 0,-778.5270403"
       id="center"
       inkscape:connector-curvature="0" /></g><g
     style="display:inline"
     inkscape:label="XX_REF151007"
     id="g3075"
     inkscape:groupmode="layer"
     sodipodi:insensitive="true"><g
   style="fill:none;stroke:#ff00ff"
   transform="matrix(1.25,0,0,-1.25,674.14812,36.295005)"
   id="g3077"><path
     id="path3079"
     style="fill:none;stroke:#ff00ff;stroke-width:0.199;stroke-linecap:butt;stroke-linejoin:miter;stroke-miterlimit:10;stroke-opacity:1;stroke-dasharray:none"
     d="M 0,0 270.65,0"
     inkscape:connector-curvature="0" /></g><g
   style="fill:none;stroke:#ff00ff"
   transform="matrix(1.25,0,0,-1.25,674.14812,51.331255)"
   id="g3081"><path
     id="path3083"
     style="fill:none;stroke:#ff00ff;stroke-width:0.199;stroke-linecap:butt;stroke-linejoin:miter;stroke-miterlimit:10;stroke-opacity:1;stroke-dasharray:none"
     d="M 0,0 270.65,0"
     inkscape:connector-curvature="0" /></g><g
   style="fill:none;stroke:#ff00ff"
   transform="matrix(1.25,0,0,-1.25,674.14812,69.077505)"
   id="g3085"><path
     id="path3087"
     style="fill:none;stroke:#ff00ff;stroke-width:0.199;stroke-linecap:butt;stroke-linejoin:miter;stroke-miterlimit:10;stroke-opacity:1;stroke-dasharray:none"
     d="M 0,0 270.65,0"
     inkscape:connector-curvature="0" /></g><g
   style="fill:none;stroke:#ff00ff"
   transform="matrix(1.25,0,0,-1.25,674.02312,650.8675)"
   id="g3089"><path
     id="path3091"
     style="fill:none;stroke:#ff00ff;stroke-width:0.199;stroke-linecap:butt;stroke-linejoin:miter;stroke-miterlimit:10;stroke-opacity:1;stroke-dasharray:none"
     d="M 0,0 0,465.332"
     inkscape:connector-curvature="0" /></g><g
   style="fill:none;stroke:#ff00ff"
   transform="matrix(1.25,0,0,-1.25,1012.5844,650.8675)"
   id="g3093"><path
     id="path3095"
     style="fill:none;stroke:#ff00ff;stroke-width:0.199;stroke-linecap:butt;stroke-linejoin:miter;stroke-miterlimit:10;stroke-opacity:1;stroke-dasharray:none"
     d="M 0,0 0,465.332"
     inkscape:connector-curvature="0" /></g><g
   style="fill:none;stroke:#ff00ff"
   transform="matrix(1.25,0,0,-1.25,1017.5656,650.8675)"
   id="g3097"><path
     id="path3099"
     style="fill:none;stroke:#ff00ff;stroke-width:0.199;stroke-linecap:butt;stroke-linejoin:miter;stroke-miterlimit:10;stroke-opacity:1;stroke-dasharray:none"
     d="M 0,0 0,465.332"
     inkscape:connector-curvature="0" /></g><g
   style="fill:none;stroke:#ff00ff"
   transform="matrix(1.25,0,0,-1.25,674.14812,650.7425)"
   id="g3105"><path
     id="path3107"
     style="fill:none;stroke:#ff00ff;stroke-width:0.199;stroke-linecap:butt;stroke-linejoin:miter;stroke-miterlimit:10;stroke-opacity:1;stroke-dasharray:none"
     d="M 0,0 270.65,0"
     inkscape:connector-curvature="0" /></g><g
   style="fill:none;stroke:#ff00ff"
   transform="matrix(1.25,0,0,-1.25,674.14812,704.14125)"
   id="g3109"><path
     id="path3111"
     style="fill:none;stroke:#ff00ff;stroke-width:0.199;stroke-linecap:butt;stroke-linejoin:miter;stroke-miterlimit:10;stroke-opacity:1;stroke-dasharray:none"
     d="M 0,0 270.65,0"
     inkscape:connector-curvature="0" /></g><text
   id="text3113"
   x="587.19934"
   y="715.59247"
   style="font-size:15px;fill:#ff00ff;stroke:none"><tspan
     id="tspan3115"
     y="715.59247"
     x="587.19934"
     style="font-size:6.22662497px;font-variant:normal;writing-mode:lr-tb;fill:#ff00ff;fill-opacity:1;fill-rule:nonzero;stroke:none;font-family:Nimbus Sans L;-inkscape-font-specification:NimbusSanL-Regu">1</tspan></text>








<path
   d="m 78.807421,36.295005 338.312509,0"
   style="fill:none;stroke:#ff00ff;stroke-width:0.24875;stroke-linecap:butt;stroke-linejoin:miter;stroke-miterlimit:10;stroke-opacity:1;stroke-dasharray:none"
   id="path3117"
   inkscape:connector-curvature="0" /><path
   d="m 78.807421,51.331255 338.312509,0"
   style="fill:none;stroke:#ff00ff;stroke-width:0.24875;stroke-linecap:butt;stroke-linejoin:miter;stroke-miterlimit:10;stroke-opacity:1;stroke-dasharray:none"
   id="path3119"
   inkscape:connector-curvature="0" /><path
   d="m 78.807421,69.077505 338.312509,0"
   style="fill:none;stroke:#ff00ff;stroke-width:0.24875;stroke-linecap:butt;stroke-linejoin:miter;stroke-miterlimit:10;stroke-opacity:1;stroke-dasharray:none"
   id="path3121"
   inkscape:connector-curvature="0" /><path
   d="m 73.949921,650.8675 0,-581.664995"
   style="fill:none;stroke:#ff00ff;stroke-width:0.24875;stroke-linecap:butt;stroke-linejoin:miter;stroke-miterlimit:10;stroke-opacity:1;stroke-dasharray:none"
   id="path3125"
   inkscape:connector-curvature="0" /><path
   d="m 78.682421,650.8675 0,-581.664995"
   style="fill:none;stroke:#ff00ff;stroke-width:0.24875;stroke-linecap:butt;stroke-linejoin:miter;stroke-miterlimit:10;stroke-opacity:1;stroke-dasharray:none"
   id="path3127"
   inkscape:connector-curvature="0" /><path
   d="m 417.24368,650.8675 0,-581.664995"
   style="fill:none;stroke:#ff00ff;stroke-width:0.24875;stroke-linecap:butt;stroke-linejoin:miter;stroke-miterlimit:10;stroke-opacity:1;stroke-dasharray:none"
   id="path3129"
   inkscape:connector-curvature="0" /><path
   d="m 78.807421,650.7425 338.312509,0"
   style="fill:none;stroke:#ff00ff;stroke-width:0.24875;stroke-linecap:butt;stroke-linejoin:miter;stroke-miterlimit:10;stroke-opacity:1;stroke-dasharray:none"
   id="path3131"
   inkscape:connector-curvature="0" /><path
   d="m 78.807421,704.14125 338.312509,0"
   style="fill:none;stroke:#ff00ff;stroke-width:0.24875;stroke-linecap:butt;stroke-linejoin:miter;stroke-miterlimit:10;stroke-opacity:1;stroke-dasharray:none"
   id="path3133"
   inkscape:connector-curvature="0" /><text
   y="715.59247"
   x="500.60495"
   id="text3135"
   style="font-size:15px;fill:#ff00ff;stroke:none"><tspan
     style="font-size:6.22662497px;font-variant:normal;writing-mode:lr-tb;fill:#ff00ff;fill-opacity:1;fill-rule:nonzero;stroke:none;font-family:Nimbus Sans L;-inkscape-font-specification:NimbusSanL-Regu"
     x="500.60495"
     y="715.59247"
     id="tspan3137">2</tspan></text>








<path
   inkscape:connector-curvature="0"
   id="path68"
   style="color:#000000;fill:none;stroke:#ff00ff;stroke-width:0.24875;stroke-linecap:butt;stroke-linejoin:miter;stroke-miterlimit:10;stroke-opacity:1;stroke-dasharray:none;stroke-dashoffset:0;marker:none;visibility:visible;display:inline;overflow:visible;enable-background:accumulate"
   d="m 607.60179,70.73733 33.219,0 0,33.219 -33.219,0 0,-33.219 z" /><path
   inkscape:connector-curvature="0"
   id="path68-3"
   style="fill:#ffffff;fill-opacity:1;fill-rule:nonzero;stroke:#ff00ff;stroke-width:0.44292;stroke-linecap:butt;stroke-linejoin:miter;stroke-miterlimit:4;stroke-opacity:1;stroke-dasharray:none"
   d="m 449.1186,70.737325 33.219,0 0,33.218995 -33.219,0 0,-33.218995 z" /></g><g
     inkscape:groupmode="layer"
     id="layer1"
     inkscape:label="001"><g
   transform="translate(0,-371)"
   style="font-size:36px;font-style:normal;font-variant:normal;font-weight:bold;font-stretch:normal;text-align:start;line-height:125%;letter-spacing:0px;word-spacing:0px;writing-mode:lr-tb;text-anchor:start;fill:#000000;fill-opacity:1;stroke:none;display:inline;font-family:Nimbus Sans L;-inkscape-font-specification:Nimbus Sans L Bold"
   id="text3428-3-9"><path
     d="m 735.4,97.221742 11.484,0 0,-4.5 -11.484,0 0,-5.94 13.032,0 0,-4.5 -18.432,0 0,26.243998 5.4,0 0,-11.303998"
     id="path3284"
     inkscape:connector-curvature="0" /><path
     d="m 757.62381,98.121742 6.192,0 c 2.34,0 3.348,0.936002 3.348,3.131998 0,0.216 0,0.576 -0.036,1.044 -0.036,0.684 -0.036,1.332 -0.036,1.728 0,2.448 0.144,3.24 0.828,4.5 l 5.796,0 0,-0.972 c -0.828,-0.468 -1.152,-1.008 -1.152,-2.16 -0.144,-7.739991 -0.288,-8.1 -3.636,-9.539998 2.952,-1.151999 4.428,-3.276004 4.428,-6.48 0,-2.087998 -0.72,-3.996002 -1.98,-5.292 -1.188,-1.223999 -2.844,-1.8 -5.076,-1.8 l -14.076,0 0,26.243998 5.4,0 0,-10.403998 m 0,-4.5 0,-6.84 6.516,0 c 1.548,0 2.196,0.144 2.844,0.684 0.648,0.539999 0.972,1.440001 0.972,2.664 0,1.259998 -0.36,2.268 -0.972,2.808 -0.576,0.503999 -1.296,0.684 -2.844,0.684 l -6.516,0"
     id="path3286"
     inkscape:connector-curvature="0" /><path
     d="m 783.60344,97.221742 12.564,0 0,-4.5 -12.564,0 0,-5.94 13.572,0 0,-4.5 -18.972,0 0,26.243998 19.62,0 0,-4.5 -14.22,0 0,-6.803998"
     id="path3288"
     inkscape:connector-curvature="0" /><path
     d="m 807.65031,97.221742 12.564,0 0,-4.5 -12.564,0 0,-5.94 13.572,0 0,-4.5 -18.972,0 0,26.243998 19.62,0 0,-4.5 -14.22,0 0,-6.803998"
     id="path3290"
     inkscape:connector-curvature="0" /></g><g
   transform="translate(0,-371)"
   style="font-size:36px;font-style:normal;font-variant:normal;font-weight:bold;font-stretch:normal;text-align:start;line-height:125%;letter-spacing:0px;word-spacing:0px;writing-mode:lr-tb;text-anchor:start;fill:#000000;fill-opacity:1;stroke:none;display:inline;font-family:Nimbus Sans L;-inkscape-font-specification:Nimbus Sans L Bold"
   id="text3428-8-9-4"><path
     d="m 899.47194,99.165757 6.732,0 c 4.82399,0 7.92,-3.420005 7.92,-8.748 0,-5.255995 -2.98801,-8.136 -8.46,-8.136 l -11.592,0 0,26.244003 5.4,0 0,-9.360003 m 0,-4.5 0,-7.884 5.04,0 c 2.87999,0 4.212,1.260003 4.212,3.96 0,2.663997 -1.33201,3.924 -4.212,3.924 l -5.04,0"
     id="path3273"
     inkscape:connector-curvature="0" /><path
     d="m 923.66281,98.121757 6.192,0 c 2.34,0 3.348,0.936002 3.348,3.132003 0,0.216 0,0.576 -0.036,1.044 -0.036,0.684 -0.036,1.332 -0.036,1.728 0,2.44799 0.144,3.24 0.828,4.5 l 5.796,0 0,-0.972 c -0.828,-0.468 -1.152,-1.008 -1.152,-2.16 -0.144,-7.739995 -0.288,-8.100005 -3.636,-9.540003 2.952,-1.151999 4.428,-3.276003 4.428,-6.48 0,-2.087998 -0.72,-3.996001 -1.98,-5.292 -1.188,-1.223999 -2.844,-1.8 -5.076,-1.8 l -14.076,0 0,26.244003 5.4,0 0,-10.404003 m 0,-4.5 0,-6.84 6.516,0 c 1.548,0 2.196,0.144 2.844,0.684 0.648,0.539999 0.972,1.440001 0.972,2.664 0,1.259999 -0.36,2.268 -0.972,2.808 -0.576,0.503999 -1.296,0.684 -2.844,0.684 l -6.516,0"
     id="path3275"
     inkscape:connector-curvature="0" /><path
     d="m 949.64244,97.221757 12.564,0 0,-4.5 -12.564,0 0,-5.94 13.572,0 0,-4.5 -18.972,0 0,26.244003 19.62,0 0,-4.5 -14.22,0 0,-6.804003"
     id="path3277"
     inkscape:connector-curvature="0" /><path
     d="m 987.29731,90.273757 c 0,-2.411998 -0.54,-3.996002 -1.836,-5.436 -1.764,-1.943998 -4.68,-2.988 -8.46,-2.988 -6.29999,0 -9.936,2.952005 -9.936,8.064 0,4.067996 2.05201,6.048001 7.38,7.056 l 3.672,0.72 c 3.6,0.683999 4.932,1.692002 4.932,3.816003 0,2.19599 -2.016,3.528 -5.292,3.528 -3.67199,0 -5.724,-1.54801 -5.904,-4.356 l -5.256,0 c 0.324,5.61599 4.17601,8.676 10.872,8.676 6.768,0 10.764,-3.16801 10.764,-8.496 0,-4.139999 -2.088,-6.300004 -6.948,-7.236003 l -4.104,-0.792 c -3.85199,-0.755999 -4.968,-1.512002 -4.968,-3.42 0,-1.979998 1.76401,-3.24 4.536,-3.24 3.42,0 5.328,1.440002 5.508,4.104 l 5.04,0"
     id="path3279"
     inkscape:connector-curvature="0" /><path
     d="m 1011.3442,90.273757 c 0,-2.411998 -0.54,-3.996002 -1.836,-5.436 -1.764,-1.943998 -4.68,-2.988 -8.46,-2.988 -6.30001,0 -9.93601,2.952005 -9.93601,8.064 0,4.067996 2.052,6.048001 7.38,7.056 l 3.67201,0.72 c 3.6,0.683999 4.932,1.692002 4.932,3.816003 0,2.19599 -2.016,3.528 -5.292,3.528 -3.67201,0 -5.72401,-1.54801 -5.90401,-4.356 l -5.256,0 c 0.324,5.61599 4.176,8.676 10.87201,8.676 6.768,0 10.764,-3.16801 10.764,-8.496 0,-4.139999 -2.088,-6.300004 -6.948,-7.236003 l -4.104,-0.792 c -3.85201,-0.755999 -4.96801,-1.512002 -4.96801,-3.42 0,-1.979998 1.764,-3.24 4.53601,-3.24 3.42,0 5.328,1.440002 5.508,4.104 l 5.04,0"
     id="path3281"
     inkscape:connector-curvature="0" /></g><g
   transform="translate(0,-371)"
   style="font-size:36px;font-style:italic;font-variant:normal;font-weight:bold;font-stretch:normal;text-align:start;line-height:125%;letter-spacing:0px;word-spacing:0px;writing-mode:lr-tb;text-anchor:start;fill:#000000;fill-opacity:1;stroke:none;display:inline;font-family:Nimbus Sans L;-inkscape-font-specification:Nimbus Sans L Bold Italic"
   id="text3428-3-7-4"><path
     d="m 828.99793,82.281757 -0.972,4.5 14.42607,0 -17.064,17.244003 -0.972,4.5 19.728,0 0.972,-4.5 -13.428,0 17.064,-17.244003 0.972,-4.5 z"
     id="path3268"
     inkscape:connector-curvature="0"
     sodipodi:nodetypes="ccccccccccc" /><path
     d="m 855.99981,97.221757 12.564,0 0.936,-4.5 -12.564,0 1.26,-5.94 13.608,0 0.972,-4.5 -19.008,0 -5.58,26.244003 19.62,0 0.972,-4.5 -14.22,0 1.44,-6.804003"
     id="path3270"
     inkscape:connector-curvature="0" /></g><g
   transform="translate(0,-371)"
   style="font-size:36px;font-style:italic;font-variant:normal;font-weight:bold;font-stretch:normal;text-align:start;line-height:125%;letter-spacing:0px;word-spacing:0px;writing-mode:lr-tb;text-anchor:start;fill:#000000;fill-opacity:1;stroke:none;display:inline;font-family:Nimbus Sans L;-inkscape-font-specification:Nimbus Sans L Bold Italic"
   id="text3428-3-7-8-26"><path
     d="m 891.23652,93.050843 -6.588,0 1.404,-6.516 -4.284,0 -1.404,6.516 -6.552,0 -0.9,4.32 6.552,0 -1.404,6.551997 4.284,0 1.404,-6.551997 6.588,0 0.9,-4.32"
     id="path3265"
     inkscape:connector-curvature="0" /></g><text
   xml:space="preserve"
   style="font-size:24.01921463px;font-style:normal;font-variant:normal;font-weight:bold;font-stretch:normal;text-align:start;line-height:140.99999666%;letter-spacing:0px;word-spacing:0px;writing-mode:lr-tb;text-anchor:start;fill:#000000;fill-opacity:1;stroke:none;font-family:TeXGyreHeros;-inkscape-font-specification:TeXGyreHeros Bold Italic"
   x="728.26898"
   y="-237.94571"
   id="text3079"
   sodipodi:linespacing="141%"><tspan
     sodipodi:role="line"
     id="tspan3081"
     x="728.26898"
     y="-237.94571"
     style="font-size:24.01921463px;font-style:normal;font-variant:normal;font-weight:normal;font-stretch:normal;text-align:start;line-height:140.99999666%;writing-mode:lr-tb;text-anchor:start;font-family:TeX Gyre Heros;-inkscape-font-specification:TeX Gyre Heros">f/l/os software-driven small</tspan></text>

<path
   id="rect3086"
   style="color:#000000;fill:none;stroke:#000000;stroke-width:1;marker:none;visibility:visible;display:inline;overflow:visible;enable-background:accumulate"
   d="m 1034.4497,-269.14624 -4.9497,-4.94975 4.9497,-4.94972 m -18.9497,32.89947 62.8554,0 0,-28 -48.3554,0"
   inkscape:connector-curvature="0"
   sodipodi:nodetypes="ccccccc" /><g
   id="g3090"
   style="font-size:36px;font-style:normal;font-variant:normal;font-weight:bold;font-stretch:normal;text-align:start;line-height:125%;letter-spacing:0px;word-spacing:0px;writing-mode:lr-tb;text-anchor:start;fill:#000000;fill-opacity:1;stroke:none;display:inline;font-family:Nimbus Sans L;-inkscape-font-specification:Nimbus Sans L Bold"
   transform="translate(460,-371)"><path
     inkscape:connector-curvature="0"
     id="path3092"
     d="m 735.4,97.221742 11.484,0 0,-4.5 -11.484,0 0,-5.94 13.032,0 0,-4.5 -18.432,0 0,26.243998 5.4,0 0,-11.303998" /><path
     inkscape:connector-curvature="0"
     id="path3094"
     d="m 757.62381,98.121742 6.192,0 c 2.34,0 3.348,0.936002 3.348,3.131998 0,0.216 0,0.576 -0.036,1.044 -0.036,0.684 -0.036,1.332 -0.036,1.728 0,2.448 0.144,3.24 0.828,4.5 l 5.796,0 0,-0.972 c -0.828,-0.468 -1.152,-1.008 -1.152,-2.16 -0.144,-7.739991 -0.288,-8.1 -3.636,-9.539998 2.952,-1.151999 4.428,-3.276004 4.428,-6.48 0,-2.087998 -0.72,-3.996002 -1.98,-5.292 -1.188,-1.223999 -2.844,-1.8 -5.076,-1.8 l -14.076,0 0,26.243998 5.4,0 0,-10.403998 m 0,-4.5 0,-6.84 6.516,0 c 1.548,0 2.196,0.144 2.844,0.684 0.648,0.539999 0.972,1.440001 0.972,2.664 0,1.259998 -0.36,2.268 -0.972,2.808 -0.576,0.503999 -1.296,0.684 -2.844,0.684 l -6.516,0" /><path
     inkscape:connector-curvature="0"
     id="path3096"
     d="m 783.60344,97.221742 12.564,0 0,-4.5 -12.564,0 0,-5.94 13.572,0 0,-4.5 -18.972,0 0,26.243998 19.62,0 0,-4.5 -14.22,0 0,-6.803998" /><path
     inkscape:connector-curvature="0"
     id="path3098"
     d="m 807.65031,97.221742 12.564,0 0,-4.5 -12.564,0 0,-5.94 13.572,0 0,-4.5 -18.972,0 0,26.243998 19.62,0 0,-4.5 -14.22,0 0,-6.803998" /></g><g
   id="g3100"
   style="font-size:36px;font-style:normal;font-variant:normal;font-weight:bold;font-stretch:normal;text-align:start;line-height:125%;letter-spacing:0px;word-spacing:0px;writing-mode:lr-tb;text-anchor:start;fill:#000000;fill-opacity:1;stroke:none;display:inline;font-family:Nimbus Sans L;-inkscape-font-specification:Nimbus Sans L Bold"
   transform="translate(460,-371)"><path
     inkscape:connector-curvature="0"
     id="path3102"
     d="m 899.47194,99.165757 6.732,0 c 4.82399,0 7.92,-3.420005 7.92,-8.748 0,-5.255995 -2.98801,-8.136 -8.46,-8.136 l -11.592,0 0,26.244003 5.4,0 0,-9.360003 m 0,-4.5 0,-7.884 5.04,0 c 2.87999,0 4.212,1.260003 4.212,3.96 0,2.663997 -1.33201,3.924 -4.212,3.924 l -5.04,0" /><path
     inkscape:connector-curvature="0"
     id="path3104"
     d="m 923.66281,98.121757 6.192,0 c 2.34,0 3.348,0.936002 3.348,3.132003 0,0.216 0,0.576 -0.036,1.044 -0.036,0.684 -0.036,1.332 -0.036,1.728 0,2.44799 0.144,3.24 0.828,4.5 l 5.796,0 0,-0.972 c -0.828,-0.468 -1.152,-1.008 -1.152,-2.16 -0.144,-7.739995 -0.288,-8.100005 -3.636,-9.540003 2.952,-1.151999 4.428,-3.276003 4.428,-6.48 0,-2.087998 -0.72,-3.996001 -1.98,-5.292 -1.188,-1.223999 -2.844,-1.8 -5.076,-1.8 l -14.076,0 0,26.244003 5.4,0 0,-10.404003 m 0,-4.5 0,-6.84 6.516,0 c 1.548,0 2.196,0.144 2.844,0.684 0.648,0.539999 0.972,1.440001 0.972,2.664 0,1.259999 -0.36,2.268 -0.972,2.808 -0.576,0.503999 -1.296,0.684 -2.844,0.684 l -6.516,0" /><path
     inkscape:connector-curvature="0"
     id="path3106"
     d="m 949.64244,97.221757 12.564,0 0,-4.5 -12.564,0 0,-5.94 13.572,0 0,-4.5 -18.972,0 0,26.244003 19.62,0 0,-4.5 -14.22,0 0,-6.804003" /><path
     inkscape:connector-curvature="0"
     id="path3108"
     d="m 987.29731,90.273757 c 0,-2.411998 -0.54,-3.996002 -1.836,-5.436 -1.764,-1.943998 -4.68,-2.988 -8.46,-2.988 -6.29999,0 -9.936,2.952005 -9.936,8.064 0,4.067996 2.05201,6.048001 7.38,7.056 l 3.672,0.72 c 3.6,0.683999 4.932,1.692002 4.932,3.816003 0,2.19599 -2.016,3.528 -5.292,3.528 -3.67199,0 -5.724,-1.54801 -5.904,-4.356 l -5.256,0 c 0.324,5.61599 4.17601,8.676 10.872,8.676 6.768,0 10.764,-3.16801 10.764,-8.496 0,-4.139999 -2.088,-6.300004 -6.948,-7.236003 l -4.104,-0.792 c -3.85199,-0.755999 -4.968,-1.512002 -4.968,-3.42 0,-1.979998 1.76401,-3.24 4.536,-3.24 3.42,0 5.328,1.440002 5.508,4.104 l 5.04,0" /><path
     inkscape:connector-curvature="0"
     id="path3110"
     d="m 1011.3442,90.273757 c 0,-2.411998 -0.54,-3.996002 -1.836,-5.436 -1.764,-1.943998 -4.68,-2.988 -8.46,-2.988 -6.30001,0 -9.93601,2.952005 -9.93601,8.064 0,4.067996 2.052,6.048001 7.38,7.056 l 3.67201,0.72 c 3.6,0.683999 4.932,1.692002 4.932,3.816003 0,2.19599 -2.016,3.528 -5.292,3.528 -3.67201,0 -5.72401,-1.54801 -5.90401,-4.356 l -5.256,0 c 0.324,5.61599 4.176,8.676 10.87201,8.676 6.768,0 10.764,-3.16801 10.764,-8.496 0,-4.139999 -2.088,-6.300004 -6.948,-7.236003 l -4.104,-0.792 c -3.85201,-0.755999 -4.96801,-1.512002 -4.96801,-3.42 0,-1.979998 1.764,-3.24 4.53601,-3.24 3.42,0 5.328,1.440002 5.508,4.104 l 5.04,0" /></g><g
   id="g3112"
   style="font-size:36px;font-style:italic;font-variant:normal;font-weight:bold;font-stretch:normal;text-align:start;line-height:125%;letter-spacing:0px;word-spacing:0px;writing-mode:lr-tb;text-anchor:start;fill:#000000;fill-opacity:1;stroke:none;display:inline;font-family:Nimbus Sans L;-inkscape-font-specification:Nimbus Sans L Bold Italic"
   transform="translate(460,-371)"><path
     sodipodi:nodetypes="ccccccccccc"
     inkscape:connector-curvature="0"
     id="path3114"
     d="m 828.99793,82.281757 -0.972,4.5 14.42607,0 -17.064,17.244003 -0.972,4.5 19.728,0 0.972,-4.5 -13.428,0 17.064,-17.244003 0.972,-4.5 z" /><path
     inkscape:connector-curvature="0"
     id="path3116"
     d="m 855.99981,97.221757 12.564,0 0.936,-4.5 -12.564,0 1.26,-5.94 13.608,0 0.972,-4.5 -19.008,0 -5.58,26.244003 19.62,0 0.972,-4.5 -14.22,0 1.44,-6.804003" /></g><g
   id="g3118"
   style="font-size:36px;font-style:italic;font-variant:normal;font-weight:bold;font-stretch:normal;text-align:start;line-height:125%;letter-spacing:0px;word-spacing:0px;writing-mode:lr-tb;text-anchor:start;fill:#000000;fill-opacity:1;stroke:none;display:inline;font-family:Nimbus Sans L;-inkscape-font-specification:Nimbus Sans L Bold Italic"
   transform="translate(460,-371)"><path
     inkscape:connector-curvature="0"
     id="path3120"
     d="m 891.23652,93.050843 -6.588,0 1.404,-6.516 -4.284,0 -1.404,6.516 -6.552,0 -0.9,4.32 6.552,0 -1.404,6.551997 4.284,0 1.404,-6.551997 6.588,0 0.9,-4.32" /></g><text
   sodipodi:linespacing="141%"
   id="text3122"
   y="-239.31448"
   x="1188.3519"
   style="font-size:19.41707039px;font-style:normal;font-variant:normal;font-weight:bold;font-stretch:normal;text-align:start;line-height:140.99999666%;letter-spacing:0px;word-spacing:0px;writing-mode:lr-tb;text-anchor:start;fill:#000000;fill-opacity:1;stroke:none;font-family:TeXGyreHeros;-inkscape-font-specification:TeXGyreHeros Bold Italic"
   xml:space="preserve"><tspan
     style="font-size:19.41707039px;font-style:normal;font-variant:normal;font-weight:normal;font-stretch:normal;text-align:start;line-height:140.99999666%;writing-mode:lr-tb;text-anchor:start;font-family:TeX Gyre Heros;-inkscape-font-specification:TeX Gyre Heros"
     y="-239.31448"
     x="1188.3519"
     id="tspan3124"
     sodipodi:role="line">f/l/os software-driven printmaking</tspan></text>

<text
   xml:space="preserve"
   style="font-size:19.41707038999999924px;font-style:normal;font-variant:normal;font-weight:bold;font-stretch:normal;text-align:start;line-height:140.99999665999999365%;letter-spacing:0px;word-spacing:0px;writing-mode:lr-tb;text-anchor:start;fill:#ffff00;fill-opacity:1;stroke:none;font-family:TeXGyreHeros;-inkscape-font-specification:TeXGyreHeros Bold Italic"
   x="1538.3519"
   y="-239.31448"
   id="text3080"
   sodipodi:linespacing="141%"><tspan
     sodipodi:role="line"
     id="tspan3082"
     x="1538.3519"
     y="-239.31448"
     style="font-size:19.41707038999999924px;font-style:normal;font-variant:normal;font-weight:normal;font-stretch:normal;text-align:start;line-height:140.99999665999999365%;writing-mode:lr-tb;text-anchor:start;font-family:TeX Gyre Heros;-inkscape-font-specification:TeX Gyre Heros;fill:#ffff00">f/l/os culture-driven software</tspan></text>
<text
   sodipodi:linespacing="141%"
   id="text3084"
   y="-209.31448"
   x="1538.3519"
   style="font-size:19.41707039px;font-style:normal;font-variant:normal;font-weight:bold;font-stretch:normal;text-align:start;line-height:140.99999666%;letter-spacing:0px;word-spacing:0px;writing-mode:lr-tb;text-anchor:start;fill:#ffff00;fill-opacity:1;stroke:none;font-family:TeXGyreHeros;-inkscape-font-specification:TeXGyreHeros Bold Italic"
   xml:space="preserve"><tspan
     style="font-size:19.41707039px;font-style:normal;font-variant:normal;font-weight:normal;font-stretch:normal;text-align:start;line-height:140.99999666%;writing-mode:lr-tb;text-anchor:start;fill:#ffff00;font-family:TeX Gyre Heros;-inkscape-font-specification:TeX Gyre Heros"
     y="-209.31448"
     x="1538.3519"
     id="tspan3086"
     sodipodi:role="line">software culture ephemera</tspan></text>
</g></svg>