<?xml version="1.0" encoding="UTF-8" standalone="no"?>
<!-- CLEANED: 1565690319/17bd35e1975381a8519ad195a4639a8f -->

<!-- Created with Inkscape (http://www.inkscape.org/) -->

<svg
   xmlns:dc="http://purl.org/dc/elements/1.1/"
   xmlns:cc="http://creativecommons.org/ns#"
   xmlns:rdf="http://www.w3.org/1999/02/22-rdf-syntax-ns#"
   xmlns:svg="http://www.w3.org/2000/svg"
   xmlns="http://www.w3.org/2000/svg"
   xmlns:sodipodi="http://sodipodi.sourceforge.net/DTD/sodipodi-0.dtd"
   xmlns:inkscape="http://www.inkscape.org/namespaces/inkscape"
   style="display:inline"
   sodipodi:docname="200120_Cyclist.svg"
   inkscape:version="0.48.3.1 r9886"
   version="1.1"
   id="svg2902"
   height="400"
   width="400">
  <sodipodi:namedview
     id="base"
     pagecolor="#f0f0f0"
     bordercolor="#666666"
     borderopacity="1.0"
     inkscape:pageopacity="1"
     inkscape:pageshadow="2"
     inkscape:document-units="px"
     showgrid="false"
     showguides="false"
     inkscape:guide-bbox="true"
     inkscape:snap-bbox="true"
     inkscape:snap-global="false"
     inkscape:zoom="1.850084643"
     inkscape:cx="223.0352011"
     inkscape:cy="198.4500223"
     inkscape:current-layer="layer9">
    <sodipodi:guide
       position="67,370"
       orientation="11,0"
       id="guide5010" />
    <sodipodi:guide
       position="333,370"
       orientation="11,0"
       id="guide5012" />
    <sodipodi:guide
       position="370,333"
       orientation="0,-11"
       id="guide5014" />
    <sodipodi:guide
       position="370,67"
       orientation="0,-11"
       id="guide5016" />
    <sodipodi:guide
       position="67,30"
       orientation="-11,0"
       id="guide5018" />
    <sodipodi:guide
       position="333,30"
       orientation="-11,0"
       id="guide5020" />
    <sodipodi:guide
       position="30,333"
       orientation="0,11"
       id="guide5022" />
    <sodipodi:guide
       position="30,67"
       orientation="0,11"
       id="guide5024" />
  </sodipodi:namedview>
  <defs
     id="defs2904">
    <inkscape:path-effect
       fuse_tolerance="0"
       vertical_pattern="false"
       prop_units="false"
       tang_offset="0"
       normal_offset="0"
       spacing="0"
       scale_y_rel="false"
       prop_scale="1"
       copytype="repeated"
       pattern="#path4994"
       is_visible="true"
       id="path-effect4998"
       effect="skeletal" />
  </defs>
  <metadata
     id="metadata2907">
    <rdf:RDF>
      <cc:Work
         rdf:about="">
        <dc:format>image/svg+xml</dc:format>
        <dc:type
           rdf:resource="http://purl.org/dc/dcmitype/StillImage" />
        <dc:title />
      </cc:Work>
    </rdf:RDF>
  </metadata>
  <g
     inkscape:groupmode="layer"
     id="bg"
     inkscape:label="XX_BG"
     sodipodi:insensitive="true">
    <path
       style="fill:#ffd5e5"
       d="M 400,0 400,400 0,400 0,0 z"
       id="bgrect"
       inkscape:connector-curvature="0" />
  </g>
  <g
     inkscape:label="XX_REF"
     inkscape:groupmode="layer"
     id="XX_referenz"
     style="display:inline"
     sodipodi:insensitive="true">
    <path
       style="fill:none;stroke:#000000;stroke-width:1px;stroke-linecap:butt"
       d="m 67,30 0,11"
       id="C-top-1"
       sodipodi:nodetypes="cc"
       inkscape:connector-curvature="0" />
    <path
       style="fill:none;stroke:#000000;stroke-width:1px;stroke-linecap:butt"
       d="m 333,30 0,11"
       id="C-top-4"
       sodipodi:nodetypes="cc"
       inkscape:connector-curvature="0" />
    <path
       style="fill:none;stroke:#000000;stroke-width:1px;stroke-linecap:butt"
       d="m 370,67 -11,0"
       id="C-right-1"
       sodipodi:nodetypes="cc"
       inkscape:connector-curvature="0" />
    <path
       style="fill:none;stroke:#000000;stroke-width:1px;stroke-linecap:butt"
       d="m 370,333 -11,0"
       id="C-right-4"
       sodipodi:nodetypes="cc"
       inkscape:connector-curvature="0" />
    <path
       style="fill:none;stroke:#000000;stroke-width:1px;stroke-linecap:butt"
       d="m 67,370 0,-11"
       id="C-bottom-1"
       sodipodi:nodetypes="cc"
       inkscape:connector-curvature="0" />
    <path
       style="fill:none;stroke:#000000;stroke-width:1px;stroke-linecap:butt"
       d="m 333,370 0,-11"
       id="C-bottom-4"
       sodipodi:nodetypes="cc"
       inkscape:connector-curvature="0" />
    <path
       style="fill:none;stroke:#000000;stroke-width:1px;stroke-linecap:butt"
       d="m 30,67 11,0"
       id="C-left-1"
       sodipodi:nodetypes="cc"
       inkscape:connector-curvature="0" />
    <path
       style="fill:none;stroke:#000000;stroke-width:1px;stroke-linecap:butt"
       d="m 30,333 11,0"
       id="C-left-4"
       sodipodi:nodetypes="cc"
       inkscape:connector-curvature="0" />
  </g>
  <g
     inkscape:groupmode="layer"
     id="layer1"
     inkscape:label="XX_IMPORT"
     sodipodi:insensitive="true"
     style="display:none">
    <path
       id="15"
       style="fill:#000000;stroke:none"
       d="m 593.0977823,99.07657774 -3.6001059,0.81397559 -3.7448783,3.22487937 -1.3162472,3.5203334 0,2.4995401 1.3162472,3.5247651 2.6487443,2.6384035 3.4494244,1.3147699 3.7463556,-0.2939767 3.3002202,-1.759428 2.2040862,-3.0018118 0.7327257,-2.422722 -0.2880676,-3.6710149 -1.0267023,-2.3488586 -2.6546534,-2.6428352 -2.2676088,-1.02670236 m 9.1861499,16.15849026 -3.0930331,0.276988 -2.5390571,1.7542576 -27.6526395,33.9310352 -9.0944408,22.8976782 -3.6470092,-0.4154821 -4.3394793,-0.5539761 -5.6782549,0.6463055 -8.3558059,3.5546799 -3.6931739,2.7237157 -3.1391978,3.2776918 -2.5852218,3.831668 -2.5852217,6.3245603 -0.8309641,3.5085152 -0.046165,5.5859255 0.6924701,4.524138 2.400563,6.4168897 2.4928924,3.8778325 3.0468685,3.3700212 3.5546799,2.8160451 6.1860662,3.0468685 6.6938777,1.4772696 6.8323717,-0.2769881 6.6015484,-1.9389163 5.8629136,-3.5085152 3.3700211,-3.0930331 2.8160451,-3.6008446 2.2159044,-4.0163266 1.4772695,-4.3394793 0.6924701,-4.4779734 0,-4.6164673 -0.7847994,-4.4779734 -1.4772696,-4.3394793 -2.2159043,-4.0163266 -2.8622098,-3.5085152 -3.3700212,-3.0930332 -1.8927516,-1.3387755 -1.985081,-1.1541169 3.0007038,-7.4786771 20.8664326,27.2371575 1.6619282,9.4637581 2.3082337,0.7386348 6.509219,-2.6775511 5.5397608,0 1.5234343,6.6938777 1.9850809,4.108656 4.0163267,5.4474315 5.4012668,4.2471499 6.1399016,2.8622098 6.786207,1.2464462 4.5241381,-0.138494 6.6015483,-1.5695989 4.108656,-1.985081 3.7855032,-2.5390571 3.2776918,-3.1391978 2.6313864,-3.6931739 2.123575,-4.0163266 1.8004223,-6.6015483 0.1846587,-4.5703027 -1.6619283,-8.9097821 -3.1391978,-6.0937369 -4.5703027,-5.0319494 -5.6320902,-3.8316679 -5.5397608,-2.123575 -5.4474315,-0.7847995 -6.8323717,0.5078114 -4.2933147,1.1541169 -6.5553836,-12.9261087 6.5553836,-4.5703027 0.6463055,-1.0617875 0.8771288,-3.7855032 -1.0156229,-3.6470092 -18.4658695,-32.3152716 -2.7698804,-1.2926109 z m -5.6782548,18.1427168 9.048276,16.1114711 -11.6796625,10.4332163 -22.1128787,0 1.708093,-4.24715 23.0361722,-22.2975374 z m -23.1285016,32.4999303 14.4957076,0 -2.1697397,2.3543983 -0.4154821,0.8771288 -0.2308233,2.9545391 1.8927516,11.5873332 -13.5724141,-17.7733994 z m 33.8387059,1.5234342 -8.5866294,17.9118934 -0.553976,-12.4644619 9.1406054,-5.4474315 z m 6.0014075,1.3387755 4.385644,8.7251234 -3.5546798,2.7237157 -3.0468685,3.3238565 -2.4928924,3.6470093 -1.8465869,4.0624912 -1.2464462,4.3394794 -0.2769881,2.1697396 -5.8167489,0 13.8955668,-28.9914151 z m -63.6149204,10.479381 6.0014076,0 1.985081,0.4616467 -8.0788179,20.1739624 0.138494,2.2159044 1.0617875,1.1079521 2.3543984,0.3693174 2.0312456,-1.6157636 7.9403239,-20.0354683 3.3238565,2.262069 2.7698804,2.7698804 2.262069,3.4161858 2.0774104,5.5397609 0.3693174,1.985081 0,5.9552429 -0.9694582,3.8778326 -2.7237157,5.3551021 -2.5390571,3.0468685 -4.8472907,3.5546799 -3.6931739,1.5695989 -5.8629136,1.0156228 -3.9701619,-0.2308234 -2.8160451,-0.6001407 -6.4168897,-2.9545392 -4.3394793,-4.1548206 -2.3082337,-3.2776918 -1.5234342,-3.6931739 -0.8771288,-3.8778326 0.046165,-6.0014076 0.9694582,-3.8778326 1.6157636,-3.6008445 3.6931739,-4.8011261 1.4311048,-1.2926109 5.1704435,-3.0930331 5.7244195,-1.5695989 z m 79.8187209,0 6.0475723,0 3.8778326,0.9232934 3.6470092,1.6157636 1.7080929,1.0156229 4.385644,4.0163266 2.3082337,3.3238565 1.6157636,3.6470092 0.9232935,3.8778326 0.1846587,1.985081 -0.1846587,3.9701619 -0.8771288,3.9239973 -1.6157636,3.6470092 -3.6008446,4.7549614 -4.7549614,3.6008445 -5.5859255,2.2159044 -3.9701619,0.5078114 -4.0163266,-0.138494 -3.9239973,-0.9694582 -6.1860663,-2.9545391 -3.5546799,-3.7393386 -3.1391978,-5.0319494 -1.6157636,-5.8167489 21.4204087,0 1.8465869,-0.6463054 1.0156228,-1.708093 0,-1.2926108 -9.8330755,-19.7584804 3.8778326,-0.9694581 z m -9.1867701,3.6008445 0.046165,0 7.4786772,14.9111896 -16.6654473,0 0.6924702,-2.9083744 0.9232934,-2.8622098 0.8771288,-1.8004223 2.262069,-3.2776918 2.7698805,-2.8622098 1.6157635,-1.2002815 z"
       inkscape:connector-curvature="0" />
    <path
       style="fill:#000000;fill-rule:evenodd;stroke:none"
       d="m 605.8940581,240.506842 -2.6875,0.1875 -0.875,0.28125 -1.625,0.84375 -0.71875,0.53125 -1.09375,1.40625 -0.4375,1.25 0,1.34375 0.40625,2.03125 0.34375,1.40625 0.0625,0.875 -0.15625,1.28125 0.09375,0.59375 0.375,0.9375 0.4375,1.25 0.46875,1.84375 0.15625,0.875 0.46875,0.84375 2.0625,0.15625 1.0625,0.34375 1.34375,1 0.5625,1.0625 -0.15625,1.1875 -3.90625,6 -5.1875,10.4375 -7.1875,2.875 -4.15625,1.1875 -6.78125,1.3125 -1.34375,0.4375 -1.21875,0.65625 -1.125,0.84375 -0.96875,0.9375 -1.65625,-0.03125 -0.8125,0.03125 -0.84375,0.1875 -0.71875,0.375 -0.6875,0.53125 -0.46875,0.65625 -0.375,0.75 -0.25,1.28125 0.1875,1.1875 0.5,1.03125 1.03125,0.9375 0.75,0.375 -1.21875,3.4375 -0.4375,-0.1875 -7.0625,19.15625 -2.0625,-0.71875 -2.0625,-0.59375 -2.15625,-0.375 -2.1875,-0.21875 -2.15625,-0.03125 -2.15625,0.15625 -2.15625,0.28125 -2.09375,0.59375 0.34375,1.40625 -3.03125,1.0625 -2.03125,0.96875 -2,1.125 -1.84375,1.28125 -1.6875,1.46875 -1.59375,1.625 -1.5,1.6875 -1.28125,1.875 -1.125,1.9375 -0.96875,2.0625 -0.78125,2.125 -0.59375,2.1875 -0.375,2.25 -0.21875,2.21875 -0.03125,2.28125 0.1875,2.25 0.4375,2.21875 0.5625,2.1875 0.75,2.125 0.9375,2.0625 1.15625,1.96875 1.28125,1.84375 1.4375,1.75 1.59375,1.625 1.6875,1.5 1.875,1.28125 1.9375,1.125 2.03125,1 2.125,0.78125 2.1875,0.625 2.25,0.40625 2.25,0.1875 2.25,0.03125 2.25,-0.1875 2.21875,-0.375 2.21875,-0.53125 2.125,-0.75 2.0625,-0.96875 1.96875,-1.09375 1.875,-1.28125 1.75,-1.4375 1.625,-1.59375 1.46875,-1.6875 1.34375,-1.84375 1.15625,-1.96875 0.96875,-2.03125 1.34375,0.4375 0.75,-2.09375 0.65625,-2.125 0.40625,-2.25 0.28125,-2.21875 0.03125,-2.25 -0.125,-2.25 -0.28125,-2.21875 -0.46875,-2.21875 -0.6875,-2.125 -0.8125,-2.09375 -1,-2 -1.15625,-1.9375 -1.3125,-1.875 -1.46875,-1.6875 -1.59375,-1.59375 -1.71875,-1.4375 -1.8125,-1.34375 -2,-1.15625 0.84375,-1.96875 22.5,18.75 -0.15625,1.125 -0.40625,1.09375 -0.53125,1 -0.75,0.90625 -0.875,0.75 -0.96875,0.59375 -3.46875,0.625 -0.3125,2.78125 2.78125,0.40625 -0.03125,1.125 4.65625,0.59375 0.40625,-1.59375 1.9375,-0.25 0.34375,1.1875 0.53125,1.09375 0.6875,1.03125 0.8125,0.90625 0.9375,0.78125 1.03125,0.65625 1.09375,0.5 1.5,0.5 0.84375,0.03125 1.21875,0 1.1875,-0.15625 1.1875,-0.34375 1.125,-0.5 1.03125,-0.6875 0.96875,-0.75 0.78125,-0.90625 0.6875,-1.03125 0.53125,-1.09375 0.375,-1.1875 2.53125,0 0.28125,2.28125 0.4375,2.25 0.6875,2.15625 0.8125,2.125 1.03125,2.03125 1.21875,1.9375 1.375,1.8125 1.5,1.71875 1.6875,1.5625 1.78125,1.40625 1.875,1.28125 2,1.0625 2.125,0.90625 2.1875,0.65625 2.21875,0.53125 2.25,0.34375 2.28125,0.125 2.25,-0.09375 2.28125,-0.25 2.21875,-0.5 2.21875,-0.625 2.125,-0.875 2,-1.03125 1.9375,-1.21875 1.8125,-1.34375 1.71875,-1.53125 1.5625,-1.65625 1.375,-1.78125 1.25,-1.9375 1.0625,-2 0.90625,-2.09375 0.71875,-2.1875 0.5,-2.21875 0.34375,-2.25 0.125,-2.34375 1.34375,0.0625 -0.125,-2.28125 -0.3125,-2.25 -0.46875,-2.21875 -0.6875,-2.15625 -0.8125,-2.125 -1.03125,-2.0625 -1.15625,-1.90625 -1.34375,-1.875 -1.46875,-1.75 -1.625,-1.59375 -1.75,-1.4375 -1.875,-1.3125 -1.96875,-1.1875 -2.03125,-0.96875 -2.125,-0.84375 -2.15625,-0.625 -2.25,-0.46875 -2.25,-0.3125 -2.3125,-0.0625 -2.25,0.0625 -2.21875,0.28125 -2.25,0.5 -2.1875,0.625 -2.125,0.8125 -5.875,-10.78125 1.15625,-0.875 1.78125,-0.0625 1.75,-0.15625 1.25,-0.3125 1.96875,-0.59375 1.1875,-0.84375 0.78125,-1.625 0.1875,-1.0625 0.28125,-2.21875 0.28125,-2.28125 0,-1.78125 -0.125,-3.125 -0.34375,-2.40625 -1,-4.09375 -1.375,-3.1875 -0.90625,-1.4375 -0.75,-1.5 -0.75,-2.5625 -0.53125,-2.6875 -0.875,-3.84375 -0.5625,-1.625 -0.84375,-1.5625 -1.0625,-1.40625 -1.84375,-1.84375 -1.84375,-1.5625 -1.6875,-1.75 -1.03125,-0.875 -1.125,-0.75 -0.5625,-0.625 -0.34375,-0.71875 -0.21875,-0.8125 -0.09375,-1.03125 0.15625,-1.09375 0.40625,-1.1875 0.46875,-1.5 0.15625,-0.90625 0.09375,-1.25 -0.03125,-1.25 -0.1875,-1.21875 -0.3125,-1.21875 -0.4375,-1.0625 -1.40625,-1.78125 -0.875,-0.71875 -0.96875,-0.5 -1.40625,-0.40625 -1.6875,-0.40625 z m 1.125,38.09375 1.53125,3.71875 1.65625,3.46875 1.28125,3.1875 0.4375,1.3125 -0.4375,0.875 -0.5625,0.40625 -1.9375,1.5 -3.09375,2.21875 -1.78125,1.21875 -4.125,3.34375 -2,1.96875 -1.65625,1.875 -25.875,-0.03125 1.75,-5 -0.5,-0.15625 2.25,-6.34375 -0.4375,-0.0625 0.125,-0.53125 -1.53125,-0.4375 -0.25,0.5625 -0.5,-0.46875 -0.1875,-0.5625 0.3125,-1 0.4375,-0.28125 0.71875,-0.15625 0.78125,0.15625 0.28125,0.46875 0.65625,0.9375 1,0.75 1.28125,0.5 1.96875,0.40625 1.0625,-0.15625 0.59375,-0.5625 0.3125,-0.5 1.25,0.28125 0.71875,-2.40625 -1.375,-0.40625 0.03125,-0.65625 1.28125,-0.625 0.46875,0.1875 0.78125,1.40625 11.625,-2.09375 2.03125,-0.5625 1.21875,-0.5625 4.0625,-2.96875 4.34375,-4.21875 z m -38.15625,29.25 26.09375,0 0.71875,1.4375 -0.8125,0.8125 -0.625,0.84375 -0.5625,0.9375 -0.4375,0.875 -0.25,0.9375 -3.46875,16.46875 -22.0625,-18.40625 1.40625,-3.90625 z m 41,0 2.5,0.375 -1.9375,5.3125 -3.03125,-4 2.46875,-1.6875 z m -8.09375,10.46875 4.78125,5.8125 -3.75,10.375 -2,-0.59375 -1.5625,-0.15625 -1.5,0.09375 4.03125,-15.53125 z m 34.40625,3.15625 2.03125,0.09375 1.96875,0.25 1.96875,0.4375 1.9375,0.65625 1.8125,0.875 1.75,0.96875 1.625,1.21875 1.53125,1.34375 1.40625,1.46875 1.1875,1.59375 1.0625,1.75 0.875,1.8125 0.71875,1.875 0.5,1.9375 0.3125,2 0.125,2.21875 -0.09375,1.84375 -0.28125,1.96875 -0.46875,1.96875 -0.65625,1.9375 -0.84375,1.84375 -1.0625,1.71875 -1.15625,1.625 -1.34375,1.53125 -1.5,1.34375 -1.59375,1.21875 -1.75,1.0625 -1.8125,0.875 -1.90625,0.6875 -1.96875,0.5 -1.96875,0.3125 -2.125,0.09375 -1.9375,-0.0625 -2,-0.3125 -1.9375,-0.5 -1.9375,-0.625 -1.8125,-0.875 -1.75,-1.03125 -1.625,-1.21875 -1.46875,-1.34375 -1.375,-1.5 -1.1875,-1.625 -1.0625,-1.75 -0.84375,-1.8125 -0.6875,-1.90625 -0.84375,-3.96875 16.6875,0 0.53125,0.75 0.65625,0.625 0.78125,0.4375 0.875,0.28125 0.75,0.0625 1.03125,-0.15625 0.84375,-0.3125 0.75,-0.5 0.59375,-0.65625 0.46875,-0.78125 0.3125,-0.84375 0.0625,-0.84375 -0.125,-0.9375 -0.28125,-0.875 -0.5,-0.75 -0.65625,-0.625 -0.78125,-0.46875 -0.84375,-0.3125 -0.875,-0.0625 -7.90625,-14.75 1.84375,-0.84375 1.9375,-0.5 2,-0.3125 2.03125,-0.125 z m -84.25,0.03125 2.21875,0.15625 1.96875,0.3125 1.9375,0.46875 1.9375,0.78125 -1.21875,3.0625 -2.65625,6.09375 -3.09375,6 -0.84375,0 -0.78125,0.15625 -0.8125,0.34375 -0.625,0.53125 -0.53125,0.625 -0.375,0.75 -0.21875,0.8125 -0.0625,0.53125 0.1875,1.125 0.34375,0.75 0.53125,0.6875 0.625,0.53125 0.75,0.4375 0.84375,0.1875 0.8125,0 0.8125,-0.125 0.78125,-0.34375 0.6875,-0.5 0.53125,-0.625 0.375,-0.78125 0.21875,-0.78125 0.03125,-0.84375 -0.125,-0.84375 -0.34375,-0.78125 -0.5,-0.6875 0.0625,-0.0625 2.59375,-4.5625 2.21875,-4.21875 2.90625,-5.875 1.59375,1.1875 1.5,1.34375 1.375,1.46875 1.1875,1.59375 1.0625,1.75 0.875,1.78125 0.6875,1.875 0.53125,1.9375 0.3125,2 0.09375,2.03125 -0.0625,2 -0.3125,1.96875 -0.4375,1.96875 -0.6875,1.90625 -0.84375,1.8125 -1,1.75 -1.21875,1.625 -1.34375,1.46875 -1.46875,1.375 -1.625,1.21875 -1.71875,1 -1.8125,0.875 -1.90625,0.6875 -1.9375,0.5 -2,0.28125 -2.03125,0.125 -1.96875,-0.125 -1.96875,-0.25 -1.96875,-0.5 -1.90625,-0.6875 -1.8125,-0.875 -1.71875,-1 -1.625,-1.21875 -1.46875,-1.375 -1.375,-1.46875 -1.15625,-1.625 -1.0625,-1.71875 -0.84375,-1.8125 -0.6875,-1.90625 -0.46875,-1.9375 -0.28125,-2 -0.125,-1.90625 0.125,-2.09375 0.3125,-2 0.5,-1.9375 0.6875,-1.90625 0.875,-1.8125 1.03125,-1.6875 1.21875,-1.65625 1.34375,-1.46875 1.53125,-1.3125 1.625,-1.1875 1.71875,-1.03125 1.8125,-0.8125 1.9375,-0.6875 1.9375,-0.46875 2,-0.28125 1.78125,-0.09375 z m 72.75,3.71875 8.0625,14.84375 -16.78125,0 0.34375,-2.1875 0.65625,-2.15625 0.78125,-2.125 3.03125,-2 -0.53125,-2.21875 1.28125,-1.5625 1.53125,-1.375 1.625,-1.21875 z m -14.96875,2.625 0.25,0.90625 0.09375,1 -0.09375,0.96875 -0.21875,0.9375 -0.375,0.90625 -0.5625,0.8125 -0.65625,0.71875 -0.9375,0.6875 2.5,-6.9375 z"
       id="4"
       inkscape:connector-curvature="0" />
    <path
       style="fill:#ff0000;stroke:none"
       d="m 572.852831,287.4530544 -1.1986115,0.1933244 -0.8506275,0.2706542 -0.9279572,0.5026436 -0.5413084,0.5413084 -0.4253138,0.6959679 -0.2706542,0.695968 -0.1159946,0.7732977 0,0.8119626 0.1933244,0.7732977 0.347984,0.695968 0.4639786,0.657303 0.5799733,0.5026435 0.6573031,0.4253138 -1.2759413,3.6344993 -0.4639786,-0.1933244 -6.0703871,17.979172 -2.3198932,-0.8119626 -4.2918024,-0.8119626 -3.5571695,-0.2706542 -4.2918024,0.1159947 0.1159947,1.1212817 -4.0211482,0.9279572 -3.8278237,1.5465955 -3.5185046,2.1652336 -3.1705207,2.6678771 -2.6678771,3.0931909 -2.1652337,3.5185047 -1.5852603,3.7891588 -1.005287,3.9824833 -0.347984,4.1371428 0.3093191,4.0984779 0.9666221,4.0211482 1.5465955,3.7891588 2.1265687,3.5571696 1.2759413,1.6239252 3.5571695,3.5185046 4.4851268,2.8612016 2.4745527,1.1986115 5.3357543,1.353271 4.6784512,0.3479839 5.5677436,-0.6959679 3.9051535,-1.2759413 3.7118291,-1.8559145 3.3251802,-2.3972229 2.9385313,-2.8998665 2.397223,-3.3251802 1.8945794,-3.6731642 1.1599466,0.3866489 1.2759412,-3.9824833 0.6573031,-4.1758077 0.038665,-4.1758077 -0.6186382,-4.1371428 -1.2759412,-4.0211482 -1.8172497,-3.7891588 -2.3972229,-3.4411749 -2.8998665,-3.0158611 -2.8225367,-2.2425634 -2.3198932,-1.4306008 1.2372764,-3.5571695 24.5522027,27.1427501 -0.8892924,1.8945794 -0.3093191,3.1705206 0.5413084,2.049239 1.0826169,1.8172497 2.4358878,2.0492389 3.054526,0.8119626 1.0439519,0 1.1986115,4.4464619 -1.8945794,0 0,2.7065421 6.9596795,0 -0.038665,-2.6678772 -2.4358878,0 -1.4306008,-5.1037649 1.8559145,-1.2759413 1.4306008,-1.701255 0.9279573,-1.5079305 0.309319,-1.6239253 4.8717757,-0.4253137 0.9666221,3.9824833 1.5852604,3.7891588 2.2038985,3.5185047 2.6678771,3.1318557 3.1705207,2.6678772 3.5185046,2.1652336 3.8278238,1.5465954 6.0317222,1.2372764 4.1371428,0 4.098478,-0.6186382 3.9051535,-1.2372763 3.711829,-1.8559146 3.3251802,-2.4358878 2.9385314,-2.8612016 2.4745527,-3.3251802 1.8945794,-3.6731642 1.3146061,-3.9051535 0.695968,-4.059813 0.07733,-4.1371428 1.005287,-0.07733 -0.2706542,-2.1265687 -1.0439519,-4.1371429 -1.6625901,-3.9438183 -2.2425634,-3.6731642 -2.7838718,-3.2478505 -3.2478505,-2.7452069 -3.6731642,-2.2425634 -3.9438183,-1.6625901 -4.1758077,-1.005287 -4.2531375,-0.3866489 -4.2531375,0.3093191 -4.2144726,0.9666222 -3.9438184,1.5852603 -6.4957008,-11.4448063 0.6959679,-1.4692657 -0.3866488,-0.1933244 0.8119626,-1.8172496 0.8506275,-0.038665 0.7732977,-0.1546596 0.7732977,-0.3093191 0.695968,-0.4253137 0.6186381,-0.5413084 3.750494,-4.755781 0.2319893,-0.8506275 -0.07733,-0.4253138 -0.5413084,-0.7346328 -0.8506275,-0.2706542 -3.2865153,1.005287 -3.2865153,0.5413084 -1.6625901,0.038665 -4.4464619,-0.5799733 -1.1599466,-0.07733 -1.1212817,0.07733 -0.8119626,0.4253138 -0.07733,1.2759412 1.9719092,1.7399199 3.5958344,2.3198932 1.9332443,0.9666221 -0.6959679,1.5079306 -0.347984,-0.1546596 -0.2319893,0.4253138 -44.4646191,0 1.353271,-4.0984779 -0.4639786,-0.1159947 2.0879039,-5.7224031 -0.4639787,-0.1933245 0.1546596,-0.3866488 -1.043952,-0.4253138 -0.1933244,0.3866489 -0.5799733,-0.2706542 -0.347984,-0.3093191 -0.2706542,-0.8506275 0.038665,-0.4639786 0.1546596,-0.3866489 0.3093191,-0.347984 0.4639786,-0.2319893 0.6186382,-0.2706542 1.0439519,-0.1546595 8.7382643,0.9279572 0.4639786,-2.4358878 -4.5237917,-0.5799733 -4.6397863,-0.2319893 -0.9279573,-0.038665 z m -3.2478504,19.5257675 44.2712946,0 -14.5379972,31.4345524 -2.2425634,-0.1159946 -1.2372763,-4.7944459 2.2038985,0 0,-2.7838718 -6.80502,0 0,2.7838718 2.1265688,0 1.4306007,5.3744192 -0.7346328,0.3479839 -25.7894791,-28.3413615 1.3146062,-3.9051535 z m 46.5911878,2.3198932 5.5290787,9.5502268 -1.6625901,1.1986115 -1.5852603,1.2759413 -1.5079306,1.3919359 -1.353271,1.5079305 -1.2759413,1.6239252 -1.1599465,1.701255 -1.0052871,1.7399199 -0.8892924,1.8559145 -0.7346328,1.8945795 -0.6186382,1.9719092 -0.4639786,1.9719091 -0.3093191,2.0105741 -0.1933244,2.049239 0,2.049239 -3.9051535,0.4639786 -0.8119626,-1.8172497 -0.5799733,-0.8119626 -0.695968,-0.6959679 -0.7732977,-0.6186382 13.9966888,-30.3132707 z m -64.3383706,11.0194925 1.8559146,0.038665 1.8559145,0.1933244 1.8559145,0.347984 1.8172497,0.5413084 1.7399199,0.6573031 -2.9385314,8.7769291 -0.5026435,1.353271 -0.6573031,1.3532711 -0.7346328,1.2759412 -0.9279573,1.1599466 -0.9666221,1.1212817 -1.0826168,1.005287 -0.695968,-0.07733 -0.7346328,0.07733 -0.6573031,0.1546596 -1.1986115,0.8119626 -0.7732977,1.1986115 -0.2706542,1.3919359 0.3093191,1.3919359 0.8119626,1.1986114 1.1986115,0.7346329 1.3919359,0.2319893 1.3919359,-0.3093191 1.1599466,-0.8506275 0.7346328,-1.1986115 0.2319893,-1.4306008 -0.3479839,-1.3919359 -0.3866489,-0.5799733 2.8998665,-4.2531374 1.6625901,-2.7838718 1.4306007,-2.8998665 2.3585581,-6.0317222 1.5465954,1.0826168 1.4692657,1.1599466 1.3146061,1.3146061 1.2372764,1.4306008 1.0826168,1.5079305 0.9279573,1.6239253 0.8119626,1.7012549 0.6573031,1.7399199 0.5026435,1.8172497 0.3479839,1.8172496 0.1546596,1.8945794 0.038665,1.8559146 -0.1933245,1.8559145 -0.2706542,1.8559145 -0.5026435,1.8172497 -0.6186382,1.7785848 -0.7732977,1.7012549 -0.9666221,1.6239253 -1.043952,1.5079305 -1.2372763,1.4692657 -1.3146061,1.3146061 -1.4306008,1.1986115 -1.5079306,1.0826168 -1.6625901,0.9279573 -1.6625901,0.8119626 -1.7785848,0.6186382 -1.8172496,0.5026435 -1.8172497,0.3093191 -1.8945794,0.1546595 -2.4745527,0 -1.2372763,-0.1546595 -1.8559146,-0.347984 -1.8172496,-0.5026435 -1.7785848,-0.6186382 -1.6625901,-0.8119626 -1.6239252,-0.9279573 -1.5465955,-1.1212817 -1.4306007,-1.1986114 -1.3146062,-1.3146062 -1.3146061,-1.6625901 -0.9279573,-1.3146061 -0.9279572,-1.6239252 -0.7732978,-1.701255 -0.6186381,-1.7785848 -0.4639787,-1.8172496 -0.3093191,-1.8559146 -0.1546595,-1.8559145 0,-1.8945794 0.1933244,-1.8559146 0.347984,-1.8559145 0.5026435,-1.7785847 0.6573031,-1.7399199 0.8119626,-1.701255 0.9666221,-1.6239252 1.0826169,-1.5079306 1.2372763,-1.4306008 1.3146061,-1.3146061 1.4692657,-1.1599466 1.5465955,-1.0439519 1.6239252,-0.8892924 1.7399199,-0.7732977 1.7399198,-0.6186382 2.2425634,-0.5799733 3.3251802,-0.3093191 z m 84.2121221,0.3093191 1.8945794,0.038665 1.8559145,0.2319893 1.8172497,0.347984 1.8172496,0.5413084 1.7399199,0.6959679 1.701255,0.8506275 1.5852603,0.9666222 1.5079306,1.1212817 1.3919359,1.2372763 1.2759412,1.3919359 1.1986115,1.4692657 1.005287,1.5852604 0.8892924,1.6625901 0.7346328,1.7399198 0.5799733,1.7399199 0.4253138,1.8559145 0.2319893,1.8559146 0.1159946,1.8559145 -0.038665,1.8945794 -0.2319894,1.8559146 -0.4253137,1.8172496 -0.5413084,1.8172497 -0.695968,1.7399198 -0.8892923,1.6625901 -0.9666222,1.5852604 -1.1599466,1.5079305 -1.2372763,1.3919359 -1.3919359,1.2759413 -1.4692657,1.1599466 -1.6239252,1.005287 -1.6239252,0.8506275 -1.7399199,0.7346328 -1.8172497,0.5799733 -1.8172496,0.3866489 -1.6625901,0.2706542 -2.0879039,0.038665 -1.8945794,-0.038665 -1.8559145,-0.2706542 -1.8172497,-0.3866489 -2.0105741,-0.5799733 -1.7012549,-0.8119626 -1.4692657,-0.7732977 -1.5852604,-1.0439519 -1.5079305,-1.1212817 -1.3919359,-1.2759413 -1.2372764,-1.3919359 -1.1212817,-1.5079305 -1.005287,-1.5852604 -0.8506275,-1.6625901 -0.7346328,-1.7399198 -0.5413084,-1.8172497 -0.3866489,-1.8172496 16.9352201,-1.701255 0.4639787,0.7732977 0.5799732,0.6186382 0.9666222,0.657303 1.3919359,0.5026436 0.8506275,0.07733 0.8892924,-0.1159946 0.8119626,-0.2706542 0.7732977,-0.4639787 0.6573031,-0.5413084 0.5413084,-0.6959679 0.3866488,-0.8119626 0.2319894,-0.8506275 0.07733,-0.8506275 -0.1159946,-0.8892924 -0.2706542,-0.8506275 -0.4253138,-0.7346328 -0.6186382,-0.6573031 -0.657303,-0.5413084 -0.8119626,-0.4253137 -0.8119626,-0.2319894 -0.8892924,-0.038665 -0.8892924,0.07733 -8.3516154,-14.8086514 1.701255,-0.7732977 1.7785847,-0.5799733 1.8172497,-0.4253137 2.1652336,-0.3093191 1.5852604,-0.07733 z m -11.3288117,3.4411749 8.506275,14.7313216 -0.5799733,0.6186382 -0.4253138,0.6959679 -0.2706542,0.8119626 -16.973885,1.6239252 0,-1.8172496 0.1933244,-1.7785848 0.347984,-1.8172496 0.5026435,-1.7399199 0.6573031,-1.701255 0.7732977,-1.6625901 0.8892924,-1.5465954 1.0826168,-1.5079306 1.1599466,-1.3919359 1.2759412,-1.2759412 1.3919359,-1.1599466 1.4692657,-1.0826168 z"
       id="5"
       inkscape:connector-curvature="0" />
    <path
       id="path7435"
       style="fill:#ff0000;fill-opacity:1;fill-rule:nonzero;stroke:none"
       d="m 641.8372378,222.7019318 c -11.1149199,2.8741497 -22.4562299,-3.816787 -25.3238364,-14.9299621 l 21.425043,0 c 0.3699012,0 0.7275887,-0.066303 1.0634659,-0.2215917 1.3068679,-0.5862585 1.8979246,-2.1282405 1.3068679,-3.4333635 l -9.5864603,-21.4660463 c 0.2368589,-0.068048 0.4789522,-0.1343509 0.7210456,-0.1958557 11.1127389,-2.8798203 22.4557936,3.8098078 25.3234002,14.9312707 2.8745859,11.1131752 -3.816787,22.4475058 -14.9295259,25.3155486 z m -15.8739081,-37.9567471 7.9707599,17.8368271 -18.080229,0 c 0,-7.3168897 3.8442678,-14.0815449 10.1094691,-17.8368271 z m -15.3064063,17.8368271 -5.1969372,0 12.9923429,-34.6529363 5.384505,12.0435988 c -8.1448053,4.6106787 -13.1799107,13.2462138 -13.1799107,22.6093375 z m -10.6425108,-0.2761173 -32.5382181,-36.0993895 46.0758163,0 -13.5375982,36.0993895 z m -27.5851191,8.8584355 c -4.7384866,10.4470912 -17.0560216,15.0917939 -27.5166352,10.3533073 -10.4531981,-4.7454658 -15.0913576,-17.0582025 -10.3458918,-27.5183799 3.9171139,-8.6490574 13.1999761,-13.5428326 22.5425982,-11.8935445 l -6.0981351,19.7094519 c -0.4244267,1.3666278 0.3424204,2.8200603 1.7160275,3.2440508 1.3731709,0.4244267 2.8283482,-0.3424203 3.2527749,-1.7090481 l 6.0981351,-19.7024726 c 10.4601774,4.7389227 15.0917939,17.0564577 10.3511264,27.5166351 z m 88.914125,-16.6385741 c -4.4418677,-13.6449044 -19.1092349,-21.0961451 -32.7541393,-16.6472981 l -7.5384815,-16.8688899 1.9441623,-5.2021717 5.8499349,0 0,-5.1969371 -22.0845839,0 c -0.5997808,0 -1.1179914,0.4174474 -1.2593216,0.9949818 -0.1753541,0.6935647 0.2621588,1.4006518 0.9557235,1.5764421 l 10.9923465,2.6255132 -1.945907,5.2021717 -46.4182367,0 2.0872372,-6.7371743 c 0.6730631,-2.1744781 2.6852732,-3.6619345 4.9600783,-3.6619345 l 8.5417512,0 0,-5.1899579 -8.5417512,0 c -4.5565894,0 -8.5757752,2.9679335 -9.9288807,7.3094742 l -7.5450245,24.3816353 c -12.1099018,-2.4501591 -24.2738929,3.9581172 -29.092641,15.3404303 -5.593883,13.2139347 0.5862585,28.4658155 13.7984483,34.0527193 13.2204778,5.5943192 28.4671242,-0.5792792 34.0614434,-13.7914691 5.593883,-13.227457 -0.5862585,-28.4675603 -13.8001932,-34.0679864 l 2.0601926,-6.6643282 30.7214276,34.0749657 c 0.9832043,1.0905105 2.3890905,1.7160274 3.8647694,1.7160274 l 10.909904,0 c 0.2028349,0.969682 0.4514713,1.9254055 0.7550695,2.8610635 4.4488469,13.6449045 19.1092348,21.1026882 32.7545755,16.6455534 13.6431596,-4.4423039 21.0944002,-19.109671 16.6520964,-32.7528307"
       inkscape:connector-curvature="0" />
  </g>
  <g
     inkscape:groupmode="layer"
     id="layer2"
     inkscape:label="XX_BUILD"
     sodipodi:insensitive="true"
     style="display:none">
    <path
       style="fill:none;stroke:#0000ff"
       d="M 579,202.4999999 C 579,216.5832613 567.5832611,228 553.4999999,228 539.4167387,228 528,216.5832613 528,202.4999999 528,188.4167388 539.4167387,177 553.4999999,177 567.5832611,177 579,188.4167388 579,202.4999999 z"
       id="path3006"
       inkscape:connector-curvature="0" />
    <path
       inkscape:connector-curvature="0"
       id="path3009"
       d="M 662,202.4999999 C 662,216.5832613 650.5832611,228 636.4999999,228 622.4167387,228 611,216.5832613 611,202.4999999 611,188.4167388 622.4167387,177 636.4999999,177 650.5832611,177 662,188.4167388 662,202.4999999 z"
       style="fill:none;stroke:#0000ff" />
    <path
       style="fill:none;stroke:#0000ff"
       d="M 656.5,202.4999999 C 656.5,213.5456951 647.545695,222.5 636.4999999,222.5 625.4543049,222.5 616.5,213.5456951 616.5,202.4999999 616.5,191.4543049 625.4543049,182.5 636.4999999,182.5 647.545695,182.5 656.5,191.4543049 656.5,202.4999999 z"
       id="path3011"
       inkscape:connector-curvature="0" />
    <path
       inkscape:connector-curvature="0"
       id="path3013"
       d="M 573.5,202.4999999 C 573.5,213.5456951 564.545695,222.5 553.4999999,222.5 542.4543049,222.5 533.5,213.5456951 533.5,202.4999999 533.5,191.4543049 542.4543049,182.5 553.4999999,182.5 564.545695,182.5 573.5,191.4543049 573.5,202.4999999 z"
       style="fill:none;stroke:#0000ff" />
    <path
       style="fill:none;stroke:#00ff00;stroke-width:5px;stroke-linecap:round;stroke-linejoin:round"
       d="m 553.4999999,202.5 15,-47 C 571.6933777,146.3760634 582.5,148.5 582.5,148.5"
       id="path3015"
       inkscape:connector-curvature="0"
       sodipodi:nodetypes="ccc" />
    <path
       style="fill:none;stroke:#00ffff;stroke-width:5px;stroke-linecap:round;stroke-linejoin:round"
       d="m 565.9375,163.5 50.5625,0 20,39 -35,0"
       id="path3019"
       inkscape:connector-curvature="0"
       sodipodi:nodetypes="cccc" />
    <path
       sodipodi:nodetypes="ccc"
       inkscape:connector-curvature="0"
       id="path3024"
       d="m 620.5,153.5 -19,49 -35.5625,-39"
       style="fill:none;stroke:#008000;stroke-width:5px;stroke-linecap:round;stroke-linejoin:round" />
    <path
       inkscape:connector-curvature="0"
       id="path3794"
       d="M 749,202.4999999 C 749,216.5832613 737.5832611,228 723.4999999,228 709.4167387,228 698,216.5832613 698,202.4999999 698,188.4167388 709.4167387,177 723.4999999,177 737.5832611,177 749,188.4167388 749,202.4999999 z"
       style="fill:none;stroke:#0000ff" />
    <path
       style="fill:none;stroke:#0000ff"
       d="M 832,202.4999999 C 832,216.5832613 820.5832611,228 806.4999999,228 792.4167387,228 781,216.5832613 781,202.4999999 781,188.4167388 792.4167387,177 806.4999999,177 820.5832611,177 832,188.4167388 832,202.4999999 z"
       id="path3796"
       inkscape:connector-curvature="0" />
    <path
       inkscape:connector-curvature="0"
       id="path3798"
       d="M 826.5,202.4999999 C 826.5,213.5456951 817.545695,222.5 806.4999999,222.5 795.4543049,222.5 786.5,213.5456951 786.5,202.4999999 786.5,191.4543049 795.4543049,182.5 806.4999999,182.5 817.545695,182.5 826.5,191.4543049 826.5,202.4999999 z"
       style="fill:none;stroke:#0000ff" />
    <path
       style="fill:none;stroke:#0000ff"
       d="M 743.5,202.4999999 C 743.5,213.5456951 734.545695,222.5 723.4999999,222.5 712.4543049,222.5 703.5,213.5456951 703.5,202.4999999 703.5,191.4543049 712.4543049,182.5 723.4999999,182.5 734.545695,182.5 743.5,191.4543049 743.5,202.4999999 z"
       id="path3800"
       inkscape:connector-curvature="0" />
    <path
       sodipodi:nodetypes="ccc"
       inkscape:connector-curvature="0"
       id="path3802"
       d="m 723.4999999,202.5 15,-47 C 741.6933777,146.3760634 752.5,148.5 752.5,148.5"
       style="fill:none;stroke:#00ff00;stroke-width:5px;stroke-linecap:round;stroke-linejoin:round" />
    <path
       sodipodi:nodetypes="cccc"
       inkscape:connector-curvature="0"
       id="path3804"
       d="m 735.9375,163.5 52.5625,0 18,39 -35,0"
       style="fill:none;stroke:#00ffff;stroke-width:5px;stroke-linecap:round;stroke-linejoin:round" />
    <path
       style="fill:none;stroke:#008000;stroke-width:5px;stroke-linecap:round;stroke-linejoin:round"
       d="m 788.5,163.5 -17,39 -35.5625,-39"
       id="path3806"
       inkscape:connector-curvature="0"
       sodipodi:nodetypes="ccc" />
    <path
       style="fill:none;stroke:#ff00ff;stroke-width:5px;stroke-linecap:round;stroke-linejoin:round"
       d="m 627.5,153.5 -20,0"
       id="path3808"
       inkscape:connector-curvature="0"
       sodipodi:nodetypes="cc" />
    <path
       sodipodi:nodetypes="ccccc"
       inkscape:connector-curvature="0"
       id="path3812"
       d="M 578.5,149.5 603,121 618.5,151.5 593,170 l 4.5,32.5"
       style="fill:none;stroke:#ffff00;stroke-width:10;stroke-linecap:round;stroke-linejoin:round;stroke-miterlimit:4;stroke-dasharray:none" />
    <path
       style="fill:#ffff00;stroke:none"
       d="m 604,107 c 0,5.5228474 -4.4771526,10 -10,10 -5.5228476,0 -10,-4.4771526 -10,-10 0,-5.5228476 4.4771524,-10 10,-10 5.5228474,0 10,4.4771524 10,10 z"
       id="path3816"
       inkscape:connector-curvature="0" />
  </g>
  <g
     inkscape:groupmode="layer"
     id="layer8"
     inkscape:label="XX______________"
     sodipodi:insensitive="true"
     style="display:none" />
  <g
     inkscape:label="XX_BACKARM"
     id="g4064"
     inkscape:groupmode="layer"
     style="display:none"
     sodipodi:insensitive="true">
    <path
       id="path4066"
       d="m 123,129 c 24.0486575,7.7904102 29.0095529,17.8686592 45.375,19.125 14.8621095,1.1409328 20.4425925,-4.7302799 43.375,-10.875"
       style="fill:none;stroke:#ed4383;stroke-width:15;stroke-linecap:round;stroke-linejoin:round;stroke-miterlimit:4;stroke-dasharray:none;display:inline"
       inkscape:connector-curvature="0"
       sodipodi:nodetypes="cac" />
  </g>
  <g
     inkscape:label="XX_BACKLEG"
     id="g4060"
     inkscape:groupmode="layer"
     style="display:none"
     sodipodi:insensitive="true">
    <path
       inkscape:connector-curvature="0"
       id="path4062"
       d="m 235,183 -48.25,9.75 -28.25,48.75"
       style="fill:none;stroke:#ed4383;stroke-width:15;stroke-linecap:round;stroke-linejoin:round;stroke-miterlimit:4;stroke-dasharray:none;display:inline"
       sodipodi:nodetypes="ccc" />
  </g>
  <g
     inkscape:groupmode="layer"
     id="layer3"
     inkscape:label="XX_BIKE"
     sodipodi:insensitive="true"
     style="display:none">
    <path
       inkscape:connector-curvature="0"
       id="path3819"
       d="M 175.75,259.4999998 C 175.75,280.6248919 158.6248917,297.75 137.4999999,297.75 116.375108,297.75 99.25,280.6248919 99.25,259.4999998 99.25,238.3751082 116.375108,221.25 137.4999999,221.25 158.6248917,221.25 175.75,238.3751082 175.75,259.4999998 z"
       style="fill:none;stroke:#0000ff;stroke-width:1.5;display:inline" />
    <path
       style="fill:none;stroke:#0000ff;stroke-width:1.5;display:inline"
       d="M 300.25,259.4999998 C 300.25,280.6248919 283.1248916,297.75 261.9999998,297.75 240.8751081,297.75 223.75,280.6248919 223.75,259.4999998 223.75,238.3751082 240.8751081,221.25 261.9999998,221.25 283.1248916,221.25 300.25,238.3751082 300.25,259.4999998 z"
       id="path3821"
       inkscape:connector-curvature="0" />
    <path
       inkscape:connector-curvature="0"
       id="path3823"
       d="M 292,259.4999998 C 292,276.0685426 278.5685425,289.5 261.9999998,289.5 245.4314574,289.5 232,276.0685426 232,259.4999998 232,242.9314574 245.4314574,229.5 261.9999998,229.5 278.5685425,229.5 292,242.9314574 292,259.4999998 z"
       style="fill:none;stroke:#0000ff;stroke-width:1.5;display:inline" />
    <path
       style="fill:none;stroke:#0000ff;stroke-width:1.5;display:inline"
       d="M 167.5,259.4999998 C 167.5,276.0685426 154.0685425,289.5 137.4999999,289.5 120.9314574,289.5 107.5,276.0685426 107.5,259.4999998 107.5,242.9314574 120.9314574,229.5 137.4999999,229.5 154.0685425,229.5 167.5,242.9314574 167.5,259.4999998 z"
       id="path3825"
       inkscape:connector-curvature="0" />
    <path
       sodipodi:nodetypes="ccc"
       inkscape:connector-curvature="0"
       id="path3827"
       d="m 137.4999999,259.5 22.5,-70.5 C 164.7900666,175.3140951 181,178.5 181,178.5"
       style="fill:none;stroke:#00ff00;stroke-width:7.5px;stroke-linecap:round;stroke-linejoin:round;display:inline" />
    <path
       sodipodi:nodetypes="cccc"
       inkscape:connector-curvature="0"
       id="path3829"
       d="M 156.15625,201 232,201 l 30,58.5 -52.5,0"
       style="fill:none;stroke:#00ffff;stroke-width:7.5px;stroke-linecap:round;stroke-linejoin:round;display:inline" />
    <path
       style="fill:none;stroke:#008000;stroke-width:7.5px;stroke-linecap:round;stroke-linejoin:round;display:inline"
       d="M 238,186 209.5,259.5 156.15625,201"
       id="path3831"
       inkscape:connector-curvature="0"
       sodipodi:nodetypes="ccc" />
    <path
       sodipodi:nodetypes="cc"
       inkscape:connector-curvature="0"
       id="path3833"
       d="m 248.5,186 -30,0"
       style="fill:none;stroke:#ff00ff;stroke-width:7.5px;stroke-linecap:round;stroke-linejoin:round;display:inline" />
  </g>
  <g
     inkscape:groupmode="layer"
     id="layer4"
     inkscape:label="XX_FRONTLEG"
     style="display:none"
     sodipodi:insensitive="true">
    <path
       style="fill:none;stroke:#fe5494;stroke-width:15;stroke-linecap:round;stroke-linejoin:round;stroke-miterlimit:4;stroke-dasharray:none;display:inline"
       d="m 235,183 -38.25,27.75 6.75,48.75"
       id="path3835"
       inkscape:connector-curvature="0" />
  </g>
  <g
     inkscape:groupmode="layer"
     id="layer5"
     inkscape:label="XX_TORSO"
     sodipodi:insensitive="true"
     style="display:none">
    <path
       style="fill:none;stroke:#fe5494;stroke-width:15;stroke-linecap:round;stroke-linejoin:round;stroke-miterlimit:4;stroke-dasharray:none;display:inline"
       d="M 211.75,137.25 235,183"
       id="path3997"
       inkscape:connector-curvature="0" />
  </g>
  <g
     inkscape:groupmode="layer"
     id="layer6"
     inkscape:label="XX_FRONTARM"
     sodipodi:insensitive="true"
     style="display:none">
    <path
       inkscape:connector-curvature="0"
       style="fill:none;stroke:#fe5494;stroke-width:15;stroke-linecap:round;stroke-linejoin:round;stroke-miterlimit:4;stroke-dasharray:none;display:inline"
       d="m 177,179 34.75,-41.75"
       id="path4020" />
  </g>
  <g
     inkscape:groupmode="layer"
     id="layer7"
     inkscape:label="XX_HEAD"
     style="display:none"
     sodipodi:insensitive="true">
    <path
       inkscape:connector-curvature="0"
       id="path3837"
       d="m 213.25,116.25 c 0,8.2842711 -6.7157289,15 -15,15 -8.2842714,0 -15,-6.7157289 -15,-15 0,-8.2842714 6.7157286,-15 15,-15 8.2842711,0 15,6.7157286 15,15 z"
       style="fill:#fe5494;stroke:none" />
  </g>
  <g
     inkscape:label="XX______________"
     id="g4069"
     inkscape:groupmode="layer"
     sodipodi:insensitive="true"
     style="display:none" />
  <g
     inkscape:groupmode="layer"
     id="g4122"
     inkscape:label="BARM-01"
     style="display:none"
     sodipodi:insensitive="true">
    <path
       style="fill:#ed4383;stroke:none"
       d="m 220.8125,113 c -12.9536229,3.0947532 -22.3220187,9.9617236 -30.4375,15.15625 -8.1154813,5.1945264 -14.6511949,8.9444866 -22.53125,9.5 -7.8706955,0.5548536 -13.1003208,-1.3494023 -20.75,-4.65625 -7.6496792,-3.3068477 -17.2267898,-8.1709925 -31.375,-11.3125 -9.7022433,-2.1543128 -14.0256093,12.0216916 -3.4375,14.625 12.4942839,3.0719813 20.6802683,6.9397928 28.84375,10.46875 8.1634817,3.5289572 16.7935566,6.5870898 27.78125,5.8125 12.0021687,-0.8461064 21.1941392,-6.4561114 29.5625,-11.8125 8.3683608,-5.3563886 16.3340207,-9.974411 26.21875,-13.28125 10.1123591,-3.3829903 4.7067453,-16.5502668 -3.875,-14.5 z"
       id="path4124"
       inkscape:connector-curvature="0"
       sodipodi:nodetypes="sssssssssss" />
  </g>
  <g
     style="display:none"
     inkscape:label="BARM-02"
     id="g4264"
     inkscape:groupmode="layer"
     sodipodi:insensitive="true">
    <path
       style="fill:#ed4383;stroke:none"
       d="m 226.0921671,125.3543889 c 22.6628392,-8.02502 31.2832768,-3.621598 48.5656188,3.994983 17.2823419,7.616581 29.0509611,12.1099448 53.2051022,14.9037861 6.8530677,0.792675 8.3225455,-7.6328547 -0.095759,-8.7673414 -22.0419018,-2.9704609 -30.8599041,-8.0869939 -49.0685501,-16.4781154 -18.2086461,-8.3911214 -34.2016814,-13.7161611 -57.2990832,-6.3753811 -10.2212816,3.2485116 -3.5569728,15.6433073 4.6926713,12.7220688 z"
       inkscape:connector-curvature="0"
       sodipodi:nodetypes="szsszss"
       inkscape:transform-center-x="-51.00985857"
       inkscape:transform-center-y="7.725925077"
       id="path74" />
  </g>
  <g
     inkscape:groupmode="layer"
     id="g4272"
     inkscape:label="BARM-03"
     style="display:none"
     sodipodi:insensitive="true">
    <path
       style="fill:#ed4383;stroke:none"
       d="m 218,114.4375 c -9.3672766,7.5924274 -14.8531883,9.7897229 -20.1875,11.84375 -5.3343117,2.0540271 -11.599134,4.5359371 -17.09375,11.21875 -5.176093,6.2954101 -5.6573421,13.3206027 -6.40625,18.46875 -0.7489079,5.1481473 -1.440705,8.6948778 -4.875,12.59375 -6.8121119,7.7336262 4.8220982,17.1821636 11.21875,9.9375 6.1278239,-6.9401969 7.6793591,-14.7337459 8.5,-20.375 0.8206409,-5.6412541 1.2490644,-8.843398 3.125,-11.125 3.4821007,-4.2350961 5.3549179,-4.5811572 10.90625,-6.71875 5.5513321,-2.1375928 13.8861691,-5.2733541 24.3125,-14.21875 7.7268037,-6.6293041 -2.5164168,-17.2853803 -9.5,-11.625 z"
       id="path4274"
       inkscape:connector-curvature="0"
       sodipodi:nodetypes="sssssssssss" />
  </g>
  <g
     style="display:none"
     inkscape:label="BARM-04"
     id="g4276"
     inkscape:groupmode="layer"
     sodipodi:insensitive="true">
    <path
       style="fill:#ed4383;stroke:none"
       d="m 124.28125,87.125 c 11.139969,22.5030594 25.0719401,37.5005383 42.40625,44.1875 17.3343099,6.6869617 37.1558928,4.7766404 58.84375,-4.09375 9.1883364,-3.7580536 3.0460509,-17.320201 -5.5625,-13.9375 -19.722197,7.7497708 -35.0630723,8.9736371 -47.875,4.03125 -12.8119277,-4.9423871 -23.9078363,-16.5316294 -34.40625,-36.875 -4.686697,-9.08167812 -17.4319288,-1.44448763 -13.40625,6.6875 z"
       id="path4278"
       inkscape:connector-curvature="0"
       sodipodi:nodetypes="sssssss" />
  </g>
  <g
     inkscape:groupmode="layer"
     id="g4280"
     inkscape:label="BARM-05"
     style="display:inline"
     sodipodi:insensitive="true">
    <path
       style="fill:#ed4383;stroke:none"
       d="m 122.15625,99.78125 c -9.9169483,-0.17297745 -21.0569671,1.4202834 -33.5625,6.59375 -9.17321394,3.7949055 -3.0401617,17.3345085 5.5625,13.9374999 29.3981967,-11.6087243 44.7901054,-4.0016643 62.9375,4.3125 9.0736973,4.1570821 18.6422314,8.6632207 30.03125,10.15625 11.3890186,1.4930293 24.6893061,0.3155843 39.03125,-7.84375 8.6415754,-4.9163142 1.4563667,-17.5236225 -6.8125,-13.375 -12.569833,6.3064861 -21.7542376,7.4615882 -30.28125,6.34375 -8.5270124,-1.1178382 -16.6143437,-4.7663487 -25.71875,-8.9375 -11.3805079,-5.2139392 -24.6592528,-10.8992042 -41.1875,-11.1874999 z"
       id="path4282"
       inkscape:connector-curvature="0"
       sodipodi:nodetypes="ssssssssss" />
  </g>
  <g
     inkscape:groupmode="layer"
     id="g4126"
     inkscape:label="BLEG-01"
     style="display:inline"
     sodipodi:insensitive="true">
    <path
       style="fill:#ed4383;stroke:none"
       d="m 232.3125,169 -51.25,19.75 c -2.6661003,1.027424 -4.6367961,3.6794403 -4.8125,6.53125 l -3.25,52.75 c -0.6836862,11.0967535 14.5057328,8.9238171 15,0.9375 L 190.96875,201 237.6875,183 c 9.618764,-3.7059586 2.663285,-17.0976806 -5.375,-14 z"
       id="path4128"
       inkscape:connector-curvature="0"
       sodipodi:nodetypes="ssssscss" />
    <path
       style="fill:#ed4383;stroke:none"
       d="m 161.5630079,250.2688847 c -5.8915239,4.0441192 -4.683495,8.6054074 3.4013217,7.5146182 l 16.475723,-2.2228755 c 7.0818107,-0.9554654 0.9551881,-19.5916135 -3.4760904,-16.5498507 z"
       id="path4162-6"
       inkscape:connector-curvature="0"
       sodipodi:nodetypes="sssss" />
  </g>
  <g
     style="display:none"
     inkscape:label="BLEG-02"
     id="g4368"
     inkscape:groupmode="layer"
     sodipodi:insensitive="true">
    <path
       sodipodi:nodetypes="sssss"
       inkscape:connector-curvature="0"
       id="path4372"
       d="m 79.23255236,187.8187117 c -5.33867049,-4.7501107 -9.47729912,-2.4837398 -6.47997789,5.1037596 l 6.10812049,15.4622602 c 2.62547221,6.6461908 19.24921858,-3.7697862 15.23376588,-7.3425568 z"
       style="fill:#ed4383;stroke:none" />
    <path
       style="fill:#ed4383;stroke:none"
       d="m 155.0625,175.03125 c -21.7044692,12.9647575 -38.8457283,31.8281715 -67,23.90625 -9.55382921,-2.6882132 -13.30470904,12.8700005 -4.1875,14.40625 31.8421526,5.365402 57.2148194,-4.0115864 79.90625,-14.4375 26.0862324,-11.9857055 44.0226603,-25.0281272 68.15625,-16.15625 9.3252801,3.4281158 10.3383332,-20.45689 1.4375,-23 -31.7584377,-9.0738922 -52.2431198,-0.2908052 -78.3125,15.28125 z"
       id="path4062-3"
       inkscape:connector-curvature="0"
       sodipodi:nodetypes="sssssss" />
  </g>
  <g
     inkscape:groupmode="layer"
     id="g4392"
     inkscape:label="BLEG-03"
     style="display:none"
     sodipodi:insensitive="true">
    <path
       style="fill:#ed4383;stroke:none"
       d="M 228.34375,171.6875 164.5,271.40625 c -5.6029458,8.7513461 7.3590915,16.2848436 12.625,8.0625 l 63.84375,-99.6875 c 5.4773746,-8.552533 -7.7191307,-15.7563193 -12.625,-8.09375 z"
       id="path4396"
       inkscape:connector-curvature="0"
       sodipodi:nodetypes="sssss" />
  </g>
  <g
     style="display:none"
     inkscape:label="BLEG-04"
     id="g4398"
     inkscape:groupmode="layer"
     sodipodi:insensitive="true">
    <path
       style="fill:#ed4383;stroke:none"
       d="m 181.59375,151.4375 c -3.8284241,0.098441 -7.6963928,0.3905851 -11.59375,0.90625 -15.5894289,2.0626597 -31.5152489,7.7280847 -44.375,19 -12.8597511,11.2719153 -22.3198867,28.156525 -25.125,50.96875 -0.4827372,3.9024683 2.6287673,7.8923798 6.5312406,8.3750757 3.9024733,0.4826958 7.8923548,-2.6288472 8.3750094,-6.5313257 2.4273644,-19.7402306 9.9891456,-32.6742944 20.09375,-41.53125 10.1046044,-8.8569556 23.1091511,-13.6386223 36.46875,-15.40625 13.3595989,-1.7676277 26.9965733,-0.4616454 37.59375,2.4375 10.5971767,2.8991454 17.7547368,8.3992063 18.5,9.6875 4.9751677,8.6002872 17.5637315,0.9690167 13.1875,-7.1875 -4.8946958,-9.1228419 -15.1294319,-13.5246002 -27.71875,-16.96875 -9.4419886,-2.5831123 -20.4522278,-4.0453233 -31.9375,-3.75 z"
       id="path4400"
       inkscape:connector-curvature="0"
       sodipodi:nodetypes="ssscscsssssss" />
    <path
       sodipodi:nodetypes="sssss"
       inkscape:connector-curvature="0"
       id="path4372-5"
       d="m 96.16011856,236.6589589 c -2.16759765,6.8092933 2.3038704,9.5226227 7.56502204,3.2876918 l 10.7214897,-12.7059155 c 4.6084508,-5.4614227 -12.3914862,-9.1004149 -14.0218333,-3.978841 z"
       style="fill:#ed4383;stroke:none" />
  </g>
  <g
     inkscape:label="BIKE-01"
     id="g4071"
     inkscape:groupmode="layer"
     style="display:inline"
     sodipodi:insensitive="true">
    <path
       style="fill:#2a7ffe;stroke:none"
       d="m 262,221.25 c -21.1248917,0 -38.25,17.1251084 -38.25,38.25 0,21.1248921 17.1251083,38.25 38.25,38.25 21.1248918,0 38.25,-17.1251079 38.25,-38.25 0,-21.1248916 -17.1251082,-38.25 -38.25,-38.25 z m 0,8.25 c 16.5685427,0 30,13.4314576 30,30 0,16.5685428 -13.4314573,30 -30,30 -16.5685424,0 -30,-13.4314572 -30,-30 0,-16.5685424 13.4314576,-30 30,-30 z"
       id="path4117"
       inkscape:connector-curvature="0" />
    <path
       style="fill:#2a7ffe;stroke:none"
       d="m 137.5,221.25 c -21.1248919,0 -38.25,17.1251084 -38.25,38.25 0,21.1248921 17.1251081,38.25 38.25,38.25 21.1248918,0 38.25,-17.1251079 38.25,-38.25 0,-21.1248916 -17.1251082,-38.25 -38.25,-38.25 z m 0,8.25 c 16.5685426,0 30,13.4314576 30,30 0,16.5685428 -13.4314574,30 -30,30 -16.5685425,0 -30,-13.4314572 -30,-30 0,-16.5685424 13.4314575,-30 30,-30 z"
       id="path4112"
       inkscape:connector-curvature="0" />
    <path
       inkscape:connector-curvature="0"
       id="path4079"
       d="M 167.5,259.4999998 C 167.5,276.0685426 154.0685425,289.5 137.4999999,289.5 120.9314574,289.5 107.5,276.0685426 107.5,259.4999998 107.5,242.9314574 120.9314574,229.5 137.4999999,229.5 154.0685425,229.5 167.5,242.9314574 167.5,259.4999998 z"
       style="fill:none;stroke:#003291;stroke-width:1px" />
    <path
       style="fill:none;stroke:#003291;stroke-width:1px"
       d="M 175.75,259.4999998 C 175.75,280.6248919 158.6248917,297.75 137.4999999,297.75 116.375108,297.75 99.25,280.6248919 99.25,259.4999998 99.25,238.3751082 116.375108,221.25 137.4999999,221.25 158.6248917,221.25 175.75,238.3751082 175.75,259.4999998 z"
       id="path4073"
       inkscape:connector-curvature="0" />
    <path
       inkscape:connector-curvature="0"
       id="path4075"
       d="M 300.25,259.4999998 C 300.25,280.6248919 283.1248916,297.75 261.9999998,297.75 240.8751081,297.75 223.75,280.6248919 223.75,259.4999998 223.75,238.3751082 240.8751081,221.25 261.9999998,221.25 283.1248916,221.25 300.25,238.3751082 300.25,259.4999998 z"
       style="fill:none;stroke:#003291;stroke-width:1px" />
    <path
       style="fill:none;stroke:#003291;stroke-width:1px"
       d="M 292,259.4999998 C 292,276.0685426 278.5685425,289.5 261.9999998,289.5 245.4314574,289.5 232,276.0685426 232,259.4999998 232,242.9314574 245.4314574,229.5 261.9999998,229.5 278.5685425,229.5 292,242.9314574 292,259.4999998 z"
       id="path4077"
       inkscape:connector-curvature="0" />
    <path
       style="fill:#003291;stroke:none"
       d="m 156.46875,187.75 -22.53125,70.625 c -1.7509066,5.4882787 5.4108334,7.6204133 7.125,2.25 l 16.6875,-52.28125 48.96875,53.6875 c 0.7022617,0.7699334 1.7391523,1.2198406 2.78125,1.21875 0.083349,-8.72e-5 51.27375,0 52.5,0 3.9470618,0 4.5655081,-3.0855353 3.34375,-5.46875 l -29.125,-56.8125 4.03125,-10.375 3.25,0.15625 c 6.8114841,0.3274752 6.6078002,-12.9595891 -1.21875,-11.5625 L 225.125,182.25 c -3.8766347,0.692004 -4.3061432,5.1349567 0.375,5.5 l 6.8125,0.53125 -2.6875,8.96875 -68.34375,0 2.25,-7 c 2.6136483,-8.1313503 10.0059109,-8.8083358 16.75,-8.0625 5.4928569,0.6074607 5.6996078,-5.6424049 1.4375,-6.375 -10.315457,-1.7730789 -21.8427325,1.2572995 -25.25,11.9375 z m 8.1875,17 62.0625,0 -18.53125,47.75 z m 67.90625,5.625 23.28125,45.375 -40.875,0 z"
       id="path4081"
       inkscape:connector-curvature="0"
       sodipodi:nodetypes="ssscssssccsssscccsssscccccccc" />
  </g>
  <g
     style="display:inline"
     inkscape:label="TORSO-01"
     id="g4138"
     inkscape:groupmode="layer"
     sodipodi:insensitive="true">
    <path
       style="fill:#fe5494;stroke:none"
       d="m 215.4375,121.875 12.25,55.75 c 2.2255286,10.1284262 16.7153608,6.2632747 14.625,-3.25 l -12.25,-55.75 c -2.2143872,-10.0777216 -16.7064883,-6.2228956 -14.625,3.25 z"
       id="path4140"
       inkscape:connector-curvature="0"
       sodipodi:nodetypes="sssss" />
  </g>
  <g
     inkscape:groupmode="layer"
     id="g4150"
     inkscape:label="TORSO-02"
     style="display:none"
     sodipodi:insensitive="true">
    <path
       sodipodi:nodetypes="scs"
       inkscape:connector-curvature="0"
       id="path4152"
       d="m 216.8902084,115.7092328 c -35.1756515,44.6284737 -5.986263,92.414648 23.5777604,65.8716477 25.1709834,-17.9093665 -6.3955714,-87.6712403 -23.5777604,-65.8716477 z"
       style="fill:#fe5494;stroke:none" />
  </g>
  <g
     style="display:none"
     inkscape:label="TORSO-03"
     id="g4154"
     inkscape:groupmode="layer"
     sodipodi:insensitive="true">
    <path
       style="fill:#fe5494;stroke:none"
       d="m 216.8902084,115.7092328 c -37.93068,46.5534419 -30.0518139,103.7371998 20.3261032,68.77848 20.0352752,-13.9030673 -3.4531065,-89.48720628 -20.3261032,-68.77848 z"
       id="path4156"
       inkscape:connector-curvature="0"
       sodipodi:nodetypes="sss" />
  </g>
  <g
     style="display:inline"
     inkscape:label="FLEG-01"
     id="g4134"
     inkscape:groupmode="layer"
     sodipodi:insensitive="true">
    <path
       style="fill:#fe5494;stroke:none"
       d="M 218.9969473,250.1318822 203.71875,213.625 l 36.3125,-32.0625 c 7.6510315,-6.7555579 -7.8684502,-27.1044345 -15.0625,-18.125 l -34.25,42.75 c -1.5223408,1.900148 -3.3989925,4.3705662 -2.40625,6.59375 l 17.75,39.75 z"
       id="path4136"
       inkscape:connector-curvature="0"
       sodipodi:nodetypes="ccsssscc" />
    <path
       style="fill:#fe5494;stroke:none"
       d="m 198.0099787,259.7352741 c -3.914644,5.9783373 -1.0650946,9.7392883 6,5.660254 l 14.3976723,-8.3125 c 6.1885958,-3.5729874 -6.5556212,-18.4869557 -9.5,-13.990381 z"
       id="path4162"
       inkscape:connector-curvature="0"
       sodipodi:nodetypes="sssss" />
  </g>
  <g
     inkscape:groupmode="layer"
     id="g4196"
     inkscape:label="FLEG-02"
     style="display:none"
     sodipodi:insensitive="true">
    <path
       sodipodi:nodetypes="sssss"
       inkscape:connector-curvature="0"
       id="path4200"
       d="m 335.9513225,226.6245377 c 3.9237499,5.9723648 0.9258238,8.2483983 -6.1261305,4.1466884 l -13.6408895,-7.9341086 c -6.1770856,-3.5928499 6.8254384,-15.9110442 9.776666,-11.4189617 z"
       style="fill:#fe5494;stroke:none" />
    <path
       style="fill:#fe5494;stroke:none"
       d="m 226.6875,173.53125 c 2.7753379,10.8741362 4.6889214,19.6797572 7.9375,27.59375 3.2485786,7.9139928 8.3411902,14.9223971 16.34375,20.0625 10.4208309,6.6933761 20.839284,8.533894 31.71875,7.90625 10.879466,-0.627644 22.530963,-3.199223 38.71875,-5.15625 2.0167071,-0.1502623 3.9556013,-1.1566922 5.2391003,-2.7194825 1.2834991,-1.5627902 1.8938541,-3.6603299 1.6492489,-5.6677796 -0.2446052,-2.0074496 -1.3407882,-3.8970498 -2.9620086,-5.1059037 -1.6212204,-1.2088538 -3.7450592,-1.7202449 -5.7388406,-1.3818342 -16.8535682,2.0375169 -28.7714058,4.5427158 -37.78125,5.0625 -9.0098442,0.5197842 -14.7991381,-0.4243531 -22.75,-5.53125 -5.4893724,-3.5258641 -8.0839933,-7.1182604 -10.5625,-13.15625 -2.4785067,-6.0379896 -4.0297878,-14.6346728 -7.3125,-25.6875 -2.9385872,-9.894165 -16.7616077,-5.0800243 -14.5,3.78125 z"
       id="path3835-7"
       inkscape:connector-curvature="0"
       sodipodi:nodetypes="sssscssscsssss" />
  </g>
  <g
     style="display:none"
     inkscape:label="FLEG-03"
     id="g4220"
     inkscape:groupmode="layer"
     sodipodi:insensitive="true">
    <path
       style="fill:#fe5494;stroke:none"
       d="m 232.21875,169.03125 c -25.3532491,11.4924262 -34.2760048,22.0109408 -31.09375,48.71875 2.0334167,17.0659203 6.1084095,32.8012034 -11,55.78125 -5.9306745,7.9660927 6.3646087,16.4245924 11.96875,9.0625 20.3561934,-26.741684 15.8679416,-50.7098389 13.90625,-66.625 -2.5950843,-21.0538626 7.0728564,-26.557845 21.8125,-33.03125 9.4781695,-4.1626535 2.292931,-17.4812198 -5.59375,-13.90625 z"
       id="path4224"
       inkscape:connector-curvature="0"
       sodipodi:nodetypes="sssssss" />
  </g>
  <g
     inkscape:groupmode="layer"
     id="g4226"
     inkscape:label="FLEG-04"
     style="display:none"
     sodipodi:insensitive="true">
    <path
       sodipodi:nodetypes="sssss"
       inkscape:connector-curvature="0"
       id="path4228"
       d="m 174.904731,280.9524342 c -6.7201099,2.4300365 -9.9265619,-4.8679875 -3.5423837,-9.9469983 l 17.9969715,-14.3177102 c 10.9366268,-8.7007669 12.7706879,14.4198675 7.7161928,16.2476066 z"
       style="fill:#fe5494;stroke:none" />
    <path
       style="fill:#fe5494;stroke:none"
       d="M 220.2067135,142.7924074 C 228.3874914,183.2021382 181.2368701,194.3632505 185.5,267.09375 c 0.650097,11.0908833 15.1286807,7.245108 15,-0.75 -0.3869536,-24.0419591 7.4143551,-31.0231489 20.6875,-46.40625 21.9012612,-25.3827798 28.3758109,-18.578805 17.2089246,-63.3256843 z"
       id="path4230"
       inkscape:connector-curvature="0"
       sodipodi:nodetypes="cssscc" />
  </g>
  <g
     style="display:none"
     inkscape:label="HEAD-01"
     id="g4130"
     inkscape:groupmode="layer"
     sodipodi:insensitive="true">
    <path
       style="fill:#fe5494;stroke:none"
       d="m 219.25,89.25 c 0,8.2842711 -6.7157289,15 -15,15 -8.2842714,0 -15,-6.7157289 -15,-15 0,-8.2842714 6.7157286,-15 15,-15 8.2842711,0 15,6.7157286 15,15 z"
       id="path4132"
       inkscape:connector-curvature="0"
       sodipodi:nodetypes="sssss" />
    <path
       sodipodi:nodetypes="scscs"
       inkscape:connector-curvature="0"
       id="path4704"
       d="m 222.9297095,89.25088763 c 0,22.06016977 -18.9884157,39.94228387 -18.9884157,39.94228387 0,0 -18.1803981,-17.8821141 -18.1803981,-39.94228387 0,-22.06016981 18.1803981,-39.94405913 18.1803981,-39.94405913 0,0 18.9884157,17.88388932 18.9884157,39.94405913 z"
       style="fill:none;stroke:#003291;stroke-width:1px" />
    <path
       style="fill:none;stroke:#003291;stroke-width:1px"
       d="m 220.1016476,89.25032278 c 0,8.69034302 -7.0542368,15.73486602 -15.756345,15.73486602 -8.7020273,0 -15.756345,-7.044523 -15.756345,-15.73486602 0,-8.69042372 7.0543177,-15.73551155 15.756345,-15.73551155 8.7021082,0 15.756345,7.04508783 15.756345,15.73551155 z"
       id="path4706"
       inkscape:connector-curvature="0" />
  </g>
  <g
     inkscape:groupmode="layer"
     id="g4260"
     inkscape:label="HEAD-02"
     style="display:none"
     sodipodi:insensitive="true">
    <path
       sodipodi:nodetypes="sssss"
       inkscape:connector-curvature="0"
       id="path4262"
       d="m 257,78 c 0,22.0913896 -17.9086104,40 -40,40 -22.0913904,0 -40,-17.9086104 -40,-40 0,-22.09139042 17.9086096,-40.00000002 40,-40.00000002 22.0913896,0 40,17.9086096 40,40.00000002 z"
       style="fill:#fe5494;stroke:none" />
  </g>
  <g
     inkscape:groupmode="layer"
     id="g4288"
     inkscape:label="HEAD-03"
     style="display:none"
     sodipodi:insensitive="true">
    <path
       sodipodi:nodetypes="sssss"
       inkscape:connector-curvature="0"
       id="path4290"
       d="m 262.3921356,98.69512102 c -7.8104857,7.81048568 -20.4737855,7.81048568 -28.2842712,0 -7.810486,-7.81048598 -7.8104857,-20.47378555 0,-28.28427124 7.810486,-7.81048598 20.4737852,-7.81048598 28.2842712,0 7.8104857,7.81048569 7.810486,20.47378526 0,28.28427124 z"
       style="fill:#fe5494;stroke:none" />
    <path
       inkscape:connector-curvature="0"
       style="fill:none;stroke:#003291;stroke-width:1px"
       d="m 273,84.55298529 24.75,0"
       id="path5088" />
    <path
       style="fill:none;stroke:#003291;stroke-width:1px"
       d="m 248.25,84.55298529 24.75,0 0,20.00000001"
       id="path5094"
       inkscape:connector-curvature="0"
       sodipodi:nodetypes="ccc" />
    <path
       style="fill:none;stroke:#003291;stroke-width:1px"
       d="m 223.5,84.55298529 24.75,0 0,27.00000001"
       id="path5096"
       inkscape:connector-curvature="0"
       sodipodi:nodetypes="ccc" />
    <path
       style="fill:none;stroke:#003291;stroke-width:1px"
       d="m 223.5,104.5529853 0,-20.00000001 -24.75,0"
       id="path5106"
       inkscape:connector-curvature="0"
       sodipodi:nodetypes="ccc" />
    <path
       sodipodi:nodetypes="scscs"
       inkscape:connector-curvature="0"
       id="path5086"
       d="m 248.2511,57.05298529 c 27.3383,0 49.4989,27.5 49.4989,27.5 0,0 -22.1606,27.50000001 -49.4989,27.50000001 -27.3383,0 -49.5011,-27.50000001 -49.5011,-27.50000001 0,0 22.1628,-27.5 49.5011,-27.5 z"
       style="fill:none;stroke:#003291;stroke-width:1px" />
  </g>
  <g
     style="display:inline"
     inkscape:label="HEAD-04"
     id="g4292"
     inkscape:groupmode="layer"
     sodipodi:insensitive="true">
    <path
       style="fill:#fe5494;stroke:none"
       d="m 247.0527664,95.14675924 c -4.8775912,9.91042266 -16.8656456,13.99033886 -26.7760682,9.11274756 -9.9104231,-4.8775914 -13.9903389,-16.86564554 -9.1127477,-26.7760682 4.8775914,-9.91042303 16.8656453,-13.99033901 26.7760683,-9.11274761 9.9104227,4.87759122 13.990339,16.86564522 9.1127476,26.77606825 z"
       id="path4294"
       inkscape:connector-curvature="0"
       sodipodi:nodetypes="sssss" />
  </g>
  <g
     style="display:none"
     inkscape:label="HEAD-06"
     id="g4458"
     inkscape:groupmode="layer"
     sodipodi:insensitive="true">
    <path
       sodipodi:nodetypes="sssss"
       inkscape:connector-curvature="0"
       id="path4460"
       d="m 232.7533333,92.73333373 c -0.7584515,17.44438507 -26.7083978,18.10381207 -30,0 l -8,-44 c -4.8457793,-26.65178605 41.2297458,-30.28415401 40,-2 z"
       style="fill:#fe5494;stroke:none;display:inline" />
    <path
       sodipodi:nodetypes="scscs"
       inkscape:connector-curvature="0"
       id="path4990"
       d="m 196.044547,50.42344655 c 15.5430731,0 28.1423871,16.7720984 28.1423871,16.7720984 0,0 -12.599314,16.77209835 -28.1423871,16.77209835 -15.5430732,0 -28.143638,-16.77209835 -28.143638,-16.77209835 0,0 12.6005648,-16.7720984 28.143638,-16.7720984 z"
       style="fill:#ffffff;stroke:#003291;stroke-width:1px;display:inline" />
    <path
       style="fill:#2a7ffe;stroke:#003291;stroke-width:1px;display:inline"
       d="m 209.9732914,67.19585765 c 0,7.69303746 -6.236321,13.92905145 -13.9293698,13.92905145 -7.692992,0 -13.9293699,-6.23601399 -13.9293699,-13.92905145 0,-7.69302041 6.2363779,-13.92967687 13.9293699,-13.92967687 7.6930488,0 13.9293698,6.23666215 13.9293698,13.92967687 z"
       id="path4992"
       inkscape:connector-curvature="0" />
    <path
       inkscape:original-d="m 164.5545058,61.27723997 c 0,0 14.0988534,-18.24489331 31.4901549,-18.24489331 17.3912447,0 31.4887335,18.24489331 31.4887335,18.24489331"
       inkscape:path-effect="#path-effect4998"
       style="fill:none;stroke:#003291;stroke-width:1px"
       d="m 164.5545058,61.27723997 c 0,0 14.0988534,-18.24489331 31.4901549,-18.24489331 17.3912447,0 31.4887335,18.24489331 31.4887335,18.24489331"
       id="path4996"
       inkscape:connector-curvature="0"
       sodipodi:nodetypes="csc" />
  </g>
  <g
     inkscape:groupmode="layer"
     id="g4462"
     inkscape:label="HEAD-07"
     style="display:none"
     sodipodi:insensitive="true">
    <path
       style="fill:#fe5494;stroke:none;display:inline"
       d="m 182.6172788,35.85413698 c -3.5138878,-17.10363741 18.5579318,-24.21315841 25.542898,-7.18985372 l 16.9764529,41.37390544 c 10.2830179,25.06110171 -27.7854644,37.5322543 -33.4828474,9.80058535 z"
       id="path4464"
       inkscape:connector-curvature="0"
       sodipodi:nodetypes="sssss" />
    <path
       style="fill:none;stroke:#003291;stroke-width:1px;display:inline"
       d="m 218.1153905,32.99226656 c 22.1945618,2.23250077 37.9956192,25.6560659 37.9956192,25.6560659 0,0 -20.1811489,19.80418758 -42.3757107,17.57168678 -22.1945617,-2.23250085 -37.9974434,-25.65624073 -37.9974434,-25.65624073 0,0 20.1829732,-19.80401281 42.3775349,-17.57151195 z"
       id="path5019"
       inkscape:connector-curvature="0"
       sodipodi:nodetypes="scscs" />
    <path
       inkscape:connector-curvature="0"
       id="path5021"
       d="m 238.0666417,56.83365099 c -0.9015483,8.8975097 -8.8243099,15.38646382 -17.6962125,14.49405912 -8.8719027,-0.89240463 -15.3332366,-8.82822241 -14.4316883,-17.72573208 0.9015474,-8.89750097 8.8244709,-15.38718663 17.6964604,-14.49477313 8.8719027,0.89240463 15.3329871,8.82895383 14.4314404,17.72644609 z"
       style="fill:#2a7ffe;stroke:#003291;stroke-width:1px;display:inline" />
    <path
       inkscape:connector-curvature="0"
       style="fill:none;stroke:#003291;stroke-width:1px"
       d="m 261.9937949,54.45992636 4.8863743,-3.6838435"
       id="path3933" />
    <path
       inkscape:connector-curvature="0"
       style="fill:none;stroke:#003291;stroke-width:1px"
       d="m 254.9687047,46.43017888 4.3408806,-4.3169245"
       id="path3931" />
    <path
       inkscape:connector-curvature="0"
       style="fill:none;stroke:#003291;stroke-width:1px"
       d="m 246.9915726,39.2789917 3.7879858,-4.8153386"
       id="path3929" />
    <path
       inkscape:connector-curvature="0"
       style="fill:none;stroke:#003291;stroke-width:1px"
       d="m 238.2098032,33.30136048 3.0332255,-5.31890415"
       id="path3927" />
    <path
       inkscape:connector-curvature="0"
       style="fill:none;stroke:#003291;stroke-width:1px"
       d="m 228.6629539,28.93358516 1.9862138,-5.79867119"
       id="path3925" />
    <path
       inkscape:connector-curvature="0"
       style="fill:none;stroke:#003291;stroke-width:1px;display:inline"
       d="m 170.268182,45.80136914 -3.5046653,-4.99975821"
       id="path3923" />
    <path
       inkscape:connector-curvature="0"
       style="fill:none;stroke:#003291;stroke-width:1px"
       d="m 179.2452893,39.4643482 -3.3501227,-5.10125892"
       id="path3921" />
    <path
       inkscape:connector-curvature="0"
       style="fill:none;stroke:#003291;stroke-width:1px"
       d="m 188.3391742,33.53318636 -2.9855036,-5.31915028"
       id="path3919" />
    <path
       inkscape:connector-curvature="0"
       style="fill:none;stroke:#003291;stroke-width:1px"
       d="m 198.0402741,29.41914334 -1.9893259,-5.77250093"
       id="path3917" />
    <path
       inkscape:connector-curvature="0"
       style="fill:none;stroke:#003291;stroke-width:1px"
       d="m 208.2348387,26.97761371 -0.8342169,-6.07112227"
       id="path3915" />
    <path
       inkscape:connector-curvature="0"
       style="fill:none;stroke:#003291;stroke-width:1px"
       d="m 218.5729854,26.70445287 0.5858824,-6.09787864"
       id="path5023" />
    <path
       style="fill:#ffffff;stroke:#003291;stroke-width:1px;display:inline"
       d="m 225.0418251,55.52343496 c -0.7066193,6.97372775 -6.9163791,12.05965727 -13.8699856,11.36020974 -6.9536066,-0.69944758 -12.0179615,-6.91941481 -11.3113421,-13.89314264 0.7066184,-6.97371911 6.9165242,-12.06022333 13.8702175,-11.36076701 6.9536065,0.69944761 12.0177277,6.91998957 11.3111102,13.89369991 z"
       id="path5046"
       inkscape:connector-curvature="0" />
    <path
       inkscape:connector-curvature="0"
       id="path5048"
       d="m 208.109568,53.82010794 c -0.3411263,3.36662472 -3.3388786,5.82190924 -6.6958102,5.48424309 -3.3569314,-0.33766617 -5.801819,-3.34041346 -5.4606928,-6.70703831 0.3411264,-3.36662478 3.3390806,-5.82217045 6.696012,-5.48450436 3.3569315,0.33766623 5.8016165,3.34068351 5.460491,6.70729958 z"
       style="fill:#2a7ffe;stroke:#003291;stroke-width:1px;display:inline" />
  </g>
  <g
     style="display:none"
     inkscape:label="FARM-01"
     id="g4142"
     inkscape:groupmode="layer"
     sodipodi:insensitive="true">
    <path
       style="fill:#fe5494;stroke:none"
       d="m 216.875,115.59375 -45.75,57.75 c -6.3459521,8.0104642 5.8052521,16.8165261 11.75,9.3125 l 45.75,-57.75 c 6.2847561,-7.9332167 -6.1136266,-16.4272664 -11.75,-9.3125 z"
       id="path4144"
       inkscape:connector-curvature="0"
       sodipodi:nodetypes="sssss" />
  </g>
  <g
     inkscape:groupmode="layer"
     id="g4284"
     inkscape:label="FARM-02"
     style="display:none"
     sodipodi:insensitive="true">
    <path
       style="fill:#fe5494;stroke:none"
       d="m 222.40625,125.75 c 27.045775,12.1933898 37.1370524,28.1399602 50.5,43.96875 13.3629476,15.8287898 30.7007143,31.9331265 67.03125,33.28125 11.0957478,0.4117318 9.9297458,-14.1669374 1.125,-14.96875 -32.8638058,-2.9927739 -44.2123795,-13.2228666 -56.6875,-28 -12.4751205,-14.7771334 -25.1688883,-34.9507995 -55.875,-48 -9.5058052,-4.0396895 -14.485245,9.9355058 -6.09375,13.71875 z"
       id="path4286"
       inkscape:connector-curvature="0"
       sodipodi:nodetypes="sssssss" />
  </g>
  <g
     style="display:none"
     inkscape:label="FARM-03"
     id="g4296"
     inkscape:groupmode="layer"
     sodipodi:insensitive="true">
    <path
       style="fill:#fe5494;stroke:none"
       d="m 222.90625,128.34375 c 28.3138964,9.5489191 38.7267452,24.2960484 42.5625,39.53125 3.8357548,15.2352016 0.1026984,31.4724988 -3.0625,41.21875 -3.0087286,9.2644508 10.951319,13.319997 13.9375,4.75 3.9031818,-11.2016841 8.337416,-29.9764441 3.40625,-49.5625 -4.931166,-19.5860559 -19.9851741,-39.9610847 -52.1875,-49.90625 -9.8284775,-3.0353656 -12.9998092,11.1548677 -4.65625,13.96875 z"
       id="path4298"
       inkscape:connector-curvature="0"
       sodipodi:nodetypes="sssssss" />
  </g>
  <g
     inkscape:groupmode="layer"
     id="g4300"
     inkscape:label="FARM-04"
     style="display:none"
     sodipodi:insensitive="true">
    <path
       style="fill:#fe5494;stroke:none"
       d="m 217.90625,114.53125 c -10.4993382,8.84036 -18.7090958,15.2667193 -30.28125,19 -11.5721542,3.7332807 -27.0929116,4.8158055 -52.0625,1.71875 -10.0685421,-1.2488325 -11.3163612,13.6423184 -1.90625,14.875 26.199375,3.4319984 44.1517594,2.3365341 58.5625,-2.3125 14.4107406,-4.6490341 24.8877624,-12.5083879 35.375,-21.84375 7.5911267,-6.7573483 -2.8110761,-17.2273947 -9.6875,-11.4375 z"
       id="path4302"
       inkscape:connector-curvature="0"
       sodipodi:nodetypes="sssssss" />
  </g>
  <g
     style="display:inline"
     inkscape:label="FARM-05"
     id="g4304"
     inkscape:groupmode="layer"
     sodipodi:insensitive="true">
    <path
       style="fill:#fe5494;stroke:none"
       d="m 110.71875,55.1875 c 24.5597542,9.91314464 33.2519499,24.12322662 45.84375,39.1875 12.5918001,15.0642734 29.484755,31.1374533 65.4375,33.34375 11.0855837,0.6802843 9.4461304,-14.094399 1.5,-14.9375 C 190.9506895,109.3277004 179.7667037,98.75239228 168.0625,84.75 156.3582963,70.74760772 144.7865535,51.97500455 116.25,41.25 c -9.609747,-3.6116688 -13.9692658,10.53163241 -5.53125,13.9375 z"
       id="path4306"
       inkscape:connector-curvature="0"
       sodipodi:nodetypes="sssssss" />
  </g>
  <g
     inkscape:groupmode="layer"
     id="g4432"
     inkscape:label="HEAD-05"
     style="display:none"
     sodipodi:insensitive="true">
    <path
       style="fill:#fe5494;stroke:none;display:inline"
       d="m 231.25,100.25 c 0,8.2842711 -6.7157289,15 -15,15 -8.2842714,0 -15,-6.7157289 -15,-15 l 0,-30 c 0,-8.2842714 6.7157286,-15 15,-15 8.2842711,0 15,6.7157286 15,15 z"
       id="path4456"
       inkscape:connector-curvature="0"
       sodipodi:nodetypes="sssssss" />
    <path
       sodipodi:nodetypes="scscs"
       inkscape:connector-curvature="0"
       id="path4724"
       d="m 211.9262429,78.79672081 c 0,14.41283075 -12.3746653,26.09596309 -12.3746653,26.09596309 0,0 -11.8480837,-11.68313234 -11.8480837,-26.09596309 0,-14.41283073 11.8480837,-26.09712291 11.8480837,-26.09712291 0,0 12.3746653,11.68429218 12.3746653,26.09712291 z"
       style="fill:#ffffff;stroke:#003291;stroke-width:1px;display:inline" />
    <path
       sodipodi:nodetypes="sassass"
       inkscape:connector-curvature="0"
       id="path4726"
       d="m 208.7428471,79.99789987 c 0,6.469992 -5.2637613,11.71471177 -10.5076705,11.71471177 -5.2440145,0 -10.5077232,-5.24471977 -10.5077232,-11.71471177 l 0,-2.40304348 c 0,-6.47009746 5.2636033,-11.71518628 10.5077232,-11.71518628 5.2441198,0 10.5076705,5.24508882 10.5076705,11.71518628 z"
       style="fill:#2a7ffe;stroke:none;display:inline" />
    <path
       inkscape:connector-curvature="0"
       id="path4728"
       d="m 202.7110666,78.79629905 c 0,5.67776423 -4.5971618,10.28029815 -10.2683392,10.28029815 -5.6710721,0 -10.2683392,-4.60253392 -10.2683392,-10.28029815 0,-5.67776423 4.5972671,-10.28061449 10.2683392,-10.28061449 5.6711774,0 10.2683392,4.60285026 10.2683392,10.28061449 z"
       style="fill:#ffffff;stroke:#003291;stroke-width:1px;display:inline" />
    <path
       style="fill:none;stroke:#003291;stroke-width:1px;display:inline"
       d="m 165.8503618,68.51568456 15.2708634,0"
       id="path4730"
       inkscape:connector-curvature="0"
       sodipodi:nodetypes="cc" />
    <path
       sodipodi:nodetypes="cc"
       inkscape:connector-curvature="0"
       id="path4732"
       d="m 165.8503618,89.0765972 15.2708634,0"
       style="stroke:#003291;display:inline" />
    <path
       style="fill:none;stroke:#003291;stroke-width:1px;display:inline"
       d="m 165.8503618,83.80456833 10.0050484,0"
       id="path4734"
       inkscape:connector-curvature="0"
       sodipodi:nodetypes="cc" />
    <path
       sodipodi:nodetypes="cc"
       inkscape:connector-curvature="0"
       id="path4736"
       d="m 165.8503618,78.53253944 8.4253039,0"
       style="fill:none;stroke:#003291;stroke-width:1px;display:inline" />
    <path
       style="fill:none;stroke:#003291;stroke-width:1px;display:inline"
       d="m 165.8503618,73.26051056 10.0050484,0"
       id="path4738"
       inkscape:connector-curvature="0"
       sodipodi:nodetypes="cc" />
  </g>
  <g
     inkscape:groupmode="layer"
     id="layer9"
     inkscape:label="HEAD-04"
     style="display:inline"
     sodipodi:insensitive="true">
    <path
       style="fill:none;stroke:#003291;stroke-width:1px"
       d="m 226.5334002,66.49674709 c 19.7697912,0 35.7953096,19.85814669 35.7953096,19.85814669 0,0 -16.0255184,19.85814662 -35.7953096,19.85814662 -19.7697912,0 -35.7969007,-19.85814662 -35.7969007,-19.85814662 0,0 16.0271095,-19.85814669 35.7969007,-19.85814669 z"
       id="path5108"
       inkscape:connector-curvature="0"
       sodipodi:nodetypes="scscs" />
    <path
       sodipodi:nodetypes="cc"
       inkscape:connector-curvature="0"
       id="path5138"
       d="M 276.2044853,123.4190625 203.9065887,104.0703132"
       style="fill:none;stroke:#003291;stroke-width:1px" />
    <path
       style="fill:none;stroke:#003291;stroke-width:1px"
       d="M 279.2157149,112.1946032 206.9178181,92.84585425"
       id="path5140"
       inkscape:connector-curvature="0"
       sodipodi:nodetypes="cc" />
    <path
       sodipodi:nodetypes="cc"
       inkscape:connector-curvature="0"
       id="path5142"
       d="M 282.2269443,100.9701443 209.9290479,81.6213952"
       style="fill:none;stroke:#003291;stroke-width:1px" />
    <path
       style="fill:none;stroke:#003291;stroke-width:1px"
       d="M 285.238174,89.74568514 212.9402774,70.39693615"
       id="path5144"
       inkscape:connector-curvature="0"
       sodipodi:nodetypes="cc" />
    <path
       sodipodi:nodetypes="cc"
       inkscape:connector-curvature="0"
       id="path5146"
       d="m 288.2494034,78.52122609 -72.2978966,-19.348749"
       style="fill:none;stroke:#003291;stroke-width:1px" />
    <path
       style="fill:none;stroke:#003291;stroke-width:1px"
       d="M 216.6540728,56.55347021 203.2039453,106.6893202"
       id="path5148"
       inkscape:connector-curvature="0"
       sodipodi:nodetypes="cc" />
  </g>
  <g
     inkscape:groupmode="layer"
     id="layer10"
     inkscape:label="HEAD-02"
     sodipodi:insensitive="true"
     style="display:none">
    <path
       style="fill:none;stroke:#003291;stroke-width:1px;stroke-linecap:round;display:inline"
       d="m 221.5759838,50.77565049 c -28.0863266,20.1799532 -16.0024199,49.97471321 -1.9305364,59.83373741"
       id="path4782"
       inkscape:connector-curvature="0"
       sodipodi:nodetypes="cc" />
    <path
       inkscape:connector-curvature="0"
       style="fill:#fe5494;stroke:none;display:inline"
       d="m 233.0332515,70.81394726 c 1.3543181,5.63994291 1.5636591,11.59210437 0.4674513,17.35179079 l -40.1821104,0 0,-17.35179079 39.7146591,0 z"
       id="path4805" />
    <path
       sodipodi:nodetypes="cccc"
       style="fill:none;stroke:#003291;stroke-width:1px;stroke-linecap:round;display:inline"
       d="m 193.3185924,70.81996055 39.4902825,0 m 0.5983377,17.35179079 -40.0886202,0"
       id="path4788"
       inkscape:connector-curvature="0" />
    <path
       style="fill:none;stroke:#003291;stroke-width:1px;stroke-linecap:round;display:inline"
       d="M 219.6454474,110.6093879 C 243.1654409,92.5505655 235.8935447,56.80216677 214.2604089,45.390612"
       id="path4784"
       inkscape:connector-curvature="0"
       sodipodi:nodetypes="cc" />
    <path
       sodipodi:nodetypes="sssss"
       inkscape:connector-curvature="0"
       id="path4786"
       d="m 184.642697,79.49597561 c 0,4.79160728 3.8842283,8.67577573 8.6758954,8.67577573 4.7916073,0 8.6758954,-3.88416845 8.6758954,-8.67577573 0,-4.79154744 -3.8842881,-8.67601506 -8.6758954,-8.67601506 -4.7916671,0 -8.6758954,3.88446762 -8.6758954,8.67601506 z"
       style="fill:#ffffff;stroke:#003291;stroke-width:1px;display:inline" />
    <path
       style="fill:#ffffff;stroke:#003291;stroke-width:1px;display:inline"
       d="m 190.6260732,79.49591578 c 0,1.48704847 1.2054708,2.69245943 2.6925192,2.69245943 1.4871083,0 2.6925193,-1.20541096 2.6925193,-2.69245943 0,-1.48704847 -1.205411,-2.6925791 -2.6925193,-2.6925791 -1.4870484,0 -2.6925192,1.20553063 -2.6925192,2.6925791 z"
       id="path4790"
       inkscape:connector-curvature="0"
       sodipodi:nodetypes="sssss" />
  </g>
</svg>
