<?xml version="1.0" encoding="UTF-8" standalone="no"?>
<!-- CLEANED: 1712175163/3896a5360b53f2a8271aab7a0cf802f1 -->
<svg
   xmlns:dc="http://purl.org/dc/elements/1.1/"
   xmlns:cc="http://creativecommons.org/ns#"
   xmlns:rdf="http://www.w3.org/1999/02/22-rdf-syntax-ns#"
   xmlns:svg="http://www.w3.org/2000/svg"
   xmlns="http://www.w3.org/2000/svg"
   xmlns:sodipodi="http://sodipodi.sourceforge.net/DTD/sodipodi-0.dtd"
   xmlns:inkscape="http://www.inkscape.org/namespaces/inkscape"
   style="display:inline"
   sodipodi:docname="240403_Kopf.svg"
   inkscape:version="1.0.2 (e86c870879, 2021-01-15)"
   version="1.1"
   id="svg2902"
   height="400"
   width="400">
  <sodipodi:namedview
     id="base"
     pagecolor="#f0f0f0"
     bordercolor="#666666"
     borderopacity="1.0"
     inkscape:pageopacity="1"
     inkscape:pageshadow="2"
     inkscape:document-units="px"
     showgrid="false"
     showguides="true"
     inkscape:guide-bbox="true"
     inkscape:snap-bbox="true"
     inkscape:snap-global="false"
     inkscape:document-rotation="0"
      />
  <defs
     id="defs2904" />
  <metadata
     id="metadata2907">
    <rdf:RDF>
      <cc:Work
         rdf:about="">
        <dc:format>image/svg+xml</dc:format>
        <dc:type
           rdf:resource="http://purl.org/dc/dcmitype/StillImage" />
        <dc:title />
      </cc:Work>
    </rdf:RDF>
  </metadata>
  <g
     inkscape:groupmode="layer"
     id="bg"
     inkscape:label="XX_BG"
     sodipodi:insensitive="true">
    <path
       style="fill:#ffd5e5"
       d="M 400,400 400,0 0,0 0,400 z"
       id="bgrect" />
  </g>
  <g
     inkscape:groupmode="layer"
     id="layer1"
     inkscape:label="XX____________"
     sodipodi:insensitive="true"
     style="display:none" />
  <g
     inkscape:groupmode="layer"
     id="layer5"
     inkscape:label="U-0000"
     style="display:none">
    <path
       style="display:inline;fill:none;stroke:#00ff00;stroke-width:1.00003;stroke-linecap:round;stroke-miterlimit:4;stroke-dasharray:none"
       d="m 249.4999872,225 v 5.00048 c 0,27.3068812 -22.1628244,49.499504 -49.4999827,49.499504 -27.3371583,0 -49.4999885,-22.1926228 -49.4999885,-49.499504 V 220"
       id="path1046-7"
       sodipodi:nodetypes="csssc" />
  </g>
  <g
     inkscape:groupmode="layer"
     id="g1194"
     inkscape:label="U-0010"
     style="display:none">
    <path
       style="display:inline;fill:none;stroke:#00ff00;stroke-width:1.00003;stroke-linecap:round;stroke-miterlimit:4;stroke-dasharray:none"
       d="m 249.4999872,225 v 5.00048 c 0,27.3068812 -22.1628244,49.499504 -49.4999827,49.499504 -27.3371583,0 -49.4999885,-12.1926228 -49.4999885,-39.499504 43.8058879,0 50,-40.00048 50,-40.00048 0,0 -7.8554588,20 -50,20"
       id="path1192"
       sodipodi:nodetypes="cssccc" />
  </g>
  <g
     inkscape:groupmode="layer"
     id="g1198"
     inkscape:label="U-0020"
     style="display:none">
    <path
       style="display:inline;fill:none;stroke:#00ff00;stroke-width:1.00003;stroke-linecap:round;stroke-miterlimit:4;stroke-dasharray:none"
       d="m 249.4999872,225 v 5.00048 c 0,65.6133116 -98.9999712,62.7565813 -98.9999712,10 11.6035018,3.1091489 45.8321988,15.91881 50,-20.00048 -10.7446663,9.9967344 -30.6024798,12.0598256 -50,0"
       id="path1196"
       sodipodi:nodetypes="csccc" />
  </g>
  <g
     inkscape:groupmode="layer"
     id="g1206"
     inkscape:label="U-0030"
     style="display:none">
    <path
       style="display:inline;fill:none;stroke:#00ff00;stroke-width:1px;stroke-linecap:round;stroke-miterlimit:4;stroke-dasharray:none"
       d="m 249.4999872,225 v 5.00048 c 0,27.3068812 -22.1628244,49.499504 -49.4999827,49.499504 -27.3371583,0 -49.4999885,-22.1926228 -49.4999885,-49.499504 V 220"
       id="path1046-7-3"
       sodipodi:nodetypes="csssc" />
    <path
       id="rect1228"
       style="fill:#ffffff;stroke:#ff00ff;stroke-width:0.948322"
       d="m 144.4741612,217.4741613 h 59.0516775 v 27.0516778 h -59.0516775 z"
       sodipodi:nodetypes="ccccc"
       zpos="200" />
  </g>
  <g
     inkscape:groupmode="layer"
     id="g1233"
     inkscape:label="U-0040"
     style="display:none">
    <path
       style="display:inline;fill:none;stroke:#00ff00;stroke-width:1.00003;stroke-linecap:round;stroke-miterlimit:4;stroke-dasharray:none"
       d="M 150.500016,230 H 210"
       id="path1241" />
    <path
       style="display:inline;fill:none;stroke:#00ff00;stroke-width:1.00003;stroke-linecap:round;stroke-miterlimit:4;stroke-dasharray:none"
       d="m 249.4999872,225 v 12.00048 c 0,66.4380098 -98.9999712,59.3933286 -98.9999712,5 V 220"
       id="path1237"
       sodipodi:nodetypes="cssc" />
  </g>
  <g
     inkscape:groupmode="layer"
     id="g1247"
     inkscape:label="U-0050"
     style="display:none">
    <path
       style="display:inline;fill:none;stroke:#00ff00;stroke-width:1.00003;stroke-linecap:round;stroke-miterlimit:4;stroke-dasharray:none"
       d="M 150.500016,230 210,210"
       id="path1243"
       sodipodi:nodetypes="cc" />
    <path
       style="display:inline;fill:none;stroke:#00ff00;stroke-width:1.00003;stroke-linecap:round;stroke-miterlimit:4;stroke-dasharray:none"
       d="m 249.4999872,225 v 12.00048 c 0,66.4380098 -98.9999712,59.3933286 -98.9999712,5 V 220"
       id="path1245"
       sodipodi:nodetypes="cssc" />
  </g>
  <g
     inkscape:groupmode="layer"
     id="g1253"
     inkscape:label="U-0060"
     style="display:none">
    <path
       style="display:inline;fill:none;stroke:#00ff00;stroke-width:1.00003;stroke-linecap:round;stroke-miterlimit:4;stroke-dasharray:none"
       d="M 150.500016,240 C 187.2307571,240 200,222.0831919 200,200"
       id="path1249"
       sodipodi:nodetypes="cc" />
    <path
       style="display:inline;fill:none;stroke:#00ff00;stroke-width:1.00003;stroke-linecap:round;stroke-miterlimit:4;stroke-dasharray:none"
       d="m 249.4999872,225 v 10.00048 c 0,66.4380098 -98.9999712,61.3933286 -98.9999712,7 V 220"
       id="path1251"
       sodipodi:nodetypes="cssc" />
  </g>
  <g
     inkscape:groupmode="layer"
     id="g1259"
     inkscape:label="U-0070"
     style="display:inline">
    <path
       style="display:inline;fill:none;stroke:#ff00ff;stroke-width:1;stroke-linecap:butt;stroke-linejoin:bevel;stroke-miterlimit:4;stroke-dasharray:none"
       d="m 157.4186743,229.8564892 12.2500001,18.2396169 12.25,-18.2396169 12.25,18.2396169 12.2499999,-18.2396169"
       id="path1261"
       sodipodi:nodetypes="ccccc" />
    <path
       style="display:inline;fill:none;stroke:#008080;stroke-width:1.00003;stroke-linecap:round;stroke-miterlimit:4;stroke-dasharray:none"
       d="M 150.500016,230 H 210"
       id="path1255" />
    <path
       style="display:inline;fill:none;stroke:#00ff00;stroke-width:1.00003;stroke-linecap:round;stroke-miterlimit:4;stroke-dasharray:none"
       d="m 249.4999872,225 v 14.00048 c 0,65.3204682 -98.9999712,66.5292173 -98.9999712,6 V 220"
       id="path1257"
       sodipodi:nodetypes="cssc" />
  </g>
  <g
     inkscape:groupmode="layer"
     id="layer3"
     inkscape:label="O-0000"
     style="display:none">
    <path
       style="display:inline;fill:none;stroke:#0000ff;stroke-width:1.00003;stroke-linecap:round;stroke-miterlimit:4;stroke-dasharray:none"
       d="m 145.5000279,175.9716529 v -6.0281549 c 0,-65.9960663 103.9999474,-70.43750829 103.9999474,0 V 225"
       id="path1084-3"
       sodipodi:nodetypes="cssc" />
  </g>
  <g
     inkscape:groupmode="layer"
     id="g1265"
     inkscape:label="O-0010"
     style="display:none">
    <path
       style="display:inline;fill:none;stroke:#0000ff;stroke-width:1.00003;stroke-linecap:round;stroke-miterlimit:4;stroke-dasharray:none"
       d="M 145.5000279,175.9716529 V 109.943498 l 12.9999934,16 12.9999934,-16 12.9999935,16 12.9999934,-16 12.9999934,16 12.9999934,-16 12.9999935,16 12.9999934,-16 V 225"
       id="path1263"
       sodipodi:nodetypes="ccccccccccc" />
  </g>
  <g
     inkscape:groupmode="layer"
     id="g1269"
     inkscape:label="O-0020"
     style="display:none">
    <path
       style="display:inline;fill:none;stroke:#0000ff;stroke-width:1.00003;stroke-linecap:round;stroke-miterlimit:4;stroke-dasharray:none"
       d="M 145.5000279,175.9716529 V 86.943498 c 0,-19.53478108 23.9999868,-19.05040467 23.9999868,0 v 30 c 0,37.7747434 55.9999737,38.0879029 55.9999737,0 v -30 c 0,-19.73679165 23.9999869,-19.84225155 23.9999869,0 V 225"
       id="path1267"
       sodipodi:nodetypes="cssssssc" />
  </g>
  <g
     inkscape:groupmode="layer"
     id="g1290"
     inkscape:label="O-0030"
     style="display:inline">
    <path
       style="display:inline;fill:none;stroke:#0000ff;stroke-width:1.00003;stroke-linecap:round;stroke-miterlimit:4;stroke-dasharray:none"
       d="M 145.5000279,175.9716529 V 89.943498 c 0,-15.84820358 16.0659431,-18.50266378 20.9999868,0 l 8,30 c 9.6854718,36.3205192 35.9464777,37.7006099 45.9999737,0 l 8,-30 c 5.1027793,-19.13542242 20.9999869,-17.98961486 20.9999869,0 V 225"
       id="path1267-5"
       sodipodi:nodetypes="cssssssc" />
  </g>
  <g
     inkscape:groupmode="layer"
     id="g1303"
     inkscape:label="O-0040"
     style="display:none">
    <path
       style="display:inline;fill:none;stroke:#0000ff;stroke-width:1.00003;stroke-linecap:round;stroke-miterlimit:4;stroke-dasharray:none"
       d="M 145.5000279,175.9716529 V 131.943498 c 0,-25.0351159 18.3737886,-36.4717227 43.5000698,-36.4717227 H 285 c 17.2894045,0 16.914246,23.9999474 0,23.9999474 h -66 c -8.060182,0 -7.2478654,10.0000526 9.77e-5,10.0000526 H 285 c 17.2894045,0 16.914246,23.9999474 0,23.9999474 h -66 m 30.4999753,1.4717753 V 225"
       id="path1301"
       sodipodi:nodetypes="cssssssssccc" />
  </g>
  <g
     inkscape:groupmode="layer"
     id="g1311"
     inkscape:label="O-0050"
     style="display:none">
    <path
       id="path1309"
       style="display:inline;fill:none;stroke:#0000ff;stroke-width:1.00003;stroke-linecap:round;stroke-miterlimit:4;stroke-dasharray:none"
       d="M 145.5000279,175.9716529 V 149.943498 m 103.9999474,0 V 225"
       sodipodi:nodetypes="cccc" />
    <path
       style="display:inline;fill:none;stroke:#0000ff;stroke-width:1.00003;stroke-linecap:round;stroke-miterlimit:4;stroke-dasharray:none"
       d="m 128.0000166,149.746701 c 0,-88.98143514 138.99997,-94.9697599 138.99997,0 z"
       id="path1315"
       sodipodi:nodetypes="ccc" />
  </g>
  <g
     inkscape:groupmode="layer"
     id="g1370"
     inkscape:label="O-0060"
     style="display:none">
    <path
       id="path1366"
       style="display:inline;fill:none;stroke:#0000ff;stroke-width:1.00003;stroke-linecap:round;stroke-miterlimit:4;stroke-dasharray:none"
       d="M 145.5000279,175.9716529 V 159.943498 c 0,-21.2336559 -14.0809521,-27.1749556 -47.0000066,-30 20.1225811,-16.9417939 54.5403385,-16.2871389 76,20 6.6e-6,-21.280767 -14.4010357,-51.533083 -46,-60 35.5420527,-4.27430876 66.5863787,16.2737466 78,47 6.6e-6,-21.280767 -16.4010357,-65.533083 -48,-74 35.5420527,-4.27430876 90.999954,36.11187106 90.999954,87 V 225"
       sodipodi:nodetypes="cscccccsc" />
  </g>
  <g
     inkscape:groupmode="layer"
     id="layer4"
     inkscape:label="XX_N-0000"
     style="display:none">
    <path
       style="display:inline;fill:none;stroke:#ff0000;stroke-width:1;stroke-linecap:round;stroke-miterlimit:4;stroke-dasharray:none"
       d="m 150.5000219,219.998316 v -2.507002 c 0,-14.6632637 -4.7737921,-30.5930382 -5,-41.521006"
       id="path1037-6"
       sodipodi:nodetypes="ccc" />
  </g>
  <g
     inkscape:groupmode="layer"
     id="g1162"
     inkscape:label="N-0010"
     style="display:none">
    <path
       style="display:inline;fill:none;stroke:#ff00ff;stroke-width:1;stroke-linecap:butt;stroke-miterlimit:4;stroke-dasharray:none"
       d="M 150.500016,221.00048 V 209"
       id="path1046-7-5"
       sodipodi:nodetypes="cc" />
    <path
       style="display:inline;fill:none;stroke:#ff0000;stroke-width:1;stroke-linecap:round;stroke-miterlimit:4;stroke-dasharray:none"
       d="m 145.5000219,175.970308 v 6.014004 l -5,27.014004 h 14.438143"
       id="path1160"
       sodipodi:nodetypes="cccc" />
  </g>
  <g
     inkscape:groupmode="layer"
     id="g1166"
     inkscape:label="N-0020"
     style="display:none">
    <path
       style="display:inline;fill:none;stroke:#ff0000;stroke-width:1;stroke-linecap:round;stroke-miterlimit:4;stroke-dasharray:none"
       d="m 150.5000219,219.998316 v -2.507002 c -0.033227,-10.4089517 -18.7936158,-8.525507 -20.1330275,-17.2638936 -1.4439109,-9.4201446 15.3047288,-15.9623229 15.1330275,-24.2571124"
       id="path1164"
       sodipodi:nodetypes="ccac" />
  </g>
  <g
     inkscape:groupmode="layer"
     id="g1190"
     inkscape:label="N-0030"
     style="display:inline">
    <path
       style="display:inline;fill:none;stroke:#ff0000;stroke-width:1;stroke-linecap:round;stroke-miterlimit:4;stroke-dasharray:none"
       d="m 150.5000219,219.998316 v -2.507002 c 0,-16.6742516 -32.3498464,-8.1549948 -32.3498464,-15.7183042 0,-7.5633094 27.6119083,-13.1426443 27.3498464,-25.8027018"
       id="path1188"
       sodipodi:nodetypes="cczc" />
  </g>
  <g
     inkscape:groupmode="layer"
     id="g1202"
     inkscape:label="N-0040"
     style="display:none">
    <path
       style="display:inline;fill:none;stroke:#ff0000;stroke-width:1;stroke-linecap:round;stroke-miterlimit:4;stroke-dasharray:none"
       d="m 150.5000219,219.998316 v -2.507002 c 0,-15.9705171 -12.3937343,-14.5166893 -33.3498464,-14.7183042 -7.2754373,-0.069996 4.7690845,-16.2790429 28.3498464,-26.8027018"
       id="path1200"
       sodipodi:nodetypes="ccsc" />
  </g>
  <g
     inkscape:groupmode="layer"
     id="g1364"
     inkscape:label="A-0000"
     style="display:none">
    <path
       id="path1362"
       style="display:inline;fill:#ffffff;stroke:#ff00ff;stroke-width:1"
       d="m 207,180 c 0,9.3888408 -7.6111592,17 -17,17 -9.3888408,0 -17,-7.6111592 -17,-17 0,-9.3888408 7.6111592,-17 17,-17 9.3888408,0 17,7.6111592 17,17 z"
       sodipodi:nodetypes="sssss" />
  </g>
  <g
     inkscape:groupmode="layer"
     id="g1326"
     inkscape:label="A-0010"
     style="display:inline">
    <path
       id="path1324"
       style="display:inline;fill:#ffffff;stroke:#ff00ff;stroke-width:1"
       d="m 207,180 c 0,9.3888408 -7.6111592,17 -17,17 -9.3888408,0 -17,-7.6111592 -17,-17 0,-9.3888408 7.6111592,-17 17,-17 9.3888408,0 17,7.6111592 17,17 z"
       sodipodi:nodetypes="sssss" />
    <path
       id="path1328"
       style="display:inline;fill:none;stroke:#ff00ff;stroke-width:1"
       d="m 201.4461898,180 c 0,6.3215561 -5.1246337,11.4461898 -11.4461898,11.4461898 -6.3215561,0 -11.4461898,-5.1246337 -11.4461898,-11.4461898 0,-6.3215561 5.1246337,-11.4461898 11.4461898,-11.4461898 6.3215561,0 11.4461898,5.1246337 11.4461898,11.4461898 z"
       sodipodi:nodetypes="sssss" />
  </g>
  <g
     inkscape:groupmode="layer"
     id="g1334"
     inkscape:label="A-0020"
     style="display:none">
    <path
       id="path1330"
       style="fill:#ffffff;stroke:#ff00ff;stroke-width:1"
       d="M 205.6640557,173.3828328 C 206.5243026,175.4166847 207,177.6527898 207,180 c 0,9.3888408 -7.6111592,17 -17,17 -9.3888408,0 -17,-7.6111592 -17,-17 0,-9.3888408 7.6111592,-17 17,-17 2.3472102,0 4.5833153,0.4756974 6.6171672,1.3359443 l -10.4765557,19.5234442 z"
       sodipodi:nodetypes="cssssccc" />
  </g>
  <g
     inkscape:groupmode="layer"
     id="g1338"
     inkscape:label="A-0030"
     style="display:none">
    <path
       id="path1321-6"
       style="display:inline;fill:none;stroke:#ff00ff;stroke-width:1"
       d="M 192.0710678,182.0710678 177.9289322,167.9289322"
       sodipodi:nodetypes="cc" />
    <path
       id="path1360"
       style="display:inline;fill:none;stroke:#ff00ff;stroke-width:1"
       d="m 177.9289322,182.0710678 14.1421356,-14.1421356"
       sodipodi:nodetypes="cc" />
  </g>
  <g
     inkscape:groupmode="layer"
     id="layer6"
     inkscape:label="A-0040"
     style="display:none">
    <path
       id="path1321"
       style="fill:#ffffff;stroke:#ff00ff;stroke-width:1"
       d="m 192.093,172 c 0,2.261 -1.832,4.093 -4.093,4.093 -2.261,0 -4.093,-1.832 -4.093,-4.093 0,-2.261 1.832,-4.093 4.093,-4.093 2.261,0 4.093,1.832 4.093,4.093 z"
       sodipodi:nodetypes="sssss" />
  </g>
</svg>
