<?xml version="1.0" encoding="UTF-8" standalone="no"?>
<svg
   xmlns:dc="http://purl.org/dc/elements/1.1/"
   xmlns:cc="http://creativecommons.org/ns#"
   xmlns:rdf="http://www.w3.org/1999/02/22-rdf-syntax-ns#"
   xmlns:svg="http://www.w3.org/2000/svg"
   xmlns="http://www.w3.org/2000/svg"
   xmlns:sodipodi="http://sodipodi.sourceforge.net/DTD/sodipodi-0.dtd"
   xmlns:inkscape="http://www.inkscape.org/namespaces/inkscape"
   width="2560"
   height="1440"
   version="1.1"
   id="svg8"
   inkscape:version="1.0beta2 (2b71d25, 2019-12-03)"
   sodipodi:docname="testbild.svg">
  <defs
     id="defs2" />
  <sodipodi:namedview
     inkscape:guide-bbox="true"
     showguides="true"
     id="base"
     pagecolor="#ffffff"
     bordercolor="#666666"
     borderopacity="1.0"
     inkscape:pageopacity="0.0"
     inkscape:pageshadow="2"
     inkscape:zoom="1.1047274"
     inkscape:cx="1774.3289"
     inkscape:cy="879.72503"
     inkscape:document-units="px"
     inkscape:current-layer="layer2"
     inkscape:document-rotation="0"
     showgrid="false"
     units="px"
     inkscape:window-width="1543"
     inkscape:window-height="1189"
     inkscape:window-x="515"
     inkscape:window-y="67"
     inkscape:window-maximized="0" />
  <metadata
     id="metadata5">
    <rdf:RDF>
      <cc:Work
         rdf:about="">
        <dc:format>image/svg+xml</dc:format>
        <dc:type
           rdf:resource="http://purl.org/dc/dcmitype/StillImage" />
        <dc:title></dc:title>
      </cc:Work>
    </rdf:RDF>
  </metadata>
  <g
     sodipodi:insensitive="true"
     style="display:inline"
     inkscape:label="XX_Referenz"
     inkscape:groupmode="layer"
     id="layer1">
    <path
       id="rect852-0"
       style="display:inline;fill:#ffd5d5;stroke:none;stroke-width:0.999998px"
       d="M 800,120 H 2480 V 1320 H 800 Z"
       inkscape:connector-curvature="0" />
  </g>
  <g
     inkscape:groupmode="layer"
     id="layer2"
     inkscape:label="testbild"
     style="display:inline">
    <path
       inkscape:connector-curvature="0"
       d="m 1680.5,200.5 h 399 v 399 h -399 z"
       style="fill:none;stroke:#000000;stroke-width:1px"
       id="rect852" />
    <path
       sodipodi:nodetypes="ccccc"
       id="path923"
       style="fill:none;stroke:#000000;stroke-width:1px"
       d="m 1680.5,660.5 h 119 v 119 h -119 z"
       inkscape:connector-curvature="0" />
    <path
       inkscape:connector-curvature="0"
       d="m 1700.5,680.5 h 79 v 79 h -79 z"
       style="fill:none;stroke:#000000;stroke-width:1px"
       id="path938"
       sodipodi:nodetypes="ccccc" />
    <path
       sodipodi:nodetypes="ccccc"
       id="path940"
       style="fill:none;stroke:#000000;stroke-width:1px"
       d="m 1720.5,700.5 h 39 v 39 h -39 z"
       inkscape:connector-curvature="0" />
    <path
       id="path932"
       d="m 1969,676.5 c -54.9484,0 -99.5,44.55159 -99.5,99.5 0,54.9484 44.5516,99.5 99.5,99.5 54.9484,0 99.5,-44.5516 99.5,-99.5 0,-54.94841 -44.5516,-99.5 -99.5,-99.5 z"
       style="fill:none;stroke:#000000;stroke-width:1px" />
    <path
       inkscape:connector-curvature="0"
       style="fill:none;stroke:#000000;stroke-width:0.999998px"
       d="m 1969,696.5 c -43.9035,0 -79.5,35.59649 -79.5,79.5 0,43.90349 35.5965,79.5 79.5,79.5 43.9035,0 79.5,-35.59651 79.5,-79.5 0,-43.90351 -35.5965,-79.5 -79.5,-79.5 z"
       id="path942" />
    <path
       inkscape:connector-curvature="0"
       style="fill:none;stroke:#000000;stroke-width:1px"
       d="m 1969,716.5 c -32.8586,0 -59.5,26.6414 -59.5,59.5 0,32.85859 26.6414,59.5 59.5,59.5 32.8586,0 59.5,-26.64141 59.5,-59.5 0,-32.8586 -26.6414,-59.5 -59.5,-59.5 z"
       id="path944" />
    <path
       id="path946"
       d="m 1969,752.5 c -12.9778,0 -23.5,10.52224 -23.5,23.5 0,12.97776 10.5222,23.5 23.5,23.5 12.9777,0 23.5,-10.52224 23.5,-23.5 0,-12.97776 -10.5223,-23.5 -23.5,-23.5 z"
       style="fill:none;stroke:#000000;stroke-width:0.999998px"
       inkscape:connector-curvature="0" />
  </g>
</svg>
