<?xml version="1.0" encoding="UTF-8" standalone="no"?>
<!-- CLEANED: 1515891167/50c46177d74036c4e310dee02e6d6b9a -->
<!-- Created with Inkscape (http://www.inkscape.org/) -->
<svg
   xmlns:dc="http://purl.org/dc/elements/1.1/"
   xmlns:cc="http://creativecommons.org/ns#"
   xmlns:rdf="http://www.w3.org/1999/02/22-rdf-syntax-ns#"
   xmlns:svg="http://www.w3.org/2000/svg"
   xmlns="http://www.w3.org/2000/svg"
   xmlns:xlink="http://www.w3.org/1999/xlink"
   xmlns:sodipodi="http://sodipodi.sourceforge.net/DTD/sodipodi-0.dtd"
   xmlns:inkscape="http://www.inkscape.org/namespaces/inkscape"
   id="svg2"
   version="1.1"
   inkscape:version="0.48.3.1 r9886"
   width="240"
   height="160"
   sodipodi:docname="applications-office-texteditor-sibosiena-1-1.svg">
  <metadata
     id="metadata8">
    <rdf:RDF>
      <cc:Work
         rdf:about="">
        <dc:format>image/svg+xml</dc:format>
        <dc:type
           rdf:resource="http://purl.org/dc/dcmitype/StillImage" />
        <dc:title />
      </cc:Work>
    </rdf:RDF>
  </metadata>
  <defs
     id="defs6" />
  <sodipodi:namedview
     pagecolor="#ffffff"
     bordercolor="#666666"
     borderopacity="1"
     objecttolerance="10"
     gridtolerance="10"
     guidetolerance="10"
     inkscape:pageopacity="0"
     inkscape:pageshadow="2"
     id="namedview4"
     showgrid="false" />
  <g
     inkscape:groupmode="layer"
     id="layer1"
     inkscape:label="XX_SRC"
     style="display:inline"
     sodipodi:insensitive="true">
    <image
       xlink:href="../../../src/incoming/2018/guidebookgallery/applications-office-texteditor-sibosiena-1-1.png"
       checksum="98faf01fa610710c"
       y="0"
       x="0"
       id="image10"
       height="160"
       width="240" />
  </g>
  <g
     inkscape:groupmode="layer"
     id="layer2"
     inkscape:label="XX_TRACE"
     style="display:inline"
     sodipodi:insensitive="true">
    <path
       style="fill:#b2b2b2;fill-opacity:1;fill-rule:nonzero;stroke:none"
       d="m 0,0 0,2 1,0 0,156 -1,0 0,2 2,0 0,-1 200,0 0,1 5,0 0,-1 31,0 0,1 2,0 0,-2 -1,0 0,-118 -33,0 0,118 -1,0 0,-156 1,0 0,9 33,0 0,-9 1,0 0,-2 -2,0 0,1 -31,0 0,-1 -5,0 0,1 L 2,1 2,0 0,0"
       id="path12" />
    <path
       style="fill:#000000;fill-opacity:1;fill-rule:nonzero;stroke:none"
       d="M 2,0 2,1 202,1 202,0 2,0"
       id="path3103" />
    <path
       style="fill:#000000;fill-opacity:1;fill-rule:nonzero;stroke:none"
       d="m 207,0 0,1 31,0 0,-1 -31,0"
       id="path3101" />
    <path
       style="fill:#000000;fill-opacity:1;fill-rule:nonzero;stroke:none"
       d="M 1,1 1,2 2,2 2,1 1,1"
       id="path3099" />
    <path
       style="fill:#000000;fill-opacity:1;fill-rule:nonzero;stroke:none"
       d="m 202,1 0,1 1,0 0,156 -1,0 0,1 1,0 0,-1 1,0 0,-156 -1,0 0,-1 -1,0"
       id="path3097" />
    <path
       style="fill:#000000;fill-opacity:1;fill-rule:nonzero;stroke:none"
       d="m 206,1 0,1 1,0 0,-1 -1,0"
       id="path3095" />
    <path
       style="fill:#000000;fill-opacity:1;fill-rule:nonzero;stroke:none"
       d="m 238,1 0,1 1,0 0,-1 -1,0"
       id="path3093" />
    <path
       style="fill:#000000;fill-opacity:1;fill-rule:nonzero;stroke:none"
       d="M 0,2 0,158 1,158 1,2 0,2"
       id="path3091" />
    <path
       style="fill:#000000;fill-opacity:1;fill-rule:nonzero;stroke:none"
       d="m 205,2 0,156 1,0 0,-118 33,0 0,118 1,0 0,-156 -1,0 0,9 -33,0 0,-9 -1,0 z m 1,10 33,0 0,9 -33,0 0,-9 z m 2,10 1,0 0,1 1,0 0,1 1,0 0,2 1,0 0,-4 1,0 0,7 -1,0 0,-2 -1,0 0,-1 -1,0 0,-2 -1,0 0,5 -1,0 0,-7 z m 7,2 3,0 0,1 1,0 0,3 -1,0 0,1 -3,0 0,-1 -1,0 0,-3 1,0 0,-1 z m 5,0 1,0 0,1 1,0 0,-1 2,0 0,1 1,0 0,1 -1,0 0,-1 -2,0 0,1 -1,0 0,3 -1,0 0,-5 z m 6,0 2,0 0,1 1,0 0,-1 1,0 0,1 1,0 0,4 -1,0 0,-4 -1,0 0,2 -1,0 0,-2 -1,0 0,4 -1,0 0,-5 z m -20,6 33,0 0,9 -33,0 0,-9 z"
       id="path3089" />
    <path
       style="fill:#000000;fill-opacity:1;fill-rule:nonzero;stroke:none"
       d="m 208,2 0,6 1,0 0,1 2,0 0,-1 1,0 0,1 2,0 0,-1 1,0 0,-6 -2,0 0,6 -1,0 0,-2 -1,0 0,2 -1,0 0,-6 -2,0"
       id="path3087" />
    <path
       style="fill:#000000;fill-opacity:1;fill-rule:nonzero;stroke:none"
       d="m 234,2 0,3 -1,0 0,1 1,0 0,2 -2,0 0,-3 1,0 0,-1 -2,0 0,1 -1,0 0,3 1,0 0,1 5,0 0,-7 -2,0 z"
       id="path3085" />
    <path
       style="fill:#000000;fill-opacity:1;fill-rule:nonzero;stroke:none"
       d="m 217,4 0,1 -1,0 0,3 1,0 0,1 4,0 0,-1 1,0 0,-3 -1,0 0,-1 -4,0 z m 1,1 2,0 0,3 -2,0 0,-3 z"
       id="path3083" />
    <path
       style="fill:#000000;fill-opacity:1;fill-rule:nonzero;stroke:none"
       d="m 223,4 0,5 2,0 0,-3 1,0 0,-1 1,0 0,1 2,0 0,-1 -1,0 0,-1 -2,0 0,1 -1,0 0,-1 -2,0"
       id="path14" />
    <path
       style="fill:#000000;fill-opacity:1;fill-rule:nonzero;stroke:none"
       d="m 5,6 0,7 1,0 0,-1 1,0 0,-1 1,0 0,-1 1,0 L 9,9 8,9 8,8 7,8 7,7 6,7 6,6 5,6"
       id="path18" />
    <path
       style="fill:#000000;fill-opacity:1;fill-rule:nonzero;stroke:none"
       d="m 222,13 0,1 -1,0 0,1 -1,0 0,1 -1,0 0,1 1,0 0,1 1,0 0,1 1,0 0,1 1,0 0,-1 1,0 0,-1 1,0 0,-1 1,0 0,-1 -1,0 0,-1 -1,0 0,-1 -1,0 0,-1 -1,0"
       id="path22" />
    <path
       style="fill:#000000;fill-opacity:1;fill-rule:nonzero;stroke:none"
       d="m 215,25 0,3 3,0 0,-3 -3,0"
       id="path26" />
    <path
       style="fill:#000000;fill-opacity:1;fill-rule:nonzero;stroke:none"
       d="m 209,31 0,1 3,0 0,-1 -3,0 z m 3,1 0,5 1,0 0,-5 -1,0 z m 0,5 -3,0 0,1 3,0 0,-1 z m -3,0 0,-5 -1,0 0,5 1,0 z"
       id="path3057" />
    <path
       style="fill:#000000;fill-opacity:1;fill-rule:nonzero;stroke:none"
       d="m 221,31 0,2 -1,0 0,1 1,0 0,3 1,0 0,1 1,0 0,-1 1,0 0,-1 -1,0 0,1 -1,0 0,-3 1,0 0,-1 -1,0 0,-2 -1,0"
       id="path3055" />
    <path
       style="fill:#000000;fill-opacity:1;fill-rule:nonzero;stroke:none"
       d="m 225,31 0,1 1,0 0,5 -1,0 0,1 3,0 0,-1 -1,0 0,-6 -2,0"
       id="path30" />
    <path
       style="fill:#000000;fill-opacity:1;fill-rule:nonzero;stroke:none"
       d="m 214,33 0,4 1,0 0,1 2,0 0,-1 1,0 0,1 1,0 0,-5 -1,0 0,3 -1,0 0,1 -2,0 0,-4 -1,0"
       id="path3049" />
    <path
       style="fill:#000000;fill-opacity:1;fill-rule:nonzero;stroke:none"
       d="m 213,125 0,1 2,0 0,6 -2,0 0,1 -1,0 0,6 1,0 0,1 3,0 0,-1 -2,0 0,-6 2,0 0,-1 1,0 0,-6 -1,0 0,-1 -3,0"
       id="path3047" />
    <path
       style="fill:#000000;fill-opacity:1;fill-rule:nonzero;stroke:none"
       d="m 223,125 0,1 2,0 0,6 -2,0 0,1 -1,0 0,6 1,0 0,1 3,0 0,-1 -2,0 0,-6 2,0 0,-1 1,0 0,-6 -1,0 0,-1 -3,0"
       id="path3045" />
    <path
       style="fill:#000000;fill-opacity:1;fill-rule:nonzero;stroke:none"
       d="m 229,125 0,1 -1,0 0,6 1,0 0,1 -1,0 0,6 1,0 0,1 3,0 0,-1 1,0 0,-6 -1,0 0,-1 -2,0 0,-5 1,0 0,-1 1,0 0,-1 -3,0 z m 1,8 1,0 0,5 -1,0 0,-5 z"
       id="path34" />
    <path
       style="fill:#000000;fill-opacity:1;fill-rule:nonzero;stroke:none"
       d="m 214,147 0,1 -1,0 0,1 1,0 0,4 -1,0 0,1 3,0 0,-1 -1,0 0,-6 -1,0"
       id="path3039" />
    <path
       style="fill:#000000;fill-opacity:1;fill-rule:nonzero;stroke:none"
       d="m 219,147 0,1 3,0 0,-1 -3,0 z m 3,1 0,2 1,0 0,-2 -1,0 z m 0,2 -3,0 0,1 3,0 0,-1 z m 0,1 0,2 1,0 0,-2 -1,0 z m 0,2 -3,0 0,1 3,0 0,-1 z m -3,0 0,-2 -1,0 0,2 1,0 z m 0,-3 0,-2 -1,0 0,2 1,0 z"
       id="path3037" />
    <path
       style="fill:#000000;fill-opacity:1;fill-rule:nonzero;stroke:none"
       d="m 225,147 0,2 -1,0 0,1 1,0 0,3 1,0 0,1 1,0 0,-1 1,0 0,-1 -1,0 0,1 -1,0 0,-3 1,0 0,-1 -1,0 0,-2 -1,0"
       id="path3035" />
    <path
       style="fill:#000000;fill-opacity:1;fill-rule:nonzero;stroke:none"
       d="m 229,147 0,7 1,0 0,-3 1,0 0,-1 2,0 0,4 1,0 0,-4 -1,0 0,-1 -2,0 0,1 -1,0 0,-3 -1,0"
       id="path38" />
    <path
       style="fill:#000000;fill-opacity:1;fill-rule:nonzero;stroke:none"
       d="m 1,158 0,1 1,0 0,-1 -1,0"
       id="path3027" />
    <path
       style="fill:#000000;fill-opacity:1;fill-rule:nonzero;stroke:none"
       d="m 206,158 0,1 1,0 0,-1 -1,0"
       id="path3025" />
    <path
       style="fill:#000000;fill-opacity:1;fill-rule:nonzero;stroke:none"
       d="m 238,158 0,1 1,0 0,-1 -1,0"
       id="path3023" />
    <path
       style="fill:#000000;fill-opacity:1;fill-rule:nonzero;stroke:none"
       d="m 2,159 0,1 200,0 0,-1 -200,0"
       id="path3021" />
    <path
       style="fill:#000000;fill-opacity:1;fill-rule:nonzero;stroke:none"
       d="m 207,159 0,1 31,0 0,-1 -31,0"
       id="path42" />
  </g>
</svg>
