<?xml version="1.0" encoding="UTF-8" standalone="no"?>
<!-- CLEANED: 1515889880/4899455e77e375bc24648bb18a437cc5 -->
<!-- Created with Inkscape (http://www.inkscape.org/) -->
<svg
   xmlns:dc="http://purl.org/dc/elements/1.1/"
   xmlns:cc="http://creativecommons.org/ns#"
   xmlns:rdf="http://www.w3.org/1999/02/22-rdf-syntax-ns#"
   xmlns:svg="http://www.w3.org/2000/svg"
   xmlns="http://www.w3.org/2000/svg"
   xmlns:xlink="http://www.w3.org/1999/xlink"
   xmlns:sodipodi="http://sodipodi.sourceforge.net/DTD/sodipodi-0.dtd"
   xmlns:inkscape="http://www.inkscape.org/namespaces/inkscape"
   id="svg2"
   version="1.1"
   inkscape:version="0.48.3.1 r9886"
   width="544"
   height="114"
   sodipodi:docname="applications-office-texteditor-lisaos31.svg">
  <metadata
     id="metadata8">
    <rdf:RDF>
      <cc:Work
         rdf:about="">
        <dc:format>image/svg+xml</dc:format>
        <dc:type
           rdf:resource="http://purl.org/dc/dcmitype/StillImage" />
        <dc:title />
      </cc:Work>
    </rdf:RDF>
  </metadata>
  <defs
     id="defs6" />
  <sodipodi:namedview
     pagecolor="#ffffff"
     bordercolor="#666666"
     borderopacity="1"
     objecttolerance="10"
     gridtolerance="10"
     guidetolerance="10"
     inkscape:pageopacity="0"
     inkscape:pageshadow="2"
     id="namedview4"
     showgrid="false" />
  <g
     inkscape:groupmode="layer"
     id="layer1"
     inkscape:label="XX_SRC"
     style="display:inline"
     sodipodi:insensitive="true">
    <image
       xlink:href="../../../src/incoming/2018/guidebookgallery/applications-office-texteditor-lisaos31.png"
       checksum="8bea7b4d23609215"
       y="0"
       x="0"
       id="image10"
       height="114"
       width="544" />
  </g>
  <g
     inkscape:groupmode="layer"
     id="layer2"
     inkscape:label="XX_COVER"
     sodipodi:insensitive="true">
    <path
       style="color:#000000;fill:#ffffff;fill-opacity:1;fill-rule:nonzero;stroke:none;stroke-width:0;marker:none;visibility:visible;display:inline;overflow:visible;enable-background:accumulate"
       d="m 30,98 465,0 0,14 -465,0 z"
       id="rect2984"
       sodipodi:nodetypes="ccccc" />
    <path
       sodipodi:nodetypes="ccccc"
       id="path2987"
       d="m 519,51 22,0 0,31 -22,0 z"
       style="color:#000000;fill:#ffffff;fill-opacity:1;fill-rule:nonzero;stroke:none;stroke-width:0;marker:none;visibility:visible;display:inline;overflow:visible;enable-background:accumulate" />
  </g>
  <g
     inkscape:groupmode="layer"
     id="layer3"
     inkscape:label="XX_TRACE"
     style="display:inline"
     sodipodi:insensitive="true">
    <path
       style="fill:#ffffff;fill-opacity:1;fill-rule:nonzero;stroke:none;display:inline"
       d="M 1,113 542,113 542,1 1,1 z"
       id="path26"
       sodipodi:nodetypes="ccccc" />
    <path
       style="fill:#000000;fill-opacity:1;fill-rule:nonzero;stroke:none"
       d="M 0,0 0,114 544,114 544,0 0,0 z M 1,1 143,1 143,15 1,15 1,1 z m 143,0 1,0 0,14 -1,0 0,-14 z m 2,0 1,0 0,14 -1,0 0,-14 z m 2,0 1,0 0,14 -1,0 0,-14 z m 3,0 1,0 0,14 -1,0 0,-14 z m 4,0 1,0 0,14 -1,0 0,-14 z m 5,0 1,0 0,14 -1,0 0,-14 z m 175,0 1,0 0,14 -1,0 0,-14 z m 5,0 1,0 0,14 -1,0 0,-14 z m 4,0 1,0 0,14 -1,0 0,-14 z m 3,0 1,0 0,14 -1,0 0,-14 z m 2,0 1,0 0,14 -1,0 0,-14 z m 2,0 1,0 0,14 -1,0 0,-14 z m 2,0 188,0 0,14 -188,0 0,-14 z m -186,3 2,0 0,7 4,0 0,1 -6,0 0,-8 z m 8,0 2,0 0,1 -2,0 0,-1 z m 18,0 2,0 0,5 1,0 0,-1 1,0 0,-1 1,0 0,-1 2,0 0,3 1,0 0,-1 1,0 0,-1 1,0 0,-1 1,0 0,-1 1,0 0,-1 2,0 0,1 -1,0 0,1 2,0 0,1 1,0 0,-1 3,0 0,1 -3,0 0,1 -1,0 0,4 -2,0 0,-6 -1,0 0,1 -1,0 0,1 -1,0 0,1 -1,0 0,1 -1,0 0,1 -1,0 0,1 -2,0 0,-3 -1,0 0,1 -1,0 0,1 -1,0 0,1 -2,0 0,-8 z m 21,0 2,0 0,1 -2,0 0,-1 z m 4,0 2,0 0,2 3,0 0,1 -3,0 0,4 3,0 0,1 -4,0 0,-1 -1,0 0,-7 z m 21,0 7,0 0,1 1,0 0,3 -1,0 0,1 -5,0 0,3 -2,0 0,-8 z m 49,0 5,0 0,1 1,0 0,6 -1,0 0,1 -5,0 0,-1 -1,0 0,-6 1,0 0,-1 z m 9,0 4,0 0,7 2,0 0,1 -6,0 0,-1 2,0 0,-6 -2,0 0,-1 z m 11,0 2,0 0,2 -1,0 0,2 -1,0 0,2 -1,0 0,2 -2,0 0,-2 1,0 0,-2 1,0 0,-2 1,0 0,-2 z m 5,0 5,0 0,1 1,0 0,6 -1,0 0,1 -5,0 0,-1 -1,0 0,-6 1,0 0,-1 z m 9,0 4,0 0,7 2,0 0,1 -6,0 0,-1 2,0 0,-6 -2,0 0,-1 z m -147,2 2,0 0,6 -2,0 0,-6 z m 5,0 4,0 0,1 -3,0 0,1 1,0 0,1 1,0 0,1 1,0 0,1 -1,0 0,1 -4,0 0,-1 3,0 0,-1 -1,0 0,-1 -1,0 0,-1 -1,0 0,-1 1,0 0,-1 z m 6,0 5,0 0,1 1,0 0,5 -6,0 0,-1 -1,0 0,-2 1,0 0,-1 4,0 0,-1 -4,0 0,-1 z m 28,0 2,0 0,6 -2,0 0,-6 z m 11,0 5,0 0,1 1,0 0,2 -5,0 0,2 4,0 0,1 -5,0 0,-1 -1,0 0,-4 1,0 0,-1 z m 24,0 5,0 0,1 1,0 0,5 -6,0 0,-1 -1,0 0,-2 1,0 0,-1 4,0 0,-1 -4,0 0,-1 z m 7,0 6,0 0,1 1,0 0,4 -1,0 0,1 -4,0 0,2 -2,0 0,-8 z m 9,0 5,0 0,1 1,0 0,2 -5,0 0,2 4,0 0,1 -5,0 0,-1 -1,0 0,-4 1,0 0,-1 z m 7,0 2,0 0,1 1,0 0,-1 3,0 0,1 -3,0 0,1 -1,0 0,4 -2,0 0,-6 z M 1,16 518,16 518,97 1,97 1,16 z m 518,4 22,0 0,14 -22,0 0,-14 z m 1,16 20,0 0,14 -20,0 0,-14 z m -1,15 22,0 0,31 -22,0 0,-31 z m 0,32 22,0 0,14 -22,0 0,-14 z m -22.9375,14.9375 22,0 0,14 -22,0 0,-14 z M 7,98 l 22,0 0,14 -22,0 0,-14 z m 23,0 465,0 0,14 -465,0 0,-14 z m 489,0 22,0 0,14 -22,0 0,-14 z"
       id="path12" />
    <path
       style="fill:#000000;fill-opacity:1;fill-rule:nonzero;stroke:none"
       d="M 8,2 8,14 22,14 22,2 8,2 z M 9,3 21,3 21,4 9,4 9,3 z m 0,2 12,0 0,8 -12,0 0,-8 z"
       id="path16" />
    <path
       style="fill:#000000;fill-opacity:1;fill-rule:nonzero;stroke:none"
       d="m 241,5 0,3 4,0 0,-3 -4,0"
       id="path3120" />
    <path
       style="fill:#000000;fill-opacity:1;fill-rule:nonzero;stroke:none"
       d="m 289,5 0,6 3,0 0,-6 -3,0"
       id="path3118" />
    <path
       style="fill:#000000;fill-opacity:1;fill-rule:nonzero;stroke:none"
       d="m 314,5 0,6 3,0 0,-6 -3,0"
       id="path3116" />
    <path
       style="fill:#000000;fill-opacity:1;fill-rule:nonzero;stroke:none"
       d="m 17,6 0,1 1,0 0,-1 -1,0"
       id="path3114" />
    <path
       style="fill:#000000;fill-opacity:1;fill-rule:nonzero;stroke:none"
       d="m 19,6 0,1 1,0 0,-1 -1,0"
       id="path20" />
    <path
       style="fill:#000000;fill-opacity:1;fill-rule:nonzero;stroke:none"
       d="m 10,7 0,1 1,0 0,-1 -1,0"
       id="path3154" />
    <path
       style="fill:#000000;fill-opacity:1;fill-rule:nonzero;stroke:none"
       d="m 12,7 0,1 1,0 0,-1 -1,0"
       id="path3152" />
    <path
       style="fill:#000000;fill-opacity:1;fill-rule:nonzero;stroke:none"
       d="m 226,7 0,1 3,0 0,-1 -3,0"
       id="path3150" />
    <path
       style="fill:#000000;fill-opacity:1;fill-rule:nonzero;stroke:none"
       d="m 258,7 0,4 3,0 0,-4 -3,0"
       id="path3148" />
    <path
       style="fill:#000000;fill-opacity:1;fill-rule:nonzero;stroke:none"
       d="m 266,7 0,1 3,0 0,-1 -3,0"
       id="path3146" />
    <path
       style="fill:#000000;fill-opacity:1;fill-rule:nonzero;stroke:none"
       d="m 10,9 0,1 1,0 0,-1 -1,0 z m 1,1 0,1 1,0 0,-1 -1,0 z m 1,0 1,0 0,-1 -1,0 0,1 z m 1,0 0,1 1,0 0,-1 -1,0 z m 1,0 1,0 0,-1 -1,0 0,1 z m 1,0 0,1 1,0 0,-1 -1,0 z m 1,0 1,0 0,-1 -1,0 0,1 z m 1,0 0,1 1,0 0,-1 -1,0 z m 1,0 1,0 0,-1 -1,0 0,1 z m 1,0 0,1 1,0 0,-1 -1,0 z m -4,1 -1,0 0,1 1,0 0,-1 z m -2,0 -1,0 0,1 1,0 0,-1 z m -2,0 -1,0 0,1 1,0 0,-1 z"
       id="path3144" />
    <path
       style="fill:#000000;fill-opacity:1;fill-rule:nonzero;stroke:none"
       d="m 187,9 0,2 3,0 0,-2 -3,0"
       id="path3142" />
    <path
       style="fill:#000000;fill-opacity:1;fill-rule:nonzero;stroke:none"
       d="m 250,9 0,2 3,0 0,-2 -3,0"
       id="path24" />
    <path
       style="fill:#000000;fill-opacity:1;fill-rule:nonzero;stroke:none"
       d="m 27,18 0,1 3,0 0,7 1,0 0,-7 3,0 0,-1 -7,0"
       id="path3180" />
    <path
       style="fill:#000000;fill-opacity:1;fill-rule:nonzero;stroke:none"
       d="m 36,18 0,8 1,0 0,-4 1,0 0,-1 3,0 0,5 1,0 0,-5 -1,0 0,-1 -3,0 0,1 -1,0 0,-3 -1,0"
       id="path3178" />
    <path
       style="fill:#000000;fill-opacity:1;fill-rule:nonzero;stroke:none"
       d="m 45,18 0,1 1,0 0,-1 -1,0"
       id="path3176" />
    <path
       style="fill:#000000;fill-opacity:1;fill-rule:nonzero;stroke:none"
       d="m 65,18 0,1 1,0 0,-1 -1,0"
       id="path3174" />
    <path
       style="fill:#000000;fill-opacity:1;fill-rule:nonzero;stroke:none"
       d="m 98,18 0,8 7,0 0,-1 -6,0 0,-7 -1,0"
       id="path3172" />
    <path
       style="fill:#000000;fill-opacity:1;fill-rule:nonzero;stroke:none"
       d="m 108,18 0,1 1,0 0,-1 -1,0"
       id="path3170" />
    <path
       style="fill:#000000;fill-opacity:1;fill-rule:nonzero;stroke:none"
       d="m 136,18 0,1 -1,0 0,1 1,0 0,-1 4,0 0,2 -1,0 0,1 -1,0 0,1 -1,0 0,1 -1,0 0,1 -1,0 0,1 6,0 0,-1 -4,0 0,-1 1,0 0,-1 1,0 0,-1 1,0 0,-1 1,0 0,-2 -1,0 0,-1 -4,0"
       id="path3168" />
    <path
       style="fill:#000000;fill-opacity:1;fill-rule:nonzero;stroke:none"
       d="m 147,18 0,2 -1,0 0,2 -1,0 0,2 -1,0 0,2 1,0 0,-2 1,0 0,-2 1,0 0,-2 1,0 0,-2 -1,0"
       id="path3166" />
    <path
       style="fill:#000000;fill-opacity:1;fill-rule:nonzero;stroke:none"
       d="m 154,18 0,1 -2,0 0,1 2,0 0,6 1,0 0,-8 -1,0"
       id="path3164" />
    <path
       style="fill:#000000;fill-opacity:1;fill-rule:nonzero;stroke:none"
       d="m 160,18 0,1 4,0 0,-1 -4,0 z m 4,1 0,6 1,0 0,-6 -1,0 z m 0,6 -4,0 0,1 4,0 0,-1 z m -4,0 0,-6 -1,0 0,6 1,0 z"
       id="path28" />
    <path
       style="fill:#000000;fill-opacity:1;fill-rule:nonzero;stroke:none"
       d="m 45,20 0,6 1,0 0,-6 -1,0"
       id="path3198" />
    <path
       style="fill:#000000;fill-opacity:1;fill-rule:nonzero;stroke:none"
       d="m 49,20 0,1 -1,0 0,1 1,0 0,1 2,0 0,1 2,0 0,1 -4,0 0,-1 -1,0 0,1 1,0 0,1 4,0 0,-1 1,0 0,-1 -1,0 0,-1 -2,0 0,-1 -2,0 0,-1 4,0 0,1 1,0 0,-1 -1,0 0,-1 -4,0"
       id="path3196" />
    <path
       style="fill:#000000;fill-opacity:1;fill-rule:nonzero;stroke:none"
       d="m 65,20 0,6 1,0 0,-6 -1,0"
       id="path3194" />
    <path
       style="fill:#000000;fill-opacity:1;fill-rule:nonzero;stroke:none"
       d="m 69,20 0,1 -1,0 0,1 1,0 0,1 2,0 0,1 2,0 0,1 -4,0 0,-1 -1,0 0,1 1,0 0,1 4,0 0,-1 1,0 0,-1 -1,0 0,-1 -2,0 0,-1 -2,0 0,-1 4,0 0,1 1,0 0,-1 -1,0 0,-1 -4,0"
       id="path3192" />
    <path
       style="fill:#000000;fill-opacity:1;fill-rule:nonzero;stroke:none"
       d="m 84,20 0,1 4,0 0,-1 -4,0 z m 4,1 0,1 -4,0 0,1 4,0 0,1 -1,0 0,1 1,0 0,1 1,0 0,-5 -1,0 z m -1,4 -3,0 0,1 3,0 0,-1 z m -3,0 0,-2 -1,0 0,2 1,0 z"
       id="path3190" />
    <path
       style="fill:#000000;fill-opacity:1;fill-rule:nonzero;stroke:none"
       d="m 108,20 0,6 1,0 0,-6 -1,0"
       id="path3188" />
    <path
       style="fill:#000000;fill-opacity:1;fill-rule:nonzero;stroke:none"
       d="m 112,20 0,1 -1,0 0,1 1,0 0,1 2,0 0,1 2,0 0,1 -4,0 0,-1 -1,0 0,1 1,0 0,1 4,0 0,-1 1,0 0,-1 -1,0 0,-1 -2,0 0,-1 -2,0 0,-1 4,0 0,1 1,0 0,-1 -1,0 0,-1 -4,0"
       id="path3186" />
    <path
       style="fill:#000000;fill-opacity:1;fill-rule:nonzero;stroke:none"
       d="m 120,20 0,1 4,0 0,-1 -4,0 z m 4,1 0,1 -4,0 0,1 4,0 0,1 -1,0 0,1 1,0 0,1 1,0 0,-5 -1,0 z m -1,4 -3,0 0,1 3,0 0,-1 z m -3,0 0,-2 -1,0 0,2 1,0 z"
       id="path32" />
    <path
       style="fill:#000000;fill-opacity:1;fill-rule:nonzero;stroke:none"
       d="m 529,21 0,1 2,0 0,-1 -2,0 z m 2,1 0,1 1,0 0,-1 -1,0 z m 1,1 0,1 1,0 0,-1 -1,0 z m 1,1 0,1 1,0 0,-1 -1,0 z m 1,1 0,1 1,0 0,-1 -1,0 z m 1,1 0,1 1,0 0,-1 -1,0 z m 1,1 0,1 -3,0 0,3 -6,0 0,-3 -3,0 0,-1 -1,0 0,1 -1,0 0,1 2,0 0,1 2,0 0,2 1,0 0,1 9,0 0,-3 2,0 0,-2 -1,0 0,-1 -1,0 z m -12,0 1,0 0,-1 -1,0 0,1 z m 1,-1 1,0 0,-1 -1,0 0,1 z m 1,-1 1,0 0,-1 -1,0 0,1 z m 1,-1 1,0 0,-1 -1,0 0,1 z m 1,-1 1,0 0,-1 -1,0 0,1 z"
       id="path36" />
    <path
       style="fill:#000000;fill-opacity:1;fill-rule:nonzero;stroke:none"
       d="m 525,84 0,3 -4,0 0,1 1,0 0,1 1,0 0,-1 3,0 0,-3 6,0 0,3 3,0 0,1 -1,0 0,1 -1,0 0,1 -1,0 0,1 -1,0 0,1 -1,0 0,1 -2,0 0,1 1,0 0,1 3,0 0,-1 1,0 0,-1 1,0 0,-1 1,0 0,-1 1,0 0,-1 1,0 0,-1 1,0 0,-1 1,0 0,-2 -4,0 0,-2 -2,0 0,-1 -8,0 z m 3,10 0,-1 -1,0 0,1 1,0 z m -1,-1 0,-1 -1,0 0,1 1,0 z m -1,-1 0,-1 -1,0 0,1 1,0 z m -1,-1 0,-1 -1,0 0,1 1,0 z m -1,-1 0,-1 -1,0 0,1 1,0 z"
       id="path40" />
    <path
       style="fill:#000000;fill-opacity:1;fill-rule:nonzero;stroke:none"
       d="m 16,99 0,1 1,0 0,2 6,0 0,5 -6,0 0,2 -1,0 0,1 1,0 0,1 3,0 0,-2 6,0 0,-6 -2,0 0,-2 -6,0 0,-2 -2,0 z m 0,10 0,-1 -1,0 0,1 1,0 z m -1,-1 0,-1 -1,0 0,1 1,0 z m -1,-1 0,-1 -1,0 0,1 1,0 z m -1,-1 0,-1 -1,0 0,1 1,0 z m -1,-1 0,-1 -1,0 0,1 1,0 z m 0,-1 1,0 0,-1 -1,0 0,1 z m 1,-1 1,0 0,-1 -1,0 0,1 z m 1,-1 1,0 0,-1 -1,0 0,1 z m 1,-1 1,0 0,-1 -1,0 0,1 z"
       id="path3232" />
    <path
       style="fill:#000000;fill-opacity:1;fill-rule:nonzero;stroke:none"
       d="m 507,99 0,2 -7,0 0,7 1,0 0,1 6,0 0,2 4,0 0,-1 1,0 0,-1 1,0 0,-1 1,0 0,-1 1,0 0,-2 -1,0 0,-1 -1,0 0,1 -1,0 0,1 -1,0 0,1 -1,0 0,1 -1,0 0,1 -1,0 0,-2 -7,0 0,-5 7,0 0,-2 1,0 0,-1 -2,0 z m 2,1 0,1 1,0 0,-1 -1,0 z m 1,1 0,1 1,0 0,-1 -1,0 z m 1,1 0,1 1,0 0,-1 -1,0 z m 1,1 0,1 1,0 0,-1 -1,0 z"
       id="path3230" />
    <path
       style="fill:#000000;fill-opacity:1;fill-rule:nonzero;stroke:none"
       d="m 521,99 0,12 18,0 0,-12 -18,0 z m 1,1 7,0 0,4 -7,0 0,-4 z m 8,0 8,0 0,10 -16,0 0,-5 8,0 0,-5 z"
       id="path44" />
    <path
       style="fill:#000000;fill-opacity:1;fill-rule:nonzero;stroke:none"
       d="m 531,105 0,1 1,0 0,1 1,0 0,1 -1,0 0,1 4,0 0,-3 -1,0 0,1 -1,0 0,-1 -1,0 0,-1 -2,0"
       id="path48" />
  </g>
</svg>
