<?xml version="1.0" encoding="UTF-8" standalone="no"?>
<!-- CLEANED: 1515886476/b0fedaf5c903cc50e2a2f755a2ec4ef5 -->
<!-- Created with Inkscape (http://www.inkscape.org/) -->
<svg
   xmlns:dc="http://purl.org/dc/elements/1.1/"
   xmlns:cc="http://creativecommons.org/ns#"
   xmlns:rdf="http://www.w3.org/1999/02/22-rdf-syntax-ns#"
   xmlns:svg="http://www.w3.org/2000/svg"
   xmlns="http://www.w3.org/2000/svg"
   xmlns:xlink="http://www.w3.org/1999/xlink"
   xmlns:sodipodi="http://sodipodi.sourceforge.net/DTD/sodipodi-0.dtd"
   xmlns:inkscape="http://www.inkscape.org/namespaces/inkscape"
   id="svg2"
   version="1.1"
   inkscape:version="0.48.3.1 r9886"
   width="180"
   height="204"
   sodipodi:docname="applications-office-clock-irix53-1-1.svg">
  <metadata
     id="metadata8">
    <rdf:RDF>
      <cc:Work
         rdf:about="">
        <dc:format>image/svg+xml</dc:format>
        <dc:type
           rdf:resource="http://purl.org/dc/dcmitype/StillImage" />
        <dc:title />
      </cc:Work>
    </rdf:RDF>
  </metadata>
  <defs
     id="defs6" />
  <sodipodi:namedview
     pagecolor="#ffffff"
     bordercolor="#666666"
     borderopacity="1"
     objecttolerance="10"
     gridtolerance="10"
     guidetolerance="10"
     inkscape:pageopacity="0"
     inkscape:pageshadow="2"
     id="namedview4"
     showgrid="false" />
  <g
     inkscape:groupmode="layer"
     id="layer1"
     inkscape:label="XX_SRC"
     style="display:inline"
     sodipodi:insensitive="true">
    <image
       xlink:href="../../../src/incoming/2018/guidebookgallery/applications-office-clock-irix53-1-1.png"
       checksum="edc047684bba83c7"
       y="0"
       x="0"
       id="image10"
       height="204"
       width="180" />
  </g>
  <g
     inkscape:groupmode="layer"
     id="layer2"
     inkscape:label="XX_COVER"
     style="display:inline"
     sodipodi:insensitive="true">
    <path
       style="color:#000000;fill:#dad7ca;fill-opacity:1;fill-rule:nonzero;stroke:none;stroke-width:0;marker:none;visibility:visible;display:inline;overflow:visible;enable-background:accumulate"
       d="M 1,1 4,1 4,31 1,31 z"
       id="rect2984"
       sodipodi:nodetypes="ccccc" />
    <path
       sodipodi:nodetypes="ccccc"
       id="path2987"
       d="M 1,1 31,1 31,3 1,3 z"
       style="color:#000000;fill:#dad7ca;fill-opacity:1;fill-rule:nonzero;stroke:none;stroke-width:0;marker:none;visibility:visible;display:inline;overflow:visible;enable-background:accumulate" />
    <path
       sodipodi:nodetypes="ccccc"
       id="path2989"
       d="m 1,32 3,0 0,139 -3,0 z"
       style="color:#000000;fill:#dad7ca;fill-opacity:1;fill-rule:nonzero;stroke:none;stroke-width:0;marker:none;visibility:visible;display:inline;overflow:visible;enable-background:accumulate" />
    <path
       style="color:#000000;fill:#dad7ca;fill-opacity:1;fill-rule:nonzero;stroke:none;stroke-width:0;marker:none;visibility:visible;display:inline;overflow:visible;enable-background:accumulate"
       d="m 1,172 3,0 0,31 -3,0 z"
       id="path2991"
       sodipodi:nodetypes="ccccc" />
    <path
       sodipodi:nodetypes="ccccc"
       id="path2993"
       d="M 4,3 7,3 7,31 4,31 z"
       style="color:#000000;fill:#a59f80;fill-opacity:1;fill-rule:nonzero;stroke:none;stroke-width:0;marker:none;visibility:visible;display:inline;overflow:visible;enable-background:accumulate" />
    <path
       style="color:#000000;fill:#a59f80;fill-opacity:1;fill-rule:nonzero;stroke:none;stroke-width:0;marker:none;visibility:visible;display:inline;overflow:visible;enable-background:accumulate"
       d="M 4,3 31,3 31,7 4,7 z"
       id="path2995"
       sodipodi:nodetypes="ccccc" />
    <path
       style="color:#000000;fill:#dad7ca;fill-opacity:1;fill-rule:nonzero;stroke:none;stroke-width:0;marker:none;visibility:visible;display:inline;overflow:visible;enable-background:accumulate"
       d="M 32,1 147,1 147,3 32,3 z"
       id="path2997"
       sodipodi:nodetypes="ccccc" />
    <path
       sodipodi:nodetypes="ccccc"
       id="path2999"
       d="M 32,3 147,3 147,7 32,7 z"
       style="color:#000000;fill:#a59f80;fill-opacity:1;fill-rule:nonzero;stroke:none;stroke-width:0;marker:none;visibility:visible;display:inline;overflow:visible;enable-background:accumulate" />
    <path
       style="color:#000000;fill:#a59f80;fill-opacity:1;fill-rule:nonzero;stroke:none;stroke-width:0;marker:none;visibility:visible;display:inline;overflow:visible;enable-background:accumulate"
       d="m 4,32 3,0 0,139 -3,0 z"
       id="path3001"
       sodipodi:nodetypes="ccccc" />
    <path
       sodipodi:nodetypes="ccccc"
       id="path3003"
       d="m 4,172 3,0 0,31 -3,0 z"
       style="color:#000000;fill:#a59f80;fill-opacity:1;fill-rule:nonzero;stroke:none;stroke-width:0;marker:none;visibility:visible;display:inline;overflow:visible;enable-background:accumulate" />
    <path
       sodipodi:nodetypes="ccccc"
       id="path3005"
       d="m 148,1 30,0 0,2 -30,0 z"
       style="color:#000000;fill:#dad7ca;fill-opacity:1;fill-rule:nonzero;stroke:none;stroke-width:0;marker:none;visibility:visible;display:inline;overflow:visible;enable-background:accumulate" />
    <path
       style="color:#000000;fill:#a59f80;fill-opacity:1;fill-rule:nonzero;stroke:none;stroke-width:0;marker:none;visibility:visible;display:inline;overflow:visible;enable-background:accumulate"
       d="m 148,3 29,0 0,4 -29,0 z"
       id="path3007"
       sodipodi:nodetypes="ccccc" />
    <path
       sodipodi:nodetypes="ccccc"
       id="path3009"
       d="m 176,3 2,0 0,28 -2,0 z"
       style="color:#000000;fill:#a59f80;fill-opacity:1;fill-rule:nonzero;stroke:none;stroke-width:0;marker:none;visibility:visible;display:inline;overflow:visible;enable-background:accumulate" />
    <path
       style="color:#000000;fill:#dad7ca;fill-opacity:1;fill-rule:nonzero;stroke:none;stroke-width:0;marker:none;visibility:visible;display:inline;overflow:visible;enable-background:accumulate"
       d="m 173,7 3,0 0,24 -3,0 z"
       id="path3011"
       sodipodi:nodetypes="ccccc" />
    <path
       style="color:#000000;fill:#5b5746;fill-opacity:1;fill-rule:nonzero;stroke:none;stroke-width:0;marker:none;visibility:visible;display:inline;overflow:visible;enable-background:accumulate"
       d="m 178,1 1,0 0,30 -1,0 z"
       id="path3013"
       sodipodi:nodetypes="ccccc" />
    <path
       sodipodi:nodetypes="ccccc"
       id="path3015"
       d="M 7,6 173,6 173,7 7,7 z"
       style="color:#000000;fill:#5b5746;fill-opacity:1;fill-rule:nonzero;stroke:none;stroke-width:0;marker:none;visibility:visible;display:inline;overflow:visible;enable-background:accumulate" />
    <path
       style="color:#000000;fill:#a59f80;fill-opacity:1;fill-rule:nonzero;stroke:none;stroke-width:0;marker:none;visibility:visible;display:inline;overflow:visible;enable-background:accumulate"
       d="m 176,32 2,0 0,139 -2,0 z"
       id="path3017"
       sodipodi:nodetypes="ccccc" />
    <path
       sodipodi:nodetypes="ccccc"
       id="path3019"
       d="m 173,32 3,0 0,139 -3,0 z"
       style="color:#000000;fill:#dad7ca;fill-opacity:1;fill-rule:nonzero;stroke:none;stroke-width:0;marker:none;visibility:visible;display:inline;overflow:visible;enable-background:accumulate" />
    <path
       sodipodi:nodetypes="ccccc"
       id="path3021"
       d="m 178,32 1,0 0,139 -1,0 z"
       style="color:#000000;fill:#5b5746;fill-opacity:1;fill-rule:nonzero;stroke:none;stroke-width:0;marker:none;visibility:visible;display:inline;overflow:visible;enable-background:accumulate" />
    <path
       style="color:#000000;fill:#5b5746;fill-opacity:1;fill-rule:nonzero;stroke:none;stroke-width:0;marker:none;visibility:visible;display:inline;overflow:visible;enable-background:accumulate"
       d="m 173,31 6,0 0,1 -6,0 z"
       id="path3023"
       sodipodi:nodetypes="ccccc" />
    <path
       sodipodi:nodetypes="ccccc"
       id="path3025"
       d="m 176,172 2,0 0,29 -2,0 z"
       style="color:#000000;fill:#a59f80;fill-opacity:1;fill-rule:nonzero;stroke:none;stroke-width:0;marker:none;visibility:visible;display:inline;overflow:visible;enable-background:accumulate" />
    <path
       style="color:#000000;fill:#dad7ca;fill-opacity:1;fill-rule:nonzero;stroke:none;stroke-width:0;marker:none;visibility:visible;display:inline;overflow:visible;enable-background:accumulate"
       d="m 173,172 3,0 0,27 -3,0 z"
       id="path3027"
       sodipodi:nodetypes="ccccc" />
    <path
       style="color:#000000;fill:#5b5746;fill-opacity:1;fill-rule:nonzero;stroke:none;stroke-width:0;marker:none;visibility:visible;display:inline;overflow:visible;enable-background:accumulate"
       d="m 178,172 1,0 0,31 -1,0 z"
       id="path3029"
       sodipodi:nodetypes="ccccc" />
    <path
       sodipodi:nodetypes="ccccc"
       id="path3031"
       d="m 173,171 6,0 0,1 -6,0 z"
       style="color:#000000;fill:#5b5746;fill-opacity:1;fill-rule:nonzero;stroke:none;stroke-width:0;marker:none;visibility:visible;display:inline;overflow:visible;enable-background:accumulate" />
    <path
       style="color:#000000;fill:#dad7ca;fill-opacity:1;fill-rule:nonzero;stroke:none;stroke-width:0;marker:none;visibility:visible;display:inline;overflow:visible;enable-background:accumulate"
       d="m 7,197 24,0 0,2 -24,0 z"
       id="path3033"
       sodipodi:nodetypes="ccccc" />
    <path
       sodipodi:nodetypes="ccccc"
       id="path3035"
       d="m 4,199 27,0 0,4 -27,0 z"
       style="color:#000000;fill:#a59f80;fill-opacity:1;fill-rule:nonzero;stroke:none;stroke-width:0;marker:none;visibility:visible;display:inline;overflow:visible;enable-background:accumulate" />
    <path
       sodipodi:nodetypes="ccccc"
       id="path3037"
       d="m 32,197 115,0 0,2 -115,0 z"
       style="color:#000000;fill:#dad7ca;fill-opacity:1;fill-rule:nonzero;stroke:none;stroke-width:0;marker:none;visibility:visible;display:inline;overflow:visible;enable-background:accumulate" />
    <path
       style="color:#000000;fill:#a59f80;fill-opacity:1;fill-rule:nonzero;stroke:none;stroke-width:0;marker:none;visibility:visible;display:inline;overflow:visible;enable-background:accumulate"
       d="m 32,199 115,0 0,4 -115,0 z"
       id="path3039"
       sodipodi:nodetypes="ccccc" />
    <path
       style="color:#000000;fill:#dad7ca;fill-opacity:1;fill-rule:nonzero;stroke:none;stroke-width:0;marker:none;visibility:visible;display:inline;overflow:visible;enable-background:accumulate"
       d="m 148,197 28,0 0,2 -28,0 z"
       id="path3041"
       sodipodi:nodetypes="ccccc" />
    <path
       sodipodi:nodetypes="ccccc"
       id="path3043"
       d="m 148,199 30,0 0,4 -30,0 z"
       style="color:#000000;fill:#a59f80;fill-opacity:1;fill-rule:nonzero;stroke:none;stroke-width:0;marker:none;visibility:visible;display:inline;overflow:visible;enable-background:accumulate" />
    <path
       style="color:#000000;fill:#5b5746;fill-opacity:1;fill-rule:nonzero;stroke:none;stroke-width:0;marker:none;visibility:visible;display:inline;overflow:visible;enable-background:accumulate"
       d="m 1,202 178,0 0,1 -178,0 z"
       id="path3045"
       sodipodi:nodetypes="ccccc" />
    <path
       sodipodi:nodetypes="ccccc"
       id="path3047"
       d="m 147,197 1,0 0,6 -1,0 z"
       style="color:#000000;fill:#5b5746;fill-opacity:1;fill-rule:nonzero;stroke:none;stroke-width:0;marker:none;visibility:visible;display:inline;overflow:visible;enable-background:accumulate" />
    <path
       style="color:#000000;fill:#5b5746;fill-opacity:1;fill-rule:nonzero;stroke:none;stroke-width:0;marker:none;visibility:visible;display:inline;overflow:visible;enable-background:accumulate"
       d="m 31,197 1,0 0,6 -1,0 z"
       id="path3049"
       sodipodi:nodetypes="ccccc" />
    <path
       sodipodi:nodetypes="ccccc"
       id="path3051"
       d="m 1,171 6,0 0,1 -6,0 z"
       style="color:#000000;fill:#5b5746;fill-opacity:1;fill-rule:nonzero;stroke:none;stroke-width:0;marker:none;visibility:visible;display:inline;overflow:visible;enable-background:accumulate" />
    <path
       style="color:#000000;fill:#5b5746;fill-opacity:1;fill-rule:nonzero;stroke:none;stroke-width:0;marker:none;visibility:visible;display:inline;overflow:visible;enable-background:accumulate"
       d="m 1,31 6,0 0,1 -6,0 z"
       id="path3053"
       sodipodi:nodetypes="ccccc" />
    <path
       sodipodi:nodetypes="ccccc"
       id="path3055"
       d="m 9,29 23,0 0,2 -23,0 z"
       style="color:#000000;fill:#5b5746;fill-opacity:1;fill-rule:nonzero;stroke:none;stroke-width:0;marker:none;visibility:visible;display:inline;overflow:visible;enable-background:accumulate" />
    <path
       style="color:#000000;fill:#5b5746;fill-opacity:1;fill-rule:nonzero;stroke:none;stroke-width:0;marker:none;visibility:visible;display:inline;overflow:visible;enable-background:accumulate"
       d="m 30,10 2,0 0,21 -2,0 z"
       id="path3057"
       sodipodi:nodetypes="ccccc" />
    <path
       style="color:#000000;fill:#dad7ca;fill-opacity:1;fill-rule:nonzero;stroke:none;stroke-width:0;marker:none;visibility:visible;display:inline;overflow:visible;enable-background:accumulate"
       d="m 8,8 164,0 0,2 -164,0 z"
       id="path3059"
       sodipodi:nodetypes="ccccc" />
    <path
       sodipodi:nodetypes="ccccc"
       id="path3061"
       d="m 8,8 2,0 0,23 -2,0 z"
       style="color:#000000;fill:#dad7ca;fill-opacity:1;fill-rule:nonzero;stroke:none;stroke-width:0;marker:none;visibility:visible;display:inline;overflow:visible;enable-background:accumulate" />
    <path
       style="color:#000000;fill:#5b5746;fill-opacity:1;fill-rule:nonzero;stroke:none;stroke-width:0;marker:none;visibility:visible;display:inline;overflow:visible;enable-background:accumulate"
       d="m 33,29 89,0 0,2 -89,0 z"
       id="path3063"
       sodipodi:nodetypes="ccccc" />
    <path
       style="color:#000000;fill:#dad7ca;fill-opacity:1;fill-rule:nonzero;stroke:none;stroke-width:0;marker:none;visibility:visible;display:inline;overflow:visible;enable-background:accumulate"
       d="m 32,8 2,0 0,23 -2,0 z"
       id="path3065"
       sodipodi:nodetypes="ccccc" />
    <path
       sodipodi:nodetypes="ccccc"
       id="path3067"
       d="m 124,29 48,0 0,2 -48,0 z"
       style="color:#000000;fill:#5b5746;fill-opacity:1;fill-rule:nonzero;stroke:none;stroke-width:0;marker:none;visibility:visible;display:inline;overflow:visible;enable-background:accumulate" />
    <path
       sodipodi:nodetypes="ccccc"
       id="path3069"
       d="m 123,8 2,0 0,23 -2,0 z"
       style="color:#000000;fill:#dad7ca;fill-opacity:1;fill-rule:nonzero;stroke:none;stroke-width:0;marker:none;visibility:visible;display:inline;overflow:visible;enable-background:accumulate" />
    <path
       style="color:#000000;fill:#5b5746;fill-opacity:1;fill-rule:nonzero;stroke:none;stroke-width:0;marker:none;visibility:visible;display:inline;overflow:visible;enable-background:accumulate"
       d="m 121,10 2,0 0,21 -2,0 z"
       id="path3071"
       sodipodi:nodetypes="ccccc" />
    <path
       sodipodi:nodetypes="ccccc"
       id="path3073"
       d="m 146,10 2,0 0,21 -2,0 z"
       style="color:#000000;fill:#5b5746;fill-opacity:1;fill-rule:nonzero;stroke:none;stroke-width:0;marker:none;visibility:visible;display:inline;overflow:visible;enable-background:accumulate" />
    <path
       style="color:#000000;fill:#dad7ca;fill-opacity:1;fill-rule:nonzero;stroke:none;stroke-width:0;marker:none;visibility:visible;display:inline;overflow:visible;enable-background:accumulate"
       d="m 148,8 2,0 0,23 -2,0 z"
       id="path3075"
       sodipodi:nodetypes="ccccc" />
    <path
       sodipodi:nodetypes="ccccc"
       id="path3077"
       d="m 170,10 2,0 0,21 -2,0 z"
       style="color:#000000;fill:#5b5746;fill-opacity:1;fill-rule:nonzero;stroke:none;stroke-width:0;marker:none;visibility:visible;display:inline;overflow:visible;enable-background:accumulate" />
  </g>
  <g
     inkscape:groupmode="layer"
     id="layer3"
     inkscape:label="XX_TRACE"
     sodipodi:insensitive="true">
    <path
       style="fill:#000000;fill-opacity:1;fill-rule:nonzero;stroke:none"
       d="M 0,0 0,204 180,204 180,0 0,0"
       id="path12" />
    <path
       style="fill:#cccccc;fill-opacity:1;fill-rule:nonzero;stroke:none"
       d="M 1,1 1,31 4,31 4,3 31,3 31,1 1,1"
       id="path14" />
    <path
       style="fill:#666633;fill-opacity:1;fill-rule:nonzero;stroke:none"
       d="m 31,1 0,5 -24,0 0,1 166,0 0,-1 -25,0 0,-5 -1,0 0,5 -115,0 0,-5 -1,0"
       id="path16" />
    <path
       style="fill:#cccccc;fill-opacity:1;fill-rule:nonzero;stroke:none"
       d="M 32,1 32,3 147,3 147,1 32,1"
       id="path3079" />
    <path
       style="fill:#cccccc;fill-opacity:1;fill-rule:nonzero;stroke:none"
       d="m 148,1 0,2 30,0 0,-2 -30,0"
       id="path18" />
    <path
       style="fill:#666633;fill-opacity:1;fill-rule:nonzero;stroke:none"
       d="m 178,1 0,30 -5,0 0,1 5,0 0,139 -5,0 0,1 5,0 0,30 -30,0 0,-5 -1,0 0,5 -115,0 0,-5 -1,0 0,5 -30,0 0,1 178,0 0,-202 -1,0"
       id="path20" />
    <path
       style="fill:#999999;fill-opacity:1;fill-rule:nonzero;stroke:none"
       d="M 4,3 4,31 7,31 7,6 31,6 31,3 4,3"
       id="path3087" />
    <path
       style="fill:#999999;fill-opacity:1;fill-rule:nonzero;stroke:none"
       d="M 32,3 32,6 147,6 147,3 32,3"
       id="path3085" />
    <path
       style="fill:#999999;fill-opacity:1;fill-rule:nonzero;stroke:none"
       d="m 148,3 0,3 25,0 0,1 3,0 0,24 2,0 0,-28 -30,0"
       id="path22" />
    <path
       style="fill:#000000;fill-opacity:1;fill-rule:nonzero;stroke:none"
       d="m 7,7 0,25 165,0 0,164 -164,0 0,1 165,0 L 173,7 7,7"
       id="path24" />
    <path
       style="fill:#cccccc;fill-opacity:1;fill-rule:nonzero;stroke:none"
       d="m 173,7 0,24 3,0 0,-24 -3,0"
       id="path3093" />
    <path
       style="fill:#cccccc;fill-opacity:1;fill-rule:nonzero;stroke:none"
       d="m 8,8 0,23 2,0 0,-21 22,0 0,21 2,0 0,-21 89,0 0,21 2,0 0,-21 23,0 0,21 2,0 0,-21 22,0 0,-2 L 8,8"
       id="path26" />
    <path
       style="fill:#999999;fill-opacity:1;fill-rule:nonzero;stroke:none"
       d="m 10,10 0,19 20,0 0,-19 -20,0"
       id="path28" />
    <path
       style="fill:#666633;fill-opacity:1;fill-rule:nonzero;stroke:none"
       d="m 30,10 0,19 -20,0 0,2 22,0 0,-21 -2,0"
       id="path30" />
    <path
       style="fill:#999999;fill-opacity:1;fill-rule:nonzero;stroke:none"
       d="m 34,10 0,19 87,0 0,-19 -87,0"
       id="path32" />
    <path
       style="fill:#666633;fill-opacity:1;fill-rule:nonzero;stroke:none"
       d="m 121,10 0,19 -87,0 0,2 89,0 0,-21 -2,0"
       id="path34" />
    <path
       style="fill:#999999;fill-opacity:1;fill-rule:nonzero;stroke:none"
       d="m 125,10 0,19 21,0 0,-19 -21,0"
       id="path36" />
    <path
       style="fill:#666633;fill-opacity:1;fill-rule:nonzero;stroke:none"
       d="m 146,10 0,19 -21,0 0,2 23,0 0,-21 -2,0"
       id="path38" />
    <path
       style="fill:#999999;fill-opacity:1;fill-rule:nonzero;stroke:none"
       d="m 150,10 0,19 20,0 0,-19 -20,0"
       id="path40" />
    <path
       style="fill:#666633;fill-opacity:1;fill-rule:nonzero;stroke:none"
       d="m 170,10 0,19 -20,0 0,2 22,0 0,-21 -2,0"
       id="path42" />
    <path
       style="fill:#000000;fill-opacity:1;fill-rule:nonzero;stroke:none"
       d="m 153,11 0,16 2,0 0,1 13,0 0,-15 -1,0 0,-2 -14,0 z m 1,1 12,0 0,14 -12,0 0,-14 z"
       id="path3115" />
    <path
       style="fill:#000000;fill-opacity:1;fill-rule:nonzero;stroke:none"
       d="m 63,12 0,2 -1,0 0,3 -1,0 0,4 -1,0 0,2 2,0 0,-2 1,0 0,-4 1,0 0,-3 1,0 0,-2 -2,0"
       id="path3113" />
    <path
       style="fill:#000000;fill-opacity:1;fill-rule:nonzero;stroke:none"
       d="m 83,12 0,2 -1,0 0,4 -1,0 0,3 -1,0 0,2 2,0 0,-2 1,0 0,-2 1,0 0,4 2,0 0,-4 -1,0 0,-1 1,0 0,-1 1,0 0,-1 1,0 0,-1 -2,0 0,1 -1,0 0,1 -1,0 0,-3 1,0 0,-2 -2,0"
       id="path44" />
    <path
       style="fill:#000000;fill-opacity:1;fill-rule:nonzero;stroke:none"
       d="m 46,15 0,2 1,0 0,3 -1,0 0,1 -1,0 0,1 -1,0 0,1 2,0 0,-1 1,0 0,-1 1,0 0,-1 1,0 0,3 2,0 0,-2 -1,0 0,-3 1,0 0,-1 1,0 0,-1 1,0 0,-1 -2,0 0,1 -1,0 0,1 -1,0 0,1 -1,0 0,-3 -2,0"
       id="path3123" />
    <path
       style="fill:#000000;fill-opacity:1;fill-rule:nonzero;stroke:none"
       d="m 55,15 0,1 -1,0 0,1 -1,0 0,2 -1,0 0,3 1,0 0,1 4,0 0,-1 1,0 0,-1 1,0 0,-1 -2,0 0,1 -1,0 0,1 -2,0 0,-3 1,0 0,-2 1,0 0,-1 2,0 0,2 2,0 0,-2 -1,0 0,-1 -4,0"
       id="path3121" />
    <path
       style="fill:#000000;fill-opacity:1;fill-rule:nonzero;stroke:none"
       d="m 67,15 0,1 -1,0 0,1 -1,0 0,2 -1,0 0,3 1,0 0,1 4,0 0,-1 1,0 0,-1 1,0 0,-2 1,0 0,-3 -1,0 0,-1 -4,0 z m 5,4 0,3 1,0 0,1 4,0 0,-1 1,0 0,-1 1,0 0,-1 -2,0 0,1 -1,0 0,1 -2,0 0,-3 1,0 0,-2 1,0 0,-1 2,0 0,2 2,0 0,-2 -1,0 0,-1 -4,0 0,1 -1,0 0,1 -1,0 0,2 -1,0 z m -4,-3 2,0 0,3 -1,0 0,2 -1,0 0,1 -2,0 0,-3 1,0 0,-2 1,0 0,-1 z"
       id="path48" />
    <path
       style="fill:#000000;fill-opacity:1;fill-rule:nonzero;stroke:none"
       d="m 12,17 0,4 2,0 0,1 15,0 0,-3 -1,0 0,-2 -16,0 z m 1,1 14,0 0,2 -14,0 0,-2 z"
       id="path3129" />
    <path
       style="fill:#000000;fill-opacity:1;fill-rule:nonzero;stroke:none"
       d="m 132,17 0,4 1,0 0,1 4,0 0,-4 -1,0 0,-1 -4,0 z m 1,1 2,0 0,2 -2,0 0,-2 z"
       id="path52" />
    <path
       style="fill:#666633;fill-opacity:1;fill-rule:nonzero;stroke:none"
       d="m 1,31 0,1 6,0 0,139 -6,0 0,1 6,0 0,25 1,0 0,-165 -1,0 0,-1 -6,0"
       id="path56" />
    <path
       style="fill:#cccccc;fill-opacity:1;fill-rule:nonzero;stroke:none"
       d="M 1,32 1,171 4,171 4,32 1,32"
       id="path58" />
    <path
       style="fill:#999999;fill-opacity:1;fill-rule:nonzero;stroke:none"
       d="M 4,32 4,171 7,171 7,32 4,32"
       id="path3141" />
    <path
       style="fill:#999999;fill-opacity:1;fill-rule:nonzero;stroke:none"
       d="M 8,32 8,196 172,196 172,32 8,32"
       id="path60" />
    <path
       style="fill:#cccccc;fill-opacity:1;fill-rule:nonzero;stroke:none"
       d="m 173,32 0,139 3,0 0,-139 -3,0"
       id="path62" />
    <path
       style="fill:#999999;fill-opacity:1;fill-rule:nonzero;stroke:none"
       d="m 176,32 0,139 2,0 0,-139 -2,0"
       id="path64" />
    <path
       style="fill:#000000;fill-opacity:1;fill-rule:nonzero;stroke:none"
       d="m 90,40 0,9 1,0 0,-9 -1,0"
       id="path3185" />
    <path
       style="fill:#000000;fill-opacity:1;fill-rule:nonzero;stroke:none"
       d="m 83,41 0,3 1,0 0,-3 -1,0"
       id="path3183" />
    <path
       style="fill:#000000;fill-opacity:1;fill-rule:nonzero;stroke:none"
       d="m 97,41 0,3 1,0 0,-3 -1,0"
       id="path3181" />
    <path
       style="fill:#000000;fill-opacity:1;fill-rule:nonzero;stroke:none"
       d="m 75,42 0,2 1,0 0,1 1,0 0,-1 -1,0 0,-2 -1,0"
       id="path3179" />
    <path
       style="fill:#000000;fill-opacity:1;fill-rule:nonzero;stroke:none"
       d="m 105,42 0,2 -1,0 0,1 1,0 0,-1 1,0 0,-2 -1,0"
       id="path3177" />
    <path
       style="fill:#000000;fill-opacity:1;fill-rule:nonzero;stroke:none"
       d="m 68,44 0,3 1,0 0,-3 -1,0"
       id="path3175" />
    <path
       style="fill:#000000;fill-opacity:1;fill-rule:nonzero;stroke:none"
       d="m 112,44 0,3 1,0 0,-3 -1,0"
       id="path3173" />
    <path
       style="fill:#000000;fill-opacity:1;fill-rule:nonzero;stroke:none"
       d="m 60,47 0,2 1,0 0,1 1,0 0,-1 -1,0 0,-2 -1,0"
       id="path3171" />
    <path
       style="fill:#000000;fill-opacity:1;fill-rule:nonzero;stroke:none"
       d="m 120,47 0,2 -1,0 0,1 1,0 0,-1 1,0 0,-2 -1,0"
       id="path3169" />
    <path
       style="fill:#000000;fill-opacity:1;fill-rule:nonzero;stroke:none"
       d="m 53,50 0,1 1,0 0,2 1,0 0,2 1,0 0,2 1,0 0,1 1,0 0,-1 -1,0 0,-2 -1,0 0,-2 -1,0 0,-2 -1,0 0,-1 -1,0"
       id="path3167" />
    <path
       style="fill:#000000;fill-opacity:1;fill-rule:nonzero;stroke:none"
       d="m 127,50 0,1 -1,0 0,2 -1,0 0,2 -1,0 0,2 -1,0 0,1 1,0 0,-1 1,0 0,-2 1,0 0,-2 1,0 0,-2 1,0 0,-1 -1,0"
       id="path3165" />
    <path
       style="fill:#000000;fill-opacity:1;fill-rule:nonzero;stroke:none"
       d="m 47,55 0,1 1,0 0,1 1,0 0,-1 -1,0 0,-1 -1,0"
       id="path3163" />
    <path
       style="fill:#000000;fill-opacity:1;fill-rule:nonzero;stroke:none"
       d="m 133,55 0,1 -1,0 0,1 1,0 0,-1 1,0 0,-1 -1,0"
       id="path3161" />
    <path
       style="fill:#000000;fill-opacity:1;fill-rule:nonzero;stroke:none"
       d="m 41,60 0,1 1,0 0,1 1,0 0,-1 -1,0 0,-1 -1,0"
       id="path3159" />
    <path
       style="fill:#000000;fill-opacity:1;fill-rule:nonzero;stroke:none"
       d="m 139,60 0,1 -1,0 0,1 1,0 0,-1 1,0 0,-1 -1,0"
       id="path3157" />
    <path
       style="fill:#000000;fill-opacity:1;fill-rule:nonzero;stroke:none"
       d="m 36,65 0,1 1,0 0,1 1,0 0,-1 -1,0 0,-1 -1,0"
       id="path3155" />
    <path
       style="fill:#000000;fill-opacity:1;fill-rule:nonzero;stroke:none"
       d="m 144,65 0,1 -1,0 0,1 1,0 0,-1 1,0 0,-1 -1,0"
       id="path3153" />
    <path
       style="fill:#000000;fill-opacity:1;fill-rule:nonzero;stroke:none"
       d="m 31,71 0,1 1,0 0,1 1,0 0,-1 -1,0 0,-1 -1,0"
       id="path3151" />
    <path
       style="fill:#000000;fill-opacity:1;fill-rule:nonzero;stroke:none"
       d="m 137,71 0,1 -4,0 0,1 -2,0 0,2 -1,0 0,3 -1,0 0,2 2,0 0,-1 3,0 0,-1 2,0 0,-1 1,0 0,-2 1,0 0,-2 1,0 0,-2 -2,0"
       id="path3149" />
    <path
       style="fill:#000000;fill-opacity:1;fill-rule:nonzero;stroke:none"
       d="m 149,71 0,1 -1,0 0,1 1,0 0,-1 1,0 0,-1 -1,0"
       id="path66" />
    <path
       style="fill:#333399;fill-opacity:1;fill-rule:nonzero;stroke:none"
       d="m 137,72 0,1 -4,0 0,1 -1,0 0,1 -1,0 0,3 -1,0 0,1 1,0 0,-1 3,0 0,-1 2,0 0,-2 1,0 0,-2 1,0 0,-1 -1,0"
       id="path68" />
    <path
       style="fill:#000000;fill-opacity:1;fill-rule:nonzero;stroke:none"
       d="m 26,77 0,1 1,0 0,1 2,0 0,1 2,0 0,1 2,0 0,1 1,0 0,-1 -1,0 0,-1 -2,0 0,-1 -2,0 0,-1 -2,0 0,-1 -1,0"
       id="path3209" />
    <path
       style="fill:#000000;fill-opacity:1;fill-rule:nonzero;stroke:none"
       d="m 154,77 0,1 -2,0 0,1 -2,0 0,1 -2,0 0,1 -1,0 0,1 1,0 0,-1 2,0 0,-1 2,0 0,-1 2,0 0,-1 1,0 0,-1 -1,0"
       id="path3207" />
    <path
       style="fill:#000000;fill-opacity:1;fill-rule:nonzero;stroke:none"
       d="m 23,84 0,1 2,0 0,1 1,0 0,-1 -1,0 0,-1 -2,0"
       id="path3205" />
    <path
       style="fill:#000000;fill-opacity:1;fill-rule:nonzero;stroke:none"
       d="m 156,84 0,1 -1,0 0,1 1,0 0,-1 2,0 0,-1 -2,0"
       id="path3203" />
    <path
       style="fill:#000000;fill-opacity:1;fill-rule:nonzero;stroke:none"
       d="m 20,92 0,1 3,0 0,-1 -3,0"
       id="path3201" />
    <path
       style="fill:#000000;fill-opacity:1;fill-rule:nonzero;stroke:none"
       d="m 158,92 0,1 3,0 0,-1 -3,0"
       id="path3199" />
    <path
       style="fill:#000000;fill-opacity:1;fill-rule:nonzero;stroke:none"
       d="m 18,99 0,1 2,0 0,1 1,0 0,-1 -1,0 0,-1 -2,0"
       id="path3197" />
    <path
       style="fill:#000000;fill-opacity:1;fill-rule:nonzero;stroke:none"
       d="m 161,99 0,1 -1,0 0,1 1,0 0,-1 2,0 0,-1 -2,0"
       id="path3195" />
    <path
       style="fill:#000000;fill-opacity:1;fill-rule:nonzero;stroke:none"
       d="m 17,107 0,1 3,0 0,-1 -3,0"
       id="path3193" />
    <path
       style="fill:#000000;fill-opacity:1;fill-rule:nonzero;stroke:none"
       d="m 89,107 0,1 -3,0 0,3 -1,0 0,2 -1,0 0,2 -1,0 0,1 1,0 0,3 4,0 0,1 3,0 0,1 2,0 0,1 2,0 0,1 2,0 0,1 1,0 0,1 2,0 0,1 2,0 0,1 2,0 0,1 2,0 0,1 1,0 0,1 2,0 0,1 2,0 0,1 2,0 0,1 1,0 0,-1 -1,0 0,-1 -1,0 0,-1 -1,0 0,-1 -1,0 0,-1 -1,0 0,-1 -1,0 0,-1 -1,0 0,-1 -1,0 0,-1 -1,0 0,-1 -1,0 0,-1 8,0 0,1 8,0 0,1 8,0 0,1 8,0 0,1 5,0 0,-1 -2,0 0,-1 -3,0 0,-1 -3,0 0,-1 -4,0 0,-1 -3,0 0,-1 -3,0 0,-1 -3,0 0,-1 -3,0 0,-1 -3,0 0,-1 -4,0 0,-1 -3,0 0,-1 -3,0 0,-1 -3,0 0,-1 -3,0 0,-1 -4,0 0,-1 -2,0 0,-1 -1,0 0,-1 -1,0 0,-1 -1,0"
       id="path3191" />
    <path
       style="fill:#000000;fill-opacity:1;fill-rule:nonzero;stroke:none"
       d="m 161,107 0,1 3,0 0,-1 -3,0"
       id="path70" />
    <path
       style="fill:#333399;fill-opacity:1;fill-rule:nonzero;stroke:none"
       d="m 89,108 0,1 -1,0 0,2 -1,0 0,1 -1,0 0,1 -1,0 0,2 -1,0 0,1 2,0 0,1 -1,0 0,1 1,0 0,-1 2,0 0,1 2,0 0,1 1,0 0,1 2,0 0,1 2,0 0,1 2,0 0,1 1,0 0,1 2,0 0,1 2,0 0,1 2,0 0,1 2,0 0,1 1,0 0,1 2,0 0,1 1,0 0,-1 -1,0 0,-1 -1,0 0,-1 -1,0 0,-1 -1,0 0,-1 -1,0 0,-1 -1,0 0,-1 -1,0 0,-1 -1,0 0,-1 -1,0 0,-2 1,0 0,1 2,0 0,1 8,0 0,1 8,0 0,1 8,0 0,1 5,0 0,-1 -4,0 0,-1 -3,0 0,-1 -3,0 0,-1 -3,0 0,-1 -3,0 0,-1 -3,0 0,-1 -4,0 0,-1 -3,0 0,-1 -3,0 0,-1 -3,0 0,-1 -3,0 0,-1 -3,0 0,1 -1,0 0,-1 -1,0 0,-1 -1,0 0,-1 -1,0 0,-1 -1,0 0,-1 -1,0"
       id="path72" />
    <path
       style="fill:#000000;fill-opacity:1;fill-rule:nonzero;stroke:none"
       d="m 95,113 0,1 1,0 0,1 1,0 0,1 1,0 0,1 1,0 0,1 1,0 0,1 1,0 0,-1 -1,0 0,-1 -1,0 0,-1 -1,0 0,-1 -1,0 0,-1 -1,0 0,-1 -1,0"
       id="path3221" />
    <path
       style="fill:#000000;fill-opacity:1;fill-rule:nonzero;stroke:none"
       d="m 16,114 0,1 9,0 0,-1 -9,0"
       id="path3219" />
    <path
       style="fill:#000000;fill-opacity:1;fill-rule:nonzero;stroke:none"
       d="m 156,114 0,1 9,0 0,-1 -9,0"
       id="path3217" />
    <path
       style="fill:#000000;fill-opacity:1;fill-rule:nonzero;stroke:none"
       d="m 101,119 0,2 1,0 0,1 1,0 0,-1 1,0 0,-1 -2,0 0,-1 -1,0"
       id="path3215" />
    <path
       style="fill:#000000;fill-opacity:1;fill-rule:nonzero;stroke:none"
       d="m 17,121 0,1 3,0 0,-1 -3,0"
       id="path74" />
    <path
       style="fill:#999999;fill-opacity:1;fill-rule:nonzero;stroke:none"
       d="m 103,121 0,1 1,0 0,-1 -1,0"
       id="path76" />
    <path
       style="fill:#000000;fill-opacity:1;fill-rule:nonzero;stroke:none"
       d="m 161,121 0,1 3,0 0,-1 -3,0"
       id="path3257" />
    <path
       style="fill:#000000;fill-opacity:1;fill-rule:nonzero;stroke:none"
       d="m 20,128 0,1 -2,0 0,1 2,0 0,-1 1,0 0,-1 -1,0"
       id="path3255" />
    <path
       style="fill:#000000;fill-opacity:1;fill-rule:nonzero;stroke:none"
       d="m 160,128 0,1 1,0 0,1 2,0 0,-1 -2,0 0,-1 -1,0"
       id="path3253" />
    <path
       style="fill:#000000;fill-opacity:1;fill-rule:nonzero;stroke:none"
       d="m 20,136 0,1 3,0 0,-1 -3,0"
       id="path3251" />
    <path
       style="fill:#000000;fill-opacity:1;fill-rule:nonzero;stroke:none"
       d="m 158,136 0,1 3,0 0,-1 -3,0"
       id="path3249" />
    <path
       style="fill:#000000;fill-opacity:1;fill-rule:nonzero;stroke:none"
       d="m 25,143 0,1 -2,0 0,1 2,0 0,-1 1,0 0,-1 -1,0"
       id="path3247" />
    <path
       style="fill:#000000;fill-opacity:1;fill-rule:nonzero;stroke:none"
       d="m 155,143 0,1 1,0 0,1 2,0 0,-1 -2,0 0,-1 -1,0"
       id="path3245" />
    <path
       style="fill:#000000;fill-opacity:1;fill-rule:nonzero;stroke:none"
       d="m 33,147 0,1 -2,0 0,1 -2,0 0,1 -2,0 0,1 -1,0 0,1 1,0 0,-1 2,0 0,-1 2,0 0,-1 2,0 0,-1 1,0 0,-1 -1,0"
       id="path3243" />
    <path
       style="fill:#000000;fill-opacity:1;fill-rule:nonzero;stroke:none"
       d="m 147,147 0,1 1,0 0,1 2,0 0,1 2,0 0,1 2,0 0,1 1,0 0,-1 -1,0 0,-1 -2,0 0,-1 -2,0 0,-1 -2,0 0,-1 -1,0"
       id="path3241" />
    <path
       style="fill:#000000;fill-opacity:1;fill-rule:nonzero;stroke:none"
       d="m 32,156 0,1 -1,0 0,1 1,0 0,-1 1,0 0,-1 -1,0"
       id="path3239" />
    <path
       style="fill:#000000;fill-opacity:1;fill-rule:nonzero;stroke:none"
       d="m 148,156 0,1 1,0 0,1 1,0 0,-1 -1,0 0,-1 -1,0"
       id="path3237" />
    <path
       style="fill:#000000;fill-opacity:1;fill-rule:nonzero;stroke:none"
       d="m 37,162 0,1 -1,0 0,1 1,0 0,-1 1,0 0,-1 -1,0"
       id="path3235" />
    <path
       style="fill:#000000;fill-opacity:1;fill-rule:nonzero;stroke:none"
       d="m 143,162 0,1 1,0 0,1 1,0 0,-1 -1,0 0,-1 -1,0"
       id="path3233" />
    <path
       style="fill:#000000;fill-opacity:1;fill-rule:nonzero;stroke:none"
       d="m 42,167 0,1 -1,0 0,1 1,0 0,-1 1,0 0,-1 -1,0"
       id="path3231" />
    <path
       style="fill:#000000;fill-opacity:1;fill-rule:nonzero;stroke:none"
       d="m 138,167 0,1 1,0 0,1 1,0 0,-1 -1,0 0,-1 -1,0"
       id="path3229" />
    <path
       style="fill:#000000;fill-opacity:1;fill-rule:nonzero;stroke:none"
       d="m 57,171 0,1 -1,0 0,2 -1,0 0,2 -1,0 0,2 -1,0 0,1 1,0 0,-1 1,0 0,-2 1,0 0,-2 1,0 0,-2 1,0 0,-1 -1,0"
       id="path3227" />
    <path
       style="fill:#000000;fill-opacity:1;fill-rule:nonzero;stroke:none"
       d="m 123,171 0,1 1,0 0,2 1,0 0,2 1,0 0,2 1,0 0,1 1,0 0,-1 -1,0 0,-2 -1,0 0,-2 -1,0 0,-2 -1,0 0,-1 -1,0"
       id="path78" />
    <path
       style="fill:#cccccc;fill-opacity:1;fill-rule:nonzero;stroke:none"
       d="m 1,172 0,30 3,0 0,-30 -3,0"
       id="path80" />
    <path
       style="fill:#999999;fill-opacity:1;fill-rule:nonzero;stroke:none"
       d="m 4,172 0,30 27,0 0,-3 -24,0 0,-27 -3,0"
       id="path82" />
    <path
       style="fill:#000000;fill-opacity:1;fill-rule:nonzero;stroke:none"
       d="m 48,172 0,1 -1,0 0,1 1,0 0,-1 1,0 0,-1 -1,0"
       id="path3265" />
    <path
       style="fill:#000000;fill-opacity:1;fill-rule:nonzero;stroke:none"
       d="m 132,172 0,1 1,0 0,1 1,0 0,-1 -1,0 0,-1 -1,0"
       id="path84" />
    <path
       style="fill:#cccccc;fill-opacity:1;fill-rule:nonzero;stroke:none"
       d="m 173,172 0,25 -25,0 0,2 28,0 0,-27 -3,0"
       id="path86" />
    <path
       style="fill:#999999;fill-opacity:1;fill-rule:nonzero;stroke:none"
       d="m 176,172 0,27 -28,0 0,3 30,0 0,-30 -2,0"
       id="path88" />
    <path
       style="fill:#000000;fill-opacity:1;fill-rule:nonzero;stroke:none"
       d="m 61,179 0,1 -1,0 0,2 1,0 0,-2 1,0 0,-1 -1,0"
       id="path3287" />
    <path
       style="fill:#000000;fill-opacity:1;fill-rule:nonzero;stroke:none"
       d="m 119,179 0,1 1,0 0,2 1,0 0,-2 -1,0 0,-1 -1,0"
       id="path3285" />
    <path
       style="fill:#000000;fill-opacity:1;fill-rule:nonzero;stroke:none"
       d="m 90,180 0,9 1,0 0,-9 -1,0"
       id="path3283" />
    <path
       style="fill:#000000;fill-opacity:1;fill-rule:nonzero;stroke:none"
       d="m 68,182 0,3 1,0 0,-3 -1,0"
       id="path3281" />
    <path
       style="fill:#000000;fill-opacity:1;fill-rule:nonzero;stroke:none"
       d="m 112,182 0,3 1,0 0,-3 -1,0"
       id="path3279" />
    <path
       style="fill:#000000;fill-opacity:1;fill-rule:nonzero;stroke:none"
       d="m 76,184 0,1 -1,0 0,2 1,0 0,-2 1,0 0,-1 -1,0"
       id="path3277" />
    <path
       style="fill:#000000;fill-opacity:1;fill-rule:nonzero;stroke:none"
       d="m 104,184 0,1 1,0 0,2 1,0 0,-2 -1,0 0,-1 -1,0"
       id="path3275" />
    <path
       style="fill:#000000;fill-opacity:1;fill-rule:nonzero;stroke:none"
       d="m 83,185 0,3 1,0 0,-3 -1,0"
       id="path3273" />
    <path
       style="fill:#000000;fill-opacity:1;fill-rule:nonzero;stroke:none"
       d="m 97,185 0,3 1,0 0,-3 -1,0"
       id="path90" />
    <path
       style="fill:#cccccc;fill-opacity:1;fill-rule:nonzero;stroke:none"
       d="m 7,197 0,2 24,0 0,-2 -24,0"
       id="path3291" />
    <path
       style="fill:#cccccc;fill-opacity:1;fill-rule:nonzero;stroke:none"
       d="m 32,197 0,2 115,0 0,-2 -115,0"
       id="path92" />
    <path
       style="fill:#999999;fill-opacity:1;fill-rule:nonzero;stroke:none"
       d="m 32,199 0,3 115,0 0,-3 -115,0"
       id="path94" />
  </g>
</svg>
