<?xml version="1.0" encoding="UTF-8" standalone="no"?>
<!-- CLEANED: 1515884832/eb327eefecbc41ae5c0331f63ad913a9 -->
<!-- Created with Inkscape (http://www.inkscape.org/) -->
<svg
   xmlns:dc="http://purl.org/dc/elements/1.1/"
   xmlns:cc="http://creativecommons.org/ns#"
   xmlns:rdf="http://www.w3.org/1999/02/22-rdf-syntax-ns#"
   xmlns:svg="http://www.w3.org/2000/svg"
   xmlns="http://www.w3.org/2000/svg"
   xmlns:xlink="http://www.w3.org/1999/xlink"
   xmlns:sodipodi="http://sodipodi.sourceforge.net/DTD/sodipodi-0.dtd"
   xmlns:inkscape="http://www.inkscape.org/namespaces/inkscape"
   id="svg2"
   version="1.1"
   inkscape:version="0.48.3.1 r9886"
   width="72"
   height="40"
   sodipodi:docname="applications-office-clock-geosc64-1-1.svg">
  <metadata
     id="metadata8">
    <rdf:RDF>
      <cc:Work
         rdf:about="">
        <dc:format>image/svg+xml</dc:format>
        <dc:type
           rdf:resource="http://purl.org/dc/dcmitype/StillImage" />
        <dc:title />
      </cc:Work>
    </rdf:RDF>
  </metadata>
  <defs
     id="defs6" />
  <sodipodi:namedview
     pagecolor="#ffffff"
     bordercolor="#666666"
     borderopacity="1"
     objecttolerance="10"
     gridtolerance="10"
     guidetolerance="10"
     inkscape:pageopacity="0"
     inkscape:pageshadow="2"
     id="namedview4"
     showgrid="false" />
  <g
     inkscape:groupmode="layer"
     id="layer1"
     inkscape:label="XX_SRC"
     style="display:inline"
     sodipodi:insensitive="true">
    <image
       xlink:href="../../../src/incoming/2018/guidebookgallery/applications-office-clock-geosc64-1-1.png"
       checksum="ed54487243e27489"
       y="0"
       x="0"
       id="image10"
       height="40"
       width="72" />
  </g>
  <g
     inkscape:groupmode="layer"
     id="layer2"
     inkscape:label="XX_TRACE"
     style="display:inline"
     sodipodi:insensitive="true">
    <path
       id="path3131"
       d="M 0,40 72,40 72,0 0,0 z"
       style="fill:#575753;fill-opacity:1;fill-rule:nonzero;stroke:none"
       sodipodi:nodetypes="ccccc" />
    <path
       style="fill:#efe9e7;fill-opacity:1;fill-rule:nonzero;stroke:none"
       d="M 0,0 0,1 1,1 1,0 0,0 z M 1,1 1,2 2,2 2,1 1,1 z M 2,2 2,3 3,3 3,2 2,2 z M 3,3 3,4 4,4 4,3 3,3 z M 4,4 4,36 68,36 68,4 4,4 z m 64,0 1,0 0,-1 -1,0 0,1 z m 1,-1 1,0 0,-1 -1,0 0,1 z m 1,-1 1,0 0,-1 -1,0 0,1 z m 1,-1 1,0 0,-1 -1,0 0,1 z m -3,35 0,1 1,0 0,-1 -1,0 z m 1,1 0,1 1,0 0,-1 -1,0 z m 1,1 0,1 1,0 0,-1 -1,0 z m 1,1 0,1 1,0 0,-1 -1,0 z m -67,-3 -1,0 0,1 1,0 0,-1 z m -1,1 -1,0 0,1 1,0 0,-1 z m -1,1 -1,0 0,1 1,0 0,-1 z m -1,1 -1,0 0,1 1,0 0,-1 z M 5,5 67,5 67,35 5,35 5,5 z M 6,6 6,34 66,34 66,6 6,6 z M 7,7 65,7 65,21 7,21 7,7 z M 8,8 8,20 49,20 49,8 8,8 z m 48,0 0,2 1,0 0,1 1,0 0,1 1,0 0,1 1,0 0,-1 1,0 0,-1 1,0 0,-1 1,0 0,7 -1,0 0,-5 -1,0 0,1 -1,0 0,2 -1,0 0,-2 -1,0 0,-1 -1,0 0,5 -1,0 0,3 8,0 0,-12 -8,0 z m -44,2 2,0 0,1 1,0 0,5 -1,0 0,1 -2,0 0,-1 -1,0 0,-5 1,0 0,-1 z m 0,1 0,2 1,0 0,-1 1,0 0,-1 -2,0 z m 1,2 0,1 -1,0 0,2 2,0 0,-3 -1,0 z m 4,-3 1,0 0,7 -1,0 0,-5 -1,0 0,-1 1,0 0,-1 z m 7,0 2,0 0,1 1,0 0,5 -1,0 0,1 -2,0 0,-1 -1,0 0,-5 1,0 0,-1 z m 0,1 0,2 1,0 0,-1 1,0 0,-1 -2,0 z m 1,2 0,1 -1,0 0,2 2,0 0,-3 -1,0 z m 3,-3 4,0 0,2 -1,0 0,1 -1,0 0,4 -1,0 0,-4 1,0 0,-1 1,0 0,-1 -3,0 0,-1 z m 7,0 2,0 0,1 1,0 0,2 -1,0 0,1 -1,0 0,2 2,0 0,1 -3,0 0,-3 1,0 0,-1 1,0 0,-2 -2,0 0,-1 z m 6,0 2,0 0,1 1,0 0,4 -1,0 0,1 -1,0 0,1 -1,0 0,-1 1,0 0,-1 1,0 0,-1 -2,0 0,-1 -1,0 0,-2 1,0 0,-1 z m 0,1 0,2 2,0 0,-2 -2,0 z m 9,-1 0,7 1,0 0,-2 2,0 0,-1 -2,0 0,-3 2,0 0,-1 -3,0 z m 3,1 0,3 1,0 0,-3 -1,0 z m -32,2 1,0 0,1 -1,0 0,-1 z m 12,0 1,0 0,1 -1,0 0,-1 z m -12,3 1,0 0,1 -1,0 0,-1 z m 12,0 1,0 0,1 -1,0 0,-1 z m -24,6 13,0 0,1 1,0 0,1 1,0 0,-1 1,0 0,-1 13,0 0,1 1,0 0,1 1,0 0,-1 1,0 0,-1 13,0 0,1 1,0 0,1 1,0 0,8 -1,0 0,1 -13,0 0,-1 -1,0 0,-1 -1,0 0,1 -1,0 0,1 -13,0 0,-1 -1,0 0,-1 -1,0 0,1 -1,0 0,1 -13,0 0,-1 -1,0 0,-1 -1,0 0,-8 1,0 0,-1 z m 0,1 0,8 13,0 0,-8 -13,0 z m 13,8 0,1 1,0 0,-1 -1,0 z m 3,0 13,0 0,-8 -13,0 0,8 z m 13,0 0,1 1,0 0,-1 -1,0 z m 3,0 13,0 0,-8 -13,0 0,8 z m 13,0 0,1 1,0 0,-1 -1,0 z m -41,-7 2,0 0,3 -2,0 0,1 3,0 0,-4 2,0 0,1 1,0 0,4 -1,0 0,1 -5,0 0,-1 -1,0 0,-4 1,0 0,-1 z m 14,0 2,0 0,1 -2,0 0,1 1,0 0,1 1,0 0,2 -1,0 0,1 -2,0 0,-1 2,0 0,-1 -1,0 0,-1 -1,0 0,-2 1,0 0,-1 z m 3,0 3,0 0,1 -2,0 0,2 1,0 0,1 -1,0 0,1 2,0 0,1 -3,0 0,-6 z m 4,0 3,0 0,1 -1,0 0,5 -1,0 0,-5 -1,0 0,-1 z m 8,0 11,0 0,6 -11,0 0,-6 z"
       id="path12" />
  </g>
</svg>
