<?xml version="1.0" encoding="UTF-8" standalone="no"?>
<!-- CLEANED: 1515892862/7aed514d57f59002210baa512fc6e9f0 -->
<!-- Created with Inkscape (http://www.inkscape.org/) -->
<svg
   xmlns:dc="http://purl.org/dc/elements/1.1/"
   xmlns:cc="http://creativecommons.org/ns#"
   xmlns:rdf="http://www.w3.org/1999/02/22-rdf-syntax-ns#"
   xmlns:svg="http://www.w3.org/2000/svg"
   xmlns="http://www.w3.org/2000/svg"
   xmlns:xlink="http://www.w3.org/1999/xlink"
   xmlns:sodipodi="http://sodipodi.sourceforge.net/DTD/sodipodi-0.dtd"
   xmlns:inkscape="http://www.inkscape.org/namespaces/inkscape"
   id="svg2"
   version="1.1"
   inkscape:version="0.48.3.1 r9886"
   width="480"
   height="160"
   sodipodi:docname="desktop-empty-sibo3a-1-1.svg">
  <metadata
     id="metadata8">
    <rdf:RDF>
      <cc:Work
         rdf:about="">
        <dc:format>image/svg+xml</dc:format>
        <dc:type
           rdf:resource="http://purl.org/dc/dcmitype/StillImage" />
        <dc:title />
      </cc:Work>
    </rdf:RDF>
  </metadata>
  <defs
     id="defs6" />
  <sodipodi:namedview
     pagecolor="#ffffff"
     bordercolor="#666666"
     borderopacity="1"
     objecttolerance="10"
     gridtolerance="10"
     guidetolerance="10"
     inkscape:pageopacity="0"
     inkscape:pageshadow="2"
     id="namedview4"
     showgrid="false" />
  <g
     inkscape:groupmode="layer"
     id="layer1"
     inkscape:label="XX_SRC"
     sodipodi:insensitive="true">
    <image
       xlink:href="../../../src/incoming/2018/guidebookgallery/desktop-empty-sibo3a-1-1.png"
       checksum="2ff4c21e15d851ea"
       y="0"
       x="0"
       id="image10"
       height="160"
       width="480" />
  </g>
  <g
     inkscape:groupmode="layer"
     id="layer2"
     inkscape:label="XX_TRACE"
     style="display:inline"
     sodipodi:insensitive="true">
    <path
       style="fill:#b2b2b2;fill-opacity:1;fill-rule:nonzero;stroke:none"
       d="m 0,0 0,5 1,0 0,150 -1,0 0,5 5,0 0,-1 470,0 0,1 5,0 0,-5 -1,0 0,-150 1,0 0,-5 -5,0 0,1 L 5,1 5,0 0,0"
       id="path12" />
    <path
       style="fill:#000000;fill-opacity:1;fill-rule:nonzero;stroke:none"
       d="M 5,0 5,1 475,1 475,0 5,0"
       id="path3093" />
    <path
       style="fill:#000000;fill-opacity:1;fill-rule:nonzero;stroke:none"
       d="M 3,1 3,2 2,2 2,3 1,3 1,5 2,5 2,3 3,3 3,2 5,2 5,1 3,1"
       id="path3091" />
    <path
       style="fill:#000000;fill-opacity:1;fill-rule:nonzero;stroke:none"
       d="m 475,1 0,1 2,0 0,1 1,0 0,2 1,0 0,-2 -1,0 0,-1 -1,0 0,-1 -2,0"
       id="path3089" />
    <path
       style="fill:#000000;fill-opacity:1;fill-rule:nonzero;stroke:none"
       d="m 68,3 0,1 7,0 0,-1 -7,0 z m 7,1 0,3 4,0 0,19 -2,0 0,-11 -2,0 0,-2 -8,0 0,-1 -1,0 0,-1 -1,0 0,3 9,0 0,19 -2,0 0,-11 -2,0 0,-2 -13,0 0,-1 -1,0 0,-1 -1,0 0,3 14,0 0,20 -2,0 0,-12 -2,0 0,-2 -18,0 0,-1 -1,0 0,-1 -1,0 0,3 19,0 0,20 -29,0 0,-20 3,0 0,-3 -1,0 0,2 -3,0 0,22 2,0 0,2 31,0 0,-7 5,0 0,-8 5,0 0,-7 5,0 0,-21 -2,0 0,-2 -3,0 0,-1 -1,0 0,-1 -1,0 z m -37,21 7,0 0,-1 -5,0 0,-3 8,0 0,-3 -1,0 0,2 -2,0 0,-6 13,0 0,-3 -1,0 0,2 -7,0 0,-6 18,0 0,-3 -1,0 0,2 -18,0 0,7 -5,0 0,7 -5,0 0,4 -1,0 0,1 z"
       id="path3087" />
    <path
       style="fill:#000000;fill-opacity:1;fill-rule:nonzero;stroke:none"
       d="m 97,3 0,46 2,0 0,2 36,0 0,-46 -2,0 0,-2 -36,0 z m 1,1 22,0 0,1 1,0 0,-1 11,0 0,11 -1,0 0,2 -1,0 0,-1 -2,0 0,-1 -5,0 0,1 -1,0 0,-9 1,0 0,-1 -1,0 0,-1 -1,0 0,12 1,0 0,1 1,0 0,-1 6,0 0,1 1,0 0,1 1,0 0,1 1,0 0,28 -34,0 0,-44 z"
       id="path3085" />
    <path
       style="fill:#000000;fill-opacity:1;fill-rule:nonzero;stroke:none"
       d="m 166,3 0,1 9,0 0,-1 -9,0 z m 9,1 0,1 1,0 0,-1 -1,0 z m 1,1 0,1 1,0 0,2 3,0 0,-1 17,0 0,-1 1,0 0,-1 1,0 0,1 -1,0 0,1 -1,0 0,37 -16,0 0,1 16,0 0,1 1,0 0,1 1,0 0,1 -1,0 0,-1 -1,0 0,-1 -16,0 0,-1 -3,0 0,-4 -1,0 0,2 -1,0 0,-1 -1,0 0,-1 -2,0 0,-1 -7,0 0,1 -2,0 0,1 -2,0 0,1 3,0 0,-1 9,0 0,1 1,0 0,2 -2,0 0,1 -16,0 0,1 -1,0 0,1 -1,0 0,-1 1,0 0,-1 1,0 0,-1 16,0 0,-1 -11,0 0,-1 -1,0 0,-36 1,0 0,-1 2,0 0,-1 2,0 0,-1 -12,0 0,45 18,0 0,1 2,0 0,1 7,0 0,-1 2,0 0,-1 17,0 0,-45 -21,0 0,1 -3,0 z m -21,0 1,0 0,1 1,0 0,1 3,0 0,8 -1,0 0,1 1,0 0,9 -1,0 0,1 1,0 0,9 -1,0 0,1 1,0 0,8 -3,0 0,-37 -1,0 0,-1 -1,0 0,-1 z m 24,43 1,0 0,1 -1,0 0,1 -3,0 0,-1 3,0 0,-1 z"
       id="path3083" />
    <path
       style="fill:#000000;fill-opacity:1;fill-rule:nonzero;stroke:none"
       d="m 292,3 0,1 10,0 0,-1 -10,0 z m 10,1 0,1 4,0 0,-1 -4,0 z m 4,1 0,1 1,0 0,1 -1,0 0,1 1,0 0,1 1,0 0,1 -1,0 0,-1 -2,0 0,-2 -2,0 0,1 -1,0 0,1 -1,0 0,1 -1,0 0,-2 -2,0 0,1 -2,0 0,1 -1,0 0,1 -1,0 0,2 2,0 0,-1 1,0 0,-1 1,0 0,1 1,0 0,1 -1,0 0,-1 -1,0 0,2 -2,0 0,3 -1,0 0,1 -1,0 0,1 1,0 0,1 -3,0 0,3 1,0 0,1 3,0 0,-1 2,0 0,-1 1,0 0,1 1,0 0,1 -1,0 0,1 2,0 0,-2 1,0 0,-1 -1,0 0,-1 1,0 0,1 1,0 0,2 -1,0 0,1 -1,0 0,1 -4,0 0,-1 -3,0 0,1 -1,0 0,1 -1,0 0,1 -1,0 0,5 1,0 0,1 1,0 0,1 1,0 0,1 4,0 0,1 1,0 0,4 1,0 0,3 1,0 0,2 1,0 0,-1 1,0 0,-1 1,0 0,-1 1,0 0,-1 1,0 0,-5 1,0 0,-2 1,0 0,-2 1,0 0,-1 -1,0 0,-1 -1,0 0,-1 -1,0 0,-1 -1,0 0,-1 -1,0 0,-1 -1,0 0,-1 1,0 0,1 1,0 0,1 1,0 0,1 1,0 0,1 1,0 0,1 1,0 0,-1 1,0 0,-1 1,0 0,-1 -1,0 0,-1 -2,0 0,-1 -1,0 0,-1 1,0 0,1 2,0 0,1 2,0 0,2 1,0 0,1 1,0 0,2 1,0 0,1 1,0 0,2 1,0 0,-1 1,0 0,-1 -1,0 0,-1 1,0 0,-1 1,0 0,-1 1,0 0,1 -1,0 0,1 -1,0 0,1 1,0 0,1 -1,0 0,1 -1,0 0,1 1,0 0,1 -1,0 0,1 -1,0 0,1 -1,0 0,1 -1,0 0,-1 -1,0 0,1 -1,0 0,1 1,0 0,1 -1,0 0,-1 -1,0 0,1 -1,0 0,1 1,0 0,1 -1,0 0,-1 -1,0 0,1 -1,0 0,1 1,0 0,1 -1,0 0,-1 -1,0 0,-1 -1,0 0,1 -1,0 0,1 1,0 0,1 -1,0 0,-1 -1,0 0,-1 -1,0 0,1 -1,0 0,1 -1,0 0,-1 -1,0 0,1 -1,0 0,-1 -1,0 0,1 -1,0 0,1 -1,0 0,1 -1,0 0,-1 1,0 0,-1 -1,0 0,-1 -1,0 0,1 -1,0 0,1 -1,0 0,1 -1,0 0,-1 -1,0 0,1 -1,0 0,1 4,0 0,1 10,0 0,-1 4,0 0,-1 2,0 0,-1 2,0 0,-1 1,0 0,-1 1,0 0,-1 2,0 0,-1 1,0 0,-2 1,0 0,-1 1,0 0,-1 1,0 0,-2 1,0 0,-2 1,0 0,-4 1,0 0,-10 -1,0 0,-4 -1,0 0,-2 -1,0 0,-2 -1,0 0,-1 -1,0 0,-1 -1,0 0,-2 -1,0 0,-1 -2,0 0,-1 -1,0 0,-1 -1,0 0,-1 -2,0 0,-1 -2,0 z m -18,44 0,-1 -1,0 0,-1 -1,0 0,-1 -1,0 0,1 -1,0 0,1 2,0 0,1 2,0 z m -4,-2 0,-1 -1,0 0,1 1,0 z m -1,-1 0,-1 -1,0 0,1 1,0 z m -1,-1 0,-1 -2,0 0,1 2,0 z m -2,-1 0,-2 -1,0 0,2 1,0 z m -1,-2 0,-6 1,0 0,-2 -2,0 0,-1 -2,0 0,-1 -1,0 0,-1 -1,0 0,-9 -1,0 0,10 1,0 0,4 1,0 0,2 1,0 0,2 1,0 0,1 1,0 0,1 1,0 z m -5,-20 1,0 0,-2 1,0 0,-2 1,0 0,-2 1,0 0,-1 1,0 0,-1 2,0 0,-1 2,0 0,-2 1,0 0,-2 -1,0 0,-1 -1,0 0,1 -2,0 0,1 -1,0 0,2 -1,0 0,1 -1,0 0,1 -1,0 0,2 -1,0 0,2 -1,0 0,4 z m 9,-14 1,0 0,-1 -1,0 0,1 z m 1,-1 1,0 0,2 1,0 0,2 2,0 0,-1 1,0 0,-1 1,0 0,-1 1,0 0,-2 1,0 0,-2 -4,0 0,1 -2,0 0,1 -2,0 0,1 z m 22,12 2,0 0,1 1,0 0,2 -1,0 0,-1 -1,0 0,-1 -1,0 0,-1 z m -3,1 2,0 0,2 -2,0 0,-2 z m -1,27 1,0 0,1 -1,0 0,-1 z m -4,1 1,0 0,1 -1,0 0,-1 z"
       id="path3081" />
    <path
       style="fill:#000000;fill-opacity:1;fill-rule:nonzero;stroke:none"
       d="m 341,3 0,1 27,0 0,-1 -27,0 z m 27,1 0,1 1,0 0,-1 -1,0 z m 1,1 0,42 -1,0 0,1 -27,0 0,1 1,0 0,1 1,0 0,1 27,0 0,-1 1,0 0,-1 1,0 0,-41 -1,0 0,-1 -1,0 0,-2 -1,0 z m -28,43 0,-1 -1,0 0,1 1,0 z m -1,-1 0,-42 -1,0 0,42 1,0 z m 0,-42 1,0 0,-1 -1,0 0,1 z"
       id="path3079" />
    <path
       style="fill:#000000;fill-opacity:1;fill-rule:nonzero;stroke:none"
       d="m 389,3 0,46 2,0 0,2 46,0 0,-46 -2,0 0,-2 -46,0 z m 1,1 44,0 0,8 -16,0 0,-7 -1,0 0,7 -17,0 0,-7 -9,0 0,8 8,0 0,8 -8,0 0,1 8,0 0,8 -8,0 0,1 8,0 0,8 -8,0 0,1 8,0 0,8 -9,0 0,-44 z m 10,9 34,0 0,35 -34,0 0,-35 z"
       id="path14" />
    <path
       style="fill:#000000;fill-opacity:1;fill-rule:nonzero;stroke:none"
       d="m 227,4 0,1 22,0 0,-1 -22,0 z m 22,1 0,1 1,0 0,-1 -1,0 z m 1,1 0,1 1,0 0,-1 -1,0 z m 1,1 0,1 1,0 0,-1 -1,0 z m 1,1 0,1 1,0 0,-1 -1,0 z m 1,0 1,0 0,-1 -1,0 0,1 z m 1,-1 1,0 0,-1 -1,0 0,1 z m 1,-1 1,0 0,12 -1,0 0,1 1,0 0,1 1,0 0,-2 1,0 0,-3 1,0 0,-1 -1,0 0,-8 -1,0 0,-2 -1,0 0,1 -1,0 0,1 z m 4,9 0,1 1,0 0,-1 -1,0 z m 1,1 0,1 -1,0 0,1 -1,0 0,19 -1,0 0,1 -1,0 0,1 -1,0 0,1 -1,0 0,1 -1,0 0,1 -1,0 0,1 -1,0 0,1 -1,0 0,1 -1,0 0,1 -1,0 0,1 -21,0 0,1 -1,0 0,1 1,0 0,1 22,0 0,-1 1,0 0,-1 1,0 0,-1 1,0 0,-1 1,0 0,-1 1,0 0,-1 1,0 0,-1 1,0 0,-1 1,0 0,-1 1,0 0,-1 1,0 0,-1 1,0 0,-1 1,0 0,-22 -1,0 z m 1,0 1,0 0,-1 -1,0 0,1 z m 1,-1 1,0 0,-6 -1,0 0,6 z m 0,-6 0,-2 -1,0 0,2 1,0 z m -1,-2 0,-1 -1,0 0,1 1,0 z m -35,41 0,-1 -1,0 0,1 1,0 z m -1,-1 0,-1 -1,0 0,1 1,0 z m -1,-1 0,-1 -1,0 0,1 1,0 z m -1,-1 0,-1 -1,0 0,1 1,0 z m -1,-1 0,-1 -1,0 0,1 1,0 z m -1,-1 0,-1 -1,0 0,1 1,0 z m -1,-1 0,-1 -1,0 0,1 1,0 z m -1,-1 0,-1 -1,0 0,1 1,0 z m -1,-1 0,-1 -1,0 0,1 1,0 z m -1,-1 0,-1 -1,0 0,1 1,0 z m -1,-1 0,-22 -1,0 0,22 1,0 z m 0,-22 1,0 0,-1 -1,0 0,1 z m 1,-1 1,0 0,-1 -1,0 0,1 z m 1,-1 1,0 0,-1 -1,0 0,1 z m 1,-1 1,0 0,-1 -1,0 0,1 z m 1,-1 1,0 0,-1 -1,0 0,1 z m 1,-1 1,0 0,-1 -1,0 0,1 z m 1,-1 1,0 0,-1 -1,0 0,1 z m 1,-1 1,0 0,-1 -1,0 0,1 z m 1,-1 1,0 0,-1 -1,0 0,1 z m 1,-1 1,0 0,-1 -1,0 0,1 z m 1,-1 1,0 0,-1 -1,0 0,1 z"
       id="path18" />
    <path
       style="fill:#000000;fill-opacity:1;fill-rule:nonzero;stroke:none"
       d="M 0,5 0,155 1,155 1,5 0,5"
       id="path22" />
    <path
       style="fill:#000000;fill-opacity:1;fill-rule:nonzero;stroke:none"
       d="m 479,5 0,150 1,0 0,-150 -1,0"
       id="path3127" />
    <path
       style="fill:#000000;fill-opacity:1;fill-rule:nonzero;stroke:none"
       d="m 407,6 0,1 3,0 0,-1 -3,0 z m 3,1 0,1 -3,0 0,-1 -1,0 0,4 1,0 0,-2 3,0 0,2 1,0 0,-4 -1,0 z"
       id="path3125" />
    <path
       style="fill:#000000;fill-opacity:1;fill-rule:nonzero;stroke:none"
       d="m 424,6 0,5 4,0 0,-1 -3,0 0,-1 3,0 0,-1 -3,0 0,-1 3,0 0,-1 -4,0 z m 4,1 0,1 1,0 0,-1 -1,0 z m 0,2 0,1 1,0 0,-1 -1,0 z"
       id="path3123" />
    <path
       style="fill:#000000;fill-opacity:1;fill-rule:nonzero;stroke:none"
       d="m 102,7 0,1 11,0 0,-1 -11,0"
       id="path3121" />
    <path
       style="fill:#000000;fill-opacity:1;fill-rule:nonzero;stroke:none"
       d="m 123,7 0,1 1,0 0,1 1,0 0,1 1,0 0,1 1,0 0,1 1,0 0,1 1,0 0,1 1,0 0,1 1,0 0,-1 -1,0 0,-1 -1,0 0,-1 -1,0 0,-1 -1,0 0,-1 -1,0 0,-1 -1,0 0,-1 -1,0 0,-1 -1,0"
       id="path3119" />
    <path
       style="fill:#000000;fill-opacity:1;fill-rule:nonzero;stroke:none"
       d="m 228,7 0,1 -1,0 0,1 -1,0 0,1 -1,0 0,1 -1,0 0,1 -1,0 0,1 -1,0 0,1 -1,0 0,1 -1,0 0,1 -1,0 0,1 -1,0 0,20 1,0 0,1 1,0 0,1 1,0 0,1 1,0 0,1 1,0 0,1 1,0 0,1 1,0 0,1 1,0 0,1 1,0 0,1 1,0 0,-1 1,0 0,-1 -1,0 0,-1 -1,0 0,-1 -1,0 0,-1 -1,0 0,-1 -1,0 0,-1 -1,0 0,-1 -1,0 0,-1 -1,0 0,-1 -1,0 0,-18 1,0 0,-1 1,0 0,-1 1,0 0,-1 1,0 0,-1 1,0 0,-1 1,0 0,-1 1,0 0,-1 1,0 0,-1 1,0 0,-1 18,0 0,3 -1,0 0,2 -2,0 0,1 3,0 0,-1 1,0 0,1 4,0 0,1 1,0 0,1 1,0 0,1 1,0 0,-1 -1,0 0,-1 -1,0 0,-1 -1,0 0,-1 -4,0 0,-4 4,0 0,-1 -3,0 0,-1 -1,0 0,-1 -20,0"
       id="path3117" />
    <path
       style="fill:#000000;fill-opacity:1;fill-rule:nonzero;stroke:none"
       d="m 344,7 0,9 1,0 0,-1 1,0 0,-6 19,0 0,-1 1,0 0,-1 -22,0"
       id="path26" />
    <path
       style="fill:#000000;fill-opacity:1;fill-rule:nonzero;stroke:none"
       d="m 175,8 0,1 1,0 0,1 2,0 0,1 1,0 0,1 1,0 0,-2 -1,0 0,-1 -3,0 0,-1 -1,0"
       id="path3143" />
    <path
       style="fill:#000000;fill-opacity:1;fill-rule:nonzero;stroke:none"
       d="m 102,9 0,1 11,0 0,-1 -11,0"
       id="path3141" />
    <path
       style="fill:#000000;fill-opacity:1;fill-rule:nonzero;stroke:none"
       d="m 188,9 0,1 2,0 0,1 -2,0 0,1 2,0 0,1 -2,0 0,1 2,0 0,-1 1,0 0,-1 -1,0 0,-1 1,0 0,-1 -1,0 0,-1 -2,0"
       id="path3139" />
    <path
       style="fill:#000000;fill-opacity:1;fill-rule:nonzero;stroke:none"
       d="m 193,9 0,1 2,0 0,-1 -2,0 z m 2,1 0,3 1,0 0,-3 -1,0 z m 0,3 -2,0 0,1 2,0 0,-1 z m -2,0 0,-3 -1,0 0,3 1,0 z"
       id="path3137" />
    <path
       style="fill:#000000;fill-opacity:1;fill-rule:nonzero;stroke:none"
       d="m 259,9 0,1 1,0 0,4 1,0 0,-4 -1,0 0,-1 -1,0"
       id="path3135" />
    <path
       style="fill:#000000;fill-opacity:1;fill-rule:nonzero;stroke:none"
       d="m 291,9 0,1 -1,0 0,1 2,0 0,-2 -1,0"
       id="path30" />
    <path
       style="fill:#000000;fill-opacity:1;fill-rule:nonzero;stroke:none"
       d="m 58,10 0,1 7,0 0,-1 -7,0"
       id="path34" />
    <path
       style="fill:#000000;fill-opacity:1;fill-rule:nonzero;stroke:none"
       d="m 102,11 0,1 8,0 0,-1 -8,0"
       id="path3159" />
    <path
       style="fill:#000000;fill-opacity:1;fill-rule:nonzero;stroke:none"
       d="m 239,11 0,14 -1,0 0,1 2,0 0,-15 -1,0"
       id="path3157" />
    <path
       style="fill:#000000;fill-opacity:1;fill-rule:nonzero;stroke:none"
       d="m 166,12 0,1 -2,0 0,1 -2,0 0,1 2,0 0,-1 2,0 0,-1 9,0 0,1 1,0 0,1 1,0 0,3 1,0 0,-6 -1,0 0,2 -1,0 0,-1 -1,0 0,-1 -9,0"
       id="path3155" />
    <path
       style="fill:#000000;fill-opacity:1;fill-rule:nonzero;stroke:none"
       d="m 231,12 0,2 -2,0 0,1 3,0 0,-3 -1,0"
       id="path3153" />
    <path
       style="fill:#000000;fill-opacity:1;fill-rule:nonzero;stroke:none"
       d="m 102,13 0,1 6,0 0,-1 -6,0"
       id="path38" />
    <path
       style="fill:#000000;fill-opacity:1;fill-rule:nonzero;stroke:none"
       d="m 292,14 0,1 -1,0 0,1 -1,0 0,2 3,0 0,-4 -1,0"
       id="path3171" />
    <path
       style="fill:#000000;fill-opacity:1;fill-rule:nonzero;stroke:none"
       d="m 395,14 0,1 -1,0 0,1 1,0 0,3 -1,0 0,1 3,0 0,-1 -1,0 0,-5 -1,0"
       id="path3169" />
    <path
       style="fill:#000000;fill-opacity:1;fill-rule:nonzero;stroke:none"
       d="m 181,15 0,1 -2,0 0,1 2,0 0,-1 15,0 0,-1 -15,0"
       id="path3167" />
    <path
       style="fill:#000000;fill-opacity:1;fill-rule:nonzero;stroke:none"
       d="m 426,16 0,7 -1,0 0,-2 -5,0 0,8 -1,0 0,-2 -5,0 0,1 -1,0 0,-2 -5,0 0,6 -1,0 0,-2 -5,0 0,13 2,0 0,1 4,0 0,-1 2,0 0,1 4,0 0,-1 2,0 0,1 4,0 0,-1 2,0 0,1 4,0 0,-1 2,0 0,1 4,0 0,-26 -1,0 0,-2 -5,0 z m 1,1 3,0 0,25 -3,0 0,-25 z m -6,5 3,0 0,20 -3,0 0,-20 z m -12,5 3,0 0,15 -3,0 0,-15 z m 6,1 3,0 0,14 -3,0 0,-14 z m -12,3 3,0 0,11 -3,0 0,-11 z"
       id="path3165" />
    <path
       style="fill:#000000;fill-opacity:1;fill-rule:nonzero;stroke:none"
       d="m 48,17 0,1 7,0 0,-1 -7,0"
       id="path42" />
    <path
       style="fill:#000000;fill-opacity:1;fill-rule:nonzero;stroke:none"
       d="m 175,18 0,1 1,0 0,1 2,0 0,1 1,0 0,1 1,0 0,-2 -1,0 0,-1 -3,0 0,-1 -1,0"
       id="path3183" />
    <path
       style="fill:#000000;fill-opacity:1;fill-rule:nonzero;stroke:none"
       d="m 189,19 0,1 2,0 0,1 -2,0 0,1 2,0 0,1 -2,0 0,1 2,0 0,-1 1,0 0,-1 -1,0 0,-1 1,0 0,-1 -1,0 0,-1 -2,0"
       id="path3181" />
    <path
       style="fill:#000000;fill-opacity:1;fill-rule:nonzero;stroke:none"
       d="m 194,19 0,1 -1,0 0,1 1,0 0,2 -1,0 0,1 3,0 0,-1 -1,0 0,-4 -1,0"
       id="path3179" />
    <path
       style="fill:#000000;fill-opacity:1;fill-rule:nonzero;stroke:none"
       d="m 225,19 0,2 -2,0 0,1 3,0 0,-3 -1,0"
       id="path3177" />
    <path
       style="fill:#000000;fill-opacity:1;fill-rule:nonzero;stroke:none"
       d="m 252,19 0,2 -2,0 0,1 3,0 0,-3 -1,0"
       id="path46" />
    <path
       style="fill:#000000;fill-opacity:1;fill-rule:nonzero;stroke:none"
       d="m 349,19 0,3 -5,0 0,1 6,0 0,-4 -1,0"
       id="path3193" />
    <path
       style="fill:#000000;fill-opacity:1;fill-rule:nonzero;stroke:none"
       d="m 357,19 0,3 -5,0 0,1 6,0 0,-4 -1,0"
       id="path3191" />
    <path
       style="fill:#000000;fill-opacity:1;fill-rule:nonzero;stroke:none"
       d="m 365,19 0,3 -5,0 0,1 6,0 0,-4 -1,0"
       id="path3189" />
    <path
       style="fill:#000000;fill-opacity:1;fill-rule:nonzero;stroke:none"
       d="m 102,20 0,1 6,0 0,-1 -6,0"
       id="path50" />
    <path
       style="fill:#000000;fill-opacity:1;fill-rule:nonzero;stroke:none"
       d="m 102,22 0,1 24,0 0,-1 -24,0"
       id="path3199" />
    <path
       style="fill:#000000;fill-opacity:1;fill-rule:nonzero;stroke:none"
       d="m 166,22 0,1 -2,0 0,1 -2,0 0,1 2,0 0,-1 2,0 0,-1 9,0 0,1 1,0 0,1 1,0 0,3 1,0 0,-6 -1,0 0,2 -1,0 0,-1 -1,0 0,-1 -9,0"
       id="path54" />
    <path
       style="fill:#000000;fill-opacity:1;fill-rule:nonzero;stroke:none"
       d="m 394,23 0,1 -1,0 0,1 1,0 0,-1 2,0 0,2 -2,0 0,1 -1,0 0,2 4,0 0,-1 -3,0 0,-1 2,0 0,-1 1,0 0,-2 -1,0 0,-1 -2,0"
       id="path3225" />
    <path
       style="fill:#000000;fill-opacity:1;fill-rule:nonzero;stroke:none"
       d="m 102,24 0,1 27,0 0,-1 -27,0"
       id="path3223" />
    <path
       style="fill:#000000;fill-opacity:1;fill-rule:nonzero;stroke:none"
       d="m 181,25 0,1 -2,0 0,1 2,0 0,-1 15,0 0,-1 -15,0"
       id="path3221" />
    <path
       style="fill:#000000;fill-opacity:1;fill-rule:nonzero;stroke:none"
       d="m 349,25 0,3 -5,0 0,1 6,0 0,-4 -1,0"
       id="path3219" />
    <path
       style="fill:#000000;fill-opacity:1;fill-rule:nonzero;stroke:none"
       d="m 357,25 0,3 -5,0 0,1 6,0 0,-4 -1,0"
       id="path3217" />
    <path
       style="fill:#000000;fill-opacity:1;fill-rule:nonzero;stroke:none"
       d="m 365,25 0,3 -5,0 0,1 6,0 0,-4 -1,0"
       id="path3215" />
    <path
       style="fill:#000000;fill-opacity:1;fill-rule:nonzero;stroke:none"
       d="m 102,26 0,1 15,0 0,-1 -15,0"
       id="path3213" />
    <path
       style="fill:#000000;fill-opacity:1;fill-rule:nonzero;stroke:none"
       d="m 227,26 0,2 -5,0 0,1 6,0 0,-3 -1,0"
       id="path3211" />
    <path
       style="fill:#000000;fill-opacity:1;fill-rule:nonzero;stroke:none"
       d="m 253,26 0,2 -5,0 0,1 6,0 0,-3 -1,0"
       id="path3209" />
    <path
       style="fill:#000000;fill-opacity:1;fill-rule:nonzero;stroke:none"
       d="m 289,26 0,1 1,0 0,-1 -1,0"
       id="path3207" />
    <path
       style="fill:#000000;fill-opacity:1;fill-rule:nonzero;stroke:none"
       d="m 236,27 0,1 -5,0 0,1 6,0 0,-2 -1,0"
       id="path3205" />
    <path
       style="fill:#000000;fill-opacity:1;fill-rule:nonzero;stroke:none"
       d="m 239,27 0,1 -1,0 0,1 2,0 0,-2 -1,0"
       id="path58" />
    <path
       style="fill:#000000;fill-opacity:1;fill-rule:nonzero;stroke:none"
       d="m 175,28 0,1 1,0 0,1 2,0 0,1 1,0 0,1 1,0 0,-2 -1,0 0,-1 -3,0 0,-1 -1,0"
       id="path62" />
    <path
       style="fill:#000000;fill-opacity:1;fill-rule:nonzero;stroke:none"
       d="m 102,29 0,1 25,0 0,-1 -25,0"
       id="path3245" />
    <path
       style="fill:#000000;fill-opacity:1;fill-rule:nonzero;stroke:none"
       d="m 194,29 0,1 -1,0 0,1 1,0 0,2 -1,0 0,1 3,0 0,-1 -1,0 0,-4 -1,0"
       id="path3243" />
    <path
       style="fill:#000000;fill-opacity:1;fill-rule:nonzero;stroke:none"
       d="m 102,31 0,1 21,0 0,-1 -21,0"
       id="path3241" />
    <path
       style="fill:#000000;fill-opacity:1;fill-rule:nonzero;stroke:none"
       d="m 166,31 0,1 -2,0 0,1 -2,0 0,1 2,0 0,-1 2,0 0,-1 9,0 0,1 1,0 0,1 1,0 0,3 1,0 0,-5 -1,0 0,1 -1,0 0,-1 -1,0 0,-1 -9,0"
       id="path3239" />
    <path
       style="fill:#000000;fill-opacity:1;fill-rule:nonzero;stroke:none"
       d="m 349,31 0,3 -5,0 0,1 6,0 0,-4 -1,0"
       id="path3237" />
    <path
       style="fill:#000000;fill-opacity:1;fill-rule:nonzero;stroke:none"
       d="m 357,31 0,3 -5,0 0,1 6,0 0,-4 -1,0"
       id="path3235" />
    <path
       style="fill:#000000;fill-opacity:1;fill-rule:nonzero;stroke:none"
       d="m 365,31 0,3 -5,0 0,1 6,0 0,-4 -1,0"
       id="path66" />
    <path
       style="fill:#000000;fill-opacity:1;fill-rule:nonzero;stroke:none"
       d="m 393,32 0,1 3,0 0,1 -2,0 0,1 2,0 0,2 -3,0 0,1 3,0 0,-1 1,0 0,-2 -1,0 0,-1 1,0 0,-1 -1,0 0,-1 -3,0"
       id="path3261" />
    <path
       style="fill:#000000;fill-opacity:1;fill-rule:nonzero;stroke:none"
       d="m 102,33 0,1 27,0 0,-1 -27,0"
       id="path3259" />
    <path
       style="fill:#000000;fill-opacity:1;fill-rule:nonzero;stroke:none"
       d="m 225,33 0,2 -2,0 0,1 3,0 0,-3 -1,0"
       id="path3257" />
    <path
       style="fill:#000000;fill-opacity:1;fill-rule:nonzero;stroke:none"
       d="m 252,33 0,2 -2,0 0,1 3,0 0,-3 -1,0"
       id="path3255" />
    <path
       style="fill:#000000;fill-opacity:1;fill-rule:nonzero;stroke:none"
       d="m 313,34 0,1 1,0 0,-1 -1,0 z m 1,1 0,1 1,0 0,-1 -1,0 z m 1,1 0,1 1,0 0,-1 -1,0 z m 0,1 -1,0 0,1 1,0 0,-1 z m -1,1 -1,0 0,1 1,0 0,-1 z m -1,0 0,-1 -1,0 0,1 1,0 z m -1,0 -1,0 0,1 1,0 0,-1 z m -1,1 -1,0 0,1 1,0 0,-1 z m -1,1 -1,0 0,1 1,0 0,-1 z m -1,1 -1,0 0,1 1,0 0,-1 z m -1,1 -1,0 0,1 1,0 0,-1 z m -1,1 -1,0 0,1 1,0 0,-1 z m 0,-1 0,-1 -1,0 0,1 1,0 z m 3,-3 0,-1 -1,0 0,1 1,0 z m -1,-1 0,-2 -2,0 0,2 -1,0 0,2 2,0 0,-2 1,0 z m 3,-1 0,-1 -1,0 0,1 1,0 z m 1,0 1,0 0,-1 -1,0 0,1 z"
       id="path3253" />
    <path
       style="fill:#000000;fill-opacity:1;fill-rule:nonzero;stroke:none"
       d="m 102,35 0,1 18,0 0,-1 -18,0"
       id="path3251" />
    <path
       style="fill:#000000;fill-opacity:1;fill-rule:nonzero;stroke:none"
       d="m 181,35 0,1 -2,0 0,1 2,0 0,-1 15,0 0,-1 -15,0"
       id="path70" />
    <path
       style="fill:#000000;fill-opacity:1;fill-rule:nonzero;stroke:none"
       d="m 175,37 0,1 1,0 0,1 2,0 0,1 1,0 0,1 1,0 0,-2 -1,0 0,-1 -3,0 0,-1 -1,0"
       id="path3293" />
    <path
       style="fill:#000000;fill-opacity:1;fill-rule:nonzero;stroke:none"
       d="m 239,37 0,5 -2,0 0,1 3,0 0,-6 -1,0"
       id="path3291" />
    <path
       style="fill:#000000;fill-opacity:1;fill-rule:nonzero;stroke:none"
       d="m 349,37 0,3 -5,0 0,1 6,0 0,-4 -1,0"
       id="path3289" />
    <path
       style="fill:#000000;fill-opacity:1;fill-rule:nonzero;stroke:none"
       d="m 357,37 0,3 -5,0 0,1 6,0 0,-4 -1,0"
       id="path3287" />
    <path
       style="fill:#000000;fill-opacity:1;fill-rule:nonzero;stroke:none"
       d="m 365,37 0,3 -5,0 0,1 6,0 0,-4 -1,0"
       id="path3285" />
    <path
       style="fill:#000000;fill-opacity:1;fill-rule:nonzero;stroke:none"
       d="m 102,38 0,1 27,0 0,-1 -27,0"
       id="path3283" />
    <path
       style="fill:#000000;fill-opacity:1;fill-rule:nonzero;stroke:none"
       d="m 193,38 0,1 -1,0 0,1 1,0 0,-1 2,0 0,1 -1,0 0,1 -1,0 0,1 -1,0 0,1 4,0 0,-1 -2,0 0,-1 1,0 0,-1 1,0 0,-1 -1,0 0,-1 -2,0"
       id="path3281" />
    <path
       style="fill:#000000;fill-opacity:1;fill-rule:nonzero;stroke:none"
       d="m 232,39 0,2 -2,0 0,1 3,0 0,-3 -1,0"
       id="path3279" />
    <path
       style="fill:#000000;fill-opacity:1;fill-rule:nonzero;stroke:none"
       d="m 246,39 0,2 -2,0 0,1 3,0 0,-3 -1,0"
       id="path3277" />
    <path
       style="fill:#000000;fill-opacity:1;fill-rule:nonzero;stroke:none"
       d="m 102,40 0,1 8,0 0,-1 -8,0"
       id="path3275" />
    <path
       style="fill:#000000;fill-opacity:1;fill-rule:nonzero;stroke:none"
       d="m 395,41 0,1 -1,0 0,1 1,0 0,1 -1,0 0,-1 -1,0 0,1 -1,0 0,1 3,0 0,2 1,0 0,-2 1,0 0,-1 -1,0 0,-3 -1,0 z"
       id="path3273" />
    <path
       style="fill:#000000;fill-opacity:1;fill-rule:nonzero;stroke:none"
       d="m 304,43 0,1 1,0 0,-1 -1,0"
       id="path3271" />
    <path
       style="fill:#000000;fill-opacity:1;fill-rule:nonzero;stroke:none"
       d="m 349,43 0,3 -5,0 0,1 6,0 0,-4 -1,0"
       id="path3269" />
    <path
       style="fill:#000000;fill-opacity:1;fill-rule:nonzero;stroke:none"
       d="m 357,43 0,3 -5,0 0,1 6,0 0,-4 -1,0"
       id="path3267" />
    <path
       style="fill:#000000;fill-opacity:1;fill-rule:nonzero;stroke:none"
       d="m 365,43 0,3 -5,0 0,1 6,0 0,-4 -1,0"
       id="path74" />
    <path
       style="fill:#000000;fill-opacity:1;fill-rule:nonzero;stroke:none"
       d="m 102,45 0,1 8,0 0,-1 -8,0"
       id="path3303" />
    <path
       style="fill:#000000;fill-opacity:1;fill-rule:nonzero;stroke:none"
       d="m 291,46 0,1 -1,0 0,1 1,0 0,-1 1,0 0,-1 -1,0"
       id="path3301" />
    <path
       style="fill:#000000;fill-opacity:1;fill-rule:nonzero;stroke:none"
       d="m 295,46 0,1 1,0 0,-1 -1,0"
       id="path3299" />
    <path
       style="fill:#000000;fill-opacity:1;fill-rule:nonzero;stroke:none"
       d="m 288,47 0,1 1,0 0,-1 -1,0"
       id="path78" />
    <path
       style="fill:#000000;fill-opacity:1;fill-rule:nonzero;stroke:none"
       d="m 41,54 0,1 -1,0 0,13 1,0 0,1 32,0 0,-1 1,0 0,-13 -1,0 0,-1 -32,0 z m 1,1 6,0 0,1 1,0 0,1 1,0 0,7 -1,0 0,1 -1,0 0,1 -6,0 0,-11 z m 18,0 2,0 0,3 2,0 0,1 -2,0 0,6 2,0 0,1 -3,0 0,-1 -1,0 0,-6 -1,0 0,-1 1,0 0,-3 z m -8,3 5,0 0,1 1,0 0,7 -6,0 0,-1 -1,0 0,-3 1,0 0,-1 4,0 0,-2 -4,0 0,-1 z m 14,0 5,0 0,1 1,0 0,7 -6,0 0,-1 -1,0 0,-3 1,0 0,-1 4,0 0,-2 -4,0 0,-1 z"
       id="path82" />
    <path
       style="fill:#000000;fill-opacity:1;fill-rule:nonzero;stroke:none"
       d="m 99,55 0,9 1,0 0,2 2,0 0,-1 1,0 0,-1 2,0 0,1 1,0 0,1 2,0 0,-2 1,0 0,-9 -2,0 0,9 -1,0 0,-1 -1,0 0,-2 -2,0 0,2 -1,0 0,1 -1,0 0,-9 -2,0"
       id="path3347" />
    <path
       style="fill:#000000;fill-opacity:1;fill-rule:nonzero;stroke:none"
       d="m 129,55 0,3 -4,0 0,1 -1,0 0,6 1,0 0,1 6,0 0,-11 -2,0 z m -3,4 3,0 0,6 -3,0 0,-6 z"
       id="path3345" />
    <path
       style="fill:#000000;fill-opacity:1;fill-rule:nonzero;stroke:none"
       d="m 156,55 0,1 -1,0 0,1 -1,0 0,1 -1,0 0,8 2,0 0,-4 4,0 0,4 2,0 0,-8 -1,0 0,-1 -1,0 0,-1 -1,0 0,-1 -2,0 z m 0,2 2,0 0,1 1,0 0,3 -4,0 0,-3 1,0 0,-1 z"
       id="path3343" />
    <path
       style="fill:#000000;fill-opacity:1;fill-rule:nonzero;stroke:none"
       d="m 191,55 0,3 -4,0 0,1 -1,0 0,6 1,0 0,1 6,0 0,-11 -2,0 z m -3,4 3,0 0,6 -3,0 0,-6 z"
       id="path3341" />
    <path
       style="fill:#000000;fill-opacity:1;fill-rule:nonzero;stroke:none"
       d="m 221,55 0,1 3,0 0,10 3,0 0,-10 3,0 0,-1 -9,0"
       id="path3339" />
    <path
       style="fill:#000000;fill-opacity:1;fill-rule:nonzero;stroke:none"
       d="m 231,55 0,2 3,0 0,-2 -3,0"
       id="path3337" />
    <path
       style="fill:#000000;fill-opacity:1;fill-rule:nonzero;stroke:none"
       d="m 279,55 0,9 1,0 0,2 2,0 0,-1 1,0 0,-1 2,0 0,1 1,0 0,1 2,0 0,-2 1,0 0,-9 -2,0 0,9 -1,0 0,-1 -1,0 0,-2 -2,0 0,2 -1,0 0,1 -1,0 0,-9 -2,0"
       id="path3335" />
    <path
       style="fill:#000000;fill-opacity:1;fill-rule:nonzero;stroke:none"
       d="m 304,55 0,11 2,0 0,-11 -2,0"
       id="path3333" />
    <path
       style="fill:#000000;fill-opacity:1;fill-rule:nonzero;stroke:none"
       d="m 312,55 0,3 -4,0 0,1 -1,0 0,6 1,0 0,1 6,0 0,-11 -2,0 z m -3,4 3,0 0,6 -3,0 0,-6 z"
       id="path3331" />
    <path
       style="fill:#000000;fill-opacity:1;fill-rule:nonzero;stroke:none"
       d="m 343,55 0,1 -1,0 0,1 -1,0 0,7 1,0 0,1 1,0 0,1 5,0 0,-1 1,0 0,-2 -1,0 0,1 -1,0 0,1 -3,0 0,-1 -1,0 0,-7 1,0 0,-1 3,0 0,1 1,0 0,1 1,0 0,-2 -1,0 0,-1 -5,0"
       id="path3329" />
    <path
       style="fill:#000000;fill-opacity:1;fill-rule:nonzero;stroke:none"
       d="m 358,55 0,11 2,0 0,-11 -2,0"
       id="path3327" />
    <path
       style="fill:#000000;fill-opacity:1;fill-rule:nonzero;stroke:none"
       d="m 394,55 0,1 -1,0 0,3 1,0 0,1 1,0 0,1 3,0 0,1 1,0 0,3 -4,0 0,-2 -2,0 0,2 1,0 0,1 6,0 0,-1 1,0 0,-3 -1,0 0,-1 -1,0 0,-1 -3,0 0,-1 -1,0 0,-3 4,0 0,2 2,0 0,-2 -1,0 0,-1 -6,0"
       id="path3325" />
    <path
       style="fill:#000000;fill-opacity:1;fill-rule:nonzero;stroke:none"
       d="m 402,55 0,11 2,0 0,-7 3,0 0,7 2,0 0,-7 -1,0 0,-1 -4,0 0,-3 -2,0"
       id="path3323" />
    <path
       style="fill:#000000;fill-opacity:1;fill-rule:nonzero;stroke:none"
       d="m 427,55 0,3 -1,0 0,1 1,0 0,6 1,0 0,1 3,0 0,-1 -2,0 0,-6 2,0 0,-1 -2,0 0,-3 -2,0"
       id="path3321" />
    <path
       style="fill:#000000;fill-opacity:1;fill-rule:nonzero;stroke:none"
       d="m 44,56 0,9 3,0 0,-1 1,0 0,-7 -1,0 0,-1 -3,0"
       id="path3319" />
    <path
       style="fill:#000000;fill-opacity:1;fill-rule:nonzero;stroke:none"
       d="m 473,56 0,3 -3,0 0,2 3,0 0,3 1,0 0,-1 1,0 0,-1 1,0 0,-1 1,0 0,-2 -1,0 0,-1 -1,0 0,-1 -1,0 0,-1 -1,0"
       id="path86" />
    <path
       style="fill:#000000;fill-opacity:1;fill-rule:nonzero;stroke:none"
       d="m 111,58 0,1 -1,0 0,6 1,0 0,1 5,0 0,-1 1,0 0,-6 -1,0 0,-1 -5,0 z m 1,1 3,0 0,6 -3,0 0,-6 z"
       id="path3383" />
    <path
       style="fill:#000000;fill-opacity:1;fill-rule:nonzero;stroke:none"
       d="m 118,58 0,8 2,0 0,-5 1,0 0,-1 1,0 0,-1 1,0 0,-1 -2,0 0,1 -1,0 0,-1 -2,0"
       id="path3381" />
    <path
       style="fill:#000000;fill-opacity:1;fill-rule:nonzero;stroke:none"
       d="m 163,58 0,1 -1,0 0,5 1,0 0,1 4,0 0,2 -4,0 0,1 5,0 0,-1 1,0 0,-9 -6,0 z m 1,1 3,0 0,5 -3,0 0,-5 z"
       id="path3379" />
    <path
       style="fill:#000000;fill-opacity:1;fill-rule:nonzero;stroke:none"
       d="m 171,58 0,1 -1,0 0,6 1,0 0,1 5,0 0,-1 1,0 0,-1 -2,0 0,1 -3,0 0,-3 5,0 0,-3 -1,0 0,-1 -5,0 z m 1,1 3,0 0,2 -3,0 0,-2 z"
       id="path3377" />
    <path
       style="fill:#000000;fill-opacity:1;fill-rule:nonzero;stroke:none"
       d="m 178,58 0,8 2,0 0,-7 3,0 0,7 2,0 0,-7 -1,0 0,-1 -6,0"
       id="path3375" />
    <path
       style="fill:#000000;fill-opacity:1;fill-rule:nonzero;stroke:none"
       d="m 195,58 0,1 4,0 0,2 -4,0 0,1 -1,0 0,3 1,0 0,1 6,0 0,-7 -1,0 0,-1 -5,0 z m 1,4 3,0 0,3 -3,0 0,-3 z"
       id="path3373" />
    <path
       style="fill:#000000;fill-opacity:1;fill-rule:nonzero;stroke:none"
       d="m 231,58 0,8 3,0 0,-8 -3,0"
       id="path3371" />
    <path
       style="fill:#000000;fill-opacity:1;fill-rule:nonzero;stroke:none"
       d="m 235,58 0,8 3,0 0,-7 1,0 0,7 3,0 0,-7 1,0 0,7 3,0 0,-7 -1,0 0,-1 -4,0 0,1 -1,0 0,-1 -5,0"
       id="path3369" />
    <path
       style="fill:#000000;fill-opacity:1;fill-rule:nonzero;stroke:none"
       d="m 248,58 0,1 -1,0 0,6 1,0 0,1 6,0 0,-1 1,0 0,-1 -3,0 0,1 -2,0 0,-3 5,0 0,-3 -1,0 0,-1 -6,0 z m 2,1 2,0 0,2 -2,0 0,-2 z"
       id="path3367" />
    <path
       style="fill:#000000;fill-opacity:1;fill-rule:nonzero;stroke:none"
       d="m 291,58 0,1 -1,0 0,6 1,0 0,1 5,0 0,-1 1,0 0,-6 -1,0 0,-1 -5,0 z m 1,1 3,0 0,6 -3,0 0,-6 z"
       id="path3365" />
    <path
       style="fill:#000000;fill-opacity:1;fill-rule:nonzero;stroke:none"
       d="m 298,58 0,8 2,0 0,-5 1,0 0,-1 1,0 0,-1 1,0 0,-1 -2,0 0,1 -1,0 0,-1 -2,0"
       id="path3363" />
    <path
       style="fill:#000000;fill-opacity:1;fill-rule:nonzero;stroke:none"
       d="m 351,58 0,1 4,0 0,2 -4,0 0,1 -1,0 0,3 1,0 0,1 6,0 0,-7 -1,0 0,-1 -5,0 z m 1,4 3,0 0,3 -3,0 0,-3 z"
       id="path3361" />
    <path
       style="fill:#000000;fill-opacity:1;fill-rule:nonzero;stroke:none"
       d="m 362,58 0,1 -1,0 0,6 1,0 0,1 5,0 0,-1 1,0 0,-1 -2,0 0,1 -3,0 0,-6 3,0 0,1 2,0 0,-1 -1,0 0,-1 -5,0"
       id="path3359" />
    <path
       style="fill:#000000;fill-opacity:1;fill-rule:nonzero;stroke:none"
       d="m 411,58 0,1 -1,0 0,6 1,0 0,1 5,0 0,-1 1,0 0,-1 -2,0 0,1 -3,0 0,-3 5,0 0,-3 -1,0 0,-1 -5,0 z m 1,1 3,0 0,2 -3,0 0,-2 z"
       id="path3357" />
    <path
       style="fill:#000000;fill-opacity:1;fill-rule:nonzero;stroke:none"
       d="m 419,58 0,1 -1,0 0,6 1,0 0,1 5,0 0,-1 1,0 0,-1 -2,0 0,1 -3,0 0,-3 5,0 0,-3 -1,0 0,-1 -5,0 z m 1,1 3,0 0,2 -3,0 0,-2 z"
       id="path90" />
    <path
       style="fill:#000000;fill-opacity:1;fill-rule:nonzero;stroke:none"
       d="m 53,62 0,3 3,0 0,-3 -3,0"
       id="path3407" />
    <path
       style="fill:#000000;fill-opacity:1;fill-rule:nonzero;stroke:none"
       d="m 67,62 0,3 3,0 0,-3 -3,0"
       id="path94" />
    <path
       style="fill:#000000;fill-opacity:1;fill-rule:nonzero;stroke:none"
       d="m 1,155 0,2 1,0 0,1 1,0 0,1 2,0 0,-1 -2,0 0,-1 -1,0 0,-2 -1,0"
       id="path3417" />
    <path
       style="fill:#000000;fill-opacity:1;fill-rule:nonzero;stroke:none"
       d="m 478,155 0,2 -1,0 0,1 -2,0 0,1 2,0 0,-1 1,0 0,-1 1,0 0,-2 -1,0"
       id="path3415" />
    <path
       style="fill:#000000;fill-opacity:1;fill-rule:nonzero;stroke:none"
       d="m 5,159 0,1 470,0 0,-1 -470,0"
       id="path98" />
  </g>
</svg>
