<?xml version="1.0" encoding="UTF-8" standalone="no"?>
<!-- CLEANED: 1515893866/19e6405c9db19832ce5f5ce29e056883 -->
<!-- Created with Inkscape (http://www.inkscape.org/) -->
<svg
   xmlns:dc="http://purl.org/dc/elements/1.1/"
   xmlns:cc="http://creativecommons.org/ns#"
   xmlns:rdf="http://www.w3.org/1999/02/22-rdf-syntax-ns#"
   xmlns:svg="http://www.w3.org/2000/svg"
   xmlns="http://www.w3.org/2000/svg"
   xmlns:xlink="http://www.w3.org/1999/xlink"
   xmlns:sodipodi="http://sodipodi.sourceforge.net/DTD/sodipodi-0.dtd"
   xmlns:inkscape="http://www.inkscape.org/namespaces/inkscape"
   id="svg2"
   version="1.1"
   inkscape:version="0.48.3.1 r9886"
   width="240"
   height="160"
   sodipodi:docname="desktop-empty-sibosiena-1-1.svg">
  <metadata
     id="metadata8">
    <rdf:RDF>
      <cc:Work
         rdf:about="">
        <dc:format>image/svg+xml</dc:format>
        <dc:type
           rdf:resource="http://purl.org/dc/dcmitype/StillImage" />
        <dc:title />
      </cc:Work>
    </rdf:RDF>
  </metadata>
  <defs
     id="defs6" />
  <sodipodi:namedview
     pagecolor="#ffffff"
     bordercolor="#666666"
     borderopacity="1"
     objecttolerance="10"
     gridtolerance="10"
     guidetolerance="10"
     inkscape:pageopacity="0"
     inkscape:pageshadow="2"
     id="namedview4"
     showgrid="false" />
  <g
     inkscape:groupmode="layer"
     id="layer1"
     inkscape:label="XX_SRC"
     sodipodi:insensitive="true">
    <image
       xlink:href="../../../src/incoming/2018/guidebookgallery/desktop-empty-sibosiena-1-1.png"
       checksum="4148e8b9b8b41837"
       y="0"
       x="0"
       id="image10"
       height="160"
       width="240" />
  </g>
  <g
     inkscape:groupmode="layer"
     id="layer2"
     inkscape:label="XX_TRACE"
     sodipodi:insensitive="true">
    <path
       style="fill:#b2b2b2;fill-opacity:1;fill-rule:nonzero;stroke:none"
       d="m 0,0 0,5 1,0 0,150 -1,0 0,5 5,0 0,-1 230,0 0,1 5,0 0,-5 -1,0 0,-150 1,0 0,-5 -5,0 0,1 L 5,1 5,0 0,0"
       id="path12" />
    <path
       style="fill:#000000;fill-opacity:1;fill-rule:nonzero;stroke:none"
       d="M 5,0 5,1 235,1 235,0 5,0"
       id="path3345" />
    <path
       style="fill:#000000;fill-opacity:1;fill-rule:nonzero;stroke:none"
       d="M 3,1 3,2 2,2 2,3 1,3 1,5 2,5 2,3 3,3 3,2 5,2 5,1 3,1"
       id="path3343" />
    <path
       style="fill:#000000;fill-opacity:1;fill-rule:nonzero;stroke:none"
       d="m 235,1 0,1 2,0 0,1 1,0 0,2 1,0 0,-2 -1,0 0,-1 -1,0 0,-1 -2,0"
       id="path3341" />
    <path
       style="fill:#000000;fill-opacity:1;fill-rule:nonzero;stroke:none"
       d="m 31,3 0,1 4,0 0,-1 -4,0 z m 4,1 0,1 3,0 0,-1 -3,0 z m 3,1 0,1 3,0 0,-1 -3,0 z m 3,1 0,1 3,0 0,-1 -3,0 z m 3,1 0,1 1,0 0,3 -1,0 0,1 3,0 0,-1 -1,0 0,-3 4,0 0,-4 -1,0 0,3 -5,0 z m 6,-3 4,0 0,-1 -4,0 0,1 z m 4,0 0,1 3,0 0,-1 -3,0 z m 3,1 0,8 -1,0 0,1 -1,0 0,3 -1,0 0,3 -1,0 0,3 1,0 0,-2 1,0 0,-2 1,0 0,-2 1,0 0,5 1,0 0,-17 -1,0 z m 0,17 -1,0 0,2 1,0 0,-2 z m -1,2 -1,0 0,2 1,0 0,-2 z m -1,2 -1,0 0,2 -1,0 0,2 -1,0 0,2 -1,0 0,2 -1,0 0,2 1,0 0,-1 1,0 0,-1 1,0 0,-1 1,0 0,1 1,0 0,-2 1,0 0,-2 -1,0 0,1 -1,0 0,1 -1,0 0,-1 1,0 0,-1 1,0 0,-1 1,0 0,1 1,0 0,-2 -1,0 0,-1 -1,0 0,-1 z m -1,8 -1,0 0,1 -1,0 0,1 -1,0 0,1 1,0 0,1 1,0 0,-2 1,0 0,-2 z m -2,4 -1,0 0,1 1,0 0,-1 z m -1,1 -1,0 0,1 -1,0 0,1 -1,0 0,-1 1,0 0,-1 1,0 0,-1 1,0 0,-1 -1,0 0,-1 -1,0 0,1 -1,0 0,2 -1,0 0,2 -1,0 0,2 -1,0 0,1 -1,0 0,2 -1,0 0,2 -1,0 0,-6 1,0 0,-2 -1,0 0,1 -2,0 0,1 1,0 0,2 -1,0 0,1 1,0 0,3 -1,0 0,-1 -3,0 0,-1 -3,0 0,-1 -2,0 0,-1 -3,0 0,-1 -3,0 0,-1 -3,0 0,-1 -3,0 0,-1 -2,0 0,-1 -3,0 0,-1 -3,0 0,2 1,0 0,1 1,0 0,1 -1,0 0,-1 -1,0 0,-1 -1,0 0,1 -1,0 0,1 2,0 0,1 3,0 0,1 4,0 0,-1 -1,0 0,-1 1,0 0,1 1,0 0,1 -1,0 0,1 3,0 0,-1 -1,0 0,-1 1,0 0,1 1,0 0,1 -1,0 0,1 3,0 0,-1 -1,0 0,-1 1,0 0,1 1,0 0,1 -1,0 0,1 3,0 0,-1 -1,0 0,-1 1,0 0,1 1,0 0,1 -1,0 0,1 3,0 0,-1 -1,0 0,-1 1,0 0,1 1,0 0,1 -1,0 0,1 4,0 0,1 4,0 0,-1 -1,0 0,-1 1,0 0,1 1,0 0,1 -1,0 0,1 5,0 0,-1 -1,0 0,-1 1,0 0,-1 1,0 0,-1 1,0 0,1 1,0 0,-2 1,0 0,-1 1,0 0,-2 -1,0 0,1 -1,0 0,1 -1,0 0,-1 1,0 0,-1 1,0 0,-1 1,0 0,1 1,0 0,-2 1,0 0,-2 z m -5,9 -1,0 0,1 1,0 0,-1 z m -1,1 -1,0 0,1 1,0 0,-1 z m -33,-11 0,-4 1,0 0,-1 -2,0 0,-2 1,0 0,1 2,0 0,1 4,0 0,-1 -3,0 0,-1 -1,0 0,-3 1,0 0,-4 -1,0 0,1 -1,0 0,2 -1,0 0,2 -1,0 0,1 -1,0 0,4 1,0 0,4 1,0 z m 3,-14 1,0 0,-1 1,0 0,-2 -1,0 0,1 -1,0 0,2 z m 2,-3 1,0 0,-2 -1,0 0,2 z m 1,-2 4,0 0,1 2,0 0,2 -1,0 0,1 4,0 0,-1 -2,0 0,-3 1,0 0,-3 -1,0 0,2 -1,0 0,-1 -2,0 0,-2 -1,0 0,2 -1,0 0,1 -2,0 0,1 z m 4,-4 1,0 0,-1 -1,0 0,1 z m 1,-1 4,0 0,-1 -2,0 0,-1 -1,0 0,1 -1,0 0,1 z m 2,-2 1,0 0,-1 -1,0 0,1 z m 1,-1 4,0 0,-1 -2,0 0,-1 -1,0 0,1 -1,0 0,1 z m 2,-2 1,0 0,-1 4,0 0,-1 -3,0 0,-2 -1,0 0,2 -1,0 0,2 z m 2,-4 1,0 0,-1 -1,0 0,1 z m -15,36 1,0 0,1 1,0 0,1 -1,0 0,-1 -1,0 0,-1 z m 18,6 1,0 0,1 -1,0 0,-1 z m 2,0 1,0 0,1 1,0 0,1 -1,0 0,-1 -1,0 0,-1 z"
       id="path3339" />
    <path
       style="fill:#000000;fill-opacity:1;fill-rule:nonzero;stroke:none"
       d="m 93,3 0,1 1,0 0,-1 -1,0 z m 1,1 0,2 1,0 0,-2 -1,0 z m 1,2 0,1 1,0 0,-1 -1,0 z m 1,1 0,1 1,0 0,-1 -1,0 z m 1,1 0,1 2,0 0,-1 -2,0 z m 2,1 0,1 1,0 0,-1 -1,0 z m 1,1 0,1 1,0 0,-1 -1,0 z m 1,1 0,1 2,0 0,-1 -2,0 z m 2,1 0,1 2,0 0,-1 -2,0 z m 2,1 0,1 5,0 0,-1 -5,0 z m 5,0 1,0 0,4 1,0 0,-6 -1,0 0,1 -1,0 0,1 z m 1,4 -1,0 0,2 1,0 0,-2 z m -1,2 -1,0 0,2 1,0 0,-2 z m 0,2 0,1 1,0 0,-1 -1,0 z m 1,1 0,1 1,0 0,-1 -1,0 z m 0,1 -1,0 0,1 1,0 0,-1 z m -1,1 -1,0 0,1 1,0 0,-1 z m 0,1 0,1 1,0 0,-1 -1,0 z m 1,1 0,1 1,0 0,-1 -1,0 z m 0,1 -1,0 0,1 -1,0 0,1 2,0 0,-2 z m -2,2 -2,0 0,1 -1,0 0,1 -1,0 0,1 -1,0 0,1 -1,0 0,1 -2,0 0,1 -1,0 0,1 -1,0 0,1 -2,0 0,1 -1,0 0,1 -1,0 0,1 -1,0 0,1 -2,0 0,1 -2,0 0,1 -1,0 0,1 -1,0 0,1 -2,0 0,1 -1,0 0,1 -3,0 0,-1 -1,0 0,-1 -2,0 0,-1 -1,0 0,-1 -2,0 0,-1 -1,0 0,-1 -1,0 0,-1 -2,0 0,-1 -1,0 0,-1 -2,0 0,-1 -1,0 0,-1 -1,0 0,-1 -1,0 0,2 1,0 0,1 1,0 0,1 1,0 0,1 1,0 0,1 1,0 0,1 1,0 0,1 1,0 0,1 1,0 0,1 1,0 0,-1 1,0 0,1 1,0 0,1 1,0 0,1 1,0 0,1 1,0 0,1 1,0 0,1 1,0 0,-1 1,0 0,1 1,0 0,-1 1,0 0,1 1,0 0,-1 1,0 0,-1 1,0 0,-1 1,0 0,-1 1,0 0,-1 1,0 0,-1 1,0 0,-1 1,0 0,1 1,0 0,-1 1,0 0,-1 1,0 0,-1 1,0 0,-1 1,0 0,-1 1,0 0,-1 1,0 0,1 1,0 0,-1 1,0 0,-1 1,0 0,-1 1,0 0,-1 1,0 0,-1 1,0 0,-1 1,0 0,-1 1,0 0,-1 1,0 0,-2 z m 0,2 0,1 1,0 0,-1 -1,0 z m 1,1 0,1 1,0 0,-1 -1,0 z m 1,1 0,1 1,0 0,-1 -1,0 z m 0,1 -1,0 0,1 1,0 0,-1 z m -1,0 0,-1 -1,0 0,1 1,0 z m -1,0 -1,0 0,1 1,0 0,-1 z m -1,1 -1,0 0,1 1,0 0,-1 z m -1,1 -1,0 0,1 1,0 0,-1 z m -1,1 -1,0 0,1 1,0 0,-1 z m -1,1 -1,0 0,1 1,0 0,-1 z m -1,0 0,-1 -1,0 0,1 1,0 z m -1,0 -1,0 0,1 1,0 0,-1 z m -1,1 -1,0 0,1 1,0 0,-1 z m -1,1 -1,0 0,1 1,0 0,-1 z m -1,0 0,-1 -1,0 0,1 1,0 z m -1,0 -1,0 0,1 1,0 0,-1 z m -1,1 -1,0 0,1 1,0 0,-1 z m -1,1 -1,0 0,1 1,0 0,-1 z m -1,1 -1,0 0,1 1,0 0,-1 z m -1,1 -1,0 0,1 1,0 0,-1 z m -1,1 -1,0 0,1 1,0 0,-1 z m -1,0 0,-1 -1,0 0,1 1,0 z m -1,0 -1,0 0,1 1,0 0,-1 z m -1,1 -1,0 0,1 1,0 0,-1 z m -1,1 -1,0 0,1 1,0 0,-1 z m -5,3 -1,0 0,1 1,0 0,-1 z m -2,0 -1,0 0,1 1,0 0,-1 z m -3,-1 -1,0 0,1 1,0 0,-1 z m -1,0 0,-1 -1,0 0,1 1,0 z m -1,-1 0,-1 -1,0 0,1 1,0 z m -1,-1 0,-1 -1,0 0,1 1,0 z m -1,-1 0,-1 -1,0 0,1 1,0 z m -3,-2 -1,0 0,1 1,0 0,-1 z m -1,0 0,-1 -1,0 0,1 1,0 z m -1,-1 0,-1 -1,0 0,1 1,0 z m -1,-1 0,-1 -1,0 0,1 1,0 z m -1,-1 0,-1 -1,0 0,1 1,0 z m -1,-1 0,-1 -1,0 0,1 1,0 z m -1,-1 0,-1 -1,0 0,1 1,0 z m -1,-1 0,-1 -1,0 0,1 1,0 z m 0,-3 0,-1 -1,0 0,1 1,0 z m -1,-1 0,-1 -1,0 0,1 1,0 z m 0,-1 1,0 0,-1 -1,0 0,1 z m 1,-1 1,0 0,-2 -1,0 0,2 z m 0,-2 0,-2 3,0 0,-2 -1,0 0,-2 -1,0 0,3 -1,0 0,-1 -1,0 0,4 1,0 z m 1,-6 0,-3 5,0 0,-1 -5,0 0,-2 -1,0 0,6 1,0 z m 5,-4 2,0 0,-1 -2,0 0,1 z m 2,-1 1,0 0,-1 -1,0 0,1 z m 1,-1 2,0 0,-1 -2,0 0,1 z m 2,-1 1,0 0,-1 -1,0 0,1 z m 1,-1 2,0 0,-1 -2,0 0,1 z m 2,-1 1,0 0,-1 -1,0 0,1 z m 1,-1 1,0 0,-1 -1,0 0,1 z m 1,-1 2,0 0,-1 -2,0 0,1 z m 2,-1 2,0 0,-1 -2,0 0,1 z m 2,-1 1,0 0,-1 -1,0 0,1 z m 1,-1 1,0 0,-1 -1,0 0,1 z m 1,-1 1,0 0,-1 -1,0 0,1 z m 1,-1 1,0 0,-1 -1,0 0,1 z m 1,-1 1,0 0,-1 -1,0 0,1 z m 1,-1 1,0 0,-1 -1,0 0,1 z m 1,-1 1,0 0,-1 -1,0 0,1 z"
       id="path14" />
    <path
       style="fill:#000000;fill-opacity:1;fill-rule:nonzero;stroke:none"
       d="m 136,4 0,1 3,0 0,-1 -3,0 z m 0,1 -1,0 0,1 1,0 0,-1 z m 0,1 0,1 2,0 0,-1 -2,0 z m -1,0 -1,0 0,1 -1,0 0,-1 -1,0 0,1 -1,0 0,1 -1,0 0,2 1,0 0,1 1,0 0,-1 1,0 0,-1 1,0 0,-1 1,0 0,-2 z m -4,5 -1,0 0,1 1,0 0,-1 z m -1,1 -1,0 0,-1 -1,0 0,1 -1,0 0,1 -1,0 0,2 1,0 0,1 1,0 0,-1 1,0 0,-2 1,0 0,-1 z m -3,4 -1,0 0,1 1,0 0,-1 z m -1,1 -1,0 0,2 1,0 0,-2 z m 0,2 0,1 2,0 0,-1 -2,0 z m -1,0 -1,0 0,1 1,0 0,-1 z m -1,1 -1,0 0,2 1,0 0,-2 z m -1,2 -1,0 0,1 1,0 0,-1 z m -1,1 -1,0 0,1 1,0 0,-1 z m -1,1 -1,0 0,2 1,0 0,-2 z m -1,2 -1,0 0,1 1,0 0,-1 z m -1,1 -1,0 0,1 1,0 0,-1 z m 0,1 0,1 1,0 0,1 3,0 0,-1 -2,0 0,-1 -2,0 z m 4,2 0,1 1,0 0,-1 -1,0 z m 1,1 0,1 2,0 0,-1 -2,0 z m 2,1 0,1 1,0 0,-1 -1,0 z m 1,1 0,1 1,0 0,-1 -1,0 z m 1,1 0,1 1,0 0,-1 -1,0 z m 1,1 0,1 1,0 0,-1 -1,0 z m 1,1 0,1 1,0 0,-1 -1,0 z m 1,1 0,1 3,0 0,-1 -1,0 0,-2 -1,0 0,2 -1,0 z m 2,-2 1,0 0,-2 -1,0 0,2 z m 1,-2 1,0 0,-1 -1,0 0,1 z m 1,-1 1,0 0,-1 1,0 0,-2 -1,0 0,1 -3,0 0,1 2,0 0,1 z m -2,-1 -1,0 0,1 1,0 0,-1 z m 4,-2 1,0 0,-1 -1,0 0,1 z m 1,-1 1,0 0,-2 1,0 0,-1 -3,0 0,1 1,0 0,2 z m -1,-2 -1,0 0,1 1,0 0,-1 z m 3,-1 1,0 0,-2 -1,0 0,2 z m 1,-2 1,0 0,-1 -1,0 0,1 z m 1,-1 1,0 0,2 1,0 0,-3 -1,0 0,-1 -3,0 0,1 2,0 0,1 z m -2,-1 -1,0 0,1 1,0 0,-1 z m 3,-1 1,0 0,-1 -1,0 0,1 z m 1,-1 1,0 0,-2 -1,0 0,2 z m 1,-2 1,0 0,-1 -1,0 0,1 z m 1,-1 1,0 0,2 1,0 0,-3 -1,0 0,-1 -3,0 0,1 2,0 0,1 z m -2,-1 -1,0 0,1 1,0 0,-1 z m 3,-1 1,0 0,-1 -1,0 0,1 z m 1,-1 1,0 0,-1 1,0 0,-1 -1,0 0,-1 -1,0 0,3 z m 0,-3 0,-1 -1,0 0,1 1,0 z m -1,-1 0,-1 -1,0 0,1 1,0 z m -1,-1 0,-1 -1,0 0,1 1,0 z m 4,3 7,0 0,-1 -7,0 0,1 z m -10,15 0,2 1,0 0,-2 -1,0 z m -4,6 0,2 1,0 0,-2 -1,0 z m -2,5 8,0 0,-1 -8,0 0,1 z m -14,-7 -1,0 0,1 1,0 0,-1 z m -1,1 -1,0 0,1 1,0 0,-1 z m 0,1 0,1 1,0 0,-1 -1,0 z m 1,1 0,1 2,0 0,-1 -2,0 z m 2,1 0,3 1,0 0,1 1,0 0,1 1,0 0,-1 1,0 0,1 1,0 0,1 1,0 0,1 1,0 0,1 1,0 0,1 1,0 0,1 3,0 0,1 1,0 0,-1 1,0 0,-1 1,0 0,1 1,0 0,-1 1,0 0,1 1,0 0,-1 1,0 0,1 1,0 0,-1 1,0 0,1 1,0 0,1 1,0 0,-1 1,0 0,1 1,0 0,-1 1,0 0,1 1,0 0,1 1,0 0,-1 1,0 0,-1 1,0 0,-1 1,0 0,-1 1,0 0,-1 1,0 0,-1 1,0 0,-1 1,0 0,-1 -1,0 0,-1 1,0 0,-1 1,0 0,-1 1,0 0,-1 1,0 0,-1 1,0 0,-1 -1,0 0,-1 1,0 0,-1 1,0 0,-1 1,0 0,-2 -1,0 0,-1 -1,0 0,1 -1,0 0,2 -1,0 0,1 -1,0 0,-1 -1,0 0,-1 -1,0 0,2 -1,0 0,1 -1,0 0,2 -1,0 0,1 -1,0 0,2 1,0 0,-1 2,0 0,-1 1,0 0,1 -1,0 0,1 -1,0 0,2 -1,0 0,1 -1,0 0,2 -1,0 0,1 -1,0 0,1 -1,0 0,-1 -3,0 0,-1 -3,0 0,-1 -8,0 0,1 -2,0 0,1 -1,0 0,-1 -1,0 0,-1 -1,0 0,-1 -1,0 0,-1 -1,0 0,-1 -1,0 0,-1 -2,0 0,-1 -1,0 0,-1 -2,0 z m 30,2 -1,0 0,1 -1,0 0,2 -1,0 0,1 2,0 0,-2 1,0 0,-2 z m -3,3 0,-1 -2,0 0,1 2,0 z m -2,-1 0,-1 -4,0 0,1 4,0 z m 10,-10 1,0 0,-1 -1,0 0,1 z m 1,-1 1,0 0,-2 -1,0 0,2 z m 1,-2 1,0 0,-1 -1,0 0,1 z m 1,-1 1,0 0,-2 -1,0 0,2 z m 1,-2 1,0 0,-1 -1,0 0,1 z m 1,-1 1,0 0,-2 -1,0 0,2 z m 1,-2 2,0 0,-1 -1,0 0,-1 -1,0 0,2 z m 1,-2 1,0 0,-1 -1,0 0,1 z m 1,-1 1,0 0,-1 -1,0 0,1 z m 0,-1 0,-1 -1,0 0,1 1,0 z m -1,-1 0,-1 -1,0 0,1 1,0 z m -1,-1 0,-1 -1,0 0,1 1,0 z m 2,6 0,2 1,0 0,-2 -1,0 z m 0,2 -1,0 0,2 1,0 0,-2 z m -1,2 -1,0 0,1 1,0 0,-1 z m -1,1 -1,0 0,2 1,0 0,-2 z m 0,5 0,1 1,0 0,-1 -1,0 z m 1,0 1,0 0,-1 -1,0 0,1 z m 1,0 0,1 1,0 0,-1 -1,0 z m 0,1 -1,0 0,1 1,0 0,-1 z m -1,1 -1,0 0,1 1,0 0,-1 z m -1,1 -1,0 0,1 1,0 0,-1 z m 0,1 0,1 1,0 0,-1 -1,0 z m 0,1 -1,0 0,1 1,0 0,-1 z m -1,1 -1,0 0,1 1,0 0,-1 z m -1,1 -1,0 0,1 1,0 0,-1 z m -1,1 -1,0 0,1 1,0 0,-1 z m 0,1 0,1 1,0 0,-1 -1,0 z m 0,1 -1,0 0,1 1,0 0,-1 z m -1,1 -1,0 0,1 1,0 0,-1 z m -1,1 -1,0 0,1 1,0 0,-1 z m -1,1 -1,0 0,1 1,0 0,-1 z m 0,1 0,1 1,0 0,-1 -1,0 z m 0,1 -1,0 0,1 1,0 0,-1 z m -1,1 -1,0 0,1 1,0 0,-1 z m -1,1 -1,0 0,1 1,0 0,-1 z m -1,1 -1,0 0,1 1,0 0,-1 z m 0,1 0,1 1,0 0,-1 -1,0 z m 0,1 -1,0 0,1 1,0 0,-1 z m -1,1 -1,0 0,1 1,0 0,-1 z m -1,0 0,-1 -1,0 0,1 1,0 z m -1,-1 0,-1 -1,0 0,1 1,0 z m -1,0 -1,0 0,1 1,0 0,-1 z m -1,0 0,-1 -1,0 0,1 1,0 z m -1,-1 0,-1 -1,0 0,1 1,0 z m -1,0 -1,0 0,1 1,0 0,-1 z m -1,0 0,-1 -1,0 0,1 1,0 z m -1,-1 0,-1 -1,0 0,1 1,0 z m -1,0 -1,0 0,1 1,0 0,-1 z m -1,0 0,-1 -1,0 0,1 1,0 z m -1,-1 0,-1 -1,0 0,1 1,0 z m -1,0 -1,0 0,1 1,0 0,-1 z m -1,0 0,-1 -1,0 0,1 1,0 z m -1,-1 0,-1 -1,0 0,1 1,0 z m -1,0 -1,0 0,1 1,0 0,-1 z m -1,0 0,-1 -1,0 0,1 1,0 z m -8,-3 -1,0 0,1 1,0 0,-1 z m -1,0 0,-1 -1,0 0,1 1,0 z m -1,-1 0,-1 -1,0 0,1 1,0 z m -1,0 -1,0 0,1 1,0 0,-1 z m -1,0 0,-1 -1,0 0,1 1,0 z m -1,-1 0,-1 -1,0 0,1 1,0 z m -1,0 -1,0 0,1 1,0 0,-1 z m -1,0 0,-1 -1,0 0,1 1,0 z m -1,-1 0,-1 -1,0 0,1 1,0 z m -1,0 -1,0 0,1 1,0 0,-1 z m 1,-1 1,0 0,-1 -1,0 0,1 z m 36,-7 1,0 0,1 -1,0 0,1 -1,0 0,-1 1,0 0,-1 z"
       id="path3331" />
    <path
       style="fill:#000000;fill-opacity:1;fill-rule:nonzero;stroke:none"
       d="m 190,4 0,1 9,0 0,-1 -9,0 z m 9,1 0,1 3,0 0,-1 -3,0 z m 3,1 0,1 2,0 0,-1 -2,0 z m 2,1 0,1 2,0 0,-1 -2,0 z m 2,1 0,2 4,0 0,-1 -3,0 0,-1 -1,0 z m 4,1 1,0 0,-1 -1,0 0,1 z m 1,-1 1,0 0,-1 -1,0 0,1 z m 1,-1 1,0 0,-1 -1,0 0,1 z m 1,-1 1,0 0,12 -1,0 0,-1 -1,0 0,-1 -1,0 0,-1 -1,0 0,-1 -4,0 0,-4 -2,0 0,1 1,0 0,3 -1,0 0,1 -1,0 0,1 -1,0 0,1 -1,0 0,1 -1,0 0,1 -1,0 0,1 -1,0 0,1 -1,0 0,1 -1,0 0,1 -1,0 0,1 -1,0 0,-1 -1,0 0,-1 -1,0 0,-1 -1,0 0,-1 -1,0 0,-1 -1,0 0,-1 -2,0 0,1 1,0 0,1 1,0 0,1 1,0 0,1 1,0 0,1 1,0 0,1 1,0 0,2 -1,0 0,1 -1,0 0,1 -1,0 0,1 -1,0 0,1 2,0 0,-1 1,0 0,-1 1,0 0,-1 3,0 0,1 1,0 0,1 1,0 0,-2 -1,0 0,-1 -1,0 0,-2 1,0 0,-1 1,0 0,-1 1,0 0,-1 1,0 0,-1 1,0 0,-1 1,0 0,-1 1,0 0,-1 1,0 0,-1 1,0 0,-1 1,0 0,1 3,0 0,1 1,0 0,1 1,0 0,1 1,0 0,1 2,0 0,1 1,0 0,-3 1,0 0,-5 1,0 0,-2 -1,0 0,-5 -1,0 0,-2 -1,0 0,1 -1,0 0,1 z m 2,15 0,9 1,0 0,-9 -1,0 z m 0,9 -1,0 0,3 1,0 0,-3 z m -1,3 -1,0 0,2 1,0 0,-2 z m -1,2 -1,0 0,2 1,0 0,-2 z m -1,2 -1,0 0,1 1,0 0,-1 z m -1,1 -1,0 0,2 1,0 0,-2 z m -1,2 -1,0 0,1 -2,0 0,1 -1,0 0,1 -2,0 0,1 -2,0 0,1 -3,0 0,1 -9,0 0,-1 -3,0 0,-1 -2,0 0,2 1,0 0,1 1,0 0,1 1,0 0,1 1,0 0,-1 1,0 0,1 1,0 0,-1 1,0 0,1 1,0 0,-1 1,0 0,1 1,0 0,-1 1,0 0,1 1,0 0,-1 1,0 0,1 1,0 0,-1 1,0 0,1 1,0 0,-1 1,0 0,1 1,0 0,-1 1,0 0,1 1,0 0,-1 1,0 0,1 1,0 0,-1 1,0 0,-1 1,0 0,1 1,0 0,-1 1,0 0,-1 1,0 0,-1 -1,0 0,-1 -1,0 0,-1 -1,0 0,-1 1,0 0,-2 z m 0,2 0,1 1,0 0,-1 -1,0 z m 1,1 0,1 1,0 0,-1 -1,0 z m 1,0 1,0 0,-1 -1,0 0,1 z m 1,0 0,1 1,0 0,-1 -1,0 z m 1,0 1,0 0,-1 -1,0 0,1 z m 1,0 0,1 1,0 0,-1 -1,0 z m 1,1 0,1 1,0 0,-1 -1,0 z m 1,0 1,0 0,-1 -1,0 0,1 z m 1,0 0,1 1,0 0,-1 -1,0 z m 1,1 0,1 1,0 0,-1 -1,0 z m 0,1 -1,0 0,1 1,0 0,-1 z m 0,1 0,1 1,0 0,-1 -1,0 z m -1,0 -1,0 0,1 1,0 0,-1 z m -1,1 -1,0 0,1 1,0 0,-1 z m -1,0 0,-1 -1,0 0,1 1,0 z m -1,0 -1,0 0,1 1,0 0,-1 z m -1,1 -1,0 0,1 1,0 0,-1 z m -1,0 0,-1 -1,0 0,1 1,0 z m -1,0 -1,0 0,1 1,0 0,-1 z m -1,0 0,-1 -1,0 0,1 1,0 z m -1,0 -1,0 0,1 1,0 0,-1 z m -1,1 -1,0 0,1 1,0 0,-1 z m -1,0 0,-1 -1,0 0,1 1,0 z m -1,0 -1,0 0,1 1,0 0,-1 z m -1,0 0,-1 -1,0 0,1 1,0 z m -1,0 -1,0 0,1 1,0 0,-1 z m -1,0 0,-1 -1,0 0,1 1,0 z m -1,0 -1,0 0,1 1,0 0,-1 z m -1,0 0,-1 -1,0 0,1 1,0 z m -1,0 -1,0 0,1 1,0 0,-1 z m -1,0 0,-1 -1,0 0,1 1,0 z m -1,0 -1,0 0,1 1,0 0,-1 z m -1,0 0,-1 -1,0 0,1 1,0 z m -1,0 -1,0 0,1 1,0 0,-1 z m -1,0 0,-1 -1,0 0,1 1,0 z m -2,-1 -1,0 0,1 1,0 0,-1 z m -2,0 -1,0 0,1 1,0 0,-1 z m -7,-5 0,-1 -2,0 0,1 2,0 z m -2,-1 0,-1 -1,0 0,1 1,0 z m -1,-1 0,-1 -2,0 0,1 2,0 z m -2,-1 0,-1 -1,0 0,1 1,0 z m -1,-1 0,-2 -1,0 0,2 1,0 z m -1,-2 0,-1 -1,0 0,1 1,0 z m -1,-1 0,-2 -1,0 0,2 1,0 z m -1,-2 0,-2 -1,0 0,2 1,0 z m -1,-2 0,-3 -1,0 0,3 1,0 z m -1,-3 0,-9 -1,0 0,9 1,0 z m 0,-9 1,0 0,-3 -1,0 0,3 z m 1,-3 1,0 0,-2 -1,0 0,2 z m 1,-2 1,0 0,-2 -1,0 0,2 z m 1,-2 1,0 0,-1 -1,0 0,1 z m 1,-1 1,0 0,-2 -1,0 0,2 z m 1,-2 1,0 0,-1 -1,0 0,1 z m 1,-1 2,0 0,-1 -2,0 0,1 z m 2,-1 1,0 0,-1 -1,0 0,1 z m 1,-1 2,0 0,-1 -2,0 0,1 z m 2,-1 2,0 0,-1 -2,0 0,1 z m 2,-1 3,0 0,-1 -3,0 0,1 z"
       id="path3329" />
    <path
       style="fill:#000000;fill-opacity:1;fill-rule:nonzero;stroke:none"
       d="M 0,5 0,155 1,155 1,5 0,5"
       id="path3327" />
    <path
       style="fill:#000000;fill-opacity:1;fill-rule:nonzero;stroke:none"
       d="m 140,5 0,1 2,0 0,-1 -2,0"
       id="path18" />
    <path
       style="fill:#000000;fill-opacity:1;fill-rule:nonzero;stroke:none"
       d="m 239,5 0,150 1,0 0,-150 -1,0"
       id="path3321" />
    <path
       style="fill:#000000;fill-opacity:1;fill-rule:nonzero;stroke:none"
       d="m 143,6 0,1 1,0 0,-1 -1,0"
       id="path3319" />
    <path
       style="fill:#000000;fill-opacity:1;fill-rule:nonzero;stroke:none"
       d="m 190,7 0,1 -3,0 0,1 -2,0 0,1 -1,0 0,1 -1,0 0,1 -1,0 0,1 -1,0 0,1 -1,0 0,1 -1,0 0,1 -1,0 0,2 -1,0 0,3 -1,0 0,9 1,0 0,3 1,0 0,2 1,0 0,1 1,0 0,1 1,0 0,1 1,0 0,-1 -1,0 0,-1 -1,0 0,-1 -1,0 0,-2 -1,0 0,-3 -1,0 0,-9 1,0 0,-3 1,0 0,-2 1,0 0,-1 1,0 0,-1 1,0 0,-1 1,0 0,-1 1,0 0,-1 1,0 0,-1 2,0 0,-1 3,0 0,-1 9,0 0,1 3,0 0,1 2,0 0,-1 -2,0 0,-1 -3,0 0,-1 -9,0"
       id="path3317" />
    <path
       style="fill:#000000;fill-opacity:1;fill-rule:nonzero;stroke:none"
       d="m 33,8 0,1 3,0 0,-1 -3,0 z m 3,1 0,1 3,0 0,-1 -3,0 z m 3,1 0,3 -3,0 0,1 3,0 0,4 2,0 0,-1 -1,0 0,-6 4,0 0,-1 -5,0 z m 2,8 0,1 4,0 0,-1 -4,0 z m 4,1 0,1 4,0 0,-1 -4,0 z m 4,1 0,3 1,0 0,-3 -1,0 z m 1,3 0,4 -1,0 0,2 -1,0 0,-3 -1,0 0,-2 -1,0 0,3 1,0 0,3 1,0 0,1 1,0 0,-1 1,0 0,-2 1,0 0,-2 1,0 0,-2 -1,0 0,-1 -1,0 z m 1,0 1,0 0,-3 -1,0 0,3 z m 1,-3 1,0 0,-3 -1,0 0,3 z m 0,-3 0,-1 -3,0 0,1 3,0 z m -3,-1 0,-1 -1,0 0,-3 -1,0 0,4 2,0 z m 3,7 0,1 1,0 0,-1 -1,0 z m -4,8 -1,0 0,-1 -1,0 0,5 1,0 0,-2 1,0 0,-2 z m -2,4 -1,0 0,1 1,0 0,-1 z m -1,1 -1,0 0,-2 -1,0 0,6 1,0 0,-2 1,0 0,-2 z m -1,-2 1,0 0,-4 -1,0 0,4 z m 0,-4 0,-3 -1,0 0,3 1,0 z m -1,0 -1,0 0,3 1,0 0,-3 z m -1,3 -1,0 0,4 1,0 0,-4 z m -1,4 -1,0 0,3 1,0 0,-3 z m -1,3 -3,0 0,1 3,0 0,-1 z m -3,0 0,-1 -3,0 0,1 3,0 z m -3,-1 0,-1 -2,0 0,1 2,0 z m -2,-1 0,-1 -3,0 0,1 3,0 z m -3,-1 0,-1 -3,0 0,1 3,0 z m -3,-1 0,-1 -3,0 0,1 3,0 z m -3,-1 0,-1 -3,0 0,1 3,0 z m -3,-1 0,-1 -2,0 0,1 2,0 z m 23,-7 0,-1 -4,0 0,1 4,0 z m -4,-1 0,-1 -4,0 0,1 4,0 z m -4,-1 0,-1 -4,0 0,1 4,0 z m -4,-1 0,-1 -4,0 0,1 4,0 z m 14,6 1,0 0,-3 -1,0 0,3 z m 1,-6 0,-1 -4,0 0,1 4,0 z m -4,-1 0,-1 -3,0 0,1 3,0 z m -3,-1 0,-1 -4,0 0,1 4,0 z m -4,-1 0,-1 -1,0 0,-3 -1,0 0,4 2,0 z m -2,-4 0,-1 -1,0 0,-3 -1,0 0,2 -1,0 0,-1 -3,0 0,1 -1,0 0,1 4,0 0,1 3,0 z m -1,-4 4,0 0,-1 -3,0 0,-1 -3,0 0,1 2,0 0,1 z"
       id="path3315" />
    <path
       style="fill:#000000;fill-opacity:1;fill-rule:nonzero;stroke:none"
       d="m 50,8 0,1 3,0 0,5 2,0 0,-1 -1,0 0,-4 -1,0 0,-1 -3,0"
       id="path3313" />
    <path
       style="fill:#000000;fill-opacity:1;fill-rule:nonzero;stroke:none"
       d="m 194,9 0,4 1,0 0,-4 -1,0"
       id="path3311" />
    <path
       style="fill:#000000;fill-opacity:1;fill-rule:nonzero;stroke:none"
       d="m 158,11 0,1 3,0 0,-1 -3,0"
       id="path3309" />
    <path
       style="fill:#000000;fill-opacity:1;fill-rule:nonzero;stroke:none"
       d="m 187,12 0,2 1,0 0,-2 -1,0"
       id="path3307" />
    <path
       style="fill:#000000;fill-opacity:1;fill-rule:nonzero;stroke:none"
       d="m 203,12 0,2 1,0 0,-2 -1,0"
       id="path22" />
    <path
       style="fill:#000000;fill-opacity:1;fill-rule:nonzero;stroke:none"
       d="m 85,13 0,1 1,0 0,1 1,0 0,1 1,0 0,-1 -1,0 0,-1 -1,0 0,-1 -1,0"
       id="path3301" />
    <path
       style="fill:#000000;fill-opacity:1;fill-rule:nonzero;stroke:none"
       d="m 131,13 0,1 2,0 0,-1 -2,0"
       id="path3299" />
    <path
       style="fill:#000000;fill-opacity:1;fill-rule:nonzero;stroke:none"
       d="m 161,14 0,1 1,0 0,1 1,0 0,-1 -1,0 0,-1 -1,0"
       id="path3297" />
    <path
       style="fill:#000000;fill-opacity:1;fill-rule:nonzero;stroke:none"
       d="m 83,15 0,1 1,0 0,1 1,0 0,1 1,0 0,1 2,0 0,1 1,0 0,1 1,0 0,-1 -1,0 0,-1 -1,0 0,-1 -2,0 0,-1 -1,0 0,-1 -1,0 0,-1 -1,0"
       id="path3295" />
    <path
       style="fill:#000000;fill-opacity:1;fill-rule:nonzero;stroke:none"
       d="m 100,15 0,1 1,0 0,1 1,0 0,1 2,0 0,1 2,0 0,-1 -2,0 0,-1 -2,0 0,-1 -1,0 0,-1 -1,0"
       id="path3293" />
    <path
       style="fill:#000000;fill-opacity:1;fill-rule:nonzero;stroke:none"
       d="m 89,16 0,1 1,0 0,1 1,0 0,1 1,0 0,-1 -1,0 0,-1 -1,0 0,-1 -1,0"
       id="path3291" />
    <path
       style="fill:#000000;fill-opacity:1;fill-rule:nonzero;stroke:none"
       d="m 81,17 0,1 1,0 0,-1 -1,0"
       id="path3289" />
    <path
       style="fill:#000000;fill-opacity:1;fill-rule:nonzero;stroke:none"
       d="m 98,17 0,2 2,0 0,1 2,0 0,1 1,0 0,-1 -1,0 0,-1 -2,0 0,-1 -1,0 0,-1 -1,0"
       id="path3287" />
    <path
       style="fill:#000000;fill-opacity:1;fill-rule:nonzero;stroke:none"
       d="m 181,17 0,1 1,0 0,1 1,0 0,-1 -1,0 0,-1 -1,0"
       id="path3285" />
    <path
       style="fill:#000000;fill-opacity:1;fill-rule:nonzero;stroke:none"
       d="m 208,18 0,1 -1,0 0,1 1,0 0,-1 1,0 0,-1 -1,0"
       id="path3283" />
    <path
       style="fill:#000000;fill-opacity:1;fill-rule:nonzero;stroke:none"
       d="m 79,19 0,1 1,0 0,1 1,0 0,1 1,0 0,1 1,0 0,1 1,0 0,1 1,0 0,-1 -1,0 0,-1 -1,0 0,-1 -1,0 0,-1 -1,0 0,-1 -1,0 0,-1 -1,0"
       id="path3281" />
    <path
       style="fill:#000000;fill-opacity:1;fill-rule:nonzero;stroke:none"
       d="m 83,19 0,1 1,0 0,1 1,0 0,-1 -1,0 0,-1 -1,0"
       id="path3279" />
    <path
       style="fill:#000000;fill-opacity:1;fill-rule:nonzero;stroke:none"
       d="m 96,19 0,1 1,0 0,1 1,0 0,-1 -1,0 0,-1 -1,0"
       id="path26" />
    <path
       style="fill:#000000;fill-opacity:1;fill-rule:nonzero;stroke:none"
       d="m 157,20 0,1 1,0 0,1 1,0 0,-1 -1,0 0,-1 -1,0"
       id="path3273" />
    <path
       style="fill:#000000;fill-opacity:1;fill-rule:nonzero;stroke:none"
       d="m 76,21 0,1 1,0 0,1 1,0 0,1 1,0 0,1 1,0 0,1 1,0 0,1 1,0 0,1 2,0 0,1 1,0 0,1 1,0 0,-1 -1,0 0,-1 -1,0 0,-1 -2,0 0,-1 -1,0 0,-1 -1,0 0,-1 -1,0 0,-1 -1,0 0,-1 -1,0 0,-1 -1,0"
       id="path3271" />
    <path
       style="fill:#000000;fill-opacity:1;fill-rule:nonzero;stroke:none"
       d="m 99,21 0,1 1,0 0,1 2,0 0,-1 -2,0 0,-1 -1,0"
       id="path3269" />
    <path
       style="fill:#000000;fill-opacity:1;fill-rule:nonzero;stroke:none"
       d="m 108,21 0,1 -1,0 0,1 -1,0 0,1 -1,0 0,1 -2,0 0,1 -1,0 0,1 -2,0 0,1 -2,0 0,1 -1,0 0,1 -1,0 0,1 -2,0 0,1 -1,0 0,1 -2,0 0,1 -1,0 0,1 -2,0 0,1 -1,0 0,1 -2,0 0,1 -3,0 0,-1 -2,0 0,-1 -2,0 0,-1 -1,0 0,-1 -1,0 0,-1 -1,0 0,-1 -2,0 0,-1 -1,0 0,-1 -1,0 0,-1 -1,0 0,-1 -1,0 0,1 1,0 0,1 1,0 0,1 1,0 0,1 1,0 0,1 2,0 0,1 1,0 0,1 1,0 0,1 1,0 0,1 2,0 0,1 2,0 0,1 3,0 0,-1 2,0 0,-1 1,0 0,-1 2,0 0,-1 1,0 0,-1 2,0 0,-1 1,0 0,-1 2,0 0,-1 1,0 0,-1 1,0 0,-1 2,0 0,-1 2,0 0,-1 1,0 0,-1 2,0 0,-1 1,0 0,-1 1,0 0,-1 1,0 0,-1 1,0 0,-1 -1,0"
       id="path3267" />
    <path
       style="fill:#000000;fill-opacity:1;fill-rule:nonzero;stroke:none"
       d="m 73,22 0,1 -1,0 0,1 1,0 0,1 2,0 0,2 1,0 0,1 2,0 0,-2 -2,0 0,-2 -2,0 0,-2 -1,0"
       id="path3265" />
    <path
       style="fill:#000000;fill-opacity:1;fill-rule:nonzero;stroke:none"
       d="m 86,22 0,1 2,0 0,1 1,0 0,1 1,0 0,1 1,0 0,-1 -1,0 0,-1 -1,0 0,-1 -1,0 0,-1 -2,0"
       id="path3263" />
    <path
       style="fill:#000000;fill-opacity:1;fill-rule:nonzero;stroke:none"
       d="m 91,22 0,1 1,0 0,1 2,0 0,-1 -2,0 0,-1 -1,0"
       id="path3261" />
    <path
       style="fill:#000000;fill-opacity:1;fill-rule:nonzero;stroke:none"
       d="m 48,23 0,3 1,0 0,-3 -1,0"
       id="path30" />
    <path
       style="fill:#000000;fill-opacity:1;fill-rule:nonzero;stroke:none"
       d="m 23,24 0,1 2,0 0,1 3,0 0,-1 -3,0 0,-1 -2,0"
       id="path3255" />
    <path
       style="fill:#000000;fill-opacity:1;fill-rule:nonzero;stroke:none"
       d="m 70,24 0,2 1,0 0,1 1,0 0,1 1,0 0,1 1,0 0,1 1,0 0,-1 -1,0 0,-1 -1,0 0,-1 -1,0 0,-1 -1,0 0,-2 -1,0"
       id="path3253" />
    <path
       style="fill:#000000;fill-opacity:1;fill-rule:nonzero;stroke:none"
       d="m 95,24 0,1 1,0 0,1 2,0 0,-1 -2,0 0,-1 -1,0"
       id="path3251" />
    <path
       style="fill:#000000;fill-opacity:1;fill-rule:nonzero;stroke:none"
       d="m 108,25 0,1 -1,0 0,1 -1,0 0,1 -1,0 0,1 -1,0 0,1 -2,0 0,1 -1,0 0,1 -1,0 0,1 -2,0 0,1 -2,0 0,1 -1,0 0,1 -1,0 0,1 -1,0 0,1 -2,0 0,1 -2,0 0,1 -1,0 0,1 -1,0 0,1 -2,0 0,1 -1,0 0,1 -1,0 0,-1 -2,0 0,-1 -1,0 0,-1 -2,0 0,-1 -1,0 0,-1 -2,0 0,-1 -1,0 0,-1 -1,0 0,-1 -2,0 0,-1 -1,0 0,-1 -1,0 0,-1 -1,0 0,-1 -1,0 0,1 1,0 0,1 1,0 0,1 1,0 0,1 1,0 0,1 2,0 0,1 1,0 0,1 1,0 0,1 2,0 0,1 1,0 0,1 2,0 0,1 1,0 0,1 2,0 0,1 1,0 0,-1 1,0 0,-1 2,0 0,-1 1,0 0,-1 1,0 0,-1 2,0 0,-1 2,0 0,-1 1,0 0,-1 1,0 0,-1 1,0 0,-1 2,0 0,-1 2,0 0,-1 1,0 0,-1 1,0 0,-1 2,0 0,-1 1,0 0,-1 1,0 0,-1 1,0 0,-1 1,0 0,-1 1,0 0,-1 -1,0"
       id="path3249" />
    <path
       style="fill:#000000;fill-opacity:1;fill-rule:nonzero;stroke:none"
       d="m 122,25 0,1 2,0 0,-1 -2,0"
       id="path3247" />
    <path
       style="fill:#000000;fill-opacity:1;fill-rule:nonzero;stroke:none"
       d="m 178,25 0,1 4,0 0,-1 -4,0"
       id="path3245" />
    <path
       style="fill:#000000;fill-opacity:1;fill-rule:nonzero;stroke:none"
       d="m 207,25 0,1 4,0 0,-1 -4,0"
       id="path3243" />
    <path
       style="fill:#000000;fill-opacity:1;fill-rule:nonzero;stroke:none"
       d="m 29,26 0,1 2,0 0,1 2,0 0,-1 -2,0 0,-1 -2,0"
       id="path3241" />
    <path
       style="fill:#000000;fill-opacity:1;fill-rule:nonzero;stroke:none"
       d="m 86,26 0,1 1,0 0,-1 -1,0"
       id="path3239" />
    <path
       style="fill:#000000;fill-opacity:1;fill-rule:nonzero;stroke:none"
       d="m 92,26 0,1 1,0 0,1 2,0 0,-1 -2,0 0,-1 -1,0"
       id="path3237" />
    <path
       style="fill:#000000;fill-opacity:1;fill-rule:nonzero;stroke:none"
       d="m 21,27 0,1 2,0 0,1 2,0 0,1 1,0 0,-1 -1,0 0,-1 -2,0 0,-1 -2,0"
       id="path34" />
    <path
       style="fill:#000000;fill-opacity:1;fill-rule:nonzero;stroke:none"
       d="m 88,27 0,1 1,0 0,1 1,0 0,1 2,0 0,-1 -2,0 0,-1 -1,0 0,-1 -1,0"
       id="path3231" />
    <path
       style="fill:#000000;fill-opacity:1;fill-rule:nonzero;stroke:none"
       d="m 153,27 0,1 1,0 0,1 1,0 0,-1 -1,0 0,-1 -1,0"
       id="path3229" />
    <path
       style="fill:#000000;fill-opacity:1;fill-rule:nonzero;stroke:none"
       d="m 34,28 0,1 2,0 0,-1 -2,0"
       id="path3227" />
    <path
       style="fill:#000000;fill-opacity:1;fill-rule:nonzero;stroke:none"
       d="m 27,29 0,1 2,0 0,1 2,0 0,-1 -2,0 0,-1 -2,0"
       id="path38" />
    <path
       style="fill:#000000;fill-opacity:1;fill-rule:nonzero;stroke:none"
       d="m 20,30 0,1 3,0 0,-1 -3,0"
       id="path3219" />
    <path
       style="fill:#000000;fill-opacity:1;fill-rule:nonzero;stroke:none"
       d="m 162,30 0,1 -1,0 0,1 1,0 0,-1 1,0 0,-1 -1,0"
       id="path3217" />
    <path
       style="fill:#000000;fill-opacity:1;fill-rule:nonzero;stroke:none"
       d="m 24,31 0,1 2,0 0,1 2,0 0,-1 -2,0 0,-1 -2,0"
       id="path3215" />
    <path
       style="fill:#000000;fill-opacity:1;fill-rule:nonzero;stroke:none"
       d="m 32,31 0,1 3,0 0,1 2,0 0,-1 -2,0 0,-1 -3,0"
       id="path3213" />
    <path
       style="fill:#000000;fill-opacity:1;fill-rule:nonzero;stroke:none"
       d="m 87,31 0,1 2,0 0,-1 -2,0"
       id="path42" />
    <path
       style="fill:#000000;fill-opacity:1;fill-rule:nonzero;stroke:none"
       d="m 108,32 0,1 -1,0 0,1 -1,0 0,1 -1,0 0,1 -1,0 0,1 1,0 0,-1 1,0 0,-1 1,0 0,-1 1,0 0,-1 1,0 0,-1 -1,0"
       id="path3205" />
    <path
       style="fill:#000000;fill-opacity:1;fill-rule:nonzero;stroke:none"
       d="m 182,32 0,1 -1,0 0,1 1,0 0,-1 1,0 0,-1 -1,0"
       id="path3203" />
    <path
       style="fill:#000000;fill-opacity:1;fill-rule:nonzero;stroke:none"
       d="m 206,32 0,1 1,0 0,1 1,0 0,-1 -1,0 0,-1 -1,0"
       id="path3201" />
    <path
       style="fill:#000000;fill-opacity:1;fill-rule:nonzero;stroke:none"
       d="m 29,33 0,1 3,0 0,1 2,0 0,-1 -2,0 0,-1 -3,0"
       id="path3199" />
    <path
       style="fill:#000000;fill-opacity:1;fill-rule:nonzero;stroke:none"
       d="m 161,33 0,1 1,0 0,-1 -1,0 z m 0,1 -1,0 0,1 1,0 0,-1 z m -1,1 -1,0 0,1 1,0 0,-1 z m -1,1 -1,0 0,1 1,0 0,-1 z m -1,1 -1,0 0,1 1,0 0,-1 z m 0,1 0,1 1,0 0,-1 -1,0 z m 0,1 -1,0 0,1 1,0 0,-1 z m -1,1 -1,0 0,1 1,0 0,-1 z m -1,1 -1,0 0,1 1,0 0,-1 z m -1,1 -1,0 0,1 1,0 0,-1 z m 0,1 0,1 1,0 0,-1 -1,0 z m 0,1 -1,0 0,1 1,0 0,-1 z m -1,1 -1,0 0,1 1,0 0,-1 z m -1,1 -1,0 0,1 1,0 0,-1 z m -1,1 -1,0 0,1 1,0 0,-1 z m 0,1 0,1 1,0 0,-1 -1,0 z m -1,-1 0,-1 -1,0 0,1 1,0 z m -1,0 -1,0 0,1 1,0 0,-1 z m -1,0 0,-1 -1,0 0,1 1,0 z m -1,-1 0,-1 -1,0 0,1 1,0 z m -1,0 -1,0 0,1 1,0 0,-1 z m -1,0 0,-1 -1,0 0,1 1,0 z m 5,0 1,0 0,-1 -1,0 0,1 z m 1,-1 1,0 0,-1 -1,0 0,1 z m 1,-1 1,0 0,-1 -1,0 0,1 z"
       id="path3197" />
    <path
       style="fill:#000000;fill-opacity:1;fill-rule:nonzero;stroke:none"
       d="m 13,34 0,1 2,0 0,1 3,0 0,1 2,0 0,1 3,0 0,1 3,0 0,1 3,0 0,1 3,0 0,1 2,0 0,1 3,0 0,1 3,0 0,-1 -3,0 0,-1 -3,0 0,-1 -2,0 0,-1 -3,0 0,-1 -3,0 0,-1 -3,0 0,-1 -3,0 0,-1 -2,0 0,-1 -3,0 0,-1 -2,0"
       id="path46" />
    <path
       style="fill:#000000;fill-opacity:1;fill-rule:nonzero;stroke:none"
       d="m 35,35 0,1 3,0 0,-1 -3,0"
       id="path50" />
    <path
       style="fill:#000000;fill-opacity:1;fill-rule:nonzero;stroke:none"
       d="m 187,37 0,2 1,0 0,-2 -1,0"
       id="path3185" />
    <path
       style="fill:#000000;fill-opacity:1;fill-rule:nonzero;stroke:none"
       d="m 201,37 0,2 1,0 0,-2 -1,0"
       id="path3183" />
    <path
       style="fill:#000000;fill-opacity:1;fill-rule:nonzero;stroke:none"
       d="m 122,38 0,1 1,0 0,-1 -1,0"
       id="path3181" />
    <path
       style="fill:#000000;fill-opacity:1;fill-rule:nonzero;stroke:none"
       d="m 194,38 0,4 1,0 0,-4 -1,0"
       id="path3179" />
    <path
       style="fill:#000000;fill-opacity:1;fill-rule:nonzero;stroke:none"
       d="m 125,39 0,1 1,0 0,-1 -1,0"
       id="path54" />
    <path
       style="fill:#000000;fill-opacity:1;fill-rule:nonzero;stroke:none"
       d="m 140,44 0,1 1,0 0,-1 -1,0"
       id="path3157" />
    <path
       style="fill:#000000;fill-opacity:1;fill-rule:nonzero;stroke:none"
       d="m 142,44 0,1 1,0 0,1 1,0 0,-1 -1,0 0,-1 -1,0"
       id="path3155" />
    <path
       style="fill:#000000;fill-opacity:1;fill-rule:nonzero;stroke:none"
       d="m 212,44 0,1 1,0 0,-1 -1,0 z m 1,1 0,1 1,0 0,-1 -1,0 z m 1,0 1,0 0,-1 -1,0 0,1 z m 1,0 0,1 1,0 0,-1 -1,0 z m 1,1 0,1 1,0 0,-1 -1,0 z m 1,0 1,0 0,-1 -1,0 0,1 z m -2,0 -1,0 0,1 1,0 0,-1 z m -1,1 -1,0 0,1 1,0 0,-1 z m -1,0 0,-1 -1,0 0,1 1,0 z m -1,0 -1,0 0,1 1,0 0,-1 z"
       id="path58" />
    <path
       style="fill:#000000;fill-opacity:1;fill-rule:nonzero;stroke:none"
       d="m 208,48 0,1 1,0 0,-1 -1,0"
       id="path62" />
    <path
       style="fill:#000000;fill-opacity:1;fill-rule:nonzero;stroke:none"
       d="m 19,53 0,1 -1,0 0,11 1,0 0,1 29,0 0,-1 1,0 0,-11 -1,0 0,-1 -29,0 z m 1,1 5,0 0,1 1,0 0,1 1,0 0,5 -1,0 0,1 -1,0 0,1 -5,0 0,-9 z m 16,0 2,0 0,3 2,0 0,1 -2,0 0,4 2,0 0,1 -3,0 0,-1 -1,0 0,-4 -1,0 0,-1 1,0 0,-3 z m -7,3 4,0 0,1 1,0 0,5 -5,0 0,-1 -1,0 0,-2 1,0 0,-1 3,0 0,-1 -3,0 0,-1 z m 13,0 4,0 0,1 1,0 0,5 -5,0 0,-1 -1,0 0,-2 1,0 0,-1 3,0 0,-1 -3,0 0,-1 z"
       id="path66" />
    <path
       style="fill:#000000;fill-opacity:1;fill-rule:nonzero;stroke:none"
       d="m 73,54 0,7 1,0 0,2 2,0 0,-2 2,0 0,2 2,0 0,-2 1,0 0,-7 -2,0 0,6 -1,0 0,-2 -2,0 0,2 -1,0 0,-6 -2,0"
       id="path3121" />
    <path
       style="fill:#000000;fill-opacity:1;fill-rule:nonzero;stroke:none"
       d="m 99,54 0,3 -3,0 0,1 -1,0 0,4 1,0 0,1 5,0 0,-9 -2,0 z m -2,4 2,0 0,4 -2,0 0,-4 z"
       id="path3119" />
    <path
       style="fill:#000000;fill-opacity:1;fill-rule:nonzero;stroke:none"
       d="m 124,54 0,1 -1,0 0,1 -1,0 0,1 -1,0 0,6 2,0 0,-3 3,0 0,3 2,0 0,-6 -1,0 0,-1 -1,0 0,-1 -1,0 0,-1 -1,0 z m 0,2 1,0 0,1 1,0 0,2 -3,0 0,-2 1,0 0,-1 z"
       id="path3117" />
    <path
       style="fill:#000000;fill-opacity:1;fill-rule:nonzero;stroke:none"
       d="m 154,54 0,3 -3,0 0,1 -1,0 0,4 1,0 0,1 5,0 0,-9 -2,0 z m -2,4 2,0 0,4 -2,0 0,-4 z"
       id="path3115" />
    <path
       style="fill:#000000;fill-opacity:1;fill-rule:nonzero;stroke:none"
       d="m 181,54 0,1 3,0 0,8 3,0 0,-8 3,0 0,-1 -9,0"
       id="path3113" />
    <path
       style="fill:#000000;fill-opacity:1;fill-rule:nonzero;stroke:none"
       d="m 191,54 0,2 3,0 0,-2 -3,0"
       id="path3111" />
    <path
       style="fill:#000000;fill-opacity:1;fill-rule:nonzero;stroke:none"
       d="m 22,55 0,7 2,0 0,-1 1,0 0,-5 -1,0 0,-1 -2,0"
       id="path70" />
    <path
       style="fill:#000000;fill-opacity:1;fill-rule:nonzero;stroke:none"
       d="m 83,57 0,1 -1,0 0,4 1,0 0,1 4,0 0,-1 1,0 0,-4 -1,0 0,-1 -4,0 z m 1,1 2,0 0,4 -2,0 0,-4 z"
       id="path3101" />
    <path
       style="fill:#000000;fill-opacity:1;fill-rule:nonzero;stroke:none"
       d="m 89,57 0,6 2,0 0,-4 1,0 0,-1 2,0 0,-1 -2,0 0,1 -1,0 0,-1 -2,0"
       id="path3099" />
    <path
       style="fill:#000000;fill-opacity:1;fill-rule:nonzero;stroke:none"
       d="m 130,57 0,1 -1,0 0,3 1,0 0,1 3,0 0,2 -3,0 0,1 4,0 0,-1 1,0 0,-7 -5,0 z m 1,1 2,0 0,3 -2,0 0,-3 z"
       id="path3097" />
    <path
       style="fill:#000000;fill-opacity:1;fill-rule:nonzero;stroke:none"
       d="m 137,57 0,1 -1,0 0,4 1,0 0,1 4,0 0,-1 1,0 0,-1 -2,0 0,1 -2,0 0,-2 4,0 0,-2 -1,0 0,-1 -4,0 z m 1,1 2,0 0,1 -2,0 0,-1 z"
       id="path3095" />
    <path
       style="fill:#000000;fill-opacity:1;fill-rule:nonzero;stroke:none"
       d="m 143,57 0,6 2,0 0,-5 2,0 0,5 2,0 0,-5 -1,0 0,-1 -5,0"
       id="path3093" />
    <path
       style="fill:#000000;fill-opacity:1;fill-rule:nonzero;stroke:none"
       d="m 158,57 0,1 3,0 0,1 -3,0 0,1 -1,0 0,2 1,0 0,1 5,0 0,-5 -1,0 0,-1 -4,0 z m 1,3 2,0 0,2 -2,0 0,-2 z"
       id="path3091" />
    <path
       style="fill:#000000;fill-opacity:1;fill-rule:nonzero;stroke:none"
       d="m 191,57 0,6 3,0 0,-6 -3,0"
       id="path3089" />
    <path
       style="fill:#000000;fill-opacity:1;fill-rule:nonzero;stroke:none"
       d="m 195,57 0,6 2,0 0,-4 1,0 0,4 3,0 0,-4 1,0 0,4 2,0 0,-5 -1,0 0,-1 -3,0 0,1 -1,0 0,-1 -4,0"
       id="path3087" />
    <path
       style="fill:#000000;fill-opacity:1;fill-rule:nonzero;stroke:none"
       d="m 206,57 0,1 -1,0 0,4 1,0 0,1 5,0 0,-1 1,0 0,-1 -3,0 0,1 -1,0 0,-2 4,0 0,-2 -1,0 0,-1 -5,0 z m 2,1 1,0 0,1 -1,0 0,-1 z"
       id="path3085" />
    <path
       style="fill:#000000;fill-opacity:1;fill-rule:nonzero;stroke:none"
       d="m 233,57 0,3 -3,0 0,2 3,0 0,3 1,0 0,-1 1,0 0,-1 1,0 0,-1 1,0 0,-2 -1,0 0,-1 -1,0 0,-1 -1,0 0,-1 -1,0"
       id="path74" />
    <path
       style="fill:#000000;fill-opacity:1;fill-rule:nonzero;stroke:none"
       d="m 30,60 0,2 2,0 0,-2 -2,0"
       id="path3069" />
    <path
       style="fill:#000000;fill-opacity:1;fill-rule:nonzero;stroke:none"
       d="m 43,60 0,2 2,0 0,-2 -2,0"
       id="path78" />
    <path
       style="fill:#000000;fill-opacity:1;fill-rule:nonzero;stroke:none"
       d="m 1,155 0,2 1,0 0,1 1,0 0,1 2,0 0,-1 -2,0 0,-1 -1,0 0,-2 -1,0"
       id="path3063" />
    <path
       style="fill:#000000;fill-opacity:1;fill-rule:nonzero;stroke:none"
       d="m 238,155 0,2 -1,0 0,1 -2,0 0,1 2,0 0,-1 1,0 0,-1 1,0 0,-2 -1,0"
       id="path3061" />
    <path
       style="fill:#000000;fill-opacity:1;fill-rule:nonzero;stroke:none"
       d="m 5,159 0,1 230,0 0,-1 -230,0"
       id="path82" />
  </g>
</svg>
