<?xml version="1.0" encoding="UTF-8" standalone="no"?>
<!-- CLEANED: 1515870852/ec17786a169eb49a285543cc18618a5d -->

<!-- Created with Inkscape (http://www.inkscape.org/) -->

<svg
   xmlns:dc="http://purl.org/dc/elements/1.1/"
   xmlns:cc="http://creativecommons.org/ns#"
   xmlns:rdf="http://www.w3.org/1999/02/22-rdf-syntax-ns#"
   xmlns:svg="http://www.w3.org/2000/svg"
   xmlns="http://www.w3.org/2000/svg"
   xmlns:xlink="http://www.w3.org/1999/xlink"
   xmlns:sodipodi="http://sodipodi.sourceforge.net/DTD/sodipodi-0.dtd"
   xmlns:inkscape="http://www.inkscape.org/namespaces/inkscape"
   id="svg2"
   version="1.1"
   inkscape:version="0.48.3.1 r9886"
   width="512"
   height="342"
   sodipodi:docname="desktop-full-macos11.svg"
   inkscape:export-filename="/home/christoph/0000_GIT/XX/FUTURE/traceland/JUNK/MIGRATED/macosdesktop.png"
   inkscape:export-xdpi="90"
   inkscape:export-ydpi="90">
  <metadata
     id="metadata8">
    <rdf:RDF>
      <cc:Work
         rdf:about="">
        <dc:format>image/svg+xml</dc:format>
        <dc:type
           rdf:resource="http://purl.org/dc/dcmitype/StillImage" />
        <dc:title></dc:title>
      </cc:Work>
    </rdf:RDF>
  </metadata>
  <defs
     id="defs6" />
  <sodipodi:namedview
     pagecolor="#ffffff"
     bordercolor="#666666"
     borderopacity="1"
     objecttolerance="10"
     gridtolerance="10"
     guidetolerance="10"
     inkscape:pageopacity="0"
     inkscape:pageshadow="2"
     id="namedview4"
     showgrid="false"
     inkscape:zoom="1"
     inkscape:cx="148.91889"
     inkscape:cy="168.00142"
     inkscape:current-layer="layer3" />
  <g
     inkscape:groupmode="layer"
     id="layer1"
     inkscape:label="XX_SRC"
     sodipodi:insensitive="true"
     style="display:none">
    <image
       sodipodi:absref="/home/christoph/0000_GIT/NOW/bits/E/2018/gui/../../../src/incoming/2018/guidebookgallery/desktop-full-macos11.png"
       xlink:href="../../../src/incoming/2018/guidebookgallery/desktop-full-macos11.png"
       y="0"
       x="0"
       id="image10"
       checksum="2bc173347b90296d"
       height="342"
       width="512" />
  </g>
  <g
     inkscape:groupmode="layer"
     id="layer2"
     inkscape:label="XX_COVER"
     sodipodi:insensitive="true"
     style="display:none">
    <path
       sodipodi:nodetypes="ccccc"
       inkscape:connector-curvature="0"
       id="path3821"
       d="m 121,221 7,0 0,-48 -7,0 z"
       style="color:#000000;fill:#ffffff;fill-opacity:1;fill-rule:nonzero;stroke:none;stroke-width:0;marker:none;visibility:visible;display:inline;overflow:visible;enable-background:accumulate" />
    <path
       style="color:#000000;fill:#ffffff;fill-opacity:1;fill-rule:nonzero;stroke:none;stroke-width:0;marker:none;visibility:visible;display:inline;overflow:visible;enable-background:accumulate"
       d="m 0,20 9,0 0,322 -9,0 z"
       id="rect2984"
       inkscape:connector-curvature="0"
       sodipodi:nodetypes="ccccc" />
    <path
       sodipodi:nodetypes="ccccc"
       inkscape:connector-curvature="0"
       id="path3755"
       d="m 0,210 10,0 0,3 -10,0 z"
       style="color:#000000;fill:#ffffff;fill-opacity:1;fill-rule:nonzero;stroke:none;stroke-width:0;marker:none;visibility:visible;display:inline;overflow:visible;enable-background:accumulate" />
    <path
       style="color:#000000;fill:#ffffff;fill-opacity:1;fill-rule:nonzero;stroke:none;stroke-width:0;marker:none;visibility:visible;display:inline;overflow:visible;enable-background:accumulate"
       d="m 0,211 93,0 0,14 -93,0 z"
       id="path3757"
       inkscape:connector-curvature="0"
       sodipodi:nodetypes="ccccc" />
    <path
       style="color:#000000;fill:#ffffff;fill-opacity:1;fill-rule:nonzero;stroke:none;stroke-width:0;marker:none;visibility:visible;display:inline;overflow:visible;enable-background:accumulate"
       d="m 5,223 0,1 -1,0 0,1 -1,0 0,1 -1,0 0,1 -1,0 0,3 14,0 0,-1 1,0 0,-1 1,0 0,-1 1,0 0,-1 1,0 0,-3 z"
       id="path3767"
       inkscape:connector-curvature="0"
       sodipodi:nodetypes="ccccccccccccccccccccc" />
    <path
       style="color:#000000;fill:#ffffff;fill-opacity:1;fill-rule:nonzero;stroke:none;stroke-width:0;marker:none;visibility:visible;display:inline;overflow:visible;enable-background:accumulate"
       d="m 0,230 14,0 0,112 -14,0 z"
       id="path3771"
       inkscape:connector-curvature="0"
       sodipodi:nodetypes="ccccc" />
    <path
       sodipodi:nodetypes="ccccc"
       inkscape:connector-curvature="0"
       id="path3775"
       d="m 0,335 114,0 0,7 -114,0 z"
       style="color:#000000;fill:#ffffff;fill-opacity:1;fill-rule:nonzero;stroke:none;stroke-width:0;marker:none;visibility:visible;display:inline;overflow:visible;enable-background:accumulate" />
    <path
       style="color:#000000;fill:#ffffff;fill-opacity:1;fill-rule:nonzero;stroke:none;stroke-width:0;marker:none;visibility:visible;display:inline;overflow:visible;enable-background:accumulate"
       d="m 105,301 351,0 0,41 -351,0 z"
       id="path3779"
       inkscape:connector-curvature="0"
       sodipodi:nodetypes="ccccc" />
    <path
       sodipodi:nodetypes="ccccc"
       inkscape:connector-curvature="0"
       id="path3781"
       d="m 408,280 52,0 0,36 -52,0 z"
       style="color:#000000;fill:#ffffff;fill-opacity:1;fill-rule:nonzero;stroke:none;stroke-width:0;marker:none;visibility:visible;display:inline;overflow:visible;enable-background:accumulate" />
    <path
       style="color:#000000;fill:#ffffff;fill-opacity:1;fill-rule:nonzero;stroke:none;stroke-width:0;marker:none;visibility:visible;display:inline;overflow:visible;enable-background:accumulate"
       d="m 482,280 30,0 0,36 -30,0 z"
       id="path3783"
       inkscape:connector-curvature="0"
       sodipodi:nodetypes="ccccc" />
    <path
       sodipodi:nodetypes="ccccc"
       inkscape:connector-curvature="0"
       id="path3785"
       d="m 481,290 31,0 0,26 -31,0 z"
       style="color:#000000;fill:#ffffff;fill-opacity:1;fill-rule:nonzero;stroke:none;stroke-width:0;marker:none;visibility:visible;display:inline;overflow:visible;enable-background:accumulate" />
    <path
       style="color:#000000;fill:#ffffff;fill-opacity:1;fill-rule:nonzero;stroke:none;stroke-width:0;marker:none;visibility:visible;display:inline;overflow:visible;enable-background:accumulate"
       d="m 430,289 31,0 0,26 -31,0 z"
       id="path3787"
       inkscape:connector-curvature="0"
       sodipodi:nodetypes="ccccc" />
    <path
       style="color:#000000;fill:#ffffff;fill-opacity:1;fill-rule:nonzero;stroke:none;stroke-width:0;marker:none;visibility:visible;display:inline;overflow:visible;enable-background:accumulate"
       d="m 488,315 24,0 0,27 -24,0 z"
       id="path3789"
       inkscape:connector-curvature="0"
       sodipodi:nodetypes="ccccc" />
    <path
       sodipodi:nodetypes="ccccc"
       inkscape:connector-curvature="0"
       id="path3791"
       d="m 455,328 47,0 0,14 -47,0 z"
       style="color:#000000;fill:#ffffff;fill-opacity:1;fill-rule:nonzero;stroke:none;stroke-width:0;marker:none;visibility:visible;display:inline;overflow:visible;enable-background:accumulate" />
    <path
       sodipodi:nodetypes="ccccc"
       inkscape:connector-curvature="0"
       id="path3793"
       d="m 449,280 63,0 0,4 -63,0 z"
       style="color:#000000;fill:#ffffff;fill-opacity:1;fill-rule:nonzero;stroke:none;stroke-width:0;marker:none;visibility:visible;display:inline;overflow:visible;enable-background:accumulate" />
    <path
       style="color:#000000;fill:#ffffff;fill-opacity:1;fill-rule:nonzero;stroke:none;stroke-width:0;marker:none;visibility:visible;display:inline;overflow:visible;enable-background:accumulate"
       d="m 475,282 37,0 0,4 -37,0 z"
       id="path3795"
       inkscape:connector-curvature="0"
       sodipodi:nodetypes="ccccc" />
    <path
       sodipodi:nodetypes="ccccc"
       inkscape:connector-curvature="0"
       id="path3797"
       d="m 430,282 37,0 0,4 -37,0 z"
       style="color:#000000;fill:#ffffff;fill-opacity:1;fill-rule:nonzero;stroke:none;stroke-width:0;marker:none;visibility:visible;display:inline;overflow:visible;enable-background:accumulate" />
    <path
       style="color:#000000;fill:#ffffff;fill-opacity:1;fill-rule:nonzero;stroke:none;stroke-width:0;marker:none;visibility:visible;display:inline;overflow:visible;enable-background:accumulate"
       d="m 504,20 8,0 0,276 -8,0 z"
       id="path3799"
       inkscape:connector-curvature="0"
       sodipodi:nodetypes="ccccc" />
    <path
       sodipodi:nodetypes="ccccc"
       inkscape:connector-curvature="0"
       id="path3801"
       d="m 305,20 207,0 0,13 -207,0 z"
       style="color:#000000;fill:#ffffff;fill-opacity:1;fill-rule:nonzero;stroke:none;stroke-width:0;marker:none;visibility:visible;display:inline;overflow:visible;enable-background:accumulate" />
    <path
       style="color:#000000;fill:#ffffff;fill-opacity:1;fill-rule:nonzero;stroke:none;stroke-width:0;marker:none;visibility:visible;display:inline;overflow:visible;enable-background:accumulate"
       d="m 8,20 301,0 0,7 -301,0 z"
       id="path3803"
       inkscape:connector-curvature="0"
       sodipodi:nodetypes="ccccc" />
    <path
       sodipodi:nodetypes="ccccc"
       inkscape:connector-curvature="0"
       id="path3805"
       d="m 15,245 4,0 0,85 -4,0 z"
       style="color:#000000;fill:#000000;fill-opacity:1;fill-rule:nonzero;stroke:none;stroke-width:0;marker:none;visibility:visible;display:inline;overflow:visible;enable-background:accumulate" />
    <path
       style="color:#000000;fill:#000000;fill-opacity:1;fill-rule:nonzero;stroke:none;stroke-width:0;marker:none;visibility:visible;display:inline;overflow:visible;enable-background:accumulate"
       d="m 15,245 78,0 0,4 -78,0 z"
       id="path3807"
       inkscape:connector-curvature="0"
       sodipodi:nodetypes="ccccc" />
    <path
       sodipodi:nodetypes="ccccc"
       inkscape:connector-curvature="0"
       id="path3809"
       d="m 15,330 90,0 0,5 -90,0 z"
       style="color:#000000;fill:#000000;fill-opacity:1;fill-rule:nonzero;stroke:none;stroke-width:0;marker:none;visibility:visible;display:inline;overflow:visible;enable-background:accumulate" />
    <path
       sodipodi:nodetypes="ccccccccccccccccccccc"
       inkscape:connector-curvature="0"
       id="path3773"
       d="m 4,337 0,-1 -1,0 0,-1 -1,0 0,-1 -1,0 0,-1 -1,0 0,-3 14,0 0,1 1,0 0,1 1,0 0,1 1,0 0,1 1,0 0,3 z"
       style="color:#000000;fill:#ffffff;fill-opacity:1;fill-rule:nonzero;stroke:none;stroke-width:0;marker:none;visibility:visible;display:inline;overflow:visible;enable-background:accumulate" />
    <path
       style="color:#000000;fill:#ffffff;fill-opacity:1;fill-rule:nonzero;stroke:none;stroke-width:0;marker:none;visibility:visible;display:inline;overflow:visible;enable-background:accumulate"
       d="m 105,331 0,1 -1,0 0,1 -1,0 0,1 -1,0 0,1 -1,0 0,3 14,0 0,-1 1,0 0,-1 1,0 0,-1 1,0 0,-1 1,0 0,-3 z"
       id="path3777"
       inkscape:connector-curvature="0"
       sodipodi:nodetypes="ccccccccccccccccccccc" />
    <path
       style="color:#000000;fill:#000000;fill-opacity:1;fill-rule:nonzero;stroke:none;stroke-width:0;marker:none;visibility:visible;display:inline;overflow:visible;enable-background:accumulate"
       d="m 100,301 4,0 0,29 -4,0 z"
       id="path3811"
       inkscape:connector-curvature="0"
       sodipodi:nodetypes="ccccc" />
    <path
       sodipodi:nodetypes="ccccc"
       inkscape:connector-curvature="0"
       id="path3815"
       d="m 122,232 5,0 0,37 -5,0 z"
       style="color:#000000;fill:#ffffff;fill-opacity:1;fill-rule:nonzero;stroke:none;stroke-width:0;marker:none;visibility:visible;display:inline;overflow:visible;enable-background:accumulate" />
    <path
       style="color:#000000;fill:#ffffff;fill-opacity:1;fill-rule:nonzero;stroke:none;stroke-width:0;marker:none;visibility:visible;display:inline;overflow:visible;enable-background:accumulate"
       d="m 121,232 7,0 0,36 -7,0 z"
       id="path3817"
       inkscape:connector-curvature="0"
       sodipodi:nodetypes="ccccc" />
    <path
       style="color:#000000;fill:#ffffff;fill-opacity:1;fill-rule:nonzero;stroke:none;stroke-width:0;marker:none;visibility:visible;display:inline;overflow:visible;enable-background:accumulate"
       d="m 122,221 5,0 0,-49 -5,0 z"
       id="path3819"
       inkscape:connector-curvature="0"
       sodipodi:nodetypes="ccccc" />
    <path
       sodipodi:nodetypes="ccccc"
       inkscape:connector-curvature="0"
       id="path3823"
       d="m 123,220 3,0 0,-49 -3,0 z"
       style="color:#000000;fill:#ffffff;fill-opacity:1;fill-rule:nonzero;stroke:none;stroke-width:0;marker:none;visibility:visible;display:inline;overflow:visible;enable-background:accumulate" />
    <path
       style="color:#000000;fill:#ffffff;fill-opacity:1;fill-rule:nonzero;stroke:none;stroke-width:0;marker:none;visibility:visible;display:inline;overflow:visible;enable-background:accumulate"
       d="m 147,229 6,0 0,-41 -6,0 z"
       id="path3825"
       inkscape:connector-curvature="0"
       sodipodi:nodetypes="ccccc" />
    <path
       sodipodi:nodetypes="ccccc"
       inkscape:connector-curvature="0"
       id="path3827"
       d="m 147,229 87,0 0,-3 -87,0 z"
       style="color:#000000;fill:#ffffff;fill-opacity:1;fill-rule:nonzero;stroke:none;stroke-width:0;marker:none;visibility:visible;display:inline;overflow:visible;enable-background:accumulate" />
    <path
       style="color:#000000;fill:#ffffff;fill-opacity:1;fill-rule:nonzero;stroke:none;stroke-width:0;marker:none;visibility:visible;display:inline;overflow:visible;enable-background:accumulate"
       d="m 147,191 87,0 0,-3 -87,0 z"
       id="path3829"
       inkscape:connector-curvature="0"
       sodipodi:nodetypes="ccccc" />
    <path
       sodipodi:nodetypes="ccccc"
       inkscape:connector-curvature="0"
       id="path3831"
       d="m 147,192 8,0 0,-4 -8,0 z"
       style="color:#000000;fill:#ffffff;fill-opacity:1;fill-rule:nonzero;stroke:none;stroke-width:0;marker:none;visibility:visible;display:inline;overflow:visible;enable-background:accumulate" />
    <path
       style="color:#000000;fill:#ffffff;fill-opacity:1;fill-rule:nonzero;stroke:none;stroke-width:0;marker:none;visibility:visible;display:inline;overflow:visible;enable-background:accumulate"
       d="m 147,229 8,0 0,-4 -8,0 z"
       id="path3833"
       inkscape:connector-curvature="0"
       sodipodi:nodetypes="ccccc" />
    <path
       style="color:#000000;fill:#ffffff;fill-opacity:1;fill-rule:nonzero;stroke:none;stroke-width:0;marker:none;visibility:visible;display:inline;overflow:visible;enable-background:accumulate"
       d="m 227,192 6,0 0,-4 -6,0 z"
       id="path3835"
       inkscape:connector-curvature="0"
       sodipodi:nodetypes="ccccc" />
    <path
       sodipodi:nodetypes="ccccc"
       inkscape:connector-curvature="0"
       id="path3837"
       d="m 227,229 6,0 0,-4 -6,0 z"
       style="color:#000000;fill:#ffffff;fill-opacity:1;fill-rule:nonzero;stroke:none;stroke-width:0;marker:none;visibility:visible;display:inline;overflow:visible;enable-background:accumulate" />
    <path
       style="color:#000000;fill:#ffffff;fill-opacity:1;fill-rule:nonzero;stroke:none;stroke-width:0;marker:none;visibility:visible;display:inline;overflow:visible;enable-background:accumulate"
       d="m 228,229 5,0 0,-41 -5,0 z"
       id="path3839"
       inkscape:connector-curvature="0"
       sodipodi:nodetypes="ccccc" />
    <path
       sodipodi:nodetypes="ccccc"
       inkscape:connector-curvature="0"
       id="path3841"
       d="m 228,210 118,0 0,-3 -118,0 z"
       style="color:#000000;fill:#ffffff;fill-opacity:1;fill-rule:nonzero;stroke:none;stroke-width:0;marker:none;visibility:visible;display:inline;overflow:visible;enable-background:accumulate" />
    <path
       style="color:#000000;fill:#ffffff;fill-opacity:1;fill-rule:nonzero;stroke:none;stroke-width:0;marker:none;visibility:visible;display:inline;overflow:visible;enable-background:accumulate"
       d="m 233,229 113,0 0,-4 -113,0 z"
       id="path3843"
       inkscape:connector-curvature="0"
       sodipodi:nodetypes="ccccc" />
    <path
       sodipodi:nodetypes="ccccc"
       inkscape:connector-curvature="0"
       id="path3845"
       d="m 233,192 113,0 0,-4 -113,0 z"
       style="color:#000000;fill:#ffffff;fill-opacity:1;fill-rule:nonzero;stroke:none;stroke-width:0;marker:none;visibility:visible;display:inline;overflow:visible;enable-background:accumulate" />
    <path
       style="color:#000000;fill:#ffffff;fill-opacity:1;fill-rule:nonzero;stroke:none;stroke-width:0;marker:none;visibility:visible;display:inline;overflow:visible;enable-background:accumulate"
       d="m 340,229 6,0 0,-41 -6,0 z"
       id="path3847"
       inkscape:connector-curvature="0"
       sodipodi:nodetypes="ccccc" />
    <path
       sodipodi:nodetypes="ccccc"
       inkscape:connector-curvature="0"
       id="path3849"
       d="m 252,284 46,0 0,-34 -46,0 z"
       style="color:#000000;fill:#ffffff;fill-opacity:1;fill-rule:nonzero;stroke:none;stroke-width:0;marker:none;visibility:visible;display:inline;overflow:visible;enable-background:accumulate" />
    <path
       sodipodi:nodetypes="ccccc"
       inkscape:connector-curvature="0"
       id="path3851"
       d="m 334,178 3,0 0,-28 -3,0 z"
       style="color:#000000;fill:#ffffff;fill-opacity:1;fill-rule:nonzero;stroke:none;stroke-width:0;marker:none;visibility:visible;display:inline;overflow:visible;enable-background:accumulate" />
    <path
       style="color:#000000;fill:#ffffff;fill-opacity:1;fill-rule:nonzero;stroke:none;stroke-width:0;marker:none;visibility:visible;display:inline;overflow:visible;enable-background:accumulate"
       d="m 334,154 63,0 0,-4 -63,0 z"
       id="path3853"
       inkscape:connector-curvature="0"
       sodipodi:nodetypes="ccccc" />
    <path
       sodipodi:nodetypes="ccccc"
       inkscape:connector-curvature="0"
       id="path3855"
       d="m 334,178 63,0 0,-5 -63,0 z"
       style="color:#000000;fill:#ffffff;fill-opacity:1;fill-rule:nonzero;stroke:none;stroke-width:0;marker:none;visibility:visible;display:inline;overflow:visible;enable-background:accumulate" />
    <path
       style="color:#000000;fill:#ffffff;fill-opacity:1;fill-rule:nonzero;stroke:none;stroke-width:0;marker:none;visibility:visible;display:inline;overflow:visible;enable-background:accumulate"
       d="m 393,178 4,0 0,-28 -4,0 z"
       id="path3857"
       inkscape:connector-curvature="0"
       sodipodi:nodetypes="ccccc" />
    <path
       style="color:#000000;fill:#ffffff;fill-opacity:1;fill-rule:nonzero;stroke:none;stroke-width:0;marker:none;visibility:visible;display:inline;overflow:visible;enable-background:accumulate"
       d="m 334,155 5,0 0,-5 -5,0 z"
       id="path3859"
       inkscape:connector-curvature="0"
       sodipodi:nodetypes="ccccc" />
    <path
       sodipodi:nodetypes="ccccc"
       inkscape:connector-curvature="0"
       id="path3861"
       d="m 334,177 5,0 0,-5 -5,0 z"
       style="color:#000000;fill:#ffffff;fill-opacity:1;fill-rule:nonzero;stroke:none;stroke-width:0;marker:none;visibility:visible;display:inline;overflow:visible;enable-background:accumulate" />
  </g>
  <g
     inkscape:groupmode="layer"
     id="layer3"
     inkscape:label="XX_TRACE"
     style="display:inline">
    <path
       inkscape:connector-curvature="0"
       d="M 0,0 0,5 1,5 1,3 2,3 2,2 3,2 3,1 5,1 5,0 0,0"
       style="fill:#000000;fill-opacity:1;fill-rule:nonzero;stroke:none"
       id="path12" />
    <path
       inkscape:connector-curvature="0"
       d="M 5,0 5,1 3,1 3,2 2,2 2,3 1,3 1,5 0,5 l 0,14 512,0 0,-14 -1,0 0,-2 -1,0 0,-1 -1,0 0,-1 -2,0 0,-1 L 5,0"
       style="fill:#ffffff;fill-opacity:1;fill-rule:nonzero;stroke:none"
       id="path14" />
    <path
       inkscape:connector-curvature="0"
       d="m 507,0 0,1 2,0 0,1 1,0 0,1 1,0 0,2 1,0 0,-5 -5,0 m -483,3 0,1 -1,0 0,2 -3,0 0,1 -1,0 0,5 1,0 0,1 1,0 0,1 2,0 0,-1 1,0 0,1 2,0 0,-1 1,0 0,-1 1,0 0,-2 -2,0 0,-2 2,0 0,-1 -1,0 0,-1 -3,0 0,-1 1,0 0,-1 1,0 0,-1 -2,0 m 19,2 0,9 2,0 0,-4 2,0 0,-1 -2,0 0,-3 3,0 0,-1 -5,0 m 7,0 0,1 2,0 0,-1 -2,0 m 4,0 0,9 2,0 0,-9 -2,0 m 25,0 0,9 5,0 0,-1 -3,0 0,-3 2,0 0,-1 -2,0 0,-3 3,0 0,-1 -5,0 m 11,0 0,2 -3,0 0,1 -1,0 0,5 1,0 0,1 5,0 0,-9 -2,0 m 4,0 0,1 2,0 0,-1 -2,0 m 5,0 0,2 -1,0 0,1 1,0 0,5 1,0 0,1 2,0 0,-1 -1,0 0,-5 1,0 0,-1 -1,0 0,-2 -2,0 m 18,0 0,9 4,0 0,-1 1,0 0,-1 1,0 0,-7 -2,0 0,8 -2,0 0,-8 -2,0 m 8,0 0,1 2,0 0,-1 -2,0 m 38,0 0,1 -1,0 0,3 1,0 0,1 1,0 0,1 1,0 0,2 -2,0 0,-1 -1,0 0,1 1,0 0,1 3,0 0,-1 1,0 0,-3 -1,0 0,-1 -1,0 0,-1 -1,0 0,-2 2,0 0,1 1,0 0,-1 -1,0 0,-1 -3,0 m 29,0 0,1 2,0 0,-1 -2,0 m 12,0 0,9 2,0 0,-9 -2,0"
       style="fill:#000000;fill-opacity:1;fill-rule:nonzero;stroke:none"
       id="path16" />
    <path
       inkscape:connector-curvature="0"
       d="m 23,6 0,1 1,0 0,-1 -1,0"
       style="fill:#ffffff;fill-opacity:1;fill-rule:nonzero;stroke:none"
       id="path18" />
    <path
       inkscape:connector-curvature="0"
       d="m 50,7 0,7 2,0 0,-7 -2,0 m 9,0 0,1 -1,0 0,5 1,0 0,1 4,0 0,-1 1,0 0,-1 -1,0 0,1 -3,0 0,-2 4,0 0,-3 -1,0 0,-1 -4,0 m 35,0 0,7 2,0 0,-7 -2,0 m 31,0 0,7 2,0 0,-7 -2,0 m 5,0 0,1 -1,0 0,5 1,0 0,1 4,0 0,-1 1,0 0,-1 -1,0 0,1 -3,0 0,-2 4,0 0,-3 -1,0 0,-1 -4,0 m 7,0 0,7 8,0 0,-1 1,0 0,-1 1,0 0,-5 -2,0 0,6 -2,0 0,-6 -2,0 0,6 -2,0 0,-6 -2,0 m 32,0 0,9 2,0 0,-2 3,0 0,-1 1,0 0,-5 -1,0 0,-1 -5,0 m 9,0 0,1 -1,0 0,5 1,0 0,1 4,0 0,-1 1,0 0,-1 -1,0 0,1 -3,0 0,-2 4,0 0,-3 -1,0 0,-1 -4,0 m 8,0 0,1 -1,0 0,5 1,0 0,1 3,0 0,-1 1,0 0,-1 -1,0 0,1 -2,0 0,-5 2,0 0,1 1,0 0,-1 -1,0 0,-1 -3,0 m 6,0 0,7 2,0 0,-7 -2,0 m 5,0 0,1 -1,0 0,1 1,0 0,1 -1,0 0,3 1,0 0,1 5,0 0,-6 -1,0 0,-1 -4,0"
       style="fill:#000000;fill-opacity:1;fill-rule:nonzero;stroke:none"
       id="path20" />
    <path
       inkscape:connector-curvature="0"
       d="m 60,8 0,2 2,0 0,-2 -2,0 m 28,0 0,5 2,0 0,-5 -2,0 m 43,0 0,2 2,0 0,-2 -2,0 m 40,0 0,5 2,0 0,-5 -2,0 m 8,0 0,2 2,0 0,-2 -2,0 m 18,0 0,1 3,0 0,-1 -3,0 m 1,2 0,3 2,0 0,-3 -2,0"
       style="fill:#ffffff;fill-opacity:1;fill-rule:nonzero;stroke:none"
       id="path22" />
    <path
       inkscape:connector-curvature="0"
       d="m 0,19 0,1 512,0 0,-1 -512,0"
       style="fill:#000000;fill-opacity:1;fill-rule:nonzero;stroke:none"
       id="path24" />
    <path
       inkscape:connector-curvature="0"
       d="M 0,20 0,342 512,342 512,20 0,20"
       style="fill:#ffffff;fill-opacity:1;fill-rule:nonzero;stroke:none"
       id="path26" />
    <path
       inkscape:connector-curvature="0"
       d="m 9,27 0,183 1,0 0,1 83,0 0,14 -74,0 0,1 -1,0 0,1 -1,0 0,1 -1,0 0,1 -1,0 0,1 -1,0 0,101 1,0 0,1 1,0 0,1 1,0 0,1 1,0 0,1 84,0 0,-1 1,0 0,-1 1,0 0,-1 1,0 0,-31 303,0 0,-21 96,0 0,-247 -199,0 0,-5 -1,0 0,-1 -295,0"
       style="fill:#000000;fill-opacity:1;fill-rule:nonzero;stroke:none"
       id="path28" />
    <path
       inkscape:connector-curvature="0"
       d="m 10,28 0,17 271,0 0,-12 22,0 0,-5 -293,0"
       style="fill:#ffffff;fill-opacity:1;fill-rule:nonzero;stroke:none"
       id="path30" />
    <path
       inkscape:connector-curvature="0"
       d="m 112,32 0,1 -1,0 0,3 1,0 0,1 1,0 0,1 1,0 0,2 -2,0 0,-1 -1,0 0,1 1,0 0,1 3,0 0,-1 1,0 0,-3 -1,0 0,-1 -1,0 0,-1 -1,0 0,-2 2,0 0,1 1,0 0,-1 -1,0 0,-1 -3,0 m 22,0 0,2 -1,0 0,1 1,0 0,5 1,0 0,1 2,0 0,-1 -1,0 0,-5 1,0 0,-1 -1,0 0,-2 -2,0 m 29,0 0,9 2,0 0,-4 2,0 0,-1 -2,0 0,-3 3,0 0,-1 -5,0 m 15,0 0,9 2,0 0,-9 -2,0 m 8,0 0,2 -3,0 0,1 -1,0 0,5 1,0 0,1 5,0 0,-9 -2,0 m -68,2 0,6 1,0 0,1 3,0 0,2 -3,0 0,-1 -1,0 0,1 1,0 0,1 4,0 0,-1 1,0 0,-9 -2,0 0,6 -2,0 0,-6 -2,0 m 9,0 0,1 -1,0 0,2 1,0 0,1 1,0 0,1 1,0 0,1 -2,0 0,-1 -1,0 0,1 1,0 0,1 3,0 0,-1 1,0 0,-2 -1,0 0,-1 -1,0 0,-1 -1,0 0,-1 2,0 0,1 1,0 0,-1 -1,0 0,-1 -3,0 m 13,0 0,1 -1,0 0,5 1,0 0,1 4,0 0,-1 1,0 0,-1 -1,0 0,1 -3,0 0,-2 4,0 0,-3 -1,0 0,-1 -4,0 m 7,0 0,7 2,0 0,-6 2,0 0,6 2,0 0,-6 2,0 0,6 2,0 0,-6 -1,0 0,-1 -9,0 m 24,0 0,1 -1,0 0,5 1,0 0,1 4,0 0,-1 1,0 0,-5 -1,0 0,-1 -4,0 m 20,0 0,1 -1,0 0,5 1,0 0,1 4,0 0,-1 1,0 0,-1 -1,0 0,1 -3,0 0,-2 4,0 0,-3 -1,0 0,-1 -4,0 m 7,0 0,7 2,0 0,-5 1,0 0,-1 2,0 0,-1 -2,0 0,1 -1,0 0,-1 -2,0"
       style="fill:#000000;fill-opacity:1;fill-rule:nonzero;stroke:none"
       id="path32" />
    <path
       inkscape:connector-curvature="0"
       d="m 282,34 0,17 220,0 0,-17 -220,0 m -141,1 0,2 2,0 0,-2 -2,0 m 31,0 0,5 2,0 0,-5 -2,0 m 12,0 0,5 2,0 0,-5 -2,0 m 8,0 0,2 2,0 0,-2 -2,0"
       style="fill:#ffffff;fill-opacity:1;fill-rule:nonzero;stroke:none"
       id="path34" />
    <path
       inkscape:connector-curvature="0"
       d="m 363,38 0,9 1,0 0,-5 1,0 0,1 1,0 0,1 1,0 0,1 1,0 0,1 1,0 0,1 1,0 0,-9 -1,0 0,5 -1,0 0,-1 -1,0 0,-1 -1,0 0,-1 -1,0 0,-1 -1,0 0,-1 -1,0 m 18,0 0,2 -1,0 0,1 1,0 0,5 1,0 0,1 2,0 0,-1 -1,0 0,-5 1,0 0,-1 -1,0 0,-2 -2,0 m 17,0 0,9 2,0 0,-4 3,0 0,-1 1,0 0,-3 -1,0 0,-1 -5,0 m 20,0 0,2 -3,0 0,1 -1,0 0,5 1,0 0,1 5,0 0,-9 -2,0"
       style="fill:#000000;fill-opacity:1;fill-rule:nonzero;stroke:none"
       id="path36" />
    <path
       inkscape:connector-curvature="0"
       d="m 400,39 0,3 2,0 0,-3 -2,0"
       style="fill:#ffffff;fill-opacity:1;fill-rule:nonzero;stroke:none"
       id="path38" />
    <path
       inkscape:connector-curvature="0"
       d="m 373,40 0,1 -1,0 0,5 1,0 0,1 4,0 0,-1 1,0 0,-5 -1,0 0,-1 -4,0 m 14,0 0,1 -1,0 0,5 1,0 0,1 4,0 0,-1 1,0 0,-1 -1,0 0,1 -3,0 0,-2 4,0 0,-3 -1,0 0,-1 -4,0 m 20,0 0,1 -1,0 0,1 1,0 0,1 -1,0 0,3 1,0 0,1 5,0 0,-6 -1,0 0,-1 -4,0"
       style="fill:#000000;fill-opacity:1;fill-rule:nonzero;stroke:none"
       id="path40" />
    <path
       inkscape:connector-curvature="0"
       d="m 374,41 0,5 2,0 0,-5 -2,0 m 14,0 0,2 2,0 0,-2 -2,0 m 19,0 0,1 3,0 0,-1 -3,0 m 9,0 0,5 2,0 0,-5 -2,0 m -8,2 0,3 2,0 0,-3 -2,0 m -398,3 0,17 271,0 0,-17 -271,0"
       style="fill:#ffffff;fill-opacity:1;fill-rule:nonzero;stroke:none"
       id="path42" />
    <path
       inkscape:connector-curvature="0"
       d="m 18,51 0,1 -1,0 0,1 -1,0 0,4 1,0 0,1 4,0 0,-1 1,0 0,-2 -1,0 0,-1 -3,0 0,-1 1,0 0,-1 2,0 0,-1 -3,0 m 10,0 0,1 2,0 0,-1 -2,0 m 4,0 0,2 -1,0 0,1 1,0 0,3 1,0 0,1 2,0 0,-1 -1,0 0,-3 1,0 0,-1 -1,0 0,-2 -2,0 m 87,0 0,1 -1,0 0,1 1,0 0,5 2,0 0,-7 -2,0 m 5,0 0,1 4,0 0,1 -1,0 0,2 -1,0 0,3 2,0 0,-3 1,0 0,-2 1,0 0,-2 -6,0 m 7,0 0,1 3,0 0,1 -1,0 0,1 -1,0 0,1 3,0 0,2 -2,0 0,-1 -2,0 0,1 1,0 0,1 4,0 0,-1 1,0 0,-2 -1,0 0,-1 -1,0 0,-1 1,0 0,-1 1,0 0,-1 -6,0 m 7,0 0,7 2,0 0,-2 1,0 0,1 1,0 0,1 2,0 0,-1 -1,0 0,-1 -1,0 0,-1 -1,0 0,-1 1,0 0,-1 1,0 0,-1 1,0 0,-1 -2,0 0,1 -1,0 0,1 -1,0 0,-2 -2,0 m 12,0 0,1 2,0 0,-1 -2,0 m 15,0 0,1 -1,0 0,1 -1,0 0,1 1,0 0,4 2,0 0,-4 1,0 0,-1 -1,0 0,-1 2,0 0,-1 -3,0 m 9,0 0,1 1,0 0,6 2,0 0,-7 -3,0 m 7,0 0,2 -2,0 0,1 -1,0 0,3 1,0 0,1 4,0 0,-7 -2,0 m 36,0 0,1 -1,0 0,1 2,0 0,-1 2,0 0,2 -1,0 0,1 -1,0 0,1 -1,0 0,1 -1,0 0,1 6,0 0,-1 -3,0 0,-1 1,0 0,-1 1,0 0,-1 1,0 0,-2 -1,0 0,-1 -4,0 m 7,0 0,1 -1,0 0,5 1,0 0,1 4,0 0,-1 1,0 0,-5 -1,0 0,-1 -4,0 m 8,0 0,1 -1,0 0,1 1,0 0,5 2,0 0,-7 -2,0 m 5,0 0,7 2,0 0,-2 1,0 0,1 1,0 0,1 2,0 0,-1 -1,0 0,-1 -1,0 0,-1 -1,0 0,-1 1,0 0,-1 1,0 0,-1 1,0 0,-1 -2,0 0,1 -1,0 0,1 -1,0 0,-2 -2,0 m 31,0 0,1 2,0 0,-1 -2,0 m 3,0 0,1 1,0 0,6 2,0 0,-7 -3,0"
       style="fill:#000000;fill-opacity:1;fill-rule:nonzero;stroke:none"
       id="path44" />
    <path
       inkscape:connector-curvature="0"
       d="m 225,52 0,5 2,0 0,-5 -2,0 m 57,0 0,72 125,0 0,1 1,0 0,147 94,0 0,-220 -220,0"
       style="fill:#ffffff;fill-opacity:1;fill-rule:nonzero;stroke:none"
       id="path46" />
    <path
       inkscape:connector-curvature="0"
       d="m 27,53 0,1 1,0 0,4 2,0 0,-5 -3,0 m 10,0 0,1 -1,0 0,3 1,0 0,1 3,0 0,-1 -2,0 0,-1 3,0 0,-2 -1,0 0,-1 -3,0 m 5,0 0,5 2,0 0,-4 1,0 0,4 2,0 0,-4 1,0 0,4 2,0 0,-4 -1,0 0,-1 -7,0 m 10,0 0,1 -1,0 0,1 1,0 0,1 2,0 0,1 -3,0 0,1 4,0 0,-1 1,0 0,-1 -1,0 0,-1 -2,0 0,-1 3,0 0,-1 -4,0 m 97,0 0,1 1,0 0,4 2,0 0,-5 -3,0 m 4,0 0,5 2,0 0,-4 1,0 0,4 2,0 0,-4 -1,0 0,-1 -4,0 m 16,0 0,1 -1,0 0,3 1,0 0,1 3,0 0,-1 1,0 0,-3 -1,0 0,-1 -3,0 m 16,0 0,1 -1,0 0,3 1,0 0,1 3,0 0,-1 -2,0 0,-1 3,0 0,-2 -1,0 0,-1 -3,0 m 5,0 0,5 2,0 0,-3 1,0 0,-1 2,0 0,-1 -5,0 m 59,0 0,1 2,0 0,1 -2,0 0,1 -1,0 0,1 1,0 0,1 4,0 0,-4 -1,0 0,-1 -3,0 m 5,0 0,1 1,0 0,2 1,0 0,2 2,0 0,-2 1,0 0,-2 1,0 0,-1 -2,0 0,1 -2,0 0,-1 -2,0 m 8,0 0,1 2,0 0,1 -2,0 0,1 -1,0 0,1 1,0 0,1 4,0 0,-4 -1,0 0,-1 -3,0 m 5,0 0,1 1,0 0,4 2,0 0,-5 -3,0 m 9,0 0,1 2,0 0,1 -2,0 0,1 -1,0 0,1 1,0 0,1 4,0 0,-4 -1,0 0,-1 -3,0"
       style="fill:#000000;fill-opacity:1;fill-rule:nonzero;stroke:none"
       id="path48" />
    <path
       inkscape:connector-curvature="0"
       d="m 38,54 0,1 1,0 0,-1 -1,0 m 132,0 0,3 1,0 0,-3 -1,0 m 10,0 0,3 1,0 0,-3 -1,0 m 6,0 0,1 1,0 0,-1 -1,0 m -168,1 0,2 2,0 0,-2 -2,0 m 232,1 0,1 1,0 0,-1 -1,0 m 13,0 0,1 1,0 0,-1 -1,0 m 14,0 0,1 1,0 0,-1 -1,0"
       style="fill:#ffffff;fill-opacity:1;fill-rule:nonzero;stroke:none"
       id="path50" />
    <path
       inkscape:connector-curvature="0"
       d="m 291,63 0,1 3,0 0,8 1,0 0,-8 3,0 0,-1 -7,0 m 9,0 0,9 1,0 0,-5 1,0 0,-1 2,0 0,6 1,0 0,-6 -1,0 0,-1 -2,0 0,1 -1,0 0,-3 -1,0 m 8,0 0,1 1,0 0,-1 -1,0 m 16,0 0,1 1,0 0,-1 -1,0 m 26,0 0,9 1,0 0,-7 1,0 0,2 1,0 0,2 1,0 0,2 1,0 0,1 1,0 0,-9 -1,0 0,6 -1,0 0,-2 -1,0 0,-2 -1,0 0,-2 -2,0 m 16,0 0,2 -1,0 0,1 1,0 0,5 1,0 0,1 2,0 0,-1 -2,0 0,-5 1,0 0,-1 -1,0 0,-2 -1,0 m 16,0 0,9 1,0 0,-4 4,0 0,-1 1,0 0,-3 -1,0 0,-1 -5,0 m 19,0 0,2 -3,0 0,1 -1,0 0,5 1,0 0,1 4,0 0,-9 -1,0 m 8,0 0,2 -1,0 0,1 1,0 0,5 1,0 0,1 2,0 0,-1 -2,0 0,-5 1,0 0,-1 -1,0 0,-2 -1,0 m 20,0 0,2 -1,0 0,1 1,0 0,5 1,0 0,1 2,0 0,-1 -2,0 0,-5 1,0 0,-1 -1,0 0,-2 -1,0"
       style="fill:#000000;fill-opacity:1;fill-rule:nonzero;stroke:none"
       id="path52" />
    <path
       inkscape:connector-curvature="0"
       d="m 10,64 0,1 271,0 0,-1 -271,0 m 373,0 0,3 4,0 0,-3 -4,0"
       style="fill:#ffffff;fill-opacity:1;fill-rule:nonzero;stroke:none"
       id="path54" />
    <path
       inkscape:connector-curvature="0"
       d="m 307,65 0,1 1,0 0,6 1,0 0,-7 -2,0 m 6,0 0,1 -1,0 0,2 1,0 0,1 3,0 0,2 -3,0 0,-1 -1,0 0,1 1,0 0,1 3,0 0,-1 1,0 0,-2 -1,0 0,-1 -3,0 0,-2 3,0 0,1 1,0 0,-1 -1,0 0,-1 -3,0 m 10,0 0,1 1,0 0,6 1,0 0,-7 -2,0 m 6,0 0,1 -1,0 0,2 1,0 0,1 3,0 0,2 -3,0 0,-1 -1,0 0,1 1,0 0,1 3,0 0,-1 1,0 0,-2 -1,0 0,-1 -3,0 0,-2 3,0 0,1 1,0 0,-1 -1,0 0,-1 -3,0 m 11,0 0,1 -1,0 0,1 1,0 0,1 -1,0 0,3 1,0 0,1 4,0 0,-6 -1,0 0,-1 -3,0 m 19,0 0,1 -1,0 0,5 1,0 0,1 3,0 0,-1 1,0 0,-5 -1,0 0,-1 -3,0 m 13,0 0,1 -1,0 0,5 1,0 0,1 3,0 0,-1 1,0 0,-1 -1,0 0,1 -3,0 0,-2 4,0 0,-3 -1,0 0,-1 -3,0 m 19,0 0,1 -1,0 0,1 1,0 0,1 -1,0 0,3 1,0 0,1 4,0 0,-6 -1,0 0,-1 -3,0 m 24,0 0,1 -1,0 0,5 1,0 0,1 3,0 0,-1 1,0 0,-1 -1,0 0,1 -3,0 0,-2 4,0 0,-3 -1,0 0,-1 -3,0 m 7,0 0,1 -1,0 0,2 1,0 0,1 3,0 0,2 -3,0 0,-1 -1,0 0,1 1,0 0,1 3,0 0,-1 1,0 0,-2 -1,0 0,-1 -3,0 0,-2 3,0 0,1 1,0 0,-1 -1,0 0,-1 -3,0"
       style="fill:#000000;fill-opacity:1;fill-rule:nonzero;stroke:none"
       id="path56" />
    <path
       inkscape:connector-curvature="0"
       d="m 10,66 0,128 83,0 0,-12 -1,0 0,-1 1,0 0,-1 -1,0 0,1 -1,0 0,-3 1,0 0,1 1,0 0,-1 -1,0 0,-1 1,0 0,-53 188,0 0,-58 -271,0 m 330,0 0,1 3,0 0,-1 -3,0 m 19,0 0,5 3,0 0,-5 -3,0 m 13,0 0,2 3,0 0,-2 -3,0 m 19,0 0,1 3,0 0,-1 -3,0 m 7,0 0,5 3,0 0,-5 -3,0 m 17,0 0,2 3,0 0,-2 -3,0 m -75,2 0,3 3,0 0,-3 -3,0 m 51,0 0,3 3,0 0,-3 -3,0"
       style="fill:#ffffff;fill-opacity:1;fill-rule:nonzero;stroke:none"
       id="path58" />
    <path
       inkscape:connector-curvature="0"
       d="m 434,71 0,1 1,0 0,-1 -1,0 m -144,5 0,16 1,0 0,-16 -1,0 m -266,3 0,1 -1,0 0,25 1,0 0,5 22,0 0,-5 1,0 0,-25 -1,0 0,-1 -22,0 m 64,0 0,1 -1,0 0,25 1,0 0,5 22,0 0,-5 1,0 0,-25 -1,0 0,-1 -22,0 m 64,0 0,1 -1,0 0,25 1,0 0,5 22,0 0,-5 1,0 0,-25 -1,0 0,-1 -22,0 m 64,0 0,1 -1,0 0,25 1,0 0,5 22,0 0,-5 1,0 0,-25 -1,0 0,-1 -22,0"
       style="fill:#000000;fill-opacity:1;fill-rule:nonzero;stroke:none"
       id="path60" />
    <path
       inkscape:connector-curvature="0"
       d="m 24,80 0,25 22,0 0,-25 -22,0 m 64,0 0,25 22,0 0,-25 -22,0 m 64,0 0,25 22,0 0,-25 -22,0 m 64,0 0,25 22,0 0,-25 -22,0"
       style="fill:#ffffff;fill-opacity:1;fill-rule:nonzero;stroke:none"
       id="path62" />
    <path
       inkscape:connector-curvature="0"
       d="m 27,82 0,1 -1,0 0,12 1,0 0,1 16,0 0,-1 1,0 0,-12 -1,0 0,-1 -16,0 m 64,0 0,1 -1,0 0,12 1,0 0,1 16,0 0,-1 1,0 0,-12 -1,0 0,-1 -16,0 m 64,0 0,1 -1,0 0,12 1,0 0,1 16,0 0,-1 1,0 0,-12 -1,0 0,-1 -16,0 m 64,0 0,1 -1,0 0,12 1,0 0,1 16,0 0,-1 1,0 0,-12 -1,0 0,-1 -16,0"
       style="fill:#000000;fill-opacity:1;fill-rule:nonzero;stroke:none"
       id="path64" />
    <path
       inkscape:connector-curvature="0"
       d="m 27,83 0,12 16,0 0,-12 -16,0 m 64,0 0,12 16,0 0,-12 -16,0 m 64,0 0,12 16,0 0,-12 -16,0 m 64,0 0,12 16,0 0,-12 -16,0"
       style="fill:#ffffff;fill-opacity:1;fill-rule:nonzero;stroke:none"
       id="path66" />
    <path
       inkscape:connector-curvature="0"
       d="m 28,84 0,1 1,0 0,-1 -1,0 m 2,0 0,1 1,0 0,-1 -1,0 m 2,0 0,1 1,0 0,-1 -1,0 m 2,0 0,1 1,0 0,-1 -1,0 m 2,0 0,1 1,0 0,-1 -1,0 m 2,0 0,1 1,0 0,-1 -1,0 m 54,0 0,1 1,0 0,-1 -1,0 m 2,0 0,1 1,0 0,-1 -1,0 m 2,0 0,1 1,0 0,-1 -1,0 m 2,0 0,1 1,0 0,-1 -1,0 m 2,0 0,1 1,0 0,-1 -1,0 m 2,0 0,1 1,0 0,-1 -1,0 m 54,0 0,1 1,0 0,-1 -1,0 m 2,0 0,1 1,0 0,-1 -1,0 m 2,0 0,1 1,0 0,-1 -1,0 m 2,0 0,1 1,0 0,-1 -1,0 m 2,0 0,1 1,0 0,-1 -1,0 m 2,0 0,1 1,0 0,-1 -1,0 m 54,0 0,1 1,0 0,-1 -1,0 m 2,0 0,1 1,0 0,-1 -1,0 m 2,0 0,1 1,0 0,-1 -1,0 m 2,0 0,1 1,0 0,-1 -1,0 m 2,0 0,1 1,0 0,-1 -1,0 m 2,0 0,1 1,0 0,-1 -1,0 m -202,2 0,1 1,0 0,-1 -1,0 m 2,0 0,1 1,0 0,-1 -1,0 m 2,0 0,1 1,0 0,-1 -1,0 m 2,0 0,1 1,0 0,-1 -1,0 m 58,0 0,1 1,0 0,-1 -1,0 m 2,0 0,1 1,0 0,-1 -1,0 m 2,0 0,1 1,0 0,-1 -1,0 m 2,0 0,1 1,0 0,-1 -1,0 m 58,0 0,1 1,0 0,-1 -1,0 m 2,0 0,1 1,0 0,-1 -1,0 m 2,0 0,1 1,0 0,-1 -1,0 m 2,0 0,1 1,0 0,-1 -1,0 m 58,0 0,1 1,0 0,-1 -1,0 m 2,0 0,1 1,0 0,-1 -1,0 m 2,0 0,1 1,0 0,-1 -1,0 m 2,0 0,1 1,0 0,-1 -1,0 m -198,2 0,1 1,0 0,-1 -1,0 m 2,0 0,1 1,0 0,-1 -1,0 m 62,0 0,1 1,0 0,-1 -1,0 m 2,0 0,1 1,0 0,-1 -1,0 m 62,0 0,1 1,0 0,-1 -1,0 m 2,0 0,1 1,0 0,-1 -1,0 m 62,0 0,1 1,0 0,-1 -1,0 m 2,0 0,1 1,0 0,-1 -1,0 m -194,2 0,1 1,0 0,-1 -1,0 m 2,0 0,1 1,0 0,-1 -1,0 m 62,0 0,1 1,0 0,-1 -1,0 m 2,0 0,1 1,0 0,-1 -1,0 m 62,0 0,1 1,0 0,-1 -1,0 m 2,0 0,1 1,0 0,-1 -1,0 m 62,0 0,1 1,0 0,-1 -1,0 m 2,0 0,1 1,0 0,-1 -1,0 m -194,2 0,1 1,0 0,-1 -1,0 m 2,0 0,1 1,0 0,-1 -1,0 m 2,0 0,1 1,0 0,-1 -1,0 m 60,0 0,1 1,0 0,-1 -1,0 m 2,0 0,1 1,0 0,-1 -1,0 m 2,0 0,1 1,0 0,-1 -1,0 m 60,0 0,1 1,0 0,-1 -1,0 m 2,0 0,1 1,0 0,-1 -1,0 m 2,0 0,1 1,0 0,-1 -1,0 m 60,0 0,1 1,0 0,-1 -1,0 m 2,0 0,1 1,0 0,-1 -1,0 m 2,0 0,1 1,0 0,-1 -1,0 m -189,8 0,1 8,0 0,-1 -8,0 m 64,0 0,1 8,0 0,-1 -8,0 m 64,0 0,1 8,0 0,-1 -8,0 m 64,0 0,1 8,0 0,-1 -8,0"
       style="fill:#000000;fill-opacity:1;fill-rule:nonzero;stroke:none"
       id="path68" />
    <path
       inkscape:connector-curvature="0"
       d="m 25,106 0,3 20,0 0,-3 -20,0 m 64,0 0,3 20,0 0,-3 -20,0 m 64,0 0,3 20,0 0,-3 -20,0 m 64,0 0,3 20,0 0,-3 -20,0"
       style="fill:#ffffff;fill-opacity:1;fill-rule:nonzero;stroke:none"
       id="path70" />
    <path
       inkscape:connector-curvature="0"
       d="m 21,113 0,7 1,0 0,-3 2,0 0,-1 -2,0 0,-2 3,0 0,-1 -4,0 m 6,0 0,1 1,0 0,-1 -1,0 m 10,0 0,2 -2,0 0,1 -1,0 0,3 1,0 0,1 3,0 0,-7 -1,0 m 46,0 0,1 -1,0 0,2 1,0 0,1 3,0 0,2 -3,0 0,-1 -1,0 0,1 1,0 0,1 3,0 0,-1 1,0 0,-2 -1,0 0,-1 -3,0 0,-2 3,0 0,1 1,0 0,-1 -1,0 0,-1 -3,0 m 17,0 0,2 -1,0 0,1 1,0 0,3 1,0 0,1 1,0 0,-1 -1,0 0,-3 1,0 0,-1 -1,0 0,-2 -1,0 m 36,0 0,7 1,0 0,-7 -1,0 m 39,0 0,1 1,0 0,-1 -1,0 m 3,0 0,2 -1,0 0,1 1,0 0,3 1,0 0,1 1,0 0,-1 -1,0 0,-3 1,0 0,-1 -1,0 0,-2 -1,0 m 20,0 0,1 -1,0 0,5 1,0 0,1 3,0 0,-1 1,0 0,-1 -1,0 0,1 -3,0 0,-5 3,0 0,1 1,0 0,-1 -1,0 0,-1 -3,0 m 5,0 0,1 1,0 0,6 1,0 0,-7 -2,0 m 4,0 0,1 1,0 0,-1 -1,0 m 7,0 0,7 3,0 0,-1 1,0 0,-3 -1,0 0,-1 -2,0 0,-2 -1,0 m 23,0 0,2 -2,0 0,1 -1,0 0,3 1,0 0,1 3,0 0,-7 -1,0 m 5,0 0,7 1,0 0,-3 2,0 0,-1 -2,0 0,-2 3,0 0,-1 -4,0 m 6,0 0,1 1,0 0,-1 -1,0 m 2,0 0,1 1,0 0,6 1,0 0,-7 -2,0 m -224,2 0,1 1,0 0,4 1,0 0,-5 -2,0 m 3,0 0,5 1,0 0,-4 2,0 0,4 1,0 0,-4 -1,0 0,-1 -3,0 m 11,0 0,1 -1,0 0,3 1,0 0,1 2,0 0,-1 -2,0 0,-1 3,0 0,-2 -1,0 0,-1 -2,0 m 4,0 0,5 1,0 0,-3 1,0 0,-1 2,0 0,-1 -2,0 0,1 -1,0 0,-1 -1,0 m 44,0 0,4 1,0 0,1 2,0 0,1 -2,0 0,1 2,0 0,-1 1,0 0,-6 -1,0 0,4 -2,0 0,-4 -1,0 m 7,0 0,1 -1,0 0,1 1,0 0,1 2,0 0,1 -3,0 0,1 3,0 0,-1 1,0 0,-1 -1,0 0,-1 -2,0 0,-1 3,0 0,-1 -3,0 m 9,0 0,1 -1,0 0,3 1,0 0,1 2,0 0,-1 -2,0 0,-1 3,0 0,-2 -1,0 0,-1 -2,0 m 4,0 0,5 1,0 0,-4 2,0 0,4 1,0 0,-4 2,0 0,4 1,0 0,-4 -1,0 0,-1 -2,0 0,1 -1,0 0,-1 -3,0 m 30,0 0,5 1,0 0,-4 2,0 0,4 1,0 0,-4 2,0 0,4 1,0 0,-4 -1,0 0,-1 -2,0 0,1 -1,0 0,-1 -3,0 m 9,0 0,1 2,0 0,1 -2,0 0,1 -1,0 0,1 1,0 0,1 3,0 0,-4 -1,0 0,-1 -2,0 m 5,0 0,1 -1,0 0,3 1,0 0,1 2,0 0,1 -2,0 0,1 2,0 0,-1 1,0 0,-6 -3,0 m 5,0 0,1 -1,0 0,3 1,0 0,1 2,0 0,-1 -2,0 0,-1 3,0 0,-2 -1,0 0,-1 -2,0 m 4,0 0,1 1,0 0,2 1,0 0,2 1,0 0,-2 1,0 0,2 1,0 0,-2 1,0 0,-2 1,0 0,-1 -1,0 0,1 -1,0 0,2 -1,0 0,-2 -1,0 0,2 -1,0 0,-2 -1,0 0,-1 -1,0 m 8,0 0,5 1,0 0,-3 1,0 0,-1 2,0 0,-1 -2,0 0,1 -1,0 0,-1 -1,0 m 5,0 0,1 1,0 0,4 1,0 0,-5 -2,0 m 8,0 0,1 -1,0 0,3 1,0 0,1 2,0 0,-1 -2,0 0,-1 3,0 0,-2 -1,0 0,-1 -2,0 m 4,0 0,5 1,0 0,-3 1,0 0,-1 2,0 0,-1 -2,0 0,1 -1,0 0,-1 -1,0 m 20,0 0,1 1,0 0,4 1,0 0,-5 -2,0 m 3,0 0,7 1,0 0,-2 2,0 0,-1 1,0 0,-3 -1,0 0,-1 -3,0 m 11,0 0,1 -1,0 0,3 1,0 0,1 2,0 0,-1 1,0 0,-3 -1,0 0,-1 -2,0 m 5,0 0,1 2,0 0,1 -2,0 0,1 -1,0 0,1 1,0 0,1 3,0 0,-4 -1,0 0,-1 -2,0 m 4,0 0,5 1,0 0,-3 1,0 0,-1 2,0 0,-1 -2,0 0,1 -1,0 0,-1 -1,0 m 18,0 0,1 1,0 0,4 1,0 0,-5 -2,0 m 7,0 0,1 -1,0 0,3 1,0 0,1 2,0 0,-1 -2,0 0,-1 3,0 0,-2 -1,0 0,-1 -2,0"
       style="fill:#000000;fill-opacity:1;fill-rule:nonzero;stroke:none"
       id="path72" />
    <path
       inkscape:connector-curvature="0"
       d="m 35,116 0,3 2,0 0,-3 -2,0 m 5,0 0,1 2,0 0,-1 -2,0 m 64,0 0,1 2,0 0,-1 -2,0 m 48,0 0,3 2,0 0,-3 -2,0 m 5,0 0,1 2,0 0,-1 -2,0 m 25,0 0,1 2,0 0,-1 -2,0 m 28,0 0,3 2,0 0,-3 -2,0 m 5,0 0,3 2,0 0,-3 -2,0 m 5,0 0,3 2,0 0,-3 -2,0 m 15,0 0,3 2,0 0,-3 -2,0 m 19,0 0,1 2,0 0,-1 -2,0 m -107,2 0,1 2,0 0,-1 -2,0 m 78,0 0,1 2,0 0,-1 -2,0 m -131,7 0,17 312,0 0,-17 -312,0"
       style="fill:#ffffff;fill-opacity:1;fill-rule:nonzero;stroke:none"
       id="path74" />
    <path
       inkscape:connector-curvature="0"
       d="m 95,128 0,1 6,0 0,-1 -6,0 m 7,0 0,11 11,0 0,-11 -11,0 m 12,0 0,1 86,0 0,-1 -86,0 m 186,0 0,1 105,0 0,-1 -105,0"
       style="fill:#000000;fill-opacity:1;fill-rule:nonzero;stroke:none"
       id="path76" />
    <path
       inkscape:connector-curvature="0"
       d="m 103,129 0,9 9,0 0,-9 -9,0"
       style="fill:#ffffff;fill-opacity:1;fill-rule:nonzero;stroke:none"
       id="path78" />
    <path
       inkscape:connector-curvature="0"
       d="m 208,129 0,1 -1,0 0,7 1,0 0,1 4,0 0,-1 1,0 0,-1 -1,0 0,1 -3,0 0,-7 3,0 0,1 1,0 0,-1 -1,0 0,-1 -4,0 m 24,0 0,2 -1,0 0,1 1,0 0,5 1,0 0,1 2,0 0,-1 -1,0 0,-5 1,0 0,-1 -1,0 0,-2 -2,0 m 19,0 0,9 2,0 0,-9 -2,0 m 8,0 0,9 2,0 0,-4 3,0 0,-1 1,0 0,-3 -1,0 0,-1 -5,0 m 32,0 0,9 2,0 0,-9 -2,0 m -196,1 0,1 6,0 0,-1 -6,0 m 19,0 0,1 86,0 0,-1 -86,0"
       style="fill:#000000;fill-opacity:1;fill-rule:nonzero;stroke:none"
       id="path80" />
    <path
       inkscape:connector-curvature="0"
       d="m 261,130 0,3 2,0 0,-3 -2,0"
       style="fill:#ffffff;fill-opacity:1;fill-rule:nonzero;stroke:none"
       id="path82" />
    <path
       inkscape:connector-curvature="0"
       d="m 300,130 0,1 105,0 0,-1 -105,0 m -84,1 0,1 -1,0 0,5 1,0 0,1 4,0 0,-1 1,0 0,-5 -1,0 0,-1 -4,0 m 7,0 0,7 2,0 0,-6 2,0 0,6 2,0 0,-6 -1,0 0,-1 -5,0 m 14,0 0,7 2,0 0,-5 1,0 0,-1 2,0 0,-1 -2,0 0,1 -1,0 0,-1 -2,0 m 7,0 0,1 -1,0 0,5 1,0 0,1 4,0 0,-1 1,0 0,-5 -1,0 0,-1 -4,0 m 24,0 0,1 -1,0 0,1 1,0 0,1 -1,0 0,3 1,0 0,1 5,0 0,-6 -1,0 0,-1 -4,0 m 7,0 0,7 2,0 0,-6 2,0 0,6 2,0 0,-6 -1,0 0,-1 -5,0 m 9,0 0,1 -1,0 0,5 1,0 0,1 4,0 0,-1 1,0 0,-1 -1,0 0,1 -3,0 0,-2 4,0 0,-3 -1,0 0,-1 -4,0 m -189,1 0,1 6,0 0,-1 -6,0 m 19,0 0,1 86,0 0,-1 -86,0"
       style="fill:#000000;fill-opacity:1;fill-rule:nonzero;stroke:none"
       id="path84" />
    <path
       inkscape:connector-curvature="0"
       d="m 217,132 0,5 2,0 0,-5 -2,0 m 28,0 0,5 2,0 0,-5 -2,0 m 23,0 0,1 3,0 0,-1 -3,0 m 17,0 0,2 2,0 0,-2 -2,0"
       style="fill:#ffffff;fill-opacity:1;fill-rule:nonzero;stroke:none"
       id="path86" />
    <path
       inkscape:connector-curvature="0"
       d="m 300,132 0,1 105,0 0,-1 -105,0 m -205,2 0,1 6,0 0,-1 -6,0 m 19,0 0,1 86,0 0,-1 -86,0"
       style="fill:#000000;fill-opacity:1;fill-rule:nonzero;stroke:none"
       id="path88" />
    <path
       inkscape:connector-curvature="0"
       d="m 269,134 0,3 2,0 0,-3 -2,0"
       style="fill:#ffffff;fill-opacity:1;fill-rule:nonzero;stroke:none"
       id="path90" />
    <path
       inkscape:connector-curvature="0"
       d="m 300,134 0,1 105,0 0,-1 -105,0 m -205,2 0,1 6,0 0,-1 -6,0 m 19,0 0,1 86,0 0,-1 -86,0 m 186,0 0,1 105,0 0,-1 -105,0 m -205,2 0,1 6,0 0,-1 -6,0 m 19,0 0,1 86,0 0,-1 -86,0 m 186,0 0,1 105,0 0,-1 -105,0"
       style="fill:#000000;fill-opacity:1;fill-rule:nonzero;stroke:none"
       id="path92" />
    <path
       inkscape:connector-curvature="0"
       d="m 94,143 0,156 312,0 0,-156 -312,0"
       style="fill:#ffffff;fill-opacity:1;fill-rule:nonzero;stroke:none"
       id="path94" />
    <path
       inkscape:connector-curvature="0"
       d="m 95,144 0,154 310,0 0,-154 -310,0"
       style="fill:#000000;fill-opacity:1;fill-rule:nonzero;stroke:none"
       id="path96" />
    <path
       inkscape:connector-curvature="0"
       d="m 100,148 0,144 41,0 0,-144 -41,0 m 45,0 0,32 148,0 0,-32 -148,0 m 152,0 0,32 102,0 0,-32 -102,0"
       style="fill:#ffffff;fill-opacity:1;fill-rule:nonzero;stroke:none"
       id="path98" />
    <path
       inkscape:connector-curvature="0"
       d="m 101,149 0,142 39,0 0,-142 -39,0 m 45,0 0,30 146,0 0,-30 -146,0 m 152,0 0,30 34,0 0,-30 -34,0 m 35,0 0,30 65,0 0,-30 -65,0"
       style="fill:#000000;fill-opacity:1;fill-rule:nonzero;stroke:none"
       id="path100" />
    <path
       inkscape:connector-curvature="0"
       d="m 102,150 0,140 37,0 0,-140 -37,0 m 45,0 0,28 144,0 0,-28 -144,0 m 152,0 0,2 32,0 0,-2 -32,0 m 35,0 0,28 63,0 0,-28 -63,0"
       style="fill:#ffffff;fill-opacity:1;fill-rule:nonzero;stroke:none"
       id="path102" />
    <path
       inkscape:connector-curvature="0"
       d="m 120,153 0,1 -1,0 0,1 -1,0 0,1 -1,0 0,1 -3,0 0,4 3,0 0,1 1,0 0,1 1,0 0,1 1,0 0,1 1,0 0,-12 -1,0 m 8,0 0,1 1,0 0,1 1,0 0,-1 -1,0 0,-1 -1,0"
       style="fill:#000000;fill-opacity:1;fill-rule:nonzero;stroke:none"
       id="path104" />
    <path
       inkscape:connector-curvature="0"
       d="m 299,153 0,2 7,0 0,-2 -7,0 m 16,0 0,2 16,0 0,-2 -16,0"
       style="fill:#ffffff;fill-opacity:1;fill-rule:nonzero;stroke:none"
       id="path106" />
    <path
       inkscape:connector-curvature="0"
       d="m 446,153 0,11 1,0 0,-1 1,0 0,-1 1,0 0,1 1,0 0,2 1,0 0,2 2,0 0,-2 -1,0 0,-2 -1,0 0,-2 3,0 0,-1 -1,0 0,-1 -1,0 0,-1 -1,0 0,-1 -1,0 0,-1 -1,0 0,-1 -1,0 0,-1 -1,0 0,-1 -1,0 m -321,1 0,1 1,0 0,1 1,0 0,-1 -1,0 0,-1 -1,0 m 214,0 0,1 -1,0 0,1 -1,0 0,15 1,0 0,1 1,0 0,1 53,0 0,-1 1,0 0,-17 -1,0 0,-1 -53,0"
       style="fill:#000000;fill-opacity:1;fill-rule:nonzero;stroke:none"
       id="path108" />
    <path
       inkscape:connector-curvature="0"
       d="m 339,155 0,1 -1,0 0,15 1,0 0,1 52,0 0,-1 1,0 0,-15 -1,0 0,-1 -52,0"
       style="fill:#ffffff;fill-opacity:1;fill-rule:nonzero;stroke:none"
       id="path110" />
    <path
       inkscape:connector-curvature="0"
       d="m 123,156 0,1 1,0 0,4 -1,0 0,1 1,0 0,-1 1,0 0,-4 -1,0 0,-1 -1,0 m 7,0 0,6 1,0 0,-6 -1,0"
       style="fill:#000000;fill-opacity:1;fill-rule:nonzero;stroke:none"
       id="path112" />
    <path
       inkscape:connector-curvature="0"
       d="m 299,156 0,22 32,0 0,-22 -8,0 0,20 -17,0 0,-20 -7,0 m 8,0 0,9 15,0 0,-9 -15,0"
       style="fill:#ffffff;fill-opacity:1;fill-rule:nonzero;stroke:none"
       id="path114" />
    <path
       inkscape:connector-curvature="0"
       d="m 339,156 0,15 52,0 0,-15 -52,0 m -212,1 0,4 1,0 0,-4 -1,0"
       style="fill:#000000;fill-opacity:1;fill-rule:nonzero;stroke:none"
       id="path116" />
    <path
       inkscape:connector-curvature="0"
       d="m 340,157 0,13 12,0 0,-13 -12,0 m 13,0 0,13 12,0 0,-13 -12,0 m 13,0 0,13 12,0 0,-13 -12,0"
       style="fill:#ffffff;fill-opacity:1;fill-rule:nonzero;stroke:none"
       id="path118" />
    <path
       inkscape:connector-curvature="0"
       d="m 168,158 0,2 -1,0 0,2 -1,0 0,2 -1,0 0,2 -1,0 0,2 1,0 0,-2 1,0 0,-2 1,0 0,-2 1,0 0,-2 1,0 0,-2 -1,0 m 23,0 0,2 -1,0 0,2 -1,0 0,2 -1,0 0,2 -1,0 0,2 1,0 0,-2 1,0 0,-2 1,0 0,-2 1,0 0,-2 1,0 0,-2 -1,0 m 118,0 0,1 3,0 0,-1 -3,0 m 4,0 0,1 2,0 0,-1 -2,0 m 3,0 0,1 4,0 0,-1 -4,0 m -160,1 0,1 3,0 0,1 -1,0 0,1 -1,0 0,1 3,0 0,4 -3,0 0,-1 -1,0 0,1 1,0 0,1 4,0 0,-1 1,0 0,-4 -1,0 0,-1 -1,0 0,-1 1,0 0,-1 1,0 0,-1 -6,0 m 16,0 0,1 -1,0 0,7 1,0 0,1 4,0 0,-1 1,0 0,-7 -1,0 0,-1 -4,0 m 8,0 0,1 -1,0 0,4 1,0 0,1 3,0 0,1 -1,0 0,1 -2,0 0,1 3,0 0,-1 1,0 0,-1 1,0 0,-6 -1,0 0,-1 -4,0 m 15,0 0,1 -1,0 0,7 1,0 0,1 4,0 0,-1 1,0 0,-7 -1,0 0,-1 -4,0 m 7,0 0,1 3,0 0,1 -1,0 0,1 -1,0 0,1 3,0 0,4 -3,0 0,-1 -1,0 0,1 1,0 0,1 4,0 0,-1 1,0 0,-4 -1,0 0,-1 -1,0 0,-1 1,0 0,-1 1,0 0,-1 -6,0 m 30,0 0,1 -1,0 0,1 1,0 0,7 2,0 0,-9 -2,0 m 7,0 0,1 -1,0 0,3 1,0 0,1 -1,0 0,3 1,0 0,1 4,0 0,-1 1,0 0,-3 -1,0 0,-1 1,0 0,-3 -1,0 0,-1 -4,0 m 15,0 0,1 -1,0 0,1 1,0 0,7 2,0 0,-9 -2,0 m 6,0 0,1 3,0 0,1 -1,0 0,1 -1,0 0,1 3,0 0,4 -3,0 0,-1 -1,0 0,1 1,0 0,1 4,0 0,-1 1,0 0,-4 -1,0 0,-1 -1,0 0,-1 1,0 0,-1 1,0 0,-1 -6,0 m 14,0 0,1 3,0 0,1 -1,0 0,1 -1,0 0,1 3,0 0,4 -3,0 0,-1 -1,0 0,1 1,0 0,1 4,0 0,-1 1,0 0,-4 -1,0 0,-1 -1,0 0,-1 1,0 0,-1 1,0 0,-1 -6,0 m 12,0 0,1 -1,0 0,1 -1,0 0,1 -1,0 0,1 -1,0 0,2 4,0 0,3 2,0 0,-3 1,0 0,-1 -1,0 0,-5 -2,0 m 58,0 0,1 -1,0 0,7 1,0 0,1 4,0 0,-1 1,0 0,-7 -1,0 0,-1 -4,0 m 14,0 0,1 -1,0 0,1 1,0 0,7 2,0 0,-9 -2,0 m 12,0 0,1 -1,0 0,1 1,0 0,-1 3,0 0,3 -1,0 0,1 -1,0 0,1 -1,0 0,1 -1,0 0,2 6,0 0,-1 -4,0 0,-1 1,0 0,-1 1,0 0,-1 1,0 0,-1 1,0 0,-3 -1,0 0,-1 -4,0"
       style="fill:#000000;fill-opacity:1;fill-rule:nonzero;stroke:none"
       id="path120" />
    <path
       inkscape:connector-curvature="0"
       d="m 381,159 0,1 3,0 0,1 -1,0 0,1 -1,0 0,1 3,0 0,4 -3,0 0,-1 -1,0 0,1 1,0 0,1 4,0 0,-1 1,0 0,-4 -1,0 0,-1 -1,0 0,-1 1,0 0,-1 1,0 0,-1 -6,0 m -208,1 0,7 2,0 0,-7 -2,0 m 8,0 0,4 2,0 0,-4 -2,0 m 15,0 0,7 2,0 0,-7 -2,0 m 44,0 0,3 2,0 0,-3 -2,0 m 105,0 0,7 2,0 0,-7 -2,0"
       style="fill:#ffffff;fill-opacity:1;fill-rule:nonzero;stroke:none"
       id="path122" />
    <path
       inkscape:connector-curvature="0"
       d="m 246,161 0,2 2,0 0,-2 -2,0 m 22,0 0,2 2,0 0,-2 -2,0"
       style="fill:#000000;fill-opacity:1;fill-rule:nonzero;stroke:none"
       id="path124" />
    <path
       inkscape:connector-curvature="0"
       d="m 285,161 0,1 -1,0 0,1 -1,0 0,1 3,0 0,-3 -1,0"
       style="fill:#ffffff;fill-opacity:1;fill-rule:nonzero;stroke:none"
       id="path126" />
    <path
       inkscape:connector-curvature="0"
       d="m 126,162 0,1 -1,0 0,1 1,0 0,-1 1,0 0,-1 -1,0 m 183,0 0,1 3,0 0,-1 -3,0 m 4,0 0,1 3,0 0,-1 -3,0 m 4,0 0,1 2,0 0,-1 -2,0 m -188,1 0,1 -1,0 0,1 1,0 0,-1 1,0 0,-1 -1,0 m 173,0 0,1 1,0 0,1 1,0 0,1 1,0 0,-1 -1,0 0,-1 -1,0 0,-1 -1,0 m 24,0 0,1 -1,0 0,1 -1,0 0,1 1,0 0,-1 1,0 0,-1 1,0 0,-1 -1,0"
       style="fill:#000000;fill-opacity:1;fill-rule:nonzero;stroke:none"
       id="path128" />
    <path
       inkscape:connector-curvature="0"
       d="m 240,164 0,3 2,0 0,-3 -2,0"
       style="fill:#ffffff;fill-opacity:1;fill-rule:nonzero;stroke:none"
       id="path130" />
    <path
       inkscape:connector-curvature="0"
       d="m 246,166 0,2 2,0 0,-2 -2,0 m 22,0 0,2 2,0 0,-2 -2,0 m 32,1 0,1 1,0 0,-1 -1,0 m 2,0 0,1 1,0 0,-1 -1,0 m 2,0 0,1 1,0 0,-1 -1,0"
       style="fill:#000000;fill-opacity:1;fill-rule:nonzero;stroke:none"
       id="path132" />
    <path
       inkscape:connector-curvature="0"
       d="m 309,167 0,1 11,0 0,-1 -11,0"
       style="fill:#ffffff;fill-opacity:1;fill-rule:nonzero;stroke:none"
       id="path134" />
    <path
       inkscape:connector-curvature="0"
       d="m 324,167 0,1 1,0 0,-1 -1,0 m 2,0 0,1 1,0 0,-1 -1,0 m 2,0 0,1 1,0 0,-1 -1,0 m -207,1 0,1 -1,0 0,1 -1,0 0,1 -1,0 0,50 -3,0 0,1 -1,0 0,2 -1,0 0,2 -1,0 0,1 1,0 0,2 1,0 0,2 1,0 0,1 3,0 0,37 1,0 0,1 1,0 0,1 1,0 0,1 7,0 0,-1 1,0 0,-1 1,0 0,-1 1,0 0,-37 3,0 0,-1 1,0 0,-2 1,0 0,-5 -1,0 0,-2 -1,0 0,-1 -3,0 0,-50 -1,0 0,-1 -1,0 0,-1 -1,0 0,-1 -7,0"
       style="fill:#000000;fill-opacity:1;fill-rule:nonzero;stroke:none"
       id="path136" />
    <path
       inkscape:connector-curvature="0"
       d="m 121,169 0,1 -1,0 0,1 -1,0 0,50 1,0 0,-49 1,0 0,-1 1,0 0,-1 5,0 0,1 1,0 0,1 1,0 0,49 1,0 0,-50 -1,0 0,-1 -1,0 0,-1 -7,0"
       style="fill:#ffffff;fill-opacity:1;fill-rule:nonzero;stroke:none"
       id="path138" />
    <path
       inkscape:connector-curvature="0"
       d="m 304,169 0,1 -1,0 0,1 -1,0 0,1 1,0 0,-1 1,0 0,-1 1,0 0,-1 -1,0 m 20,0 0,1 1,0 0,1 1,0 0,1 1,0 0,-1 -1,0 0,-1 -1,0 0,-1 -1,0"
       style="fill:#000000;fill-opacity:1;fill-rule:nonzero;stroke:none"
       id="path140" />
    <path
       inkscape:connector-curvature="0"
       d="m 307,170 0,5 15,0 0,-5 -15,0 m -184,1 0,1 -1,0 0,1 -1,0 0,48 7,0 0,-48 -1,0 0,-1 -1,0 0,-1 -3,0"
       style="fill:#ffffff;fill-opacity:1;fill-rule:nonzero;stroke:none"
       id="path142" />
    <path
       inkscape:connector-curvature="0"
       d="m 309,172 0,1 11,0 0,-1 -11,0 m -233,3 0,7 1,0 0,-5 1,0 0,2 1,0 0,2 1,0 0,1 1,0 0,-7 -1,0 0,4 -1,0 0,-2 -1,0 0,-2 -2,0 m 12,0 0,2 -1,0 0,1 1,0 0,3 1,0 0,1 1,0 0,-1 -1,0 0,-3 1,0 0,-1 -1,0 0,-2 -1,0 m 17,0 0,1 3,0 0,2 -1,0 0,1 -1,0 0,2 1,0 0,-2 1,0 0,-1 1,0 0,-3 -4,0 m -22,2 0,1 -1,0 0,3 1,0 0,1 2,0 0,-1 1,0 0,-3 -1,0 0,-1 -2,0"
       style="fill:#000000;fill-opacity:1;fill-rule:nonzero;stroke:none"
       id="path144" />
    <path
       inkscape:connector-curvature="0"
       d="m 83,178 0,3 2,0 0,-3 -2,0"
       style="fill:#ffffff;fill-opacity:1;fill-rule:nonzero;stroke:none"
       id="path146" />
    <path
       inkscape:connector-curvature="0"
       d="m 112,178 0,1 4,0 0,-1 -4,0"
       style="fill:#000000;fill-opacity:1;fill-rule:nonzero;stroke:none"
       id="path148" />
    <path
       inkscape:connector-curvature="0"
       d="m 145,186 0,45 203,0 0,-45 -203,0 m 207,0 0,45 48,0 0,-45 -48,0"
       style="fill:#ffffff;fill-opacity:1;fill-rule:nonzero;stroke:none"
       id="path150" />
    <path
       inkscape:connector-curvature="0"
       d="m 106,187 0,1 -1,0 0,5 1,0 0,1 2,0 0,-1 1,0 0,-2 -1,0 0,-1 -2,0 0,-2 2,0 0,1 1,0 0,-1 -1,0 0,-1 -2,0 m 40,0 0,43 201,0 0,-43 -201,0 m 207,0 0,43 46,0 0,-43 -46,0"
       style="fill:#000000;fill-opacity:1;fill-rule:nonzero;stroke:none"
       id="path152" />
    <path
       inkscape:connector-curvature="0"
       d="m 147,188 0,41 199,0 0,-41 -199,0 m 207,0 0,41 44,0 0,-41 -44,0"
       style="fill:#ffffff;fill-opacity:1;fill-rule:nonzero;stroke:none"
       id="path154" />
    <path
       inkscape:connector-curvature="0"
       d="m 112,190 0,1 4,0 0,-1 -4,0 m 263,0 0,18 1,0 0,-18 -1,0"
       style="fill:#000000;fill-opacity:1;fill-rule:nonzero;stroke:none"
       id="path156" />
    <path
       inkscape:connector-curvature="0"
       d="m 106,191 0,2 2,0 0,-2 -2,0"
       style="fill:#ffffff;fill-opacity:1;fill-rule:nonzero;stroke:none"
       id="path158" />
    <path
       inkscape:connector-curvature="0"
       d="m 155,191 0,1 -1,0 0,1 -1,0 0,31 1,0 0,1 1,0 0,1 71,0 0,-1 1,0 0,-1 1,0 0,-31 -1,0 0,-1 -1,0 0,-1 -71,0"
       style="fill:#000000;fill-opacity:1;fill-rule:nonzero;stroke:none"
       id="path160" />
    <path
       inkscape:connector-curvature="0"
       d="m 155,192 0,1 -1,0 0,31 1,0 0,1 71,0 0,-1 1,0 0,-31 -1,0 0,-1 -71,0"
       style="fill:#ffffff;fill-opacity:1;fill-rule:nonzero;stroke:none"
       id="path162" />
    <path
       inkscape:connector-curvature="0"
       d="m 233,192 0,15 107,0 0,-15 -107,0 m 133,0 0,1 1,0 0,-1 -1,0 m 18,0 0,1 1,0 0,-1 -1,0"
       style="fill:#000000;fill-opacity:1;fill-rule:nonzero;stroke:none"
       id="path164" />
    <path
       inkscape:connector-curvature="0"
       d="m 234,193 0,13 20,0 0,-13 -20,0 m 21,0 0,13 12,0 0,-13 -12,0 m 13,0 0,13 12,0 0,-13 -12,0 m 13,0 0,13 13,0 0,-13 -13,0 m 26,0 0,13 12,0 0,-13 -12,0 m 13,0 0,13 19,0 0,-13 -19,0"
       style="fill:#ffffff;fill-opacity:1;fill-rule:nonzero;stroke:none"
       id="path166" />
    <path
       inkscape:connector-curvature="0"
       d="m 368,194 0,1 1,0 0,-1 -1,0 m 14,0 0,1 1,0 0,-1 -1,0"
       style="fill:#000000;fill-opacity:1;fill-rule:nonzero;stroke:none"
       id="path168" />
    <path
       inkscape:connector-curvature="0"
       d="m 10,195 0,14 83,0 0,-14 -83,0"
       style="fill:#ffffff;fill-opacity:1;fill-rule:nonzero;stroke:none"
       id="path170" />
    <path
       inkscape:connector-curvature="0"
       d="m 157,195 0,1 -1,0 0,25 1,0 0,1 67,0 0,-1 1,0 0,-25 -1,0 0,-1 -67,0 m 102,0 0,1 -1,0 0,7 1,0 0,1 4,0 0,-1 1,0 0,-7 -1,0 0,-1 -4,0 m 14,0 0,1 -1,0 0,1 1,0 0,7 2,0 0,-9 -2,0 m 12,0 0,1 -1,0 0,1 1,0 0,-1 3,0 0,3 -1,0 0,1 -1,0 0,1 -1,0 0,1 -1,0 0,2 6,0 0,-1 -4,0 0,-1 1,0 0,-1 1,0 0,-1 1,0 0,-1 1,0 0,-3 -1,0 0,-1 -4,0"
       style="fill:#000000;fill-opacity:1;fill-rule:nonzero;stroke:none"
       id="path172" />
    <path
       inkscape:connector-curvature="0"
       d="m 297,195 0,1 3,0 0,1 -1,0 0,1 -1,0 0,1 3,0 0,4 -2,0 0,-2 -2,0 0,2 1,0 0,1 4,0 0,-1 1,0 0,-4 -1,0 0,-1 -1,0 0,-1 1,0 0,-1 1,0 0,-1 -6,0"
       style="fill:#ffffff;fill-opacity:1;fill-rule:nonzero;stroke:none"
       id="path174" />
    <path
       inkscape:connector-curvature="0"
       d="m 313,195 0,1 -1,0 0,1 -1,0 0,1 -1,0 0,1 -1,0 0,2 4,0 0,3 2,0 0,-3 1,0 0,-1 -1,0 0,-5 -2,0 m 14,0 0,1 -1,0 0,1 -1,0 0,1 -1,0 0,1 -1,0 0,2 3,0 0,1 -1,0 0,1 -1,0 0,1 1,0 0,-1 2,0 0,-1 6,0 0,1 3,0 0,-1 -2,0 0,-2 1,0 0,-2 -1,0 0,1 -1,0 0,-1 -6,0 0,-1 1,0 0,-1 1,0 0,-1 -2,0"
       style="fill:#000000;fill-opacity:1;fill-rule:nonzero;stroke:none"
       id="path176" />
    <path
       inkscape:connector-curvature="0"
       d="m 157,196 0,25 67,0 0,-25 -67,0 m 103,0 0,7 2,0 0,-7 -2,0"
       style="fill:#ffffff;fill-opacity:1;fill-rule:nonzero;stroke:none"
       id="path178" />
    <path
       inkscape:connector-curvature="0"
       d="m 370,196 0,1 1,0 0,-1 -1,0 m 10,0 0,1 1,0 0,-1 -1,0 m -139,1 0,1 -2,0 0,1 -1,0 0,1 -2,0 0,1 3,0 0,1 1,0 0,1 2,0 0,-1 -1,0 0,-1 4,0 0,1 1,0 0,1 2,0 0,-1 -1,0 0,-1 3,0 0,-1 2,0 0,-2 -2,0 0,1 -2,0 0,-1 -1,0 0,-1 -6,0"
       style="fill:#000000;fill-opacity:1;fill-rule:nonzero;stroke:none"
       id="path180" />
    <path
       inkscape:connector-curvature="0"
       d="m 312,197 0,1 -1,0 0,1 -1,0 0,1 3,0 0,-3 -1,0"
       style="fill:#ffffff;fill-opacity:1;fill-rule:nonzero;stroke:none"
       id="path182" />
    <path
       inkscape:connector-curvature="0"
       d="m 161,198 0,17 5,0 0,4 49,0 0,-4 5,0 0,-17 -59,0 m -56,1 0,3 3,0 0,3 -2,0 0,-1 -1,0 0,1 1,0 0,1 2,0 0,-1 1,0 0,-3 -1,0 0,-1 -2,0 0,-1 3,0 0,-1 -4,0"
       style="fill:#000000;fill-opacity:1;fill-rule:nonzero;stroke:none"
       id="path184" />
    <path
       inkscape:connector-curvature="0"
       d="m 162,199 0,3 3,0 0,-3 -3,0 m 4,0 0,3 3,0 0,-3 -3,0 m 4,0 0,3 3,0 0,-3 -3,0 m 4,0 0,3 3,0 0,-3 -3,0 m 4,0 0,3 3,0 0,-3 -3,0 m 4,0 0,3 3,0 0,-3 -3,0 m 4,0 0,3 3,0 0,-3 -3,0 m 4,0 0,3 3,0 0,-3 -3,0 m 4,0 0,3 3,0 0,-3 -3,0 m 4,0 0,3 3,0 0,-3 -3,0 m 4,0 0,3 3,0 0,-3 -3,0 m 4,0 0,3 3,0 0,-3 -3,0 m 4,0 0,3 3,0 0,-3 -3,0 m 4,0 0,3 5,0 0,-3 -5,0"
       style="fill:#ffffff;fill-opacity:1;fill-rule:nonzero;stroke:none"
       id="path186" />
    <path
       inkscape:connector-curvature="0"
       d="m 364,199 0,1 1,0 0,-1 -1,0 m 2,0 0,1 1,0 0,-1 -1,0 m 2,0 0,1 1,0 0,-1 -1,0 m 2,0 0,1 1,0 0,-1 -1,0 m 10,0 0,1 1,0 0,-1 -1,0 m 2,0 0,1 1,0 0,-1 -1,0 m 2,0 0,1 1,0 0,-1 -1,0 m 2,0 0,1 1,0 0,-1 -1,0 m -274,3 0,1 4,0 0,-1 -4,0 m 258,0 0,1 1,0 0,-1 -1,0 m 10,0 0,1 1,0 0,-1 -1,0"
       style="fill:#000000;fill-opacity:1;fill-rule:nonzero;stroke:none"
       id="path188" />
    <path
       inkscape:connector-curvature="0"
       d="m 162,203 0,3 5,0 0,-3 -5,0 m 6,0 0,3 3,0 0,-3 -3,0 m 4,0 0,3 3,0 0,-3 -3,0 m 4,0 0,3 3,0 0,-3 -3,0 m 4,0 0,3 3,0 0,-3 -3,0 m 4,0 0,3 3,0 0,-3 -3,0 m 4,0 0,3 3,0 0,-3 -3,0 m 4,0 0,3 3,0 0,-3 -3,0 m 4,0 0,3 3,0 0,-3 -3,0 m 4,0 0,3 3,0 0,-3 -3,0 m 4,0 0,3 3,0 0,-3 -3,0 m 4,0 0,3 3,0 0,-3 -3,0 m 4,0 0,3 3,0 0,-3 -3,0 m 4,0 0,3 3,0 0,-3 -3,0"
       style="fill:#ffffff;fill-opacity:1;fill-rule:nonzero;stroke:none"
       id="path190" />
    <path
       inkscape:connector-curvature="0"
       d="m 368,204 0,1 1,0 0,-1 -1,0 m 14,0 0,1 1,0 0,-1 -1,0 m -16,2 0,1 1,0 0,-1 -1,0 m 18,0 0,1 1,0 0,-1 -1,0"
       style="fill:#000000;fill-opacity:1;fill-rule:nonzero;stroke:none"
       id="path192" />
    <path
       inkscape:connector-curvature="0"
       d="m 162,207 0,3 6,0 0,-3 -6,0 m 7,0 0,3 3,0 0,-3 -3,0 m 4,0 0,3 3,0 0,-3 -3,0 m 4,0 0,3 3,0 0,-3 -3,0 m 4,0 0,3 3,0 0,-3 -3,0 m 4,0 0,3 3,0 0,-3 -3,0 m 4,0 0,3 3,0 0,-3 -3,0 m 4,0 0,3 3,0 0,-3 -3,0 m 4,0 0,3 3,0 0,-3 -3,0 m 4,0 0,3 3,0 0,-3 -3,0 m 4,0 0,3 3,0 0,-3 -3,0 m 4,0 0,3 3,0 0,-3 -3,0 m 4,0 0,3 6,0 0,-3 -6,0"
       style="fill:#ffffff;fill-opacity:1;fill-rule:nonzero;stroke:none"
       id="path194" />
    <path
       inkscape:connector-curvature="0"
       d="m 233,210 0,15 107,0 0,-15 -107,0 m -125,1 0,1 -1,0 0,1 -1,0 0,1 -1,0 0,2 3,0 0,2 1,0 0,-2 1,0 0,-1 -1,0 0,-4 -1,0"
       style="fill:#000000;fill-opacity:1;fill-rule:nonzero;stroke:none"
       id="path196" />
    <path
       inkscape:connector-curvature="0"
       d="m 162,211 0,3 8,0 0,-3 -8,0 m 9,0 0,3 3,0 0,-3 -3,0 m 4,0 0,3 3,0 0,-3 -3,0 m 4,0 0,3 3,0 0,-3 -3,0 m 4,0 0,3 3,0 0,-3 -3,0 m 4,0 0,3 3,0 0,-3 -3,0 m 4,0 0,3 3,0 0,-3 -3,0 m 4,0 0,3 3,0 0,-3 -3,0 m 4,0 0,3 3,0 0,-3 -3,0 m 4,0 0,3 3,0 0,-3 -3,0 m 4,0 0,3 3,0 0,-3 -3,0 m 4,0 0,3 8,0 0,-3 -8,0 m 23,0 0,13 5,0 0,-5 1,0 0,5 7,0 0,-5 1,0 0,5 6,0 0,-13 -7,0 0,5 -1,0 0,-5 -5,0 0,1 2,0 0,1 -2,0 0,3 2,0 0,1 2,0 0,1 2,0 0,1 -7,0 0,-1 1,0 0,-1 -1,0 0,-6 -6,0 m 21,0 0,13 12,0 0,-13 -12,0 m 13,0 0,13 13,0 0,-13 -13,0 m 26,0 0,13 12,0 0,-13 -12,0 m 13,0 0,13 12,0 0,-13 -12,0 m 13,0 0,13 5,0 0,-2 1,0 0,2 7,0 0,-2 1,0 0,2 5,0 0,-13 -6,0 0,8 -1,0 0,-8 -5,0 0,4 2,0 0,1 -2,0 0,3 2,0 0,1 2,0 0,1 2,0 0,1 -7,0 0,-1 1,0 0,-1 -1,0 0,-9 -6,0"
       style="fill:#ffffff;fill-opacity:1;fill-rule:nonzero;stroke:none"
       id="path198" />
    <path
       inkscape:connector-curvature="0"
       d="m 356,212 0,15 39,0 0,-15 -39,0"
       style="fill:#000000;fill-opacity:1;fill-rule:nonzero;stroke:none"
       id="path200" />
    <path
       inkscape:connector-curvature="0"
       d="m 107,213 0,1 -1,0 0,1 2,0 0,-2 -1,0"
       style="fill:#ffffff;fill-opacity:1;fill-rule:nonzero;stroke:none"
       id="path202" />
    <path
       inkscape:connector-curvature="0"
       d="m 243,213 0,3 1,0 0,-3 -1,0 m 16,0 0,1 -1,0 0,7 1,0 0,1 4,0 0,-1 1,0 0,-7 -1,0 0,-1 -4,0 m 14,0 0,1 -1,0 0,1 1,0 0,7 2,0 0,-9 -2,0"
       style="fill:#000000;fill-opacity:1;fill-rule:nonzero;stroke:none"
       id="path204" />
    <path
       inkscape:connector-curvature="0"
       d="m 285,213 0,1 -1,0 0,1 1,0 0,-1 3,0 0,3 -1,0 0,1 -1,0 0,1 -1,0 0,1 -1,0 0,2 6,0 0,-1 -4,0 0,-1 1,0 0,-1 1,0 0,-1 1,0 0,-1 1,0 0,-3 -1,0 0,-1 -4,0"
       style="fill:#ffffff;fill-opacity:1;fill-rule:nonzero;stroke:none"
       id="path206" />
    <path
       inkscape:connector-curvature="0"
       d="m 297,213 0,1 3,0 0,1 -1,0 0,1 -1,0 0,1 3,0 0,4 -2,0 0,-2 -2,0 0,2 1,0 0,1 4,0 0,-1 1,0 0,-4 -1,0 0,-1 -1,0 0,-1 1,0 0,-1 1,0 0,-1 -6,0 m 16,0 0,1 -1,0 0,1 -1,0 0,1 -1,0 0,1 -1,0 0,2 4,0 0,3 2,0 0,-3 1,0 0,-1 -1,0 0,-5 -2,0"
       style="fill:#000000;fill-opacity:1;fill-rule:nonzero;stroke:none"
       id="path208" />
    <path
       inkscape:connector-curvature="0"
       d="m 357,213 0,13 12,0 0,-13 -12,0 m 13,0 0,13 12,0 0,-13 -12,0"
       style="fill:#ffffff;fill-opacity:1;fill-rule:nonzero;stroke:none"
       id="path210" />
    <path
       inkscape:connector-curvature="0"
       d="m 112,214 0,1 4,0 0,-1 -4,0"
       style="fill:#000000;fill-opacity:1;fill-rule:nonzero;stroke:none"
       id="path212" />
    <path
       inkscape:connector-curvature="0"
       d="m 260,214 0,7 2,0 0,-7 -2,0 m -93,1 0,3 3,0 0,-3 -3,0 m 4,0 0,3 5,0 0,-3 -5,0 m 6,0 0,3 27,0 0,-3 -27,0 m 28,0 0,3 5,0 0,-3 -5,0 m 6,0 0,3 3,0 0,-3 -3,0 m 101,0 0,1 -1,0 0,1 -1,0 0,1 3,0 0,-3 -1,0"
       style="fill:#ffffff;fill-opacity:1;fill-rule:nonzero;stroke:none"
       id="path214" />
    <path
       inkscape:connector-curvature="0"
       d="m 362,215 0,1 -1,0 0,1 1,0 0,7 2,0 0,-9 -2,0 m 12,0 0,1 -1,0 0,1 1,0 0,-1 3,0 0,3 -1,0 0,1 -1,0 0,1 -1,0 0,1 -1,0 0,2 6,0 0,-1 -4,0 0,-1 1,0 0,-1 1,0 0,-1 1,0 0,-1 1,0 0,-3 -1,0 0,-1 -4,0"
       style="fill:#000000;fill-opacity:1;fill-rule:nonzero;stroke:none"
       id="path216" />
    <path
       inkscape:connector-curvature="0"
       d="m 385,215 0,1 3,0 0,1 -1,0 0,1 -1,0 0,1 3,0 0,4 -2,0 0,-2 -2,0 0,2 1,0 0,1 4,0 0,-1 1,0 0,-4 -1,0 0,-1 -1,0 0,-1 1,0 0,-1 1,0 0,-1 -6,0"
       style="fill:#ffffff;fill-opacity:1;fill-rule:nonzero;stroke:none"
       id="path218" />
    <path
       inkscape:connector-curvature="0"
       d="m 245,216 0,1 1,0 0,-1 -1,0 m 84,0 0,3 1,0 0,-3 -1,0 m 2,3 0,1 1,0 0,-1 -1,0"
       style="fill:#000000;fill-opacity:1;fill-rule:nonzero;stroke:none"
       id="path220" />
    <path
       inkscape:connector-curvature="0"
       d="m 115,222 0,1 19,0 0,-1 -19,0"
       style="fill:#ffffff;fill-opacity:1;fill-rule:nonzero;stroke:none"
       id="path222" />
    <path
       inkscape:connector-curvature="0"
       d="m 106,223 0,1 -1,0 0,1 1,0 0,-1 2,0 0,2 -1,0 0,1 1,0 0,2 -2,0 0,-1 -1,0 0,1 1,0 0,1 2,0 0,-1 1,0 0,-2 -1,0 0,-1 1,0 0,-2 -1,0 0,-1 -2,0"
       style="fill:#000000;fill-opacity:1;fill-rule:nonzero;stroke:none"
       id="path224" />
    <path
       inkscape:connector-curvature="0"
       d="m 114,224 0,5 21,0 0,-5 -21,0 m -94,2 0,1 -2,0 0,1 -1,0 0,1 -1,0 0,2 -1,0 0,13 78,0 0,-18 -73,0"
       style="fill:#ffffff;fill-opacity:1;fill-rule:nonzero;stroke:none"
       id="path226" />
    <path
       inkscape:connector-curvature="0"
       d="m 43,230 0,9 2,0 0,-4 3,0 0,-1 1,0 0,-3 -1,0 0,-1 -5,0 m 32,0 0,9 2,0 0,-9 -2,0"
       style="fill:#000000;fill-opacity:1;fill-rule:nonzero;stroke:none"
       id="path228" />
    <path
       inkscape:connector-curvature="0"
       d="m 115,230 0,1 19,0 0,-1 -19,0 m -70,1 0,3 2,0 0,-3 -2,0"
       style="fill:#ffffff;fill-opacity:1;fill-rule:nonzero;stroke:none"
       id="path230" />
    <path
       inkscape:connector-curvature="0"
       d="m 51,232 0,6 1,0 0,1 5,0 0,-7 -2,0 0,6 -2,0 0,-6 -2,0 m 8,0 0,1 4,0 0,1 -1,0 0,1 -1,0 0,1 -1,0 0,1 -1,0 0,2 6,0 0,-1 -4,0 0,-1 1,0 0,-1 1,0 0,-1 1,0 0,-1 1,0 0,-2 -6,0 m 8,0 0,1 4,0 0,1 -1,0 0,1 -1,0 0,1 -1,0 0,1 -1,0 0,2 6,0 0,-1 -4,0 0,-1 1,0 0,-1 1,0 0,-1 1,0 0,-1 1,0 0,-2 -6,0 m 13,0 0,1 -1,0 0,5 1,0 0,1 4,0 0,-1 1,0 0,-1 -1,0 0,1 -3,0 0,-2 4,0 0,-3 -1,0 0,-1 -4,0"
       style="fill:#000000;fill-opacity:1;fill-rule:nonzero;stroke:none"
       id="path232" />
    <path
       inkscape:connector-curvature="0"
       d="m 119,232 0,37 1,0 0,1 1,0 0,1 7,0 0,-1 1,0 0,-1 1,0 0,-37 -1,0 0,36 -1,0 0,-36 -7,0 0,36 -1,0 0,-36 -1,0 m -38,1 0,2 2,0 0,-2 -2,0"
       style="fill:#ffffff;fill-opacity:1;fill-rule:nonzero;stroke:none"
       id="path234" />
    <path
       inkscape:connector-curvature="0"
       d="m 106,235 0,1 -1,0 0,1 1,0 0,-1 2,0 0,2 -1,0 0,1 -1,0 0,1 -1,0 0,2 4,0 0,-1 -3,0 0,-1 1,0 0,-1 1,0 0,-1 1,0 0,-2 -1,0 0,-1 -2,0"
       style="fill:#000000;fill-opacity:1;fill-rule:nonzero;stroke:none"
       id="path236" />
    <path
       inkscape:connector-curvature="0"
       d="m 145,237 0,55 43,0 0,-55 -43,0 m 47,0 0,55 115,0 0,-55 -115,0 m 119,0 0,55 89,0 0,-55 -89,0"
       style="fill:#ffffff;fill-opacity:1;fill-rule:nonzero;stroke:none"
       id="path238" />
    <path
       inkscape:connector-curvature="0"
       d="m 112,238 0,1 4,0 0,-1 -4,0 m 34,0 0,53 41,0 0,-53 -41,0 m 47,0 0,53 113,0 0,-53 -113,0 m 119,0 0,53 87,0 0,-53 -87,0"
       style="fill:#000000;fill-opacity:1;fill-rule:nonzero;stroke:none"
       id="path240" />
    <path
       inkscape:connector-curvature="0"
       d="m 147,239 0,51 39,0 0,-51 -14,0 0,3 -1,0 0,-3 -24,0 m 47,0 0,51 111,0 0,-51 -111,0 m 119,0 0,51 85,0 0,-51 -85,0"
       style="fill:#ffffff;fill-opacity:1;fill-rule:nonzero;stroke:none"
       id="path242" />
    <path
       inkscape:connector-curvature="0"
       d="m 314,240 0,49 83,0 0,-49 -83,0"
       style="fill:#000000;fill-opacity:1;fill-rule:nonzero;stroke:none"
       id="path244" />
    <path
       inkscape:connector-curvature="0"
       d="m 315,241 0,47 3,0 0,-27 1,0 0,27 8,0 0,-12 -5,0 0,-14 19,0 0,14 -5,0 0,12 8,0 0,-27 1,0 0,27 51,0 0,-47 -64,0 0,10 -1,0 0,-10 -16,0"
       style="fill:#ffffff;fill-opacity:1;fill-rule:nonzero;stroke:none"
       id="path246" />
    <path
       inkscape:connector-curvature="0"
       d="m 170,243 0,1 3,0 0,-1 -3,0 m 30,0 0,42 42,0 0,-42 -42,0 m 52,0 0,1 -1,0 0,40 1,0 0,1 46,0 0,-1 1,0 0,-40 -1,0 0,-1 -46,0"
       style="fill:#000000;fill-opacity:1;fill-rule:nonzero;stroke:none"
       id="path248" />
    <path
       inkscape:connector-curvature="0"
       d="m 205,244 0,4 -4,0 0,6 4,0 0,4 -4,0 0,6 4,0 0,4 -4,0 0,6 4,0 0,4 -4,0 0,6 40,0 0,-40 -6,0 0,4 -4,0 0,-4 -6,0 0,4 -4,0 0,-4 -6,0 0,4 -4,0 0,-4 -6,0 m 47,0 0,5 46,0 0,-5 -46,0"
       style="fill:#ffffff;fill-opacity:1;fill-rule:nonzero;stroke:none"
       id="path250" />
    <path
       inkscape:connector-curvature="0"
       d="m 169,245 0,1 5,0 0,-1 -5,0 m 183,0 0,3 -3,0 0,1 1,0 0,1 1,0 0,1 1,0 0,1 1,0 0,1 1,0 0,-1 1,0 0,-1 1,0 0,-1 1,0 0,-1 1,0 0,-1 -3,0 0,-3 -3,0 m -184,2 0,1 -1,0 0,1 -5,0 0,1 -1,0 0,24 1,0 0,1 18,0 0,-1 1,0 0,-24 -1,0 0,-1 -5,0 0,-1 -1,0 0,-1 -6,0 m -61,1 0,1 -1,0 0,1 1,0 0,5 1,0 0,-7 -1,0"
       style="fill:#000000;fill-opacity:1;fill-rule:nonzero;stroke:none"
       id="path252" />
    <path
       inkscape:connector-curvature="0"
       d="m 168,248 0,1 -1,0 0,1 -5,0 0,24 18,0 0,-24 -5,0 0,-1 -1,0 0,-1 -6,0"
       style="fill:#ffffff;fill-opacity:1;fill-rule:nonzero;stroke:none"
       id="path254" />
    <path
       inkscape:connector-curvature="0"
       d="m 206,249 0,4 4,0 0,-4 -4,0 m 10,0 0,4 4,0 0,-4 -4,0 m 10,0 0,4 4,0 0,-4 -4,0 m 10,0 0,4 4,0 0,-4 -4,0 m 133,0 0,3 -3,0 0,1 1,0 0,1 1,0 0,1 1,0 0,1 1,0 0,1 1,0 0,-1 1,0 0,-1 1,0 0,-1 1,0 0,-1 1,0 0,-1 -3,0 0,-3 -3,0"
       style="fill:#000000;fill-opacity:1;fill-rule:nonzero;stroke:none"
       id="path256" />
    <path
       inkscape:connector-curvature="0"
       d="m 20,250 0,19 19,0 0,-19 -19,0 m 20,0 0,3 1,0 0,1 -1,0 0,3 1,0 0,1 -1,0 0,3 1,0 0,1 -1,0 0,3 1,0 0,1 -1,0 0,3 19,0 0,-1 -1,0 0,-1 1,0 0,-3 -1,0 0,-1 1,0 0,-3 -1,0 0,-1 1,0 0,-3 -1,0 0,-1 1,0 0,-3 -1,0 0,-1 1,0 0,-1 -19,0 m 20,0 0,19 19,0 0,-19 -19,0 m 20,0 0,19 13,0 0,-5 -1,0 0,-3 1,0 0,-4 -1,0 0,-3 1,0 0,-4 -13,0"
       style="fill:#ffffff;fill-opacity:1;fill-rule:nonzero;stroke:none"
       id="path258" />
    <path
       inkscape:connector-curvature="0"
       d="m 112,250 0,1 4,0 0,-1 -4,0"
       style="fill:#000000;fill-opacity:1;fill-rule:nonzero;stroke:none"
       id="path260" />
    <path
       inkscape:connector-curvature="0"
       d="m 252,250 0,34 46,0 0,-34 -46,0"
       style="fill:#ffffff;fill-opacity:1;fill-rule:nonzero;stroke:none"
       id="path262" />
    <path
       inkscape:connector-curvature="0"
       d="m 42,251 0,1 1,0 0,-1 -1,0 m 4,0 0,1 1,0 0,-1 -1,0 m 4,0 0,1 1,0 0,-1 -1,0 m 4,0 0,1 1,0 0,-1 -1,0 m 102,0 0,1 1,0 0,-1 -1,0 m 3,0 0,1 1,0 0,-1 -1,0 m 7,0 0,6 10,0 0,-6 -10,0 m -137,1 0,1 -1,0 0,1 -1,0 0,8 1,0 0,1 1,0 0,1 4,0 0,-1 1,0 0,-1 1,0 0,-5 -1,0 0,-1 -1,0 0,-4 -4,0 m 134,0 0,19 1,0 0,1 14,0 0,-1 1,0 0,-19 -2,0 0,1 1,0 0,18 -14,0 0,-18 1,0 0,-1 -2,0"
       style="fill:#000000;fill-opacity:1;fill-rule:nonzero;stroke:none"
       id="path264" />
    <path
       inkscape:connector-curvature="0"
       d="m 167,252 0,1 8,0 0,-1 -8,0"
       style="fill:#ffffff;fill-opacity:1;fill-rule:nonzero;stroke:none"
       id="path266" />
    <path
       inkscape:connector-curvature="0"
       d="m 330,252 0,1 3,0 0,-1 -3,0 m 56,0 0,3 -3,0 0,1 1,0 0,1 1,0 0,1 1,0 0,1 1,0 0,1 1,0 0,-1 1,0 0,-1 1,0 0,-1 1,0 0,-1 1,0 0,-1 -3,0 0,-3 -3,0"
       style="fill:#000000;fill-opacity:1;fill-rule:nonzero;stroke:none"
       id="path268" />
    <path
       inkscape:connector-curvature="0"
       d="m 30,253 0,1 -1,0 0,1 -1,0 0,6 1,0 0,1 1,0 0,1 2,0 0,-1 1,0 0,-1 1,0 0,-3 -1,0 0,-1 -1,0 0,-1 -2,0 0,1 -1,0 0,-2 1,0 0,-1 2,0 0,-1 -2,0"
       style="fill:#ffffff;fill-opacity:1;fill-rule:nonzero;stroke:none"
       id="path270" />
    <path
       inkscape:connector-curvature="0"
       d="m 44,253 0,1 1,0 0,-1 -1,0 m 4,0 0,1 1,0 0,-1 -1,0 m 4,0 0,1 1,0 0,-1 -1,0 m 4,0 0,1 1,0 0,-1 -1,0 m 8,0 0,1 -1,0 0,3 1,0 0,4 -1,0 0,3 5,0 0,-3 -1,0 0,-8 -3,0 m 7,0 0,1 -1,0 0,3 3,0 0,1 -1,0 0,1 -1,0 0,1 -1,0 0,4 7,0 0,-4 -1,0 0,-1 1,0 0,-5 -1,0 0,-1 -5,0 m 13,0 0,1 -1,0 0,3 1,0 0,4 -1,0 0,3 5,0 0,-3 -1,0 0,-8 -3,0"
       style="fill:#000000;fill-opacity:1;fill-rule:nonzero;stroke:none"
       id="path272" />
    <path
       inkscape:connector-curvature="0"
       d="m 65,254 0,1 -1,0 0,1 1,0 0,6 -1,0 0,1 3,0 0,-1 -1,0 0,-8 -1,0 m 7,0 0,1 -1,0 0,1 1,0 0,-1 3,0 0,3 -1,0 0,1 -1,0 0,1 -1,0 0,1 -1,0 0,2 5,0 0,-2 -1,0 0,1 -3,0 0,-1 1,0 0,-1 1,0 0,-1 1,0 0,-1 1,0 0,-3 -1,0 0,-1 -3,0 m 13,0 0,1 -1,0 0,1 1,0 0,6 -1,0 0,1 3,0 0,-1 -1,0 0,-8 -1,0"
       style="fill:#ffffff;fill-opacity:1;fill-rule:nonzero;stroke:none"
       id="path274" />
    <path
       inkscape:connector-curvature="0"
       d="m 155,254 0,1 1,0 0,-1 -1,0 m 2,0 0,1 1,0 0,-1 -1,0 m 2,0 0,1 1,0 0,-1 -1,0"
       style="fill:#000000;fill-opacity:1;fill-rule:nonzero;stroke:none"
       id="path276" />
    <path
       inkscape:connector-curvature="0"
       d="m 167,254 0,2 8,0 0,-2 -8,0"
       style="fill:#ffffff;fill-opacity:1;fill-rule:nonzero;stroke:none"
       id="path278" />
    <path
       inkscape:connector-curvature="0"
       d="m 211,254 0,4 4,0 0,-4 -4,0 m 10,0 0,4 4,0 0,-4 -4,0 m 10,0 0,4 4,0 0,-4 -4,0 m 98,0 0,1 5,0 0,-1 -5,0 m -287,1 0,1 1,0 0,-1 -1,0 m 4,0 0,1 1,0 0,-1 -1,0 m 4,0 0,1 1,0 0,-1 -1,0 m 4,0 0,1 1,0 0,-1 -1,0"
       style="fill:#000000;fill-opacity:1;fill-rule:nonzero;stroke:none"
       id="path280" />
    <path
       inkscape:connector-curvature="0"
       d="m 73,256 0,1 1,0 0,-1 -1,0"
       style="fill:#ffffff;fill-opacity:1;fill-rule:nonzero;stroke:none"
       id="path282" />
    <path
       inkscape:connector-curvature="0"
       d="m 328,256 0,1 7,0 0,-1 -7,0 m -298,1 0,1 -1,0 0,3 1,0 0,1 2,0 0,-1 1,0 0,-3 -1,0 0,-1 -2,0 m 14,0 0,1 1,0 0,-1 -1,0 m 4,0 0,1 1,0 0,-1 -1,0 m 4,0 0,1 1,0 0,-1 -1,0 m 4,0 0,1 1,0 0,-1 -1,0 m 98,0 0,1 1,0 0,-1 -1,0 m 2,0 0,1 1,0 0,-1 -1,0 m 2,0 0,1 2,0 0,-1 -2,0 m 168,1 0,1 -6,0 0,1 -1,0 0,1 1,0 0,-1 6,0 0,-1 11,0 0,1 6,0 0,1 1,0 0,-1 -1,0 0,-1 -6,0 0,-1 -11,0"
       style="fill:#000000;fill-opacity:1;fill-rule:nonzero;stroke:none"
       id="path284" />
    <path
       inkscape:connector-curvature="0"
       d="m 30,259 0,1 2,0 0,-1 -2,0"
       style="fill:#ffffff;fill-opacity:1;fill-rule:nonzero;stroke:none"
       id="path286" />
    <path
       inkscape:connector-curvature="0"
       d="m 42,259 0,1 1,0 0,-1 -1,0 m 4,0 0,1 1,0 0,-1 -1,0 m 4,0 0,1 1,0 0,-1 -1,0 m 4,0 0,1 1,0 0,-1 -1,0 m 52,0 0,1 -1,0 0,5 1,0 0,1 2,0 0,-1 1,0 0,-5 -1,0 0,-1 -2,0 m 100,0 0,4 4,0 0,-4 -4,0 m 10,0 0,4 4,0 0,-4 -4,0 m 10,0 0,4 4,0 0,-4 -4,0 m 10,0 0,4 4,0 0,-4 -4,0"
       style="fill:#000000;fill-opacity:1;fill-rule:nonzero;stroke:none"
       id="path288" />
    <path
       inkscape:connector-curvature="0"
       d="m 106,260 0,5 2,0 0,-5 -2,0"
       style="fill:#ffffff;fill-opacity:1;fill-rule:nonzero;stroke:none"
       id="path290" />
    <path
       inkscape:connector-curvature="0"
       d="m 153,260 0,1 1,0 0,-1 -1,0 m 2,0 0,1 1,0 0,-1 -1,0 m 2,0 0,1 3,0 0,-1 -3,0 m -113,1 0,1 1,0 0,-1 -1,0 m 4,0 0,1 1,0 0,-1 -1,0 m 4,0 0,1 1,0 0,-1 -1,0 m 4,0 0,1 1,0 0,-1 -1,0 m 296,0 0,3 -3,0 0,1 1,0 0,1 1,0 0,1 1,0 0,1 1,0 0,1 1,0 0,-1 1,0 0,-1 1,0 0,-1 1,0 0,-1 1,0 0,-1 -3,0 0,-3 -3,0 m 17,0 0,3 -3,0 0,1 1,0 0,1 1,0 0,1 1,0 0,1 1,0 0,1 1,0 0,-1 1,0 0,-1 1,0 0,-1 1,0 0,-1 1,0 0,-1 -3,0 0,-3 -3,0 m 17,0 0,3 -3,0 0,1 1,0 0,1 1,0 0,1 1,0 0,1 1,0 0,1 1,0 0,-1 1,0 0,-1 1,0 0,-1 1,0 0,-1 1,0 0,-1 -3,0 0,-3 -3,0 m -274,1 0,1 4,0 0,-1 -4,0 m -70,1 0,1 1,0 0,-1 -1,0 m 4,0 0,1 1,0 0,-1 -1,0 m 4,0 0,1 1,0 0,-1 -1,0 m 4,0 0,1 1,0 0,-1 -1,0 m 98,0 0,1 1,0 0,-1 -1,0 m 2,0 0,1 1,0 0,-1 -1,0 m 2,0 0,1 4,0 0,-1 -4,0"
       style="fill:#000000;fill-opacity:1;fill-rule:nonzero;stroke:none"
       id="path292" />
    <path
       inkscape:connector-curvature="0"
       d="m 323,263 0,12 4,0 0,-7 -1,0 0,-1 1,0 0,-1 1,0 0,22 7,0 0,-22 1,0 0,1 1,0 0,1 -1,0 0,7 4,0 0,-12 -17,0"
       style="fill:#ffffff;fill-opacity:1;fill-rule:nonzero;stroke:none"
       id="path294" />
    <path
       inkscape:connector-curvature="0"
       d="m 211,264 0,4 4,0 0,-4 -4,0 m 10,0 0,4 4,0 0,-4 -4,0 m 10,0 0,4 4,0 0,-4 -4,0 m 99,0 0,1 -2,0 0,1 1,0 0,5 1,0 0,1 3,0 0,-1 1,0 0,-5 1,0 0,-1 -1,0 0,-1 -4,0 m -286,1 0,1 1,0 0,-1 -1,0 m 4,0 0,1 1,0 0,-1 -1,0 m 4,0 0,1 1,0 0,-1 -1,0 m 4,0 0,1 1,0 0,-1 -1,0"
       style="fill:#000000;fill-opacity:1;fill-rule:nonzero;stroke:none"
       id="path296" />
    <path
       inkscape:connector-curvature="0"
       d="m 330,265 0,6 3,0 0,-6 -3,0"
       style="fill:#ffffff;fill-opacity:1;fill-rule:nonzero;stroke:none"
       id="path298" />
    <path
       inkscape:connector-curvature="0"
       d="m 151,266 0,1 1,0 0,-1 -1,0 m 2,0 0,1 1,0 0,-1 -1,0 m 2,0 0,1 5,0 0,-1 -5,0 m -113,1 0,1 1,0 0,-1 -1,0 m 4,0 0,1 1,0 0,-1 -1,0 m 4,0 0,1 1,0 0,-1 -1,0 m 4,0 0,1 1,0 0,-1 -1,0 m 270,0 0,1 1,0 0,-1 -1,0 m 14,0 0,1 1,0 0,-1 -1,0 m -217,1 0,1 1,0 0,1 5,0 0,-1 1,0 0,-1 -1,0 0,1 -5,0 0,-1 -1,0 m 29,0 0,1 1,0 0,-1 -1,0 m 2,0 0,1 1,0 0,-1 -1,0 m 2,0 0,1 6,0 0,-1 -6,0 m 52,1 0,4 4,0 0,-4 -4,0 m 10,0 0,4 4,0 0,-4 -4,0 m 10,0 0,4 4,0 0,-4 -4,0 m 10,0 0,4 4,0 0,-4 -4,0"
       style="fill:#000000;fill-opacity:1;fill-rule:nonzero;stroke:none"
       id="path300" />
    <path
       inkscape:connector-curvature="0"
       d="m 20,270 0,19 19,0 0,-19 -19,0 m 20,0 0,19 19,0 0,-19 -19,0 m 20,0 0,19 19,0 0,-19 -19,0 m 20,0 0,19 13,0 0,-3 -5,0 0,-1 -1,0 0,-3 3,0 0,1 1,0 0,-1 1,0 0,-1 -1,0 0,-1 -2,0 0,-3 -1,0 0,-3 1,0 0,-1 4,0 0,-3 -13,0"
       style="fill:#ffffff;fill-opacity:1;fill-rule:nonzero;stroke:none"
       id="path302" />
    <path
       inkscape:connector-curvature="0"
       d="m 149,270 0,1 1,0 0,-1 -1,0 m 2,0 0,1 1,0 0,-1 -1,0 m 2,0 0,1 7,0 0,-1 -7,0 m -126,3 0,6 4,0 0,1 1,0 0,1 -1,0 0,1 -1,0 0,1 -3,0 0,3 5,0 0,-1 1,0 0,-1 1,0 0,-1 1,0 0,-5 -1,0 0,-1 -1,0 0,-1 1,0 0,-3 -7,0 m 22,0 0,1 -1,0 0,1 -1,0 0,5 1,0 0,1 1,0 0,4 4,0 0,-1 1,0 0,-1 1,0 0,-8 -1,0 0,-1 -1,0 0,-1 -4,0 m 15,0 0,1 -1,0 0,3 1,0 0,4 -1,0 0,3 5,0 0,-3 -1,0 0,-8 -3,0 m 8,0 0,1 -1,0 0,3 1,0 0,3 2,0 0,1 1,0 0,1 -1,0 0,1 -1,0 0,-1 -3,0 0,3 1,0 0,1 5,0 0,-1 1,0 0,-1 1,0 0,-5 -1,0 0,-5 -1,0 0,-1 -4,0 m 278,0 0,1 -1,0 0,1 -1,0 0,7 1,0 0,1 1,0 0,1 7,0 0,-1 1,0 0,-1 1,0 0,-7 -1,0 0,-1 -1,0 0,-1 -7,0 m 17,0 0,1 -1,0 0,1 -1,0 0,7 1,0 0,1 1,0 0,1 7,0 0,-1 1,0 0,-1 1,0 0,-7 -1,0 0,-1 -1,0 0,-1 -7,0 m 17,0 0,1 -1,0 0,1 -1,0 0,7 1,0 0,1 1,0 0,1 7,0 0,-1 1,0 0,-1 1,0 0,-7 -1,0 0,-1 -1,0 0,-1 -7,0"
       style="fill:#000000;fill-opacity:1;fill-rule:nonzero;stroke:none"
       id="path304" />
    <path
       inkscape:connector-curvature="0"
       d="m 408,273 0,1 94,0 0,-1 -94,0 m -380,1 0,4 4,0 0,1 1,0 0,3 -1,0 0,1 -1,0 0,1 -3,0 0,1 3,0 0,-1 1,0 0,-1 1,0 0,-1 1,0 0,-3 -1,0 0,-1 -1,0 0,-1 -3,0 0,-2 4,0 0,-1 -5,0 m 22,0 0,1 -1,0 0,1 -1,0 0,3 1,0 0,1 1,0 0,1 2,0 0,-1 1,0 0,2 -1,0 0,1 -2,0 0,1 2,0 0,-1 1,0 0,-1 1,0 0,-6 -1,0 0,-1 -1,0 0,-1 -2,0 m 15,0 0,1 -1,0 0,1 1,0 0,6 -1,0 0,1 3,0 0,-1 -1,0 0,-8 -1,0 m 8,0 0,1 -1,0 0,1 1,0 0,-1 2,0 0,2 -1,0 0,1 -1,0 0,1 2,0 0,1 1,0 0,3 -1,0 0,1 -3,0 0,-1 -1,0 0,1 1,0 0,1 3,0 0,-1 1,0 0,-1 1,0 0,-3 -1,0 0,-1 -1,0 0,-2 1,0 0,-2 -1,0 0,-1 -2,0 m 17,0 0,1 -1,0 0,1 1,0 0,-1 2,0 0,2 -1,0 0,1 -1,0 0,1 2,0 0,1 1,0 0,-1 -1,0 0,-2 1,0 0,-2 -1,0 0,-1 -2,0"
       style="fill:#ffffff;fill-opacity:1;fill-rule:nonzero;stroke:none"
       id="path306" />
    <path
       inkscape:connector-curvature="0"
       d="m 211,274 0,4 4,0 0,-4 -4,0 m 10,0 0,4 4,0 0,-4 -4,0 m 10,0 0,4 4,0 0,-4 -4,0"
       style="fill:#000000;fill-opacity:1;fill-rule:nonzero;stroke:none"
       id="path308" />
    <path
       inkscape:connector-curvature="0"
       d="m 350,274 0,1 -1,0 0,7 1,0 0,1 7,0 0,-1 1,0 0,-7 -1,0 0,-1 -7,0 m 17,0 0,1 -1,0 0,7 1,0 0,1 7,0 0,-1 1,0 0,-7 -1,0 0,-1 -7,0"
       style="fill:#ffffff;fill-opacity:1;fill-rule:nonzero;stroke:none"
       id="path310" />
    <path
       inkscape:connector-curvature="0"
       d="m 50,275 0,1 -1,0 0,3 1,0 0,1 2,0 0,-1 1,0 0,-3 -1,0 0,-1 -2,0 m 70,0 0,1 -1,0 0,1 -1,0 0,1 -1,0 0,1 -3,0 0,4 3,0 0,1 1,0 0,1 1,0 0,1 1,0 0,1 1,0 0,-12 -1,0"
       style="fill:#000000;fill-opacity:1;fill-rule:nonzero;stroke:none"
       id="path312" />
    <path
       inkscape:connector-curvature="0"
       d="m 408,275 0,1 94,0 0,-1 -94,0 m -358,2 0,1 2,0 0,-1 -2,0"
       style="fill:#ffffff;fill-opacity:1;fill-rule:nonzero;stroke:none"
       id="path314" />
    <path
       inkscape:connector-curvature="0"
       d="m 153,277 0,1 -1,0 0,1 -1,0 0,7 1,0 0,1 1,0 0,1 7,0 0,-1 1,0 0,-1 1,0 0,-7 -1,0 0,-1 -1,0 0,-1 -7,0 m 19,0 0,1 -1,0 0,1 -1,0 0,7 1,0 0,1 1,0 0,1 7,0 0,-1 1,0 0,-1 1,0 0,-7 -1,0 0,-1 -1,0 0,-1 -7,0"
       style="fill:#000000;fill-opacity:1;fill-rule:nonzero;stroke:none"
       id="path316" />
    <path
       inkscape:connector-curvature="0"
       d="m 408,277 0,1 94,0 0,-1 -94,0"
       style="fill:#ffffff;fill-opacity:1;fill-rule:nonzero;stroke:none"
       id="path318" />
    <path
       inkscape:connector-curvature="0"
       d="m 123,278 0,1 1,0 0,4 -1,0 0,1 1,0 0,-1 1,0 0,-4 -1,0 0,-1 -1,0 m 3,0 0,1 1,0 0,4 -1,0 0,1 1,0 0,-1 1,0 0,-4 -1,0 0,-1 -1,0 m 3,0 0,1 1,0 0,4 -1,0 0,1 1,0 0,-1 1,0 0,-4 -1,0 0,-1 -1,0"
       style="fill:#000000;fill-opacity:1;fill-rule:nonzero;stroke:none"
       id="path320" />
    <path
       inkscape:connector-curvature="0"
       d="m 172,278 0,1 -1,0 0,7 1,0 0,1 7,0 0,-1 1,0 0,-7 -1,0 0,-1 -7,0"
       style="fill:#ffffff;fill-opacity:1;fill-rule:nonzero;stroke:none"
       id="path322" />
    <path
       inkscape:connector-curvature="0"
       d="m 206,279 0,4 4,0 0,-4 -4,0 m 10,0 0,4 4,0 0,-4 -4,0 m 10,0 0,4 4,0 0,-4 -4,0 m 10,0 0,4 4,0 0,-4 -4,0"
       style="fill:#000000;fill-opacity:1;fill-rule:nonzero;stroke:none"
       id="path324" />
    <path
       inkscape:connector-curvature="0"
       d="m 156,280 0,1 -1,0 0,1 1,0 0,3 1,0 0,-5 -1,0"
       style="fill:#ffffff;fill-opacity:1;fill-rule:nonzero;stroke:none"
       id="path326" />
    <path
       inkscape:connector-curvature="0"
       d="m 174,280 0,1 -1,0 0,3 1,0 0,1 3,0 0,-1 1,0 0,-3 -1,0 0,-1 -3,0"
       style="fill:#000000;fill-opacity:1;fill-rule:nonzero;stroke:none"
       id="path328" />
    <path
       inkscape:connector-curvature="0"
       d="m 174,281 0,3 3,0 0,-3 -3,0 m -86,2 0,1 1,0 0,1 3,0 0,-1 1,0 0,-1 -1,0 0,1 -3,0 0,-1 -1,0"
       style="fill:#ffffff;fill-opacity:1;fill-rule:nonzero;stroke:none"
       id="path330" />
    <path
       inkscape:connector-curvature="0"
       d="m 468,284 0,1 -1,0 0,1 -7,0 0,3 1,0 0,27 19,0 0,-1 1,0 0,-25 1,0 0,-3 -1,0 0,-1 -6,0 0,-2 -7,0"
       style="fill:#000000;fill-opacity:1;fill-rule:nonzero;stroke:none"
       id="path332" />
    <path
       inkscape:connector-curvature="0"
       d="m 468,285 0,1 6,0 0,-1 -6,0 m -7,2 0,1 20,0 0,-1 -20,0 m 1,2 0,26 18,0 0,-26 -18,0 m -442,1 0,19 19,0 0,-19 -19,0 m 20,0 0,19 19,0 0,-19 -19,0 m 20,0 0,19 19,0 0,-19 -19,0 m 20,0 0,19 18,0 0,1 -18,0 0,18 -1,0 0,-18 -19,0 0,18 -1,0 0,-18 -19,0 0,18 -1,0 0,-18 -19,0 0,19 79,0 0,-28 -5,0 0,3 -7,0 0,-4 1,0 0,-1 1,0 0,-1 1,0 0,-1 1,0 0,-1 -1,0 0,1 -3,0 0,-3 1,0 0,-1 5,0 0,-3 -13,0"
       style="fill:#ffffff;fill-opacity:1;fill-rule:nonzero;stroke:none"
       id="path334" />
    <path
       inkscape:connector-curvature="0"
       d="m 465,291 0,1 -1,0 0,20 1,0 0,1 1,0 0,-1 -1,0 0,-20 1,0 0,-1 -1,0 m 4,0 0,1 -1,0 0,20 1,0 0,1 1,0 0,-1 -1,0 0,-20 1,0 0,-1 -1,0 m 4,0 0,1 -1,0 0,20 1,0 0,1 1,0 0,-1 -1,0 0,-20 1,0 0,-1 -1,0 m 4,0 0,1 -1,0 0,20 1,0 0,1 1,0 0,-1 -1,0 0,-20 1,0 0,-1 -1,0 m -448,2 0,1 -1,0 0,4 -1,0 0,5 1,0 0,1 1,0 0,1 4,0 0,-1 1,0 0,-1 1,0 0,-5 -1,0 0,-4 -1,0 0,-1 -4,0 m 21,0 0,1 -1,0 0,3 1,0 0,4 -1,0 0,3 5,0 0,-3 -1,0 0,-8 -3,0 m 14,0 0,1 -1,0 0,3 1,0 0,4 -1,0 0,3 5,0 0,-3 -1,0 0,-8 -3,0 m 6,0 0,6 4,0 0,1 1,0 0,1 -1,0 0,1 -1,0 0,1 -3,0 0,3 5,0 0,-1 1,0 0,-1 1,0 0,-1 1,0 0,-5 -1,0 0,-1 -1,0 0,-1 1,0 0,-3 -7,0"
       style="fill:#000000;fill-opacity:1;fill-rule:nonzero;stroke:none"
       id="path336" />
    <path
       inkscape:connector-curvature="0"
       d="m 30,294 0,1 -1,0 0,2 1,0 0,1 -1,0 0,1 -1,0 0,3 1,0 0,1 1,0 0,1 2,0 0,-1 1,0 0,-1 1,0 0,-3 -1,0 0,-1 -1,0 0,-1 1,0 0,-2 -1,0 0,-1 -2,0 m 21,0 0,1 -1,0 0,1 1,0 0,6 -1,0 0,1 3,0 0,-1 -1,0 0,-8 -1,0 m 14,0 0,1 -1,0 0,1 1,0 0,6 -1,0 0,1 3,0 0,-1 -1,0 0,-8 -1,0 m 6,0 0,4 4,0 0,1 1,0 0,3 -1,0 0,1 -1,0 0,1 -3,0 0,1 3,0 0,-1 1,0 0,-1 1,0 0,-1 1,0 0,-3 -1,0 0,-1 -1,0 0,-1 -3,0 0,-2 4,0 0,-1 -5,0 m 18,0 0,1 -1,0 0,1 1,0 0,-1 3,0 0,3 -1,0 0,1 -1,0 0,1 -1,0 0,1 -1,0 0,2 5,0 0,-2 -1,0 0,1 -3,0 0,-1 1,0 0,-1 1,0 0,-1 1,0 0,-1 1,0 0,-3 -1,0 0,-1 -3,0"
       style="fill:#ffffff;fill-opacity:1;fill-rule:nonzero;stroke:none"
       id="path338" />
    <path
       inkscape:connector-curvature="0"
       d="m 30,295 0,2 2,0 0,-2 -2,0 m 0,3 0,1 -1,0 0,3 1,0 0,1 2,0 0,-1 1,0 0,-3 -1,0 0,-1 -2,0"
       style="fill:#000000;fill-opacity:1;fill-rule:nonzero;stroke:none"
       id="path340" />
    <path
       inkscape:connector-curvature="0"
       d="m 30,300 0,1 2,0 0,-1 -2,0"
       style="fill:#ffffff;fill-opacity:1;fill-rule:nonzero;stroke:none"
       id="path342" />
    <path
       inkscape:connector-curvature="0"
       d="m 27,313 0,4 3,0 0,2 -1,0 0,5 3,0 0,-3 1,0 0,-2 1,0 0,-2 1,0 0,-4 -8,0 m 17,0 0,1 -1,0 0,3 1,0 0,4 -1,0 0,3 5,0 0,-3 -1,0 0,-8 -3,0 m 10,0 0,1 -1,0 0,1 -1,0 0,1 -1,0 0,1 -1,0 0,4 3,0 0,3 5,0 0,-6 -1,0 0,-5 -3,0 m 17,0 0,1 -1,0 0,1 -1,0 0,1 -1,0 0,1 -1,0 0,4 3,0 0,3 5,0 0,-6 -1,0 0,-5 -3,0 m 13,0 0,1 -1,0 0,3 1,0 0,4 -1,0 0,3 5,0 0,-3 -1,0 0,-8 -3,0 m 8,0 0,1 -1,0 0,1 -1,0 0,7 1,0 0,1 1,0 0,1 4,0 0,-1 1,0 0,-1 1,0 0,-7 -1,0 0,-1 -1,0 0,-1 -4,0"
       style="fill:#000000;fill-opacity:1;fill-rule:nonzero;stroke:none"
       id="path344" />
    <path
       inkscape:connector-curvature="0"
       d="m 28,314 0,2 1,0 0,-1 4,0 0,1 -1,0 0,2 -1,0 0,2 -1,0 0,3 1,0 0,-3 1,0 0,-2 1,0 0,-2 1,0 0,-2 -6,0 m 17,0 0,1 -1,0 0,1 1,0 0,6 -1,0 0,1 3,0 0,-1 -1,0 0,-8 -1,0 m 10,0 0,1 -1,0 0,1 -1,0 0,1 -1,0 0,1 -1,0 0,2 4,0 0,2 -1,0 0,1 3,0 0,-1 -1,0 0,-2 1,0 0,-1 -1,0 0,-2 -1,0 0,2 -3,0 0,-1 1,0 0,-1 1,0 0,-1 1,0 0,-1 1,0 0,-1 -1,0 m 17,0 0,1 -1,0 0,1 -1,0 0,1 -1,0 0,1 -1,0 0,2 4,0 0,2 -1,0 0,1 3,0 0,-1 -1,0 0,-2 1,0 0,-1 -1,0 0,-2 -1,0 0,2 -3,0 0,-1 1,0 0,-1 1,0 0,-1 1,0 0,-1 1,0 0,-1 -1,0 m 13,0 0,1 -1,0 0,1 1,0 0,6 -1,0 0,1 3,0 0,-1 -1,0 0,-8 -1,0 m 8,0 0,1 -1,0 0,1 -1,0 0,5 1,0 0,1 1,0 0,1 2,0 0,-1 1,0 0,-1 1,0 0,-5 -1,0 0,-1 -1,0 0,-1 -2,0"
       style="fill:#ffffff;fill-opacity:1;fill-rule:nonzero;stroke:none"
       id="path346" />
    <path
       inkscape:connector-curvature="0"
       d="m 93,315 0,1 -1,0 0,5 1,0 0,1 2,0 0,-1 1,0 0,-5 -1,0 0,-1 -2,0"
       style="fill:#000000;fill-opacity:1;fill-rule:nonzero;stroke:none"
       id="path348" />
    <path
       inkscape:connector-curvature="0"
       d="m 30,316 0,1 1,0 0,-1 -1,0 m 63,1 0,3 2,0 0,-3 -2,0"
       style="fill:#ffffff;fill-opacity:1;fill-rule:nonzero;stroke:none"
       id="path350" />
    <path
       inkscape:connector-curvature="0"
       d="m 459,319 0,1 2,0 0,6 1,0 0,-6 2,0 0,-1 -5,0 m 21,0 0,7 1,0 0,-4 2,0 0,4 1,0 0,-4 -1,0 0,-1 -2,0 0,-2 -1,0 m -15,2 0,5 1,0 0,-3 1,0 0,-1 2,0 0,-1 -2,0 0,1 -1,0 0,-1 -1,0 m 6,0 0,1 2,0 0,1 -2,0 0,1 -1,0 0,1 1,0 0,1 3,0 0,-4 -1,0 0,-1 -2,0 m 5,0 0,1 -1,0 0,1 1,0 0,1 2,0 0,1 -3,0 0,1 3,0 0,-1 1,0 0,-1 -1,0 0,-1 -2,0 0,-1 3,0 0,-1 -3,0"
       style="fill:#000000;fill-opacity:1;fill-rule:nonzero;stroke:none"
       id="path352" />
    <path
       inkscape:connector-curvature="0"
       d="m 471,324 0,1 2,0 0,-1 -2,0"
       style="fill:#ffffff;fill-opacity:1;fill-rule:nonzero;stroke:none"
       id="path354" />
  </g>
</svg>
