<?xml version="1.0" encoding="UTF-8" standalone="no"?>
<!-- CLEANED: 1517086137/812bb59b1e030f30a6ab5c26f77e3f1a -->
<!-- Created with Inkscape (http://www.inkscape.org/) -->
<svg
   xmlns:dc="http://purl.org/dc/elements/1.1/"
   xmlns:cc="http://creativecommons.org/ns#"
   xmlns:rdf="http://www.w3.org/1999/02/22-rdf-syntax-ns#"
   xmlns:svg="http://www.w3.org/2000/svg"
   xmlns="http://www.w3.org/2000/svg"
   xmlns:sodipodi="http://sodipodi.sourceforge.net/DTD/sodipodi-0.dtd"
   xmlns:inkscape="http://www.inkscape.org/namespaces/inkscape"
   id="svg2"
   version="1.1"
   inkscape:version="0.48.3.1 r9886"
   width="3000"
   height="5000"
   xml:space="preserve"
   sodipodi:docname="170421_instagram.svg"><metadata
     id="metadata8"><rdf:RDF><cc:Work
         rdf:about=""><dc:format>image/svg+xml</dc:format><dc:type
           rdf:resource="http://purl.org/dc/dcmitype/StillImage" /><dc:title /></cc:Work></rdf:RDF></metadata><defs
     id="defs6" /><sodipodi:namedview
     pagecolor="#caca6e"
     bordercolor="#666666"
     borderopacity="1"
     objecttolerance="10"
     gridtolerance="10"
     guidetolerance="10"
     inkscape:pageopacity="1"
     inkscape:pageshadow="2"
     id="namedview4"
     showgrid="false"
     units="mm"
     guidecolor="#ff0000"
     guideopacity="0.47058824"
     guidehicolor="#00ff00"
     guidehiopacity="1"
     inkscape:snap-global="false"
     showguides="true"
     showborder="true"
     inkscape:showpageshadow="false"
     inkscape:guide-bbox="true"><inkscape:grid
       type="xygrid"
       id="grid4326"
       empspacing="5"
       visible="true"
       enabled="true"
       snapvisiblegridlinesonly="true"
       units="mm"
       spacingx="8mm"
       spacingy="8mm"
       originx="10mm" /></sodipodi:namedview><g
     style="display:inline"
     id="refbuild"
     inkscape:groupmode="layer"
     inkscape:label="XX_Referenz"
     sodipodi:insensitive="true"><path
       style="color:#000000;fill:#ececec;fill-opacity:1;stroke:none"
       d="m 540,190 0,1080 1920,0 0,-1080 -1920,0 z"
       id="canvasoverlay" /></g><g
     inkscape:groupmode="layer"
     id="layer10"
     inkscape:label="XX_170326_instagram"
     style="display:inline"
     sodipodi:insensitive="true"><path
   style="color:#000000;fill:#ffffff;stroke:none;stroke-width:1;marker:none;visibility:visible;display:inline;overflow:visible;enable-background:accumulate"
   d="m 958,285.5 1099,0 c 1.939,0 3.5,1.561 3.5,3.5 l 0,1072 c 0,1.939 -1.561,3.5 -3.5,3.5 l -1099,0 c -1.939,0 -3.5,-1.561 -3.5,-3.5 l 0,-1072 c 0,-1.939 1.561,-3.5 3.5,-3.5 z"
   id="rect4796-8"
   sodipodi:nodetypes="sssssssss" /><text
   sodipodi:linespacing="100%"
   id="text3132-5"
   y="2125.3618"
   x="1031.6411"
   style="font-size:12px;font-style:normal;font-variant:normal;font-weight:500;font-stretch:normal;text-align:start;line-height:100%;letter-spacing:-0.2px;word-spacing:0px;writing-mode:lr-tb;text-anchor:start;fill:#ff0000;fill-opacity:1;stroke:none;font-family:Montserrat;-inkscape-font-specification:Montserrat Medium"
   xml:space="preserve"><tspan
     y="2125.3618"
     x="1031.6411"
     id="tspan3134-3"
     sodipodi:role="line">INFO</tspan></text>
<text
   xml:space="preserve"
   style="font-size:12px;font-style:normal;font-variant:normal;font-weight:500;font-stretch:normal;text-align:start;line-height:100%;letter-spacing:-0.2px;word-spacing:0px;writing-mode:lr-tb;text-anchor:start;fill:#ff0000;fill-opacity:1;stroke:none;font-family:Montserrat;-inkscape-font-specification:Montserrat Medium"
   x="1074.6411"
   y="2125.3618"
   id="text3265"
   sodipodi:linespacing="100%"><tspan
     sodipodi:role="line"
     id="tspan3267"
     x="1074.6411"
     y="2125.3618">HILFE</tspan></text>
<text
   sodipodi:linespacing="100%"
   id="text3269"
   y="2125.3618"
   x="1123.6411"
   style="font-size:12px;font-style:normal;font-variant:normal;font-weight:500;font-stretch:normal;text-align:start;line-height:100%;letter-spacing:-0.2px;word-spacing:0px;writing-mode:lr-tb;text-anchor:start;fill:#ff0000;fill-opacity:1;stroke:none;font-family:Montserrat;-inkscape-font-specification:Montserrat Medium"
   xml:space="preserve"><tspan
     y="2125.3618"
     x="1123.6411"
     id="tspan3271"
     sodipodi:role="line">BLOG</tspan></text>
<text
   xml:space="preserve"
   style="font-size:12px;font-style:normal;font-variant:normal;font-weight:500;font-stretch:normal;text-align:start;line-height:100%;letter-spacing:-0.2px;word-spacing:0px;writing-mode:lr-tb;text-anchor:start;fill:#ff0000;fill-opacity:1;stroke:none;font-family:Montserrat;-inkscape-font-specification:Montserrat Medium"
   x="1169.6411"
   y="2125.3618"
   id="text3273"
   sodipodi:linespacing="100%"><tspan
     sodipodi:role="line"
     id="tspan3275"
     x="1169.6411"
     y="2125.3618">PRESSE</tspan></text>
<text
   sodipodi:linespacing="100%"
   id="text3277"
   y="2125.3618"
   x="1229.6411"
   style="font-size:12px;font-style:normal;font-variant:normal;font-weight:500;font-stretch:normal;text-align:start;line-height:100%;letter-spacing:-0.2px;word-spacing:0px;writing-mode:lr-tb;text-anchor:start;fill:#ff0000;fill-opacity:1;stroke:none;font-family:Montserrat;-inkscape-font-specification:Montserrat Medium"
   xml:space="preserve"><tspan
     y="2125.3618"
     x="1229.6411"
     id="tspan3279"
     sodipodi:role="line">API</tspan></text>
<text
   xml:space="preserve"
   style="font-size:12px;font-style:normal;font-variant:normal;font-weight:500;font-stretch:normal;text-align:start;line-height:100%;letter-spacing:-0.2px;word-spacing:0px;writing-mode:lr-tb;text-anchor:start;fill:#ff0000;fill-opacity:1;stroke:none;font-family:Montserrat;-inkscape-font-specification:Montserrat Medium"
   x="1263.6411"
   y="2125.3618"
   id="text3281"
   sodipodi:linespacing="100%"><tspan
     sodipodi:role="line"
     id="tspan3283"
     x="1263.6411"
     y="2125.3618">JOBS</tspan></text>
<text
   sodipodi:linespacing="100%"
   id="text3285"
   y="2125.3618"
   x="1307.6411"
   style="font-size:12px;font-style:normal;font-variant:normal;font-weight:500;font-stretch:normal;text-align:start;line-height:100%;letter-spacing:-0.2px;word-spacing:0px;writing-mode:lr-tb;text-anchor:start;fill:#ff0000;fill-opacity:1;stroke:none;font-family:Montserrat;-inkscape-font-specification:Montserrat Medium"
   xml:space="preserve"><tspan
     y="2125.3618"
     x="1307.6411"
     id="tspan3287"
     sodipodi:role="line">PRIVATSPHÄRE</tspan></text>
<text
   xml:space="preserve"
   style="font-size:12px;font-style:normal;font-variant:normal;font-weight:500;font-stretch:normal;text-align:start;line-height:100%;letter-spacing:-0.2px;word-spacing:0px;writing-mode:lr-tb;text-anchor:start;fill:#ff0000;fill-opacity:1;stroke:none;font-family:Montserrat;-inkscape-font-specification:Montserrat Medium"
   x="1399.6411"
   y="2125.3618"
   id="text3289"
   sodipodi:linespacing="100%"><tspan
     sodipodi:role="line"
     id="tspan3291"
     x="1399.6411"
     y="2125.3618">NUTZUNGSBEDIUNGUNGEN</tspan></text>
<text
   sodipodi:linespacing="100%"
   id="text3293"
   y="2125.3618"
   x="1573.6411"
   style="font-size:12px;font-style:normal;font-variant:normal;font-weight:500;font-stretch:normal;text-align:start;line-height:100%;letter-spacing:-0.2px;word-spacing:0px;writing-mode:lr-tb;text-anchor:start;fill:#ff0000;fill-opacity:1;stroke:none;font-family:Montserrat;-inkscape-font-specification:Montserrat Medium"
   xml:space="preserve"><tspan
     y="2125.3618"
     x="1573.6411"
     id="tspan3295"
     sodipodi:role="line">VERZEICHNIS</tspan></text>
<text
   xml:space="preserve"
   style="font-size:12px;font-style:normal;font-variant:normal;font-weight:500;font-stretch:normal;text-align:start;line-height:100%;letter-spacing:-0.2px;word-spacing:0px;writing-mode:lr-tb;text-anchor:start;fill:#ff0000;fill-opacity:1;stroke:none;font-family:Montserrat;-inkscape-font-specification:Montserrat Medium"
   x="1666.6411"
   y="2125.3618"
   id="text3297"
   sodipodi:linespacing="100%"><tspan
     sodipodi:role="line"
     id="tspan3299"
     x="1666.6411"
     y="2125.3618">SPRACHE</tspan></text>
<text
   sodipodi:linespacing="100%"
   id="text3301"
   y="2124.8516"
   x="1862.3859"
   style="font-size:11px;font-style:normal;font-variant:normal;font-weight:500;font-stretch:normal;text-align:start;line-height:100%;letter-spacing:-0.2px;word-spacing:0px;writing-mode:lr-tb;text-anchor:start;fill:#ff0000;fill-opacity:1;stroke:none;font-family:Montserrat;-inkscape-font-specification:Montserrat Medium"
   xml:space="preserve"><tspan
     y="2124.8516"
     x="1862.3859"
     id="tspan3303"
     sodipodi:role="line">© 2017 INSTAGRAM</tspan></text>
<path
   style="color:#000000;fill:#00ffff;fill-opacity:1;fill-rule:nonzero;stroke:none;stroke-width:1;marker:none;visibility:visible;display:inline;overflow:visible;enable-background:accumulate"
   d="m 1033,697 293,0 0,293 -293,0 z"
   id="rect3306"
   sodipodi:nodetypes="ccccc" /><path
   sodipodi:nodetypes="ccccc"
   id="path3310"
   d="m 1354,697 293,0 0,293 -293,0 z"
   style="color:#000000;fill:#00ffff;fill-opacity:1;fill-rule:nonzero;stroke:none;stroke-width:1;marker:none;visibility:visible;display:inline;overflow:visible;enable-background:accumulate" /><path
   style="color:#000000;fill:#00ffff;fill-opacity:1;fill-rule:nonzero;stroke:none;stroke-width:1;marker:none;visibility:visible;display:inline;overflow:visible;enable-background:accumulate"
   d="m 1675,697 293,0 0,293 -293,0 z"
   id="path3312"
   sodipodi:nodetypes="ccccc" /><path
   sodipodi:nodetypes="ccccc"
   id="path3314"
   d="m 1033,1018 293,0 0,293 -293,0 z"
   style="color:#000000;fill:#00ffff;fill-opacity:1;fill-rule:nonzero;stroke:none;stroke-width:1;marker:none;visibility:visible;display:inline;overflow:visible;enable-background:accumulate" /><path
   style="color:#000000;fill:#00ffff;fill-opacity:1;fill-rule:nonzero;stroke:none;stroke-width:1;marker:none;visibility:visible;display:inline;overflow:visible;enable-background:accumulate"
   d="m 1354,1018 293,0 0,293 -293,0 z"
   id="path3316"
   sodipodi:nodetypes="ccccc" /><path
   sodipodi:nodetypes="ccccc"
   id="path3318"
   d="m 1675,1018 293,0 0,293 -293,0 z"
   style="color:#000000;fill:#00ffff;fill-opacity:1;fill-rule:nonzero;stroke:none;stroke-width:1;marker:none;visibility:visible;display:inline;overflow:visible;enable-background:accumulate" /><path
   style="color:#000000;fill:#00ffff;fill-opacity:1;fill-rule:nonzero;stroke:none;stroke-width:1;marker:none;visibility:visible;display:inline;overflow:visible;enable-background:accumulate"
   d="m 1033,1339 293,0 0,293 -293,0 z"
   id="path3320"
   sodipodi:nodetypes="ccccc" /><path
   sodipodi:nodetypes="ccccc"
   id="path3322"
   d="m 1354,1339 293,0 0,293 -293,0 z"
   style="color:#000000;fill:#00ffff;fill-opacity:1;fill-rule:nonzero;stroke:none;stroke-width:1;marker:none;visibility:visible;display:inline;overflow:visible;enable-background:accumulate" /><path
   style="color:#000000;fill:#00ffff;fill-opacity:1;fill-rule:nonzero;stroke:none;stroke-width:1;marker:none;visibility:visible;display:inline;overflow:visible;enable-background:accumulate"
   d="m 1675,1339 293,0 0,293 -293,0 z"
   id="path3324"
   sodipodi:nodetypes="ccccc" /><path
   sodipodi:nodetypes="ccccc"
   id="path3326"
   d="m 1033,1660 293,0 0,293 -293,0 z"
   style="color:#000000;fill:#00ffff;fill-opacity:1;fill-rule:nonzero;stroke:none;stroke-width:1;marker:none;visibility:visible;display:inline;overflow:visible;enable-background:accumulate" /><path
   style="color:#000000;fill:#00ffff;fill-opacity:1;fill-rule:nonzero;stroke:none;stroke-width:1;marker:none;visibility:visible;display:inline;overflow:visible;enable-background:accumulate"
   d="m 1354,1660 293,0 0,293 -293,0 z"
   id="path3328"
   sodipodi:nodetypes="ccccc" /><path
   sodipodi:nodetypes="ccccc"
   id="path3330"
   d="m 1675,1660 293,0 0,293 -293,0 z"
   style="color:#000000;fill:#00ffff;fill-opacity:1;fill-rule:nonzero;stroke:none;stroke-width:1;marker:none;visibility:visible;display:inline;overflow:visible;enable-background:accumulate" /><text
   sodipodi:linespacing="100%"
   id="text3349"
   y="574.36194"
   x="1545.6411"
   style="font-size:15px;font-style:normal;font-variant:normal;font-weight:500;font-stretch:normal;text-align:start;line-height:100%;letter-spacing:-0.2px;word-spacing:0px;writing-mode:lr-tb;text-anchor:start;fill:#ff0000;fill-opacity:1;stroke:none;display:inline;font-family:Montserrat;-inkscape-font-specification:Montserrat Medium"
   xml:space="preserve"><tspan
     y="574.36194"
     x="1545.6411"
     id="tspan3351"
     sodipodi:role="line">Abonnenten</tspan></text>
<text
   xml:space="preserve"
   style="font-size:15px;font-style:normal;font-variant:normal;font-weight:600;font-stretch:normal;text-align:start;line-height:100%;letter-spacing:-0.2px;word-spacing:0px;writing-mode:lr-tb;text-anchor:start;fill:#ff0000;fill-opacity:1;stroke:none;display:inline;font-family:Montserrat;-inkscape-font-specification:Montserrat Semi-Bold"
   x="1503.6411"
   y="574.36194"
   id="text3353"
   sodipodi:linespacing="100%"><tspan
     sodipodi:role="line"
     id="tspan3355"
     x="1503.6411"
     y="574.36194">700k</tspan></text>
<text
   xml:space="preserve"
   style="font-size:32px;font-style:normal;font-variant:normal;font-weight:300;font-stretch:normal;text-align:start;line-height:100%;letter-spacing:-0.60000002px;word-spacing:0px;writing-mode:lr-tb;text-anchor:start;fill:#ff0000;fill-opacity:1;stroke:none;display:inline;font-family:Montserrat;-inkscape-font-specification:Montserrat Light"
   x="1354.6411"
   y="532.36194"
   id="text3357"
   sodipodi:linespacing="100%"><tspan
     dy="0 0 0 0"
     id="tspan3359"
     sodipodi:role="line"
     x="1354.6411"
     y="532.36194">kathrina_e</tspan></text>
<text
   xml:space="preserve"
   style="font-size:15px;font-style:normal;font-variant:normal;font-weight:500;font-stretch:normal;text-align:start;line-height:100%;letter-spacing:-0.2px;word-spacing:0px;writing-mode:lr-tb;text-anchor:start;fill:#ff0000;fill-opacity:1;stroke:none;display:inline;font-family:Montserrat;-inkscape-font-specification:Montserrat Medium"
   x="1702.6411"
   y="574.36194"
   id="text3361"
   sodipodi:linespacing="100%"><tspan
     sodipodi:role="line"
     id="tspan3363"
     x="1702.6411"
     y="574.36194">abonniert</tspan></text>
<text
   sodipodi:linespacing="100%"
   id="text3365"
   y="574.36194"
   x="1680.6411"
   style="font-size:15px;font-style:normal;font-variant:normal;font-weight:600;font-stretch:normal;text-align:start;line-height:100%;letter-spacing:-0.2px;word-spacing:0px;writing-mode:lr-tb;text-anchor:start;fill:#ff0000;fill-opacity:1;stroke:none;display:inline;font-family:Montserrat;-inkscape-font-specification:Montserrat Semi-Bold"
   xml:space="preserve"><tspan
     y="574.36194"
     x="1680.6411"
     id="tspan3367"
     sodipodi:role="line">43</tspan></text>
<text
   sodipodi:linespacing="100%"
   id="text3369"
   y="574.36194"
   x="1399.6411"
   style="font-size:15px;font-style:normal;font-variant:normal;font-weight:500;font-stretch:normal;text-align:start;line-height:100%;letter-spacing:-0.2px;word-spacing:0px;writing-mode:lr-tb;text-anchor:start;fill:#ff0000;fill-opacity:1;stroke:none;display:inline;font-family:Montserrat;-inkscape-font-specification:Montserrat Medium"
   xml:space="preserve"><tspan
     y="574.36194"
     x="1399.6411"
     id="tspan3371"
     sodipodi:role="line">Beiträge</tspan></text>
<text
   xml:space="preserve"
   style="font-size:15px;font-style:normal;font-variant:normal;font-weight:600;font-stretch:normal;text-align:start;line-height:100%;letter-spacing:0.40000001px;word-spacing:0px;writing-mode:lr-tb;text-anchor:start;fill:#ff0000;fill-opacity:1;stroke:none;display:inline;font-family:Montserrat;-inkscape-font-specification:Montserrat Semi-Bold"
   x="1355.6411"
   y="574.36194"
   id="text3373"
   sodipodi:linespacing="100%"><tspan
     sodipodi:role="line"
     id="tspan3375"
     x="1355.6411"
     y="574.36194">1.468</tspan></text>
<text
   xml:space="preserve"
   style="font-size:15px;font-style:normal;font-variant:normal;font-weight:500;font-stretch:normal;text-align:start;line-height:160.00000238%;letter-spacing:0px;word-spacing:0px;writing-mode:lr-tb;text-anchor:start;fill:#ff0000;fill-opacity:1;stroke:none;display:inline;font-family:Montserrat;-inkscape-font-specification:Montserrat Medium"
   x="1355.6411"
   y="615.36194"
   id="text3377"
   sodipodi:linespacing="160%"><tspan
     sodipodi:role="line"
     x="1355.6411"
     y="615.36194"
     id="tspan3385">Wir sammeln die krassen Geschichten! Erste Male, letzte Male, peinliche und</tspan><tspan
     sodipodi:role="line"
     x="1355.6411"
     y="639.36194"
     id="tspan3391">schreckliche Situationen - erzählt VON DIR. Schick uns deine Story per Whatsapp.</tspan></text>
<rect
   ry="3"
   rx="3"
   y="-536.5"
   x="1541.5"
   height="31"
   width="104"
   id="rect3784-9"
   style="color:#000000;fill:#ff0000;stroke:#ff0000;stroke-width:1;stroke-linecap:butt;stroke-linejoin:miter;stroke-miterlimit:4;stroke-opacity:1;stroke-dasharray:none;stroke-dashoffset:0;marker:none;visibility:visible;display:inline;overflow:visible;enable-background:accumulate"
   transform="scale(1,-1)" /><rect
   transform="scale(1,-1)"
   style="color:#000000;fill:#ff0000;stroke:#ff0000;stroke-width:1;stroke-linecap:butt;stroke-linejoin:miter;stroke-miterlimit:4;stroke-opacity:1;stroke-dasharray:none;stroke-dashoffset:0;marker:none;visibility:visible;display:inline;overflow:visible;enable-background:accumulate"
   id="rect3186"
   width="177"
   height="33"
   x="1411.5"
   y="-2046.5"
   rx="3"
   ry="3" /><text
   sodipodi:linespacing="100%"
   id="text3163-0"
   y="526.9198"
   x="1568.6411"
   style="font-size:15px;font-style:normal;font-variant:normal;font-weight:bold;font-stretch:normal;text-align:start;line-height:100%;letter-spacing:-1px;word-spacing:0px;writing-mode:lr-tb;text-anchor:start;fill:#ffffff;fill-opacity:1;stroke:none;font-family:Poppins;-inkscape-font-specification:Poppins Bold"
   xml:space="preserve"><tspan
     y="526.9198"
     x="1568.6411"
     id="tspan3165-0"
     sodipodi:role="line">Folgen</tspan></text>
<text
   xml:space="preserve"
   style="font-size:15px;font-style:normal;font-variant:normal;font-weight:bold;font-stretch:normal;text-align:start;line-height:100%;letter-spacing:-1px;word-spacing:0px;writing-mode:lr-tb;text-anchor:start;fill:#ffffff;fill-opacity:1;stroke:none;font-family:Poppins;-inkscape-font-specification:Poppins Bold"
   x="1459.6411"
   y="2035.9198"
   id="text3214"
   sodipodi:linespacing="100%"><tspan
     sodipodi:role="line"
     id="tspan3216"
     x="1459.6411"
     y="2035.9198">Mehr laden</tspan></text>
<path
   style="color:#000000;fill:#00ff00;fill-opacity:1;fill-rule:nonzero;stroke:#00ff00;stroke-width:1;stroke-linecap:butt;stroke-linejoin:miter;stroke-miterlimit:4;stroke-opacity:1;stroke-dashoffset:0;marker:none;visibility:visible;display:inline;overflow:visible;enable-background:accumulate"
   d="m 1253,576.99995 c 0,41.42138 -33.5786,75.00004 -75,75.00004 -41.4214,0 -75,-33.57866 -75,-75.00004 0,-41.42137 33.5786,-75.00003 75,-75.00003 41.4214,0 75,33.57866 75,75.00003 z"
   id="path3219" /><path
   style="fill:none;stroke:#ff0000;stroke-width:1px;stroke-linecap:butt;stroke-linejoin:miter;stroke-opacity:1;display:inline"
   d="m 954.5,440.5 1089.9859,0"
   id="path3778"
   sodipodi:nodetypes="cc" /><path
   sodipodi:nodetypes="cc"
   id="path3780"
   d="m 1086.5,386.5 -0.014,32"
   style="fill:none;stroke:#ff0000;stroke-width:1px;stroke-linecap:butt;stroke-linejoin:miter;stroke-opacity:1;display:inline" /><rect
   style="color:#000000;fill:none;stroke:#ff0000;stroke-width:1;stroke-linecap:butt;stroke-linejoin:miter;stroke-miterlimit:4;stroke-opacity:1;stroke-dasharray:none;stroke-dashoffset:0;marker:none;visibility:visible;display:inline;overflow:visible;enable-background:accumulate"
   id="rect3782"
   width="214"
   height="27"
   x="1393.5"
   y="390.5"
   rx="3"
   ry="3" /><rect
   ry="3"
   rx="3"
   y="387.5"
   x="1721.5"
   height="33"
   width="147"
   id="rect3784"
   style="color:#000000;fill:#ff0000;stroke:#ff0000;stroke-width:1;stroke-linecap:butt;stroke-linejoin:miter;stroke-miterlimit:4;stroke-opacity:1;stroke-dasharray:none;stroke-dashoffset:0;marker:none;visibility:visible;display:inline;overflow:visible;enable-background:accumulate" /><path
   style="color:#000000;fill:none;stroke:#ff0000;stroke-width:1;stroke-linecap:butt;stroke-linejoin:miter;stroke-miterlimit:4;stroke-opacity:1;stroke-dashoffset:0;marker:none;visibility:visible;display:inline;overflow:visible;enable-background:accumulate"
   d="m 1472,404.00003 c 0,1.93298 -1.567,3.49997 -3.5,3.49997 -1.9329,0 -3.5,-1.56699 -3.5,-3.49997 0,-1.93298 1.5671,-3.49998 3.5,-3.49998 1.933,0 3.5,1.567 3.5,3.49998 z"
   id="path3158" /><path
   id="path3161"
   d="m 1474,410.00003 -3,-3"
   style="color:#000000;fill:none;stroke:#ff0000;stroke-width:1;stroke-linecap:butt;stroke-linejoin:miter;stroke-miterlimit:4;stroke-opacity:1;stroke-dashoffset:0;marker:none;visibility:visible;display:inline;overflow:visible;enable-background:accumulate"
   sodipodi:nodetypes="cc" /><text
   xml:space="preserve"
   style="font-size:15px;font-style:normal;font-variant:normal;font-weight:bold;font-stretch:normal;text-align:start;line-height:100%;letter-spacing:-1.20000005px;word-spacing:0px;writing-mode:lr-tb;text-anchor:start;fill:#ff0000;fill-opacity:1;stroke:none;font-family:Poppins;-inkscape-font-specification:Poppins Bold"
   x="1891.6411"
   y="409.91983"
   id="text3787"
   sodipodi:linespacing="100%"><tspan
     sodipodi:role="line"
     id="tspan3789"
     x="1891.6411"
     y="409.91983">Anmelden</tspan></text>
<text
   sodipodi:linespacing="100%"
   id="text3154"
   y="409.91983"
   x="1478.6411"
   style="font-size:14px;font-style:normal;font-variant:normal;font-weight:bold;font-stretch:normal;text-align:start;line-height:100%;letter-spacing:-1.20000005px;word-spacing:0px;writing-mode:lr-tb;text-anchor:start;fill:#ff0000;fill-opacity:1;stroke:none;font-family:Poppins;-inkscape-font-specification:Poppins Bold"
   xml:space="preserve"><tspan
     y="409.91983"
     x="1478.6411"
     id="tspan3156"
     sodipodi:role="line">Suchen</tspan></text>
<text
   sodipodi:linespacing="100%"
   id="text3163"
   y="409.91983"
   x="1739.6411"
   style="font-size:15px;font-style:normal;font-variant:normal;font-weight:bold;font-stretch:normal;text-align:start;line-height:100%;letter-spacing:-1.20000005px;word-spacing:0px;writing-mode:lr-tb;text-anchor:start;fill:#ffffff;fill-opacity:1;stroke:none;font-family:Poppins;-inkscape-font-specification:Poppins Bold"
   xml:space="preserve"><tspan
     y="409.91983"
     x="1739.6411"
     id="tspan3165"
     sodipodi:role="line">App installieren</tspan></text>
<path
   style="fill:#f2f2f2"
   d="m 1108.8217,389.54479 c -2.22,0.95217 -4.6605,3.64216 -5.4313,7.01868 -0.9762,4.27819 3.0861,6.0873 3.4192,5.49412 0.3922,-0.697 -0.7278,-0.93271 -0.9584,-3.15243 -0.298,-2.86695 1.0027,-6.07045 2.6399,-7.47606 0.3043,-0.26114 0.2898,0.10233 0.2898,0.77465 0,1.20225 -0.065,11.99499 -0.065,14.24745 0,3.04785 -0.1228,4.0103 -0.3434,4.96134 -0.2236,0.96377 -0.583,1.61499 -0.3107,1.86583 0.3043,0.2806 1.6035,-0.38683 2.3556,-1.46245 0.902,-1.29003 1.2176,-2.83929 1.2744,-4.52176 0.068,-2.02816 0.066,-5.24642 0.068,-7.08211 0.01,-1.68359 0.027,-6.61349 -0.029,-9.57718 -0.014,-0.72693 -1.9814,-1.48959 -2.9099,-1.09096 m 78.832,14.2646 c -0.072,1.58452 -0.4139,2.82301 -0.8386,3.6966 -0.8225,1.69121 -2.5291,2.21636 -3.2538,-0.21482 -0.3949,-1.32524 -0.4133,-3.53852 -0.1294,-5.38785 0.2891,-1.88394 1.0959,-3.30676 2.4321,-3.17844 1.318,0.12684 1.9349,1.86692 1.7897,5.08445 z m -22.218,9.83068 c -0.018,2.63276 -0.4224,4.94114 -1.2896,5.61159 -1.2298,0.95066 -2.883,0.23755 -2.5407,-1.68359 0.3029,-1.70005 1.7353,-3.43621 3.8338,-5.55754 0,0 0.01,0.48376 -0.01,1.62954 z m -0.336,-9.84601 c -0.075,1.44317 -0.4403,2.89297 -0.8387,3.71213 -0.8223,1.6912 -2.5413,2.21991 -3.2537,-0.21483 -0.4871,-1.6635 -0.3704,-3.81652 -0.1293,-5.1731 0.3126,-1.76011 1.0706,-3.393 2.432,-3.393 1.3236,0 1.9763,1.48792 1.7897,5.06891 z m -12.871,-0.0221 c -0.081,1.52846 -0.3717,2.80617 -0.8387,3.7342 -0.8449,1.67956 -2.5165,2.21223 -3.2536,-0.21483 -0.5315,-1.75009 -0.3506,-4.13639 -0.1295,-5.42546 0.328,-1.91293 1.1496,-3.26915 2.4321,-3.14064 1.3175,0.13187 1.9578,1.86672 1.7897,5.04684 z m 58.9848,1.78531 c -0.3221,0 -0.469,0.34013 -0.5906,0.91269 -0.4217,1.99074 -0.865,2.44025 -1.4365,2.44025 -0.6387,0 -1.2125,-0.98573 -1.36,-2.959 -0.1159,-1.55162 -0.097,-4.40819 0.051,-7.24972 0.031,-0.58383 -0.1269,-1.16148 -1.655,-1.73035 -0.6577,-0.24469 -1.6136,-0.60497 -2.0896,0.57224 -1.3447,3.32582 -1.8709,5.96625 -1.9947,7.03889 -0.01,0.0555 -0.073,0.0668 -0.084,-0.0629 -0.079,-0.8591 -0.2552,-2.42026 -0.2771,-5.70025 -0.01,-0.63996 -0.1366,-1.18469 -0.826,-1.63067 -0.4473,-0.28938 -1.8055,-0.80119 -2.2946,-0.19229 -0.4238,0.49797 -0.9145,1.8381 -1.4244,3.42666 -0.4145,1.29112 -0.703,2.16455 -0.703,2.16455 0,0 0.01,-3.48373 0.011,-4.80517 0,-0.49851 -0.3316,-0.66463 -0.4321,-0.69475 -0.453,-0.1347 -1.3453,-0.35972 -1.7242,-0.35972 -0.4673,0 -0.5819,0.26768 -0.5819,0.65771 0,0.0511 -0.073,4.58667 -0.073,7.75816 0,0.13776 0,0.28806 0,0.44772 -0.2585,1.45765 -1.0968,3.43639 -2.0086,3.43639 -0.9128,0 -1.3434,-0.82725 -1.3434,-4.60817 0,-2.20568 0.065,-3.16477 0.096,-4.76006 0.018,-0.91886 0.054,-1.62448 0.052,-1.7846 -0.01,-0.49105 -0.8354,-0.73854 -1.2211,-0.83 -0.3874,-0.0922 -0.7241,-0.12797 -0.9869,-0.11263 -0.3721,0.0215 -0.6353,0.27163 -0.6353,0.61564 0,0.18445 0,0.53519 0,0.53519 -0.4792,-0.77164 -1.25,-1.30871 -1.7629,-1.46434 -1.3812,-0.42032 -2.8226,-0.0479 -3.9098,1.51092 -0.8641,1.23857 -1.3849,2.64136 -1.5899,4.65681 -0.1499,1.47344 -0.101,2.96761 0.1654,4.23123 -0.3218,1.42585 -0.9194,2.01001 -1.5737,2.01001 -0.9499,0 -1.6385,-1.58865 -1.5586,-4.33618 0.053,-1.80714 0.4057,-3.07534 0.7914,-4.91009 0.1646,-0.78212 0.031,-1.1916 -0.3043,-1.58407 -0.3074,-0.35991 -0.9624,-0.54379 -1.9042,-0.31762 -0.6707,0.16124 -1.6297,0.33465 -2.5071,0.46784 0,0 0.053,-0.21644 0.096,-0.59805 0.2282,-2.00121 -1.8941,-1.83884 -2.5712,-1.19965 -0.4043,0.38162 -0.6794,0.8317 -0.7838,1.64095 -0.1655,1.2842 0.8566,1.88992 0.8566,1.88992 -0.3354,1.57303 -1.1575,3.62794 -2.0062,5.11361 -0.4546,0.79599 -0.8024,1.38582 -1.2513,2.01282 0,-0.23347 -0.01,-0.46691 -0.01,-0.6993 -0.01,-3.30713 0.032,-5.90996 0.052,-6.84809 0.018,-0.91885 0.054,-1.60577 0.053,-1.7659 -0.01,-0.35916 -0.2098,-0.49478 -0.6355,-0.66652 -0.3765,-0.15189 -0.8216,-0.25702 -1.2833,-0.29369 -0.5828,-0.0466 -0.9339,0.27013 -0.9248,0.64464 0,0.0707 0,0.50489 0,0.50489 -0.4791,-0.77166 -1.2499,-1.30871 -1.7627,-1.46436 -1.3813,-0.42014 -2.8227,-0.0477 -3.9098,1.51093 -0.8639,1.23856 -1.4298,2.97658 -1.59,4.64147 -0.1493,1.55168 -0.1218,2.87033 0.081,3.98112 -0.2196,1.11231 -0.8511,2.27547 -1.5651,2.27547 -0.9128,0 -1.4323,-0.82726 -1.4323,-4.60816 0,-2.20569 0.065,-3.16478 0.097,-4.75989 0.018,-0.91885 0.054,-1.62466 0.052,-1.7846 -0.01,-0.49104 -0.8355,-0.73854 -1.221,-0.8302 -0.4035,-0.0956 -0.7518,-0.13076 -1.0192,-0.11056 -0.353,0.0269 -0.6011,0.35075 -0.6011,0.59226 l 0,0.55652 c -0.4792,-0.77166 -1.25,-1.30871 -1.7629,-1.46436 -1.3812,-0.42014 -2.8145,-0.0417 -3.9097,1.51093 -0.7142,1.0124 -1.2924,2.1348 -1.5899,4.61939 -0.086,0.71803 -0.1241,1.39037 -0.1192,2.01882 -0.2847,1.78466 -1.5426,3.84158 -2.5715,3.84158 -0.6021,0 -1.1755,-1.19664 -1.1755,-3.74693 0,-3.39711 0.2052,-8.23387 0.2399,-8.70002 0,0 1.3,-0.0227 1.5517,-0.0257 0.6485,-0.007 1.2358,0.009 2.0995,-0.0369 0.4333,-0.0227 0.8506,-1.61569 0.4035,-1.81285 -0.2027,-0.0892 -1.6348,-0.16742 -2.2026,-0.17976 -0.4774,-0.0111 -1.8065,-0.11187 -1.8065,-0.11187 0,0 0.1192,-3.21042 0.1469,-3.54957 0.024,-0.28266 -0.3333,-0.42819 -0.5379,-0.51649 -0.4978,-0.21569 -0.943,-0.31895 -1.4708,-0.43044 -0.7292,-0.15413 -1.0599,-0.004 -1.1246,0.62723 -0.097,0.95703 -0.1477,3.76021 -0.1477,3.76021 -0.5351,0 -2.363,-0.10718 -2.8983,-0.10718 -0.4972,0 -1.0339,2.19146 -0.3464,2.21839 0.7911,0.0315 2.1696,0.0586 3.0835,0.0868 0,0 -0.04,4.91644 -0.04,6.43428 0,0.16149 0,0.317 0,0.46789 -0.503,2.68626 -2.2746,4.13732 -2.2746,4.13732 0.3804,-1.77712 -0.3968,-3.11165 -1.7966,-4.24133 -0.5158,-0.41629 -1.534,-1.20439 -2.6732,-2.06801 0,0 0.6598,-0.66632 1.245,-2.00683 0.4145,-0.94955 0.4324,-2.03622 -0.5852,-2.27584 -1.6814,-0.3962 -3.0678,0.8691 -3.4813,2.2199 -0.3204,1.04644 -0.1495,1.82295 0.4782,2.62958 0.045,0.0589 0.095,0.11916 0.1468,0.17977 -0.3796,0.7496 -0.9011,1.75883 -1.3426,2.54147 -1.2258,2.17295 -2.1518,3.8917 -2.8515,3.8917 -0.5594,0 -0.5519,-1.74498 -0.5519,-3.37877 0,-1.40846 0.1015,-3.52599 0.1826,-5.7184 0.027,-0.72507 -0.3271,-1.13811 -0.9202,-1.51224 -0.3603,-0.22728 -1.1295,-0.67417 -1.575,-0.67417 -0.6667,0 -2.5904,0.0929 -4.408,5.48026 -0.2291,0.67902 -0.6791,1.9163 -0.6791,1.9163 l 0.039,-6.47846 c 0,-0.15189 -0.079,-0.29874 -0.2597,-0.39919 -0.3063,-0.17042 -1.1244,-0.51891 -1.8518,-0.51891 -0.3465,0 -0.5196,0.16517 -0.5196,0.4944 l -0.063,10.13559 c 0,0.77011 0.019,1.66852 0.094,2.06146 0.074,0.39343 0.1939,0.71349 0.3426,0.90391 0.1482,0.19005 0.3198,0.33504 0.6027,0.39488 0.2633,0.0555 1.7051,0.24524 1.78,-0.31932 0.09,-0.67658 0.093,-1.40839 0.8503,-4.1377 1.1787,-4.2492 2.7153,-6.32244 3.4378,-7.05874 0.1263,-0.12868 0.2704,-0.13637 0.2635,0.0743 -0.031,0.93159 -0.1393,3.25944 -0.2123,5.23709 -0.1957,5.29246 0.744,6.27343 2.0867,6.27343 1.0273,0 2.4755,-1.0459 4.0278,-3.69342 0.9677,-1.64989 1.9074,-3.26766 2.5825,-4.43364 0.4705,0.44626 0.9985,0.92657 1.5261,1.43967 1.2261,1.1924 1.6287,2.32542 1.3616,3.40029 -0.2044,0.82171 -0.9737,1.66852 -2.3429,0.84545 -0.3991,-0.24012 -0.5694,-0.42565 -0.9707,-0.69637 -0.2156,-0.14543 -0.5448,-0.18891 -0.7421,-0.0366 -0.5127,0.39605 -0.8058,0.89982 -0.9733,1.52349 -0.1628,0.60687 0.4303,0.92767 1.0453,1.20827 0.5294,0.24149 1.6673,0.46034 2.393,0.48525 2.8275,0.0969 5.0926,-1.39889 6.6694,-5.25728 0.2822,3.33219 1.4835,5.21782 3.5706,5.21782 1.3953,0 2.7943,-1.84807 3.4062,-3.66611 0.1756,0.74109 0.4355,1.38554 0.7713,1.93051 1.6082,2.61088 4.728,2.04893 6.2951,-0.16813 0.4846,-0.68506 0.5583,-0.93122 0.5583,-0.93122 0.2286,2.09344 1.8739,2.82487 2.8159,2.82487 1.055,0 2.1444,-0.51107 2.9079,-2.27229 0.089,0.19113 0.1871,0.37368 0.2937,0.54671 1.6082,2.61088 4.7281,2.04893 6.2953,-0.16812 0.073,-0.104 0.138,-0.19834 0.194,-0.28301 l 0.046,1.37506 c 0,0 -0.894,0.84035 -1.4428,1.35587 -2.4153,2.2706 -4.2519,3.99328 -4.387,5.99937 -0.1734,2.55794 1.8512,3.50861 3.383,3.63319 1.6266,0.13227 3.0196,-0.78846 3.8758,-2.077 0.7531,-1.13416 1.2461,-3.57518 1.2098,-5.98609 -0.014,-0.96543 -0.039,-2.19297 -0.057,-3.50879 0.8489,-1.01014 1.8053,-2.28687 2.686,-3.78133 0.9598,-1.62864 1.9884,-3.81576 2.5151,-5.51788 0,0 0.8936,0.008 1.8474,-0.0561 0.305,-0.0204 0.3926,0.0434 0.3363,0.27256 -0.068,0.27684 -1.205,4.7698 -0.1675,7.76284 0.7101,2.04892 2.3111,2.70814 3.2603,2.70814 1.111,0 2.1739,-0.85977 2.7435,-2.13647 0.068,0.14233 0.1404,0.28007 0.2187,0.40722 1.6083,2.61087 4.7172,2.04555 6.2952,-0.16813 0.3563,-0.49944 0.5583,-0.93123 0.5583,-0.93123 0.3387,2.16659 1.9831,2.8359 2.9249,2.8359 0.9811,0 1.9122,-0.41212 2.6676,-2.24366 0.032,0.80643 0.082,1.46583 0.1598,1.67373 0.047,0.12714 0.3266,0.28674 0.5294,0.36382 0.8975,0.34102 1.8129,0.17976 2.1515,0.10961 0.2346,-0.0486 0.4175,-0.24151 0.4426,-0.73949 0.066,-1.30758 0.025,-3.50449 0.4122,-5.1372 0.6494,-2.74013 1.2552,-3.80303 1.5425,-4.32924 0.1608,-0.29483 0.3423,-0.34347 0.3489,-0.0314 0.014,0.63135 0.044,2.48536 0.2957,4.97632 0.1848,1.83201 0.4316,2.91485 0.6213,3.25755 0.5413,0.98004 1.2098,1.02645 1.7543,1.02645 0.3463,0 1.0705,-0.0981 1.0057,-0.72172 -0.032,-0.304 0.024,-2.1827 0.664,-4.88223 0.4181,-1.76289 1.1151,-3.35577 1.3665,-3.93809 0.093,-0.21477 0.1358,-0.0455 0.1343,-0.0125 -0.053,1.21406 -0.1717,5.18509 0.3109,7.35692 0.6543,2.94216 2.5472,3.2714 3.2068,3.2714 1.4081,0 2.5598,-1.09755 2.9477,-3.98543 0.093,-0.69499 -0.046,-1.23162 -0.4595,-1.23162"
   id="path4" /><path
   d="m 1050.0016,387.99878 c -4.074,0 -4.5852,0.0178 -6.1853,0.0906 -1.5969,0.0731 -2.687,0.32595 -3.6408,0.69691 -0.9866,0.38314 -1.8235,0.89565 -2.6573,1.72976 -0.8344,0.83379 -1.3469,1.67069 -1.7313,2.65698 -0.3718,0.95411 -0.625,2.04447 -0.6969,3.64079 -0.071,1.60006 -0.09,2.11164 -0.09,6.18557 0,4.07392 0.018,4.58363 0.09,6.18369 0.074,1.59695 0.3262,2.687 0.6969,3.64079 0.3834,0.9866 0.896,1.82351 1.73,2.65729 0.8335,0.83441 1.6704,1.34819 2.6564,1.73132 0.9544,0.37097 2.0448,0.62378 3.6414,0.69692 1.6001,0.0728 2.111,0.0906 6.1846,0.0906 4.0742,0 4.5839,-0.0178 6.1841,-0.0906 1.5969,-0.0731 2.6882,-0.32595 3.6426,-0.69692 0.9863,-0.38313 1.822,-0.89691 2.6555,-1.73132 0.8343,-0.83378 1.3468,-1.67069 1.7312,-2.65699 0.3688,-0.95409 0.6219,-2.04445 0.6969,-3.64077 0.072,-1.60007 0.09,-2.11009 0.09,-6.18401 0,-4.07393 -0.019,-4.5852 -0.09,-6.18526 -0.075,-1.59695 -0.3281,-2.68699 -0.6969,-3.64079 -0.3844,-0.9866 -0.8969,-1.8235 -1.7312,-2.65729 -0.8345,-0.83441 -1.6689,-1.34693 -2.6565,-1.72976 -0.9562,-0.37096 -2.0469,-0.62378 -3.6439,-0.69691 -1.6,-0.0728 -2.1094,-0.0906 -6.1846,-0.0906 z m -1.3457,2.70324 c 0.3994,-6.3e-4 0.845,0 1.3457,0 4.0052,0 4.4798,0.0144 6.0615,0.0863 1.4625,0.0669 2.2563,0.31126 2.7851,0.51658 0.7,0.27189 1.1991,0.5969 1.7238,1.12192 0.525,0.52502 0.8501,1.02505 1.1225,1.72507 0.2054,0.52815 0.45,1.32194 0.5167,2.78449 0.072,1.58132 0.088,2.05635 0.088,6.05963 0,4.0033 -0.015,4.47832 -0.088,6.05963 -0.066,1.46257 -0.3113,2.25636 -0.5167,2.7845 -0.2718,0.70003 -0.5975,1.19849 -1.1225,1.72319 -0.525,0.52504 -1.0235,0.85005 -1.7238,1.12193 -0.5282,0.20626 -1.3226,0.45002 -2.7851,0.5169 -1.5813,0.0719 -2.0563,0.0876 -6.0615,0.0876 -4.0055,0 -4.4802,-0.0157 -6.0615,-0.0876 -1.4627,-0.0675 -2.2564,-0.31189 -2.7854,-0.51722 -0.7001,-0.27188 -1.2001,-0.5969 -1.7251,-1.12192 -0.5251,-0.52502 -0.8501,-1.02379 -1.1226,-1.72413 -0.2053,-0.52815 -0.45,-1.32194 -0.5166,-2.78449 -0.072,-1.58132 -0.087,-2.05633 -0.087,-6.06214 0,-4.00579 0.014,-4.47831 0.087,-6.05963 0.066,-1.46255 0.3113,-2.25634 0.5166,-2.78511 0.2719,-0.70003 0.5975,-1.20006 1.1226,-1.72508 0.525,-0.52502 1.025,-0.85003 1.7251,-1.12254 0.5287,-0.20627 1.3227,-0.45002 2.7854,-0.51721 1.3837,-0.0625 1.92,-0.0813 4.7158,-0.0843 z m 9.3528,2.49074 c -0.9937,0 -1.8,0.80534 -1.8,1.79944 0,0.9938 0.8063,1.80007 1.8,1.80007 0.9939,0 1.8002,-0.80627 1.8002,-1.80007 0,-0.99379 -0.8063,-1.80007 -1.8002,-1.80007 z m -8.0071,2.1032 c -4.2542,0 -7.7034,3.44921 -7.7034,7.70345 0,4.25425 3.4492,7.70189 7.7034,7.70189 4.2542,0 7.7022,-3.44764 7.7022,-7.70189 0,-4.25424 -3.4483,-7.70345 -7.7026,-7.70345 z m 0,2.70324 c 2.7613,0 5.0002,2.23853 5.0002,5.00021 0,2.76138 -2.2389,5.00022 -5.0002,5.00022 -2.7617,0 -5.0003,-2.23884 -5.0003,-5.00022 0,-2.76168 2.2386,-5.00021 5.0003,-5.00021 z"
   id="path28"
   style="fill:#ff0000" /><path
   style="color:#000000;fill:#0000ff;stroke:none;stroke-width:1px;marker:none;visibility:visible;display:inline;overflow:visible;enable-background:accumulate"
   d="m 2045.5,363.5 0,91 15,0 0,-91 z"
   id="path5598"
   sodipodi:nodetypes="ccccc" /><path
   sodipodi:nodetypes="cccccc"
   id="path4794"
   d="m 2060.5,323.5 -797,0 c -18.7174,0 -10.0955,-28 -29,-28 l -183,0 c -18.9045,0 -10.2826,28 -29,28 l -68,0"
   style="color:#000000;fill:none;stroke:#0000ff;stroke-width:1px;marker:none;visibility:visible;display:inline;overflow:visible;enable-background:accumulate" /><path
   style="color:#000000;fill:none;stroke:#0000ff;stroke-width:1;stroke-linecap:round;stroke-linejoin:round;stroke-miterlimit:4;stroke-opacity:1;stroke-dashoffset:0;marker:none;visibility:visible;display:inline;overflow:visible;enable-background:accumulate"
   d="m 958,285.5 1099,0 c 1.939,0 3.5,1.561 3.5,3.5 l 0,1072 c 0,1.939 -1.561,3.5 -3.5,3.5 l -1099,0 c -1.939,0 -3.5,-1.561 -3.5,-3.5 l 0,-1072 c 0,-1.939 1.561,-3.5 3.5,-3.5 z"
   id="rect4796"
   sodipodi:nodetypes="sssssssss" /><path
   style="color:#000000;fill:none;stroke:#0000ff;stroke-width:1px;marker:none;visibility:visible;display:inline;overflow:visible;enable-background:accumulate"
   d="m 2060.5,363.5 -1106,0"
   id="path5584"
   sodipodi:nodetypes="cc" /><path
   style="color:#000000;fill:none;stroke:#0000ff;stroke-width:1;stroke-linecap:round;stroke-linejoin:round;stroke-miterlimit:4;stroke-opacity:1;stroke-dashoffset:0;marker:none;visibility:visible;display:inline;overflow:visible;enable-background:accumulate"
   d="m 986,331.5 745,0 c 1.939,0 3.5,1.561 3.5,3.5 l 0,18 c 0,1.939 -1.561,3.5 -3.5,3.5 l -745,0"
   id="rect5586"
   sodipodi:nodetypes="cssssc" /><rect
   style="color:#000000;fill:none;stroke:#0000ff;stroke-width:1;stroke-linecap:round;stroke-linejoin:round;stroke-miterlimit:4;stroke-opacity:1;stroke-dasharray:none;stroke-dashoffset:0;marker:none;visibility:visible;display:inline;overflow:visible;enable-background:accumulate"
   id="rect5588"
   width="231"
   height="25"
   x="1743.5"
   y="331.5"
   rx="3.5"
   ry="3.5" /><path
   style="color:#000000;fill:none;stroke:#0000ff;stroke-width:0.99999994;stroke-linecap:round;stroke-linejoin:round;stroke-miterlimit:4;stroke-opacity:1;stroke-dashoffset:0;marker:none;visibility:visible;display:inline;overflow:visible;enable-background:accumulate"
   d="m 992.49995,344 c 0,8.56042 -6.93959,15.49999 -15.5,15.49999 -8.5604,0 -15.5,-6.93957 -15.5,-15.49999 0,-8.5604 6.9396,-15.5 15.5,-15.5 8.56041,0 15.5,6.9396 15.5,15.5 z"
   id="path5593"
   sodipodi:nodetypes="sssss" /><path
   sodipodi:nodetypes="cc"
   id="path5596"
   d="m 2045.5,363.5 0,1001"
   style="color:#000000;fill:none;stroke:#0000ff;stroke-width:1px;marker:none;visibility:visible;display:inline;overflow:visible;enable-background:accumulate" /><path
   style="color:#000000;fill:none;stroke:#0000ff;stroke-width:1;stroke-linecap:round;stroke-linejoin:round;stroke-miterlimit:4;stroke-opacity:1;stroke-dashoffset:0;marker:none;visibility:visible;display:inline;overflow:visible;enable-background:accumulate"
   d="m 972,344 10,0"
   id="path5606"
   sodipodi:nodetypes="cc" /><path
   sodipodi:nodetypes="ccc"
   id="path5608"
   d="m 977,349.5 -5,-5.5 5,-5.5"
   style="color:#000000;fill:none;stroke:#0000ff;stroke-width:1;stroke-linecap:round;stroke-linejoin:round;stroke-miterlimit:4;stroke-opacity:1;stroke-dashoffset:0;marker:none;visibility:visible;display:inline;overflow:visible;enable-background:accumulate" /><g
   style="display:inline"
   id="g5621"
   transform="translate(0,0.5)"><path
     style="color:#000000;fill:none;stroke:#0000ff;stroke-width:1;stroke-linecap:round;stroke-linejoin:round;stroke-miterlimit:4;stroke-opacity:1;stroke-dashoffset:0;marker:none;visibility:visible;display:inline;overflow:visible;enable-background:accumulate"
     d="m 2032,338.5 14,0"
     id="path5612"
     sodipodi:nodetypes="cc" /><path
     sodipodi:nodetypes="cc"
     id="path5614"
     d="m 2032,343.5 14,0"
     style="color:#000000;fill:none;stroke:#0000ff;stroke-width:1;stroke-linecap:round;stroke-linejoin:round;stroke-miterlimit:4;stroke-opacity:1;stroke-dashoffset:0;marker:none;visibility:visible;display:inline;overflow:visible;enable-background:accumulate" /><path
     style="color:#000000;fill:none;stroke:#0000ff;stroke-width:1;stroke-linecap:round;stroke-linejoin:round;stroke-miterlimit:4;stroke-opacity:1;stroke-dashoffset:0;marker:none;visibility:visible;display:inline;overflow:visible;enable-background:accumulate"
     d="m 2032,348.5 14,0"
     id="path5616"
     sodipodi:nodetypes="cc" /></g><path
   style="color:#000000;fill:none;stroke:#0000ff;stroke-width:1;marker:none;visibility:visible;display:inline;overflow:visible;enable-background:accumulate"
   d="m 2000.5001,344 c 0,-4.14212 -3.3579,-7.49997 -7.5002,-7.49997 -4.142,0 -7.4998,3.35785 -7.4998,7.49997 0,4.14213 3.3578,7.49997 7.4998,7.49997 4.1423,0 7.5002,-3.35784 7.5002,-7.49997 z"
   id="path5618"
   sodipodi:nodetypes="sssss" /><path
   id="path5626"
   d="m 2018.5001,344 c 0,-4.14212 -3.3579,-7.49997 -7.5002,-7.49997 -4.142,0 -7.4998,3.35785 -7.4998,7.49997 0,4.14213 3.3578,7.49997 7.4998,7.49997 4.1423,0 7.5002,-3.35784 7.5002,-7.49997 z"
   style="color:#000000;fill:none;stroke:#0000ff;stroke-width:1;marker:none;visibility:visible;display:inline;overflow:visible;enable-background:accumulate"
   sodipodi:nodetypes="sssss" /><path
   sodipodi:nodetypes="cc"
   id="path5632"
   d="m 1261,311 10,0"
   style="color:#000000;fill:none;stroke:#0000ff;stroke-width:1;stroke-linecap:butt;stroke-linejoin:round;stroke-miterlimit:4;stroke-opacity:1;stroke-dashoffset:0;marker:none;visibility:visible;display:inline;overflow:visible;enable-background:accumulate" /><path
   style="color:#000000;fill:none;stroke:#0000ff;stroke-width:1;stroke-linecap:butt;stroke-linejoin:round;stroke-miterlimit:4;stroke-opacity:1;stroke-dashoffset:0;marker:none;visibility:visible;display:inline;overflow:visible;enable-background:accumulate"
   d="m 1266,306 0,10"
   id="path5639"
   sodipodi:nodetypes="cc" /><path
   style="color:#000000;fill:none;stroke:#0000ff;stroke-width:1;stroke-linecap:butt;stroke-linejoin:round;stroke-miterlimit:4;stroke-opacity:1;stroke-dashoffset:0;marker:none;visibility:visible;display:inline;overflow:visible;enable-background:accumulate"
   d="m 1229.4645,306.46447 7.071,7.07106"
   id="path5641"
   sodipodi:nodetypes="cc" /><path
   sodipodi:nodetypes="cc"
   id="path5643"
   d="m 1236.5355,306.46447 -7.071,7.07106"
   style="color:#000000;fill:none;stroke:#0000ff;stroke-width:1;stroke-linecap:butt;stroke-linejoin:round;stroke-miterlimit:4;stroke-opacity:1;stroke-dashoffset:0;marker:none;visibility:visible;display:inline;overflow:visible;enable-background:accumulate" /><path
   id="path5647"
   d="m 994.5001,304 c 0,-3.03756 -2.4624,-5.49998 -5.5002,-5.49998 -3.0374,0 -5.4998,2.46242 -5.4998,5.49998 0,3.03756 2.4624,5.49997 5.4998,5.49997 3.0378,0 5.5002,-2.46241 5.5002,-5.49997 z"
   style="color:#000000;fill:none;stroke:#0000ff;stroke-width:1;marker:none;visibility:visible;display:inline;overflow:visible;enable-background:accumulate"
   sodipodi:nodetypes="sssss" /><path
   style="color:#000000;fill:none;stroke:#0000ff;stroke-width:1;marker:none;visibility:visible;display:inline;overflow:visible;enable-background:accumulate"
   d="m 973.88918,308.88909 -1.5e-4,-9.77831 -9.77802,1.3e-4 -1.2e-4,9.77801 z"
   id="path5649"
   sodipodi:nodetypes="ccccc" /><path
   sodipodi:nodetypes="ccccc"
   id="path5677"
   d="m 1015.2072,304.00001 -6.2073,-6.20708 -6.2069,6.20707 6.2069,6.20706 z"
   style="color:#000000;fill:none;stroke:#0000ff;stroke-width:1;marker:none;visibility:visible;display:inline;overflow:visible;enable-background:accumulate" /></g><g
     inkscape:groupmode="layer"
     id="layer1"
     inkscape:label="XX_FINSTAWALD"
     style="display:none"
     sodipodi:insensitive="true"><path
       style="fill:#ff0000;display:inline"
       d="m 1108.8217,-174.45526 c -2.22,0.95217 -4.6605,3.64216 -5.4313,7.01868 -0.9762,4.27819 3.0861,6.0873 3.4192,5.49412 0.3922,-0.697 -0.7278,-0.93271 -0.9584,-3.15243 -0.298,-2.86695 1.0027,-6.07045 2.6399,-7.47606 0.3043,-0.26114 0.2898,0.10233 0.2898,0.77465 0,1.20225 -0.065,11.99499 -0.065,14.24745 0,3.04785 -0.1228,4.0103 -0.3434,4.96134 -0.2236,0.96377 -0.583,1.61499 -0.3107,1.86583 0.3043,0.2806 1.6035,-0.38683 2.3556,-1.46245 0.902,-1.29003 1.2176,-2.83929 1.2744,-4.52176 0.068,-2.02816 0.066,-5.24642 0.068,-7.08211 0.01,-1.68359 0.027,-6.61349 -0.029,-9.57718 -0.014,-0.72693 -1.9814,-1.48959 -2.9099,-1.09096 m 78.832,14.2646 c -0.072,1.58452 -0.4139,2.82301 -0.8386,3.6966 -0.8225,1.69121 -2.5291,2.21636 -3.2538,-0.21482 -0.3949,-1.32524 -0.4133,-3.53852 -0.1294,-5.38785 0.2891,-1.88394 1.0959,-3.30676 2.4321,-3.17844 1.318,0.12684 1.9349,1.86692 1.7897,5.08445 z m -22.218,9.83068 c -0.018,2.63276 -0.4224,4.94114 -1.2896,5.61159 -1.2298,0.95066 -2.883,0.23755 -2.5407,-1.68359 0.3029,-1.70005 1.7353,-3.43621 3.8338,-5.55754 0,0 0.01,0.48376 -0.01,1.62954 z m -0.336,-9.84601 c -0.075,1.44317 -0.4403,2.89297 -0.8387,3.71213 -0.8223,1.6912 -2.5413,2.21991 -3.2537,-0.21483 -0.4871,-1.6635 -0.3704,-3.81652 -0.1293,-5.1731 0.3126,-1.76011 1.0706,-3.393 2.432,-3.393 1.3236,0 1.9763,1.48792 1.7897,5.06891 z m -12.871,-0.0221 c -0.081,1.52846 -0.3717,2.80617 -0.8387,3.7342 -0.8449,1.67956 -2.5165,2.21223 -3.2536,-0.21483 -0.5315,-1.75009 -0.3506,-4.13639 -0.1295,-5.42546 0.328,-1.91293 1.1496,-3.26915 2.4321,-3.14064 1.3175,0.13187 1.9578,1.86672 1.7897,5.04684 z m 58.9848,1.78531 c -0.3221,0 -0.469,0.34013 -0.5906,0.91269 -0.4217,1.99074 -0.865,2.44025 -1.4365,2.44025 -0.6387,0 -1.2125,-0.98573 -1.36,-2.959 -0.1159,-1.55162 -0.097,-4.40819 0.051,-7.24972 0.031,-0.58383 -0.1269,-1.16148 -1.655,-1.73035 -0.6577,-0.24469 -1.6136,-0.60497 -2.0896,0.57224 -1.3447,3.32582 -1.8709,5.96625 -1.9947,7.03889 -0.01,0.0555 -0.073,0.0668 -0.084,-0.0629 -0.079,-0.8591 -0.2552,-2.42026 -0.2771,-5.70025 -0.01,-0.63996 -0.1366,-1.18469 -0.826,-1.63067 -0.4473,-0.28938 -1.8055,-0.80119 -2.2946,-0.19229 -0.4238,0.49797 -0.9145,1.8381 -1.4244,3.42666 -0.4145,1.29112 -0.703,2.16455 -0.703,2.16455 0,0 0.01,-3.48373 0.011,-4.80517 0,-0.49851 -0.3316,-0.66463 -0.4321,-0.69475 -0.453,-0.1347 -1.3453,-0.35972 -1.7242,-0.35972 -0.4673,0 -0.5819,0.26768 -0.5819,0.65771 0,0.0511 -0.073,4.58667 -0.073,7.75816 0,0.13776 0,0.28806 0,0.44772 -0.2585,1.45765 -1.0968,3.43639 -2.0086,3.43639 -0.9128,0 -1.3434,-0.82725 -1.3434,-4.60817 0,-2.20568 0.065,-3.16477 0.096,-4.76006 0.018,-0.91886 0.054,-1.62448 0.052,-1.7846 -0.01,-0.49105 -0.8354,-0.73854 -1.2211,-0.83 -0.3874,-0.0922 -0.7241,-0.12797 -0.9869,-0.11263 -0.3721,0.0215 -0.6353,0.27163 -0.6353,0.61564 0,0.18445 0,0.53519 0,0.53519 -0.4792,-0.77164 -1.25,-1.30871 -1.7629,-1.46434 -1.3812,-0.42032 -2.8226,-0.0479 -3.9098,1.51092 -0.8641,1.23857 -1.3849,2.64136 -1.5899,4.65681 -0.1499,1.47344 -0.101,2.96761 0.1654,4.23123 -0.3218,1.42585 -0.9194,2.01001 -1.5737,2.01001 -0.9499,0 -1.6385,-1.58865 -1.5586,-4.33618 0.053,-1.80714 0.4057,-3.07534 0.7914,-4.91009 0.1646,-0.78212 0.031,-1.1916 -0.3043,-1.58407 -0.3074,-0.35991 -0.9624,-0.54379 -1.9042,-0.31762 -0.6707,0.16124 -1.6297,0.33465 -2.5071,0.46784 0,0 0.053,-0.21644 0.096,-0.59805 0.2282,-2.00121 -1.8941,-1.83884 -2.5712,-1.19965 -0.4043,0.38162 -0.6794,0.8317 -0.7838,1.64095 -0.1655,1.2842 0.8566,1.88992 0.8566,1.88992 -0.3354,1.57303 -1.1575,3.62794 -2.0062,5.11361 -0.4546,0.79599 -0.8024,1.38582 -1.2513,2.01282 0,-0.23347 -0.01,-0.46691 -0.01,-0.6993 -0.01,-3.30713 0.032,-5.90996 0.052,-6.84809 0.018,-0.91885 0.054,-1.60577 0.053,-1.7659 -0.01,-0.35916 -0.2098,-0.49478 -0.6355,-0.66652 -0.3765,-0.15189 -0.8216,-0.25702 -1.2833,-0.29369 -0.5828,-0.0466 -0.9339,0.27013 -0.9248,0.64464 0,0.0707 0,0.50489 0,0.50489 -0.4791,-0.77166 -1.2499,-1.30871 -1.7627,-1.46436 -1.3813,-0.42014 -2.8227,-0.0477 -3.9098,1.51093 -0.8639,1.23856 -1.4298,2.97658 -1.59,4.64147 -0.1493,1.55168 -0.1218,2.87033 0.081,3.98112 -0.2196,1.11231 -0.8511,2.27547 -1.5651,2.27547 -0.9128,0 -1.4323,-0.82726 -1.4323,-4.60816 0,-2.20569 0.065,-3.16478 0.097,-4.75989 0.018,-0.91885 0.054,-1.62466 0.052,-1.7846 -0.01,-0.49104 -0.8355,-0.73854 -1.221,-0.8302 -0.4035,-0.0956 -0.7518,-0.13076 -1.0192,-0.11056 -0.353,0.0269 -0.6011,0.35075 -0.6011,0.59226 l 0,0.55652 c -0.4792,-0.77166 -1.25,-1.30871 -1.7629,-1.46436 -1.3812,-0.42014 -2.8145,-0.0417 -3.9097,1.51093 -0.7142,1.0124 -1.2924,2.1348 -1.5899,4.61939 -0.086,0.71803 -0.1241,1.39037 -0.1192,2.01882 -0.2847,1.78466 -1.5426,3.84158 -2.5715,3.84158 -0.6021,0 -1.1755,-1.19664 -1.1755,-3.74693 0,-3.39711 0.2052,-8.23387 0.2399,-8.70002 0,0 1.3,-0.0227 1.5517,-0.0257 0.6485,-0.007 1.2358,0.009 2.0995,-0.0369 0.4333,-0.0227 0.8506,-1.61569 0.4035,-1.81285 -0.2027,-0.0892 -1.6348,-0.16742 -2.2026,-0.17976 -0.4774,-0.0111 -1.8065,-0.11187 -1.8065,-0.11187 0,0 0.1192,-3.21042 0.1469,-3.54957 0.024,-0.28266 -0.3333,-0.42819 -0.5379,-0.51649 -0.4978,-0.21569 -0.943,-0.31895 -1.4708,-0.43044 -0.7292,-0.15413 -1.0599,-0.004 -1.1246,0.62723 -0.097,0.95703 -0.1477,3.76021 -0.1477,3.76021 -0.5351,0 -2.363,-0.10718 -2.8983,-0.10718 -0.4972,0 -1.0339,2.19146 -0.3464,2.21839 0.7911,0.0315 2.1696,0.0586 3.0835,0.0868 0,0 -0.04,4.91644 -0.04,6.43428 0,0.16149 0,0.317 0,0.46789 -0.503,2.68626 -2.2746,4.13732 -2.2746,4.13732 0.3804,-1.77712 -0.3968,-3.11165 -1.7966,-4.24133 -0.5158,-0.41629 -1.534,-1.20439 -2.6732,-2.06801 0,0 0.6598,-0.66632 1.245,-2.00683 0.4145,-0.94955 0.4324,-2.03622 -0.5852,-2.27584 -1.6814,-0.3962 -3.0678,0.8691 -3.4813,2.2199 -0.3204,1.04644 -0.1495,1.82295 0.4782,2.62958 0.045,0.0589 0.095,0.11916 0.1468,0.17977 -0.3796,0.7496 -0.9011,1.75883 -1.3426,2.54147 -1.2258,2.17295 -2.1518,3.8917 -2.8515,3.8917 -0.5594,0 -0.5519,-1.74498 -0.5519,-3.37877 0,-1.40846 0.1015,-3.52599 0.1826,-5.7184 0.027,-0.72507 -0.3271,-1.13811 -0.9202,-1.51224 -0.3603,-0.22728 -1.1295,-0.67417 -1.575,-0.67417 -0.6667,0 -2.5904,0.0929 -4.408,5.48026 -0.2291,0.67902 -0.6791,1.9163 -0.6791,1.9163 l 0.039,-6.47846 c 0,-0.15189 -0.079,-0.29874 -0.2597,-0.39919 -0.3063,-0.17042 -1.1244,-0.51891 -1.8518,-0.51891 -0.3465,0 -0.5196,0.16517 -0.5196,0.4944 l -0.063,10.13559 c 0,0.77011 0.019,1.66852 0.094,2.06146 0.074,0.39343 0.1939,0.71349 0.3426,0.90391 0.1482,0.19005 0.3198,0.33504 0.6027,0.39488 0.2633,0.0555 1.7051,0.24524 1.78,-0.31932 0.09,-0.67658 0.093,-1.40839 0.8503,-4.1377 1.1787,-4.2492 2.7153,-6.32244 3.4378,-7.05874 0.1263,-0.12868 0.2704,-0.13637 0.2635,0.0743 -0.031,0.93159 -0.1393,3.25944 -0.2123,5.23709 -0.1957,5.29246 0.744,6.27343 2.0867,6.27343 1.0273,0 2.4755,-1.0459 4.0278,-3.69342 0.9677,-1.64989 1.9074,-3.26766 2.5825,-4.43364 0.4705,0.44626 0.9985,0.92657 1.5261,1.43967 1.2261,1.1924 1.6287,2.32542 1.3616,3.40029 -0.2044,0.82171 -0.9737,1.66852 -2.3429,0.84545 -0.3991,-0.24012 -0.5694,-0.42565 -0.9707,-0.69637 -0.2156,-0.14543 -0.5448,-0.18891 -0.7421,-0.0366 -0.5127,0.39605 -0.8058,0.89982 -0.9733,1.52349 -0.1628,0.60687 0.4303,0.92767 1.0453,1.20827 0.5294,0.24149 1.6673,0.46034 2.393,0.48525 2.8275,0.0969 5.0926,-1.39889 6.6694,-5.25728 0.2822,3.33219 1.4835,5.21782 3.5706,5.21782 1.3953,0 2.7943,-1.84807 3.4062,-3.66611 0.1756,0.74109 0.4355,1.38554 0.7713,1.93051 1.6082,2.61088 4.728,2.04893 6.2951,-0.16813 0.4846,-0.68506 0.5583,-0.93122 0.5583,-0.93122 0.2286,2.09344 1.8739,2.82487 2.8159,2.82487 1.055,0 2.1444,-0.51107 2.9079,-2.27229 0.089,0.19113 0.1871,0.37368 0.2937,0.54671 1.6082,2.61088 4.7281,2.04893 6.2953,-0.16812 0.073,-0.104 0.138,-0.19834 0.194,-0.28301 l 0.046,1.37506 c 0,0 -0.894,0.84035 -1.4428,1.35587 -2.4153,2.2706 -4.2519,3.99328 -4.387,5.99937 -0.1734,2.55794 1.8512,3.50861 3.383,3.63319 1.6266,0.13227 3.0196,-0.78846 3.8758,-2.077 0.7531,-1.13416 1.2461,-3.57518 1.2098,-5.98609 -0.014,-0.96543 -0.039,-2.19297 -0.057,-3.50879 0.8489,-1.01014 1.8053,-2.28687 2.686,-3.78133 0.9598,-1.62864 1.9884,-3.81576 2.5151,-5.51788 0,0 0.8936,0.008 1.8474,-0.0561 0.305,-0.0204 0.3926,0.0434 0.3363,0.27256 -0.068,0.27684 -1.205,4.7698 -0.1675,7.76284 0.7101,2.04892 2.3111,2.70814 3.2603,2.70814 1.111,0 2.1739,-0.85977 2.7435,-2.13647 0.068,0.14233 0.1404,0.28007 0.2187,0.40722 1.6083,2.61087 4.7172,2.04555 6.2952,-0.16813 0.3563,-0.49944 0.5583,-0.93123 0.5583,-0.93123 0.3387,2.16659 1.9831,2.8359 2.9249,2.8359 0.9811,0 1.9122,-0.41212 2.6676,-2.24366 0.032,0.80643 0.082,1.46583 0.1598,1.67373 0.047,0.12714 0.3266,0.28674 0.5294,0.36382 0.8975,0.34102 1.8129,0.17976 2.1515,0.10961 0.2346,-0.0486 0.4175,-0.24151 0.4426,-0.73949 0.066,-1.30758 0.025,-3.50449 0.4122,-5.1372 0.6494,-2.74013 1.2552,-3.80303 1.5425,-4.32924 0.1608,-0.29483 0.3423,-0.34347 0.3489,-0.0314 0.014,0.63135 0.044,2.48536 0.2957,4.97632 0.1848,1.83201 0.4316,2.91485 0.6213,3.25755 0.5413,0.98004 1.2098,1.02645 1.7543,1.02645 0.3463,0 1.0705,-0.0981 1.0057,-0.72172 -0.032,-0.304 0.024,-2.1827 0.664,-4.88223 0.4181,-1.76289 1.1151,-3.35577 1.3665,-3.93809 0.093,-0.21477 0.1358,-0.0455 0.1343,-0.0125 -0.053,1.21406 -0.1717,5.18509 0.3109,7.35692 0.6543,2.94216 2.5472,3.2714 3.2068,3.2714 1.4081,0 2.5598,-1.09755 2.9477,-3.98543 0.093,-0.69499 -0.046,-1.23162 -0.4595,-1.23162"
       id="path4-8" /><path
       id="path3550"
       d="m 1354.8656,-159.23293 c -0.2847,1.78466 -1.5426,3.84158 -2.5715,3.84158 -0.6021,0 -1.1755,-1.19664 -1.1755,-3.74693 0,-3.39711 0.2052,-8.23387 0.2399,-8.70002 l 0.046,-2.16708 c 0,0 0.1192,-3.21042 0.1469,-3.54957 0.024,-0.28266 -0.3333,-0.42819 -0.5379,-0.51649 -0.4978,-0.21569 -0.943,-0.31895 -1.4708,-0.43044 -0.7292,-0.15413 -1.0599,-0.004 -1.1246,0.62723 -0.097,0.95703 -0.1477,3.76021 -0.1477,3.76021 l -0.1612,2.19801 c 0,0 -0.04,4.91644 -0.04,6.43428 l 0.08,3.03645 c 0.2822,3.33219 1.4835,5.21782 3.5706,5.21782 1.3953,0 2.7943,-1.84807 3.4062,-3.66611 z"
       style="fill:#ff0000;display:inline"
       sodipodi:nodetypes="cssccccccccccscc" /><path
       id="path3552"
       d="m 1360.6529,-160.19154 c -0.072,1.58452 -0.4139,2.82301 -0.8386,3.6966 -0.8225,1.69121 -2.5291,2.21636 -3.2538,-0.21482 -0.3949,-1.32524 -0.4133,-3.53852 -0.1294,-5.38785 0.2891,-1.88394 1.0959,-3.30676 2.4321,-3.17844 1.318,0.12684 1.9349,1.86692 1.7897,5.08445 z m 6.0751,1.78193 c -0.2585,1.45765 -1.0968,3.43639 -2.0086,3.43639 -0.9128,0 -1.3434,-0.82725 -1.3434,-4.60817 0,-2.20568 0.065,-3.16477 0.096,-4.76006 0.018,-0.91886 1.054,-10.62448 1.052,-10.7846 -0.01,-0.49105 -1.8354,-1.73854 -2.2211,-1.83 -0.3874,-0.0922 -0.7241,0.87203 -0.9869,0.88737 -0.3721,0.0215 -0.6353,9.27163 -0.6353,9.61564 0,0.18445 0,0.53519 0,0.53519 -0.4792,-0.77164 -1.25,-1.30871 -1.7629,-1.46434 -1.3812,-0.42032 -2.8226,-0.0479 -3.9098,1.51092 -0.8641,1.23857 -1.3849,2.64136 -1.5899,4.65681 -0.1499,1.47344 -0.101,2.96761 0.1654,4.23123 -0.3218,1.42585 -0.9194,2.01001 -1.5737,2.01001 l -0.647,1.73839 c 1.111,0 2.1739,-0.85977 2.7435,-2.13647 0.068,0.14233 0.1404,0.28007 0.2187,0.40722 1.6083,2.61087 4.7172,2.04555 6.2952,-0.16813 0.3563,-0.49944 0.5583,-0.93123 0.5583,-0.93123 0.3387,2.16659 1.9831,2.8359 2.9249,2.8359 0.9811,0 1.9122,-0.41212 2.6676,-2.24366 z"
       style="fill:#ff0000;display:inline"
       sodipodi:nodetypes="ccccccccssccccscccccccccccscc" /><path
       id="path3554"
       d="m 1316.208,-162.07039 c 0.3221,0 0.469,-0.34013 0.5906,-0.91269 0.4217,-1.99074 0.865,-2.44025 1.4365,-2.44025 0.6387,0 1.2125,0.98573 1.36,2.959 0.1159,1.55162 0.097,4.40819 -0.051,7.24972 -0.031,0.58383 0.1269,1.16148 1.655,1.73035 0.6577,0.24469 1.6136,0.60497 2.0896,-0.57224 1.3447,-3.32582 1.8709,-5.96625 1.9947,-7.03889 0.01,-0.0555 0.073,-0.0668 0.084,0.0629 0.079,0.8591 0.2552,2.42026 0.2771,5.70025 0.01,0.63996 0.1366,1.18469 0.826,1.63067 0.4473,0.28938 1.8055,0.80119 2.2946,0.19229 0.4238,-0.49797 0.9145,-1.8381 1.4244,-3.42666 0.4145,-1.29112 0.703,-2.16455 0.703,-2.16455 0,0 -0.01,3.48373 -0.011,4.80517 0,0.49851 0.3316,0.66463 0.4321,0.69475 0.453,0.1347 1.3453,0.35972 1.7242,0.35972 0.4673,0 0.5819,-0.26768 0.5819,-0.65771 0,-0.0511 0.073,-4.58667 0.073,-7.75816 l -0.043,-3.38613 c -0.032,-0.80643 -0.082,-1.46583 -0.1598,-1.67373 -0.047,-0.12714 -0.3266,-0.28674 -0.5294,-0.36382 -0.8975,-0.34102 -1.8129,-0.17976 -2.1515,-0.10961 -0.2346,0.0486 -0.4175,0.24151 -0.4426,0.73949 -0.066,1.30758 -0.025,3.50449 -0.4122,5.1372 -0.6494,2.74013 -1.2552,3.80303 -1.5425,4.32924 -0.1608,0.29483 -0.3423,0.34347 -0.3489,0.0314 -0.014,-0.63135 -0.044,-2.48536 -0.2957,-4.97632 -0.1848,-1.83201 -0.4316,-2.91485 -0.6213,-3.25755 -0.5413,-0.98004 -1.2098,-1.02645 -1.7543,-1.02645 -0.3463,0 -1.0705,0.0981 -1.0057,0.72172 0.032,0.304 -0.024,2.1827 -0.664,4.88223 -0.4181,1.76289 -1.1151,3.35577 -1.3665,3.93809 -0.093,0.21477 -0.1358,0.0455 -0.1343,0.0125 0.053,-1.21406 0.1717,-5.18509 -0.3109,-7.35692 -0.6543,-2.94216 -2.5472,-3.2714 -3.2068,-3.2714 -1.4081,0 -2.5598,1.09755 -2.9477,3.98543 -0.093,0.69499 0.046,1.23162 0.4595,1.23162"
       style="fill:#ff0000;display:inline"
       sodipodi:nodetypes="ccscccccccccccccsscccccccccccscccccscc" /><path
       id="path3556"
       d="m 1343.2279,-160.22897 c -0.081,1.52846 -0.3717,2.80617 -0.8387,3.7342 -0.8449,1.67956 -2.5165,2.21223 -3.2536,-0.21483 -0.5315,-1.75009 -0.3506,-4.13639 -0.1295,-5.42546 0.328,-1.91293 1.1496,-3.26915 2.4321,-3.14064 1.3175,0.13187 1.9578,1.86672 1.7897,5.04684 z m 5.7091,2.98042 c -0.2196,1.11231 -0.8511,2.27547 -1.5651,2.27547 -0.9128,0 -1.4323,-0.82726 -1.4323,-4.60816 0,-2.20569 0.065,-3.16478 0.097,-4.75989 0.018,-0.91885 0.054,-1.62466 0.052,-1.7846 -0.01,-0.49104 -0.8355,-0.73854 -1.221,-0.8302 -0.4035,-0.0956 -0.7518,-0.13076 -1.0192,-0.11056 -0.353,0.0269 -0.6011,0.35075 -0.6011,0.59226 l 0,0.55652 c -0.4792,-0.77166 -1.25,-1.30871 -1.7629,-1.46436 -1.3812,-0.42014 -2.8145,-0.0417 -3.9097,1.51093 -0.7142,1.0124 -1.2924,2.1348 -1.5899,4.61939 -0.086,0.71803 -0.1241,1.39037 -0.1192,2.01882 -0.2847,1.78466 -1.5426,3.84158 -2.5715,3.84158 l -0.5744,2.16347 c 1.3953,0 2.7943,-1.84807 3.4062,-3.66611 0.1756,0.74109 0.4355,1.38554 0.7713,1.93051 1.6082,2.61088 4.728,2.04893 6.2951,-0.16813 0.4846,-0.68506 0.5583,-0.93122 0.5583,-0.93122 0.2286,2.09344 1.8739,2.82487 2.8159,2.82487 1.055,0 2.1444,-0.51107 2.9079,-2.27229 z"
       style="fill:#ff0000;display:inline"
       sodipodi:nodetypes="ccscccccssccccscccccccccccscc" /><path
       id="path3558"
       d="m 1269.1024,-155.94297 c 0.7101,2.04892 2.3111,2.70814 3.2603,2.70814 1.111,0 2.1739,-0.85977 2.7435,-2.13647 l -0.5227,-1.61193 c -0.3218,1.42585 -0.9194,2.01001 -1.5737,2.01001 -0.9499,0 -1.6385,-1.58865 -1.5586,-4.33618 0.053,-1.80714 0.4057,-3.07534 0.7914,-4.91009 0.1646,-0.78212 0.031,-1.1916 -0.3043,-1.58407 -0.3074,-0.35991 -0.9624,-0.54379 -1.9042,-0.31762 -2.4732,1.36251 -1.8254,7.34137 -0.9317,10.17821 z"
       style="fill:#ff0000;display:inline"
       sodipodi:nodetypes="csccsccccc" /><path
       id="path3562"
       d="m 1312.2279,-160.22897 c -0.081,1.52846 -0.3717,2.80617 -0.8387,3.7342 -0.8449,1.67956 -2.5165,2.21223 -3.2536,-0.21483 -0.5315,-1.75009 -0.3506,-4.13639 -0.1295,-5.42546 0.328,-1.91293 1.1496,-3.26915 2.4321,-3.14064 1.3175,0.13187 1.9578,1.86672 1.7897,5.04684 z m 5.7091,2.98042 c -0.2196,1.11231 -0.8511,2.27547 -1.5651,2.27547 -0.9128,0 -1.4323,-0.82726 -1.4323,-4.60816 0,-2.20569 0.065,-3.16478 0.097,-4.75989 0.018,-0.91885 0.054,-1.62466 0.052,-1.7846 -0.01,-0.49104 -0.8355,-0.73854 -1.221,-0.8302 -0.4035,-0.0956 -0.7518,-0.13076 -1.0192,-0.11056 -0.353,0.0269 -0.6011,0.35075 -0.6011,0.59226 l 0,0.55652 c -0.4792,-0.77166 -1.25,-1.30871 -1.7629,-1.46436 -1.3812,-0.42014 -2.8145,-0.0417 -3.9097,1.51093 -0.7142,1.0124 -1.2924,2.1348 -1.5899,4.61939 -0.086,0.71803 -0.1241,1.39037 -0.1192,2.01882 -0.2847,1.78466 -1.5426,3.84158 -2.5715,3.84158 -0.6021,0 -1.1755,-1.19664 -1.1755,-3.74693 0,-3.39711 0.2052,-8.23387 0.2399,-8.70002 0,0 1.3,-0.0227 1.5517,-0.0257 0.6485,-0.007 1.2358,0.009 2.0995,-0.0369 0.4333,-0.0227 0.8506,-1.61569 0.4035,-1.81285 -0.2027,-0.0892 -1.6348,-0.16742 -2.2026,-0.17976 -0.4774,-0.0111 -1.8065,-0.11187 -1.8065,-0.11187 0,0 0.1192,-3.21042 0.1469,-3.54957 0.024,-0.28266 -0.3333,-0.42819 -0.5379,-0.51649 -0.4978,-0.21569 -0.943,-0.31895 -1.4708,-0.43044 -0.7292,-0.15413 -1.0599,-0.004 -1.1246,0.62723 -0.097,0.95703 -0.1477,3.76021 -0.1477,3.76021 -0.5351,0 -2.363,-0.10718 -2.8983,-0.10718 -0.4972,0 -1.0339,2.19146 -0.3464,2.21839 0.7911,0.0315 2.1696,0.0586 3.0835,0.0868 0,0 -0.04,4.91644 -0.04,6.43428 0,0.16149 0,0.317 0,0.46789 -0.503,2.68626 -2.2746,4.13732 -2.2746,4.13732 0.3804,-1.77712 -0.3968,-3.11165 -1.7966,-4.24133 -0.5158,-0.41629 -1.534,-1.20439 -2.6732,-2.06801 0,0 0.6598,-0.66632 1.245,-2.00683 0.4145,-0.94955 0.4324,-2.03622 -0.5852,-2.27584 -1.6814,-0.3962 -3.0678,0.8691 -3.4813,2.2199 -0.3204,1.04644 -0.1495,1.82295 0.4782,2.62958 0.045,0.0589 0.095,0.11916 0.1468,0.17977 -0.3796,0.7496 -0.9011,1.75883 -1.3426,2.54147 -1.2258,2.17295 -2.1518,3.8917 -2.8515,3.8917 -0.5594,0 -0.5519,-1.74498 -0.5519,-3.37877 0,-1.40846 0.1015,-3.52599 0.1826,-5.7184 0.027,-0.72507 -0.3271,-1.13811 -0.9202,-1.51224 -0.3603,-0.22728 -1.1295,-0.67417 -1.575,-0.67417 -0.6667,0 -2.5904,0.0929 -4.408,5.48026 -0.2291,0.67902 -0.6791,1.9163 -0.6791,1.9163 l 0.039,-6.47846 c 0,-0.15189 -0.079,-0.29874 -0.2597,-0.39919 -0.3063,-0.17042 -1.1244,-0.51891 -1.8518,-0.51891 -0.3465,0 -0.5196,0.16517 -0.5196,0.4944 l -0.063,10.13559 c 0,0.77011 0.019,1.66852 0.094,2.06146 0.074,0.39343 0.1939,0.71349 0.3426,0.90391 0.1482,0.19005 0.3198,0.33504 0.6027,0.39488 0.2633,0.0555 1.7051,0.24524 1.78,-0.31932 0.09,-0.67658 0.093,-1.40839 0.8503,-4.1377 1.1787,-4.2492 2.7153,-6.32244 3.4378,-7.05874 0.1263,-0.12868 0.2704,-0.13637 0.2635,0.0743 -0.031,0.93159 -0.1393,3.25944 -0.2123,5.23709 -0.1957,5.29246 0.744,6.27343 2.0867,6.27343 1.0273,0 2.4755,-1.0459 4.0278,-3.69342 0.9677,-1.64989 1.9074,-3.26766 2.5825,-4.43364 0.4705,0.44626 0.9985,0.92657 1.5261,1.43967 1.2261,1.1924 1.6287,2.32542 1.3616,3.40029 -0.2044,0.82171 -0.9737,1.66852 -2.3429,0.84545 -0.3991,-0.24012 -0.5694,-0.42565 -0.9707,-0.69637 -0.2156,-0.14543 -0.5448,-0.18891 -0.7421,-0.0366 -0.5127,0.39605 -0.8058,0.89982 -0.9733,1.52349 -0.1628,0.60687 0.4303,0.92767 1.0453,1.20827 0.5294,0.24149 1.6673,0.46034 2.393,0.48525 2.8275,0.0969 5.0926,-1.39889 6.6694,-5.25728 0.2822,3.33219 1.4835,5.21782 3.5706,5.21782 1.3953,0 2.7943,-1.84807 3.4062,-3.66611 0.1756,0.74109 0.4355,1.38554 0.7713,1.93051 1.6082,2.61088 4.728,2.04893 6.2951,-0.16813 0.4846,-0.68506 0.5583,-0.93122 0.5583,-0.93122 0.2286,2.09344 1.8739,2.82487 2.8159,2.82487 1.055,0 2.1444,-0.51107 2.9079,-2.27229 z"
       style="fill:#ff0000;display:inline"
       sodipodi:nodetypes="ccscccccssccccscccccsscccccccccccsccscccccccccssscssccccsccccccccccsccsccccccccsccccscc" /><path
       style="fill:#ff0000;display:inline"
       d="m 1101.3904,-110.43658 c -0.9762,4.27819 3.0861,6.0873 3.4192,5.49412 0.3922,-0.697 -0.7278,-0.93271 -0.9584,-3.15243 -0.298,-2.86695 2.7978,-3.75361 4.6399,-4.47606 0.3043,-0.26114 0.2898,0.10233 0.2898,0.77465 0,1.20225 -0.065,11.99499 -0.065,14.24745 0,3.04785 -0.1228,4.0103 -0.3434,4.96134 -0.2236,0.96377 -0.583,1.61499 -0.3107,1.86583 0.3043,0.2806 1.6035,-0.38683 2.3556,-1.46245 0.902,-1.29003 1.2176,-2.83929 1.2744,-4.52176 0.068,-2.02816 0.066,-5.24642 0.068,-7.08211 0.01,-1.68359 0.027,-6.61349 -0.029,-9.57718 -0.014,-0.72693 -1.9052,-1.20038 -2.9095,-1.09052 -2.4586,0.26895 -6.6601,0.6426 -7.4309,4.01912 z"
       id="path3576"
       sodipodi:nodetypes="ccccssccscccsc" /><path
       style="color:#000000;fill:#ff0000;fill-opacity:1;fill-rule:nonzero;stroke:none;stroke-width:4;marker:none;visibility:visible;display:inline;overflow:visible;enable-background:accumulate"
       d="m 1106.0245,-104.62768 9.2909,0 -1,2.27915 -9.2909,0 z"
       id="rect3578"
       sodipodi:nodetypes="ccccc" /><path
       sodipodi:nodetypes="ccccssccscccsc"
       id="path3581"
       d="m 1253.3904,-172.43658 c -0.9762,4.27819 3.0861,6.0873 3.4192,5.49412 0.3922,-0.697 -0.7278,-0.93271 -0.9584,-3.15243 -0.298,-2.86695 2.7978,-3.75361 4.6399,-4.47606 0.3043,-0.26114 0.2898,0.10233 0.2898,0.77465 0,1.20225 -0.065,11.99499 -0.065,14.24745 0,3.04785 -0.1228,4.0103 -0.3434,4.96134 -0.2236,0.96377 -0.583,1.61499 -0.3107,1.86583 0.3043,0.2806 1.6035,-0.38683 2.3556,-1.46245 0.902,-1.29003 1.2176,-2.83929 1.2744,-4.52176 0.068,-2.02816 0.066,-5.24642 0.068,-7.08211 0.01,-1.68359 0.027,-6.61349 -0.029,-9.57718 -0.014,-0.72693 -1.9052,-1.20038 -2.9095,-1.09052 -2.4586,0.26895 -6.6601,0.6426 -7.4309,4.01912 z"
       style="fill:#ff0000;display:inline" /><path
       sodipodi:nodetypes="ccccc"
       id="path3583"
       d="m 1258.0245,-164.62768 9.2909,0 -1,2.27915 -9.2909,0 z"
       style="color:#000000;fill:#ff0000;fill-opacity:1;fill-rule:nonzero;stroke:none;stroke-width:4;marker:none;visibility:visible;display:inline;overflow:visible;enable-background:accumulate" /><path
       style="color:#000000;fill:#ff0000;fill-opacity:1;fill-rule:nonzero;stroke:none;stroke-width:4;marker:none;visibility:visible;display:inline;overflow:visible;enable-background:accumulate"
       d="m 1272.9347,-171.44414 c 0,1.0831 -0.878,1.96112 -1.9611,1.96112 -1.0831,0 -1.9611,-0.87802 -1.9611,-1.96112 0,-1.08309 0.878,-1.96111 1.9611,-1.96111 1.0831,0 1.9611,0.87802 1.9611,1.96111 z"
       id="path3585" /><path
       style="color:#000000;fill:#ff0000;fill-opacity:1;fill-rule:nonzero;stroke:none;stroke-width:4;marker:none;visibility:visible;display:inline;overflow:visible;enable-background:accumulate"
       d="m 1259.9228,-176.35601 c 6.0139,-0.80255 10.3926,0.72833 10.3926,0.72833 l -2,2.27915 c 0,0 -6.3163,-2.01966 -10.2909,-1 z"
       id="path3588"
       sodipodi:nodetypes="ccccc" /><path
       sodipodi:nodetypes="cssccccccccccscc"
       style="fill:#ff0000;display:inline"
       d="m 1213.2324,408.23078 c -0.3239,2.03047 -1.755,4.3707 -2.9256,4.3707 -0.6851,0 -1.3374,-1.36146 -1.3374,-4.26301 0,-3.86501 0.2334,-9.36796 0.2729,-9.89832 l 0.052,-2.46556 c 0,0 0.1357,-3.65261 0.1672,-4.03847 0.027,-0.32159 -0.3792,-0.48717 -0.612,-0.58763 -0.5664,-0.2454 -1.0729,-0.36288 -1.6734,-0.48972 -0.8296,-0.17536 -1.2059,-0.005 -1.2795,0.71362 -0.1104,1.08884 -0.168,4.27812 -0.168,4.27812 l -0.1834,2.50075 c 0,0 -0.046,5.5936 -0.046,7.3205 l 0.091,3.45468 c 0.321,3.79115 1.6878,5.93649 4.0624,5.93649 1.5874,0 3.1791,-2.10261 3.8753,-4.17106 z"
       id="path3610" /><path
       sodipodi:nodetypes="ccccccccssccccscccccccccccscc"
       style="fill:#ff0000;display:inline"
       d="m 1219.8169,407.14013 c -0.082,1.80277 -0.4709,3.21184 -0.9541,4.20575 -0.9358,1.92415 -2.8775,2.52163 -3.702,-0.2444 -0.4493,-1.50777 -0.4702,-4.0259 -0.1472,-6.12995 0.3289,-2.14342 1.2468,-3.76221 2.7671,-3.61622 1.4995,0.14431 2.2014,2.12406 2.0362,5.78476 z m 6.9118,2.02737 c -0.2941,1.65842 -1.2479,3.9097 -2.2852,3.9097 -1.0386,0 -1.5285,-0.94119 -1.5285,-5.24288 0,-2.50947 0.074,-3.60066 0.1092,-5.41568 0.021,-1.04542 1.1992,-12.08784 1.1969,-12.27001 -0.011,-0.55869 -2.0882,-1.978 -2.527,-2.08206 -0.4407,-0.1049 -0.8238,0.99214 -1.1228,1.00959 -0.4234,0.0245 -0.7228,10.54866 -0.7228,10.94005 0,0.20985 0,0.6089 0,0.6089 -0.5452,-0.87792 -1.4222,-1.48896 -2.0057,-1.66603 -1.5715,-0.47821 -3.2114,-0.0545 -4.4483,1.71903 -0.9832,1.40916 -1.5757,3.00517 -1.8089,5.29821 -0.1706,1.67639 -0.1149,3.37636 0.1882,4.81402 -0.3662,1.62224 -1.0461,2.28686 -1.7905,2.28686 l -0.7361,1.97782 c 1.264,0 2.4733,-0.97819 3.1214,-2.43073 0.077,0.16193 0.1597,0.31864 0.2488,0.46331 1.8298,2.97047 5.3669,2.32729 7.1623,-0.19129 0.4053,-0.56823 0.6352,-1.05949 0.6352,-1.05949 0.3853,2.465 2.2562,3.2265 3.3277,3.2265 1.1162,0 2.1756,-0.46888 3.035,-2.55269 z"
       id="path3612" /><path
       sodipodi:nodetypes="ccscccccccccccccsscccccccccccscccccscc"
       style="fill:#ff0000;display:inline"
       d="m 1169.2504,405.0025 c 0.3664,0 0.5336,-0.38698 0.6719,-1.0384 0.4798,-2.26493 0.9841,-2.77635 1.6344,-2.77635 0.7266,0 1.3795,1.1215 1.5473,3.36655 0.1318,1.76533 0.1103,5.01535 -0.058,8.24826 -0.035,0.66424 0.1443,1.32146 1.8829,1.96868 0.7483,0.27839 1.8359,0.68829 2.3774,-0.65106 1.5299,-3.7839 2.1286,-6.78801 2.2695,-8.00839 0.011,-0.0631 0.083,-0.076 0.095,0.0716 0.09,0.97742 0.2904,2.75361 0.3153,6.48537 0.011,0.7281 0.1554,1.34786 0.9398,1.85527 0.5089,0.32924 2.0541,0.91154 2.6106,0.21877 0.4822,-0.56655 1.0405,-2.09127 1.6206,-3.89863 0.4716,-1.46895 0.7998,-2.46268 0.7998,-2.46268 0,0 -0.011,3.96356 -0.013,5.46701 0,0.56717 0.3773,0.75617 0.4916,0.79044 0.5154,0.15325 1.5306,0.40927 1.9617,0.40927 0.5317,0 0.6621,-0.30455 0.6621,-0.7483 0,-0.0581 0.083,-5.21842 0.083,-8.82673 l -0.049,-3.85252 c -0.036,-0.9175 -0.093,-1.66772 -0.1818,-1.90426 -0.053,-0.14465 -0.3716,-0.32623 -0.6023,-0.41393 -1.0212,-0.38799 -2.0626,-0.20452 -2.4479,-0.12471 -0.2669,0.0553 -0.475,0.27478 -0.5035,0.84135 -0.075,1.48768 -0.028,3.98718 -0.469,5.84477 -0.7389,3.11754 -1.4281,4.32684 -1.755,4.92552 -0.1829,0.33544 -0.3894,0.39078 -0.3969,0.0357 -0.016,-0.71831 -0.05,-2.82768 -0.3365,-5.66173 -0.2102,-2.08434 -0.491,-3.31633 -0.7068,-3.70623 -0.6159,-1.11503 -1.3765,-1.16783 -1.996,-1.16783 -0.394,0 -1.2179,0.11161 -1.1442,0.82113 0.036,0.34587 -0.027,2.48333 -0.7554,5.55468 -0.4757,2.0057 -1.2687,3.81797 -1.5547,4.4805 -0.1059,0.24435 -0.1545,0.0518 -0.1528,0.0142 0.06,-1.38128 0.1953,-5.89925 -0.3538,-8.37022 -0.7444,-3.3474 -2.898,-3.72199 -3.6485,-3.72199 -1.602,0 -2.9123,1.24873 -3.3537,4.53437 -0.1058,0.79071 0.052,1.40125 0.5228,1.40125"
       id="path3614" /><path
       sodipodi:nodetypes="ccscccccssccccscccccccccccscc"
       style="fill:#ff0000;display:inline"
       d="m 1199.9918,407.09755 c -0.092,1.73898 -0.4229,3.19268 -0.9542,4.24853 -0.9613,1.91089 -2.8631,2.51693 -3.7017,-0.24442 -0.6047,-1.99114 -0.3989,-4.70612 -0.1474,-6.17274 0.3732,-2.1764 1.308,-3.71942 2.7671,-3.57321 1.499,0.15003 2.2275,2.12383 2.0362,5.74196 z m 6.4955,3.39093 c -0.2499,1.26551 -0.9684,2.58888 -1.7807,2.58888 -1.0385,0 -1.6296,-0.94121 -1.6296,-5.24287 0,-2.50949 0.074,-3.60068 0.1104,-5.41549 0.021,-1.0454 0.061,-1.84843 0.059,-2.0304 -0.011,-0.55867 -0.9506,-0.84026 -1.3892,-0.94455 -0.4591,-0.10876 -0.8554,-0.14877 -1.1596,-0.12578 -0.4016,0.0306 -0.6839,0.39906 -0.6839,0.67383 l 0,0.63317 c -0.5452,-0.87794 -1.4222,-1.48896 -2.0057,-1.66605 -1.5714,-0.47801 -3.2022,-0.0474 -4.4482,1.71904 -0.8126,1.15184 -1.4704,2.42883 -1.8089,5.25564 -0.098,0.81692 -0.1412,1.58187 -0.1356,2.29688 -0.3239,2.03047 -1.7551,4.3707 -2.9257,4.3707 l -0.6535,2.46145 c 1.5875,0 3.1792,-2.10261 3.8753,-4.17106 0.1998,0.84317 0.4955,1.57638 0.8776,2.19641 1.8297,2.97049 5.3792,2.33114 7.1621,-0.19129 0.5514,-0.77941 0.6352,-1.05948 0.6352,-1.05948 0.2601,2.38178 2.132,3.21395 3.2038,3.21395 1.2003,0 2.4397,-0.58146 3.3084,-2.58526 z"
       id="path3616" /><path
       sodipodi:nodetypes="csccsccccc"
       style="fill:#ff0000;display:inline"
       d="m 1115.6567,411.97388 c 0.8079,2.33113 2.6294,3.08114 3.7093,3.08114 1.2641,0 2.4734,-0.97819 3.1214,-2.43073 l -0.5947,-1.83395 c -0.3661,1.62224 -1.046,2.28686 -1.7904,2.28686 -1.0808,0 -1.8642,-1.80746 -1.7733,-4.93342 0.06,-2.05605 0.4616,-3.49892 0.9004,-5.58638 0.1873,-0.88985 0.035,-1.35573 -0.3462,-1.80225 -0.3497,-0.40949 -1.095,-0.61869 -2.1665,-0.36137 -2.8138,1.55017 -2.0768,8.35253 -1.06,11.5801 z"
       id="path3618" /><path
       sodipodi:nodetypes="ccscccccssccccscccccsscccccccccccsccscccccccccssscssccccsccccccccccsccsccccccccsccccscc"
       style="fill:#ff0000;display:inline"
       d="m 1164.7221,407.09755 c -0.092,1.73898 -0.4229,3.19268 -0.9543,4.24853 -0.9612,1.91089 -2.8631,2.51693 -3.7017,-0.24442 -0.6047,-1.99114 -0.3989,-4.70612 -0.1473,-6.17274 0.3732,-2.1764 1.3079,-3.71942 2.7671,-3.57321 1.4989,0.15003 2.2274,2.12383 2.0362,5.74196 z m 6.4954,3.39093 c -0.2498,1.26551 -0.9683,2.58888 -1.7807,2.58888 -1.0385,0 -1.6295,-0.94121 -1.6295,-5.24287 0,-2.50949 0.074,-3.60068 0.1103,-5.41549 0.021,-1.0454 0.062,-1.84843 0.059,-2.0304 -0.011,-0.55867 -0.9506,-0.84026 -1.3892,-0.94455 -0.4591,-0.10876 -0.8553,-0.14877 -1.1596,-0.12578 -0.4016,0.0306 -0.6839,0.39906 -0.6839,0.67383 l 0,0.63317 c -0.5452,-0.87794 -1.4221,-1.48896 -2.0057,-1.66605 -1.5714,-0.47801 -3.2021,-0.0474 -4.4482,1.71904 -0.8125,1.15184 -1.4704,2.42883 -1.8089,5.25564 -0.098,0.81692 -0.1412,1.58187 -0.1356,2.29688 -0.3239,2.03047 -1.7551,4.3707 -2.9257,4.3707 -0.685,0 -1.3374,-1.36146 -1.3374,-4.26301 0,-3.86501 0.2335,-9.36796 0.273,-9.89832 0,0 1.479,-0.0258 1.7654,-0.0292 0.7378,-0.008 1.406,0.0102 2.3887,-0.042 0.4929,-0.0258 0.9677,-1.83823 0.459,-2.06254 -0.2306,-0.10149 -1.8599,-0.19048 -2.5059,-0.20452 -0.5432,-0.0126 -2.0553,-0.12728 -2.0553,-0.12728 0,0 0.1356,-3.65261 0.1671,-4.03847 0.027,-0.32159 -0.3792,-0.48717 -0.612,-0.58763 -0.5664,-0.2454 -1.0729,-0.36288 -1.6734,-0.48972 -0.8296,-0.17536 -1.2059,-0.005 -1.2795,0.71362 -0.1103,1.08884 -0.168,4.27812 -0.168,4.27812 -0.6088,0 -2.6885,-0.12194 -3.2975,-0.12194 -0.5657,0 -1.1763,2.4933 -0.3941,2.52394 0.9,0.0358 2.4684,0.0667 3.5082,0.0987 0,0 -0.045,5.5936 -0.045,7.3205 0,0.18374 0,0.36067 0,0.53234 -0.5723,3.05625 -2.5879,4.70717 -2.5879,4.70717 0.4328,-2.02189 -0.4515,-3.54023 -2.0441,-4.82551 -0.5868,-0.47363 -1.7453,-1.37027 -3.0414,-2.35284 0,0 0.7507,-0.7581 1.4165,-2.28324 0.4716,-1.08034 0.492,-2.31668 -0.6658,-2.58931 -1.913,-0.45077 -3.4903,0.98881 -3.9608,2.52566 -0.3645,1.19057 -0.1701,2.07403 0.5441,2.99176 0.051,0.067 0.1081,0.13558 0.167,0.20454 -0.4319,0.85284 -1.0252,2.00108 -1.5275,2.89151 -1.3947,2.47224 -2.4482,4.42773 -3.2443,4.42773 -0.6364,0 -0.6279,-1.98533 -0.6279,-3.84415 0,-1.60245 0.1155,-4.01164 0.2078,-6.50602 0.031,-0.82494 -0.3722,-1.29487 -1.047,-1.72053 -0.4099,-0.25858 -1.2851,-0.76702 -1.7919,-0.76702 -0.7585,0 -2.9472,0.10569 -5.0152,6.23508 -0.2606,0.77254 -0.7726,2.18024 -0.7726,2.18024 l 0.044,-7.37077 c 0,-0.17281 -0.09,-0.33989 -0.2955,-0.45417 -0.3485,-0.19389 -1.2793,-0.59038 -2.1068,-0.59038 -0.3943,0 -0.5912,0.18792 -0.5912,0.56249 l -0.072,11.53161 c 0,0.87618 0.022,1.89834 0.107,2.3454 0.084,0.44762 0.2206,0.81176 0.3897,1.02841 0.1687,0.21622 0.3639,0.38118 0.6858,0.44927 0.2995,0.0631 1.9399,0.27901 2.0251,-0.36331 0.1024,-0.76976 0.1058,-1.60237 0.9674,-4.7076 1.3411,-4.83446 3.0893,-7.19326 3.9113,-8.03097 0.1437,-0.14641 0.3077,-0.15516 0.2998,0.0845 -0.035,1.0599 -0.1584,3.70838 -0.2415,5.95842 -0.2227,6.02141 0.8465,7.1375 2.3741,7.1375 1.1688,0 2.8165,-1.18996 4.5826,-4.20213 1.101,-1.87714 2.1701,-3.71773 2.9382,-5.04431 0.5353,0.50773 1.136,1.05419 1.7363,1.63796 1.3949,1.35664 1.853,2.64571 1.5491,3.86863 -0.2325,0.93489 -1.1078,1.89833 -2.6656,0.9619 -0.4541,-0.27319 -0.6478,-0.48428 -1.1044,-0.79229 -0.2453,-0.16546 -0.6198,-0.21493 -0.8443,-0.0416 -0.5833,0.4506 -0.9168,1.02376 -1.1074,1.73333 -0.1852,0.69046 0.4896,1.05544 1.1893,1.37469 0.6023,0.27475 1.897,0.52375 2.7226,0.55209 3.217,0.11024 5.794,-1.59157 7.588,-5.98139 0.3211,3.79115 1.6879,5.93649 4.0624,5.93649 1.5875,0 3.1792,-2.10261 3.8754,-4.17106 0.1998,0.84317 0.4955,1.57638 0.8775,2.19641 1.8297,2.97049 5.3792,2.33114 7.1622,-0.19129 0.5513,-0.77941 0.6352,-1.05948 0.6352,-1.05948 0.26,2.38178 2.132,3.21395 3.2037,3.21395 1.2003,0 2.4398,-0.58146 3.3084,-2.58526 z"
       id="path3620" /><path
       style="fill:#ff0000;display:inline"
       d="m 1097.7806,393.20853 c -1.1107,4.86744 3.5112,6.92573 3.8901,6.25085 0.4463,-0.793 -0.828,-1.06118 -1.0904,-3.58663 -0.339,-3.26183 3.1832,-4.27061 5.279,-5.09257 0.3462,-0.29711 0.3297,0.11643 0.3297,0.88135 0,1.36784 -0.074,13.64711 -0.074,16.20982 0,3.46764 -0.1397,4.56265 -0.3907,5.64468 -0.2544,1.09652 -0.6633,1.83743 -0.3535,2.12282 0.3462,0.31925 1.8243,-0.44011 2.68,-1.66388 1.0263,-1.46771 1.3853,-3.23036 1.45,-5.14456 0.077,-2.30751 0.075,-5.96903 0.077,-8.05756 0.011,-1.91548 0.031,-7.5244 -0.033,-10.89629 -0.016,-0.82705 -2.1676,-1.36571 -3.3102,-1.24072 -2.7972,0.30599 -7.5774,0.73111 -8.4544,4.57269 z"
       id="path3622"
       sodipodi:nodetypes="ccccssccscccsc" /><path
       style="color:#000000;fill:#ff0000;fill-opacity:1;fill-rule:nonzero;stroke:none;stroke-width:4;marker:none;visibility:visible;display:inline;overflow:visible;enable-background:accumulate"
       d="m 1103.053,402.09299 10.5706,0 -1.1378,2.59306 -10.5706,0 z"
       id="path3624"
       sodipodi:nodetypes="ccccc" /><path
       id="path3626"
       d="m 1120.0168,394.33766 c 0,1.23228 -0.9989,2.23124 -2.2312,2.23124 -1.2323,0 -2.2312,-0.99896 -2.2312,-2.23124 0,-1.23227 0.9989,-2.23122 2.2312,-2.23122 1.2323,0 2.2312,0.99895 2.2312,2.23122 z"
       style="color:#000000;fill:#ff0000;fill-opacity:1;fill-rule:nonzero;stroke:none;stroke-width:4;marker:none;visibility:visible;display:inline;overflow:visible;enable-background:accumulate" /><path
       sodipodi:nodetypes="ccccc"
       id="path3628"
       d="m 1105.2127,388.74926 c 6.8423,-0.91309 11.8241,0.82864 11.8241,0.82864 l -2.2755,2.59307 c 0,0 -7.1863,-2.29783 -11.7083,-1.13773 z"
       style="color:#000000;fill:#ff0000;fill-opacity:1;fill-rule:nonzero;stroke:none;stroke-width:4;marker:none;visibility:visible;display:inline;overflow:visible;enable-background:accumulate" /></g></svg>