<?xml version="1.0" encoding="UTF-8" standalone="no"?>
<!-- CLEANED: 1565690319/17bd35e1975381a8519ad195a4639a8f -->

<!-- Created with Inkscape (http://www.inkscape.org/) -->

<svg
   xmlns:dc="http://purl.org/dc/elements/1.1/"
   xmlns:cc="http://creativecommons.org/ns#"
   xmlns:rdf="http://www.w3.org/1999/02/22-rdf-syntax-ns#"
   xmlns:svg="http://www.w3.org/2000/svg"
   xmlns="http://www.w3.org/2000/svg"
   xmlns:sodipodi="http://sodipodi.sourceforge.net/DTD/sodipodi-0.dtd"
   xmlns:inkscape="http://www.inkscape.org/namespaces/inkscape"
   style="display:inline"
   sodipodi:docname="191128_PPigeon.svg"
   inkscape:version="0.48.3.1 r9886"
   version="1.1"
   id="svg2902"
   height="400"
   width="400">
  <sodipodi:namedview
     id="base"
     pagecolor="#f0f0f0"
     bordercolor="#666666"
     borderopacity="1.0"
     inkscape:pageopacity="1"
     inkscape:pageshadow="2"
     inkscape:document-units="px"
     showgrid="false"
     showguides="false"
     inkscape:guide-bbox="true"
     inkscape:snap-bbox="true"
     inkscape:snap-global="false"
     inkscape:zoom="1.393000556"
     inkscape:cx="200.0370709"
     inkscape:cy="206.2158221"
     inkscape:current-layer="layer9">
    <sodipodi:guide
       position="67,370"
       orientation="11,0"
       id="guide5010" />
    <sodipodi:guide
       position="333,370"
       orientation="11,0"
       id="guide5012" />
    <sodipodi:guide
       position="370,333"
       orientation="0,-11"
       id="guide5014" />
    <sodipodi:guide
       position="370,67"
       orientation="0,-11"
       id="guide5016" />
    <sodipodi:guide
       position="67,30"
       orientation="-11,0"
       id="guide5018" />
    <sodipodi:guide
       position="333,30"
       orientation="-11,0"
       id="guide5020" />
    <sodipodi:guide
       position="30,333"
       orientation="0,11"
       id="guide5022" />
    <sodipodi:guide
       position="30,67"
       orientation="0,11"
       id="guide5024" />
  </sodipodi:namedview>
  <defs
     id="defs2904" />
  <metadata
     id="metadata2907">
    <rdf:RDF>
      <cc:Work
         rdf:about="">
        <dc:format>image/svg+xml</dc:format>
        <dc:type
           rdf:resource="http://purl.org/dc/dcmitype/StillImage" />
        <dc:title />
      </cc:Work>
    </rdf:RDF>
  </metadata>
  <g
     inkscape:groupmode="layer"
     id="bg"
     inkscape:label="XX_BG"
     sodipodi:insensitive="true">
    <path
       style="fill:#ffd5e5"
       d="M 400,0 400,400 0,400 0,0 z"
       id="bgrect" />
  </g>
  <g
     inkscape:label="XX_REFERENZ"
     inkscape:groupmode="layer"
     id="XX_referenz"
     style="display:inline"
     sodipodi:insensitive="true">
    <path
       style="fill:none;stroke:#000000;stroke-width:1px;stroke-linecap:butt"
       d="m 67,30 0,11"
       id="C-top-1"
       sodipodi:nodetypes="cc"
       inkscape:connector-curvature="0" />
    <path
       style="fill:none;stroke:#000000;stroke-width:1px;stroke-linecap:butt"
       d="m 333,30 0,11"
       id="C-top-4"
       sodipodi:nodetypes="cc"
       inkscape:connector-curvature="0" />
    <path
       style="fill:none;stroke:#000000;stroke-width:1px;stroke-linecap:butt"
       d="m 370,67 -11,0"
       id="C-right-1"
       sodipodi:nodetypes="cc"
       inkscape:connector-curvature="0" />
    <path
       style="fill:none;stroke:#000000;stroke-width:1px;stroke-linecap:butt"
       d="m 370,333 -11,0"
       id="C-right-4"
       sodipodi:nodetypes="cc"
       inkscape:connector-curvature="0" />
    <path
       style="fill:none;stroke:#000000;stroke-width:1px;stroke-linecap:butt"
       d="m 67,370 0,-11"
       id="C-bottom-1"
       sodipodi:nodetypes="cc"
       inkscape:connector-curvature="0" />
    <path
       style="fill:none;stroke:#000000;stroke-width:1px;stroke-linecap:butt"
       d="m 333,370 0,-11"
       id="C-bottom-4"
       sodipodi:nodetypes="cc"
       inkscape:connector-curvature="0" />
    <path
       style="fill:none;stroke:#000000;stroke-width:1px;stroke-linecap:butt"
       d="m 30,67 11,0"
       id="C-left-1"
       sodipodi:nodetypes="cc"
       inkscape:connector-curvature="0" />
    <path
       style="fill:none;stroke:#000000;stroke-width:1px;stroke-linecap:butt"
       d="m 30,333 11,0"
       id="C-left-4"
       sodipodi:nodetypes="cc"
       inkscape:connector-curvature="0" />
  </g>
  <g
     inkscape:groupmode="layer"
     id="layer1"
     inkscape:label="XX_PXREF"
     style="display:none"
     sodipodi:insensitive="true">
    <path
       style="fill:#cccccc"
       d="m -742,-396 640,0 0,496 -640,0 z"
       id="pixref"
       inkscape:connector-curvature="0" />
  </g>
  <g
     inkscape:groupmode="layer"
     id="layer3"
     inkscape:label="XX_TRACE"
     style="display:none"
     sodipodi:insensitive="true">
    <path
       style="fill:none;stroke:#00ff00;stroke-width:1px;stroke-linecap:round;stroke-linejoin:round"
       d="m -178.2060842,-317.6366531 c 3.1580825,-4.2107767 2.6996571,-8.7693778 7.5192441,-6.9177045 6.6813274,2.5669493 14.4904881,-3.7139923 14.2865636,-9.7750173 -0.1821721,-5.4145039 -10.8277114,-4.9627012 -15.6400276,-1.5038489"
       id="path4154"
       inkscape:connector-curvature="0"
       sodipodi:nodetypes="cssc" />
    <path
       style="fill:none;stroke:#ff0000;stroke-width:1px;stroke-linecap:round;stroke-linejoin:round"
       d="m -299.2455723,-239.2451017 c 48.6643469,39.9661273 -19.7024458,-53.9555746 -163.6134831,-111.088297 -106.6272845,-42.331062 -276.5291966,-28.2707447 -122.2546173,12.7122437 2.5084441,0.6663673 3.1540356,1.9182999 0.1400571,2.2766538 -86.8570585,10.3270689 -66.6368871,30.913524 9.1262291,35.8034996 4.4849123,0.2894695 4.838681,3.2365325 1.1146672,4.5743435 -93.0051891,33.4110918 -81.9937849,43.3581333 -19.5882834,39.8597863 2.1493858,-0.1204909 2.6412422,0.9525361 0.095616,3.0241518 -26.8489096,21.8494863 6.6680334,28.7440184 22.3858776,28.5358681 16.5580404,-0.2192768 12.5435635,9.416502 10.0830108,13.2367266 -18.9380245,29.4029493 4.5034357,46.5487483 89.2324994,24.4799722"
       id="path3304"
       inkscape:connector-curvature="0"
       sodipodi:nodetypes="csssssssssc" />
    <path
       style="fill:none;stroke:#ff0000;stroke-width:1px;stroke-linecap:round;stroke-linejoin:round"
       d="m -432.1479165,-231.7298033 c -13.0134028,41.4297421 -49.7470861,64.2403899 -120.1865435,82.3899263 -55.8915195,14.4010929 -106.1108861,22.1097646 -126.5583732,6.6731446 5.5890217,9.6238644 -2.7937773,47.45649535 55.4549621,34.8746897 5.7525379,-1.2425559 7.5592171,0.9511805 1.3150712,5.1754918 -40.1164686,27.13973297 -50.2990458,85.10040043 44.546061,16.4375027 0.9963741,-0.72132274 1.7716281,-0.0255954 0.917977,0.86003867 -58.0256116,60.19960647 -53.967922,100.06078566 5.0736636,31.97609785 1.5469863,-1.78393037 2.3109781,-1.3394036 1.3555792,0.57235315 -29.9407749,59.911604526 -7.8103192,97.80983735 79.4322858,-33.59842907"
       id="path3306"
       inkscape:connector-curvature="0"
       sodipodi:nodetypes="cscssssssc" />
    <path
       style="fill:none;stroke:#ff0000;stroke-width:1px;stroke-linecap:round;stroke-linejoin:round"
       d="m -452.0113702,-128.5176079 c -19.0427741,19.4556346 -6.4589214,18.1797387 -0.4572371,16.4598427 2.9757722,-0.8527638 2.8729769,0.2565576 1.5778353,1.3111929 -26.654768,21.70500723 -57.8856281,73.23446421 -9.0945733,44.45695212 2.4020438,-1.41675239 4.0363654,0.27224549 2.1762562,2.12270532 -40.8168053,40.60506617 -106.2562087,141.38318913 -24.836212,74.54732941 16.6919113,-13.702017781 33.7839495,-25.2738793 44.5389667,-31.78578737 0.8872299,-0.5371967 1.4754723,0.19704904 0.7308433,0.91904967 -134.9669114,130.86542775 18.814496,63.8977857 93.6035367,-13.02273913 34.46828,-35.45062436 47.4659615,-72.14054552 26.7508323,-124.35196962 -3.8789481,-9.7766902 -17.2565993,-41.0356876 -40.3783795,-36.7823383 -18.3455154,3.3747352 -6.7912603,23.4446589 6.0073667,38.7646358"
       id="path4076"
       inkscape:connector-curvature="0"
       sodipodi:nodetypes="cssssssssssc" />
    <path
       style="fill:none;stroke:#ff0000;stroke-width:1px;stroke-linecap:round;stroke-linejoin:round"
       d="m -370.2654437,-226.1842063 c 67.2263689,-28.1082484 63.4559692,-38.0072084 86.3434123,-66.1188292 32.1840292,-39.5302009 78.3316895,-11.3475371 104.8412566,-6.8432277 7.0244751,1.1935468 7.3136723,3.7044536 0.7543949,4.3384081 -31.59159,3.0533289 -30.4473756,49.5123463 -31.9554671,70.2557859 -7.1569643,98.4423423 -86.461996,166.30504758 -113.0286444,170.65610805"
       id="path4078"
       inkscape:connector-curvature="0"
       sodipodi:nodetypes="cssssc" />
    <path
       style="fill:none;stroke:#ff0000;stroke-width:1px;stroke-linecap:round;stroke-linejoin:round"
       d="m -178.3371054,-296.9131958 c -8.5226877,0.3441366 -17.3167108,1.4248286 -25.8198678,3.6109807"
       id="path4080"
       inkscape:connector-curvature="0"
       sodipodi:nodetypes="cc" />
    <path
       style="fill:none;stroke:#ff0000;stroke-width:1px;stroke-linecap:round;stroke-linejoin:round"
       d="m -222.8377959,-287.4783065 c -10.8370965,1.5239667 -13.5463706,-4.5719 -13.5463706,-4.5719 0,0 4.1796605,-6.9421141 7.6198335,-6.434526 5.4723588,0.8074316 5.9265371,11.006426 5.9265371,11.006426 z"
       id="path4082"
       inkscape:connector-curvature="0"
       sodipodi:nodetypes="ccsc" />
    <path
       style="fill:none;stroke:#ff0000;stroke-width:1px;stroke-linecap:round;stroke-linejoin:round"
       d="m -227.2655725,-291.4592255 c -0.2380399,0.9408975 -1.3871019,0.9593127 -2.2607412,0.7979155 -0.9788386,-0.1808318 -1.848227,-0.6218799 -1.848227,-1.5103025 0,-0.8884226 0.9296657,-1.4357127 1.9989202,-1.3754354 0.8870143,0.050004 2.3895372,0.9830889 2.110048,2.0878224 z"
       id="path4095"
       inkscape:connector-curvature="0"
       sodipodi:nodetypes="sssss" />
    <path
       style="fill:none;stroke:#00ff00;stroke-width:1px;stroke-linecap:round;stroke-linejoin:round"
       d="m -191.2831417,-293.766452 c 1.7366144,19.4055675 8.9188414,28.1549935 7.2752178,43.2215426"
       id="path4124"
       inkscape:connector-curvature="0"
       sodipodi:nodetypes="cc" />
    <path
       style="fill:none;stroke:#00ff00;stroke-width:1px;stroke-linecap:round;stroke-linejoin:round"
       d="m -182.545886,-307.7539401 c -1.3229849,-13.6509329 2.8235045,-16.0427668 -2.4320732,-29.7619745 -0.5878926,-1.5346402 -2.432919,-2.7012957 -2.2678079,0.26424 0.4082811,7.3330748 2.3922966,9.4688464 1.4676954,16.4033553 -24.0764142,-30.3897849 -24.1758475,-34.5905921 -23.4249116,-36.3477826 1.2460938,-2.9158602 9.2304097,12.9939458 9.2304097,12.9939458 2.0331194,4.0662389 3.035464,-2.793448 4.2580779,-1.8456645 1.3819996,1.071341 -2.3067795,8.0953895 0,9.2025405 1.4541831,0.6979429 1.969046,-2.4348961 3.5312075,-2.0331194 1.6195878,0.4165463 -0.1070064,6.2063645 3.2101885,8.7745154"
       id="path4137"
       inkscape:connector-curvature="0"
       sodipodi:nodetypes="csscscsssc" />
    <path
       style="fill:none;stroke:#00ff00;stroke-width:1px;stroke-linecap:round;stroke-linejoin:round"
       d="m -173.6039153,-364.7677267 c -7.6380295,6.0882844 -7.6922413,24.0460452 -7.6922413,24.0460452 -6.7524609,-19.4825101 1.0683308,-21.6233917 6.3817426,-38.0064115 0,0 -1.6052763,10.8500633 -0.3080662,24.6177044 0.4230972,4.4904449 -1.0741739,8.4908114 -3.1773995,1.074174"
       id="path4150"
       inkscape:connector-curvature="0"
       sodipodi:nodetypes="cccsc" />
    <path
       style="fill:none;stroke:#00ff00;stroke-width:1px;stroke-linecap:round;stroke-linejoin:round"
       d="m -180.9535162,-332.6124528 c 22.9757788,-18.8080794 23.8850919,-31.0852454 26.5940431,-30.2576516 1.2612135,0.385305 -5.7123211,23.0896238 -9.8895687,28.5229001 -1.5197239,1.9766796 -2.5249623,-1.4942411 0.4672321,-6.9443096"
       id="path4152"
       inkscape:connector-curvature="0"
       sodipodi:nodetypes="cssc" />
  </g>
  <g
     inkscape:groupmode="layer"
     id="layer2"
     inkscape:label="XX_DOODLE"
     style="display:none"
     sodipodi:insensitive="true">
    <path
       style="fill:none;stroke:#ffff00;stroke-width:1px;stroke-linecap:round;stroke-linejoin:round;display:inline"
       d="m 334.114234,131.2155221 c -0.4500702,0.4642328 -0.7931874,0.8905377 -2.5720954,1.0624103 -17.1355872,1.655588 -16.4190123,26.8467809 -17.2370158,38.0943711 -3.8820074,53.3777975 -43.3668765,87.2321201 -61.3078415,92.5338322"
       id="path4078-3"
       inkscape:connector-curvature="0"
       sodipodi:nodetypes="cssc" />
    <path
       style="fill:none;stroke:#00ffff;stroke-width:1px;stroke-linecap:round;stroke-linejoin:round;display:inline"
       d="m 331.70333,119.8996109 c 1.7129748,-2.283184 1.4643204,-4.7549668 4.0785115,-3.7509452 3.6240173,1.3918615 7.8597824,-2.0138156 7.7491718,-5.3002486 -0.098812,-2.9358738 -5.8730565,-2.6908956 -8.4833039,-0.8154229"
       id="path4154-3"
       inkscape:connector-curvature="0"
       sodipodi:nodetypes="cssc" />
    <path
       style="fill:none;stroke:#ffff00;stroke-width:1px;stroke-linecap:round;stroke-linejoin:round;display:inline"
       d="m 266.0503286,162.4053891 c 26.3960174,21.6705921 -10.6867992,-29.2560058 -88.7455525,-60.2347373 -57.8356813,-22.95291647 -149.99213911,-15.32907542 -66.3120993,6.8928832 1.3606046,0.3613203 1.7107797,1.0401482 0.075968,1.2344563 -47.11211752,5.5995842 -36.14449891,16.7620536 4.9501559,19.4135156 2.4326602,0.1569573 2.6245478,1.7549255 0.6046063,2.4803187 -50.4469236,18.1162948 -44.47423031,23.5098191 -10.6248763,21.6129315 1.1658478,-0.065333 1.4326356,0.5164879 0.051863,1.6397676 -14.563111,11.8473152 3.6168065,15.5856958 12.1423188,15.4728317 8.981243,-0.1188972 6.8037515,5.1058531 5.4691236,7.1772704 -10.2721695,15.9429839 2.4427076,25.2398471 48.4005799,13.2736277"
       id="path3304-6"
       inkscape:connector-curvature="0"
       sodipodi:nodetypes="csssssssssc" />
    <path
       style="fill:none;stroke:#ffff00;stroke-width:1px;stroke-linecap:round;stroke-linejoin:round;display:inline"
       d="m 193.9627981,166.480364 c -7.0585969,22.4641992 -26.9833058,34.8326792 -65.190356,44.6737928 -30.3161065,7.8086178 -57.55558181,11.9884443 -68.64649865,3.618339 -7.35350994,-5.8708312 -1.51537211,25.7320493 30.07931345,18.9098926 3.1202328,-0.6737435 4.1001933,0.5157529 0.7133075,2.8062758 -21.75956471,14.7158137 -27.28269408,46.1434768 24.1622189,8.9128079 0.5404431,-0.3911185 0.9609484,-0.013878 0.4979197,0.4663336 -31.47365891,32.6416695 -29.27272841,54.2553563 2.7520047,17.3382067 0.8391005,-0.9672898 1.2534972,-0.7262568 0.7352794,0.3103436 -16.2401689,32.485508 -4.2363934,53.0348382 43.0848483,-18.2178736"
       id="path3306-7"
       inkscape:connector-curvature="0"
       sodipodi:nodetypes="cscssssssc" />
    <path
       style="fill:none;stroke:#ffff00;stroke-width:1px;stroke-linecap:round;stroke-linejoin:round;display:inline"
       d="m 183.1886666,222.4444902 c -10.3289868,10.5493114 -3.5033821,9.8574901 -0.2480098,8.9249213 1.6140879,-0.462389 1.5583307,0.1391116 0.8558332,0.7109602 -14.4578067,11.7689751 -31.3977304,39.7094818 -4.9329854,24.105625 1.302892,-0.7681971 2.189364,0.147618 1.1804226,1.1509817 -22.1394341,22.0170401 -57.6344062,76.661354 -13.4714041,40.4213489 9.0538558,-7.4295625 18.3247444,-13.7041032 24.1583709,-17.2350158 0.4812421,-0.291281 0.8003106,0.1068447 0.3964165,0.4983307 -73.207372,70.9583716 10.2051665,34.646911 50.7714732,-7.0612413 18.695932,-19.2221782 25.7460015,-39.1163329 14.5099129,-67.4266185 -2.1039793,-5.3011558 -9.3601481,-22.2505334 -21.9016277,-19.9442655 -9.9507868,1.8298624 -3.6836459,12.712256 3.2584544,21.0191147"
       id="path4076-5"
       inkscape:connector-curvature="0"
       sodipodi:nodetypes="cssssssssssc" />
    <path
       style="fill:none;stroke:#ffff00;stroke-width:1px;stroke-linecap:round;stroke-linejoin:round;display:inline"
       d="m 227.5284562,169.4873196 c 36.4642396,-15.240966 34.4191379,-20.6084194 46.8335108,-35.851214 17.456932,-21.4342224 42.487874,-6.1529066 56.8669223,-3.7105621 1.905072,0.3235849 2.8968238,0.8257457 2.9675806,1.2899786 -5.6941529,-0.1468725 -11.8110584,0.6807247 -16.5691557,1.8788044"
       id="path3094"
       inkscape:connector-curvature="0"
       sodipodi:nodetypes="csscc" />
    <path
       style="fill:none;stroke:#ffff00;stroke-width:1px;stroke-linecap:round;stroke-linejoin:round;display:inline"
       d="m 307.4946534,136.2521893 c -5.8781471,0.8263313 -7.3476839,-2.4789937 -7.3476839,-2.4789937 0,0 2.2670887,-3.7641807 4.1330722,-3.4889543 2.9682609,0.4378088 3.2146117,5.967948 3.2146117,5.967948 z"
       id="path4082-6"
       inkscape:connector-curvature="0"
       sodipodi:nodetypes="ccsc" />
    <path
       style="fill:none;stroke:#ffff00;stroke-width:1px;stroke-linecap:round;stroke-linejoin:round;display:inline"
       d="m 305.0929841,134.0936396 c -0.1291152,0.5101772 -0.7523777,0.5201624 -1.2262482,0.4326489 -0.5309316,-0.098051 -1.0024964,-0.3371981 -1.0024964,-0.8189222 0,-0.481724 0.5042598,-0.7784778 1.0842339,-0.745794 0.4811252,0.027113 1.2961083,0.5330543 1.1445107,1.1320673 z"
       id="path4095-2"
       inkscape:connector-curvature="0"
       sodipodi:nodetypes="sssss" />
    <path
       style="fill:none;stroke:#00ffff;stroke-width:1px;stroke-linecap:round;stroke-linejoin:round;display:inline"
       d="m 324.6102062,132.8426061 c 0.9419566,10.5221639 4.8376668,15.2663123 3.9461493,23.4357564"
       id="path4124-9"
       inkscape:connector-curvature="0"
       sodipodi:nodetypes="cc" />
    <path
       style="fill:none;stroke:#00ffff;stroke-width:1px;stroke-linecap:round;stroke-linejoin:round;display:inline"
       d="m 329.3493791,125.2582548 c -0.7175999,-7.401863 1.5314965,-8.6987727 -1.3191803,-16.1376559 -0.3188787,-0.8321187 -1.319639,-1.4647073 -1.2300811,0.1432772 0.2214556,3.976169 1.297605,5.1342355 0.7960923,8.8942924 -13.0592824,-16.4780697 -13.113216,-18.7558481 -12.705901,-19.7086389 0.6758934,-1.5810493 5.0066644,7.0456289 5.0066644,7.0456289 1.1027839,2.2048122 1.6464654,-1.5146745 2.3096231,-1.0007636 0.7496101,0.5809068 -1.2512197,4.3895143 0,4.9898381 0.7887631,0.3784413 1.0680298,-1.3202591 1.9153615,-1.1024061 0.8784802,0.2258614 -0.058041,3.3652396 1.7412376,4.7577526"
       id="path4137-1"
       inkscape:connector-curvature="0"
       sodipodi:nodetypes="csscscsssc" />
    <path
       style="fill:none;stroke:#00ffff;stroke-width:1px;stroke-linecap:round;stroke-linejoin:round;display:inline"
       d="m 334.1995914,94.34401316 c -4.1429418,3.30121374 -4.1723468,13.03834204 -4.1723468,13.03834204 -3.6626008,-10.5638839 0.579473,-11.72472125 3.4615195,-20.60798726 0,0 -0.8707175,5.88316438 -0.1670981,13.34830936 0.2294921,2.4348269 -0.5826424,4.6039215 -1.7234525,0.5824429"
       id="path4150-2"
       inkscape:connector-curvature="0"
       sodipodi:nodetypes="cccsc" />
    <path
       style="fill:none;stroke:#00ffff;stroke-width:1px;stroke-linecap:round;stroke-linejoin:round;display:inline"
       d="m 330.2130961,111.7793734 c 12.462287,-10.1981915 12.9555073,-16.85516514 14.4248689,-16.40642395 0.6840945,0.20892161 -3.0984188,12.51974745 -5.3641987,15.46580015 -0.8243131,1.071803 -1.3695643,-0.8102134 0.2534312,-3.7653712"
       id="path4152-7"
       inkscape:connector-curvature="0"
       sodipodi:nodetypes="cssc" />
  </g>
  <g
     inkscape:groupmode="layer"
     id="layer10"
     inkscape:label="SCHWANZ-01"
     sodipodi:insensitive="true">
    <path
       sodipodi:nodetypes="cscsssssssccc"
       inkscape:connector-curvature="0"
       id="path3227"
       d="m 193.9627981,166.480364 c -7.0585969,22.4641992 -26.9833058,34.8326792 -65.190356,44.6737928 -30.3161065,7.8086178 -57.55558181,11.9884443 -68.64649863,3.618339 -7.35350994,-5.8708312 -1.51537211,25.7320493 30.07931343,18.9098926 3.1202328,-0.6737435 4.1001933,0.5157529 0.7133075,2.8062758 -21.75956471,14.7158137 -27.28269406,46.1434768 24.1622189,8.9128079 0.5404431,-0.3911185 0.9609484,-0.013878 0.4979197,0.4663336 -31.47365891,32.6416695 -29.27272841,54.2553563 2.7520047,17.3382067 0.8391005,-0.9672898 1.2534971,-0.7262568 0.7352794,0.3103436 -15.0477827,30.1003559 -5.8468193,49.9529454 33.2299507,-3.9763632 3.0964431,-4.2733582 6.3804757,-9.0099913 9.8548976,-14.2415104 12.1538284,-20.8503505 73.3403176,24.4569091 73.3403176,24.4569091 z"
       style="fill:#ffffff;stroke:none;display:inline" />
  </g>
  <g
     inkscape:groupmode="layer"
     id="layer12"
     inkscape:label="KOPF-01">
    <path
       sodipodi:nodetypes="csccc"
       inkscape:connector-curvature="0"
       id="path3259"
       d="m 227.5284562,169.4873196 c 36.4642396,-15.240966 34.6439999,-20.4280086 46.8335108,-35.851214 16.4860632,-20.8595687 43.8435604,-6.871226 59.8345029,-2.4205835 -32.7407639,4.2705344 -132.491455,113.9322027 -132.491455,113.9322027 0,0 -40.3005003,-48.0568087 25.8234413,-75.6604052 z"
       style="fill:#ffffff;stroke:none;display:inline" />
  </g>
  <g
     inkscape:groupmode="layer"
     id="layer11"
     inkscape:label="HALS-01"
     sodipodi:insensitive="true">
    <path
       sodipodi:nodetypes="csccc"
       inkscape:connector-curvature="0"
       id="path3261"
       d="m 333.414752,131.2920865 c -17.3176151,6.2973006 -18.2916257,27.8326268 -19.1096292,39.080217 -3.8820074,53.3777975 -43.3668765,87.2321201 -61.3078415,92.5338322 -50.4667798,14.1209453 -52.692094,-8.2919274 -50.9622542,-17.9586792 10.2779501,-54.0796634 81.0934656,-121.8098985 131.3797249,-113.65537 z"
       style="fill:#ffffff;stroke:none;display:inline" />
  </g>
  <g
     inkscape:groupmode="layer"
     id="layer5"
     inkscape:label="FLGLUNTN-01"
     style="display:inline"
     sodipodi:insensitive="true">
    <path
       sodipodi:nodetypes="ssssssssssss"
       inkscape:connector-curvature="0"
       id="path3223"
       d="m 183.1886666,222.4444902 c -10.3358455,10.5425915 -3.5033821,9.8574901 -0.2480098,8.9249213 1.6140879,-0.462389 1.5583307,0.1391116 0.8558332,0.7109602 -14.4578067,11.7689751 -31.3977304,39.7094818 -4.9329854,24.105625 1.302892,-0.7681971 2.189364,0.147618 1.1804226,1.1509817 -22.1394341,22.0170401 -57.6344062,76.661354 -13.4714041,40.4213489 9.0538558,-7.4295625 18.3247444,-13.7041032 24.1583709,-17.2350158 0.4812421,-0.291281 0.8003106,0.1068447 0.3964165,0.4983307 -73.207372,70.9583716 10.2051665,34.646911 50.7714732,-7.0612413 18.695932,-19.2221782 25.7460015,-39.1163329 14.5099129,-67.4266185 -2.1039793,-5.3011558 -9.3601481,-22.2505335 -21.9016277,-19.9442655 -9.9507868,1.8298623 -42.2360426,26.5909409 -51.3184023,35.8549733 z"
       style="fill:#ffffff;stroke:none" />
    <path
       style="fill:none;stroke:#000000;stroke-width:1px;stroke-linecap:round;stroke-linejoin:round;display:inline"
       d="m 183.1886666,222.4444902 c -10.3289868,10.5493114 -3.5033821,9.8574901 -0.2480098,8.9249213 1.6140879,-0.462389 1.5583307,0.1391116 0.8558332,0.7109602 -14.4578067,11.7689751 -31.3977304,39.7094818 -4.9329854,24.105625 1.302892,-0.7681971 2.189364,0.147618 1.1804226,1.1509817 -22.1394341,22.0170401 -57.6344062,76.661354 -13.4714041,40.4213489 9.0538558,-7.4295625 18.3247444,-13.7041032 24.1583709,-17.2350158 0.4812421,-0.291281 0.8003106,0.1068447 0.3964165,0.4983307 -73.207372,70.9583716 10.2051665,34.646911 50.7714732,-7.0612413 18.695932,-19.2221782 25.7460015,-39.1163329 14.5099129,-67.4266185 -2.1039793,-5.3011558 -9.3601481,-22.2505334 -21.9016277,-19.9442655 -9.9507868,1.8298624 -3.6836459,12.712256 3.2584544,21.0191147"
       id="path4076-5-9"
       inkscape:connector-curvature="0"
       sodipodi:nodetypes="cssssssssssc" />
  </g>
  <g
     inkscape:groupmode="layer"
     id="layer4"
     inkscape:label="FLGLOBN-01"
     style="display:inline"
     sodipodi:insensitive="true">
    <path
       sodipodi:nodetypes="cssssssssssc"
       inkscape:connector-curvature="0"
       id="path3225"
       d="m 274.4099594,167.496445 c 2.1047668,-2.4306016 -34.1909692,-40.3573885 -97.1051833,-65.3257932 -57.8356813,-22.95291645 -149.99213911,-15.32907542 -66.3120993,6.8928832 1.3606046,0.3613203 1.7107797,1.0401482 0.075968,1.2344563 -47.11211752,5.5995842 -36.14449891,16.7620536 4.9501559,19.4135156 2.4326602,0.1569573 2.6245478,1.7549255 0.6046063,2.4803187 -50.4469236,18.1162948 -44.47423031,23.5098191 -10.6248763,21.6129315 1.1658478,-0.065333 1.4326356,0.5164879 0.051863,1.6397676 -14.563111,11.8473152 3.6168065,15.5856958 12.1423188,15.4728317 8.981243,-0.1188972 6.8037515,5.1058531 5.4691236,7.1772704 -10.2721695,15.9429839 2.1517652,24.0608226 48.4005799,13.2736277 z"
       style="fill:#ffffff;stroke:none;display:inline" />
    <path
       style="fill:none;stroke:#000000;stroke-width:1px;stroke-linecap:round;stroke-linejoin:round;display:inline"
       d="m 266.0503286,162.4053891 c 26.3960174,21.6705921 -10.6867992,-29.2560058 -88.7455525,-60.2347373 -57.8356813,-22.95291647 -149.99213911,-15.32907542 -66.3120993,6.8928832 1.3606046,0.3613203 1.7107797,1.0401482 0.075968,1.2344563 -47.11211752,5.5995842 -36.14449891,16.7620536 4.9501559,19.4135156 2.4326602,0.1569573 2.6245478,1.7549255 0.6046063,2.4803187 -50.4469236,18.1162948 -44.47423031,23.5098191 -10.6248763,21.6129315 1.1658478,-0.065333 1.4326356,0.5164879 0.051863,1.6397676 -14.563111,11.8473152 3.6168065,15.5856958 12.1423188,15.4728317 8.981243,-0.1188972 6.8037515,5.1058531 5.4691236,7.1772704 -10.2721695,15.9429839 2.4427076,25.2398471 48.4005799,13.2736277"
       id="path3304-6-0"
       inkscape:connector-curvature="0"
       sodipodi:nodetypes="csssssssssc" />
  </g>
  <g
     inkscape:groupmode="layer"
     id="layer6"
     inkscape:label="SCHWANZ-01"
     style="display:inline"
     sodipodi:insensitive="true">
    <path
       style="fill:none;stroke:#000000;stroke-width:1px;stroke-linecap:round;stroke-linejoin:round;display:inline"
       d="m 193.9627981,166.480364 c -7.0585969,22.4641992 -26.9833058,34.8326792 -65.190356,44.6737928 -30.3161065,7.8086178 -57.55558181,11.9884443 -68.64649864,3.618339 -7.35350994,-5.8708312 -1.51537211,25.7320493 30.07931344,18.9098926 3.1202328,-0.6737435 4.1001933,0.5157529 0.7133075,2.8062758 -21.75956471,14.7158137 -27.28269407,46.1434768 24.1622189,8.9128079 0.5404431,-0.3911185 0.9609484,-0.013878 0.4979197,0.4663336 -31.47365891,32.6416695 -29.27272841,54.2553563 2.7520047,17.3382067 0.8391005,-0.9672898 1.2534972,-0.7262568 0.7352794,0.3103436 -16.2401689,32.485508 -4.2363934,53.0348382 43.0848483,-18.2178736"
       id="path3306-7-3"
       inkscape:connector-curvature="0"
       sodipodi:nodetypes="cscssssssc" />
  </g>
  <g
     inkscape:groupmode="layer"
     id="layer7"
     inkscape:label="KOPF-01"
     style="display:inline"
     sodipodi:insensitive="true">
    <path
       style="fill:none;stroke:#000000;stroke-width:1px;stroke-linecap:round;stroke-linejoin:round;display:inline"
       d="m 227.5284562,169.4873196 c 36.4642396,-15.240966 34.6439999,-20.4280086 46.8335108,-35.851214 16.4860632,-20.8595687 43.8435604,-6.871226 59.8345029,-2.4205835 -5.5986338,-0.2423916 -11.8110584,0.6807247 -16.5691557,1.8788044"
       id="path3094-6"
       inkscape:connector-curvature="0"
       sodipodi:nodetypes="cscc" />
  </g>
  <g
     inkscape:groupmode="layer"
     id="layer8"
     inkscape:label="HALS-01"
     style="display:inline"
     sodipodi:insensitive="true">
    <path
       style="fill:none;stroke:#000000;stroke-width:1px;stroke-linecap:round;stroke-linejoin:round;display:inline"
       d="m 333.414752,131.2920865 c -17.3176151,6.2973006 -18.2916257,27.8326268 -19.1096292,39.080217 -3.8820074,53.3777975 -43.3668765,87.2321201 -61.3078415,92.5338322"
       id="path4078-3-0"
       inkscape:connector-curvature="0"
       sodipodi:nodetypes="csc" />
  </g>
  <g
     inkscape:groupmode="layer"
     id="layer9"
     inkscape:label="AUGE-01"
     style="display:inline"
     sodipodi:insensitive="true">
    <path
       style="fill:none;stroke:#000000;stroke-width:1px"
       d="m 302.0387549,139.5384369 c 0,2.3183541 -1.8793973,4.1977515 -4.1977515,4.1977515 -2.3183541,0 -4.1977515,-1.8793974 -4.1977515,-4.1977515 0,-2.3183542 1.8793974,-4.1977515 4.1977515,-4.1977515 2.3183542,0 4.1977515,1.8793973 4.1977515,4.1977515 z"
       id="path3218"
       inkscape:connector-curvature="0" />
  </g>
</svg>
