<?xml version="1.0" encoding="UTF-8" standalone="no"?>
<!-- Created with Inkscape (http://www.inkscape.org/) -->

<svg
   xmlns:dc="http://purl.org/dc/elements/1.1/"
   xmlns:cc="http://creativecommons.org/ns#"
   xmlns:rdf="http://www.w3.org/1999/02/22-rdf-syntax-ns#"
   xmlns:svg="http://www.w3.org/2000/svg"
   xmlns="http://www.w3.org/2000/svg"
   xmlns:sodipodi="http://sodipodi.sourceforge.net/DTD/sodipodi-0.dtd"
   xmlns:inkscape="http://www.inkscape.org/namespaces/inkscape"
   id="svg2"
   version="1.1"
   inkscape:version="0.48.3.1 r9886"
   width="545.66876"
   height="765.35376"
   xml:space="preserve"
   sodipodi:docname="190128_A5x2-Bees.svg"><metadata
   id="metadata8"><rdf:RDF><cc:Work
       rdf:about=""><dc:format>image/svg+xml</dc:format><dc:type
         rdf:resource="http://purl.org/dc/dcmitype/StillImage" /><dc:title /></cc:Work></rdf:RDF></metadata><defs
   id="defs6" /><sodipodi:namedview
   pagecolor="#cccccc"
   bordercolor="#666666"
   borderopacity="1"
   objecttolerance="10"
   gridtolerance="10"
   guidetolerance="10"
   inkscape:pageopacity="1"
   inkscape:pageshadow="2"
   inkscape:window-width="640"
   inkscape:window-height="480"
   id="namedview4"
   showgrid="false"
   inkscape:zoom="0.82424465"
   inkscape:cx="350.04381"
   inkscape:cy="539.65088"
   inkscape:current-layer="content"
   units="mm"
   guidecolor="#ff0000"
   guideopacity="0.47058824"
   guidehicolor="#00ff00"
   guidehiopacity="1"
   inkscape:snap-global="false"
   showguides="true"
   showborder="false"
   inkscape:showpageshadow="false"><sodipodi:guide
     position="21.259843,754.72441"
     orientation="0,1048.8189"
     id="guide4271" /><sodipodi:guide
     position="1070.0787,754.72441"
     orientation="744.09449,0"
     id="guide4273" /><sodipodi:guide
     position="1070.0787,10.62992"
     orientation="0,-1048.8189"
     id="guide4275" /><sodipodi:guide
     position="21.259843,10.62992"
     orientation="-744.09449,-4.6185278e-14"
     id="guide4277" /><sodipodi:guide
     position="545.669,10.63"
     orientation="-761.31029,0"
     id="guide4301" /><inkscape:grid
     type="xygrid"
     id="grid4326"
     empspacing="5"
     visible="true"
     enabled="true"
     snapvisiblegridlinesonly="true"
     units="mm"
     spacingx="8mm"
     spacingy="8mm"
     originx="10mm" /></sodipodi:namedview><g
   style="display:inline"
   id="refbuild"
   inkscape:groupmode="layer"
   inkscape:label="XX_PAGE-Referenz"
   sodipodi:insensitive="true"><path
     style="fill:#ffffff;stroke:none"
     d="m 10.625,0 0,765.34375 10.625,0 524.40625,0 524.43755,0 10.625,0 0,-765.34375 -10.625,0 L 21.25,0 10.625,0 z"
     id="canvasfull"
     inkscape:connector-curvature="0" /><path
     style="fill:#ff00ff;stroke:none"
     d="m 10.625,0 0,765.34375 10.625,0 L 21.25,0 10.625,0 z"
     id="outercropleft"
     inkscape:connector-curvature="0" /><path
     style="fill:#ff00ff;stroke:none"
     d="m 10.625,754.71875 0,10.625 535.03125,0 0,-10.625 -535.03125,0 z"
     id="bottomcropleft"
     inkscape:connector-curvature="0" /><path
     style="fill:#ff00ff;stroke:none"
     d="m 10.625,0 0,10.625 535.03125,0 0,-10.625 L 10.625,0 z"
     id="topcropleft"
     inkscape:connector-curvature="0" /><path
     style="fill:none;stroke:#0000ff;stroke-width:1px"
     d="m 10.629921,-10.00046 0,785.35433"
     id="beforecropleft"
     inkscape:connector-curvature="0"
     sodipodi:nodetypes="cc" /><path
     style="fill:#00ff00;stroke:none"
     d="m 1070.0938,0 0,765.34375 10.625,0 0,-765.34375 -10.625,0 z"
     id="outercropright"
     inkscape:connector-curvature="0" /><path
     style="fill:#00ff00;stroke:none"
     d="m 545.65625,754.71875 0,10.625 535.06255,0 0,-10.625 -535.06255,0 z"
     id="bottomcropright"
     inkscape:connector-curvature="0" /><path
     style="fill:#00ff00;stroke:none"
     d="m 545.65625,0 0,10.625 535.06255,0 0,-10.625 -535.06255,0 z"
     id="topcropright"
     inkscape:connector-curvature="0" /><path
     style="fill:#00ff00;stroke:#0000ff;stroke-width:1px"
     d="m 1080.7081,-10.00046 0,785.35433"
     id="beforecropright"
     inkscape:connector-curvature="0"
     sodipodi:nodetypes="cc" /><path
     style="fill:#ffff00;stroke:none"
     d="m 556.29876,-4.6023438e-4 -10.63,0 0,765.35433023438 10.63,0 z"
     id="innercropright"
     inkscape:connector-curvature="0" /><path
     style="fill:#ffff00;stroke:none"
     d="m 545.66876,-4.6023438e-4 -10.63,0 0,765.35433023438 10.63,0 z"
     id="innercropleft"
     inkscape:connector-curvature="0" /><path
     style="opacity:0.5;fill:#ffffff;fill-opacity:1;stroke:none"
     d="m 21.25,10.625 0,744.0937 1048.8438,0 0,-744.0937 -1048.8438,0 z"
     id="canvasoverlay"
     inkscape:connector-curvature="0" /><path
     style="fill:none;stroke:#00ff00;stroke-width:1px"
     d="m 545.669,771.94051 0,-778.5270405"
     id="centerbuild"
     inkscape:connector-curvature="0" /></g><g
   inkscape:label="XX_PAGE"
   inkscape:groupmode="layer"
   id="refcanvas"
   style="display:inline"
   sodipodi:insensitive="true"><path
     sodipodi:nodetypes="ccccc"
     inkscape:connector-curvature="0"
     id="canvas"
     d="m 21.259843,10.62935 1048.818857,0 0,744.09449 -1048.818857,0 z"
     style="fill:#ffffff;stroke:none" /><path
     style="fill:none;stroke:#000000;stroke-width:1px"
     d="m 545.669,771.94051 0,-778.5270403"
     id="center"
     inkscape:connector-curvature="0" /></g>
  <g
   inkscape:groupmode="layer"
   id="bg"
   inkscape:label="XX_I0S-BG"
   style="display:inline"
   sodipodi:insensitive="true">
    <path
   style="fill:#fdfdfd;fill-opacity:1"
   d="m 450,40.35376 0,400 -400,0 0,-400 z"
   id="bgrect"
   inkscape:connector-curvature="0" />
  </g>
  <g
   inkscape:label="XX_I0S-Referenz"
   inkscape:groupmode="layer"
   id="XX_referenz"
   style="display:inline"
   sodipodi:insensitive="true">
    <path
   id="innerframe"
   style="fill:none;stroke:#ff0000;stroke-width:1"
   d="m 90.5,80.85376 319,0 0,319 -319,0 0,-319 z"
   inkscape:label="#innerframe"
   sodipodi:insensitive="true"
   inkscape:connector-curvature="0" />
    <path
   id="outerframe"
   style="fill:none;stroke:#ff0000;stroke-width:1"
   d="m 80.5,70.85376 339,0 0,339 -339,0 0,-339 z"
   inkscape:label="#outerframe"
   sodipodi:nodetypes="ccccc"
   sodipodi:insensitive="true"
   inkscape:connector-curvature="0" />
    <path
   style="opacity:0.5;fill:none;stroke:#ffc200;stroke-width:1px;stroke-linecap:square"
   d="m 239,70.85376 0,10"
   id="ref-S-top-1"
   sodipodi:insensitive="true"
   inkscape:connector-curvature="0" />
    <path
   style="opacity:0.5;fill:none;stroke:#ffc200;stroke-width:1px;stroke-linecap:square"
   d="m 241,70.85376 0,10"
   id="ref-S-top-2"
   sodipodi:insensitive="true"
   inkscape:connector-curvature="0" />
    <path
   style="opacity:0.5;fill:none;stroke:#ffc200;stroke-width:1px;stroke-linecap:square"
   d="m 259,70.85376 0,10"
   id="ref-S-top-3"
   sodipodi:insensitive="true"
   inkscape:connector-curvature="0" />
    <path
   style="opacity:0.5;fill:none;stroke:#ffc200;stroke-width:1px;stroke-linecap:square"
   d="m 261,70.85376 0,10"
   id="ref-S-top-4"
   sodipodi:insensitive="true"
   inkscape:connector-curvature="0" />
    <path
   style="opacity:0.5;fill:none;stroke:#00ff00;stroke-width:1px;stroke-linecap:square"
   d="m 249,70.85376 0,10"
   id="ref-I-top-1"
   sodipodi:insensitive="true"
   inkscape:connector-curvature="0" />
    <path
   style="opacity:0.5;fill:none;stroke:#00ff00;stroke-width:1px;stroke-linecap:square"
   d="m 251,70.85376 0,10"
   id="ref-I-top-2"
   sodipodi:insensitive="true"
   inkscape:connector-curvature="0" />
    <path
   style="opacity:0.5;fill:none;stroke:#00ffcc;stroke-width:1px;stroke-linecap:square"
   d="m 116,70.85376 0,10"
   id="ref-C-top-1"
   sodipodi:insensitive="true"
   inkscape:connector-curvature="0" />
    <path
   style="opacity:0.5;fill:none;stroke:#00ffcc;stroke-width:1px;stroke-linecap:square"
   d="m 118,70.85376 0,10"
   id="ref-C-top-2"
   sodipodi:insensitive="true"
   inkscape:connector-curvature="0" />
    <path
   style="opacity:0.5;fill:none;stroke:#00ffcc;stroke-width:1px;stroke-linecap:square"
   d="m 142,70.85376 0,10"
   id="ref-C-top-3"
   sodipodi:insensitive="true"
   inkscape:connector-curvature="0" />
    <path
   style="opacity:0.5;fill:none;stroke:#00ffcc;stroke-width:1px;stroke-linecap:square"
   d="m 144,70.85376 0,10"
   id="ref-C-top-4"
   sodipodi:insensitive="true"
   inkscape:connector-curvature="0" />
    <path
   style="opacity:0.5;fill:none;stroke:#00ffcc;stroke-width:1px;stroke-linecap:square"
   d="m 356,70.85376 0,10"
   id="ref-C-top-5"
   sodipodi:insensitive="true"
   inkscape:connector-curvature="0" />
    <path
   style="opacity:0.5;fill:none;stroke:#00ffcc;stroke-width:1px;stroke-linecap:square"
   d="m 358,70.85376 0,10"
   id="ref-C-top-6"
   sodipodi:insensitive="true"
   inkscape:connector-curvature="0" />
    <path
   style="opacity:0.5;fill:none;stroke:#00ffcc;stroke-width:1px;stroke-linecap:square"
   d="m 382,70.85376 0,10"
   id="ref-C-top-7"
   sodipodi:insensitive="true"
   inkscape:connector-curvature="0" />
    <path
   style="opacity:0.5;fill:none;stroke:#00ffcc;stroke-width:1px;stroke-linecap:square"
   d="m 384,70.85376 0,10"
   id="ref-C-top-8"
   sodipodi:insensitive="true"
   inkscape:connector-curvature="0" />
    <path
   style="opacity:0.5;fill:none;stroke:#ffc200;stroke-width:1px;stroke-linecap:square"
   d="m 419.5,229.35376 -10,0"
   id="ref-S-right-1"
   sodipodi:insensitive="true"
   inkscape:connector-curvature="0" />
    <path
   style="opacity:0.5;fill:none;stroke:#ffc200;stroke-width:1px;stroke-linecap:square"
   d="m 419.5,231.35376 -10,0"
   id="ref-S-right-2"
   sodipodi:insensitive="true"
   inkscape:connector-curvature="0" />
    <path
   style="opacity:0.5;fill:none;stroke:#ffc200;stroke-width:1px;stroke-linecap:square"
   d="m 419.5,249.35376 -10,0"
   id="ref-S-right-3"
   sodipodi:insensitive="true"
   inkscape:connector-curvature="0" />
    <path
   style="opacity:0.5;fill:none;stroke:#ffc200;stroke-width:1px;stroke-linecap:square"
   d="m 419.5,251.35376 -10,0"
   id="ref-S-right-4"
   sodipodi:insensitive="true"
   inkscape:connector-curvature="0" />
    <path
   style="opacity:0.5;fill:none;stroke:#00ff00;stroke-width:1px;stroke-linecap:square"
   d="m 419.5,239.35376 -10,0"
   id="ref-I-right-1"
   sodipodi:insensitive="true"
   inkscape:connector-curvature="0" />
    <path
   style="opacity:0.5;fill:none;stroke:#00ff00;stroke-width:1px;stroke-linecap:square"
   d="m 419.5,241.35376 -10,0"
   id="ref-I-right-2"
   sodipodi:insensitive="true"
   inkscape:connector-curvature="0" />
    <path
   style="opacity:0.5;fill:none;stroke:#00ffcc;stroke-width:1px;stroke-linecap:square"
   d="m 419.5,106.35376 -10,0"
   id="ref-C-right-1"
   sodipodi:insensitive="true"
   inkscape:connector-curvature="0" />
    <path
   style="opacity:0.5;fill:none;stroke:#00ffcc;stroke-width:1px;stroke-linecap:square"
   d="m 419.5,108.35376 -10,0"
   id="ref-C-right-2"
   sodipodi:insensitive="true"
   inkscape:connector-curvature="0" />
    <path
   style="opacity:0.5;fill:none;stroke:#00ffcc;stroke-width:1px;stroke-linecap:square"
   d="m 419.5,132.35376 -10,0"
   id="ref-C-right-3"
   sodipodi:insensitive="true"
   inkscape:connector-curvature="0" />
    <path
   style="opacity:0.5;fill:none;stroke:#00ffcc;stroke-width:1px;stroke-linecap:square"
   d="m 419.5,134.35376 -10,0"
   id="ref-C-right-4"
   sodipodi:insensitive="true"
   inkscape:connector-curvature="0" />
    <path
   style="opacity:0.5;fill:none;stroke:#00ffcc;stroke-width:1px;stroke-linecap:square"
   d="m 419.5,346.35376 -10,0"
   id="ref-C-right-5"
   sodipodi:insensitive="true"
   inkscape:connector-curvature="0" />
    <path
   style="opacity:0.5;fill:none;stroke:#00ffcc;stroke-width:1px;stroke-linecap:square"
   d="m 419.5,348.35376 -10,0"
   id="ref-C-right-6"
   sodipodi:insensitive="true"
   inkscape:connector-curvature="0" />
    <path
   style="opacity:0.5;fill:none;stroke:#00ffcc;stroke-width:1px;stroke-linecap:square"
   d="m 419.5,372.35376 -10,0"
   id="ref-C-right-7"
   sodipodi:insensitive="true"
   inkscape:connector-curvature="0" />
    <path
   style="opacity:0.5;fill:none;stroke:#00ffcc;stroke-width:1px;stroke-linecap:square"
   d="m 419.5,374.35376 -10,0"
   id="ref-C-right-8"
   sodipodi:insensitive="true"
   inkscape:connector-curvature="0" />
    <path
   style="opacity:0.5;fill:none;stroke:#ffc200;stroke-width:1px;stroke-linecap:square"
   d="m 239,409.85376 0,-10"
   id="ref-S-bottom-1"
   sodipodi:insensitive="true"
   inkscape:connector-curvature="0" />
    <path
   style="opacity:0.5;fill:none;stroke:#ffc200;stroke-width:1px;stroke-linecap:square"
   d="m 241,409.85376 0,-10"
   id="ref-S-bottom-2"
   sodipodi:insensitive="true"
   inkscape:connector-curvature="0" />
    <path
   style="opacity:0.5;fill:none;stroke:#ffc200;stroke-width:1px;stroke-linecap:square"
   d="m 259,409.85376 0,-10"
   id="ref-S-bottom-3"
   sodipodi:insensitive="true"
   inkscape:connector-curvature="0" />
    <path
   style="opacity:0.5;fill:none;stroke:#ffc200;stroke-width:1px;stroke-linecap:square"
   d="m 261,409.85376 0,-10"
   id="ref-S-bottom-4"
   sodipodi:insensitive="true"
   inkscape:connector-curvature="0" />
    <path
   style="opacity:0.5;fill:none;stroke:#00ff00;stroke-width:1px;stroke-linecap:square"
   d="m 249,409.85376 0,-10"
   id="ref-I-bottom-1"
   sodipodi:insensitive="true"
   inkscape:connector-curvature="0" />
    <path
   style="opacity:0.5;fill:none;stroke:#00ff00;stroke-width:1px;stroke-linecap:square"
   d="m 251,409.85376 0,-10"
   id="ref-I-bottom-2"
   sodipodi:insensitive="true"
   inkscape:connector-curvature="0" />
    <path
   style="opacity:0.5;fill:none;stroke:#00ffcc;stroke-width:1px;stroke-linecap:square"
   d="m 116,409.85376 0,-10"
   id="ref-C-bottom-1"
   sodipodi:insensitive="true"
   inkscape:connector-curvature="0" />
    <path
   style="opacity:0.5;fill:none;stroke:#00ffcc;stroke-width:1px;stroke-linecap:square"
   d="m 118,409.85376 0,-10"
   id="ref-C-bottom-2"
   sodipodi:insensitive="true"
   inkscape:connector-curvature="0" />
    <path
   style="opacity:0.5;fill:none;stroke:#00ffcc;stroke-width:1px;stroke-linecap:square"
   d="m 142,409.85376 0,-10"
   id="ref-C-bottom-3"
   sodipodi:insensitive="true"
   inkscape:connector-curvature="0" />
    <path
   style="opacity:0.5;fill:none;stroke:#00ffcc;stroke-width:1px;stroke-linecap:square"
   d="m 144,409.85376 0,-10"
   id="ref-C-bottom-4"
   sodipodi:insensitive="true"
   inkscape:connector-curvature="0" />
    <path
   style="opacity:0.5;fill:none;stroke:#00ffcc;stroke-width:1px;stroke-linecap:square"
   d="m 356,409.85376 0,-10"
   id="ref-C-bottom-5"
   sodipodi:insensitive="true"
   inkscape:connector-curvature="0" />
    <path
   style="opacity:0.5;fill:none;stroke:#00ffcc;stroke-width:1px;stroke-linecap:square"
   d="m 358,409.85376 0,-10"
   id="ref-C-bottom-6"
   sodipodi:insensitive="true"
   inkscape:connector-curvature="0" />
    <path
   style="opacity:0.5;fill:none;stroke:#00ffcc;stroke-width:1px;stroke-linecap:square"
   d="m 382,409.85376 0,-10"
   id="ref-C-bottom-7"
   sodipodi:insensitive="true"
   inkscape:connector-curvature="0" />
    <path
   style="opacity:0.5;fill:none;stroke:#00ffcc;stroke-width:1px;stroke-linecap:square"
   d="m 384,409.85376 0,-10"
   id="ref-C-bottom-8"
   sodipodi:insensitive="true"
   inkscape:connector-curvature="0" />
    <path
   style="opacity:0.5;fill:none;stroke:#ffc200;stroke-width:1px;stroke-linecap:square"
   d="m 80.5,229.35376 10,0"
   id="ref-S-left-1"
   sodipodi:insensitive="true"
   inkscape:connector-curvature="0" />
    <path
   style="opacity:0.5;fill:none;stroke:#ffc200;stroke-width:1px;stroke-linecap:square"
   d="m 80.5,231.35376 10,0"
   id="ref-S-left-2"
   sodipodi:insensitive="true"
   inkscape:connector-curvature="0" />
    <path
   style="opacity:0.5;fill:none;stroke:#ffc200;stroke-width:1px;stroke-linecap:square"
   d="m 80.5,249.35376 10,0"
   id="ref-S-left-3"
   sodipodi:insensitive="true"
   inkscape:connector-curvature="0" />
    <path
   style="opacity:0.5;fill:none;stroke:#ffc200;stroke-width:1px;stroke-linecap:square"
   d="m 80.5,251.35376 10,0"
   id="ref-S-left-4"
   sodipodi:insensitive="true"
   inkscape:connector-curvature="0" />
    <path
   style="opacity:0.5;fill:none;stroke:#00ff00;stroke-width:1px;stroke-linecap:square"
   d="m 90.5,239.35376 -10,0"
   id="ref-I-left-1"
   sodipodi:insensitive="true"
   inkscape:connector-curvature="0" />
    <path
   style="opacity:0.5;fill:none;stroke:#00ff00;stroke-width:1px;stroke-linecap:square"
   d="m 90.5,241.35376 -10,0"
   id="ref-I-left-2"
   sodipodi:insensitive="true"
   inkscape:connector-curvature="0" />
    <path
   style="opacity:0.5;fill:none;stroke:#00ffcc;stroke-width:1px;stroke-linecap:square"
   d="m 80.5,106.35376 10,0"
   id="ref-C-left-1"
   sodipodi:insensitive="true"
   inkscape:connector-curvature="0" />
    <path
   style="opacity:0.5;fill:none;stroke:#00ffcc;stroke-width:1px;stroke-linecap:square"
   d="m 80.5,108.35376 10,0"
   id="ref-C-left-2"
   sodipodi:insensitive="true"
   inkscape:connector-curvature="0" />
    <path
   style="opacity:0.5;fill:none;stroke:#00ffcc;stroke-width:1px;stroke-linecap:square"
   d="m 80.5,132.35376 10,0"
   id="ref-C-left-3"
   sodipodi:insensitive="true"
   inkscape:connector-curvature="0" />
    <path
   style="opacity:0.5;fill:none;stroke:#00ffcc;stroke-width:1px;stroke-linecap:square"
   d="m 80.5,134.35376 10,0"
   id="ref-C-left-4"
   sodipodi:insensitive="true"
   inkscape:connector-curvature="0" />
    <path
   style="opacity:0.5;fill:none;stroke:#00ffcc;stroke-width:1px;stroke-linecap:square"
   d="m 80.5,346.35376 10,0"
   id="ref-C-left-5"
   sodipodi:insensitive="true"
   inkscape:connector-curvature="0" />
    <path
   style="opacity:0.5;fill:none;stroke:#00ffcc;stroke-width:1px;stroke-linecap:square"
   d="m 80.5,348.35376 10,0"
   id="ref-C-left-6"
   sodipodi:insensitive="true"
   inkscape:connector-curvature="0" />
    <path
   style="opacity:0.5;fill:none;stroke:#00ffcc;stroke-width:1px;stroke-linecap:square"
   d="m 80.5,372.35376 10,0"
   id="ref-C-left-7"
   sodipodi:insensitive="true"
   inkscape:connector-curvature="0" />
    <path
   style="opacity:0.5;fill:none;stroke:#00ffcc;stroke-width:1px;stroke-linecap:square"
   d="m 80.5,374.35376 10,0"
   id="ref-C-left-8"
   sodipodi:insensitive="true"
   inkscape:connector-curvature="0" />
    <path
   style="fill:none;stroke:#000000;stroke-width:1px;stroke-linecap:square"
   d="m 240,70.85376 0,10"
   id="S-top-1"
   inkscape:connector-curvature="0" />
    <path
   style="fill:none;stroke:#000000;stroke-width:1px;stroke-linecap:square"
   d="m 260,70.85376 0,10"
   id="S-top-2"
   inkscape:connector-curvature="0" />
    <path
   style="fill:none;stroke:#000000;stroke-width:1px;stroke-linecap:square"
   d="m 419.5,230.35376 -10,0"
   id="S-right-1"
   inkscape:connector-curvature="0" />
    <path
   style="fill:none;stroke:#000000;stroke-width:1px;stroke-linecap:square"
   d="m 419.5,250.35376 -10,0"
   id="S-right-2"
   inkscape:connector-curvature="0" />
    <path
   style="fill:none;stroke:#000000;stroke-width:1px;stroke-linecap:square"
   d="m 240,409.85376 0,-10"
   id="S-bottom-1"
   inkscape:connector-curvature="0" />
    <path
   style="fill:none;stroke:#000000;stroke-width:1px;stroke-linecap:square"
   d="m 260,409.85376 0,-10"
   id="S-bottom-2"
   inkscape:connector-curvature="0" />
    <path
   style="fill:none;stroke:#000000;stroke-width:1px;stroke-linecap:square"
   d="m 80.5,230.35376 10,0"
   id="S-left-1"
   inkscape:connector-curvature="0" />
    <path
   style="fill:none;stroke:#000000;stroke-width:1px;stroke-linecap:square"
   d="m 80.5,250.35376 10,0"
   id="S-left-2"
   inkscape:connector-curvature="0" />
    <path
   style="fill:none;stroke:#000000;stroke-width:1px;stroke-linecap:square"
   d="m 250,70.85376 0,10"
   id="I-top-1"
   inkscape:connector-curvature="0" />
    <path
   style="fill:none;stroke:#000000;stroke-width:1px;stroke-linecap:square"
   d="m 419.5,240.35376 -10,0"
   id="I-right-1"
   inkscape:connector-curvature="0" />
    <path
   style="fill:none;stroke:#000000;stroke-width:1px;stroke-linecap:square"
   d="m 250,409.85376 0,-10"
   id="I-bottom-1"
   inkscape:connector-curvature="0" />
    <path
   style="fill:none;stroke:#000000;stroke-width:1px;stroke-linecap:square"
   d="m 90.5,240.35376 -10,0"
   id="I-left-1"
   inkscape:connector-curvature="0" />
    <path
   style="fill:none;stroke:#000000;stroke-width:1px;stroke-linecap:square"
   d="m 117,70.85376 0,10"
   id="C-top-1"
   inkscape:connector-curvature="0" />
    <path
   style="fill:none;stroke:#000000;stroke-width:1px;stroke-linecap:square"
   d="m 143,70.85376 0,10"
   id="C-top-2"
   inkscape:connector-curvature="0" />
    <path
   style="fill:none;stroke:#000000;stroke-width:1px;stroke-linecap:square"
   d="m 357,70.85376 0,10"
   id="C-top-3"
   inkscape:connector-curvature="0" />
    <path
   style="fill:none;stroke:#000000;stroke-width:1px;stroke-linecap:square"
   d="m 383,70.85376 0,10"
   id="C-top-4"
   inkscape:connector-curvature="0" />
    <path
   style="fill:none;stroke:#000000;stroke-width:1px;stroke-linecap:square"
   d="m 419.5,107.35376 -10,0"
   id="C-right-1"
   inkscape:connector-curvature="0" />
    <path
   style="fill:none;stroke:#000000;stroke-width:1px;stroke-linecap:square"
   d="m 419.5,133.35376 -10,0"
   id="C-right-2"
   inkscape:connector-curvature="0" />
    <path
   style="fill:none;stroke:#000000;stroke-width:1px;stroke-linecap:square"
   d="m 419.5,347.35376 -10,0"
   id="C-right-3"
   inkscape:connector-curvature="0" />
    <path
   style="fill:none;stroke:#000000;stroke-width:1px;stroke-linecap:square"
   d="m 419.5,373.35376 -10,0"
   id="C-right-4"
   inkscape:connector-curvature="0" />
    <path
   style="fill:none;stroke:#000000;stroke-width:1px;stroke-linecap:square"
   d="m 117,409.85376 0,-10"
   id="C-bottom-1"
   inkscape:connector-curvature="0" />
    <path
   style="fill:none;stroke:#000000;stroke-width:1px;stroke-linecap:square"
   d="m 143,409.85376 0,-10"
   id="C-bottom-2"
   inkscape:connector-curvature="0" />
    <path
   style="fill:none;stroke:#000000;stroke-width:1px;stroke-linecap:square"
   d="m 357,409.85376 0,-10"
   id="C-bottom-3"
   inkscape:connector-curvature="0" />
    <path
   style="fill:none;stroke:#000000;stroke-width:1px;stroke-linecap:square"
   d="m 383,409.85376 0,-10"
   id="C-bottom-4"
   inkscape:connector-curvature="0" />
    <path
   style="fill:none;stroke:#000000;stroke-width:1px;stroke-linecap:square"
   d="m 80.5,107.35376 10,0"
   id="C-left-1"
   inkscape:connector-curvature="0" />
    <path
   style="fill:none;stroke:#000000;stroke-width:1px;stroke-linecap:square"
   d="m 80.5,133.35376 10,0"
   id="C-left-2"
   inkscape:connector-curvature="0" />
    <path
   style="fill:none;stroke:#000000;stroke-width:1px;stroke-linecap:square"
   d="m 80.5,347.35376 10,0"
   id="C-left-3"
   inkscape:connector-curvature="0" />
    <path
   style="fill:none;stroke:#000000;stroke-width:1px;stroke-linecap:square"
   d="m 80.5,373.35376 10,0"
   id="C-left-4"
   inkscape:connector-curvature="0" />
  </g>

<g
   inkscape:label="XX_DOODLE"
   inkscape:groupmode="layer"
   id="content"
   style="display:inline"><path
     style="fill:#ffff00;stroke:none"
     d="m 2969.3125,1765.8125 c -1.2037,0.6248 -2.483,0.9687 -3.7813,0.9687 -8.4519,0 -15.3124,-14.083 -15.3124,-31.4374 0,-17.3545 6.8605,-31.4063 15.3124,-31.4063 1.2312,0 2.4468,0.28 3.5938,0.8437 l -3.0622,-1.812 c -6.8101,-3.894 -14.6416,-7.6835 -21.094,-10.1567 -8.6224,7.3865 -14.625,23.6457 -14.625,42.5313 0,18.8987 6.0241,35.152 14.6562,42.5312 7.6763,-2.9408 14.8893,-6.5318 21.4688,-10.375 z"
     id="path3483"
     inkscape:connector-curvature="0"
     sodipodi:nodetypes="cssscccsccc" /><path
     style="fill:#ffff00;stroke:none"
     d="m 2947.4688,1933.7812 c -10.0346,2.8025 -17.7813,20.3391 -17.7813,41.5626 0,21.2182 7.7501,38.7537 17.7813,41.5624 6.7587,-2.7462 13.1269,-5.9756 19,-9.4062 l 2.8437,-1.6875 c -1.2037,0.6248 -2.483,0.9687 -3.7813,0.9687 -8.4519,0 -15.3124,-14.083 -15.3124,-31.4374 0,-17.3545 6.8605,-31.4063 15.3124,-31.4063 1.2312,0 2.4468,0.28 3.5938,0.8437 l -2.7809,-1.6558 z"
     id="path3398"
     inkscape:connector-curvature="0"
     sodipodi:nodetypes="cscccsssccc" /><path
     style="fill:#ffff00;stroke:none"
     d="m 2827.9062,1956.4688 c -13.0941,10.1442 -20.9062,18.875 -20.9062,18.875 0,0 7.8121,8.7307 20.9062,18.875 -0.6136,-6.1029 -0.9062,-12.4077 -0.9062,-18.875 0,-6.4674 0.2926,-12.7722 0.9062,-18.875 z"
     id="path3398-6"
     inkscape:connector-curvature="0" /><path
     style="fill:#ffd5d5;stroke:none"
     d="m 2851.1562,1941.125 c -8.8685,4.8788 -16.7134,10.2798 -23.25,15.3438 -0.6136,6.1028 -0.9062,12.4076 -0.9062,18.875 0,6.4673 0.2926,12.7721 0.9062,18.875 6.5366,5.0639 14.3815,10.4649 23.25,15.3437 -2.3124,-10.4547 -3.625,-22.0321 -3.625,-34.2187 0,-12.1867 1.3126,-23.7641 3.625,-34.2188 z"
     id="path3398-3"
     inkscape:connector-curvature="0" /><path
     style="fill:#ffff00;stroke:none"
     d="m 2875.6562,1930.5 c -8.7641,2.8016 -16.9957,6.4967 -24.5,10.625 -2.3124,10.4547 -3.625,22.0321 -3.625,34.2188 0,12.1866 1.3126,23.764 3.625,34.2187 7.4961,4.1238 15.7153,7.8244 24.4688,10.625 -4.732,-12.4128 -7.5625,-27.9677 -7.5625,-44.8437 0,-16.8933 2.8531,-32.4247 7.5937,-44.8438 z"
     id="path3398-9"
     inkscape:connector-curvature="0" /><path
     style="fill:#ffd5d5;stroke:none"
     d="m 2900.6562,1925.5625 c -8.6841,0.5924 -17.0567,2.3983 -25,4.9375 -4.7406,12.4191 -7.5937,27.9505 -7.5937,44.8438 0,16.876 2.8305,32.4309 7.5625,44.8437 7.9517,2.544 16.3367,4.3444 25.0312,4.9375 -7.3252,-11.533 -12.0312,-29.5453 -12.0312,-49.7812 0,-20.2489 4.6979,-38.2492 12.0312,-49.7813 z"
     id="path3398-0"
     inkscape:connector-curvature="0" /><path
     style="fill:#ffff00;stroke:none"
     d="m 2907,1925.3438 c -2.1305,0 -4.2463,0.076 -6.3438,0.2187 -7.3333,11.5321 -12.0312,29.5324 -12.0312,49.7813 0,20.2359 4.706,38.2482 12.0312,49.7812 2.0975,0.1431 4.2133,0.2188 6.3438,0.2188 6.0918,0 12.0546,-0.6382 17.8438,-1.7188 -9.2313,-8.0168 -15.6876,-26.6143 -15.6876,-48.2812 0,-21.6928 6.47,-40.3115 15.7188,-48.3126 -5.7989,-1.0863 -11.7728,-1.6874 -17.875,-1.6874 z"
     id="path3398-7"
     inkscape:connector-curvature="0" /><path
     style="fill:#ffd5d5;stroke:none"
     d="m 2924.875,1927.0312 c -9.2488,8.0011 -15.7188,26.6198 -15.7188,48.3126 0,21.6669 6.4563,40.2644 15.6876,48.2812 7.9063,-1.4757 15.483,-3.8168 22.625,-6.7188 -10.0312,-2.8087 -17.7813,-20.3442 -17.7813,-41.5624 0,-21.2235 7.7467,-38.7601 17.7813,-41.5626 -7.1339,-2.9022 -14.6975,-5.2707 -22.5938,-6.75 z"
     id="path3398-2"
     inkscape:connector-curvature="0" /><path
     style="fill:#ffff00;stroke:none"
     d="m 2819.5,1723.375 c -7.9599,6.9027 -12.5,11.9688 -12.5,11.9688 0,0 4.5401,5.066 12.5,11.9687 -0.2549,-3.9229 -0.4062,-7.9187 -0.4062,-11.9687 0,-4.0501 0.1513,-8.0459 0.4062,-11.9688 z"
     id="path3262-1"
     inkscape:connector-curvature="0" /><path
     style="fill:#ffd5d5;stroke:none"
     d="m 2833.75,1712.125 c -5.5068,3.9406 -10.2978,7.8227 -14.25,11.25 -0.2549,3.9229 -0.4062,7.9187 -0.4062,11.9688 0,4.05 0.1513,8.0458 0.4062,11.9687 3.9522,3.4273 8.7432,7.3094 14.25,11.25 -1.0306,-7.4243 -1.5938,-15.1993 -1.5938,-23.2187 0,-8.0195 0.5632,-15.7945 1.5938,-23.2188 z"
     id="path3262-9"
     inkscape:connector-curvature="0" /><path
     style="fill:#ffff00;stroke:none"
     d="m 2849.3438,1702.1562 c -5.6551,3.2071 -10.8899,6.6028 -15.5938,9.9688 -1.0306,7.4243 -1.5938,15.1993 -1.5938,23.2188 0,8.0194 0.5632,15.7944 1.5938,23.2187 4.7039,3.366 9.9387,6.7617 15.5938,9.9687 -2.2915,-10.2231 -3.5313,-21.4287 -3.5313,-33.1874 0,-11.7588 1.2398,-22.9644 3.5313,-33.1876 z"
     id="path3262-62"
     inkscape:connector-curvature="0" /><path
     style="fill:#ffd5d5;stroke:none"
     d="m 2866.375,1693.8438 c -6.0163,2.4541 -11.7118,5.2957 -17.0312,8.3124 -2.2915,10.2232 -3.5313,21.4288 -3.5313,33.1876 0,11.7587 1.2398,22.9643 3.5313,33.1874 5.3194,3.0168 11.0149,5.8584 17.0312,8.3126 -3.9727,-12.0938 -6.2812,-26.3049 -6.2812,-41.5 0,-15.1951 2.3085,-29.4063 6.2812,-41.5 z"
     id="path3262-35"
     inkscape:connector-curvature="0" /><path
     style="fill:#ffff00;stroke:none"
     d="m 2884.7188,1687.9688 c -6.3721,1.4726 -12.4989,3.4907 -18.3438,5.875 -3.9727,12.0937 -6.2812,26.3049 -6.2812,41.5 0,15.1951 2.3085,29.4062 6.2812,41.5 5.8449,2.3842 11.9717,4.4023 18.3438,5.875 -5.8936,-12.7301 -9.4688,-29.2752 -9.4688,-47.375 0,-18.0999 3.5752,-34.645 9.4688,-47.375 z"
     id="path3262-5"
     inkscape:connector-curvature="0" /><path
     style="fill:#ffd5d5;stroke:none"
     d="m 2904.125,1685.375 c -6.6536,0.2066 -13.1391,1.1454 -19.4062,2.5938 -5.8936,12.73 -9.4688,29.2751 -9.4688,47.375 0,18.0998 3.5752,34.6449 9.4688,47.375 6.2671,1.4483 12.7526,2.3871 19.4062,2.5937 -7.69,-11.9369 -12.5938,-29.8909 -12.5938,-49.9687 0,-20.0793 4.9028,-38.0319 12.5938,-49.9688 z"
     id="path3262-7"
     inkscape:connector-curvature="0" /><path
     style="fill:#ffff00;stroke:none"
     d="m 2907,1685.3438 c -0.9574,0 -1.924,0 -2.875,0.031 -7.691,11.9369 -12.5938,29.8895 -12.5938,49.9688 0,20.0778 4.9038,38.0318 12.5938,49.9687 0.951,0.03 1.9176,0.031 2.875,0.031 5.8386,0 11.5627,-0.5648 17.125,-1.5626 -8.7739,-9.929 -14.625,-27.9192 -14.625,-48.4374 0,-20.5413 5.8661,-38.5154 14.6562,-48.4376 -5.5728,-1.0034 -11.3065,-1.5624 -17.1562,-1.5624 z"
     id="path3262-6"
     inkscape:connector-curvature="0" /><path
     style="fill:#ffd5d5;stroke:none"
     d="m 2924.1562,1686.9062 c -8.7901,9.9222 -14.6562,27.8963 -14.6562,48.4376 0,20.5182 5.8511,38.5084 14.625,48.4374 7.2651,-1.3031 14.2381,-3.3636 20.875,-5.9062 -8.6321,-7.3792 -14.6562,-23.6325 -14.6562,-42.5312 0,-18.8856 6.0026,-35.1448 14.625,-42.5313 -6.6174,-2.5363 -13.5713,-4.6023 -20.8126,-5.9063 z"
     id="path3262-3"
     inkscape:connector-curvature="0" /><path
     style="fill:#ffff00;stroke:none"
     d="m 2950.875,1355.2188 c -5.311,9.9605 -8.625,24.2514 -8.625,40.125 0,15.8718 3.315,30.1645 8.625,40.125 6.5804,-2.8849 12.7639,-6.1907 18.4375,-9.6563 -1.2037,0.6248 -2.483,0.9687 -3.7813,0.9687 -8.4519,0 -15.3124,-14.0831 -15.3124,-31.4374 0,-17.3545 6.8605,-31.4063 15.3124,-31.4063 1.2313,0 2.4468,0.2801 3.5938,0.8437 -5.6203,-3.4228 -11.7438,-6.707 -18.25,-9.5624 z"
     id="path3958-62"
     inkscape:connector-curvature="0"
     sodipodi:nodetypes="csccssscc" /><path
     style="fill:#ffd5d5;stroke:none"
     d="m 2932.5938,1348.7812 c -7.6999,9.5656 -12.8438,26.8329 -12.8438,46.5626 0,19.7071 5.1272,36.9903 12.8125,46.5624 6.3773,-1.6791 12.5014,-3.8899 18.3125,-6.4374 -5.31,-9.9605 -8.625,-24.2532 -8.625,-40.125 0,-15.8736 3.314,-30.1645 8.625,-40.125 -5.8022,-2.5465 -11.9145,-4.756 -18.2812,-6.4376 z"
     id="path3958-35"
     inkscape:connector-curvature="0"
     sodipodi:nodetypes="csccscc" /><path
     style="fill:#ffff00;stroke:none"
     d="m 2913.0938,1345.5625 c -9.34,8.4957 -15.8438,27.5802 -15.8438,49.7813 0,22.2267 6.5176,41.3315 15.875,49.8124 6.6767,-0.4399 13.1799,-1.6023 19.4375,-3.25 -7.6853,-9.5721 -12.8125,-26.8553 -12.8125,-46.5624 0,-19.7297 5.1439,-36.997 12.8438,-46.5626 -6.2793,-1.6584 -12.7992,-2.7785 -19.5,-3.2187 z"
     id="path3958-5"
     inkscape:connector-curvature="0"
     sodipodi:nodetypes="csccscc" /><path
     style="fill:#ffd5d5;stroke:none"
     d="m 2907,1345.3438 c -6.1162,0 -12.0932,0.5969 -17.9062,1.6874 -8.5369,9.0994 -14.3438,27.3096 -14.3438,48.3126 0,20.9691 5.798,39.1672 14.3125,48.2812 5.8244,1.0948 11.8087,1.7188 17.9375,1.7188 2.0603,0 4.0959,-0.054 6.125,-0.1876 -9.3574,-8.4809 -15.875,-27.5857 -15.875,-49.8124 0,-22.2011 6.5038,-41.2856 15.8438,-49.7813 -2.0178,-0.1325 -4.0453,-0.2187 -6.0938,-0.2187 z"
     id="path3958-7"
     inkscape:connector-curvature="0"
     sodipodi:nodetypes="scscscscs" /><path
     style="fill:#ffff00;stroke:none"
     d="m 2889.0938,1347.0312 c -10.2666,1.9262 -19.9872,5.344 -28.9063,9.5 -4.9172,9.8837 -7.9375,23.6212 -7.9375,38.8126 0,15.1673 3.0339,28.901 7.9375,38.7812 8.9118,4.1536 18.6172,7.5718 28.875,9.5 -8.5145,-9.114 -14.3125,-27.3121 -14.3125,-48.2812 0,-21.003 5.8069,-39.2132 14.3438,-48.3126 z"
     id="path3958-6"
     inkscape:connector-curvature="0"
     sodipodi:nodetypes="ccsccsc" /><path
     style="fill:#ffd5d5;stroke:none"
     d="m 2860.1875,1356.5312 c -10.6991,4.9855 -20.2401,11.0489 -28.1875,16.875 -1.4495,6.713 -2.25,14.1319 -2.25,21.9376 0,7.8056 0.8005,15.2245 2.25,21.9374 7.9445,5.824 17.4932,11.8594 28.1875,16.8438 -4.9036,-9.8802 -7.9375,-23.6139 -7.9375,-38.7812 0,-15.1914 3.0203,-28.9289 7.9375,-38.8126 z"
     id="path3958-3"
     inkscape:connector-curvature="0"
     sodipodi:nodetypes="ccsccsc" /><path
     style="fill:#ffff00;stroke:none"
     d="m 2832,1373.4062 c -15.0754,11.0516 -24.226,21.0729 -24.7812,21.6876 -2e-4,0.084 0,0.1654 0,0.25 0,0.083 -2e-4,0.1665 0,0.25 0.5552,0.6146 9.7058,10.6359 24.7812,21.6874 -1.4495,-6.7129 -2.25,-14.1318 -2.25,-21.9374 0,-7.8057 0.8005,-15.2246 2.25,-21.9376 z"
     id="path3958"
     inkscape:connector-curvature="0"
     sodipodi:nodetypes="ccsccsc" /><path
     style="fill:#ffff00;stroke:none;display:inline"
     d="m 2933.5938,1488.7812 c -7.6999,9.5656 -12.8438,26.8329 -12.8438,46.5626 0,19.7071 5.1272,36.9903 12.8125,46.5624 13.5989,-3.5806 26.066,-9.5676 36.75,-16.0937 -1.2037,0.6248 -2.483,0.9687 -3.7813,0.9687 -8.4519,0 -15.3124,-14.0831 -15.3124,-31.4374 0,-17.3545 6.8605,-31.4063 15.3124,-31.4063 1.2313,0 2.4468,0.2801 3.5938,0.8437 -10.6324,-6.4753 -23.0253,-12.4329 -36.5312,-16 z"
     id="path4162-6"
     inkscape:connector-curvature="0"
     sodipodi:nodetypes="csccssscc" /><path
     style="fill:#ffd5d5;stroke:none;display:inline"
     d="m 2908,1485.3438 c -6.1162,0 -12.0932,0.5969 -17.9062,1.6874 -8.5369,9.0994 -14.3438,27.3096 -14.3438,48.3126 0,20.9691 5.798,39.1672 14.3125,48.2812 5.8244,1.0948 11.8087,1.7188 17.9375,1.7188 8.8396,0 17.4031,-1.2891 25.5625,-3.4376 -7.6853,-9.5721 -12.8125,-26.8553 -12.8125,-46.5624 0,-19.7297 5.1439,-36.997 12.8438,-46.5626 -8.1702,-2.1578 -16.7423,-3.4374 -25.5938,-3.4374 z"
     id="path4162-3"
     inkscape:connector-curvature="0"
     sodipodi:nodetypes="scscscscs" /><path
     style="fill:#ffff00;stroke:none"
     d="m 2890.0938,1487.0312 c -22.5821,4.2367 -42.5211,15.6921 -57.0938,26.375 -1.4495,6.713 -2.25,14.1319 -2.25,21.9376 0,7.8056 0.8005,15.2245 2.25,21.9374 14.5649,10.6773 34.4953,22.1018 57.0625,26.3438 -8.5145,-9.114 -14.3125,-27.3121 -14.3125,-48.2812 0,-21.003 5.8069,-39.2132 14.3438,-48.3126 z"
     id="path4162"
     inkscape:connector-curvature="0"
     sodipodi:nodetypes="ccsccsc" /><path
     style="fill:#ffd5d5;stroke:none"
     d="m 2833,1513.4062 c -15.5499,11.3994 -25,21.9376 -25,21.9376 0,0 9.4501,10.5381 25,21.9374 -1.4495,-6.7129 -2.25,-14.1318 -2.25,-21.9374 0,-7.8057 0.8005,-15.2246 2.25,-21.9376 z"
     id="path4159"
     inkscape:connector-curvature="0"
     sodipodi:nodetypes="cccsc" /><path
     sodipodi:nodetypes="csccscc"
     id="path4137"
     d="m 2584.96,1589.8538 c -14.7612,0 -26.7276,-24.4006 -26.7276,-54.5 0,-30.0995 11.9664,-54.5 26.7276,-54.5 l 42.5036,0 c -14.7612,0 -26.7276,24.4005 -26.7276,54.5 0,30.0994 11.9664,54.5 26.7276,54.5 z"
     style="fill:#ffd5d5;stroke:none"
     inkscape:connector-curvature="0" /><path
     inkscape:connector-curvature="0"
     style="fill:#ffff00;stroke:none"
     d="m 2672.4711,1589.8538 c -14.7612,0 -26.7276,-24.4006 -26.7276,-54.5 0,-30.0995 11.9664,-54.5 26.7276,-54.5 l -45.0075,0 c -14.7612,0 -26.7276,24.4005 -26.7276,54.5 0,30.0994 11.9664,54.5 26.7276,54.5 z"
     id="path4133"
     sodipodi:nodetypes="csccscc" /><path
     inkscape:connector-curvature="0"
     style="fill:#ffd5d5;stroke:none"
     d="m 2717.4786,1589.8538 c -14.7612,0 -26.7276,-24.4006 -26.7276,-54.5 0,-30.0995 11.9664,-54.5 26.7276,-54.5 l -45.0075,0 c -14.7612,0 -26.7276,24.4005 -26.7276,54.5 0,30.0994 11.9664,54.5 26.7276,54.5 z"
     id="path4131"
     sodipodi:nodetypes="csccscc" /><path
     sodipodi:nodetypes="csccscc"
     id="path4141"
     d="m 2717.4786,1589.8538 c -14.7612,0 -26.7276,-24.4006 -26.7276,-54.5 0,-30.0995 11.9664,-54.5 26.7276,-54.5 l 45.0075,0 c -14.7612,0 -26.7276,24.4005 -26.7276,54.5 0,30.0994 11.9664,54.5 26.7276,54.5 z"
     style="fill:#ffff00;stroke:none"
     inkscape:connector-curvature="0" /><path
     sodipodi:nodetypes="csccscc"
     id="path4070"
     d="m 2626.4636,1449.8538 c -14.7612,0 -26.7276,-24.4006 -26.7276,-54.5 0,-30.0995 11.9664,-54.5 26.7276,-54.5 l -22.5036,0 c -14.7612,0 -26.7276,24.4005 -26.7276,54.5 0,30.0994 11.9664,54.5 26.7276,54.5 z"
     style="fill:#ffff00;stroke:none"
     inkscape:connector-curvature="0" /><path
     inkscape:connector-curvature="0"
     style="fill:#ffd5d5;stroke:none"
     d="m 2648.9674,1340.8538 c -14.7612,0 -26.7276,24.4005 -26.7276,54.5 0,30.0994 11.9664,54.5 26.7276,54.5 l -22.5038,0 c -14.7612,0 -26.7276,-24.4006 -26.7276,-54.5 0,-30.0995 11.9664,-54.5 26.7276,-54.5 z"
     id="path4068"
     sodipodi:nodetypes="csccscc" /><path
     sodipodi:nodetypes="csccscc"
     id="path4066"
     d="m 2671.4711,1340.8538 c -14.7612,0 -26.7276,24.4005 -26.7276,54.5 0,30.0994 11.9664,54.5 26.7276,54.5 l -22.5037,0 c -14.7612,0 -26.7276,-24.4006 -26.7276,-54.5 0,-30.0995 11.9664,-54.5 26.7276,-54.5 z"
     style="fill:#ffff00;stroke:none"
     inkscape:connector-curvature="0" /><path
     inkscape:connector-curvature="0"
     style="fill:#ffd5d5;stroke:none"
     d="m 2671.4711,1340.8538 c -14.7612,0 -26.7276,24.4005 -26.7276,54.5 0,30.0994 11.9664,54.5 26.7276,54.5 l 22.5038,0 c -14.7612,0 -26.7276,-24.4006 -26.7276,-54.5 0,-30.0995 11.9664,-54.5 26.7276,-54.5 z"
     id="path4082"
     sodipodi:nodetypes="csccscc" /><path
     sodipodi:nodetypes="csccscc"
     id="path4080"
     d="m 2693.9749,1340.8538 c -14.7612,0 -26.7276,24.4005 -26.7276,54.5 0,30.0994 11.9664,54.5 26.7276,54.5 l 22.5037,0 c -14.7612,0 -26.7276,-24.4006 -26.7276,-54.5 0,-30.0995 11.9664,-54.5 26.7276,-54.5 z"
     style="fill:#ffff00;stroke:none"
     inkscape:connector-curvature="0" /><path
     inkscape:connector-curvature="0"
     style="fill:#ffd5d5;stroke:none"
     d="m 2716.4786,1340.8538 c -14.7612,0 -26.7276,24.4005 -26.7276,54.5 0,30.0994 11.9664,54.5 26.7276,54.5 l 22.5037,0 c -14.7612,0 -26.7276,-24.4006 -26.7276,-54.5 0,-30.0995 11.9664,-54.5 26.7276,-54.5 z"
     id="path4078"
     sodipodi:nodetypes="csccscc" /><path
     sodipodi:nodetypes="csccscc"
     id="path4076"
     d="m 2738.9823,1340.8538 c -14.7612,0 -26.7276,24.4005 -26.7276,54.5 0,30.0994 11.9664,54.5 26.7276,54.5 l 22.5038,0 c -14.7612,0 -26.7276,-24.4006 -26.7276,-54.5 0,-30.0995 11.9664,-54.5 26.7276,-54.5 z"
     style="fill:#ffff00;stroke:none"
     inkscape:connector-curvature="0" /><path
     inkscape:connector-curvature="0"
     style="fill:#ffd5d5;stroke:none"
     d="m 1760.7107,1267.0644 c 36.6883,-37.4134 38.4572,-99.7877 0,-141.4213 l 50,0 c 38.4572,41.6336 36.6883,104.0079 0,141.4213 z"
     id="path3925"
     sodipodi:nodetypes="ccccc" /><path
     inkscape:connector-curvature="0"
     style="fill:#ffff00;stroke:none"
     d="m 1840.7107,1267.0644 c 36.6883,-37.4134 38.4572,-99.7877 0,-141.4213 l -30,0 c 38.4572,41.6336 36.6883,104.0079 0,141.4213 z"
     id="path3921"
     sodipodi:nodetypes="ccccc" /><path
     sodipodi:nodetypes="ccccc"
     id="path3919"
     d="m 1870.7107,1267.0644 c 36.6883,-37.4134 38.4572,-99.7877 0,-141.4213 l -30,0 c 38.4572,41.6336 36.6883,104.0079 0,141.4213 z"
     style="fill:#ffd5d5;stroke:none"
     inkscape:connector-curvature="0" /><path
     inkscape:connector-curvature="0"
     style="fill:#ffff00;stroke:none"
     d="m 1900.7107,1267.0644 c 36.6883,-37.4134 38.4572,-99.7877 0,-141.4213 l -30,0 c 38.4572,41.6336 36.6883,104.0079 0,141.4213 z"
     id="path3917"
     sodipodi:nodetypes="ccccc" /><path
     sodipodi:nodetypes="ccccc"
     id="path3933"
     d="m 1900.7107,1267.0644 c 36.6883,-37.4134 38.4572,-99.7877 0,-141.4213 l 30,0 c 38.4572,41.6336 36.6883,104.0079 0,141.4213 z"
     style="fill:#ffd5d5;stroke:none"
     inkscape:connector-curvature="0" /><path
     inkscape:connector-curvature="0"
     style="fill:#ffff00;stroke:none"
     d="m 1970.7107,1267.0644 c 36.6883,-37.4134 38.4572,-99.7877 0,-141.4213 l -40,0 c 38.4572,41.6336 36.6883,104.0079 0,141.4213 z"
     id="path3929"
     sodipodi:nodetypes="ccccc" /><path
     inkscape:connector-curvature="0"
     style="fill:#ffff00;stroke:none"
     d="m 1450,985.3538 c 0,55.2284 -44.7714,100 -99.9999,100 -55.2285,0 -100.0001,-44.7716 -100.0001,-100 0,-55.22851 44.7716,-100.00004 100.0001,-100.00004 55.2285,0 99.9999,44.77153 99.9999,100.00004 z"
     id="path3094"
     sodipodi:nodetypes="sssss" /><path
     id="path3885"
     d="m 1690,985.3538 c 0,55.2284 -44.7714,100 -99.9999,100 -55.2285,0 -100.0001,-44.7716 -100.0001,-100 0,-55.22851 44.7716,-100.00004 100.0001,-100.00004 55.2285,0 99.9999,44.77153 99.9999,100.00004 z"
     style="fill:#ffff00;stroke:#000000;stroke-width:1px"
     inkscape:connector-curvature="0"
     sodipodi:nodetypes="sssss" /><path
     inkscape:connector-curvature="0"
     style="fill:none;stroke:#000000;stroke-width:1px"
     d="m 1994,985.3538 c 0,0 -44.7714,50 -99.9999,50 -55.2285,0 -100.0001,-50 -100.0001,-50 0,0 44.7716,-50.00004 100.0001,-50.00004 55.2285,0 99.9999,50.00004 99.9999,50.00004 z"
     id="path3887"
     sodipodi:nodetypes="cscsc" /><path
     sodipodi:nodetypes="cc"
     id="path3899"
     d="m 1900.7107,914.64309 c 38.4572,41.63359 36.6883,104.00791 0,141.42131"
     style="fill:none;stroke:#0000ff;stroke-width:1px"
     inkscape:connector-curvature="0" /><path
     inkscape:connector-curvature="0"
     style="fill:none;stroke:#0000ff;stroke-width:1px"
     d="m 1870.7107,914.64309 c 38.4572,41.63359 36.6883,104.00791 0,141.42131"
     id="path3903"
     sodipodi:nodetypes="cc" /><path
     sodipodi:nodetypes="cc"
     id="path3905"
     d="m 1840.7107,914.64309 c 38.4572,41.63359 36.6883,104.00791 0,141.42131"
     style="fill:none;stroke:#0000ff;stroke-width:1px"
     inkscape:connector-curvature="0" /><path
     inkscape:connector-curvature="0"
     style="fill:none;stroke:#0000ff;stroke-width:1px"
     d="m 1810.7107,914.64309 c 38.4572,41.63359 36.6883,104.00791 0,141.42131"
     id="path3907"
     sodipodi:nodetypes="cc" /><path
     sodipodi:nodetypes="cc"
     id="path3909"
     d="m 1780.7107,914.64309 c 38.4572,41.63359 36.6883,104.00791 0,141.42131"
     style="fill:none;stroke:#0000ff;stroke-width:1px"
     inkscape:connector-curvature="0" /><path
     inkscape:connector-curvature="0"
     style="fill:none;stroke:#0000ff;stroke-width:1px"
     d="m 1930.7107,914.64309 c 38.4572,41.63359 36.6883,104.00791 0,141.42131"
     id="path3911"
     sodipodi:nodetypes="cc" /><path
     sodipodi:nodetypes="cc"
     id="path3913"
     d="m 1960.7107,914.64309 c 38.4572,41.63359 36.6883,104.00791 0,141.42131"
     style="fill:none;stroke:#0000ff;stroke-width:1px"
     inkscape:connector-curvature="0" /><path
     sodipodi:nodetypes="cscsc"
     id="path3915"
     d="m 1994,1196.3538 c 0,0 -44.7714,50 -99.9999,50 -55.2285,0 -100.0001,-50 -100.0001,-50 0,0 44.7716,-50 100.0001,-50 55.2285,0 99.9999,50 99.9999,50 z"
     style="fill:none;stroke:#000000;stroke-width:1px"
     inkscape:connector-curvature="0" /><path
     sodipodi:nodetypes="cscsc"
     id="path3945"
     d="m 2287,985.3538 c 0,0 -44.7714,50 -99.9999,50 -55.2285,0 -100.0001,-50 -100.0001,-50 0,0 44.7716,-50.00004 100.0001,-50.00004 55.2285,0 99.9999,50.00004 99.9999,50.00004 z"
     style="fill:none;stroke:#000000;stroke-width:1px"
     inkscape:connector-curvature="0" /><path
     inkscape:connector-curvature="0"
     style="fill:#0000ff;stroke:#ff0000;stroke-width:0.99999994px"
     d="m 2237,985.35378 c 0,27.61422 -22.3857,50.00002 -50,50.00002 -27.6143,0 -50,-22.3858 -50,-50.00002 0,-27.61423 22.3857,-50 50,-50 27.6143,0 50,22.38577 50,50 z"
     id="path3947"
     sodipodi:nodetypes="sssss" /><path
     inkscape:connector-curvature="0"
     style="fill:none;stroke:#000000;stroke-width:1px"
     d="m 2287,1125.3538 c 0,0 -44.7714,50 -99.9999,50 -55.2285,0 -100.0001,-50 -100.0001,-50 0,0 44.7716,-50 100.0001,-50 55.2285,0 99.9999,50 99.9999,50 z"
     id="path3955"
     sodipodi:nodetypes="cscsc" /><path
     id="path3957"
     d="m 2260.8397,1125.3538 c 0,17.3545 -6.8516,31.4232 -15.3036,31.4232 -8.4519,0 -15.3035,-14.0687 -15.3035,-31.4232 0,-17.3545 6.8516,-31.4232 15.3035,-31.4232 8.452,0 15.3036,14.0687 15.3036,31.4232 z"
     style="fill:#0000ff;stroke:#ff0000;stroke-width:0.99999994px"
     inkscape:connector-curvature="0"
     sodipodi:nodetypes="sssss" /><path
     style="fill:none;stroke:#000000;stroke-width:1px;stroke-linecap:round;stroke-linejoin:round"
     d="m 2437,1075.3438 c -55.2285,0 -100,50 -100,50 0,0 44.7715,50 100,50 23.5724,0 45.2181,-9.0895 62.3125,-19.5313 -1.2037,0.6248 -2.483,0.9687 -3.7813,0.9687 -8.4519,0 -15.3124,-14.083 -15.3124,-31.4374 0,-17.3545 6.8605,-31.4063 15.3124,-31.4063 1.2312,0 2.4468,0.28 3.5938,0.8437 -17.0643,-10.3925 -38.6411,-19.4374 -62.125,-19.4374 z"
     id="path3972"
     inkscape:connector-curvature="0"
     sodipodi:nodetypes="scscssscs" /><path
     inkscape:connector-curvature="0"
     style="fill:#0000ff;stroke:#ff0000;stroke-width:0.99999994px"
     d="m 2510.8397,1125.3538 c 0,17.3545 -6.8516,31.4232 -15.3036,31.4232 -8.4519,0 -15.3035,-14.0687 -15.3035,-31.4232 0,-17.3545 6.8516,-31.4232 15.3035,-31.4232 8.452,0 15.3036,14.0687 15.3036,31.4232 z"
     id="path3974"
     sodipodi:nodetypes="sssss" /><path
     sodipodi:nodetypes="scscssscs"
     inkscape:connector-curvature="0"
     id="path3994"
     d="m 2437,1205.3438 c -55.2285,0 -100,50 -100,50 0,0 44.7715,50 100,50 23.5724,0 45.2181,-9.0895 62.3125,-19.5313 -1.2037,0.6248 -2.483,0.9687 -3.7813,0.9687 -8.4519,0 -15.3124,-14.083 -15.3124,-31.4374 0,-17.3545 6.8605,-31.4063 15.3124,-31.4063 1.2312,0 2.4468,0.28 3.5938,0.8437 -17.0643,-10.3925 -38.6411,-19.4374 -62.125,-19.4374 z"
     style="fill:none;stroke:#000000;stroke-width:1px;stroke-linecap:round;stroke-linejoin:round" /><path
     id="path3996"
     d="m 2510.8397,1255.3538 c 0,17.3545 -6.8516,31.4232 -15.3036,31.4232 -8.4519,0 -15.3035,-14.0687 -15.3035,-31.4232 0,-17.3545 6.8516,-31.4232 15.3035,-31.4232 8.452,0 15.3036,14.0687 15.3036,31.4232 z"
     style="fill:#0000ff;stroke:#ff0000;stroke-width:0.99999994px"
     inkscape:connector-curvature="0"
     sodipodi:nodetypes="sssss" /><path
     inkscape:connector-curvature="0"
     style="fill:none;stroke:#00ff00;stroke-width:0.99999988px"
     d="m 2486.5237,1309.8538 c -14.7612,0 -26.7276,-24.4006 -26.7276,-54.5 0,-30.0995 11.9664,-54.5 26.7276,-54.5"
     id="path3998"
     sodipodi:nodetypes="csc" /><path
     sodipodi:nodetypes="csc"
     id="path4000"
     d="m 2466.0963,1309.8538 c -14.7612,0 -26.7276,-24.4006 -26.7276,-54.5 0,-30.0995 11.9664,-54.5 26.7276,-54.5"
     style="fill:none;stroke:#00ff00;stroke-width:0.99999988px"
     inkscape:connector-curvature="0" /><path
     inkscape:connector-curvature="0"
     style="fill:none;stroke:#00ff00;stroke-width:0.99999988px"
     d="m 2445.669,1309.8538 c -14.7612,0 -26.7276,-24.4006 -26.7276,-54.5 0,-30.0995 11.9664,-54.5 26.7276,-54.5"
     id="path4002"
     sodipodi:nodetypes="csc" /><path
     sodipodi:nodetypes="csc"
     id="path4004"
     d="m 2425.2419,1309.8538 c -14.7612,0 -26.7276,-24.4006 -26.7276,-54.5 0,-30.0995 11.9664,-54.5 26.7276,-54.5"
     style="fill:none;stroke:#00ff00;stroke-width:0.99999988px"
     inkscape:connector-curvature="0" /><path
     inkscape:connector-curvature="0"
     style="fill:none;stroke:#00ff00;stroke-width:0.99999988px"
     d="m 2404.8145,1309.8538 c -14.7612,0 -26.7276,-24.4006 -26.7276,-54.5 0,-30.0995 11.9664,-54.5 26.7276,-54.5"
     id="path4006"
     sodipodi:nodetypes="csc" /><path
     sodipodi:nodetypes="csc"
     id="path4008"
     d="m 2384.3871,1309.8538 c -14.7612,0 -26.7276,-24.4006 -26.7276,-54.5 0,-30.0995 11.9664,-54.5 26.7276,-54.5"
     style="fill:none;stroke:#00ff00;stroke-width:0.99999988px"
     inkscape:connector-curvature="0" /><path
     inkscape:connector-curvature="0"
     style="fill:none;stroke:#00ff00;stroke-width:0.99999988px"
     d="m 2363.96,1309.8538 c -14.7612,0 -26.7276,-24.4006 -26.7276,-54.5 0,-30.0995 11.9664,-54.5 26.7276,-54.5"
     id="path4010"
     sodipodi:nodetypes="csc" /><path
     sodipodi:nodetypes="csc"
     id="path4014"
     d="m 2506.9509,1309.8538 c -14.7612,0 -26.7276,-24.4006 -26.7276,-54.5 0,-30.0995 11.9664,-54.5 26.7276,-54.5"
     style="fill:none;stroke:#00ff00;stroke-width:0.99999988px"
     inkscape:connector-curvature="0" /><path
     style="fill:none;stroke:#000000;stroke-width:1px;stroke-linecap:round;stroke-linejoin:round"
     d="m 2437,1345.3438 c -55.2285,0 -100,50 -100,50 0,0 44.7715,50 100,50 23.5724,0 45.2181,-9.0895 62.3125,-19.5313 -1.2037,0.6248 -2.483,0.9687 -3.7813,0.9687 -8.4519,0 -15.3124,-14.083 -15.3124,-31.4374 0,-17.3545 6.8605,-31.4063 15.3124,-31.4063 1.2312,0 2.4468,0.28 3.5938,0.8437 -17.0643,-10.3925 -38.6411,-19.4374 -62.125,-19.4374 z"
     id="path4036"
     inkscape:connector-curvature="0"
     sodipodi:nodetypes="scscssscs" /><path
     inkscape:connector-curvature="0"
     style="fill:#0000ff;stroke:#ff0000;stroke-width:0.99999994px"
     d="m 2510.8397,1395.3538 c 0,17.3545 -6.8516,31.4232 -15.3036,31.4232 -8.4519,0 -15.3035,-14.0687 -15.3035,-31.4232 0,-17.3545 6.8516,-31.4232 15.3035,-31.4232 8.452,0 15.3036,14.0687 15.3036,31.4232 z"
     id="path4038"
     sodipodi:nodetypes="sssss" /><path
     sodipodi:nodetypes="csc"
     id="path4040"
     d="m 2498.9823,1449.8538 c -14.7612,0 -26.7276,-24.4006 -26.7276,-54.5 0,-30.0995 11.9664,-54.5 26.7276,-54.5"
     style="fill:none;stroke:#00ff00;stroke-width:0.99999988px"
     inkscape:connector-curvature="0" /><path
     inkscape:connector-curvature="0"
     style="fill:none;stroke:#00ff00;stroke-width:0.99999988px"
     d="m 2476.4786,1449.8538 c -14.7612,0 -26.7276,-24.4006 -26.7276,-54.5 0,-30.0995 11.9664,-54.5 26.7276,-54.5"
     id="path4042"
     sodipodi:nodetypes="csc" /><path
     sodipodi:nodetypes="csc"
     id="path4044"
     d="m 2453.9749,1449.8538 c -14.7612,0 -26.7276,-24.4006 -26.7276,-54.5 0,-30.0995 11.9664,-54.5 26.7276,-54.5"
     style="fill:none;stroke:#00ff00;stroke-width:0.99999988px"
     inkscape:connector-curvature="0" /><path
     inkscape:connector-curvature="0"
     style="fill:none;stroke:#00ff00;stroke-width:0.99999988px"
     d="m 2431.4711,1449.8538 c -14.7612,0 -26.7276,-24.4006 -26.7276,-54.5 0,-30.0995 11.9664,-54.5 26.7276,-54.5"
     id="path4046"
     sodipodi:nodetypes="csc" /><path
     sodipodi:nodetypes="csc"
     id="path4048"
     d="m 2408.9674,1449.8538 c -14.7612,0 -26.7276,-24.4006 -26.7276,-54.5 0,-30.0995 11.9664,-54.5 26.7276,-54.5"
     style="fill:none;stroke:#00ff00;stroke-width:0.99999988px"
     inkscape:connector-curvature="0" /><path
     inkscape:connector-curvature="0"
     style="fill:none;stroke:#00ff00;stroke-width:0.99999988px"
     d="m 2386.4636,1449.8538 c -14.7612,0 -26.7276,-24.4006 -26.7276,-54.5 0,-30.0995 11.9664,-54.5 26.7276,-54.5"
     id="path4050"
     sodipodi:nodetypes="csc" /><path
     sodipodi:nodetypes="csc"
     id="path4052"
     d="m 2363.96,1449.8538 c -14.7612,0 -26.7276,-24.4006 -26.7276,-54.5 0,-30.0995 11.9664,-54.5 26.7276,-54.5"
     style="fill:none;stroke:#00ff00;stroke-width:0.99999988px"
     inkscape:connector-curvature="0" /><path
     inkscape:connector-curvature="0"
     style="fill:none;stroke:#00ff00;stroke-width:0.99999988px"
     d="m 2521.4861,1449.8538 c -14.7612,0 -26.7276,-24.4006 -26.7276,-54.5 0,-30.0995 11.9664,-54.5 26.7276,-54.5"
     id="path4054"
     sodipodi:nodetypes="csc" /><path
     sodipodi:nodetypes="scscssscs"
     inkscape:connector-curvature="0"
     id="path4056"
     d="m 2677,1345.3438 c -55.2285,0 -100,50 -100,50 0,0 44.7715,50 100,50 23.5724,0 45.2181,-9.0895 62.3125,-19.5313 -1.2037,0.6248 -2.483,0.9687 -3.7813,0.9687 -8.4519,0 -15.3124,-14.083 -15.3124,-31.4374 0,-17.3545 6.8605,-31.4063 15.3124,-31.4063 1.2312,0 2.4468,0.28 3.5938,0.8437 -17.0643,-10.3925 -38.6411,-19.4374 -62.125,-19.4374 z"
     style="fill:none;stroke:#000000;stroke-width:1px;stroke-linecap:round;stroke-linejoin:round" /><path
     id="path4058"
     d="m 2750.8397,1395.3538 c 0,17.3545 -6.8516,31.4232 -15.3036,31.4232 -8.4519,0 -15.3035,-14.0687 -15.3035,-31.4232 0,-17.3545 6.8516,-31.4232 15.3035,-31.4232 8.452,0 15.3036,14.0687 15.3036,31.4232 z"
     style="fill:#0000ff;stroke:#ff0000;stroke-width:0.99999994px"
     inkscape:connector-curvature="0"
     sodipodi:nodetypes="sssss" /><path
     sodipodi:nodetypes="scscssscs"
     inkscape:connector-curvature="0"
     id="path4088"
     d="m 2437,1485.3438 c -55.2285,0 -100,50 -100,50 0,0 44.7715,50 100,50 23.5724,0 45.2181,-9.0895 62.3125,-19.5313 -1.2037,0.6248 -2.483,0.9687 -3.7813,0.9687 -8.4519,0 -15.3124,-14.083 -15.3124,-31.4374 0,-17.3545 6.8605,-31.4063 15.3124,-31.4063 1.2312,0 2.4468,0.28 3.5938,0.8437 -17.0643,-10.3925 -38.6411,-19.4374 -62.125,-19.4374 z"
     style="fill:none;stroke:#000000;stroke-width:1px;stroke-linecap:round;stroke-linejoin:round" /><path
     id="path4090"
     d="m 2510.8397,1535.3538 c 0,17.3545 -6.8516,31.4232 -15.3036,31.4232 -8.4519,0 -15.3035,-14.0687 -15.3035,-31.4232 0,-17.3545 6.8516,-31.4232 15.3035,-31.4232 8.452,0 15.3036,14.0687 15.3036,31.4232 z"
     style="fill:#0000ff;stroke:#ff0000;stroke-width:0.99999994px"
     inkscape:connector-curvature="0"
     sodipodi:nodetypes="sssss" /><path
     sodipodi:nodetypes="csc"
     id="path4094"
     d="m 2476.4786,1589.8538 c -14.7612,0 -26.7276,-24.4006 -26.7276,-54.5 0,-30.0995 11.9664,-54.5 26.7276,-54.5"
     style="fill:none;stroke:#00ff00;stroke-width:0.99999988px"
     inkscape:connector-curvature="0" /><path
     sodipodi:nodetypes="csc"
     id="path4098"
     d="m 2431.4711,1589.8538 c -14.7612,0 -26.7276,-24.4006 -26.7276,-54.5 0,-30.0995 11.9664,-54.5 26.7276,-54.5"
     style="fill:none;stroke:#00ff00;stroke-width:0.99999988px"
     inkscape:connector-curvature="0" /><path
     sodipodi:nodetypes="csc"
     id="path4102"
     d="m 2386.4636,1589.8538 c -14.7612,0 -26.7276,-24.4006 -26.7276,-54.5 0,-30.0995 11.9664,-54.5 26.7276,-54.5"
     style="fill:none;stroke:#00ff00;stroke-width:0.99999988px"
     inkscape:connector-curvature="0" /><path
     inkscape:connector-curvature="0"
     style="fill:none;stroke:#00ff00;stroke-width:0.99999988px"
     d="m 2343.96,1589.8538 c -14.7612,0 -26.7276,-24.4006 -26.7276,-54.5 0,-30.0995 11.9664,-54.5 26.7276,-54.5"
     id="path4104"
     sodipodi:nodetypes="csc" /><path
     sodipodi:nodetypes="csc"
     id="path4106"
     d="m 2521.4861,1589.8538 c -14.7612,0 -26.7276,-24.4006 -26.7276,-54.5 0,-30.0995 11.9664,-54.5 26.7276,-54.5"
     style="fill:none;stroke:#00ff00;stroke-width:0.99999988px"
     inkscape:connector-curvature="0" /><path
     style="fill:none;stroke:#000000;stroke-width:1px;stroke-linecap:round;stroke-linejoin:round"
     d="m 2678,1485.3438 c -55.2285,0 -100,50 -100,50 0,0 44.7715,50 100,50 23.5724,0 45.2181,-9.0895 62.3125,-19.5313 -1.2037,0.6248 -2.483,0.9687 -3.7813,0.9687 -8.4519,0 -15.3124,-14.083 -15.3124,-31.4374 0,-17.3545 6.8605,-31.4063 15.3124,-31.4063 1.2312,0 2.4468,0.28 3.5938,0.8437 -17.0643,-10.3925 -38.6411,-19.4374 -62.125,-19.4374 z"
     id="path4127"
     inkscape:connector-curvature="0"
     sodipodi:nodetypes="scscssscs" /><path
     inkscape:connector-curvature="0"
     style="fill:#0000ff;stroke:#ff0000;stroke-width:0.99999994px"
     d="m 2751.8397,1535.3538 c 0,17.3545 -6.8516,31.4232 -15.3036,31.4232 -8.4519,0 -15.3035,-14.0687 -15.3035,-31.4232 0,-17.3545 6.8516,-31.4232 15.3035,-31.4232 8.452,0 15.3036,14.0687 15.3036,31.4232 z"
     id="path4129"
     sodipodi:nodetypes="sssss" /><path
     id="path3165"
     d="m 2933.5938,1488.7812 c -7.6999,9.5656 -12.8438,26.8329 -12.8438,46.5626 0,19.7071 5.1272,36.9903 12.8125,46.5624"
     style="fill:none;stroke:#ff0000;stroke-linecap:round;display:inline"
     inkscape:connector-curvature="0"
     sodipodi:nodetypes="csc" /><path
     id="path3935"
     d="m 2890.0938,1487.0312 c -8.5369,9.0994 -14.3438,27.3096 -14.3438,48.3126 0,20.9691 5.798,39.1672 14.3125,48.2812"
     style="fill:none;stroke:#ff0000;stroke-linecap:round;stroke-linejoin:round;display:inline"
     inkscape:connector-curvature="0"
     sodipodi:nodetypes="csc" /><path
     id="path3937"
     d="m 2833,1513.4062 c -1.4495,6.713 -2.25,14.1319 -2.25,21.9376 0,7.8056 0.8005,15.2245 2.25,21.9374"
     style="fill:none;stroke:#ff0000;stroke-width:1px;stroke-linecap:round;stroke-linejoin:round"
     inkscape:connector-curvature="0"
     sodipodi:nodetypes="csc" /><path
     sodipodi:nodetypes="cscsc"
     inkscape:connector-curvature="0"
     id="path4155"
     d="m 2970.125,1504.7812 c -17.0643,-10.3925 -38.6411,-19.4374 -62.125,-19.4374 -55.2285,0 -100,50 -100,50 0,0 44.7715,50 100,50 23.5724,0 45.2181,-9.0895 62.3125,-19.5313"
     style="fill:none;stroke:#00ff00;stroke-width:1px;stroke-linecap:round;stroke-linejoin:round" /><path
     id="path4157"
     d="m 2981.8397,1535.3538 c 0,17.3545 -6.8516,31.4232 -15.3036,31.4232 -8.4519,0 -15.3035,-14.0687 -15.3035,-31.4232 0,-17.3545 6.8516,-31.4232 15.3035,-31.4232 8.452,0 15.3036,14.0687 15.3036,31.4232 z"
     style="fill:none;stroke:#000000;stroke-width:0.99999994px"
     inkscape:connector-curvature="0"
     sodipodi:nodetypes="sssss" /><path
     inkscape:connector-curvature="0"
     id="path4020"
     d="m 2950.875,1355.2188 c -5.311,9.9605 -8.625,24.2514 -8.625,40.125 0,15.8718 3.315,30.1645 8.625,40.125"
     style="fill:none;stroke:#ff0000;stroke-width:1px;stroke-linecap:round"
     sodipodi:nodetypes="csc" /><path
     inkscape:connector-curvature="0"
     id="path4022"
     d="m 2932.5938,1348.7812 c -7.6999,9.5656 -12.8438,26.8329 -12.8438,46.5626 0,19.7071 5.1272,36.9903 12.8125,46.5624"
     style="fill:none;stroke:#ff0000;stroke-width:1px;stroke-linecap:round"
     sodipodi:nodetypes="csc" /><path
     inkscape:connector-curvature="0"
     id="path4024"
     d="m 2913.0938,1345.5625 c -9.34,8.4957 -15.8438,27.5802 -15.8438,49.7813 0,22.2267 6.5176,41.3315 15.875,49.8124"
     style="fill:none;stroke:#ff0000;stroke-width:1px;stroke-linecap:round"
     sodipodi:nodetypes="csc" /><path
     style="fill:none;stroke:#ff0000;stroke-width:1px;stroke-linecap:round"
     d="m 2860.1875,1356.5312 c -4.9172,9.8837 -7.9375,23.6212 -7.9375,38.8126 0,15.1673 3.0339,28.901 7.9375,38.7812"
     id="path4030"
     inkscape:connector-curvature="0"
     sodipodi:nodetypes="csc" /><path
     style="fill:none;stroke:#ff0000;stroke-width:1px;stroke-linecap:round"
     d="m 2889.0625,1443.625 c -8.5145,-9.114 -14.3125,-27.3121 -14.3125,-48.2812 0,-21.003 5.8069,-39.2132 14.3438,-48.3126"
     id="path4026"
     inkscape:connector-curvature="0"
     sodipodi:nodetypes="csc" /><path
     inkscape:connector-curvature="0"
     id="path4032"
     d="m 2832,1417.2812 c -1.4495,-6.7129 -2.25,-14.1318 -2.25,-21.9374 0,-7.8057 0.8005,-15.2246 2.25,-21.9376"
     style="fill:none;stroke:#ff0000;stroke-width:1px;stroke-linecap:round"
     sodipodi:nodetypes="csc" /><path
     style="fill:none;stroke:#00ff00;stroke-width:1px;stroke-linecap:round;stroke-linejoin:round"
     d="m 2907,1345.3438 c -55.2285,0 -100,50 -100,50 0,0 44.7715,50 100,50 23.5724,0 45.2181,-9.0895 62.3125,-19.5313 -1.2037,0.6248 -2.483,0.9687 -3.7813,0.9687 -8.4519,0 -15.3124,-14.083 -15.3124,-31.4374 0,-17.3545 6.8605,-31.4063 15.3124,-31.4063 1.2312,0 2.4468,0.28 3.5938,0.8437 -17.0643,-10.3925 -38.6411,-19.4374 -62.125,-19.4374 z"
     id="path3954"
     inkscape:connector-curvature="0"
     sodipodi:nodetypes="scscssscs" /><path
     inkscape:connector-curvature="0"
     style="fill:none;stroke:#000000;stroke-width:0.99999994px"
     d="m 2980.8397,1395.3538 c 0,17.3545 -6.8516,31.4232 -15.3036,31.4232 -8.4519,0 -15.3035,-14.0687 -15.3035,-31.4232 0,-17.3545 6.8516,-31.4232 15.3035,-31.4232 8.452,0 15.3036,14.0687 15.3036,31.4232 z"
     id="path3956"
     sodipodi:nodetypes="sssss" /><path
     sodipodi:nodetypes="scscssscs"
     inkscape:connector-curvature="0"
     id="path4034"
     d="m 2437,1685.3438 c -55.2285,0 -100,50 -100,50 0,0 44.7715,50 100,50 23.5724,0 45.2181,-9.0895 62.3125,-19.5313 -1.2037,0.6248 -2.483,0.9687 -3.7813,0.9687 -8.4519,0 -15.3124,-14.083 -15.3124,-31.4374 0,-17.3545 6.8605,-31.4063 15.3124,-31.4063 1.2312,0 2.4468,0.28 3.5938,0.8437 -17.0643,-10.3925 -38.6411,-19.4374 -62.125,-19.4374 z"
     style="fill:none;stroke:#000000;stroke-width:1px;stroke-linecap:round;stroke-linejoin:round" /><path
     id="path4037"
     d="m 2510.8397,1735.3538 c 0,17.3545 -6.8516,31.4232 -15.3036,31.4232 -8.4519,0 -15.3035,-14.0687 -15.3035,-31.4232 0,-17.3545 6.8516,-31.4232 15.3035,-31.4232 8.452,0 15.3036,14.0687 15.3036,31.4232 z"
     style="fill:#0000ff;stroke:#ff0000;stroke-width:0.99999994px"
     inkscape:connector-curvature="0"
     sodipodi:nodetypes="sssss" /><path
     inkscape:connector-curvature="0"
     style="fill:none;stroke:#00ff00;stroke-width:0.99999988px"
     d="m 2393.3493,1840.5216 c -31.4201,0 -56.8913,-47.0899 -56.8913,-105.1778 0,-58.0879 25.4712,-105.1778 56.8913,-105.1778"
     id="path4051"
     sodipodi:nodetypes="csc" /><path
     inkscape:connector-curvature="0"
     style="fill:none;stroke:#00ff00;stroke-width:0.99999994px"
     d="m 2495.5361,1766.777 c -8.4519,0 -15.3035,-14.0687 -15.3035,-31.4232 0,-17.3545 6.8516,-31.4232 15.3035,-31.4232"
     id="path4055"
     sodipodi:nodetypes="csc" /><path
     style="fill:none;stroke:#000000;stroke-width:1px;stroke-linecap:round;stroke-linejoin:round"
     d="m 2437,1925.3438 c -55.2285,0 -100,50 -100,50 0,0 44.7715,50 100,50 23.5724,0 45.2181,-9.0895 62.3125,-19.5313 -1.2037,0.6248 -2.483,0.9687 -3.7813,0.9687 -8.4519,0 -15.3124,-14.083 -15.3124,-31.4374 0,-17.3545 6.8605,-31.4063 15.3124,-31.4063 1.2312,0 2.4468,0.28 3.5938,0.8437 -17.0643,-10.3925 -38.6411,-19.4374 -62.125,-19.4374 z"
     id="path4396"
     inkscape:connector-curvature="0"
     sodipodi:nodetypes="scscssscs" /><path
     inkscape:connector-curvature="0"
     style="fill:#0000ff;stroke:#ff0000;stroke-width:0.99999994px"
     d="m 2510.8397,1975.3538 c 0,17.3545 -6.8516,31.4232 -15.3036,31.4232 -8.4519,0 -15.3035,-14.0687 -15.3035,-31.4232 0,-17.3545 6.8516,-31.4232 15.3035,-31.4232 8.452,0 15.3036,14.0687 15.3036,31.4232 z"
     id="path4398"
     sodipodi:nodetypes="sssss" /><path
     sodipodi:nodetypes="csc"
     id="path4400"
     d="m 2388.7341,2080.5216 c -28.8712,0 -52.2761,-47.0899 -52.2761,-105.1778 0,-58.0879 23.4049,-105.1778 52.2761,-105.1778"
     style="fill:none;stroke:#00ff00;stroke-width:0.99999988px"
     inkscape:connector-curvature="0" /><path
     sodipodi:nodetypes="csc"
     id="path4402"
     d="m 2495.5361,2006.777 c -8.4519,0 -15.3035,-14.0687 -15.3035,-31.4232 0,-17.3545 6.8516,-31.4232 15.3035,-31.4232"
     style="fill:none;stroke:#00ff00;stroke-width:0.99999994px"
     inkscape:connector-curvature="0" /><path
     inkscape:connector-curvature="0"
     id="path4404"
     d="m 2480.2787,2017.3119 c -11.369,0 -20.5853,-18.786 -20.5853,-41.9595 0,-23.1736 9.2163,-41.9596 20.5853,-41.9596"
     style="fill:none;stroke:#00ff00;stroke-width:0.99999994;stroke-opacity:1;display:inline"
     sodipodi:nodetypes="csc" /><path
     inkscape:connector-curvature="0"
     id="path4406"
     d="m 2465.0212,2027.8469 c -14.2859,0 -25.8671,-23.5033 -25.8671,-52.496 0,-28.9926 11.5812,-52.4959 25.8671,-52.4959"
     style="fill:none;stroke:#00ff00;stroke-width:0.99999994;stroke-opacity:1;display:inline"
     sodipodi:nodetypes="csc" /><path
     inkscape:connector-curvature="0"
     id="path4408"
     d="m 2449.7638,2038.3818 c -17.203,0 -31.1489,-28.2206 -31.1489,-63.0323 0,-34.8117 13.9459,-63.0323 31.1489,-63.0323"
     style="fill:none;stroke:#00ff00;stroke-width:0.99999994;stroke-opacity:1;display:inline"
     sodipodi:nodetypes="csc" /><path
     inkscape:connector-curvature="0"
     id="path4410"
     d="m 2434.5064,2048.9168 c -20.1201,0 -36.4307,-32.938 -36.4307,-73.5687 0,-40.6307 16.3106,-73.5687 36.4307,-73.5687"
     style="fill:none;stroke:#00ff00;stroke-width:0.99999988;stroke-opacity:1;display:inline"
     sodipodi:nodetypes="csc" /><path
     inkscape:connector-curvature="0"
     id="path4412"
     d="m 2419.249,2059.4517 c -23.0372,0 -41.7125,-37.6553 -41.7125,-84.105 0,-46.4498 18.6753,-84.1051 41.7125,-84.1051"
     style="fill:none;stroke:#00ff00;stroke-width:0.99999988;stroke-opacity:1;display:inline"
     sodipodi:nodetypes="csc" /><path
     inkscape:connector-curvature="0"
     id="path4414"
     d="m 2403.9915,2069.9867 c -25.9541,0 -46.9943,-42.3726 -46.9943,-94.6415 0,-52.2688 21.0402,-94.6414 46.9943,-94.6414"
     style="fill:none;stroke:#00ff00;stroke-width:0.99999988;stroke-opacity:1;display:inline"
     sodipodi:nodetypes="csc" /><path
     style="fill:none;stroke:#00ff00;stroke-width:0.99999994;stroke-opacity:1;display:inline"
     d="m 2485.3856,1782.1277 c -13.8238,0 -25.0303,-20.9424 -25.0303,-46.776 0,-25.8336 11.2065,-46.776 25.0303,-46.776"
     id="path4955"
     inkscape:connector-curvature="0"
     sodipodi:nodetypes="csc" /><path
     style="fill:none;stroke:#00ff00;stroke-width:0.99999994;stroke-opacity:1;display:inline"
     d="m 2469.8848,1791.9625 c -16.7874,0 -30.3963,-25.3462 -30.3963,-56.6121 0,-31.2659 13.6089,-56.6121 30.3963,-56.6121"
     id="path4957"
     inkscape:connector-curvature="0"
     sodipodi:nodetypes="csc" /><path
     style="fill:none;stroke:#00ff00;stroke-width:0.99999994;stroke-opacity:1;display:inline"
     d="m 2456.5504,1800.4227 c -19.3368,0 -35.0124,-29.1345 -35.0124,-65.0735 0,-35.9389 15.6756,-65.0734 35.0124,-65.0734"
     id="path4959"
     inkscape:connector-curvature="0"
     sodipodi:nodetypes="csc" /><path
     style="fill:none;stroke:#00ff00;stroke-width:0.99999988;stroke-opacity:1;display:inline"
     d="m 2444.453,1808.098 c -21.6496,0 -39.2002,-32.5713 -39.2002,-72.7498 0,-40.1785 17.5506,-72.7499 39.2002,-72.7499"
     id="path4961"
     inkscape:connector-curvature="0"
     sodipodi:nodetypes="csc" /><path
     style="fill:none;stroke:#00ff00;stroke-width:0.99999988;stroke-opacity:1;display:inline"
     d="m 2433.1995,1815.238 c -23.8012,0 -43.096,-35.7684 -43.096,-79.8908 0,-44.1223 19.2948,-79.8908 43.096,-79.8908"
     id="path4963"
     inkscape:connector-curvature="0"
     sodipodi:nodetypes="csc" /><path
     style="fill:none;stroke:#00ff00;stroke-width:0.99999988;stroke-opacity:1;display:inline"
     d="m 2422.5756,1821.9785 c -25.8322,0 -46.7737,-38.7867 -46.7737,-86.6322 0,-47.8455 20.9415,-86.6322 46.7737,-86.6322"
     id="path4965"
     inkscape:connector-curvature="0"
     sodipodi:nodetypes="csc" /><path
     style="fill:none;stroke:#00ff00;stroke-width:0.99999988;stroke-opacity:1;display:inline"
     d="m 2412.4485,1828.4038 c -27.7686,0 -50.2796,-41.6638 -50.2796,-93.0584 0,-51.3945 22.511,-93.0584 50.2796,-93.0584"
     id="path4967"
     inkscape:connector-curvature="0"
     sodipodi:nodetypes="csc" /><path
     style="fill:none;stroke:#00ff00;stroke-width:0.99999988;stroke-opacity:1;display:inline"
     d="m 2402.7278,1834.5712 c -29.6269,0 -53.6446,-44.4254 -53.6446,-99.2266 0,-54.8012 24.0177,-99.2266 53.6446,-99.2266"
     id="path4969"
     inkscape:connector-curvature="0"
     sodipodi:nodetypes="csc" /><path
     inkscape:connector-curvature="0"
     id="path5035"
     d="m 3170.875,1355.2188 c -5.311,9.9605 -21.625,24.9312 -21.625,40.125 0,15.1938 16.315,30.1645 21.625,40.125 6.5804,-2.8849 12.7639,-6.1907 18.4375,-9.6563 -1.2037,0.6248 -2.483,0.9687 -3.7813,0.9687 -8.4519,0 -15.3124,-14.0831 -15.3124,-31.4374 0,-17.3545 6.8605,-31.4063 15.3124,-31.4063 1.2313,0 2.4468,0.2801 3.5938,0.8437 -5.6203,-3.4228 -11.7438,-6.707 -18.25,-9.5624 z"
     style="fill:#ffff00;stroke:none"
     sodipodi:nodetypes="caccssscc" /><path
     inkscape:connector-curvature="0"
     id="path5037"
     d="m 3152.5938,1348.7812 c -7.6999,9.5656 -22.8391,29.2745 -22.8438,46.5626 -0,17.2835 15.1272,36.9903 22.8125,46.5624 6.3773,-1.6791 12.5014,-3.8899 18.3125,-6.4374 -5.31,-9.9605 -21.625,-24.9312 -21.625,-40.125 0,-15.1938 16.314,-30.1645 21.625,-40.125 -5.8022,-2.5465 -11.9145,-4.756 -18.2812,-6.4376 z"
     style="fill:#ffd5d5;stroke:none"
     sodipodi:nodetypes="caccacc" /><path
     inkscape:connector-curvature="0"
     id="path5039"
     d="m 3133.0938,1345.5625 c -9.34,8.4957 -23.8462,31.3823 -23.8438,49.7813 0,18.4128 14.5176,41.3315 23.875,49.8124 6.6767,-0.4399 13.1799,-1.6023 19.4375,-3.25 -7.6853,-9.5721 -22.8172,-29.2789 -22.8125,-46.5624 0,-17.2881 15.1439,-36.997 22.8438,-46.5626 -6.2793,-1.6584 -12.7992,-2.7785 -19.5,-3.2187 z"
     style="fill:#ffff00;stroke:none"
     sodipodi:nodetypes="caccacc" /><path
     inkscape:connector-curvature="0"
     id="path5041"
     d="m 3127,1345.3438 c -6.1162,0 -12.0932,0.5969 -17.9062,1.6874 -8.5369,9.0994 -20.341,30.8389 -20.3438,48.3126 -0,17.46 11.798,39.1672 20.3125,48.2812 5.8244,1.0948 11.8087,1.7188 17.9375,1.7188 2.0603,0 4.0959,-0.054 6.125,-0.1876 -9.3574,-8.4809 -23.8725,-31.3996 -23.875,-49.8124 -0,-18.399 14.5038,-41.2856 23.8438,-49.7813 -2.0178,-0.1325 -4.0453,-0.2187 -6.0938,-0.2187 z"
     style="fill:#ffd5d5;stroke:none"
     sodipodi:nodetypes="scacscacs" /><path
     inkscape:connector-curvature="0"
     id="path5043"
     d="m 3109.0938,1347.0312 c -10.2666,1.9262 -19.9872,5.344 -28.9063,9.5 -4.9172,9.8837 -13.9393,25.0662 -13.9375,38.8126 0,13.7366 9.0339,28.901 13.9375,38.7812 8.9118,4.1536 18.6172,7.5718 28.875,9.5 -8.5145,-9.114 -20.3153,-30.8212 -20.3125,-48.2812 0,-17.4737 11.8069,-39.2132 20.3438,-48.3126 z"
     style="fill:#ffff00;stroke:none"
     sodipodi:nodetypes="ccaccac" /><path
     inkscape:connector-curvature="0"
     id="path5045"
     d="m 3080.1875,1356.5312 c -10.6991,4.9855 -20.2401,11.0489 -28.1875,16.875 -1.4495,6.713 -5.25,14.4186 -5.25,21.9376 0,7.519 3.8005,15.2245 5.25,21.9374 7.9445,5.824 17.4932,11.8594 28.1875,16.8438 -4.9036,-9.8802 -13.9357,-25.0446 -13.9375,-38.7812 -0,-13.7464 9.0203,-28.9289 13.9375,-38.8126 z"
     style="fill:#ffd5d5;stroke:none"
     sodipodi:nodetypes="ccaccac" /><path
     inkscape:connector-curvature="0"
     id="path5047"
     d="m 3052,1373.4062 c -15.0754,11.0516 -24.8481,21.0729 -24.8481,21.9376 0,0.8646 9.7727,10.8859 24.8481,21.9374 -1.4495,-6.7129 -5.25,-14.4184 -5.25,-21.9374 0,-7.519 3.8005,-15.2246 5.25,-21.9376 z"
     style="fill:#ffff00;stroke:none"
     sodipodi:nodetypes="cccac" /><path
     sodipodi:nodetypes="cac"
     style="fill:none;stroke:#ff0000;stroke-width:1px;stroke-linecap:round"
     d="m 3170.875,1355.2188 c -5.311,9.9605 -21.625,24.9312 -21.625,40.125 0,15.1938 16.315,30.1645 21.625,40.125"
     id="path5049"
     inkscape:connector-curvature="0" /><path
     sodipodi:nodetypes="cac"
     style="fill:none;stroke:#ff0000;stroke-width:1px;stroke-linecap:round"
     d="m 3152.5938,1348.7812 c -7.6999,9.5656 -22.8391,29.2745 -22.8438,46.5626 -0,17.2835 15.1272,36.9903 22.8125,46.5624"
     id="path5051"
     inkscape:connector-curvature="0" /><path
     sodipodi:nodetypes="cac"
     style="fill:none;stroke:#ff0000;stroke-width:1px;stroke-linecap:round"
     d="m 3133.0938,1345.5625 c -9.34,8.4957 -23.8462,31.3823 -23.8438,49.7813 0,18.4128 14.5176,41.3315 23.875,49.8124"
     id="path5053"
     inkscape:connector-curvature="0" /><path
     inkscape:connector-curvature="0"
     id="path5055"
     d="m 3080.1875,1356.5312 c -4.9172,9.8837 -13.9393,25.0662 -13.9375,38.8126 0,13.7366 9.0339,28.901 13.9375,38.7812"
     style="fill:none;stroke:#ff0000;stroke-width:1px;stroke-linecap:round"
     sodipodi:nodetypes="cac" /><path
     inkscape:connector-curvature="0"
     id="path5057"
     d="m 3109.0625,1443.625 c -8.5145,-9.114 -20.3153,-30.8212 -20.3125,-48.2812 0,-17.4737 11.8069,-39.2132 20.3438,-48.3126"
     style="fill:none;stroke:#ff0000;stroke-width:1px;stroke-linecap:round"
     sodipodi:nodetypes="cac" /><path
     sodipodi:nodetypes="cac"
     style="fill:none;stroke:#ff0000;stroke-width:1px;stroke-linecap:round"
     d="m 3052,1417.2812 c -1.4495,-6.7129 -5.25,-14.4184 -5.25,-21.9374 0,-7.519 3.8005,-15.2246 5.25,-21.9376"
     id="path5059"
     inkscape:connector-curvature="0" /><path
     sodipodi:nodetypes="scscssscs"
     inkscape:connector-curvature="0"
     id="path5061"
     d="m 3127,1345.3438 c -55.2285,0 -100,50 -100,50 0,0 44.7715,50 100,50 23.5724,0 45.2181,-9.0895 62.3125,-19.5313 -1.2037,0.6248 -2.483,0.9687 -3.7813,0.9687 -8.4519,0 -15.3124,-14.083 -15.3124,-31.4374 0,-17.3545 6.8605,-31.4063 15.3124,-31.4063 1.2312,0 2.4468,0.28 3.5938,0.8437 -17.0643,-10.3925 -38.6411,-19.4374 -62.125,-19.4374 z"
     style="fill:none;stroke:#00ff00;stroke-width:1px;stroke-linecap:round;stroke-linejoin:round" /><path
     id="path5063"
     d="m 3200.8397,1395.3538 c 0,17.3545 -6.8516,31.4232 -15.3036,31.4232 -8.4519,0 -15.3035,-14.0687 -15.3035,-31.4232 0,-17.3545 6.8516,-31.4232 15.3035,-31.4232 8.452,0 15.3036,14.0687 15.3036,31.4232 z"
     style="fill:none;stroke:#000000;stroke-width:0.99999994px"
     inkscape:connector-curvature="0"
     sodipodi:nodetypes="sssss" /><path
     style="fill:none;stroke:#ff0000;stroke-width:1px;stroke-linecap:round"
     d="m 2819.5,1747.3125 c -0.2549,-3.9229 -0.4062,-7.9187 -0.4062,-11.9687 0,-4.0501 0.1513,-8.0459 0.4062,-11.9688"
     id="path3340" /><path
     style="fill:none;stroke:#ff0000;stroke-width:1px;stroke-linecap:round"
     d="m 2833.75,1712.125 c -1.0306,7.4243 -1.5938,15.1993 -1.5938,23.2188 0,8.0194 0.5632,15.7944 1.5938,23.2187"
     id="path3362" /><path
     style="fill:none;stroke:#ff0000;stroke-width:1px;stroke-linecap:round"
     d="m 2849.3438,1768.5312 c -2.2915,-10.2231 -3.5313,-21.4287 -3.5313,-33.1874 0,-11.7588 1.2398,-22.9644 3.5313,-33.1876"
     id="path3342" /><path
     style="fill:none;stroke:#ff0000;stroke-width:1px;stroke-linecap:round"
     d="m 2866.375,1693.8438 c -3.9727,12.0937 -6.2812,26.3049 -6.2812,41.5 0,15.1951 2.3085,29.4062 6.2812,41.5"
     id="path3358"
     inkscape:connector-curvature="0" /><path
     style="fill:none;stroke:#ff0000;stroke-width:1px;stroke-linecap:round"
     d="m 2884.7188,1782.7188 c -5.8936,-12.7301 -9.4688,-29.2752 -9.4688,-47.375 0,-18.0999 3.5752,-34.645 9.4688,-47.375"
     id="path3344"
     inkscape:connector-curvature="0" /><path
     style="fill:none;stroke:#ff0000;stroke-width:1px;stroke-linecap:round"
     d="m 2904.125,1685.3748 c -7.691,11.9369 -12.5938,29.8895 -12.5938,49.9688 0,20.0778 4.9038,38.0318 12.5938,49.9687"
     id="path3354"
     inkscape:connector-curvature="0" /><path
     style="fill:none;stroke:#ff0000;stroke-width:1px;stroke-linecap:round"
     d="m 2924.125,1783.7807 c -8.7739,-9.929 -14.625,-27.9192 -14.625,-48.4374 0,-20.5413 5.8661,-38.5154 14.6562,-48.4376"
     id="path3346"
     inkscape:connector-curvature="0" /><path
     style="fill:none;stroke:#ff0000;stroke-width:1px;stroke-linecap:round"
     d="m 2944.9688,1692.8125 c -8.6224,7.3865 -14.625,23.6457 -14.625,42.5313 0,18.8987 6.0241,35.152 14.6562,42.5312"
     id="path3348"
     inkscape:connector-curvature="0" /><path
     style="fill:none;stroke:#00ff00;stroke-width:1px;stroke-linecap:round;stroke-linejoin:round"
     d="m 2969.125,1704.7812 c -17.0643,-10.3925 -38.6411,-19.4374 -62.125,-19.4374 -55.2285,0 -100,50 -100,50 0,0 44.7715,50 100,50 23.5724,0 45.2181,-9.0895 62.3125,-19.5313"
     id="path3220"
     inkscape:connector-curvature="0"
     sodipodi:nodetypes="cscsc" /><path
     sodipodi:nodetypes="sssss"
     inkscape:connector-curvature="0"
     style="fill:none;stroke:#000000;stroke-width:0.99999994px"
     d="m 2980.8397,1735.3538 c 0,17.3545 -6.8516,31.4232 -15.3036,31.4232 -8.4519,0 -15.3035,-14.0687 -15.3035,-31.4232 0,-17.3545 6.8516,-31.4232 15.3035,-31.4232 8.452,0 15.3036,14.0687 15.3036,31.4232 z"
     id="path3222" /><path
     inkscape:connector-curvature="0"
     id="path3460"
     d="m 2827.9062,1994.2188 c -0.6136,-6.1029 -0.9062,-12.4077 -0.9062,-18.875 0,-6.4674 0.2926,-12.7722 0.9062,-18.875"
     style="fill:none;stroke:#ff0000;stroke-width:1px;stroke-linecap:round"
     sodipodi:nodetypes="csc" /><path
     style="fill:none;stroke:#ff0000;stroke-width:1px;stroke-linecap:round"
     d="m 2851.1562,1941.125 c -2.3124,10.4547 -3.625,22.0321 -3.625,34.2188 0,12.1866 1.3126,23.764 3.625,34.2187"
     id="path3477"
     inkscape:connector-curvature="0" /><path
     style="fill:none;stroke:#ff0000;stroke-width:1px;stroke-linecap:round"
     d="m 2875.625,2020.1875 c -4.732,-12.4128 -7.5625,-27.9677 -7.5625,-44.8437 0,-16.8933 2.8531,-32.4247 7.5937,-44.8438"
     id="path3462"
     inkscape:connector-curvature="0" /><path
     style="fill:none;stroke:#ff0000;stroke-width:1px;stroke-linecap:round"
     d="m 2900.6562,1925.5625 c -7.3333,11.5321 -12.0312,29.5324 -12.0312,49.7813 0,20.2359 4.706,38.2482 12.0312,49.7812"
     id="path3473"
     inkscape:connector-curvature="0" /><path
     style="fill:none;stroke:#ff0000;stroke-width:1px;stroke-linecap:round"
     d="m 2924.8438,2023.625 c -9.2313,-8.0168 -15.6876,-26.6143 -15.6876,-48.2812 0,-21.6928 6.47,-40.3115 15.7188,-48.3126"
     id="path3464"
     inkscape:connector-curvature="0" /><path
     style="fill:none;stroke:#ff0000;stroke-width:1px;stroke-linecap:round"
     d="m 2947.4688,1933.7812 c -10.0346,2.8025 -17.7813,20.3391 -17.7813,41.5626 0,21.2182 7.7501,38.7537 17.7813,41.5624"
     id="path3466"
     inkscape:connector-curvature="0" /><path
     sodipodi:nodetypes="cscsc"
     inkscape:connector-curvature="0"
     id="path3366"
     d="m 2969.125,1944.7812 c -17.0643,-10.3925 -38.6411,-19.4374 -62.125,-19.4374 -55.2285,0 -100,50 -100,50 0,0 44.7715,50 100,50 23.5724,0 45.2181,-9.0895 62.3125,-19.5313"
     style="fill:none;stroke:#00ff00;stroke-width:1px;stroke-linecap:round;stroke-linejoin:round" /><path
     sodipodi:nodetypes="sssss"
     id="path3368"
     d="m 2980.8397,1975.3538 c 0,17.3545 -6.8516,31.4232 -15.3036,31.4232 -8.4519,0 -15.3035,-14.0687 -15.3035,-31.4232 0,-17.3545 6.8516,-31.4232 15.3035,-31.4232 8.452,0 15.3036,14.0687 15.3036,31.4232 z"
     style="fill:none;stroke:#000000;stroke-width:1px"
     inkscape:connector-curvature="0" /><path
     sodipodi:nodetypes="cscccsssccc"
     inkscape:connector-curvature="0"
     id="path3485"
     d="m 334.24908,195.42386 c -18.5684,-10.46098 -55.13981,3.69977 -85.83885,34.39881 -30.6914,30.69135 -44.84563,67.26607 -34.39852,85.83853 13.7485,5.80394 27.63109,10.34409 41.08856,13.87709 l 6.55422,1.6724 c -2.64487,-0.83737 -4.99276,-2.19037 -6.87071,-4.06833 -12.22537,-12.22537 -1.77828,-42.5194 23.32425,-67.6219 25.10266,-25.10268 55.35157,-35.50463 67.57695,-23.27927 1.78089,1.78089 3.1342,3.94423 3.97791,6.4187 l -1.62739,-6.41752 z"
     style="fill:#ffff00;stroke:none" /><path
     inkscape:connector-curvature="0"
     id="path3487"
     d="M 128.48918,55.29764 C 94.875797,51.030731 70.947066,52.359576 70.947066,52.359576 c 0,0 -1.328705,23.928574 2.938079,57.542094 7.940077,-9.71518 16.636516,-19.25809 25.991238,-28.612796 9.354857,-9.354859 18.897777,-18.051297 28.612797,-25.991234 z"
     style="fill:#ffff00;stroke:none" /><path
     inkscape:connector-curvature="0"
     id="path3489"
     d="M 184.31376,66.733687 C 164.42877,60.96271 145.26904,57.427713 128.48918,55.29764 118.77416,63.237577 109.23124,71.934015 99.876383,81.288874 90.521661,90.64358 81.825222,100.18649 73.885145,109.90167 c 2.130212,16.7797 5.66521,35.93943 11.436188,55.8244 11.777533,-18.46716 26.625207,-37.11208 44.252697,-54.73956 17.62763,-17.627631 36.27258,-32.475292 54.73973,-44.252823 z"
     style="fill:#ffd5d5;stroke:none" /><path
     inkscape:connector-curvature="0"
     id="path3491"
     d="m 235.12083,86.803367 c -16.72937,-8.624545 -33.98093,-15.18643 -50.80707,-20.06968 -18.46715,11.777531 -37.1121,26.625192 -54.73973,44.252823 -17.62749,17.62748 -32.475164,36.2724 -44.252697,54.73956 4.877902,16.80778 11.413909,34.04934 20.024547,50.76193 11.11003,-24.79934 29.51541,-51.39315 53.92594,-75.80369 24.43559,-24.43555 51.0281,-42.774269 75.84901,-53.880943 z"
     style="fill:#ffff00;stroke:none" /><path
     inkscape:connector-curvature="0"
     id="path3493"
     d="M 278.42436,115.82306 C 265.00625,104.11871 250.2834,94.620214 235.12083,86.803367 c -24.82091,11.106674 -51.41342,29.445393 -75.84901,53.880943 -24.41053,24.41054 -42.81591,51.00435 -53.92594,75.80369 7.82205,15.18165 17.34646,29.91447 29.06483,43.34864 6.08644,-27.27771 25.33353,-60.13891 54.60407,-89.4094 29.28931,-29.28932 62.12145,-48.53078 89.40958,-54.60418 z"
     style="fill:#ffd5d5;stroke:none" /><path
     inkscape:connector-curvature="0"
     id="path3495"
     d="m 287.91679,124.68279 c -3.08169,-3.08169 -6.25205,-6.03217 -9.49243,-8.85973 -27.28813,6.0734 -60.12027,25.31486 -89.40958,54.60418 -29.27054,29.27049 -48.51763,62.13169 -54.60407,89.4094 2.82698,3.24097 5.77791,6.41089 8.85961,9.49257 8.81158,8.81157 18.35969,16.51342 28.29661,23.32424 -1.75673,-24.94875 15.80507,-61.18817 47.1455,-92.52856 31.37786,-31.37788 67.66779,-48.95054 92.61915,-47.14578 -6.8166,-9.95919 -14.58817,-19.4697 -23.41479,-28.29632 z"
     style="fill:#ffff00;stroke:none" /><path
     inkscape:connector-curvature="0"
     id="path3497"
     d="m 311.33158,152.97911 c -24.95136,-1.80476 -61.24129,15.7679 -92.61915,47.14578 -31.34043,31.34039 -48.90223,67.57981 -47.1455,92.52856 13.57075,9.30164 27.91647,16.87474 42.44478,23.00775 -10.44711,-18.57246 3.70712,-55.14718 34.39852,-85.83853 30.69904,-30.69904 67.27045,-44.85979 85.83885,-34.39881 -6.12099,-14.51685 -13.63553,-28.88328 -22.9175,-42.44475 z"
     style="fill:#ffd5d5;stroke:none" /><path
     sodipodi:nodetypes="csc"
     style="fill:none;stroke:#ff0000;stroke-width:1px;stroke-linecap:round"
     d="M 73.885135,109.90166 C 81.825213,100.18649 90.521652,90.64358 99.876373,81.28886 109.23123,71.934 118.77415,63.237563 128.48919,55.29764"
     id="path3499"
     inkscape:connector-curvature="0" /><path
     inkscape:connector-curvature="0"
     id="path3501"
     d="m 184.31375,66.733673 c -18.46715,11.777531 -37.11208,26.625206 -54.73973,44.252837 -17.62749,17.62748 -32.475149,36.2724 -44.252696,54.73957"
     style="fill:none;stroke:#ff0000;stroke-width:1px;stroke-linecap:round" /><path
     inkscape:connector-curvature="0"
     id="path3503"
     d="m 105.34589,216.48799 c 11.11001,-24.79933 29.51541,-51.39316 53.92594,-75.8037 24.43557,-24.43553 51.02809,-42.774263 75.84899,-53.880937"
     style="fill:none;stroke:#ff0000;stroke-width:1px;stroke-linecap:round" /><path
     inkscape:connector-curvature="0"
     id="path3505"
     d="m 278.42436,115.82304 c -27.28814,6.07341 -60.12028,25.31486 -89.40959,54.60419 -29.27052,29.2705 -48.51761,62.13169 -54.60406,89.40941"
     style="fill:none;stroke:#ff0000;stroke-width:1px;stroke-linecap:round" /><path
     inkscape:connector-curvature="0"
     id="path3507"
     d="m 171.56693,292.65344 c -1.75674,-24.94875 15.80508,-61.18818 47.1455,-92.52857 31.37785,-31.37786 67.66778,-48.95052 92.61914,-47.14578"
     style="fill:none;stroke:#ff0000;stroke-width:1px;stroke-linecap:round" /><path
     inkscape:connector-curvature="0"
     id="path3509"
     d="m 334.24907,195.42386 c -18.5684,-10.46098 -55.13981,3.69976 -85.83885,34.3988 -30.69138,30.69136 -44.84561,67.26608 -34.39852,85.83853"
     style="fill:none;stroke:#ff0000;stroke-width:1px;stroke-linecap:round" /><path
     style="fill:none;stroke:#00ff00;stroke-width:1px;stroke-linecap:round;stroke-linejoin:round"
     d="M 349.66289,242.65988 C 340.01237,202.9446 321.88543,158.65142 287.91678,124.68277 208.0307,44.796748 70.947071,52.359562 70.947071,52.359562 c 0,0 -7.562829,137.083578 72.323239,216.969648 34.09665,34.09663 78.55404,52.25873 118.38418,61.88147"
     id="path3511"
     inkscape:connector-curvature="0"
     sodipodi:nodetypes="cscsc" /><path
     inkscape:connector-curvature="0"
     style="fill:none;stroke:#000000;stroke-width:1px"
     d="m 322.3856,303.82696 c -25.10266,25.10265 -55.36315,35.54193 -67.58865,23.3164 -12.22538,-12.22536 -1.78611,-42.48583 23.31658,-67.58848 25.10266,-25.10268 55.36314,-35.54196 67.5885,-23.31657 12.22553,12.22551 1.78625,42.48596 -23.31643,67.58865 z"
     id="path3513"
     sodipodi:nodetypes="sssss" /><path
     sodipodi:type="arc"
     style="color:#000000;fill:none;stroke:#000000;stroke-width:0.69795561;marker:none;visibility:visible;display:inline;overflow:visible;enable-background:accumulate"
     id="path3515"
     sodipodi:cx="3241.1484"
     sodipodi:cy="1922.5829"
     sodipodi:rx="6.4248514"
     sodipodi:ry="6.4248514"
     d="m 3247.5733,1922.5829 a 6.4248514,6.4248514 0 1 1 -12.8497,0 6.4248514,6.4248514 0 1 1 12.8497,0 z"
     transform="matrix(1.0131116,1.0131112,-1.0131116,1.0131112,-1019.0223,-4963.5368)" /></g></svg>