<?xml version="1.0" encoding="UTF-8" standalone="no"?>
<!-- Created with Inkscape (http://www.inkscape.org/) -->

<svg
   xmlns:dc="http://purl.org/dc/elements/1.1/"
   xmlns:cc="http://creativecommons.org/ns#"
   xmlns:rdf="http://www.w3.org/1999/02/22-rdf-syntax-ns#"
   xmlns:svg="http://www.w3.org/2000/svg"
   xmlns="http://www.w3.org/2000/svg"
   xmlns:sodipodi="http://sodipodi.sourceforge.net/DTD/sodipodi-0.dtd"
   xmlns:inkscape="http://www.inkscape.org/namespaces/inkscape"
   id="svg2"
   version="1.1"
   inkscape:version="0.48.3.1 r9886"
   width="545.66876"
   height="765.35376"
   xml:space="preserve"
   sodipodi:docname="150212_pattern.svg"><metadata
     id="metadata8"><rdf:RDF><cc:Work
         rdf:about=""><dc:format>image/svg+xml</dc:format><dc:type
           rdf:resource="http://purl.org/dc/dcmitype/StillImage" /><dc:title /></cc:Work></rdf:RDF></metadata><defs
     id="defs6"><inkscape:path-effect
       effect="skeletal"
       id="path-effect3810"
       is_visible="true"
       pattern="#path3755"
       copytype="single_stretched"
       prop_scale="1"
       scale_y_rel="false"
       spacing="0"
       normal_offset="0"
       tang_offset="0"
       prop_units="false"
       vertical_pattern="false"
       fuse_tolerance="0" /><inkscape:path-effect
       effect="skeletal"
       id="path-effect3769"
       is_visible="true"
       pattern="m 647.48501,-964.13567 c 0,8.15943 -22.28051,14.77396 -49.76492,14.77396 -27.48441,0 -49.76492,-6.61453 -49.76492,-14.77396 0,-8.15943 22.28051,-14.77396 49.76492,-14.77396 27.48441,0 49.76492,6.61453 49.76492,14.77396 z"
       copytype="single_stretched"
       prop_scale="1"
       scale_y_rel="false"
       spacing="0"
       normal_offset="0"
       tang_offset="0"
       prop_units="false"
       vertical_pattern="false"
       fuse_tolerance="0" /><inkscape:path-effect
       effect="skeletal"
       id="path-effect3810-9"
       is_visible="true"
       pattern="#path3755"
       copytype="single_stretched"
       prop_scale="0.8"
       scale_y_rel="false"
       spacing="0"
       normal_offset="0"
       tang_offset="0"
       prop_units="false"
       vertical_pattern="false"
       fuse_tolerance="0" /><inkscape:path-effect
       effect="skeletal"
       id="path-effect3769-2"
       is_visible="true"
       pattern="m 1538.509,5.86465 c 0,8.15943 -22.2805,14.77396 -49.7649,14.77396 -27.4845,0 -49.765,-6.61453 -49.765,-14.77396 0,-8.15943 22.2805,-14.77396 49.765,-14.77396 27.4844,0 49.7649,6.61453 49.7649,14.77396 z"
       copytype="single_stretched"
       prop_scale="1"
       scale_y_rel="false"
       spacing="0"
       normal_offset="0"
       tang_offset="0"
       prop_units="false"
       vertical_pattern="false"
       fuse_tolerance="0" /></defs><sodipodi:namedview
     pagecolor="#cccccc"
     bordercolor="#666666"
     borderopacity="1"
     objecttolerance="10"
     gridtolerance="10"
     guidetolerance="10"
     inkscape:pageopacity="1"
     inkscape:pageshadow="2"
     inkscape:window-width="640"
     inkscape:window-height="480"
     id="namedview4"
     showgrid="false"
     inkscape:zoom="0.1803245"
     inkscape:cx="1349.2278"
     inkscape:cy="1126.3715"
     inkscape:current-layer="content"
     units="mm"
     guidecolor="#ff0000"
     guideopacity="0.47058824"
     guidehicolor="#00ff00"
     guidehiopacity="1"
     inkscape:snap-global="false"
     showguides="false"
     showborder="false"
     inkscape:showpageshadow="false"><sodipodi:guide
       position="21.259843,754.72441"
       orientation="0,1048.8189"
       id="guide4271" /><sodipodi:guide
       position="1070.0787,754.72441"
       orientation="744.09449,0"
       id="guide4273" /><sodipodi:guide
       position="1070.0787,10.62992"
       orientation="0,-1048.8189"
       id="guide4275" /><sodipodi:guide
       position="21.259843,10.62992"
       orientation="-744.09449,-4.6185278e-14"
       id="guide4277" /><sodipodi:guide
       position="545.669,10.63"
       orientation="-761.31029,0"
       id="guide4301" /><inkscape:grid
       type="xygrid"
       id="grid4326"
       empspacing="5"
       visible="true"
       enabled="true"
       snapvisiblegridlinesonly="true"
       units="mm"
       spacingx="8mm"
       spacingy="8mm"
       originx="10mm" /></sodipodi:namedview><g
     style="display:inline"
     id="refbuild"
     inkscape:groupmode="layer"
     inkscape:label="XX_Referenz"
     sodipodi:insensitive="true"><path
       style="color:#000000;fill:#ffffff;fill-opacity:1;fill-rule:nonzero;stroke:none;stroke-width:0;marker:none;visibility:visible;display:inline;overflow:visible;enable-background:accumulate"
       d="m 10.625,0 0,765.34375 10.625,0 524.40625,0 524.43755,0 10.625,0 0,-765.34375 -10.625,0 L 21.25,0 10.625,0 z"
       id="canvasfull"
       inkscape:connector-curvature="0" /><path
       style="color:#000000;fill:#ff00ff;fill-opacity:1;fill-rule:nonzero;stroke:none;stroke-width:0;marker:none;visibility:visible;display:inline;overflow:visible;enable-background:accumulate"
       d="m 10.625,0 0,765.34375 10.625,0 L 21.25,0 10.625,0 z"
       id="outercropleft"
       inkscape:connector-curvature="0" /><path
       style="color:#000000;fill:#ff00ff;fill-opacity:1;fill-rule:nonzero;stroke:none;stroke-width:0;marker:none;visibility:visible;display:inline;overflow:visible;enable-background:accumulate"
       d="m 10.625,754.71875 0,10.625 535.03125,0 0,-10.625 -535.03125,0 z"
       id="bottomcropleft"
       inkscape:connector-curvature="0" /><path
       style="color:#000000;fill:#ff00ff;fill-opacity:1;fill-rule:nonzero;stroke:none;stroke-width:0;marker:none;visibility:visible;display:inline;overflow:visible;enable-background:accumulate"
       d="m 10.625,0 0,10.625 535.03125,0 0,-10.625 L 10.625,0 z"
       id="topcropleft"
       inkscape:connector-curvature="0" /><path
       style="color:#000000;fill:none;stroke:#0000ff;stroke-width:1;stroke-linecap:butt;stroke-linejoin:miter;stroke-miterlimit:4;stroke-opacity:1;stroke-dasharray:none;stroke-dashoffset:0;marker:none;visibility:visible;display:inline;overflow:visible;enable-background:accumulate"
       d="m 10.629921,-10.00046 0,785.35433"
       id="beforecropleft"
       inkscape:connector-curvature="0"
       sodipodi:nodetypes="cc" /><path
       style="color:#000000;fill:#00ff00;fill-opacity:1;fill-rule:nonzero;stroke:none;stroke-width:0;marker:none;visibility:visible;display:inline;overflow:visible;enable-background:accumulate"
       d="m 1070.0938,0 0,765.34375 10.625,0 0,-765.34375 -10.625,0 z"
       id="outercropright"
       inkscape:connector-curvature="0" /><path
       style="color:#000000;fill:#00ff00;fill-opacity:1;fill-rule:nonzero;stroke:none;stroke-width:0;marker:none;visibility:visible;display:inline;overflow:visible;enable-background:accumulate"
       d="m 545.65625,754.71875 0,10.625 535.06255,0 0,-10.625 -535.06255,0 z"
       id="bottomcropright"
       inkscape:connector-curvature="0" /><path
       style="color:#000000;fill:#00ff00;fill-opacity:1;fill-rule:nonzero;stroke:none;stroke-width:0;marker:none;visibility:visible;display:inline;overflow:visible;enable-background:accumulate"
       d="m 545.65625,0 0,10.625 535.06255,0 0,-10.625 -535.06255,0 z"
       id="topcropright"
       inkscape:connector-curvature="0" /><path
       style="color:#000000;fill:#00ff00;fill-opacity:1;fill-rule:nonzero;stroke:#0000ff;stroke-width:1;stroke-linecap:butt;stroke-linejoin:miter;stroke-miterlimit:4;stroke-opacity:1;stroke-dasharray:none;stroke-dashoffset:0;marker:none;visibility:visible;display:inline;overflow:visible;enable-background:accumulate"
       d="m 1080.7081,-10.00046 0,785.35433"
       id="beforecropright"
       inkscape:connector-curvature="0"
       sodipodi:nodetypes="cc" /><path
       style="color:#000000;fill:#ffff00;fill-opacity:1;fill-rule:nonzero;stroke:#00ff00;stroke-width:0;stroke-linecap:round;stroke-linejoin:miter;stroke-miterlimit:4;stroke-opacity:1;stroke-dashoffset:0;marker:none;visibility:visible;display:inline;overflow:visible;enable-background:accumulate"
       d="m 556.29876,-4.6023438e-4 -10.63,0 0,765.35433023438 10.63,0 z"
       id="innercropright"
       inkscape:connector-curvature="0" /><path
       style="color:#000000;fill:#ffff00;fill-opacity:1;fill-rule:nonzero;stroke:#00ff00;stroke-width:0;stroke-linecap:round;stroke-linejoin:miter;stroke-miterlimit:4;stroke-opacity:1;stroke-dashoffset:0;marker:none;visibility:visible;display:inline;overflow:visible;enable-background:accumulate"
       d="m 545.66876,-4.6023438e-4 -10.63,0 0,765.35433023438 10.63,0 z"
       id="innercropleft"
       inkscape:connector-curvature="0" /><path
       style="opacity:0.5;color:#000000;fill:#ffffff;fill-opacity:1;stroke:none"
       d="m 21.25,10.625 0,744.0937 1048.8438,0 0,-744.0937 -1048.8438,0 z"
       id="canvasoverlay"
       inkscape:connector-curvature="0" /><path
       style="fill:none;stroke:#00ff00;stroke-width:1px;stroke-linecap:butt;stroke-linejoin:miter;stroke-opacity:1;display:inline"
       d="m 545.669,771.94051 0,-778.5270405"
       id="centerbuild"
       inkscape:connector-curvature="0" /></g><g
     inkscape:label="XX_PAGE"
     inkscape:groupmode="layer"
     id="refcanvas"
     style="display:inline"
     sodipodi:insensitive="true"><path
       sodipodi:nodetypes="ccccc"
       inkscape:connector-curvature="0"
       id="canvas"
       d="m 21.259843,10.62935 1048.818857,0 0,744.09449 -1048.818857,0 z"
       style="color:#000000;fill:#ffffff;fill-opacity:1;stroke:none;stroke-width:1;marker:none;visibility:visible;display:inline" /><path
       style="fill:none;stroke:#000000;stroke-width:1px;stroke-linecap:butt;stroke-linejoin:miter;stroke-opacity:1;display:inline"
       d="m 545.669,771.94051 0,-778.5270403"
       id="center"
       inkscape:connector-curvature="0" /></g><g
     inkscape:label="001"
     inkscape:groupmode="layer"
     id="content"
     style="display:inline"><path
       style="fill:#000000;stroke:none"
       d="m 1036.4233,-644.15158 c 0,0 0,0 0,0.001 -0,0.007 -0,0.0139 8e-4,0.0243 0.01,0.0208 0.023,0.0574 0.063,0.12085 0,0 0,0 0,0 0.031,0.0871 0.083,0.22266 0.1927,0.43513 0,0 0,0 0,0 0,0 0,0 0,0 0.024,0.26384 -0.012,0.5988 -0.1086,1.00203 0,0 0,0 0,0 -0.1898,0.7952 -0.6147,1.85912 -1.2726,3.17252 0,0 0,0 0,0 -1.276,2.54708 -3.4365,6.04484 -6.488,10.35327 0,0 0,0 0,0 -5.6629,7.99618 -14.3955,18.85668 -26.5258,31.43303 0,0 0,0 0,0 0,10e-6 0,10e-6 0,2e-5 0,0 0,0 0,0 -5.30857,5.50741 -11.28161,11.352 -17.99775,17.3657 -6.71614,6.01371 -14.1754,12.19714 -22.48256,18.32093 0,0 0,0 0,0 -6.91176,5.11464 -14.46917,10.21239 -22.77359,14.97493 -8.30442,4.76254 -17.3561,9.19021 -27.26617,12.8563 -8.48676,3.13006 -17.69208,5.61322 -27.5584,6.88444 0,0 0,0 0,0 -9.11095,1.17434 -18.76078,1.17122 -28.59103,-0.50521 0,0 0,0 0,0 -9.71896,-1.6914 -19.31887,-5.06263 -28.25626,-10.09761 0,0 0,0 0,0 -9.71553,-5.51951 -18.42837,-12.7052 -25.90435,-20.95646 0,0 0,0 0,0 -8.83636,-9.74335 -16.19879,-20.75033 -22.30911,-32.29983 0,0 0,0 0,0 -7.4993,-14.12375 -13.46123,-29.15918 -18.32082,-44.54104 -4.29129,-13.58728 -7.89373,-27.53415 -10.89658,-41.73937 -6.50801,-30.78666 -9.89953,-61.10988 -12.04749,-89.93029 -0.17239,-2.09794 -0.3531,-3.92369 -0.67418,-5.44802 -0.30296,-1.14414 -0.36273,-1.71852 -0.38537,-1.61801 -0.24035,0.17744 0.70519,1.00801 2.66517,2.79617 0.9826,0.70138 2.20417,1.22325 3.68566,1.59417 3e-5,10e-6 7e-5,10e-6 10e-5,2e-5 1.48792,0.28949 2.75516,0.34638 3.8338,0.15385 2.25645,-0.64307 3.29362,-0.91945 3.14109,-1.13411 0,0 0,0 0,0 -0.016,-0.0862 -0.35345,0.30548 -1.08863,1.01102 0,0 -10e-6,10e-6 -10e-6,10e-6 -2.13164,2.18798 -4.13545,5.30721 -6.43208,8.88235 -3.09624,4.93909 -5.93917,10.16904 -8.73055,15.52532 -3.50861,6.74608 -6.7971,13.54994 -9.97278,20.32898 -8.03975,17.16516 -15.22117,33.89928 -21.93115,49.79643 -8.79771,20.84549 -16.70098,40.17692 -23.80032,57.55587 -7.09934,17.37896 -13.39375,32.80549 -18.88083,45.88083 -13.03167,31.68994 -21.73731,49.45849 -24.32059,48.58486 -2.58327,-0.87363 1.28398,-20.28245 10.17747,-53.42397 3.78483,-13.71213 8.50736,-29.77144 14.20333,-47.80072 5.69598,-18.02928 12.36472,-38.02934 20.13548,-59.58349 5.91726,-16.41667 12.4805,-33.80346 20.12931,-51.83547 3.0223,-7.12611 6.24115,-14.39375 9.77591,-21.74029 2.78134,-5.79384 5.81835,-11.75027 9.33742,-17.74064 2.37627,-4.14519 5.32397,-8.72952 9.33542,-13.35114 1e-5,-10e-6 2e-5,-2e-5 3e-5,-3e-5 1.33521,-1.58947 3.21433,-3.3968 5.73868,-5.27185 10e-6,-10e-6 3e-5,-3e-5 5e-5,-4e-5 1.65744,-1.48917 4.70511,-2.86559 9.16096,-3.82301 1.96883,-0.31976 4.1508,-0.24555 6.5167,0.24424 5e-5,2e-5 1.1e-4,3e-5 1.6e-4,4e-5 2.35862,0.57103 4.41288,1.47523 6.13757,2.68756 3.83621,3.07998 6.07449,5.89963 6.83758,8.1313 1.47727,3.17114 2.3303,5.93191 2.74708,8.14711 0.69634,3.22433 1.10116,6.24909 1.34088,9.02572 2.66645,28.12671 6.14965,57.23921 12.25238,86.26444 2.81585,13.39247 6.13133,26.43273 10.04736,39.04741 4.40633,14.19968 9.50797,27.67919 15.81725,39.97966 0,0 0,0 0,0 5.16582,10.02865 10.95038,19.22489 17.71127,26.96226 0,0 0,0 0,0 5.67618,6.48911 11.91835,12.04871 18.652,16.08801 0,0 0,0 0,0 6.11093,3.70977 12.76545,6.33621 19.48973,7.77032 0,0 0,0 0,0 6.83682,1.49162 13.97527,1.76791 20.99824,1.2272 0,0 0,0 0,0 7.65438,-0.59125 15.21859,-2.25781 22.52783,-4.47762 0,0 0,0 0,0 8.59969,-2.60288 16.73661,-6.0167 24.43617,-9.81091 7.69957,-3.79422 14.96161,-7.96916 21.80203,-12.20122 0,0 0,0 0,0 8.18213,-5.08318 15.70522,-10.2847 22.62765,-15.36204 6.92243,-5.07735 13.244,-10.03106 19.00169,-14.68006 0,0 10e-6,0 10e-6,-10e-6 0,0 0,0 0,0 13.14654,-10.62227 23.30334,-19.62849 30.64484,-25.85271 0,0 0,0 0,0 3.9557,-3.35392 7.0799,-5.90205 9.3794,-7.52092 0,0 0,0 0,0 1.1857,-0.83483 2.1495,-1.41993 2.8925,-1.74192 0,0 0,0 0,0 0.3767,-0.16327 0.696,-0.25809 0.9582,-0.28323 0,0 0,0 0,0 0,0 0,0 0,0 0.2293,0.067 0.3717,0.0927 0.4629,0.10628 0,0 0,0 0,0 0.07,0.0265 0.1092,0.0353 0.1308,0.0375 0.011,0.001 0.017,4.4e-4 0.021,-4.6e-4 0,-0.002 0,-0.002 0,-0.002 z"
       id="path2985"
       inkscape:connector-curvature="0"
       inkscape:path-effect="#path-effect3769"
       inkscape:original-d="m 634.99132,-523.36672 c 0,0 109.60252,-335.37149 117.23235,-245.12221 36.26322,428.93862 284.19963,124.33735 284.19963,124.33735"
       sodipodi:nodetypes="csc" /><path
       style="color:#000000;fill:#ff0000;fill-opacity:1;fill-rule:nonzero;stroke:none;stroke-width:2;marker:none;visibility:visible;display:inline;overflow:visible;enable-background:accumulate"
       d="m 768.787,-291.23098 c 0,8.15943 -22.28051,14.77396 -49.76492,14.77396 -27.48441,0 -49.76492,-6.61453 -49.76492,-14.77396 0,-8.15943 22.28051,-14.77396 49.76492,-14.77396 27.48441,0 49.76492,6.61453 49.76492,14.77396 z"
       id="path3755"
       inkscape:connector-curvature="0" /><path
       sodipodi:type="spiral"
       style="color:#000000;fill:#000000;fill-opacity:1;fill-rule:nonzero;stroke:none;stroke-width:1px;marker:none;visibility:visible;display:inline;overflow:visible;enable-background:accumulate"
       id="path3777"
       sodipodi:cx="-258.15552"
       sodipodi:cy="456.73831"
       sodipodi:expansion="3.8699999"
       sodipodi:revolution="8.8199997"
       sodipodi:radius="151.33012"
       sodipodi:argument="-62.266727"
       sodipodi:t0="0.56900001"
       d="m -130.41271,375.6052 c -0.35714,0.26346 -1.33668,-0.34233 -2.9471,-1.72119 -1.61042,-1.37885 -3.85403,-3.53106 -6.82265,-6.28521 -2.96862,-2.75414 -6.66523,-6.11148 -11.225,-9.81319 -4.55978,-3.70171 -9.98607,-7.7497 -16.40961,-11.7735 -5.48051,-3.43855 -11.7113,-6.82012 -18.72445,-9.87071 -7.01315,-3.05059 -14.81098,-5.77016 -23.33877,-7.84897 -8.52779,-2.07881 -17.78775,-3.51684 -27.60426,-3.96921 -9.81652,-0.45236 -20.19158,0.081 -30.79707,1.9798 -7.82093,1.40022 -15.78246,3.52592 -23.68293,6.48372 -7.90048,2.9578 -15.74026,6.7478 -23.25401,11.46685 -6.92101,4.33853 -13.58213,9.48721 -19.76463,15.40923 -6.1825,5.92202 -11.88653,12.61754 -16.85074,20.00971 -7.81517,11.58095 -13.66476,25.09261 -16.92898,39.67183 -3.26422,14.57922 -3.94307,30.22707 -1.36205,45.65803 2.34837,14.03862 7.3157,27.99777 15.03243,40.50773 7.57196,12.3119 17.91805,23.34264 30.28777,31.75591 10.22451,7.0027 22.07292,12.07989 34.64498,14.88616 12.57206,2.80627 25.86727,3.34154 38.80653,1.23867 12.27255,-1.99508 24.33947,-6.27847 35.04716,-12.82998 10.75171,-6.55262 20.28965,-15.50202 27.52717,-26.0799 6.13121,-8.88306 10.53013,-19.17355 12.9584,-30.02603 2.42828,-10.85249 2.88584,-22.26648 1.12325,-33.30909 -1.70272,-10.66206 -5.39085,-21.09697 -10.99725,-30.3055 -5.65519,-9.33381 -13.38923,-17.58265 -22.47859,-23.82293 -2.79767,-1.94074 -5.7582,-3.67928 -8.84505,-5.20689 -14.05932,-6.95763 -30.48269,-9.42183 -45.71138,-7.02296 -9.3151,1.46846 -18.31041,4.66988 -26.15298,9.42787 -8.1511,4.91675 -15.24506,11.61617 -20.56666,19.34977 -4.67354,6.71147 -7.94061,14.46577 -9.7268,22.51895 -1.78619,8.05317 -2.09145,16.40498 -0.85197,24.36677 1.25103,8.0274 3.99243,15.77392 8.06577,22.50906 4.217,7.01952 9.97816,13.12996 16.61624,17.70661 5.74393,4.0135 12.39698,6.82025 19.30231,8.35889 6.90533,1.53865 14.0628,1.80915 20.87417,0.76111 6.89691,-1.06271 13.54787,-3.40309 19.31489,-6.88002 6.02734,-3.6062 11.27509,-8.54617 15.19979,-14.22772 3.43592,-4.90098 5.83972,-10.59113 7.16113,-16.49319 1.3214,-5.90206 1.56041,-12.01599 0.67786,-17.8247 -0.89868,-5.9559 -3.06029,-11.77247 -6.16136,-16.87403 -3.10106,-5.10155 -7.14159,-9.48808 -11.83138,-12.65968 -4.16954,-2.93348 -9.02104,-4.98649 -14.04931,-6.11853 -5.02826,-1.13203 -10.23332,-1.34308 -15.17082,-0.6039 -5.08861,0.75585 -10.06205,2.59652 -14.41748,5.23455 -4.35544,2.63804 -8.09296,6.0735 -10.78689,10.0527 -2.50004,3.53891 -4.25002,7.66444 -5.21841,11.93593 -0.9684,4.27149 -1.15522,8.68903 -0.54033,12.87332 0.63232,4.34136 2.19532,8.58611 4.43326,12.29705 2.23794,3.71094 5.15092,6.88827 8.51753,9.17366 3.00067,2.13073 6.50363,3.62186 10.12517,4.4506 3.62155,0.82874 7.36187,0.99513 10.89972,0.4881 3.70644,-0.52587 7.32904,-1.85111 10.48944,-3.74657 3.1604,-1.89546 5.85891,-4.36129 7.79928,-7.20379 1.82255,-2.54892 3.09645,-5.52594 3.80832,-8.59645 0.71188,-3.07051 0.86178,-6.23477 0.44877,-9.22341 -0.43452,-3.18042 -1.55986,-6.28288 -3.16652,-8.98143 -1.60667,-2.69855 -3.69489,-4.9937 -6.0932,-6.64843 -2.18187,-1.57608 -4.72695,-2.67357 -7.34034,-3.29117 -2.61339,-0.61759 -5.29553,-0.75535 -7.82356,-0.42591 -2.76967,0.35627 -5.4564,1.32029 -7.7806,2.68994 -2.32421,1.36965 -4.28679,3.14533 -5.71259,5.16912 -1.4028,1.90893 -2.36834,4.12409 -2.91653,6.37507 -0.54819,2.25098 -0.67921,4.53872 -0.43042,6.68293 0,1e-5 10e-6,1e-5 10e-6,2e-5 0.28803,2.52028 1.1421,4.92347 2.32979,6.97037 1.1877,2.04691 2.71002,3.74004 4.39868,4.98956 1.81085,1.38415 3.872,2.28536 5.87811,2.80105 2.00611,0.51569 3.96132,0.6469 5.72758,0.51735 0,0 0,0 1e-5,0 2.05663,-0.14754 3.89339,-0.6703 5.42103,-1.29194 1.52764,-0.62164 2.75451,-1.34462 3.72592,-1.98382 0.9714,-0.63919 1.6937,-1.19592 2.236,-1.54759 0.54229,-0.35168 0.90852,-0.49829 1.11378,-0.36967 0.20527,0.12862 0.24761,0.53254 0.0616,1.2053 -0.18606,0.67277 -0.60346,1.61654 -1.38511,2.73401 -0.78164,1.11748 -1.93303,2.41186 -3.59073,3.6546 -1.6577,1.24273 -3.82934,2.43784 -6.55616,3.17131 0,0 0,0 -10e-6,0 -2.2943,0.61833 -4.94861,0.92056 -7.83559,0.65101 -2.88699,-0.26956 -6.01085,-1.11155 -9.06524,-2.81499 -2.76368,-1.57604 -5.37473,-3.79105 -7.54047,-6.63386 -2.16573,-2.84281 -3.88724,-6.31587 -4.76854,-10.27524 -10e-6,-1e-5 -10e-6,-2e-5 -10e-6,-2e-5 -0.72834,-3.27042 -0.9055,-6.80018 -0.38941,-10.40086 0.51609,-3.60068 1.72562,-7.27321 3.771,-10.73547 2.14437,-3.53739 5.04989,-6.71423 8.60151,-9.26048 3.55161,-2.54625 7.75023,-4.46227 12.38341,-5.41684 4.09572,-0.84343 8.43237,-0.96439 12.77583,-0.2567 4.34346,0.70769 8.69416,2.24413 12.74397,4.71085 4.28106,2.67851 8.04534,6.25036 11.01695,10.53056 2.97161,4.28021 5.15073,9.26928 6.21379,14.69719 0.96654,4.9412 1.04242,10.12403 0.14134,15.2665 -0.90107,5.14247 -2.77917,10.24484 -5.7137,14.95861 -3.23345,5.05646 -7.50506,9.44874 -12.56547,12.88418 -5.06041,3.43543 -10.90996,5.91412 -17.21932,7.10213 -5.84327,1.09826 -11.93714,1.12895 -17.9469,0.0206 -6.00975,-1.10832 -11.93556,-3.35569 -17.37935,-6.80499 -5.88358,-3.82706 -10.9524,-8.85111 -14.89088,-14.75648 -3.93848,-5.90538 -6.74667,-12.69227 -8.07154,-19.96704 -1.23886,-6.81786 -1.2198,-13.89998 0.11493,-20.85287 1.33473,-6.95288 3.98518,-13.77661 7.99899,-20.01576 4.46846,-6.77241 10.30785,-12.57101 17.13082,-17.05309 6.82297,-4.48207 14.62963,-7.64761 22.95538,-9.11932 7.87452,-1.38836 16.02993,-1.3123 24.00709,0.27143 7.97716,1.58373 15.77608,4.67516 22.8765,9.30581 7.72901,5.16359 14.31352,11.88798 19.38055,19.70669 5.06704,7.81871 8.61655,16.73176 10.24367,26.19574 1.54639,9.0198 1.4038,18.33894 -0.45419,27.42506 -1.85798,9.08612 -5.4314,17.93917 -10.73318,25.96665 -5.94532,8.92229 -13.81047,16.60977 -23.10678,22.40061 -8.84896,5.48614 -18.75547,9.196 -29.08512,10.91889 -10.25831,1.71219 -20.83517,1.49126 -31.11674,-0.66863 -10.28157,-2.15989 -20.26771,-6.25875 -29.28631,-12.28707 -10.03256,-6.76312 -18.6416,-15.67496 -25.10031,-26.1524 -6.14106,-10.00575 -10.26327,-21.18674 -12.15173,-32.81217 -1.88433,-11.59287 -1.57049,-23.52302 0.92127,-35.08606 2.49176,-11.56304 7.16145,-22.75876 13.97147,-32.82816 7.64518,-11.21468 17.68212,-20.79991 29.42021,-27.96116 11.24624,-6.83398 23.79171,-11.38689 36.79805,-13.4434 21.37259,-3.38116 43.71633,-0.0624 63.40551,9.68929 4.32293,2.14107 8.50123,4.58416 12.49803,7.31923 12.60393,8.68855 23.16114,19.97708 30.96461,32.90477 7.64313,12.70704 12.57984,26.72299 14.77737,41.02955 2.28781,14.8873 1.62443,29.97624 -1.69427,44.32731 -3.31869,14.35108 -9.29255,27.96382 -17.62576,39.98901 -9.73847,13.96084 -22.32332,25.55461 -36.59289,34.06602 -14.16653,8.42398 -29.71852,13.77447 -45.47317,16.11234 -16.67981,2.47618 -33.47596,1.58219 -49.30856,-2.21542 -15.83261,-3.79761 -30.7012,-10.49854 -43.70866,-19.64726 -15.41698,-10.90471 -28.01661,-24.87785 -37.16488,-40.4478 -9.2487,-15.78077 -14.9366,-32.93418 -17.35715,-50.0474 -2.67066,-18.87439 -1.36439,-37.59493 3.04094,-54.89251 4.40533,-17.29758 11.90906,-33.17338 21.69087,-46.78661 6.17882,-8.56168 13.16029,-16.2001 20.65121,-22.87125 7.49092,-6.67116 15.49138,-12.37525 23.75283,-17.10757 8.9536,-5.11945 18.15255,-9.09773 27.32434,-12.07882 9.17179,-2.9811 18.31676,-4.96518 27.22795,-6.10258 12.11078,-1.54633 23.76068,-1.52027 34.64328,-0.38958 10.88261,1.1307 20.99994,3.36588 30.19961,6.2886 9.19967,2.92273 17.48391,6.53289 24.82231,10.46642 7.3384,3.93354 13.73331,8.19037 19.24195,12.46082 6.41155,4.98014 11.63384,9.91495 15.86044,14.42454 4.2266,4.5096 7.46067,8.59607 9.88649,12.0125 2.42582,3.41644 4.04605,6.16441 4.99155,8.10198 0.9455,1.93757 1.21812,3.06548 0.86098,3.32893 z"
       transform="matrix(1.7140347,0,0,1.7140347,731.56044,-1344.7161)"
       inkscape:path-effect="#path-effect3810" /><path
       inkscape:path-effect="#path-effect3810"
       transform="matrix(0.94734111,0,0,0.94734111,529.82435,-93.459068)"
       d="m -130.41271,375.6052 c -0.35714,0.26346 -1.33668,-0.34233 -2.9471,-1.72119 -1.61042,-1.37885 -3.85403,-3.53106 -6.82265,-6.28521 -2.96862,-2.75414 -6.66523,-6.11148 -11.225,-9.81319 -4.55978,-3.70171 -9.98607,-7.7497 -16.40961,-11.7735 -5.48051,-3.43855 -11.7113,-6.82012 -18.72445,-9.87071 -7.01315,-3.05059 -14.81098,-5.77016 -23.33877,-7.84897 -8.52779,-2.07881 -17.78775,-3.51684 -27.60426,-3.96921 -9.81652,-0.45236 -20.19158,0.081 -30.79707,1.9798 -7.82093,1.40022 -15.78246,3.52592 -23.68293,6.48372 -7.90048,2.9578 -15.74026,6.7478 -23.25401,11.46685 -6.92101,4.33853 -13.58213,9.48721 -19.76463,15.40923 -6.1825,5.92202 -11.88653,12.61754 -16.85074,20.00971 -7.81517,11.58095 -13.66476,25.09261 -16.92898,39.67183 -3.26422,14.57922 -3.94307,30.22707 -1.36205,45.65803 2.34837,14.03862 7.3157,27.99777 15.03243,40.50773 7.57196,12.3119 17.91805,23.34264 30.28777,31.75591 10.22451,7.0027 22.07292,12.07989 34.64498,14.88616 12.57206,2.80627 25.86727,3.34154 38.80653,1.23867 12.27255,-1.99508 24.33947,-6.27847 35.04716,-12.82998 10.75171,-6.55262 20.28965,-15.50202 27.52717,-26.0799 6.13121,-8.88306 10.53013,-19.17355 12.9584,-30.02603 2.42828,-10.85249 2.88584,-22.26648 1.12325,-33.30909 -1.70272,-10.66206 -5.39085,-21.09697 -10.99725,-30.3055 -5.65519,-9.33381 -13.38923,-17.58265 -22.47859,-23.82293 -2.79767,-1.94074 -5.7582,-3.67928 -8.84505,-5.20689 -14.05932,-6.95763 -30.48269,-9.42183 -45.71138,-7.02296 -9.3151,1.46846 -18.31041,4.66988 -26.15298,9.42787 -8.1511,4.91675 -15.24506,11.61617 -20.56666,19.34977 -4.67354,6.71147 -7.94061,14.46577 -9.7268,22.51895 -1.78619,8.05317 -2.09145,16.40498 -0.85197,24.36677 1.25103,8.0274 3.99243,15.77392 8.06577,22.50906 4.217,7.01952 9.97816,13.12996 16.61624,17.70661 5.74393,4.0135 12.39698,6.82025 19.30231,8.35889 6.90533,1.53865 14.0628,1.80915 20.87417,0.76111 6.89691,-1.06271 13.54787,-3.40309 19.31489,-6.88002 6.02734,-3.6062 11.27509,-8.54617 15.19979,-14.22772 3.43592,-4.90098 5.83972,-10.59113 7.16113,-16.49319 1.3214,-5.90206 1.56041,-12.01599 0.67786,-17.8247 -0.89868,-5.9559 -3.06029,-11.77247 -6.16136,-16.87403 -3.10106,-5.10155 -7.14159,-9.48808 -11.83138,-12.65968 -4.16954,-2.93348 -9.02104,-4.98649 -14.04931,-6.11853 -5.02826,-1.13203 -10.23332,-1.34308 -15.17082,-0.6039 -5.08861,0.75585 -10.06205,2.59652 -14.41748,5.23455 -4.35544,2.63804 -8.09296,6.0735 -10.78689,10.0527 -2.50004,3.53891 -4.25002,7.66444 -5.21841,11.93593 -0.9684,4.27149 -1.15522,8.68903 -0.54033,12.87332 0.63232,4.34136 2.19532,8.58611 4.43326,12.29705 2.23794,3.71094 5.15092,6.88827 8.51753,9.17366 3.00067,2.13073 6.50363,3.62186 10.12517,4.4506 3.62155,0.82874 7.36187,0.99513 10.89972,0.4881 3.70644,-0.52587 7.32904,-1.85111 10.48944,-3.74657 3.1604,-1.89546 5.85891,-4.36129 7.79928,-7.20379 1.82255,-2.54892 3.09645,-5.52594 3.80832,-8.59645 0.71188,-3.07051 0.86178,-6.23477 0.44877,-9.22341 -0.43452,-3.18042 -1.55986,-6.28288 -3.16652,-8.98143 -1.60667,-2.69855 -3.69489,-4.9937 -6.0932,-6.64843 -2.18187,-1.57608 -4.72695,-2.67357 -7.34034,-3.29117 -2.61339,-0.61759 -5.29553,-0.75535 -7.82356,-0.42591 -2.76967,0.35627 -5.4564,1.32029 -7.7806,2.68994 -2.32421,1.36965 -4.28679,3.14533 -5.71259,5.16912 -1.4028,1.90893 -2.36834,4.12409 -2.91653,6.37507 -0.54819,2.25098 -0.67921,4.53872 -0.43042,6.68293 0,1e-5 10e-6,1e-5 10e-6,2e-5 0.28803,2.52028 1.1421,4.92347 2.32979,6.97037 1.1877,2.04691 2.71002,3.74004 4.39868,4.98956 1.81085,1.38415 3.872,2.28536 5.87811,2.80105 2.00611,0.51569 3.96132,0.6469 5.72758,0.51735 0,0 0,0 1e-5,0 2.05663,-0.14754 3.89339,-0.6703 5.42103,-1.29194 1.52764,-0.62164 2.75451,-1.34462 3.72592,-1.98382 0.9714,-0.63919 1.6937,-1.19592 2.236,-1.54759 0.54229,-0.35168 0.90852,-0.49829 1.11378,-0.36967 0.20527,0.12862 0.24761,0.53254 0.0616,1.2053 -0.18606,0.67277 -0.60346,1.61654 -1.38511,2.73401 -0.78164,1.11748 -1.93303,2.41186 -3.59073,3.6546 -1.6577,1.24273 -3.82934,2.43784 -6.55616,3.17131 0,0 0,0 -10e-6,0 -2.2943,0.61833 -4.94861,0.92056 -7.83559,0.65101 -2.88699,-0.26956 -6.01085,-1.11155 -9.06524,-2.81499 -2.76368,-1.57604 -5.37473,-3.79105 -7.54047,-6.63386 -2.16573,-2.84281 -3.88724,-6.31587 -4.76854,-10.27524 -10e-6,-1e-5 -10e-6,-2e-5 -10e-6,-2e-5 -0.72834,-3.27042 -0.9055,-6.80018 -0.38941,-10.40086 0.51609,-3.60068 1.72562,-7.27321 3.771,-10.73547 2.14437,-3.53739 5.04989,-6.71423 8.60151,-9.26048 3.55161,-2.54625 7.75023,-4.46227 12.38341,-5.41684 4.09572,-0.84343 8.43237,-0.96439 12.77583,-0.2567 4.34346,0.70769 8.69416,2.24413 12.74397,4.71085 4.28106,2.67851 8.04534,6.25036 11.01695,10.53056 2.97161,4.28021 5.15073,9.26928 6.21379,14.69719 0.96654,4.9412 1.04242,10.12403 0.14134,15.2665 -0.90107,5.14247 -2.77917,10.24484 -5.7137,14.95861 -3.23345,5.05646 -7.50506,9.44874 -12.56547,12.88418 -5.06041,3.43543 -10.90996,5.91412 -17.21932,7.10213 -5.84327,1.09826 -11.93714,1.12895 -17.9469,0.0206 -6.00975,-1.10832 -11.93556,-3.35569 -17.37935,-6.80499 -5.88358,-3.82706 -10.9524,-8.85111 -14.89088,-14.75648 -3.93848,-5.90538 -6.74667,-12.69227 -8.07154,-19.96704 -1.23886,-6.81786 -1.2198,-13.89998 0.11493,-20.85287 1.33473,-6.95288 3.98518,-13.77661 7.99899,-20.01576 4.46846,-6.77241 10.30785,-12.57101 17.13082,-17.05309 6.82297,-4.48207 14.62963,-7.64761 22.95538,-9.11932 7.87452,-1.38836 16.02993,-1.3123 24.00709,0.27143 7.97716,1.58373 15.77608,4.67516 22.8765,9.30581 7.72901,5.16359 14.31352,11.88798 19.38055,19.70669 5.06704,7.81871 8.61655,16.73176 10.24367,26.19574 1.54639,9.0198 1.4038,18.33894 -0.45419,27.42506 -1.85798,9.08612 -5.4314,17.93917 -10.73318,25.96665 -5.94532,8.92229 -13.81047,16.60977 -23.10678,22.40061 -8.84896,5.48614 -18.75547,9.196 -29.08512,10.91889 -10.25831,1.71219 -20.83517,1.49126 -31.11674,-0.66863 -10.28157,-2.15989 -20.26771,-6.25875 -29.28631,-12.28707 -10.03256,-6.76312 -18.6416,-15.67496 -25.10031,-26.1524 -6.14106,-10.00575 -10.26327,-21.18674 -12.15173,-32.81217 -1.88433,-11.59287 -1.57049,-23.52302 0.92127,-35.08606 2.49176,-11.56304 7.16145,-22.75876 13.97147,-32.82816 7.64518,-11.21468 17.68212,-20.79991 29.42021,-27.96116 11.24624,-6.83398 23.79171,-11.38689 36.79805,-13.4434 21.37259,-3.38116 43.71633,-0.0624 63.40551,9.68929 4.32293,2.14107 8.50123,4.58416 12.49803,7.31923 12.60393,8.68855 23.16114,19.97708 30.96461,32.90477 7.64313,12.70704 12.57984,26.72299 14.77737,41.02955 2.28781,14.8873 1.62443,29.97624 -1.69427,44.32731 -3.31869,14.35108 -9.29255,27.96382 -17.62576,39.98901 -9.73847,13.96084 -22.32332,25.55461 -36.59289,34.06602 -14.16653,8.42398 -29.71852,13.77447 -45.47317,16.11234 -16.67981,2.47618 -33.47596,1.58219 -49.30856,-2.21542 -15.83261,-3.79761 -30.7012,-10.49854 -43.70866,-19.64726 -15.41698,-10.90471 -28.01661,-24.87785 -37.16488,-40.4478 -9.2487,-15.78077 -14.9366,-32.93418 -17.35715,-50.0474 -2.67066,-18.87439 -1.36439,-37.59493 3.04094,-54.89251 4.40533,-17.29758 11.90906,-33.17338 21.69087,-46.78661 6.17882,-8.56168 13.16029,-16.2001 20.65121,-22.87125 7.49092,-6.67116 15.49138,-12.37525 23.75283,-17.10757 8.9536,-5.11945 18.15255,-9.09773 27.32434,-12.07882 9.17179,-2.9811 18.31676,-4.96518 27.22795,-6.10258 12.11078,-1.54633 23.76068,-1.52027 34.64328,-0.38958 10.88261,1.1307 20.99994,3.36588 30.19961,6.2886 9.19967,2.92273 17.48391,6.53289 24.82231,10.46642 7.3384,3.93354 13.73331,8.19037 19.24195,12.46082 6.41155,4.98014 11.63384,9.91495 15.86044,14.42454 4.2266,4.5096 7.46067,8.59607 9.88649,12.0125 2.42582,3.41644 4.04605,6.16441 4.99155,8.10198 0.9455,1.93757 1.21812,3.06548 0.86098,3.32893 z"
       sodipodi:t0="0.56900001"
       sodipodi:argument="-62.266727"
       sodipodi:radius="151.33012"
       sodipodi:revolution="8.8199997"
       sodipodi:expansion="3.8699999"
       sodipodi:cy="456.73831"
       sodipodi:cx="-258.15552"
       id="path3020"
       style="color:#000000;fill:#000000;fill-opacity:1;fill-rule:nonzero;stroke:none;stroke-width:1px;marker:none;visibility:visible;display:inline;overflow:visible;enable-background:accumulate"
       sodipodi:type="spiral" /><path
       inkscape:path-effect="#path-effect3810-9"
       transform="matrix(0.94734111,0,0,0.94734111,1546.5494,-98.735884)"
       d="m -130.41271,375.6052 c -0.56757,0.41869 -2.46203,-1.06833 -5.74915,-4.04378 -3.28713,-2.97544 -7.98925,-7.4382 -14.45776,-12.64188 -6.46851,-5.20368 -14.72904,-11.15199 -25.05212,-16.74561 -5.16153,-2.79682 -10.83497,-5.49908 -17.01659,-7.93106 -6.18162,-2.43197 -12.87207,-4.59379 -20.02902,-6.28135 -6.91075,-1.62946 -14.26238,-2.82916 -21.95877,-3.42043 -7.6964,-0.59128 -15.73795,-0.57412 -23.97227,0.24395 -7.31537,0.7242 -14.79646,2.08588 -22.28772,4.17019 -7.49126,2.0843 -14.99277,4.8913 -22.30452,8.49426 -13.0124,6.38052 -25.40633,15.51951 -36.08669,27.06863 -10.68036,11.54911 -19.64572,25.50737 -25.51065,41.0807 -5.27648,14.01151 -8.1536,29.36768 -7.76849,44.90008 0.36163,15.28229 3.92782,30.87267 10.72348,45.17079 5.25901,11.14374 12.69911,21.48916 21.79758,30.40254 10.71411,10.49616 23.42723,18.71477 36.94184,23.98517 12.72964,4.96351 26.21112,7.44451 39.333,7.26167 13.99455,-0.17631 27.72615,-3.39603 39.92031,-9.03798 11.40556,-5.23505 21.48159,-12.84505 29.72679,-21.74934 8.24521,-8.90428 14.65889,-19.10194 18.95127,-29.72505 4.63935,-11.48457 6.91982,-23.49411 6.9121,-34.99265 0.004,-6.43172 -0.70966,-12.74415 -2.0197,-18.78019 -1.31003,-6.03604 -3.21645,-11.7958 -5.60498,-17.16645 -4.9473,-11.20579 -12.21873,-20.67765 -20.26864,-28.16223 -8.0499,-7.48457 -16.88498,-12.98967 -25.51389,-16.73672 -1e-5,0 -1e-5,-10e-6 -2e-5,-10e-6 -5.75269,-2.49744 -11.42907,-4.25019 -16.81457,-5.42012 -5.3855,-1.16993 -10.48191,-1.75818 -15.16726,-1.95319 -5.49974,-0.23296 -10.4429,0.077 -14.72261,0.58022 -4.27972,0.50324 -7.9007,1.19941 -10.84011,1.81439 -2.9394,0.61498 -5.20131,1.14797 -6.78051,1.40921 -1.57921,0.26124 -2.47849,0.24937 -2.65838,-0.12521 -0.17989,-0.37458 0.36446,-1.10377 1.65641,-2.12245 1.29195,-1.01868 3.33411,-2.32649 6.17958,-3.73777 2.84547,-1.41128 6.49822,-2.92586 10.99099,-4.24145 4.49278,-1.31558 9.83026,-2.43205 15.9593,-2.93266 5.21109,-0.42278 10.97555,-0.40281 17.16708,0.30463 6.19154,0.70745 12.8119,2.10363 19.62951,4.42407 0,10e-6 1e-5,10e-6 2e-5,10e-6 10.24858,3.48823 20.93598,9.08238 30.89898,17.23731 4.98151,4.07747 9.77308,8.78957 14.17274,14.15345 4.39966,5.36388 8.40752,11.3798 11.78099,18.03271 3.18277,6.30704 5.80249,13.12074 7.70488,20.33382 1.90238,7.21308 3.08735,14.82565 3.39267,22.68499 0.52995,14.00045 -1.68346,28.64006 -6.90963,42.77003 -4.84947,13.11247 -12.2692,25.71484 -22.07225,36.81113 -9.80305,11.09629 -21.98945,20.68496 -36.13706,27.56565 -14.93834,7.22262 -31.7345,11.43827 -49.0887,11.86617 -16.21005,0.3825 -32.69399,-2.47043 -48.2566,-8.45378 -16.57903,-6.37346 -32.01612,-16.26458 -45.01318,-29.02227 -11.03717,-10.83389 -20.05577,-23.48147 -26.53633,-37.24295 -8.17248,-17.45643 -12.31248,-36.28869 -12.54453,-54.7995 -0.21718,-18.75061 3.46044,-36.94656 10.02573,-53.40896 7.31821,-18.35256 18.18223,-34.45816 31.01287,-47.59637 12.83063,-13.13822 27.62474,-23.30938 43.08132,-30.27417 8.61981,-3.86522 17.3723,-6.7604 26.0451,-8.79224 8.67281,-2.03185 17.266,-3.20053 25.61364,-3.62484 9.38296,-0.47375 18.42713,-0.0237 26.98821,1.11656 8.56107,1.14022 16.63947,2.9704 24.14921,5.27437 7.78821,2.38898 14.95706,5.28804 21.48531,8.4637 6.52825,3.17566 12.41657,6.62798 17.68212,10.15854 10.53109,7.06112 18.55745,14.40348 24.50508,20.83923 5.94762,6.43575 9.84202,11.96936 12.17045,15.89135 2.32843,3.92199 3.11171,6.23446 2.54414,6.65314 z"
       sodipodi:t0="0.86186725"
       sodipodi:argument="-62.266727"
       sodipodi:radius="151.33012"
       sodipodi:revolution="8.8199997"
       sodipodi:expansion="3.8699999"
       sodipodi:cy="456.73831"
       sodipodi:cx="-258.15552"
       id="path3020-4"
       style="color:#000000;fill:#000000;fill-opacity:1;fill-rule:nonzero;stroke:none;stroke-width:1px;marker:none;visibility:visible;display:inline;overflow:visible;enable-background:accumulate"
       sodipodi:type="spiral" /><path
       style="fill:#000000;stroke:none;display:inline"
       d="m 1927.4473,325.84874 c -0.1672,0.49024 -0.9488,0.76152 -2.3071,0.84327 -1.3583,0.0818 -3.294,-0.0272 -5.7721,-0.25871 -2.4781,-0.23157 -5.4992,-0.58791 -9.0217,-0.93766 -3.5226,-0.34976 -7.5469,-0.69557 -12.0182,-0.80654 -3.0511,-0.068 -6.2987,-0.041 -9.6568,0.22399 -3.3581,0.26504 -6.8273,0.76711 -10.2765,1.72179 -4.5705,1.26138 -9.1989,3.25574 -13.0371,6.32849 0,0 0,0 0,10e-6 -3.284,2.54366 -6.2194,6.02708 -8.6355,10.12326 -2.4467,4.12752 -4.3042,9.03858 -5.823,14.4847 -1.5744,5.72513 -2.5998,11.98139 -3.3285,18.68274 -0.7631,7.03234 -1.1342,14.41609 -1.2278,22.14607 -0.094,7.72998 0.09,15.80636 0.3583,24.21105 0,1e-5 0,2e-5 0,3e-5 0.5489,16.29459 1.6488,33.639 2.3039,52.04651 0.5927,16.04671 0.9032,33.09748 -0.7158,50.99834 -0.6817,7.55727 -1.7948,15.3859 -3.6867,23.36678 -1.6172,6.92451 -3.9964,14.09448 -7.5541,21.18936 -3.157,6.33526 -7.5297,12.48026 -13.2854,17.87385 -5.7924,5.29569 -12.611,9.28051 -19.992,11.72805 -4.6593,1.57239 -9.5846,2.55749 -14.6536,2.86782 -3.008,0.18416 -6.0538,0.12983 -9.1103,-0.17509 -7.9935,-0.91896 -15.3315,-3.37481 -21.7585,-6.82272 -7.1303,-3.81382 -13.2686,-8.43879 -18.5724,-13.323 -6.1464,-5.61635 -11.5123,-11.5746 -16.3378,-17.54914 -11.4751,-14.19599 -20.8017,-28.81541 -29.3833,-42.72547 -9.8743,-15.94957 -18.8548,-31.26181 -27.8681,-45.33272 0,-1e-5 0,-2e-5 0,-3e-5 -4.6572,-7.23458 -9.2349,-14.14025 -13.893,-20.56764 -4.6581,-6.42738 -9.3967,-12.37665 -14.3196,-17.75845 -4.7216,-5.16369 -9.4873,-9.7498 -14.4309,-13.50595 -4.8148,-3.64177 -9.6907,-6.57844 -14.589,-8.48201 -5.077,-2.00179 -10.3153,-3.03281 -15.2934,-3.10385 -6.1343,-0.14383 -12.1914,1.1864 -17.7272,3.08717 -4.161,1.43154 -8.0309,3.23968 -11.6256,5.17209 -3.5948,1.93242 -6.9141,3.99016 -9.9694,6.00307 0,0 0,0 0,0 -4.3815,2.89647 -8.1876,5.7106 -11.4913,8.21238 -3.3037,2.50179 -6.1039,4.69343 -8.4325,6.43296 -4.6571,3.47905 -7.4502,5.12302 -8.3,4.39006 -0.8498,-0.73296 0.2755,-3.8 3.5068,-8.83245 1.6156,-2.51622 3.7661,-5.51822 6.5372,-8.89834 2.7711,-3.38011 6.1617,-7.14046 10.3242,-11.09764 0,0 0,-10e-6 0,-10e-6 2.8987,-2.76314 6.2007,-5.62447 10.0007,-8.42767 3.8,-2.80319 8.0979,-5.54932 13.0108,-8.00091 6.6162,-3.29969 14.4232,-5.92014 23.3346,-6.73337 7.2893,-0.61682 15.0192,0.098 22.665,2.38194 7.2375,2.18441 14.2329,5.56402 20.7072,9.83321 6.6234,4.34961 12.8469,9.50978 18.6439,15.16177 5.997,5.84652 11.7152,12.21824 17.1977,18.96982 5.4825,6.75158 10.7291,13.88297 15.8399,21.18955 0,10e-6 0,2e-5 0,2e-5 10.0287,14.27602 19.703,29.49875 29.7902,44.8402 8.8789,13.46051 17.8648,26.99909 28.2117,39.31967 4.3305,5.15129 8.7732,10.00997 13.5387,14.23331 4.1411,3.63266 8.3054,6.81695 12.6114,8.99682 3.7659,1.89409 7.5832,3.25346 11.174,3.55761 1.3364,0.15889 2.7252,0.18344 4.1413,0.0873 2.3864,-0.16202 4.8329,-0.66524 7.2168,-1.43064 3.5288,-1.17364 6.8138,-3.03894 9.3916,-5.41478 2.7444,-2.39683 5.0732,-5.7665 7.1105,-9.54751 2.321,-4.35412 3.993,-9.38728 5.3987,-14.74661 1.5945,-6.18697 2.6067,-12.67833 3.3676,-19.31984 1.8065,-15.81389 1.8957,-31.8001 1.8771,-47.571 -0.044,-17.96389 -0.4269,-35.50259 -0.1598,-52.35813 0,-1e-5 0,-2e-5 0,-3e-5 0.1231,-8.62879 0.4027,-17.15423 1.0177,-25.47944 0.6151,-8.3252 1.5653,-16.45005 2.9506,-24.29169 1.3253,-7.51896 3.1661,-14.89005 5.6904,-21.86792 2.3915,-6.67329 5.5998,-13.04971 9.6555,-18.70507 4.1177,-5.73401 9.2256,-10.46927 14.8473,-13.94161 0,-10e-6 10e-5,-10e-6 10e-5,-10e-6 6.698,-4.04469 13.6075,-6.06626 19.9948,-6.84758 4.7202,-0.56823 9.1105,-0.56374 13.1462,-0.25244 4.0357,0.31131 7.7174,0.93042 11.0463,1.67489 4.8711,1.07872 9.0507,2.3899 12.5876,3.70226 3.537,1.31236 6.4315,2.62856 8.7116,3.8197 2.2801,1.19114 3.9457,2.25938 5.0041,3.14168 1.0584,0.88231 1.5092,1.57985 1.342,2.07009 z"
       id="path2985-5"
       inkscape:connector-curvature="0"
       inkscape:path-effect="#path-effect3769-2"
       inkscape:original-d="m 1526.0153,446.6336 c 135.2849,-156.85207 176.1337,171.35178 273.104,139.16535 91.7133,-30.44154 -41.2683,-317.78941 128.328,-259.95021"
       sodipodi:nodetypes="cac" /></g></svg>