<?xml version="1.0" encoding="UTF-8" standalone="no"?>
<!-- Created with Inkscape (http://www.inkscape.org/) -->

<svg
   xmlns:dc="http://purl.org/dc/elements/1.1/"
   xmlns:cc="http://creativecommons.org/ns#"
   xmlns:rdf="http://www.w3.org/1999/02/22-rdf-syntax-ns#"
   xmlns:svg="http://www.w3.org/2000/svg"
   xmlns="http://www.w3.org/2000/svg"
   xmlns:sodipodi="http://sodipodi.sourceforge.net/DTD/sodipodi-0.dtd"
   xmlns:inkscape="http://www.inkscape.org/namespaces/inkscape"
   id="svg2"
   version="1.1"
   inkscape:version="0.48.3.1 r9886"
   width="545.66876"
   height="765.35376"
   xml:space="preserve"
   sodipodi:docname="151117_p5ide.svg"><metadata
     id="metadata8"><rdf:RDF><cc:Work
         rdf:about=""><dc:format>image/svg+xml</dc:format><dc:type
           rdf:resource="http://purl.org/dc/dcmitype/StillImage" /><dc:title /></cc:Work></rdf:RDF></metadata><defs
     id="defs6"><inkscape:path-effect
       effect="skeletal"
       id="path-effect3138"
       is_visible="true"
       pattern="m 1029.5,736.4776 0,-24 c 0,-1.108 0.892,-2 2,-2 l 73,0 c 1.108,0 2,0.892 2,2 l 0,24 m 187,-11.9776 4.5,-4 -4.5,-4 0,2 -4.5,0 0,4 4.5,0 z m -8,-12 16,0 0,16 -16,0 z m -99,-30.5 0,13 m -2,-13 0,13 m -8,-2.5 4.5,-4 -4.5,-4 0,2 -4.5,0 0,4 4.5,0 z m -19.5,2 -10,0 m -16.5,0 -10,0 m 28,-7.5 4,4.5 4,-4.5 -2,0 0,-4.5 -4,0 0,4.5 z m -27,0 4,-4.5 4,4.5 -2,0 0,4.5 -4,0 0,-4.5 z m 47,-9.5 22,0 0,22 -22,0 z m -27,0 22,0 0,22 -22,0 z m -27,0 22,0 0,22 -22,0 z m -15,5 4,4 m -10,-4 6,0 0,4 4,0 0,8 -10,0 z m -6,-5 22,0 0,22 -22,0 z m -51,15 0,-8 6,4 z m 26,-7 6,0 0,6 -6,0 z m 15,2.9997 c 0,6.6275 -5.3726,12.0003 -12,12.0003 -6.6274,0 -12,-5.3728 -12,-12.0003 0,-6.6272 5.3726,-11.9997 12,-11.9997 6.6274,0 12,5.3725 12,11.9997 z m -27,0 c 0,6.6275 -5.3726,12.0003 -12,12.0003 -6.6274,0 -12,-5.3728 -12,-12.0003 0,-6.6272 5.3726,-11.9997 12,-11.9997 6.6274,0 12,5.3725 12,11.9997 z m 269,-16.9997 -299,0 m 299,33 -299,0 m 34,-71 216,0 0,13 -216,0 z m 252,3 6,0 0,6 -6,0 z m -2,-2 10,0 0,10 -10,0 z m -13,2 6,0 0,6 -6,0 z m -2,-2 10,0 0,10 -10,0 z m -13,2 6,0 0,6 -6,0 z m -2,-2 10,0 0,10 -10,0 z m -233,2 6,0 0,6 -6,0 z m -2,-2 10,0 0,10 -10,0 z m -13,2 6,0 0,6 -6,0 z m -2,-2 10,0 0,10 -10,0 z m 295,15 -299,0 m 299,87 -299,0 m 299,349 -299,0 m 299,24 -299,0 m 299,115 -299,0 m 3,-80 293,0 0,59 -293,0 z m -3,-514 299,0 0,598 -299,0 z"
       copytype="single_stretched"
       prop_scale="1"
       scale_y_rel="false"
       spacing="0"
       normal_offset="0"
       tang_offset="0"
       prop_units="false"
       vertical_pattern="false"
       fuse_tolerance="0" /><inkscape:path-effect
       fuse_tolerance="0"
       vertical_pattern="false"
       prop_units="false"
       tang_offset="0"
       normal_offset="0"
       spacing="0"
       scale_y_rel="false"
       prop_scale="1"
       copytype="single_stretched"
       pattern="m 1029.5,-3.5224 0,-24 c 0,-1.108 0.892,-2 2,-2 l 73,0 c 1.108,0 2,0.892 2,2 l 0,24 m 187,-11.9776 4.5,-4 -4.5,-4 0,2 -4.5,0 0,4 4.5,0 z m -8,-12 16,0 0,16 -16,0 z m -99,-30.5 0,13 m -2,-13 0,13 m -8,-2.5 4.5,-4 -4.5,-4 0,2 -4.5,0 0,4 4.5,0 z m -19.5,2 -10,0 m -16.5,0 -10,0 m 28,-7.5 4,4.5 4,-4.5 -2,0 0,-4.5 -4,0 0,4.5 z m -27,0 4,-4.5 4,4.5 -2,0 0,4.5 -4,0 0,-4.5 z m 47,-9.5 22,0 0,22 -22,0 z m -27,0 22,0 0,22 -22,0 z m -27,0 22,0 0,22 -22,0 z m -15,5 4,4 m -10,-4 6,0 0,4 4,0 0,8 -10,0 z m -6,-5 22,0 0,22 -22,0 z m -51,15 0,-8 6,4 z m 26,-7 6,0 0,6 -6,0 z m 15,2.9997 c 0,6.6275 -5.3726,12.0003 -12,12.0003 -6.6274,0 -12,-5.3728 -12,-12.0003 0,-6.6272 5.3726,-11.9997 12,-11.9997 6.6274,0 12,5.3725 12,11.9997 z m -27,0 c 0,6.6275 -5.3726,12.0003 -12,12.0003 -6.6274,0 -12,-5.3728 -12,-12.0003 0,-6.6272 5.3726,-11.9997 12,-11.9997 6.6274,0 12,5.3725 12,11.9997 z m 269,-16.9997 -299,0 m 299,33 -299,0 m 34,-71 216,0 0,13 -216,0 z m 252,3 6,0 0,6 -6,0 z m -2,-2 10,0 0,10 -10,0 z m -13,2 6,0 0,6 -6,0 z m -2,-2 10,0 0,10 -10,0 z m -13,2 6,0 0,6 -6,0 z m -2,-2 10,0 0,10 -10,0 z m -233,2 6,0 0,6 -6,0 z m -2,-2 10,0 0,10 -10,0 z m -13,2 6,0 0,6 -6,0 z m -2,-2 10,0 0,10 -10,0 z m 295,15 -299,0 m 299,87 -299,0 m 299,349 -299,0 m 299,24 -299,0 m 299,115 -299,0 m 3,-80 293,0 0,59 -293,0 z m -3,-514 299,0 0,598 -299,0 z"
       is_visible="true"
       id="path-effect3134"
       effect="skeletal" /><inkscape:path-effect
       effect="skeletal"
       id="path-effect5214"
       is_visible="true"
       pattern="m 169.5,-3.5224 0,-24 c 0,-1.108 0.892,-2 2,-2 l 73,0 c 1.108,0 2,0.892 2,2 l 0,24 m 187,-11.9776 4.5,-4 -4.5,-4 0,2 -4.5,0 0,4 4.5,0 z m -8,-12 16,0 0,16 -16,0 z m -99,-30.5 0,13 m -2,-13 0,13 m -8,-2.5 4.5,-4 -4.5,-4 0,2 -4.5,0 0,4 4.5,0 z m -19.5,2 -10,0 m -16.5,0 -10,0 m 28,-7.5 4,4.5 4,-4.5 -2,0 0,-4.5 -4,0 0,4.5 z m -27,0 4,-4.5 4,4.5 -2,0 0,4.5 -4,0 0,-4.5 z m 47,-9.5 22,0 0,22 -22,0 z m -27,0 22,0 0,22 -22,0 z m -27,0 22,0 0,22 -22,0 z m -15,5 4,4 m -10,-4 6,0 0,4 4,0 0,8 -10,0 z m -6,-5 22,0 0,22 -22,0 z m -51,15 0,-8 6,4 z m 26,-7 6,0 0,6 -6,0 z m 15,2.9997 c 0,6.6275 -5.3726,12.0003 -12,12.0003 -6.6274,0 -12,-5.3728 -12,-12.0003 0,-6.6272 5.3726,-11.9997 12,-11.9997 6.6274,0 12,5.3725 12,11.9997 z m -27,0 c 0,6.6275 -5.3726,12.0003 -12,12.0003 -6.6274,0 -12,-5.3728 -12,-12.0003 0,-6.6272 5.3726,-11.9997 12,-11.9997 6.6274,0 12,5.3725 12,11.9997 z m 269,-16.9997 -299,0 m 299,33 -299,0 m 34,-71 216,0 0,13 -216,0 z m 252,3 6,0 0,6 -6,0 z m -2,-2 10,0 0,10 -10,0 z m -13,2 6,0 0,6 -6,0 z m -2,-2 10,0 0,10 -10,0 z m -13,2 6,0 0,6 -6,0 z m -2,-2 10,0 0,10 -10,0 z m -233,2 6,0 0,6 -6,0 z m -2,-2 10,0 0,10 -10,0 z m -13,2 6,0 0,6 -6,0 z m -2,-2 10,0 0,10 -10,0 z m 295,15 -299,0 m 299,87 -299,0 m 299,349 -299,0 m 299,24 -299,0 m 299,115 -299,0 m 3,-80 293,0 0,59 -293,0 z m -3,-514 299,0 0,598 -299,0 z"
       copytype="single_stretched"
       prop_scale="1"
       scale_y_rel="false"
       spacing="0"
       normal_offset="0"
       tang_offset="0"
       prop_units="false"
       vertical_pattern="false"
       fuse_tolerance="0" /><clipPath
       clipPathUnits="userSpaceOnUse"
       id="clipPath42"><path
         inkscape:connector-curvature="0"
         d="M 0,0 160,0 160,160 0,160 0,0 z"
         id="path44" /></clipPath><clipPath
       clipPathUnits="userSpaceOnUse"
       id="clipPath578"><path
         inkscape:connector-curvature="0"
         d="M 0,0 160,0 160,160 0,160 0,0 z"
         id="path580" /></clipPath><clipPath
       clipPathUnits="userSpaceOnUse"
       id="clipPath18"><path
         inkscape:connector-curvature="0"
         d="m 0,0 436.535,0 0,612.28302 -436.535,0 L 0,0 z"
         id="path20" /></clipPath></defs><sodipodi:namedview
     pagecolor="#cccccc"
     bordercolor="#666666"
     borderopacity="1"
     objecttolerance="10"
     gridtolerance="10"
     guidetolerance="10"
     inkscape:pageopacity="1"
     inkscape:pageshadow="2"
     inkscape:window-width="640"
     inkscape:window-height="480"
     id="namedview4"
     showgrid="false"
     inkscape:zoom="0.31662413"
     inkscape:cx="3072.3293"
     inkscape:cy="1024.2289"
     inkscape:current-layer="layer3"
     units="mm"
     guidecolor="#ff0000"
     guideopacity="0.47058824"
     guidehicolor="#00ff00"
     guidehiopacity="1"
     inkscape:snap-global="false"
     showguides="false"
     showborder="false"
     inkscape:showpageshadow="false"
     inkscape:guide-bbox="true"><sodipodi:guide
       position="21.259843,754.72441"
       orientation="0,1048.8189"
       id="guide4271" /><sodipodi:guide
       position="1070.0787,754.72441"
       orientation="744.09449,0"
       id="guide4273" /><sodipodi:guide
       position="1070.0787,10.62992"
       orientation="0,-1048.8189"
       id="guide4275" /><sodipodi:guide
       position="21.259843,10.62992"
       orientation="-744.09449,-4.6185278e-14"
       id="guide4277" /><sodipodi:guide
       position="545.669,10.63"
       orientation="-761.31029,0"
       id="guide4301" /><inkscape:grid
       type="xygrid"
       id="grid4326"
       empspacing="5"
       visible="true"
       enabled="true"
       snapvisiblegridlinesonly="true"
       units="mm"
       spacingx="8mm"
       spacingy="8mm"
       originx="10mm" /></sodipodi:namedview><g
     style="display:none"
     id="refbuild"
     inkscape:groupmode="layer"
     inkscape:label="XX_Referenz"
     sodipodi:insensitive="true"><path
       style="color:#000000;fill:#ffffff;fill-opacity:1;fill-rule:nonzero;stroke:none;stroke-width:0;marker:none;visibility:visible;display:inline;overflow:visible;enable-background:accumulate"
       d="m 10.625,0 0,765.34375 10.625,0 524.40625,0 524.43755,0 10.625,0 0,-765.34375 -10.625,0 L 21.25,0 10.625,0 z"
       id="canvasfull"
       inkscape:connector-curvature="0" /><path
       style="color:#000000;fill:#ff00ff;fill-opacity:1;fill-rule:nonzero;stroke:none;stroke-width:0;marker:none;visibility:visible;display:inline;overflow:visible;enable-background:accumulate"
       d="m 10.625,0 0,765.34375 10.625,0 L 21.25,0 10.625,0 z"
       id="outercropleft"
       inkscape:connector-curvature="0" /><path
       style="color:#000000;fill:#ff00ff;fill-opacity:1;fill-rule:nonzero;stroke:none;stroke-width:0;marker:none;visibility:visible;display:inline;overflow:visible;enable-background:accumulate"
       d="m 10.625,754.71875 0,10.625 535.03125,0 0,-10.625 -535.03125,0 z"
       id="bottomcropleft"
       inkscape:connector-curvature="0" /><path
       style="color:#000000;fill:#ff00ff;fill-opacity:1;fill-rule:nonzero;stroke:none;stroke-width:0;marker:none;visibility:visible;display:inline;overflow:visible;enable-background:accumulate"
       d="m 10.625,0 0,10.625 535.03125,0 0,-10.625 L 10.625,0 z"
       id="topcropleft"
       inkscape:connector-curvature="0" /><path
       style="color:#000000;fill:none;stroke:#0000ff;stroke-width:1;stroke-linecap:butt;stroke-linejoin:miter;stroke-miterlimit:4;stroke-opacity:1;stroke-dasharray:none;stroke-dashoffset:0;marker:none;visibility:visible;display:inline;overflow:visible;enable-background:accumulate"
       d="m 10.629921,-10.00046 0,785.35433"
       id="beforecropleft"
       inkscape:connector-curvature="0"
       sodipodi:nodetypes="cc" /><path
       style="color:#000000;fill:#00ff00;fill-opacity:1;fill-rule:nonzero;stroke:none;stroke-width:0;marker:none;visibility:visible;display:inline;overflow:visible;enable-background:accumulate"
       d="m 1070.0938,0 0,765.34375 10.625,0 0,-765.34375 -10.625,0 z"
       id="outercropright"
       inkscape:connector-curvature="0" /><path
       style="color:#000000;fill:#00ff00;fill-opacity:1;fill-rule:nonzero;stroke:none;stroke-width:0;marker:none;visibility:visible;display:inline;overflow:visible;enable-background:accumulate"
       d="m 545.65625,754.71875 0,10.625 535.06255,0 0,-10.625 -535.06255,0 z"
       id="bottomcropright"
       inkscape:connector-curvature="0" /><path
       style="color:#000000;fill:#00ff00;fill-opacity:1;fill-rule:nonzero;stroke:none;stroke-width:0;marker:none;visibility:visible;display:inline;overflow:visible;enable-background:accumulate"
       d="m 545.65625,0 0,10.625 535.06255,0 0,-10.625 -535.06255,0 z"
       id="topcropright"
       inkscape:connector-curvature="0" /><path
       style="color:#000000;fill:#00ff00;fill-opacity:1;fill-rule:nonzero;stroke:#0000ff;stroke-width:1;stroke-linecap:butt;stroke-linejoin:miter;stroke-miterlimit:4;stroke-opacity:1;stroke-dasharray:none;stroke-dashoffset:0;marker:none;visibility:visible;display:inline;overflow:visible;enable-background:accumulate"
       d="m 1080.7081,-10.00046 0,785.35433"
       id="beforecropright"
       inkscape:connector-curvature="0"
       sodipodi:nodetypes="cc" /><path
       style="color:#000000;fill:#ffff00;fill-opacity:1;fill-rule:nonzero;stroke:#00ff00;stroke-width:0;stroke-linecap:round;stroke-linejoin:miter;stroke-miterlimit:4;stroke-opacity:1;stroke-dashoffset:0;marker:none;visibility:visible;display:inline;overflow:visible;enable-background:accumulate"
       d="m 556.29876,-4.6023438e-4 -10.63,0 0,765.35433023438 10.63,0 z"
       id="innercropright"
       inkscape:connector-curvature="0" /><path
       style="color:#000000;fill:#ffff00;fill-opacity:1;fill-rule:nonzero;stroke:#00ff00;stroke-width:0;stroke-linecap:round;stroke-linejoin:miter;stroke-miterlimit:4;stroke-opacity:1;stroke-dashoffset:0;marker:none;visibility:visible;display:inline;overflow:visible;enable-background:accumulate"
       d="m 545.66876,-4.6023438e-4 -10.63,0 0,765.35433023438 10.63,0 z"
       id="innercropleft"
       inkscape:connector-curvature="0" /><path
       style="opacity:0.5;color:#000000;fill:#ffffff;fill-opacity:1;stroke:none"
       d="m 21.25,10.625 0,744.0937 1048.8438,0 0,-744.0937 -1048.8438,0 z"
       id="canvasoverlay"
       inkscape:connector-curvature="0" /><path
       style="fill:none;stroke:#00ff00;stroke-width:1px;stroke-linecap:butt;stroke-linejoin:miter;stroke-opacity:1;display:inline"
       d="m 545.669,771.94051 0,-778.5270405"
       id="centerbuild"
       inkscape:connector-curvature="0" /></g><g
     inkscape:label="XX_PAGE"
     inkscape:groupmode="layer"
     id="refcanvas"
     style="display:inline"
     sodipodi:insensitive="true"><path
       sodipodi:nodetypes="ccccc"
       inkscape:connector-curvature="0"
       id="canvas"
       d="m 21.259843,10.62935 1048.818857,0 0,744.09449 -1048.818857,0 z"
       style="color:#000000;fill:#ffffff;fill-opacity:1;stroke:none;stroke-width:1;marker:none;visibility:visible;display:inline" /><path
       style="fill:none;stroke:#000000;stroke-width:1px;stroke-linecap:butt;stroke-linejoin:miter;stroke-opacity:1;display:inline"
       d="m 545.669,771.94051 0,-778.5270403"
       id="center"
       inkscape:connector-curvature="0" /></g><g
     style="display:none"
     inkscape:label="XX_REF151007"
     id="g3075"
     inkscape:groupmode="layer"
     sodipodi:insensitive="true"><g
   style="fill:none;stroke:#ff00ff"
   transform="matrix(1.25,0,0,-1.25,674.14812,36.295005)"
   id="g3077"><path
     id="path3079"
     style="fill:none;stroke:#ff00ff;stroke-width:0.199;stroke-linecap:butt;stroke-linejoin:miter;stroke-miterlimit:10;stroke-opacity:1;stroke-dasharray:none"
     d="M 0,0 270.65,0"
     inkscape:connector-curvature="0" /></g><g
   style="fill:none;stroke:#ff00ff"
   transform="matrix(1.25,0,0,-1.25,674.14812,51.331255)"
   id="g3081"><path
     id="path3083"
     style="fill:none;stroke:#ff00ff;stroke-width:0.199;stroke-linecap:butt;stroke-linejoin:miter;stroke-miterlimit:10;stroke-opacity:1;stroke-dasharray:none"
     d="M 0,0 270.65,0"
     inkscape:connector-curvature="0" /></g><g
   style="fill:none;stroke:#ff00ff"
   transform="matrix(1.25,0,0,-1.25,674.14812,69.077505)"
   id="g3085"><path
     id="path3087"
     style="fill:none;stroke:#ff00ff;stroke-width:0.199;stroke-linecap:butt;stroke-linejoin:miter;stroke-miterlimit:10;stroke-opacity:1;stroke-dasharray:none"
     d="M 0,0 270.65,0"
     inkscape:connector-curvature="0" /></g><g
   style="fill:none;stroke:#ff00ff"
   transform="matrix(1.25,0,0,-1.25,674.02312,650.8675)"
   id="g3089"><path
     id="path3091"
     style="fill:none;stroke:#ff00ff;stroke-width:0.199;stroke-linecap:butt;stroke-linejoin:miter;stroke-miterlimit:10;stroke-opacity:1;stroke-dasharray:none"
     d="M 0,0 0,465.332"
     inkscape:connector-curvature="0" /></g><g
   style="fill:none;stroke:#ff00ff"
   transform="matrix(1.25,0,0,-1.25,1012.5844,650.8675)"
   id="g3093"><path
     id="path3095"
     style="fill:none;stroke:#ff00ff;stroke-width:0.199;stroke-linecap:butt;stroke-linejoin:miter;stroke-miterlimit:10;stroke-opacity:1;stroke-dasharray:none"
     d="M 0,0 0,465.332"
     inkscape:connector-curvature="0" /></g><g
   style="fill:none;stroke:#ff00ff"
   transform="matrix(1.25,0,0,-1.25,1017.5656,650.8675)"
   id="g3097"><path
     id="path3099"
     style="fill:none;stroke:#ff00ff;stroke-width:0.199;stroke-linecap:butt;stroke-linejoin:miter;stroke-miterlimit:10;stroke-opacity:1;stroke-dasharray:none"
     d="M 0,0 0,465.332"
     inkscape:connector-curvature="0" /></g><g
   style="fill:none;stroke:#ff00ff"
   transform="matrix(1.25,0,0,-1.25,674.14812,650.7425)"
   id="g3105"><path
     id="path3107"
     style="fill:none;stroke:#ff00ff;stroke-width:0.199;stroke-linecap:butt;stroke-linejoin:miter;stroke-miterlimit:10;stroke-opacity:1;stroke-dasharray:none"
     d="M 0,0 270.65,0"
     inkscape:connector-curvature="0" /></g><g
   style="fill:none;stroke:#ff00ff"
   transform="matrix(1.25,0,0,-1.25,674.14812,704.14125)"
   id="g3109"><path
     id="path3111"
     style="fill:none;stroke:#ff00ff;stroke-width:0.199;stroke-linecap:butt;stroke-linejoin:miter;stroke-miterlimit:10;stroke-opacity:1;stroke-dasharray:none"
     d="M 0,0 270.65,0"
     inkscape:connector-curvature="0" /></g><text
   id="text3113"
   x="587.19934"
   y="715.59247"
   style="font-size:15px;fill:#ff00ff;stroke:none"><tspan
     id="tspan3115"
     y="715.59247"
     x="587.19934"
     style="font-size:6.22662497px;font-variant:normal;writing-mode:lr-tb;fill:#ff00ff;fill-opacity:1;fill-rule:nonzero;stroke:none;font-family:Nimbus Sans L;-inkscape-font-specification:NimbusSanL-Regu">1</tspan></text>










<path
   d="m 78.807421,36.295005 338.312509,0"
   style="fill:none;stroke:#ff00ff;stroke-width:0.24875;stroke-linecap:butt;stroke-linejoin:miter;stroke-miterlimit:10;stroke-opacity:1;stroke-dasharray:none"
   id="path3117"
   inkscape:connector-curvature="0" /><path
   d="m 78.807421,51.331255 338.312509,0"
   style="fill:none;stroke:#ff00ff;stroke-width:0.24875;stroke-linecap:butt;stroke-linejoin:miter;stroke-miterlimit:10;stroke-opacity:1;stroke-dasharray:none"
   id="path3119"
   inkscape:connector-curvature="0" /><path
   d="m 78.807421,69.077505 338.312509,0"
   style="fill:none;stroke:#ff00ff;stroke-width:0.24875;stroke-linecap:butt;stroke-linejoin:miter;stroke-miterlimit:10;stroke-opacity:1;stroke-dasharray:none"
   id="path3121"
   inkscape:connector-curvature="0" /><path
   d="m 73.949921,650.8675 0,-581.664995"
   style="fill:none;stroke:#ff00ff;stroke-width:0.24875;stroke-linecap:butt;stroke-linejoin:miter;stroke-miterlimit:10;stroke-opacity:1;stroke-dasharray:none"
   id="path3125"
   inkscape:connector-curvature="0" /><path
   d="m 78.682421,650.8675 0,-581.664995"
   style="fill:none;stroke:#ff00ff;stroke-width:0.24875;stroke-linecap:butt;stroke-linejoin:miter;stroke-miterlimit:10;stroke-opacity:1;stroke-dasharray:none"
   id="path3127"
   inkscape:connector-curvature="0" /><path
   d="m 417.24368,650.8675 0,-581.664995"
   style="fill:none;stroke:#ff00ff;stroke-width:0.24875;stroke-linecap:butt;stroke-linejoin:miter;stroke-miterlimit:10;stroke-opacity:1;stroke-dasharray:none"
   id="path3129"
   inkscape:connector-curvature="0" /><path
   d="m 78.807421,650.7425 338.312509,0"
   style="fill:none;stroke:#ff00ff;stroke-width:0.24875;stroke-linecap:butt;stroke-linejoin:miter;stroke-miterlimit:10;stroke-opacity:1;stroke-dasharray:none"
   id="path3131"
   inkscape:connector-curvature="0" /><path
   d="m 78.807421,704.14125 338.312509,0"
   style="fill:none;stroke:#ff00ff;stroke-width:0.24875;stroke-linecap:butt;stroke-linejoin:miter;stroke-miterlimit:10;stroke-opacity:1;stroke-dasharray:none"
   id="path3133"
   inkscape:connector-curvature="0" /><text
   y="715.59247"
   x="500.60495"
   id="text3135"
   style="font-size:15px;fill:#ff00ff;stroke:none"><tspan
     style="font-size:6.22662497px;font-variant:normal;writing-mode:lr-tb;fill:#ff00ff;fill-opacity:1;fill-rule:nonzero;stroke:none;font-family:Nimbus Sans L;-inkscape-font-specification:NimbusSanL-Regu"
     x="500.60495"
     y="715.59247"
     id="tspan3137">2</tspan></text>










<path
   inkscape:connector-curvature="0"
   id="path68"
   style="color:#000000;fill:none;stroke:#ff00ff;stroke-width:0.24875;stroke-linecap:butt;stroke-linejoin:miter;stroke-miterlimit:10;stroke-opacity:1;stroke-dasharray:none;stroke-dashoffset:0;marker:none;visibility:visible;display:inline;overflow:visible;enable-background:accumulate"
   d="m 607.60179,70.73733 33.219,0 0,33.219 -33.219,0 0,-33.219 z" /><path
   inkscape:connector-curvature="0"
   id="path68-3"
   style="fill:#ffffff;fill-opacity:1;fill-rule:nonzero;stroke:#ff00ff;stroke-width:0.44292;stroke-linecap:butt;stroke-linejoin:miter;stroke-miterlimit:4;stroke-opacity:1;stroke-dasharray:none"
   d="m 449.1186,70.737325 33.219,0 0,33.218995 -33.219,0 0,-33.218995 z" /></g><g
     inkscape:groupmode="layer"
     id="layer3"
     inkscape:label="XX_BUILD"
     style="opacity:1;display:inline"><path
   style="color:#000000;fill:none;stroke:#ff0000;stroke-width:1;marker:none;visibility:visible;display:inline;overflow:visible;enable-background:accumulate"
   d="m 817.50001,-1167.1462 498.99999,0 0,598 -498.99999,0 z"
   id="rect4034"
   inkscape:connector-curvature="0"
   sodipodi:nodetypes="ccccc" /><path
   sodipodi:nodetypes="ccccc"
   inkscape:connector-curvature="0"
   id="path4037"
   d="m 820.50001,-653.1462 492.99999,0 0,59 -492.99999,0 z"
   style="color:#000000;fill:none;stroke:#ff0000;stroke-width:1;marker:none;visibility:visible;display:inline;overflow:visible;enable-background:accumulate" /><path
   style="color:#000000;fill:none;stroke:#ff0000;stroke-width:1;marker:none;visibility:visible;display:inline;overflow:visible;enable-background:accumulate"
   d="m 1316.5,-573.1462 -498.99999,0"
   id="path4039"
   inkscape:connector-curvature="0"
   sodipodi:nodetypes="cc" /><path
   sodipodi:nodetypes="cc"
   inkscape:connector-curvature="0"
   id="path4041"
   d="m 1316.5,-688.1462 -498.99999,0"
   style="color:#000000;fill:none;stroke:#ff0000;stroke-width:1;marker:none;visibility:visible;display:inline;overflow:visible;enable-background:accumulate" /><path
   style="color:#000000;fill:none;stroke:#ff0000;stroke-width:1;marker:none;visibility:visible;display:inline;overflow:visible;enable-background:accumulate"
   d="m 1316.5,-712.1462 -498.99999,0"
   id="path4043"
   inkscape:connector-curvature="0"
   sodipodi:nodetypes="cc" /><path
   sodipodi:nodetypes="cc"
   inkscape:connector-curvature="0"
   id="path4045"
   d="m 1316.5,-1061.1462 -498.99999,0"
   style="color:#000000;fill:none;stroke:#ff0000;stroke-width:1;marker:none;visibility:visible;display:inline;overflow:visible;enable-background:accumulate" /><path
   style="color:#000000;fill:none;stroke:#ff0000;stroke-width:1;marker:none;visibility:visible;display:inline;overflow:visible;enable-background:accumulate"
   d="m 1316.5,-1148.1462 -498.99999,0"
   id="path4047"
   inkscape:connector-curvature="0"
   sodipodi:nodetypes="cc" /><path
   sodipodi:nodetypes="ccccc"
   inkscape:connector-curvature="0"
   id="path4049"
   d="m 821.50001,-1163.1462 9.99999,0 0,10 -9.99999,0 z"
   style="color:#000000;fill:none;stroke:#ff0000;stroke-width:1;marker:none;visibility:visible;display:inline;overflow:visible;enable-background:accumulate" /><path
   style="color:#000000;fill:none;stroke:#ff0000;stroke-width:1;marker:none;visibility:visible;display:inline;overflow:visible;enable-background:accumulate"
   d="m 823.50001,-1161.1462 5.99999,0 0,6 -5.99999,0 z"
   id="path4051"
   inkscape:connector-curvature="0"
   sodipodi:nodetypes="ccccc" /><path
   style="color:#000000;fill:none;stroke:#ff0000;stroke-width:1;marker:none;visibility:visible;display:inline;overflow:visible;enable-background:accumulate"
   d="m 836.50001,-1163.1462 9.99999,0 0,10 -9.99999,0 z"
   id="path4053"
   inkscape:connector-curvature="0"
   sodipodi:nodetypes="ccccc" /><path
   sodipodi:nodetypes="ccccc"
   inkscape:connector-curvature="0"
   id="path4055"
   d="m 838.50001,-1161.1462 5.99999,0 0,6 -5.99999,0 z"
   style="color:#000000;fill:none;stroke:#ff0000;stroke-width:1;marker:none;visibility:visible;display:inline;overflow:visible;enable-background:accumulate" /><text
   xml:space="preserve"
   style="font-size:10px;font-style:normal;font-variant:normal;font-weight:normal;font-stretch:normal;text-align:start;line-height:140.99999665999999365%;letter-spacing:0px;word-spacing:0px;writing-mode:lr-tb;text-anchor:start;fill:#ff0000;fill-opacity:1;stroke:none;font-family:Fira Mono;-inkscape-font-specification:Fira Mono"
   x="592.10901"
   y="-1038.6981"
   id="text4057"
   sodipodi:linespacing="141%"><tspan
     sodipodi:role="line"
     id="tspan4059"
     x="592.10901"
     y="-1038.6981">based on scrunch / flower</tspan></text>


<text
   sodipodi:linespacing="141%"
   id="text4061"
   y="-1018.6981"
   x="592.10901"
   style="font-size:10px;font-style:normal;font-variant:normal;font-weight:normal;font-stretch:normal;text-align:start;line-height:140.99999665999999365%;letter-spacing:0px;word-spacing:0px;writing-mode:lr-tb;text-anchor:start;fill:#ff0000;fill-opacity:1;stroke:none;font-family:Monospace;-inkscape-font-specification:Monospace"
   xml:space="preserve"><tspan
     y="-1018.6981"
     x="592.10901"
     id="tspan4063"
     sodipodi:role="line">based on scrunch / flower</tspan></text>


<text
   xml:space="preserve"
   style="font-size:10px;font-style:normal;font-variant:normal;font-weight:normal;font-stretch:normal;text-align:start;line-height:140.99999665999999365%;letter-spacing:0px;word-spacing:0px;writing-mode:lr-tb;text-anchor:start;fill:#ff0000;fill-opacity:1;stroke:none;font-family:Liberation Mono;-inkscape-font-specification:Liberation Mono"
   x="824.33698"
   y="-869.62213"
   id="text4065"
   sodipodi:linespacing="141%"><tspan
     sodipodi:role="line"
     id="tspan4067"
     x="824.33698"
     y="-869.62213">import traer</tspan></text>


<path
   sodipodi:nodetypes="ccccc"
   inkscape:connector-curvature="0"
   id="path4069"
   d="m 1271.5,-1163.1462 10,0 0,10 -10,0 z"
   style="color:#000000;fill:none;stroke:#ff0000;stroke-width:1;marker:none;visibility:visible;display:inline;overflow:visible;enable-background:accumulate" /><path
   style="color:#000000;fill:none;stroke:#ff0000;stroke-width:1;marker:none;visibility:visible;display:inline;overflow:visible;enable-background:accumulate"
   d="m 1273.5,-1161.1462 6,0 0,6 -6,0 z"
   id="path4071"
   inkscape:connector-curvature="0"
   sodipodi:nodetypes="ccccc" /><path
   style="color:#000000;fill:none;stroke:#ff0000;stroke-width:1;marker:none;visibility:visible;display:inline;overflow:visible;enable-background:accumulate"
   d="m 1286.5,-1163.1462 10,0 0,10 -10,0 z"
   id="path4073"
   inkscape:connector-curvature="0"
   sodipodi:nodetypes="ccccc" /><path
   sodipodi:nodetypes="ccccc"
   inkscape:connector-curvature="0"
   id="path4075"
   d="m 1288.5,-1161.1462 6,0 0,6 -6,0 z"
   style="color:#000000;fill:none;stroke:#ff0000;stroke-width:1;marker:none;visibility:visible;display:inline;overflow:visible;enable-background:accumulate" /><path
   sodipodi:nodetypes="ccccc"
   inkscape:connector-curvature="0"
   id="path4077"
   d="m 1301.5,-1163.1462 10,0 0,10 -10,0 z"
   style="color:#000000;fill:none;stroke:#ff0000;stroke-width:1;marker:none;visibility:visible;display:inline;overflow:visible;enable-background:accumulate" /><path
   style="color:#000000;fill:none;stroke:#ff0000;stroke-width:1;marker:none;visibility:visible;display:inline;overflow:visible;enable-background:accumulate"
   d="m 1303.5,-1161.1462 6,0 0,6 -6,0 z"
   id="path4079"
   inkscape:connector-curvature="0"
   sodipodi:nodetypes="ccccc" /><path
   style="color:#000000;fill:none;stroke:#ff0000;stroke-width:1;marker:none;visibility:visible;display:inline;overflow:visible;enable-background:accumulate"
   d="m 851.5,-1164.1462 416,0 0,13 -416,0 z"
   id="path4081"
   inkscape:connector-curvature="0"
   sodipodi:nodetypes="ccccc" /><path
   style="color:#000000;fill:none;stroke:#ff0000;stroke-width:1;marker:none;visibility:visible;display:inline;overflow:visible;enable-background:accumulate"
   d="m 1316.5,-1093.1462 -498.99999,0"
   id="path4085"
   inkscape:connector-curvature="0"
   sodipodi:nodetypes="cc" /><path
   sodipodi:nodetypes="cc"
   inkscape:connector-curvature="0"
   id="path4087"
   d="m 1316.5,-1126.1462 -498.99999,0"
   style="color:#000000;fill:none;stroke:#ff0000;stroke-width:1;marker:none;visibility:visible;display:inline;overflow:visible;enable-background:accumulate" /><path
   style="color:#000000;fill:none;stroke:#ff0000;stroke-width:1;stroke-linecap:butt;stroke-linejoin:miter;stroke-miterlimit:4;stroke-opacity:1;stroke-dashoffset:0;marker:none;visibility:visible;display:inline;overflow:visible;enable-background:accumulate"
   d="m 847.5,-1109.1465 c 0,6.6275 -5.37258,12.0003 -12.00001,12.0003 -6.62739,0 -11.99999,-5.3728 -11.99999,-12.0003 0,-6.6272 5.3726,-11.9997 11.99999,-11.9997 6.62743,0 12.00001,5.3725 12.00001,11.9997 z"
   id="path4089"
   inkscape:connector-curvature="0" /><path
   inkscape:connector-curvature="0"
   id="path4092"
   d="m 874.5,-1109.1465 c 0,6.6275 -5.37258,12.0003 -12.00001,12.0003 -6.62739,0 -11.99999,-5.3728 -11.99999,-12.0003 0,-6.6272 5.3726,-11.9997 11.99999,-11.9997 6.62743,0 12.00001,5.3725 12.00001,11.9997 z"
   style="color:#000000;fill:none;stroke:#ff0000;stroke-width:1;stroke-linecap:butt;stroke-linejoin:miter;stroke-miterlimit:4;stroke-opacity:1;stroke-dashoffset:0;marker:none;visibility:visible;display:inline;overflow:visible;enable-background:accumulate" /><path
   style="color:#000000;fill:none;stroke:#ff0000;stroke-width:1;marker:none;visibility:visible;display:inline;overflow:visible;enable-background:accumulate"
   d="m 859.5,-1112.1462 6,0 0,6 -6,0 z"
   id="path4094"
   inkscape:connector-curvature="0"
   sodipodi:nodetypes="ccccc" /><path
   sodipodi:nodetypes="cccc"
   inkscape:connector-curvature="0"
   id="path4096"
   d="m 833.5,-1105.1462 0,-8 6,4 z"
   style="color:#000000;fill:none;stroke:#ff0000;stroke-width:1;marker:none;visibility:visible;display:inline;overflow:visible;enable-background:accumulate" /><path
   sodipodi:nodetypes="ccccc"
   inkscape:connector-curvature="0"
   id="path4098"
   d="m 884.5,-1120.1462 22,0 0,22 -22,0 z"
   style="color:#000000;fill:none;stroke:#ff0000;stroke-width:1;marker:none;visibility:visible;display:inline;overflow:visible;enable-background:accumulate" /><path
   style="color:#000000;fill:none;stroke:#ff0000;stroke-width:1;marker:none;visibility:visible;display:inline;overflow:visible;enable-background:accumulate"
   d="m 890.5,-1115.1462 6,0 0,4 4,0 0,8 -10,0 z"
   id="path4100"
   inkscape:connector-curvature="0"
   sodipodi:nodetypes="ccccccc" /><path
   sodipodi:nodetypes="cc"
   inkscape:connector-curvature="0"
   id="path4102"
   d="m 896.5,-1115.1462 4,4"
   style="color:#000000;fill:none;stroke:#ff0000;stroke-width:1;marker:none;visibility:visible;display:inline;overflow:visible;enable-background:accumulate" /><path
   style="color:#000000;fill:none;stroke:#ff0000;stroke-width:1;marker:none;visibility:visible;display:inline;overflow:visible;enable-background:accumulate"
   d="m 911.5,-1120.1462 22,0 0,22 -22,0 z"
   id="path4104"
   inkscape:connector-curvature="0"
   sodipodi:nodetypes="ccccc" /><path
   sodipodi:nodetypes="ccccc"
   inkscape:connector-curvature="0"
   id="path4106"
   d="m 938.5,-1120.1462 22,0 0,22 -22,0 z"
   style="color:#000000;fill:none;stroke:#ff0000;stroke-width:1;marker:none;visibility:visible;display:inline;overflow:visible;enable-background:accumulate" /><path
   style="color:#000000;fill:none;stroke:#ff0000;stroke-width:1;marker:none;visibility:visible;display:inline;overflow:visible;enable-background:accumulate"
   d="m 965.5,-1120.1462 22,0 0,22 -22,0 z"
   id="path4108"
   inkscape:connector-curvature="0"
   sodipodi:nodetypes="ccccc" /><path
   sodipodi:nodetypes="cccccccc"
   inkscape:connector-curvature="0"
   id="path4110"
   d="m 918.5,-1110.6462 4,-4.5 4,4.5 -2,0 0,4.5 -4,0 0,-4.5 z"
   style="color:#000000;fill:none;stroke:#ff0000;stroke-width:1;marker:none;visibility:visible;display:inline;overflow:visible;enable-background:accumulate" /><path
   style="color:#000000;fill:none;stroke:#ff0000;stroke-width:1;marker:none;visibility:visible;display:inline;overflow:visible;enable-background:accumulate"
   d="m 945.5,-1110.6462 4,4.5 4,-4.5 -2,0 0,-4.5 -4,0 0,4.5 z"
   id="path4112"
   inkscape:connector-curvature="0"
   sodipodi:nodetypes="cccccccc" /><path
   sodipodi:nodetypes="cc"
   inkscape:connector-curvature="0"
   id="path4114"
   d="m 927.5,-1103.1462 -10,0"
   style="color:#000000;fill:none;stroke:#ff0000;stroke-width:1;marker:none;visibility:visible;display:inline;overflow:visible;enable-background:accumulate" /><path
   style="color:#000000;fill:none;stroke:#ff0000;stroke-width:1;marker:none;visibility:visible;display:inline;overflow:visible;enable-background:accumulate"
   d="m 954,-1103.1462 -10,0"
   id="path4116"
   inkscape:connector-curvature="0"
   sodipodi:nodetypes="cc" /><path
   sodipodi:nodetypes="cccccccc"
   inkscape:connector-curvature="0"
   id="path4118"
   d="m 973.5,-1105.1462 4.5,-4 -4.5,-4 0,2 -4.5,0 0,4 4.5,0 z"
   style="color:#000000;fill:none;stroke:#ff0000;stroke-width:1;marker:none;visibility:visible;display:inline;overflow:visible;enable-background:accumulate" /><path
   style="color:#000000;fill:none;stroke:#ff0000;stroke-width:1;marker:none;visibility:visible;display:inline;overflow:visible;enable-background:accumulate"
   d="m 981.5,-1115.6462 0,13"
   id="path4120"
   inkscape:connector-curvature="0"
   sodipodi:nodetypes="cc" /><path
   sodipodi:nodetypes="cc"
   inkscape:connector-curvature="0"
   id="path4122"
   d="m 983.5,-1115.6462 0,13"
   style="color:#000000;fill:none;stroke:#ff0000;stroke-width:1;marker:none;visibility:visible;display:inline;overflow:visible;enable-background:accumulate" /><path
   sodipodi:nodetypes="ccccc"
   inkscape:connector-curvature="0"
   id="path4124"
   d="m 1282.5,-1085.1462 16,0 0,16 -16,0 z"
   style="color:#000000;fill:none;stroke:#ff0000;stroke-width:1;marker:none;visibility:visible;display:inline;overflow:visible;enable-background:accumulate" /><path
   style="color:#000000;fill:none;stroke:#ff0000;stroke-width:1;marker:none;visibility:visible;display:inline;overflow:visible;enable-background:accumulate"
   d="m 1290.5,-1073.1462 4.5,-4 -4.5,-4 0,2 -4.5,0 0,4 4.5,0 z"
   id="path4126"
   inkscape:connector-curvature="0"
   sodipodi:nodetypes="cccccccc" /><path
   style="color:#000000;fill:none;stroke:#ff0000;stroke-width:1;stroke-linecap:butt;stroke-linejoin:miter;stroke-miterlimit:4;stroke-opacity:1;stroke-dashoffset:0;marker:none;visibility:visible;display:inline;overflow:visible;enable-background:accumulate"
   d="m 826.5,-1061.1686 0,-24 c 0,-1.108 0.892,-2 2,-2 l 73,0 c 1.108,0 2,0.892 2,2 l 0,24"
   id="rect4132"
   inkscape:connector-curvature="0"
   sodipodi:nodetypes="cssssc" /><rect
   ry="2"
   rx="2"
   y="-1087.1686"
   x="716.5"
   height="26"
   width="77"
   id="rect4134"
   style="color:#000000;fill:none;stroke:#ff0000;stroke-width:1;stroke-linecap:butt;stroke-linejoin:miter;stroke-miterlimit:4;stroke-opacity:1;stroke-dasharray:none;stroke-dashoffset:0;marker:none;visibility:visible;display:inline;overflow:visible;enable-background:accumulate" /><path
   id="path4337"
   style="color:#000000;fill:none;stroke:#ff0000;stroke-width:1;stroke-linecap:butt;stroke-linejoin:miter;stroke-miterlimit:4;stroke-opacity:1;stroke-dashoffset:0;marker:none;visibility:visible;display:inline;overflow:visible;enable-background:accumulate"
   d="m 1549.5,-1061.1686 0,-24 c 0,-1.108 0.892,-2 2,-2 l 73,0 c 1.108,0 2,0.892 2,2 l 0,24 m 187,-11.9776 4.5,-4 -4.5,-4 0,2 -4.5,0 0,4 4.5,0 z m -8,-12 16,0 0,16 -16,0 z m -99,-30.5 0,13 m -2,-13 0,13 m -8,-2.5 4.5,-4 -4.5,-4 0,2 -4.5,0 0,4 4.5,0 z m -19.5,2 -10,0 m -16.5,0 -10,0 m 28,-7.5 4,4.5 4,-4.5 -2,0 0,-4.5 -4,0 0,4.5 z m -27,0 4,-4.5 4,4.5 -2,0 0,4.5 -4,0 0,-4.5 z m 47,-9.5 22,0 0,22 -22,0 z m -27,0 22,0 0,22 -22,0 z m -27,0 22,0 0,22 -22,0 z m -15,5 4,4 m -10,-4 6,0 0,4 4,0 0,8 -10,0 z m -6,-5 22,0 0,22 -22,0 z m -51,15 0,-8 6,4 z m 26,-7 6,0 0,6 -6,0 z m 15,2.9997 c 0,6.6275 -5.3726,12.0003 -12,12.0003 -6.6274,0 -12,-5.3728 -12,-12.0003 0,-6.6272 5.3726,-11.9997 12,-11.9997 6.6274,0 12,5.3725 12,11.9997 z m -27,0 c 0,6.6275 -5.3726,12.0003 -12,12.0003 -6.6274,0 -12,-5.3728 -12,-12.0003 0,-6.6272 5.3726,-11.9997 12,-11.9997 6.6274,0 12,5.3725 12,11.9997 z m 269,-16.9997 -299,0 m 299,33 -299,0 m 34,-71 216,0 0,13 -216,0 z m 252,3 6,0 0,6 -6,0 z m -2,-2 10,0 0,10 -10,0 z m -13,2 6,0 0,6 -6,0 z m -2,-2 10,0 0,10 -10,0 z m -13,2 6,0 0,6 -6,0 z m -2,-2 10,0 0,10 -10,0 z m -233,2 6,0 0,6 -6,0 z m -2,-2 10,0 0,10 -10,0 z m -13,2 6,0 0,6 -6,0 z m -2,-2 10,0 0,10 -10,0 z m 295,15 -299,0 m 299,87 -299,0 m 299,349 -299,0 m 299,24 -299,0 m 299,115 -299,0 m 3,-80 293,0 0,59 -293,0 z m -3,-514 299,0 0,598 -299,0 z"
   inkscape:connector-curvature="0"
   sodipodi:nodetypes="cssssccccccccccccccccccccccccccccccccccccccccccccccccccccccccccccccccccccccccccccccccccccssssssssssccccccccccccccccccccccccccccccccccccccccccccccccccccccccccccccccccccccccccccccc" /><path
   style="fill:none;stroke:#000000;stroke-width:1px;stroke-linecap:butt;stroke-linejoin:miter;stroke-opacity:1"
   d="m 2815.6844,-1371.1016 23.5507,3.3624 c 1.0872,0.1552 1.4148,2.1996 0.7345,4.5837 l -34.9306,122.4143 14.6738,52.6658 c 1.0091,3.6221 0.9778,6.5872 -0.07,6.6482 l -22.7031,1.3214 m -95.8588,606.81415 c -1.5944,5.50777 -3.1914,11.03697 -4.791,16.58759 3.8269,-4.25266 7.6563,-8.52674 11.4883,-12.82225 l -1.6743,-0.94134 8.1434,-14.73706 -3.3563,-1.81839 -8.1358,14.67279 z m 24.5436,-20.72261 -28.9953,52.74123 -13.3402,-7.98774 28.8865,-51.8271 z m 193.9565,-323.25915 -11.495,-1.25116 m 9.7173,-5.39464 -11.5151,-1.20198 m -4.9611,-26.19316 c 2.5347,5.05766 5.0647,10.12667 7.5902,15.20704 -0.1562,-4.85146 -0.3077,-9.71426 -0.4546,-14.5884 l -1.7839,-0.15466 -4.0154,-14.91474 -3.5817,-0.27528 4.0293,14.8807 z m -19.3045,-64.49015 -8.9849,-32.9926 m -14.8251,-54.4377 -8.9849,-32.9926 m 32.0094,92.562 c -0.18,4.3814 -0.3555,8.7514 -0.5263,13.11 2.5606,4.4545 5.1166,8.9204 7.668,13.3975 l -1.7855,-6.6268 4.0902,0.1607 -3.5569,-13.2878 -4.1041,-0.1267 z m -24.103,-89.4629 c 2.5919,4.3779 5.1791,8.7671 7.7617,13.1677 -0.2113,4.458 -0.418,8.9046 -0.62,13.3398 l -1.7854,-6.6268 -4.184,0.069 -3.5847,-13.2197 4.1978,-0.1031 z m 50.4893,156.32264 19.4782,73.29097 -19.3853,-2.28377 -19.8517,-72.37561 z m -23.9051,-89.94804 19.4782,73.291 -19.8436,-1.16037 -19.8517,-72.37563 z m -23.9051,-89.948 19.4782,73.291 -20.3019,-0.037 -19.8516,-72.3756 z m -18.0374,-49.6296 c -0.083,4.5203 -0.1616,9.0306 -0.2362,13.5307 m -5.0992,-33.4624 5.3354,19.9317 -3.8055,0.2732 3.5693,13.2575 -7.5862,0.4859 -8.9849,-32.9926 z m 0.8121,-19.2232 -0.5568,1.7998 18.6906,70.3277 -20.7602,1.0864 -19.049,-69.4493 0.5497,-1.876 z m 17.2428,-104.8819 7.8299,0.9027 c -2.5518,3.9507 -5.1008,7.9326 -7.6468,11.9457 -0.058,-4.2516 -0.1192,-8.5344 -0.1831,-12.8484 z m -9.3484,54.2065 -3.7384,12.3269 -5.8028,0.071 3.7253,-12.4672 z m -12.2373,30.958 c -3.194,0.1553 -5.2517,-2.4938 -6.0037,-6.9804 -0.752,-4.4865 -0.1983,-10.8104 1.8484,-17.812 2.0466,-7.0016 5.2013,-13.3259 8.6547,-17.813 3.4533,-4.4872 7.2051,-7.1372 10.428,-6.9828 3.2227,0.1545 5.3036,3.0548 6.0555,7.5413 0.7519,4.4866 0.1747,10.5593 -1.9007,17.2511 -2.0755,6.6918 -5.2535,12.7649 -8.7067,17.2521 -3.4532,4.4871 -7.1815,7.3883 -10.3755,7.5437 z m 16.7933,-55.7867 c -3.2265,-0.1932 -5.3135,-3.1579 -6.0867,-7.8728 -0.7733,-4.715 -0.2327,-11.1802 1.8139,-18.1818 2.0466,-7.0016 5.2145,-13.1846 8.6891,-17.4433 3.4745,-4.2587 7.2557,-6.5932 10.5111,-6.0902 3.2551,0.5029 5.3654,3.7188 6.1385,8.4337 0.7731,4.715 0.2091,10.929 -1.8663,17.6208 -2.0755,6.6918 -5.2667,12.6236 -8.7411,16.8824 -3.4745,4.2587 -7.2321,6.8444 -10.4585,6.6512 z m -151.8229,862.15504 235.0007,-442.18847 0,-5e-5 -90.4254,-343.19852 42.6437,-135.7755 m -214.4806,902.56674 233.1986,-427.05321 0,-5e-5 -93.0396,-336.79078 41.8318,-144.503 m 48.0775,75.4016 -21.7539,62.7605 87.4152,350.57712 0,10e-6 -146.6319,284.27415 -11.0103,-5.05098 146.1929,-280.58641 -88.4451,-348.05289 0,0 21.5942,-64.4768 z m -149.9141,824.8838 -11.0671,21.40627 -4.9745,-3.23107 11.0518,-21.27773 z m 5.354,-6.11553 -18.4537,35.74854 -8.2823,-5.45655 18.4112,-35.39145 z m 22.3138,-47.40015 -11.0671,21.40627 -5.0128,-2.9097 11.0518,-21.27772 z m 5.3668,-6.22265 -18.4537,35.74853 -8.3462,-4.92092 18.4112,-35.39145 z m 22.301,-47.29303 -11.0672,21.40627 -5.051,-2.58832 11.0518,-21.27772 z m 5.3795,-6.32978 -18.4537,35.74854 -8.4099,-4.3853 18.4112,-35.39145 z m 94.613,-735.87766 -3.845,11.1816 -5.8485,-0.4199 3.8319,-11.3218 z m 3.2369,-3.5249 -6.4154,18.5581 -9.7403,-0.6219 6.3792,-18.9477 z m 6.3754,-24.4291 -3.845,11.1816 -5.8811,-0.7705 3.8319,-11.3219 z m 3.2478,-3.4081 -6.4155,18.5581 -9.7946,-1.2062 6.3792,-18.9477 z m -202.9063,919.65554 236.202,-452.27864 0,-5e-5 -88.6827,-347.47035 43.185,-129.9571 m -262.5759,880.68085 231.451,-412.3766 0,-5e-5 -95.5744,-330.5772 41.0444,-152.966 m -465.2333,699.25517 212.3923,-252.30978 0,-4e-5 -123.2205,-262.81045 32.4571,-245.2661 m -141.4556,746.86215 211.0817,-241.30231 0,-4e-5 -125.1216,-258.1502 31.8665,-251.6135 m -212.8292,686.2625 204.8016,-188.55823 0,-3e-5 -134.2313,-235.82024 29.0369,-282.0275 m 77.393,25.5406 -29.6352,249.3422 0,0 127.8941,251.35416 -204.2847,219.98861 -48.8158,-32.61499 201.1381,-193.56065 0,-3e-5 -132.5678,-239.8979 0,0 28.2476,-264.2564 z m 507.4236,78.505 -43.6525,124.9323 0,0 87.1776,351.1596 0,3e-5 -237.2397,460.99288 -494.0136,-336.97844 204.5831,-186.72366 0,-3e-5 -134.5482,-235.04358 28.9385,-283.0853 z"
   id="path5212"
   inkscape:connector-curvature="0"
   inkscape:path-effect="#path-effect5214"
   inkscape:original-d="m 2631.0874,-1425.1893 -36.2955,204.0088 110.8629,293.10162 -220.9114,323.85827"
   sodipodi:nodetypes="cccc" /><path
   sodipodi:nodetypes="caac"
   inkscape:original-d="m 3140.6926,-1076.6422 c 0,0 118.4367,25.2961 178.6323,29.943 56.2111,4.3391 113.017,3.508 169.1227,-2.0288 70.1629,-6.9242 207.912,-38.8527 207.912,-38.8527"
   inkscape:path-effect="#path-effect3134"
   inkscape:connector-curvature="0"
   id="path3132"
   d="m 3195.8353,-1262.3313 4.7963,-23.5159 c 0.1919,-0.9409 1.4904,-1.4903 3.0708,-1.3693 0,0 0,0 0,0 0.2433,0.019 0.4931,0.053 0.7462,0.1044 14.3935,2.9164 28.7403,5.7115 43.0411,8.3701 0,0 0,0 0,0 18.0269,3.3406 35.3505,6.3921 51.9957,8.9534 0,0 0,0 0,0 9.0498,1.3205 16.893,2.4975 23.5401,3.3611 1.3647,0.1773 2.3047,1.1913 2.1755,2.2916 l -2.7977,23.8345 m 283.1175,-37.1293 c 2.2998,-1.8556 4.5969,-3.7138 6.8915,-5.5747 -2.8622,-0.7447 -5.7202,-1.4934 -8.5738,-2.2464 l 0.4206,1.9553 c -2.575,0.551 -5.1491,1.0985 -7.7224,1.6426 l 0.8306,3.9128 c 2.5768,-0.5449 5.1545,-1.0932 7.7329,-1.6449 z m -16.2206,-8.8317 c 9.1259,-1.9113 18.2628,-3.867 27.411,-5.8643 l 3.4375,15.6263 c -9.1961,2.0078 -18.3823,3.9741 -27.559,5.8961 z m -154.0017,-6.4969 0.7782,12.9776 m -3.5933,-12.814 0.7289,12.9805 m -11.5483,-1.9398 c 2.0827,-1.4204 4.1551,-2.8496 6.2171,-4.2872 -2.1938,-1.2259 -4.375,-2.4615 -6.5435,-3.7065 l 0.082,1.9984 c -2.1199,0.088 -4.2387,0.1659 -6.3561,0.2352 l 0.1286,3.9981 c 2.1291,-0.07 4.2593,-0.1485 6.3907,-0.2364 z m -27.7044,2.6266 c -4.7361,0.017 -9.4643,-0.011 -14.1836,-0.087 m -23.2818,-0.7641 c -4.6864,-0.2332 -9.3619,-0.5145 -14.0252,-0.8447 m 39.5334,-5.8592 c 1.8486,1.5243 3.7105,3.0413 5.5856,4.5509 1.8922,-1.4902 3.7741,-2.988 5.6455,-4.4931 -0.9373,0 -1.8742,0 -2.8108,0 l 0.01,-4.4999 c -1.8615,-0 -3.7216,-0.012 -5.5803,-0.029 l -0.044,4.4996 c -0.9352,-0.01 -1.8701,-0.019 -2.8046,-0.031 z m -37.6272,-1.5258 c 1.9475,-1.3697 3.8847,-2.7479 5.8118,-4.1344 1.7485,1.608 3.511,3.2091 5.2875,4.8031 -0.9268,-0.048 -1.8532,-0.098 -2.779,-0.1499 l -0.2497,4.4928 c -1.8638,-0.1044 -3.7258,-0.2166 -5.5859,-0.3364 l 0.2859,-4.4908 c -0.924,-0.06 -1.8475,-0.121 -2.7706,-0.1844 z m 65.5208,-8.1578 c 10.2145,-0.2662 20.4629,-0.7488 30.7326,-1.4409 l 1.4835,21.9515 c -10.5743,0.7128 -21.1308,1.2094 -31.657,1.483 z m -37.4315,-0.01 c 10.1123,0.2747 20.274,0.3249 30.4724,0.1573 l 0.3462,21.9975 c -10.5117,0.1719 -20.9902,0.1193 -31.4229,-0.1645 z m -35.6106,-1.8968 c 0.6519,0.05 1.274,0.091 1.8664,0.1218 8.9049,0.7005 17.8603,1.2165 26.8572,1.5528 l -0.8233,21.9831 c -9.284,-0.3471 -18.5294,-0.8792 -27.7272,-1.6012 -0.6706,-0.038 -1.3683,-0.086 -2.093,-0.1432 z m -16.5382,3.0374 c 1.5601,1.5679 3.0495,3.1207 4.4725,4.6563 m -12.8651,-5.869 c 2.984,0.4356 5.7814,0.8427 8.3926,1.2127 l -0.542,3.9637 c 1.7528,0.2482 3.4242,0.4799 5.0145,0.6926 l -1.0036,7.937 c -4.0495,-0.5402 -8.5894,-1.1981 -13.6224,-1.9335 z m -8.6462,-6.3227 c 0.4159,0.064 0.8314,0.1286 1.2463,0.1923 11.6517,1.6831 20.9213,3.1009 27.8323,3.8725 l -2.3439,21.8713 c -7.4603,-0.8278 -17.0689,-2.2887 -28.8492,-4.002 -0.4225,-0.065 -0.8454,-0.1303 -1.2688,-0.1959 z m -86.7482,-0.4491 1.5651,-7.8455 c 3.1308,1.9842 6.2632,3.9622 9.3977,5.934 -3.6463,0.6453 -7.3007,1.2824 -10.9628,1.9115 z m 45.2837,1.5123 c 3.3353,0.6058 6.6424,1.1995 9.9215,1.7797 l -1.0438,5.9085 c -3.2895,-0.582 -6.6063,-1.1774 -9.9506,-1.7848 z m 23.9926,7.2531 c -0.5479,3.2681 -3.1918,5.8686 -7.0878,7.403 -3.8961,1.5344 -9.0506,1.9984 -14.5702,1.0081 -5.794,-1.0394 -10.8323,-3.4714 -14.1305,-6.4873 -2.9688,-2.7294 -4.4908,-5.9333 -3.9085,-9.028 0.5823,-3.0946 3.1603,-5.524 6.8903,-7.0079 4.1402,-1.638 9.6578,-2.1278 15.3843,-1.1004 5.4553,0.9787 10.0744,3.1486 13.2008,5.8888 3.1264,2.7403 4.7694,6.0557 4.2216,9.3237 z m -44.7682,-8.0637 c -1.2385,6.5107 -11.3666,10.0609 -22.6632,7.8218 -4.7824,-0.948 -8.999,-2.7789 -12.1654,-5.0676 -4.3097,-3.1173 -6.5843,-7.0645 -5.8127,-10.8075 0.7716,-3.7428 4.4082,-6.467 9.561,-7.6634 3.7854,-0.8783 8.3419,-0.9434 13.0832,-0 11.1996,2.2199 19.2356,9.2098 17.9971,15.7203 z m 455.323,214.7392 c -19.1636,-83.845 -38.3253,-167.6827 -57.4849,-251.5129 l -21.3882,4.8169 c -16.9,3.7399 -33.7471,7.3368 -50.5429,10.7724 0,0 0,0 0,0 -21.0128,4.2901 -41.2281,8.2357 -60.6787,11.6097 0,0 0,0 0,0 -18.6391,3.0918 -32.9948,5.5815 -43.1555,6.4128 -41.8131,4.0672 -83.4102,4.7361 -123.9275,1.5469 -6.8507,-0.347 -18.0789,-2.1166 -33.7423,-4.3748 0,0 0,0 0,0 -16.1229,-2.4785 -33.0561,-5.4636 -50.8247,-8.7541 0,0 0,0 0,0 -14.3232,-2.6627 -28.7068,-5.4673 -43.1519,-8.3977 0,0 0,0 0,0 -4.3566,-0.8844 -8.6306,-1.7618 -12.821,-2.637 0,0 0,0 0,0 -1.139,-0.2379 -2.2258,-0.4658 -3.2601,-0.6844 -0.2694,-0.057 -0.511,-0.1081 -0.7248,-0.1535 -0.063,-0.013 -0.1172,-0.025 -0.164,-0.035 -0.012,-0 -0.023,-0.01 -0.034,-0.01 -0,-8e-4 -0.01,-0 -0.011,-0 m 501.9115,241.4 c -16.7125,-73.1206 -33.4232,-146.2348 -50.1322,-219.3426 l -21.5476,4.8532 c -17.0805,3.78 -34.1188,7.4178 -51.1163,10.8952 0,0 0,0 0,0 -21.2243,4.335 -41.7592,8.3412 -61.6374,11.7913 0,0 0,0 0,0 -18.8902,3.1552 -34.0527,5.7548 -45.5758,6.7425 -43.6504,4.2561 -87.1744,4.9455 -129.7083,1.6085 -8.2581,-0.4789 -20.3201,-2.345 -36.2436,-4.6643 0,0 0,0 0,0 -16.5651,-2.5485 -33.8288,-5.5899 -51.8162,-8.9228 0,0 0,0 0,0 -14.5109,-2.6976 -29.0713,-5.5366 -43.682,-8.5008 0,0 -1e-4,0 -1e-4,0 -4.407,-0.8945 -8.7417,-1.7845 -13.0031,-2.6745 0,0 0,0 0,0 -1.1582,-0.2419 -2.2707,-0.4752 -3.3376,-0.7007 -0.2778,-0.059 -0.5314,-0.1123 -0.7607,-0.1611 -0.065,-0.014 -0.1241,-0.026 -0.1759,-0.037 -0.013,-0 -0.026,-0.01 -0.038,-0.01 -0,-9e-4 -0.01,-0 -0.012,-0 m 70.3593,-58.3959 c 1.2105,0.2269 2.4205,0.4528 3.63,0.6776 17.5166,3.2418 34.0693,6.1621 49.683,8.5598 15.3638,2.1879 25.6319,3.8464 30.862,4.0415 38.1952,3.0191 77.5735,2.3738 117.2709,-1.4759 0,0 0,0 0,0 8.5919,-0.6512 22.0186,-3.0143 40.3684,-6.0331 15.4989,-2.6867 31.592,-5.7675 48.2974,-9.1181 l 2.5579,12.746 c -16.7861,3.367 -32.9885,6.4682 -48.6251,9.1793 -18.4488,3.0438 -32.1933,5.4503 -41.3219,6.1631 -40.4212,3.9241 -80.5585,4.5774 -119.5482,1.5002 -5.7845,-0.2471 -16.381,-1.9436 -31.8473,-4.1556 0,0 0,0 0,0 -15.7879,-2.4253 -32.4708,-5.3678 -50.0736,-8.6262 -1.2158,-0.226 -2.4321,-0.4531 -3.6489,-0.6812 z m 350.8203,-13.0895 c 0.3684,-0.081 0.7368,-0.1628 1.1053,-0.2444 l 9.1824,-2.0683 1.3204,5.8529 -9.1949,2.0711 c -0.3692,0.082 -0.7384,0.1634 -1.1075,0.2449 z m -3.7818,-1.2144 c 1.4832,-0.3261 2.9669,-0.6534 4.4512,-0.9819 l 12.6156,-2.8417 2.2085,9.753 -12.6444,2.8482 c -1.4891,0.3296 -2.9777,0.6579 -4.4658,0.9852 z m -21.2924,6.654 c 3.3368,-0.7102 6.6762,-1.4265 10.0181,-2.1489 l 1.2755,5.8629 c -3.3488,0.7238 -6.695,1.4416 -10.0389,2.1532 z m -3.7519,-1.2482 c 5.5546,-1.1759 11.1164,-2.369 16.6854,-3.5788 l 2.1372,9.7689 c -5.5879,1.2139 -11.1688,2.4112 -16.743,3.5912 z m -21.2457,6.4597 c 0.4138,-0.084 0.8279,-0.1688 1.2424,-0.2534 2.9169,-0.5965 5.8358,-1.1981 8.7566,-1.8046 l 1.2228,5.874 c -2.9272,0.6079 -5.8524,1.2108 -8.7758,1.8087 -0.4152,0.085 -0.8302,0.1693 -1.2447,0.2538 z m -3.7631,-1.2761 c 1.5297,-0.3101 3.0645,-0.6224 4.6043,-0.9366 4.0222,-0.8226 8.0481,-1.6548 12.0778,-2.4963 l 2.05,9.7876 c -4.0441,0.8445 -8.0847,1.6797 -12.1218,2.5054 -1.5445,0.3153 -3.0842,0.6285 -4.6191,0.9398 z m -319.1072,2.5236 c 3.3269,0.653 6.6499,1.2986 9.9688,1.9368 l -1.1328,5.8921 c -3.3266,-0.6396 -6.6571,-1.2868 -9.9915,-1.9412 z m -2.9406,-2.6175 c 5.5452,1.0955 11.0792,2.171 16.6021,3.2255 l -1.8752,9.8226 c -5.5444,-1.0586 -11.0994,-2.1381 -16.665,-3.2377 z m -21.9747,-2.3924 c 2.4769,0.5105 4.9867,1.0234 7.5291,1.5395 0.7962,0.1615 1.5923,0.3226 2.3881,0.4834 l -1.1882,5.8812 c -0.7975,-0.1611 -1.5952,-0.3226 -2.3932,-0.4845 -2.5478,-0.5171 -5.0636,-1.0312 -7.5472,-1.5432 z m -2.8262,-2.6273 c 3.516,0.7307 7.1006,1.4653 10.753,2.2067 1.9085,0.3872 3.8157,0.7721 5.7216,1.1547 l -1.9684,9.8044 c -1.9127,-0.384 -3.8267,-0.7703 -5.7419,-1.1588 -3.6654,-0.7441 -7.2652,-1.4818 -10.7987,-2.2161 z m 488.2913,276.3485 c -20.7977,-90.9945 -41.5933,-181.9811 -62.3867,-272.9597 l -21.282,4.7928 c -16.7796,3.7132 -33.4993,7.2827 -50.1605,10.6905 0,0 0,0 -1e-4,0 -20.8718,4.2601 -40.8741,8.1654 -60.0396,11.4887 0,0 0,0 0,0 -18.4715,3.0495 -32.2894,5.4659 -41.5419,6.193 -40.5882,3.9412 -80.9007,4.5964 -120.0737,1.5058 -5.9124,-0.2591 -16.5848,-1.9644 -32.0747,-4.1819 0,0 0,0 0,0 -15.8281,-2.4317 -32.541,-5.3793 -50.1637,-8.6416 0,0 0,0 -10e-5,0 -14.198,-2.6393 -28.4638,-5.421 -42.7984,-8.329 0,0 0,0 0,0 -4.323,-0.8775 -8.5565,-1.7467 -12.6996,-2.612 0,0 0,0 0,0 -1.1262,-0.2352 -2.1957,-0.4595 -3.2084,-0.6735 -0.2638,-0.056 -0.4974,-0.1052 -0.7009,-0.1485 -0.061,-0.013 -0.1125,-0.024 -0.156,-0.033 -0.011,-0 -0.021,-0 -0.031,-0.01 -0,-7e-4 -0.01,-0 -0.01,-0 m 497.3277,262.9171 c -14.3356,-62.7212 -28.6697,-125.437 -43.0023,-188.1472 l -21.7022,4.8883 c -17.2555,3.8189 -34.4791,7.4964 -51.6723,11.0143 0,0 0,0 0,0 -21.4294,4.3786 -42.2741,8.4434 -62.567,11.9674 0,0 0,0 0,0 -19.1338,3.2167 -35.0786,5.9229 -47.9228,7.0622 -45.432,4.4392 -90.8246,5.1486 -135.3139,1.6683 -9.6229,-0.6068 -22.4934,-2.5664 -38.6692,-4.945 0,0 0,0 0,0 -16.9939,-2.6165 -34.5781,-5.7124 -52.7775,-9.0864 0,0 0,0 0,0 -14.693,-2.7316 -29.4247,-5.6039 -44.1962,-8.6008 0,0 0,0 0,0 -4.4559,-0.9044 -8.8495,-1.8065 -13.1797,-2.7108 0,0 0,0 0,0 -1.1768,-0.2458 -2.3145,-0.4844 -3.4128,-0.7165 -0.286,-0.06 -0.5512,-0.1166 -0.7956,-0.1685 -0.068,-0.014 -0.1308,-0.028 -0.1874,-0.04 -0.014,-0 -0.028,-0.01 -0.042,-0.01 -0,-0 -0.01,-0 -0.014,-0 m 515.4543,177.8252 c 11.5873,50.697 23.1734,101.38952 34.7583,152.07759 l -23.388,5.27164 c -19.1643,4.24308 -38.4093,8.35353 -57.7363,12.31319 0,10e-6 0,10e-6 0,10e-6 -23.6662,4.85364 -47.8904,9.55862 -72.7055,13.88768 0,0 0,0 0,0 -21.7905,3.88751 -46.2676,7.75595 -73.5198,10.54905 -64.863,6.43679 -130.6343,7.36348 -196.45,2.3202 -24.5075,-2.00184 -46.1958,-4.9818 -65.1227,-8.00603 0,-10e-6 0,-10e-6 0,-10e-6 -21.6706,-3.35816 -42.7498,-7.04899 -63.2628,-10.87126 0,0 0,0 0,0 -16.6783,-3.10155 -33.2791,-6.3372 -49.8032,-9.69088 0,-10e-6 0,-10e-6 0,-10e-6 -4.9893,-1.01231 -10.0249,-2.04658 -15.1058,-3.10733 0,-1e-5 0,-1e-5 0,-1e-5 -1.3797,-0.28804 -2.7905,-0.58398 -4.2324,-0.88863 -0.3752,-0.0793 -0.7671,-0.16224 -1.1757,-0.24905 -0.1,-0.0212 -0.204,-0.0434 -0.3132,-0.0666 -0.028,-0.006 -0.056,-0.0119 -0.084,-0.0179 -0.01,-0.002 -0.019,-0.004 -0.029,-0.006 m 588.1702,-163.5155 c 13.37,58.4965 26.7386,116.98791 40.1058,175.47415 l -23.5039,5.298 c -19.2956,4.27225 -38.6796,8.41247 -58.1533,12.40252 0,0 0,0 0,0 -23.82,4.88631 -48.2766,9.63531 -73.4027,14.01973 0,0 0,10e-6 0,10e-6 -21.9732,3.93363 -47.0371,7.882 -75.28,10.78883 -66.1993,6.57416 -133.372,7.51579 -200.6542,2.36503 -25.5311,-2.09777 -47.8259,-5.14791 -66.942,-8.21654 0,0 0,0 0,0 -21.9921,-3.40916 -43.3117,-7.1409 -63.9837,-10.994 0,0 -10e-5,0 -10e-5,-10e-6 -16.8148,-3.12698 -33.5441,-6.38762 -50.1887,-9.76584 0,0 0,0 -1e-4,-10e-6 -5.0259,-1.01973 -10.1057,-2.06308 -15.2382,-3.1346 0,0 0,0 0,0 -1.3936,-0.29095 -2.8233,-0.59084 -4.2888,-0.90047 -0.3813,-0.0806 -0.7819,-0.16539 -1.2018,-0.25459 -0.1018,-0.0216 -0.2091,-0.0444 -0.3218,-0.0684 -0.029,-0.006 -0.058,-0.0123 -0.087,-0.0185 -0.01,-0.002 -0.02,-0.004 -0.03,-0.006 m 593.1707,-186.98918 c 21.9119,95.86928 43.8215,191.73014 65.7288,287.58259 l -24.0594,5.4243 c -19.9246,4.41201 -39.9746,8.6949 -60.1515,12.83052 0,10e-6 0,10e-6 0,10e-6 -24.557,5.04285 -50.1272,10.00278 -76.7434,14.6525 0,0 0,0 0,0 -22.8486,4.15466 -50.724,8.48601 -83.7146,11.93779 -72.602,7.23238 -146.4897,8.24562 -220.7993,2.57984 -30.4357,-2.55745 -55.6361,-5.9438 -75.6587,-9.22521 0,0 0,0 0,0 -23.5332,-3.65353 -46.0045,-7.58131 -67.4388,-11.58211 0,0 0,0 0,0 -17.4691,-3.2489 -34.8142,-6.62928 -52.0364,-10.12506 0,0 0,0 0,0 -5.2017,-1.05529 -10.493,-2.1422 -15.8729,-3.26526 0,0 0,0 0,0 -1.4605,-0.30488 -2.9802,-0.62368 -4.559,-0.95721 -0.4106,-0.0868 -0.853,-0.18043 -1.327,-0.28113 -0.1121,-0.0238 -0.2332,-0.0496 -0.3633,-0.0773 -0.033,-0.007 -0.067,-0.0142 -0.1007,-0.0215 -0.012,-0.002 -0.023,-0.005 -0.035,-0.008 m 23.0697,-76.89703 c 5.0942,1.06276 10.1273,2.0963 15.0985,3.10489 16.8204,3.414 33.7371,6.71108 50.7511,9.87517 20.904,3.89805 42.5741,7.68946 65.0353,11.17299 19.392,3.13339 42.571,6.28586 69.5948,8.52353 69.4211,5.30751 138.6375,4.34408 206.7854,-2.43041 29.6879,-3.07268 55.6074,-7.13761 77.847,-11.13851 0,0 1e-4,0 1e-4,-10e-6 25.5795,-4.46516 50.3751,-9.27835 74.4194,-14.21231 19.6877,-4.03435 39.2744,-8.21799 58.7614,-12.53278 l 17.918,-4.0385 13.0765,57.53222 -18.1337,4.08737 c -19.8098,4.3865 -39.7382,8.64333 -59.7866,12.75238 -24.4225,5.01426 -49.7893,9.93567 -76.1334,14.53694 -22.6887,4.1143 -50.0507,8.37571 -82.1744,11.72799 -71.4328,7.11218 -144.0943,8.11234 -217.1206,2.54061 -29.5401,-2.47351 -54.2099,-5.79846 -74.067,-9.04102 0,0 0,0 0,0 -23.2518,-3.6089 -45.5127,-7.50089 -66.8079,-11.47471 -17.3496,-3.22664 -34.5823,-6.58515 -51.6989,-10.05947 -5.0595,-1.02643 -10.1984,-2.08176 -15.416,-3.17023 z m 100.6933,-504.06657 c 0,6e-4 0.01,0 0.01,0 0.01,0 0.019,0 0.029,0.01 0.041,0.01 0.09,0.019 0.1492,0.032 0.1945,0.041 0.4213,0.089 0.6801,0.1441 0,0 10e-5,0 10e-5,0 0.9939,0.2101 2.0486,0.4312 3.1637,0.6641 1e-4,0 1e-4,0 1e-4,0 4.1022,0.8568 8.3008,1.7188 12.5947,2.5904 0,0 0,0 0,0 14.2392,2.8886 28.4033,5.6505 42.4932,8.2697 0,0 0,0 0,0 0,0 0,0 0,0 17.4968,3.2379 34.0194,6.1531 49.5929,8.5444 0,0 0,0 0,0 15.3402,2.1824 25.5325,3.8321 30.6346,4.0152 38.0119,3.0056 77.215,2.3622 116.7453,-1.4703 8.4681,-0.637 21.8215,-2.9901 40.1484,-6.0032 0,0 0,0 0,0 0,0 0,0 0,0 18.9193,-3.2794 38.7376,-7.1498 59.4877,-11.3841 16.545,-3.3837 33.1547,-6.9297 49.8304,-10.6198 0,0 0,0 0,0 l 21.19,-4.773 c 22.2046,97.1532 44.4113,194.3139 66.6204,291.4831 l -6e-4,-0 c 22.2091,97.16918 44.4158,194.32986 66.6201,291.482 l -24.0787,5.42869 c -19.9464,4.41688 -40.0196,8.70473 -60.2209,12.84541 -10e-5,10e-6 -10e-5,10e-6 -10e-5,10e-6 -24.5826,5.0483 -50.1915,10.01556 -76.8596,14.67451 0,0 0,0 0,0 -22.879,4.16235 -50.8522,8.50701 -84.0079,11.97775 -72.8247,7.25528 -146.946,8.27101 -221.5001,2.58732 -30.6063,-2.57344 -55.9077,-5.97149 -75.9619,-9.2603 0,0 0,0 0,0 -23.5868,-3.66203 -46.0981,-7.59663 -67.5589,-11.60256 -10e-5,-10e-6 -10e-5,-10e-6 -10e-5,-10e-6 -17.4918,-3.25314 -34.8584,-6.63768 -52.1006,-10.13755 0,0 0,0 0,0 -5.2078,-1.05653 -10.5065,-2.14495 -15.895,-3.2698 0,0 0,-1e-5 0,-1e-5 -1.4628,-0.30536 -2.9857,-0.62482 -4.5683,-0.95917 -0.4117,-0.087 -0.8555,-0.18096 -1.3314,-0.28206 -0.1125,-0.0239 -0.234,-0.0497 -0.3647,-0.0776 -0.033,-0.007 -0.067,-0.0142 -0.1013,-0.0216 -0.012,-0.003 -0.024,-0.005 -0.035,-0.008 z"
   style="fill:none;stroke:#000000;stroke-width:1px;stroke-linecap:butt;stroke-linejoin:miter;stroke-opacity:1" /><path
   style="fill:none;stroke:#000000;stroke-width:1px;stroke-linecap:butt;stroke-linejoin:miter;stroke-opacity:1"
   d="m 3333.586,-313.87253 23.9963,-0.13831 c 1.0424,-0.006 1.8843,1.89404 1.9693,4.34456 0,0 0,0 0,0 0.01,0.11096 0.015,0.22341 0.018,0.3371 0.3834,14.19758 1.2005,26.99527 2.8647,38.22951 3.123,14.99708 3.1461,21.35365 2.9624,17.50941 0.01,-2.47519 -5.0223,-10.14501 -14.362,-23.88607 -6.9712,-11.52974 -21.0588,-23.43044 -42.2881,-36.54491 -4.0773,-2.51877 -8.1493,-4.64808 -11.2571,-6.0173 -3.1079,-1.36922 -5.224,-1.97293 -5.4603,-1.47191 l -10.2382,21.70459 M 3530.484,-501.8406 c 4.8433,-4.27414 9.9496,-8.59476 15.3348,-12.95572 -6.6201,1.99892 -13.056,4.00866 -19.3016,6.01327 l 0.9917,1.73561 c -5.5644,3.15053 -10.9003,6.27443 -16.0126,9.36066 l 2.0923,3.40921 c 5.0796,-3.06719 10.3793,-6.17042 15.9037,-9.29864 z m -33.7552,6.22977 c 15.9735,-10.11938 34.4352,-20.77665 55.5642,-31.5665 1.5158,-0.77676 3.0702,-1.55451 4.6633,-2.3328 l 6.9268,14.42741 c -1.5373,0.75051 -3.0386,1.50088 -4.504,2.25066 -20.4455,10.4262 -38.387,20.79208 -54.0039,30.69235 z m -223.4637,122.39656 6.6572,11.16543 m -9.4786,-9.5734 6.5654,11.22359 m -11.7026,3.6189 c 1.1386,-2.14203 2.3544,-4.33908 3.6553,-6.58597 -2.6112,-0.0773 -5.087,-0.23344 -7.4223,-0.47616 l 0.9417,1.76554 c -1.7222,0.94198 -3.3345,1.81292 -4.8381,2.60629 l 1.7885,3.57845 c 1.5375,-0.80961 3.1814,-1.69634 4.9332,-2.65368 z m -16.3724,9.91717 c -1.909,0.23118 -2.7209,0.47715 -2.3931,0.59607 m 11.3574,-0.9936 c 5.1599,-0.20377 10.4488,0.23357 16.0284,1.29537 m -29.4306,-7.60855 c 0.2912,1.41525 0.8354,2.79885 1.6185,4.15641 -0.1296,-1.50489 -0.1356,-2.9979 -0.01,-4.4665 -0.3182,0.0287 -0.5909,0.0583 -0.8176,0.0874 l -1.4525,-4.26437 c -0.3997,0.0383 -0.6118,0.0763 -0.6337,0.10497 l 1.2796,4.32125 c -0.042,0.0233 -0.037,0.0439 0.015,0.0608 z m 28.8773,-0.10884 c -2.169,-1.88693 -4.4027,-3.68358 -6.71,-5.37573 -2.5343,1.30056 -4.9255,2.72251 -7.1852,4.25376 1.127,-0.0154 2.2601,-0.003 3.4004,0.0358 l -0.1783,4.49845 c 2.1727,0.0745 4.3742,0.25364 6.6146,0.53644 l 0.5036,-4.4731 c 1.1747,0.14782 2.3592,0.32265 3.5549,0.52435 z m -22.8797,-12.21916 c 4.7929,-2.41504 11.2358,-6.05677 19.4031,-10.5585 2.1945,-1.27073 4.437,-2.61378 6.7294,-4.02563 l 11.5635,18.71178 c -2.4054,1.48212 -4.7671,2.89861 -7.0869,4.24596 -8.5996,4.7866 -15.651,8.74907 -21.229,11.52071 z m -5.4154,2.97936 c -3.6499,0.28555 -4.2458,0.13788 -1.9491,0.0962 0.9808,-0.23473 2.182,-0.67168 3.6073,-1.29213 l 8.6523,20.21378 c -1.7546,0.76047 -3.3093,1.34237 -4.6679,1.72699 -3.2275,0.45397 -3.8487,0.92818 -1.7024,0.88343 z m 43.9448,3.21985 c -11.7878,-3.54078 -22.4568,-5.06493 -32.7682,-4.49406 -2.5954,0.36485 -4.8343,0.64092 -6.7229,0.84864 l 2.4069,21.83329 c 1.322,-0.1453 2.962,-0.36862 4.9261,-0.69039 8.1175,-0.48514 16.5538,0.74824 26.07,3.62175 z m 69.0445,47.38438 c -8.029,-5.61766 -17.6443,-11.23737 -28.7545,-16.94518 m 49.8416,43.49666 c -1.8122,-2.70757 -3.8185,-5.65826 -6.0137,-8.85836 -3.5723,-5.81592 -8.5961,-11.69248 -15.0734,-17.69312 l -2.8123,2.85599 c -6.9358,-6.42298 -15.5823,-12.99563 -25.9422,-19.80117 l -4.5018,6.58642 c 18.9864,12.46752 31.9299,24.07549 38.848,35.40701 2.0268,2.96496 3.8768,5.69049 5.5448,8.18289 z m 14.5158,13.92949 c -2.9166,-5.59804 -8.5207,-14.12102 -16.5788,-25.8525 -10.77,-17.49447 -34.2204,-35.4987 -70.3988,-55.59663 0,0 0,0 0,0 -2.3119,-0.96601 -4.5772,-1.86966 -6.8,-2.71051 l -8.1316,20.42142 c 1.8155,0.68253 3.6723,1.416 5.5744,2.19996 32.2735,17.99257 53.0487,33.85465 62.3729,49.17018 0,0 0,0 0,0 6.9596,10.19798 11.7468,17.41929 14.128,21.9475 z m -15.8426,-29.52723 7.9949,-0.2422 c -1.1994,3.13938 -2.3704,6.21906 -3.5052,9.2412 -1.5264,-2.86636 -3.0216,-5.86835 -4.4897,-8.999 z m 11.0004,35.20319 c 0.3413,2.02662 0.5437,3.58345 0.6367,4.65458 l -5.8688,1.26918 c -0.1183,-1.17245 -0.34,-2.81949 -0.6946,-4.92519 z m -2.4402,7.04249 c -1.578,0.49712 -3.0561,1.03811 -4.3996,1.48249 -1.3434,0.44438 -2.5524,0.78568 -3.5922,0.85211 -1.0398,0.0664 -1.9104,-0.14575 -2.575,-0.7631 -0.6646,-0.61735 -1.1233,-1.6413 -1.3371,-3.11455 -0.2487,-1.71382 -0.1415,-3.84231 0.2747,-6.02667 0.4162,-2.18436 1.1421,-4.41997 2.1714,-6.31523 1.708,-2.30261 4.0891,-3.83553 6.8424,-4.157 2.7532,-0.32145 5.441,0.60096 7.7471,2.24114 1.7711,1.45331 3.3415,3.2366 4.4993,4.97277 1.1577,1.73618 1.8998,3.41675 2.074,4.78284 0.1497,1.17432 -0.1302,2.00992 -0.7247,2.61737 -0.5946,0.60745 -1.5024,0.991 -2.6118,1.30779 -1.1094,0.31679 -2.4196,0.57218 -3.8399,0.89728 -1.4203,0.3251 -2.9507,0.72567 -4.5286,1.22276 z m -3.0925,-21.99047 c -3.2961,0.3297 -6.4911,-1.17139 -8.9336,-4.12937 -2.4425,-2.95798 -4.1181,-7.39679 -4.3807,-12.67057 -0.2139,-4.29506 0.5378,-8.45786 1.9497,-11.85362 2.2232,-7.01533 5.7328,-11.54003 9.661,-11.54966 3.928,-0.01 7.3927,4.48115 9.5467,11.40067 1.594,3.21181 2.618,7.06158 2.8183,11.05694 0.2461,4.90578 -0.7868,9.1233 -2.687,12.2425 -1.9002,3.1192 -4.6784,5.17342 -7.9744,5.50311 z m 295.765,-323.89135 c -34.5624,3.09753 -62.5427,8.68988 -83.8247,16.18978 -24.7241,8.19566 -45.0699,16.63008 -61.1012,24.87324 -37.5821,19.2533 -66.8381,37.64926 -88.5622,53.39187 -26.6409,18.61988 -49.815,36.09161 -70.1137,51.56972 0,10e-6 0,2e-5 0,3e-5 -22.0835,16.72632 -42.0381,31.99267 -60.3455,45.13798 -18.4648,13.13628 -34.3946,24.18536 -48.2727,32.21438 -13.3714,7.34904 -21.8515,12.29797 -25.7819,13.16592 -3.3834,-0.11719 1.3821,0.1205 15.0298,-1.73665 16.1013,-0.87703 33.0045,3.03289 53.1564,11.47773 0,3e-5 1e-4,6e-5 1e-4,9e-5 37.2433,20.67208 61.4233,39.26051 72.5875,57.34922 12.1751,17.69885 18.9794,28.45489 19.6914,33.1447 1.8514,8.56566 2.6679,5.39475 -0.4437,-7.95244 0,-10e-6 0,-10e-6 0,-2e-5 -1.4692,-9.48067 -2.1775,-20.8012 -2.5481,-33.7941 l 0.1285,-25.59839 m 282.6126,-236.50732 c -31.1385,2.76833 -56.522,7.86788 -76.034,14.71138 -22.6635,7.49783 -41.472,15.31219 -56.4894,23.01302 -35.2664,18.02134 -63.1162,35.58748 -84.3434,50.90242 -25.904,18.09448 -48.707,35.29661 -69.0003,50.76092 0,1e-5 0,2e-5 0,2e-5 -22.0342,16.69273 -42.2064,32.12005 -60.9984,45.62088 -18.9145,13.48228 -35.6728,25.0735 -50.7581,33.84079 -14.4484,8.05888 -24.7357,13.86608 -31.2034,15.74071 -5.6957,0.90706 -4.421,1.81619 4.5575,0.2777 11.2443,-0.68725 23.1639,2.18235 38.2054,8.35673 0,3e-5 1e-4,5e-5 1e-4,8e-5 31.386,17.51404 51.5531,32.88925 60.5487,47.70954 9.7746,14.34802 15.0749,22.49115 15.1794,25.30598 0.4394,4.56831 0.545,-1.29971 -2.5762,-16.04375 0,0 0,-10e-6 0,-10e-6 -1.6454,-11.04055 -2.4456,-23.70796 -2.8238,-37.83476 l 0.1274,-25.99185 m 72.8659,53.14147 c 0.073,0.48818 0.1483,0.9685 0.2261,1.44095 3.1006,11.73871 1.4656,11.80388 -2.0119,-1.36479 -1.4116,-6.8489 -9.9478,-20.61374 -24.887,-42.17113 -13.6614,-21.85234 -42.4624,-44.14086 -86.4504,-68.44947 0,-3e-5 0,-5e-5 -10e-5,-8e-5 -26.0366,-11.0593 -48.6785,-16.16719 -70.3727,-15.0716 -19.0243,2.22408 -27.8095,2.75957 -27.0888,4.05619 1.0086,0.29127 7.4077,-3.66935 19.5389,-10.20099 0,0 0,0 0,-1e-5 12.488,-7.1789 27.4639,-17.6037 45.4109,-30.34154 17.7493,-12.73593 37.4532,-27.81694 59.5936,-44.58195 16.4951,-12.5869 35.1658,-26.68386 56.3291,-41.83762 l 7.5676,10.56898 c -20.9714,15.01634 -39.5453,29.04238 -56.0387,41.62486 -22.1209,16.75177 -41.9106,31.89619 -59.8508,44.77218 -18.1241,12.87414 -33.4264,23.51252 -46.3899,30.98225 -1e-4,0 -1e-4,1e-5 -1e-4,1e-5 -12.5554,6.81127 -19.6664,11.11 -21.6746,11.2153 -1.6316,-0.89313 5.7784,-1.16411 22.9634,-3.26267 19.7808,-1.02081 40.4595,3.67724 64.4829,13.84213 41.6806,23.06457 68.9008,44.08729 81.7079,64.65209 13.9936,20.23737 21.9373,32.97289 23.1095,39.08315 2.9212,11.59395 4.2762,10.46629 1.1719,-1.82269 -0.082,-0.51023 -0.1616,-1.02802 -0.2386,-1.55334 z m 115.6154,-328.61332 c 9.3417,-3.66893 19.5004,-7.34105 30.4804,-10.98715 4.8015,-1.69924 9.9285,-3.30903 15.3801,-4.82413 l 1.5993,5.78809 c -5.372,1.49292 -10.4259,3.07924 -15.1606,4.75374 -10.8272,3.59433 -20.8488,7.21703 -30.0693,10.8389 z m -13.6781,3.44023 c 12.7168,-5.43659 27.2295,-10.91257 43.5523,-16.33328 10.093,-3.57274 21.6211,-6.75199 34.5746,-9.4898 l 2.1918,9.76037 c -12.6265,2.67019 -23.8748,5.77248 -33.7352,9.25893 -15.9457,5.29304 -30.1392,10.64993 -42.5946,15.97601 z m -61.9511,34.30236 c 8.1531,-4.73618 16.8434,-9.58806 26.0825,-14.52946 l 2.802,5.30189 c -9.1461,4.89097 -17.7531,9.69678 -25.8327,14.39125 z m -9.015,2.98881 c 13.0307,-7.78175 27.5522,-15.91321 43.6182,-24.27313 l 4.5092,8.92295 c -15.789,8.21175 -30.0792,16.21525 -42.9242,23.88924 z m -42.2397,29.95365 c 5.539,-3.99392 11.5864,-8.16903 18.1536,-12.49914 l 3.3156,5.00548 c -6.5235,4.3015 -12.5369,8.45237 -18.0518,12.42641 z m -6.7731,2.34682 c 1.3132,-0.9242 2.6354,-1.85186 3.9667,-2.7829 7.8088,-5.68528 16.6679,-11.75185 26.6115,-18.12238 l 5.4474,8.39258 c -9.8231,6.29517 -18.5957,12.30135 -26.3517,17.94121 -1.3204,0.92332 -2.6321,1.84345 -3.9349,2.7603 z m 13.6426,241.51378 c 0.1552,2.47536 0.3354,4.83477 0.5465,7.07581 l -5.9766,0.50169 c -0.2163,-2.30341 -0.4008,-4.72291 -0.5594,-7.25608 z m 1.8504,-2.60206 c 0.2306,4.22275 0.5239,8.12347 0.9082,11.69109 l -9.9518,0.94138 c -0.4004,-3.7451 -0.7058,-7.81275 -0.9441,-12.19185 z m -2.3978,-22.2067 -0.058,11.19942 c 0.017,0.56962 0.036,1.1348 0.054,1.69553 l -5.9987,0.0767 c -0.019,-0.57088 -0.037,-1.14611 -0.055,-1.72568 l 0.058,-11.23124 z m 2.0238,-4.66105 -0.082,15.84496 c 0.047,1.5149 0.098,2.99787 0.1535,4.44856 l -9.9963,0.21401 c -0.057,-1.49725 -0.1085,-3.02571 -0.1556,-4.58501 l 0.081,-15.92006 z m 241.9775,-300.85002 c -36.8449,3.31699 -66.5565,9.23788 -89.0184,17.17538 -26.0979,8.66087 -47.4686,17.50868 -64.1759,26.11339 -39.1258,20.0746 -69.3193,39.02377 -91.3747,55.0515 -27.1321,18.97014 -50.5536,36.6216 -70.8559,52.10893 0,0 0,1e-5 0,2e-5 -22.1164,16.74871 -41.9259,31.90776 -59.9102,44.81606 -18.165,12.90559 -33.5426,23.59325 -46.6159,31.1301 -12.6534,6.87581 -19.9286,11.25257 -22.1675,11.44939 -1.8418,-0.80002 5.2509,-1.00997 22.0114,-3.07955 19.3392,-1.00356 39.5649,3.59992 63.1237,13.5584 0,3e-5 1e-4,6e-5 1e-4,9e-5 41.1481,22.77744 68.0034,43.50802 80.6134,63.77567 13.7753,19.93274 21.5823,32.43072 22.6993,38.37053 2.7929,11.23056 4.0833,9.85771 0.978,-2.55825 0,0 0,-1e-5 0,-1e-5 -1.3518,-8.44076 -1.9988,-18.86336 -2.3643,-31.10033 l 0.1293,-25.33609 m 262.7609,-204.67101 c -27.8185,2.4491 -50.6837,7.07079 -68.4795,13.27778 -20.6653,6.82115 -37.9831,14.03422 -52.0172,21.20916 -33.021,16.82672 -59.5071,33.58819 -80.2525,48.48842 -25.1894,17.58501 -47.6325,34.5257 -67.9206,49.97662 0,10e-6 0,2e-5 0,3e-5 -21.9864,16.66016 -42.3696,32.24356 -61.6316,46.08913 -19.3506,13.81781 -36.9122,25.93474 -53.1681,35.41792 -15.4928,8.74721 -27.5325,15.38666 -36.4606,18.23747 -7.938,1.90027 -10.0483,3.46051 -5.5976,2.23101 6.5346,-0.50321 13.6215,1.35758 23.7075,5.33031 1e-4,2e-5 1e-4,4e-5 1e-4,6e-5 25.7063,14.45171 41.982,26.71107 48.8748,38.36199 7.4468,11.09873 11.2886,16.70812 10.804,17.70478 -0.9298,0.69209 -1.5134,-7.79129 -4.644,-23.88985 0,-10e-6 0,-10e-6 0,-2e-5 -1.8162,-12.55315 -2.7055,-26.52664 -3.0911,-41.75297 l 0.1262,-26.37338 m 373.1507,143.90615 c 8.3908,-1.03241 12.9894,-1.62245 13.9118,-2.35738 1.1277,-0.55887 0.068,0.0964 -3.2428,1.53588 -8.5316,3.79783 -20.1455,11.78336 -35.6358,22.16062 -17.3963,12.02856 -35.9144,26.11802 -56.1455,41.42291 0,0 0,10e-6 0,2e-5 -21.4645,16.30494 -44.1496,33.590665 -68.5369,51.196098 -24.1066,17.477134 -50.4297,35.327567 -79.4524,52.618429 -26.8832,16.2543278 -58.0351,31.9705769 -93.7973,45.467875 -32.3925,12.732424 -71.4205,21.393738 -116.3505,23.53424 -44.8313,1.503977 -90.4504,-7.637538 -134.4104,-27.676585 -10e-5,-2.7e-5 -10e-5,-5.4e-5 -2e-4,-8e-5 -36.2385,-18.9469071 -62.4024,-40.669819 -78.4442,-63.58482 -17.9404,-24.338883 -30.0045,-46.363015 -36.914,-65.195797 -15.8634,-41.58288 -23.9646,-78.59013 -27.1969,-109.46144 0,-1e-5 0,-2e-5 0,-3e-5 -3.6792,-29.05001 -5.5402,-57.26784 -6.0065,-84.486 l 0.1141,-30.53447 m 723.7167,169.30652 c 10.8809,-1.27183 17.368,-2.22026 19.5777,-3.43258 2.6263,-1.06638 2.6847,-0.86203 0.1113,0.18299 -6.8475,2.90186 -17.4386,10.28389 -32.5676,20.35011 -16.8604,11.64646 -35.1085,25.53984 -55.3357,40.83469 0,1e-5 0,2e-5 -1e-4,2e-5 -21.4286,16.280515 -44.272,33.683307 -69.0118,51.547297 -24.4336,17.728778 -51.3592,35.973492 -81.2598,53.8012725 -27.6665,16.7705765 -60.1327,33.1110175 -97.7403,47.3404525 -34.0742,13.477329 -75.6409,22.626969 -123.9667,24.999219 -48.3636,1.642007 -97.6072,-8.256114 -145.2839,-29.946401 0,-3e-5 -1e-4,-6e-5 -1e-4,-8.9e-5 -40.4984,-21.24366 -69.5808,-45.3034616 -87.1997,-70.595489 -19.6862,-26.775854 -32.8442,-50.700285 -40.1955,-70.896702 -16.8903,-44.49004 -25.5085,-83.45881 -28.7478,-115.34601 0,-1e-5 0,-2e-5 0,-3e-5 -3.8073,-30.18447 -5.7352,-59.38185 -6.207,-87.42467 l 0.1132,-30.82061 m 755.4246,284.147734 c 22.8123,-2.419032 38.3491,-5.084794 46.7266,-8.584567 9.8074,-3.498193 15.2231,-5.454715 16.1832,-6.29961 1.222,-1.391325 -4.4685,3.098923 -17.8658,11.674762 -14.2925,9.815533 -31.2473,22.769399 -51.4557,38.016129 0,8e-6 0,1.6e-5 -10e-5,2.4e-5 -21.2567,16.1634616 -44.8585,34.12719 -71.2872,53.230103 -26.0008,18.934573 -55.8134,39.068551 -89.9208,59.469064 -31.4198,19.244271 -70.1837,38.575631 -116.6335,56.313221 -42.1323,17.04666 -95.8638,28.5362 -160.4612,32.01891 -65.2894,2.3034 -131.9002,-11.22012 -197.3858,-40.8226 -10e-5,-5e-5 -2e-4,-9e-5 -2e-4,-1.4e-4 -60.91,-32.24893 -103.9768,-67.506329 -129.153,-104.188274 -28.0516,-38.45300392 -46.4508,-71.483038 -55.9192,-98.213507 -21.8111,-58.420199 -32.9064,-106.787949 -36.1792,-143.542959 0,-1e-5 0,-2e-5 0,-3e-5 -4.4211,-35.6204 -6.6693,-69.51147 -7.1676,-101.50575 l 0.1092,-32.19175 m 79.959,9.00572 -0.081,22.56558 c 0.4799,29.24543 2.5052,59.87133 6.4994,91.71021 0,2e-5 0,4e-5 0,6e-5 3.2494,33.36869 12.6215,75.198 31.0094,123.927628 0,1.3e-5 0,2.6e-5 0,3.9e-5 7.9957,22.185039 22.7488,48.88074 44.981,79.210509 19.919,28.758525 53.2575,56.226291 99.9681,80.819383 1e-4,3.4e-5 1e-4,6.7e-5 2e-4,1.01e-4 53.0968,24.098345 107.626,35.09985 161.1409,33.25655 53.2781,-2.710216 98.5471,-12.571999 135.0738,-27.135648 40.2987,-15.297133 74.6816,-32.547856 103.4904,-50.071294 31.1809,-18.6107862 58.9852,-37.430493 83.8958,-55.526253 25.2538,-18.241054 48.328,-35.814566 69.7043,-52.059453 0,-8e-6 0,-1.6e-5 0,-2.4e-5 20.2215,-15.280203 38.076,-28.887648 54.1549,-39.976868 0,0 0,-10e-6 0,-10e-6 14.6019,-9.61262 23.7016,-16.11454 28.0931,-17.70977 1.498,-0.46984 -0.1909,-0.0165 -5.0027,1.78997 -2.6985,1.26015 -7.6442,2.3296 -14.8706,3.37741 l 9.6827,58.166121 c 10.6049,-1.567654 18.2846,-3.284468 23.0724,-5.319497 8.4961,-3.054123 12.9335,-4.616053 13.2484,-5.115831 -0.2516,-0.607352 -6.837,4.410957 -20.5505,13.258947 0,3e-6 0,6e-6 -10e-5,8e-6 -14.7614,10.149876 -31.9523,23.275306 -52.1642,38.530823 0,8e-6 0,1.5e-5 0,2.3e-5 -21.2881,16.184836 -44.7514,34.0461327 -70.8717,52.922808 -25.7146,18.714385 -55,38.503366 -88.3393,58.434076 -30.7344,18.79255 -68.3483,37.577742 -113.1834,54.674712 -40.6608,16.39488 -92.1709,27.45713 -153.797,30.73706 -62.1986,2.18262 -125.638,-10.67887 -187.8715,-38.83652 -1e-4,-4e-5 -2e-4,-8e-5 -2e-4,-1.2e-4 -57.1827,-30.239276 -97.6958,-63.451896 -121.492,-98.053945 -26.524,-36.320654 -43.9661,-67.687926 -53.0479,-93.225219 -20.9125,-55.876416 -31.5555,-102.527816 -34.8221,-138.393926 0,-2e-5 0,-4e-5 0,-6e-5 -4.3091,-34.62774 -6.4987,-67.66171 -6.9922,-98.93442 l 0.079,-23.07373 z m 513.9675,-6.53036 -0.1299,25.10955 c 0.3611,11.58412 0.9552,21.23124 2.2056,28.77389 3.0997,11.61172 1.4,11.4317 -2.2058,-2.10034 0,-10e-6 0,-10e-6 0,-2e-5 -1.4668,-7.01935 -10.1397,-21.02173 -25.2972,-42.88375 -13.8586,-22.14947 -43.0244,-44.73011 -87.5448,-69.32583 0,-1e-5 -1e-4,-3e-5 -1e-4,-5e-5 -26.5012,-11.26571 -49.5962,-16.46817 -71.7319,-15.35533 -19.4488,2.25305 -28.5513,2.84959 -28.0408,4.23932 0.7779,0.38279 7.0127,-3.49981 19.046,-9.96693 12.3783,-7.11179 27.2789,-17.48731 45.1849,-30.19369 17.7053,-12.70361 37.3895,-27.76999 59.5343,-44.53805 20.3054,-15.49527 43.9406,-33.30196 71.497,-52.5746 0,-1e-5 0,-2e-5 0,-3e-5 22.3415,-16.27395 53.3446,-35.70086 93.8036,-56.48475 0,-2e-5 0,-3e-5 0,-4e-5 17.2911,-8.91695 39.5469,-18.12178 66.8312,-27.18443 23.4811,-8.31543 54.6877,-14.52004 93.5039,-18.02657 l 40.096,596.654262 c 23.2273,-2.458934 39.0789,-5.184429 47.671,-8.763766 10.0571,-3.582778 15.6592,-5.614461 16.7421,-6.525091 1.5027,-1.540654 -4.0173,2.84901 -17.3544,11.37301 -14.2032,9.751849 -31.113,22.673036 -51.3208,37.918092 0,8e-6 0,1.6e-5 0,2.4e-5 -21.2507,16.15939031 -44.8789,34.142629 -71.3664,53.288635 -26.0553,18.976514 -55.9683,39.176206 -90.2221,59.666205 -31.5503,19.330309 -70.5333,38.765709 -117.2906,56.625319 -42.4125,17.17081 -96.5672,28.74174 -161.7306,32.26307 -65.8781,2.3264 -133.093,-11.32322 -199.198,-41.2009 -10e-5,-5e-5 -2e-4,-9e-5 -2e-4,-1.4e-4 -61.62,-32.63173 -105.1732,-68.278605 -130.6122,-105.356722 -28.3426,-38.8591652 -46.9241,-72.205916 -56.4662,-99.163656 -21.9822,-58.904722 -33.1637,-107.599392 -36.4376,-144.523722 0,-1e-5 0,-2e-5 0,-3e-5 -4.4425,-35.80947 -6.7018,-69.86381 -7.2011,-101.99553 l 0.1091,-32.23944 z"
   id="path3136"
   inkscape:connector-curvature="0"
   inkscape:path-effect="#path-effect3138"
   inkscape:original-d="m 3140.6926,-336.6422 c 0,0 -7.3872,180.31293 58.818,211.42635 164.2162,77.174013 380.7002,-214.55949 496.849,-222.36485"
   sodipodi:nodetypes="cac" /></g></svg>