<?xml version="1.0" encoding="UTF-8" standalone="no"?>
<!-- Created with Inkscape (http://www.inkscape.org/) -->

<svg
   xmlns:dc="http://purl.org/dc/elements/1.1/"
   xmlns:cc="http://creativecommons.org/ns#"
   xmlns:rdf="http://www.w3.org/1999/02/22-rdf-syntax-ns#"
   xmlns:svg="http://www.w3.org/2000/svg"
   xmlns="http://www.w3.org/2000/svg"
   xmlns:sodipodi="http://sodipodi.sourceforge.net/DTD/sodipodi-0.dtd"
   xmlns:inkscape="http://www.inkscape.org/namespaces/inkscape"
   id="svg2"
   version="1.1"
   inkscape:version="0.48.3.1 r9886"
   width="545.66876"
   height="765.35376"
   xml:space="preserve"
   sodipodi:docname="150315_doodle.svg"><metadata
     id="metadata8"><rdf:RDF><cc:Work
         rdf:about=""><dc:format>image/svg+xml</dc:format><dc:type
           rdf:resource="http://purl.org/dc/dcmitype/StillImage" /><dc:title /></cc:Work></rdf:RDF></metadata><defs
     id="defs6" /><sodipodi:namedview
     pagecolor="#cccccc"
     bordercolor="#666666"
     borderopacity="1"
     objecttolerance="10"
     gridtolerance="10"
     guidetolerance="10"
     inkscape:pageopacity="1"
     inkscape:pageshadow="2"
     inkscape:window-width="640"
     inkscape:window-height="480"
     id="namedview4"
     showgrid="false"
     inkscape:zoom="0.31950603"
     inkscape:cx="284.0979"
     inkscape:cy="388.54864"
     inkscape:current-layer="g3840"
     units="mm"
     guidecolor="#ff0000"
     guideopacity="0.47058824"
     guidehicolor="#00ff00"
     guidehiopacity="1"
     inkscape:snap-global="false"
     showguides="false"
     showborder="false"
     inkscape:showpageshadow="false"><sodipodi:guide
       position="21.259843,754.72441"
       orientation="0,1048.8189"
       id="guide4271" /><sodipodi:guide
       position="1070.0787,754.72441"
       orientation="744.09449,0"
       id="guide4273" /><sodipodi:guide
       position="1070.0787,10.62992"
       orientation="0,-1048.8189"
       id="guide4275" /><sodipodi:guide
       position="21.259843,10.62992"
       orientation="-744.09449,-4.6185278e-14"
       id="guide4277" /><sodipodi:guide
       position="545.669,10.63"
       orientation="-761.31029,0"
       id="guide4301" /><inkscape:grid
       type="xygrid"
       id="grid4326"
       empspacing="5"
       visible="true"
       enabled="true"
       snapvisiblegridlinesonly="true"
       units="mm"
       spacingx="8mm"
       spacingy="8mm"
       originx="10mm" /></sodipodi:namedview><g
     style="display:inline"
     id="refbuild"
     inkscape:groupmode="layer"
     inkscape:label="XX_Referenz"
     sodipodi:insensitive="true"><path
       inkscape:connector-curvature="0"
       style="color:#000000;fill:#ffffff;fill-opacity:1;fill-rule:nonzero;stroke:none;stroke-width:0;marker:none;visibility:visible;display:inline;overflow:visible;enable-background:accumulate"
       d="m 1091.3438,-2.3437505e-7 -21.25,0 -1048.8438,0 -21.25,0 L 0,765.34375 l 21.25,0 524.40625,0 524.43755,0 21.25,0 z"
       id="canvasfull" /><path
       style="color:#000000;fill:#ff00ff;fill-opacity:1;fill-rule:nonzero;stroke:none;stroke-width:0;marker:none;visibility:visible;display:inline;overflow:visible;enable-background:accumulate"
       d="m 0,-4.6223438e-4 21.259843,0 0,765.35433223438 -21.259843,0 z"
       id="outercropleft"
       inkscape:connector-curvature="0" /><path
       style="color:#000000;fill:#ff00ff;fill-opacity:1;fill-rule:nonzero;stroke:none;stroke-width:0;marker:none;visibility:visible;display:inline;overflow:visible;enable-background:accumulate"
       d="m 0,754.72395 545.66929,0 0,10.62992 -545.66929,0 z"
       id="bottomcropleft"
       inkscape:connector-curvature="0"
       sodipodi:nodetypes="ccccc" /><path
       style="color:#000000;fill:#ff00ff;fill-opacity:1;fill-rule:nonzero;stroke:none;stroke-width:0;marker:none;visibility:visible;display:inline;overflow:visible;enable-background:accumulate"
       d="m 0,1.0976562e-4 545.66929,0 0,10.62992023438 -545.66929,0 z"
       id="topcropleft"
       inkscape:connector-curvature="0" /><path
       style="color:#000000;fill:#00ff00;fill-opacity:1;fill-rule:nonzero;stroke:#00ff00;stroke-width:0;stroke-linecap:round;stroke-linejoin:miter;stroke-miterlimit:4;stroke-opacity:1;stroke-dashoffset:0;marker:none;visibility:visible;display:inline;overflow:visible;enable-background:accumulate"
       d="m 0,-4.6323438e-4 10.629921,0 0,765.35433323438 -10.629921,0 z"
       id="outercropbeforeshiftleft"
       inkscape:connector-curvature="0" /><path
       style="color:#000000;fill:none;stroke:#0000ff;stroke-width:1;stroke-linecap:butt;stroke-linejoin:miter;stroke-miterlimit:4;stroke-opacity:1;stroke-dasharray:none;stroke-dashoffset:0;marker:none;visibility:visible;display:inline;overflow:visible;enable-background:accumulate"
       d="m 10.629921,-10.00046 0,785.35433"
       id="beforecropleft"
       inkscape:connector-curvature="0"
       sodipodi:nodetypes="cc" /><path
       style="color:#000000;fill:#00ff00;fill-opacity:1;fill-rule:nonzero;stroke:none;stroke-width:0;marker:none;visibility:visible;display:inline;overflow:visible;enable-background:accumulate"
       d="m 1091.3381,-4.6223438e-4 -21.2598,0 0,765.35433223438 21.2598,0 z"
       id="outercropright"
       inkscape:connector-curvature="0" /><path
       style="color:#000000;fill:#00ff00;fill-opacity:1;fill-rule:nonzero;stroke:none;stroke-width:0;marker:none;visibility:visible;display:inline;overflow:visible;enable-background:accumulate"
       d="m 1091.3381,754.72395 -545.66929,0 0,10.62992 545.66929,0 z"
       id="bottomcropright"
       inkscape:connector-curvature="0" /><path
       style="color:#000000;fill:#00ff00;fill-opacity:1;fill-rule:nonzero;stroke:none;stroke-width:0;marker:none;visibility:visible;display:inline;overflow:visible;enable-background:accumulate"
       d="m 1091.3381,1.0976562e-4 -545.66929,0 0,10.62992023438 545.66929,0 z"
       id="topcropright"
       inkscape:connector-curvature="0" /><path
       style="color:#000000;fill:#ff00ff;fill-opacity:1;fill-rule:nonzero;stroke:#00ff00;stroke-width:0;stroke-linecap:round;stroke-linejoin:miter;stroke-miterlimit:4;stroke-opacity:1;stroke-dashoffset:0;marker:none;visibility:visible;display:inline;overflow:visible;enable-background:accumulate"
       d="m 1091.3381,-4.6323438e-4 -10.63,0 0,765.35433323438 10.63,0 z"
       id="outercropbeforeshiftright"
       inkscape:connector-curvature="0" /><path
       style="color:#000000;fill:#00ff00;fill-opacity:1;fill-rule:nonzero;stroke:#0000ff;stroke-width:1;stroke-linecap:butt;stroke-linejoin:miter;stroke-miterlimit:4;stroke-opacity:1;stroke-dasharray:none;stroke-dashoffset:0;marker:none;visibility:visible;display:inline;overflow:visible;enable-background:accumulate"
       d="m 1080.7081,-10.00046 0,785.35433"
       id="beforecropright"
       inkscape:connector-curvature="0"
       sodipodi:nodetypes="cc" /><path
       style="color:#000000;fill:#ffff00;fill-opacity:1;fill-rule:nonzero;stroke:#00ff00;stroke-width:0;stroke-linecap:round;stroke-linejoin:miter;stroke-miterlimit:4;stroke-opacity:1;stroke-dashoffset:0;marker:none;visibility:visible;display:inline;overflow:visible;enable-background:accumulate"
       d="m 556.29876,-4.6023438e-4 -10.63,0 0,765.35433023438 10.63,0 z"
       id="innercropright"
       inkscape:connector-curvature="0" /><path
       style="color:#000000;fill:#ffff00;fill-opacity:1;fill-rule:nonzero;stroke:#00ff00;stroke-width:0;stroke-linecap:round;stroke-linejoin:miter;stroke-miterlimit:4;stroke-opacity:1;stroke-dashoffset:0;marker:none;visibility:visible;display:inline;overflow:visible;enable-background:accumulate"
       d="m 545.66876,-4.6023438e-4 -10.63,0 0,765.35433023438 10.63,0 z"
       id="innercropleft"
       inkscape:connector-curvature="0" /><path
       style="opacity:0.5;color:#000000;fill:#ffffff;fill-opacity:1;stroke:none"
       d="m 21.259843,10.62935 1048.818857,0 0,744.09449 -1048.818857,0 z"
       id="canvasoverlay"
       inkscape:connector-curvature="0"
       sodipodi:nodetypes="ccccc" /><path
       style="fill:none;stroke:#00ff00;stroke-width:1px;stroke-linecap:butt;stroke-linejoin:miter;stroke-opacity:1;display:inline"
       d="m 545.669,771.94051 0,-778.5270405"
       id="centerbuild"
       inkscape:connector-curvature="0" /></g><g
     inkscape:label="XX_PAGE"
     inkscape:groupmode="layer"
     id="refcanvas"
     style="display:inline"
     sodipodi:insensitive="true"><path
       sodipodi:nodetypes="ccccc"
       inkscape:connector-curvature="0"
       id="canvas"
       d="m 21.259843,10.62935 1048.818857,0 0,744.09449 -1048.818857,0 z"
       style="color:#000000;fill:#ffffff;fill-opacity:1;stroke:none;stroke-width:1;marker:none;visibility:visible;display:inline" /><path
       style="fill:none;stroke:#000000;stroke-width:1px;stroke-linecap:butt;stroke-linejoin:miter;stroke-opacity:1;display:inline"
       d="m 545.669,771.94051 0,-778.5270403"
       id="center"
       inkscape:connector-curvature="0" /></g><g
     inkscape:label="001"
     inkscape:groupmode="layer"
     id="content"
     style="display:none"><path
       style="color:#000000;fill:#000000;fill-opacity:1;fill-rule:nonzero;stroke:none;stroke-width:1;marker:none;visibility:visible;display:inline;overflow:visible;enable-background:accumulate"
       d="m 368.703,375.10768 c 0,40.45221 -32.79299,73.2452 -73.2452,73.2452 -40.45221,0 -73.2452,-32.79299 -73.2452,-73.2452 0,-40.45221 32.79299,-73.2452 73.2452,-73.2452 40.45221,0 73.2452,32.79299 73.2452,73.2452 z"
       id="path3813"
       inkscape:connector-curvature="0" /><path
       style="font-size:medium;font-style:normal;font-variant:normal;font-weight:normal;font-stretch:normal;text-indent:0;text-align:start;text-decoration:none;line-height:normal;letter-spacing:normal;word-spacing:normal;text-transform:none;direction:ltr;block-progression:tb;writing-mode:lr-tb;text-anchor:start;baseline-shift:baseline;color:#000000;fill:#ffffff;fill-opacity:1;stroke:#000000;stroke-width:1;stroke-miterlimit:4;stroke-dasharray:none;marker:none;visibility:visible;display:inline;overflow:visible;enable-background:accumulate;font-family:Sans;-inkscape-font-specification:Sans"
       d="m 169.625,108.40625 c -44.13087,0 -80.4375,36.30663 -80.4375,80.4375 l 0,60.46875 c 0,44.13087 36.30663,80.4375 80.4375,80.4375 l 135.9375,0 c 17.29573,0 30.4375,13.14177 30.4375,30.4375 l 0,440.5 0,25 50,0 0,-25 0,-440.5 C 386,316.05663 349.69337,279.75 305.5625,279.75 l -135.9375,0 c -17.29573,0 -30.4375,-13.14177 -30.4375,-30.4375 l 0,-60.46875 c 0,-17.29573 13.14177,-30.4375 30.4375,-30.4375 l 941.375,0 25,0 0,-50 -25,0 -941.375,0 z"
       id="path3780"
       inkscape:connector-curvature="0" /><path
       style="font-size:medium;font-style:normal;font-variant:normal;font-weight:normal;font-stretch:normal;text-indent:0;text-align:start;text-decoration:none;line-height:normal;letter-spacing:normal;word-spacing:normal;text-transform:none;direction:ltr;block-progression:tb;writing-mode:lr-tb;text-anchor:start;baseline-shift:baseline;color:#000000;fill:#ffffff;fill-opacity:1;stroke:#000000;stroke-width:1;stroke-miterlimit:4;stroke-dasharray:none;marker:none;visibility:visible;display:inline;overflow:visible;enable-background:accumulate;font-family:Sans;-inkscape-font-specification:Sans"
       d="m 179.625,123.40625 c -41.44736,0 -75.4375,33.99014 -75.4375,75.4375 l 0,60.46875 c 0,41.44736 33.99014,75.4375 75.4375,75.4375 l 115.9375,0 c 19.97924,0 35.4375,15.45826 35.4375,35.4375 l 0,440.5 0,20 40,0 0,-20 0,-440.5 C 371,328.74014 337.00986,294.75 295.5625,294.75 l -115.9375,0 c -19.97924,0 -35.4375,-15.45826 -35.4375,-35.4375 l 0,-60.46875 c 0,-19.97924 15.45826,-35.4375 35.4375,-35.4375 l 931.375,0 20,0 0,-40 -20,0 -931.375,0 z"
       id="path3783"
       inkscape:connector-curvature="0" /><path
       style="font-size:medium;font-style:normal;font-variant:normal;font-weight:normal;font-stretch:normal;text-indent:0;text-align:start;text-decoration:none;line-height:normal;letter-spacing:normal;word-spacing:normal;text-transform:none;direction:ltr;block-progression:tb;writing-mode:lr-tb;text-anchor:start;baseline-shift:baseline;color:#000000;fill:#ffffff;fill-opacity:1;stroke:#000000;stroke-width:1;stroke-miterlimit:4;stroke-dasharray:none;marker:none;visibility:visible;display:inline;overflow:visible;enable-background:accumulate;font-family:Sans;-inkscape-font-specification:Sans"
       d="m 189.625,138.40625 c -38.76384,0 -70.4375,31.67366 -70.4375,70.4375 l 0,60.46875 c 0,38.76384 31.67366,70.4375 70.4375,70.4375 l 95.9375,0 c 22.66276,0 40.4375,17.77474 40.4375,40.4375 l 0,440.5 0,15 30,0 0,-15 0,-440.5 C 356,341.42366 324.32634,309.75 285.5625,309.75 l -95.9375,0 c -22.66276,0 -40.4375,-17.77474 -40.4375,-40.4375 l 0,-60.46875 c 0,-22.66276 17.77474,-40.4375 40.4375,-40.4375 l 921.375,0 15,0 0,-30 -15,0 -921.375,0 z"
       id="path3785"
       inkscape:connector-curvature="0" /><path
       style="font-size:medium;font-style:normal;font-variant:normal;font-weight:normal;font-stretch:normal;text-indent:0;text-align:start;text-decoration:none;line-height:normal;letter-spacing:normal;word-spacing:normal;text-transform:none;direction:ltr;block-progression:tb;writing-mode:lr-tb;text-anchor:start;baseline-shift:baseline;color:#000000;fill:#ffffff;fill-opacity:1;stroke:#000000;stroke-width:1;stroke-miterlimit:4;stroke-dasharray:none;marker:none;visibility:visible;display:inline;overflow:visible;enable-background:accumulate;font-family:Sans;-inkscape-font-specification:Sans"
       d="m 199.625,153.40625 c -36.08033,0 -65.4375,29.35717 -65.4375,65.4375 l 0,60.46875 c 0,36.08033 29.35717,65.4375 65.4375,65.4375 l 75.9375,0 c 25.34627,0 45.4375,20.09123 45.4375,45.4375 l 0,440.5 0,10 20,0 0,-10 0,-440.5 C 341,354.10717 311.64283,324.75 275.5625,324.75 l -75.9375,0 c -25.34627,0 -45.4375,-20.09123 -45.4375,-45.4375 l 0,-60.46875 c 0,-25.34627 20.09123,-45.4375 45.4375,-45.4375 l 911.375,0 10,0 0,-20 -10,0 -911.375,0 z"
       id="path3787"
       inkscape:connector-curvature="0" /><path
       sodipodi:nodetypes="csccsssc"
       inkscape:connector-curvature="0"
       d="m 1660.9934,800.67787 0,-440.47909 c 0,-30.7133 -24.7259,-55.43917 -55.4392,-55.43917 l -135.9182,0 c -30.7133,0 -55.4392,-24.72587 -55.4392,-55.43917 l 0,-60.47909 c 0,-30.7133 24.7259,-55.43917 55.4392,-55.43917 l 941.3574,0"
       style="color:#000000;fill:none;stroke:#800000;stroke-width:50;stroke-linecap:square;stroke-linejoin:round;stroke-miterlimit:4;stroke-opacity:1;stroke-dasharray:none;stroke-dashoffset:0;marker:none;visibility:visible;display:inline;overflow:visible;enable-background:accumulate"
       id="path3789" /><path
       id="path3791"
       style="color:#000000;fill:none;stroke:#ff0000;stroke-width:40;stroke-linecap:square;stroke-linejoin:round;stroke-miterlimit:4;stroke-opacity:1;stroke-dasharray:none;stroke-dashoffset:0;marker:none;visibility:visible;display:inline;overflow:visible;enable-background:accumulate"
       d="m 1650.9934,810.67787 0,-440.47909 c 0,-30.7133 -24.7259,-55.43917 -55.4392,-55.43917 l -115.9182,0 c -30.7133,0 -55.4392,-24.72587 -55.4392,-55.43917 l 0,-60.47909 c 0,-30.7133 24.7259,-55.43917 55.4392,-55.43917 l 931.3574,0"
       inkscape:connector-curvature="0"
       sodipodi:nodetypes="csccsssc" /><path
       sodipodi:nodetypes="csccsssc"
       inkscape:connector-curvature="0"
       d="m 1640.9934,820.67787 0,-440.47909 c 0,-30.7133 -24.7259,-55.43917 -55.4392,-55.43917 l -95.9182,0 c -30.7133,0 -55.4392,-24.72587 -55.4392,-55.43917 l 0,-60.47909 c 0,-30.7133 24.7259,-55.43917 55.4392,-55.43917 l 921.3574,0"
       style="color:#000000;fill:none;stroke:#808000;stroke-width:30;stroke-linecap:square;stroke-linejoin:round;stroke-miterlimit:4;stroke-opacity:1;stroke-dasharray:none;stroke-dashoffset:0;marker:none;visibility:visible;display:inline;overflow:visible;enable-background:accumulate"
       id="path3793" /><path
       id="path3795"
       style="color:#000000;fill:none;stroke:#ffff00;stroke-width:20;stroke-linecap:square;stroke-linejoin:round;stroke-miterlimit:4;stroke-opacity:1;stroke-dasharray:none;stroke-dashoffset:0;marker:none;visibility:visible;display:inline;overflow:visible;enable-background:accumulate"
       d="m 1630.9934,830.67787 0,-440.47909 c 0,-30.7133 -24.7259,-55.43917 -55.4392,-55.43917 l -75.9182,0 c -30.7133,0 -55.4392,-24.72587 -55.4392,-55.43917 l 0,-60.47909 c 0,-30.7133 24.7259,-55.43917 55.4392,-55.43917 l 911.3574,0"
       inkscape:connector-curvature="0"
       sodipodi:nodetypes="csccsssc" /></g><g
     style="display:none"
     id="g3816"
     inkscape:groupmode="layer"
     inkscape:label="002"><path
       inkscape:connector-curvature="0"
       id="path3818"
       d="M 331.43584,648.30396 C 244.1061,698.72382 132.43803,668.80244 82.018165,581.4727 31.598326,494.14296 61.519682,382.47486 148.84942,332.055 c 87.32977,-50.41984 198.99784,-20.49846 249.41771,66.83128 50.41983,87.32974 20.49848,198.99784 -66.83129,249.41768 z"
       style="color:#000000;fill:#000000;fill-opacity:1;fill-rule:nonzero;stroke:none;stroke-width:1;marker:none;visibility:visible;display:inline;overflow:visible;enable-background:accumulate" /><path
       inkscape:connector-curvature="0"
       id="path3820"
       d="M 398.19646,177.85437 C 376.13102,139.63592 326.53524,126.34677 288.31679,148.4122 l -52.36747,30.23438 c -38.21846,22.06543 -51.50761,71.66121 -29.44217,109.87967 l 67.96875,117.72533 c 8.64786,14.97854 3.83764,32.93053 -11.1409,41.57839 l -381.48419,220.25 -21.65064,12.5 25,43.30127 21.65064,-12.5 381.48419,-220.25 c 38.21845,-22.06543 51.5076,-71.66121 29.44217,-109.87966 L 249.80842,263.52625 c -8.64787,-14.97854 -3.83765,-32.93054 11.1409,-41.5784 l 52.36747,-30.23438 c 14.97854,-8.64786 32.93053,-3.83764 41.5784,11.1409 l 470.68751,815.25463 12.5,21.6507 43.3013,-25 -12.5,-21.65066 -470.68754,-815.25467 z"
       style="font-size:medium;font-style:normal;font-variant:normal;font-weight:normal;font-stretch:normal;text-indent:0;text-align:start;text-decoration:none;line-height:normal;letter-spacing:normal;word-spacing:normal;text-transform:none;direction:ltr;block-progression:tb;writing-mode:lr-tb;text-anchor:start;baseline-shift:baseline;color:#000000;fill:#ffffff;fill-opacity:1;stroke:#000000;stroke-width:1;stroke-miterlimit:4;stroke-dasharray:none;marker:none;visibility:visible;display:inline;overflow:visible;enable-background:accumulate;font-family:Sans;-inkscape-font-specification:Sans" /><path
       inkscape:connector-curvature="0"
       id="path3822"
       d="M 390.20608,194.01463 C 369.4824,158.12016 323.051,145.6789 287.15654,166.40258 l -52.36748,30.23438 c -35.89447,20.72368 -48.33572,67.15507 -27.61204,103.04954 l 57.96875,100.40482 c 9.98962,17.30253 4.3315,38.41891 -12.97103,48.40853 l -381.48419,220.25 -17.3205,10 20,34.64101 17.3205,-10 381.48419,-220.25 c 35.89447,-20.72368 48.33573,-67.15507 27.61205,-103.04954 L 241.81804,279.6865 c -9.98962,-17.30253 -4.33151,-38.4189 12.97102,-48.40852 l 52.36748,-30.23438 c 17.30252,-9.98962 38.4189,-4.3315 48.40852,12.97103 l 465.68754,806.59437 10,17.3205 34.641,-20 -10,-17.3205 -465.68752,-806.59437 z"
       style="font-size:medium;font-style:normal;font-variant:normal;font-weight:normal;font-stretch:normal;text-indent:0;text-align:start;text-decoration:none;line-height:normal;letter-spacing:normal;word-spacing:normal;text-transform:none;direction:ltr;block-progression:tb;writing-mode:lr-tb;text-anchor:start;baseline-shift:baseline;color:#000000;fill:#ffffff;fill-opacity:1;stroke:#000000;stroke-width:1;stroke-miterlimit:4;stroke-dasharray:none;marker:none;visibility:visible;display:inline;overflow:visible;enable-background:accumulate;font-family:Sans;-inkscape-font-specification:Sans" /><path
       inkscape:connector-curvature="0"
       id="path3824"
       d="m 382.2157,210.17488 c -19.38192,-33.57047 -62.64895,-45.16383 -96.21942,-25.78191 l -52.36747,30.23437 c -33.57047,19.38192 -45.16384,62.64895 -25.78192,96.21942 l 47.96875,83.08431 c 11.33138,19.62652 4.82538,43.90727 -14.80115,55.23865 l -381.48419,220.25 -12.99038,7.5 15,25.98076 12.99038,-7.5 381.48419,-220.25 c 33.57047,-19.38192 45.16384,-62.64894 25.78192,-96.21941 l -47.96875,-83.08431 c -11.33138,-19.62653 -4.82538,-43.90728 14.80115,-55.23866 l 52.36747,-30.23437 c 19.62653,-11.33138 43.90727,-4.82538 55.23865,14.80115 l 460.68747,797.93412 7.5,12.9904 25.9808,-15 -7.5,-12.9904 -460.6875,-797.93412 z"
       style="font-size:medium;font-style:normal;font-variant:normal;font-weight:normal;font-stretch:normal;text-indent:0;text-align:start;text-decoration:none;line-height:normal;letter-spacing:normal;word-spacing:normal;text-transform:none;direction:ltr;block-progression:tb;writing-mode:lr-tb;text-anchor:start;baseline-shift:baseline;color:#000000;fill:#ffffff;fill-opacity:1;stroke:#000000;stroke-width:1;stroke-miterlimit:4;stroke-dasharray:none;marker:none;visibility:visible;display:inline;overflow:visible;enable-background:accumulate;font-family:Sans;-inkscape-font-specification:Sans" /><path
       inkscape:connector-curvature="0"
       id="path3826"
       d="m 374.22531,226.33513 c -18.04016,-31.24648 -58.1428,-41.99195 -89.38928,-23.95178 l -52.36748,30.23437 c -31.24648,18.04017 -41.99195,58.14281 -23.95178,89.38929 l 37.96875,65.7638 c 12.67313,21.95052 5.31923,49.39565 -16.63128,62.06878 l -381.48419,220.25 -8.66026,5 10,17.32051 8.66026,-5 381.48419,-220.25 c 31.24648,-18.04016 41.99195,-58.1428 23.95178,-89.38929 l -37.96875,-65.7638 c -12.67313,-21.95052 -5.31923,-49.39565 16.63128,-62.06878 l 52.36748,-30.23437 c 21.95051,-12.67314 49.39564,-5.31924 62.06878,16.63127 l 455.68749,789.27387 5,8.6603 17.3205,-10 -5,-8.6603 -455.68749,-789.27387 z"
       style="font-size:medium;font-style:normal;font-variant:normal;font-weight:normal;font-stretch:normal;text-indent:0;text-align:start;text-decoration:none;line-height:normal;letter-spacing:normal;word-spacing:normal;text-transform:none;direction:ltr;block-progression:tb;writing-mode:lr-tb;text-anchor:start;baseline-shift:baseline;color:#000000;fill:#ffffff;fill-opacity:1;stroke:#000000;stroke-width:1;stroke-miterlimit:4;stroke-dasharray:none;marker:none;visibility:visible;display:inline;overflow:visible;enable-background:accumulate;font-family:Sans;-inkscape-font-specification:Sans" /></g><g
     style="display:none"
     id="g3836"
     inkscape:groupmode="layer"
     inkscape:label="003"><path
       id="path3848"
       style="color:#000000;fill:none;stroke:#800000;stroke-width:100;stroke-linecap:square;stroke-linejoin:round;stroke-miterlimit:4;stroke-opacity:1;stroke-dasharray:none;stroke-dashoffset:0;marker:none;visibility:visible;display:inline;overflow:visible;enable-background:accumulate"
       d="M 195.58679,53.213174 507.05254,364.67893 c 21.71758,21.71758 56.68526,21.71756 78.40284,-3e-5 l 96.10872,-96.10868 c 21.7175,-21.71758 56.6852,-21.7176 78.4028,-2e-5 l 42.7652,42.76518 c 21.7176,21.71758 21.7175,56.68526 0,78.40284 L 137.09186,1055.3784"
       inkscape:connector-curvature="0"
       sodipodi:nodetypes="csccsssc" /><path
       sodipodi:nodetypes="csccsssc"
       inkscape:connector-curvature="0"
       d="M 195.58679,39.071038 507.05254,350.53679 c 21.71758,21.71758 56.68526,21.71756 78.40284,-2e-5 l 81.96652,-81.96655 c 21.7176,-21.71758 56.6853,-21.7176 78.4029,-2e-5 l 42.7652,42.76518 c 21.7175,21.71758 21.7175,56.68526 -1e-4,78.40284 L 130.0208,1048.3074"
       style="color:#000000;fill:none;stroke:#ff0000;stroke-width:80;stroke-linecap:square;stroke-linejoin:round;stroke-miterlimit:4;stroke-opacity:1;stroke-dasharray:none;stroke-dashoffset:0;marker:none;visibility:visible;display:inline;overflow:visible;enable-background:accumulate"
       id="path3850" /><path
       id="path3852"
       style="color:#000000;fill:none;stroke:#808000;stroke-width:60;stroke-linecap:square;stroke-linejoin:round;stroke-miterlimit:4;stroke-opacity:1;stroke-dasharray:none;stroke-dashoffset:0;marker:none;visibility:visible;display:inline;overflow:visible;enable-background:accumulate"
       d="M 195.58679,24.928903 507.05254,336.39465 c 21.71758,21.71759 56.68526,21.71757 78.40284,-2e-5 l 67.82442,-67.82441 c 21.7176,-21.71758 56.6853,-21.7176 78.4028,-2e-5 l 42.7652,42.76518 c 21.7176,21.71758 21.7176,56.68526 0,78.40284 L 122.94973,1041.2363"
       inkscape:connector-curvature="0"
       sodipodi:nodetypes="csccsssc" /><path
       sodipodi:nodetypes="csccsssc"
       inkscape:connector-curvature="0"
       d="M 195.58679,10.786767 507.05254,322.25252 c 21.71758,21.71758 56.68526,21.71756 78.40284,-2e-5 l 53.68232,-53.68228 c 21.7175,-21.71758 56.6852,-21.7176 78.4028,-2e-5 l 42.7652,42.76518 c 21.7176,21.71758 21.7175,56.68526 0,78.40284 L 115.87866,1034.1652"
       style="color:#000000;fill:none;stroke:#ffff00;stroke-width:40;stroke-linecap:square;stroke-linejoin:round;stroke-miterlimit:4;stroke-opacity:1;stroke-dasharray:none;stroke-dashoffset:0;marker:none;visibility:visible;display:inline;overflow:visible;enable-background:accumulate"
       id="path3854" /></g><g
     inkscape:label="004"
     inkscape:groupmode="layer"
     id="g3940"
     style="display:none"><path
       style="color:#000000;fill:none;stroke:#800000;stroke-width:100;stroke-linecap:square;stroke-linejoin:round;stroke-miterlimit:4;stroke-opacity:1;stroke-dasharray:none;stroke-dashoffset:0;marker:none;visibility:visible;display:inline;overflow:visible;enable-background:accumulate"
       d="M 195.58679,3.213174 C 296.36063,216.72999 558.35783,274.26873 738.31322,310.75534 774.42745,545.86263 446.70453,606.65486 347.05934,788.85443 278.97282,862.81178 212.52968,938.67525 137.09186,1005.3784"
       id="path3942"
       inkscape:connector-curvature="0" /><path
       style="color:#000000;fill:none;stroke:#ff0000;stroke-width:80;stroke-linecap:square;stroke-linejoin:round;stroke-miterlimit:4;stroke-opacity:1;stroke-dasharray:none;stroke-dashoffset:0;marker:none;visibility:visible;display:inline;overflow:visible;enable-background:accumulate"
       d="M 195.58679,-10.928962 C 284.73206,220.30924 599.18185,235.89151 743.73901,332.24779 714.55986,553.27897 440.07822,605.27006 336.83014,787.35043 270.02356,859.69462 203.36815,932.45023 130.0208,998.3074"
       id="path3944"
       inkscape:connector-curvature="0" /><path
       style="color:#000000;fill:none;stroke:#808000;stroke-width:60;stroke-linecap:square;stroke-linejoin:round;stroke-miterlimit:4;stroke-opacity:1;stroke-dasharray:none;stroke-dashoffset:0;marker:none;visibility:visible;display:inline;overflow:visible;enable-background:accumulate"
       d="M 195.58679,-25.071097 C 274.24147,211.50064 614.36613,201.66113 727.46366,344.15473 647.7248,576.12885 370.18964,658.29762 246.12682,867.79675 206.19271,910.04111 165.55054,951.6612 122.94973,991.2363"
       id="path3946"
       inkscape:connector-curvature="0" /><path
       style="color:#000000;fill:none;stroke:#ffff00;stroke-width:40;stroke-linecap:square;stroke-linejoin:round;stroke-miterlimit:4;stroke-opacity:1;stroke-dasharray:none;stroke-dashoffset:0;marker:none;visibility:visible;display:inline;overflow:visible;enable-background:accumulate"
       d="M 195.58679,-39.213233 C 256.81701,211.181 691.93321,167.02851 696.88127,386.91881 577.36059,594.78407 332.25867,692.10464 201.2242,896.82666 c -27.52866,29.98916 -55.701,59.42174 -85.34554,87.33854"
       id="path3948"
       inkscape:connector-curvature="0" /><path
       inkscape:connector-curvature="0"
       id="path4030"
       d="m 1325.5868,3.213174 c 100.7738,213.516816 504.5368,103.143836 542.7264,307.542166 37.821,202.42543 -254.2446,324.3625 -391.2539,478.09909 -66.8897,75.05617 -134.5296,149.82082 -209.9674,216.52397"
       style="color:#000000;fill:none;stroke:#800000;stroke-width:100;stroke-linecap:square;stroke-linejoin:round;stroke-miterlimit:4;stroke-opacity:1;stroke-dasharray:none;stroke-dashoffset:0;marker:none;visibility:visible;display:inline;overflow:visible;enable-background:accumulate"
       sodipodi:nodetypes="caac" /><path
       inkscape:connector-curvature="0"
       id="path4032"
       d="m 1325.5868,-10.928962 c 89.1453,231.238202 517.8693,129.742502 548.1522,343.176752 28.5864,201.47749 -267.8254,306.55585 -406.9089,455.10264 -67.3038,71.88318 -133.4619,145.0998 -206.8093,210.95697"
       style="color:#000000;fill:none;stroke:#ff0000;stroke-width:80;stroke-linecap:square;stroke-linejoin:round;stroke-miterlimit:4;stroke-opacity:1;stroke-dasharray:none;stroke-dashoffset:0;marker:none;visibility:visible;display:inline;overflow:visible;enable-background:accumulate"
       sodipodi:nodetypes="caac" /><path
       inkscape:connector-curvature="0"
       id="path4034"
       d="m 1325.5868,-25.071097 c 78.6547,236.571737 508.1144,154.713767 531.8769,369.225827 26.1034,235.64419 -317.3465,352.42079 -481.3369,523.64202 -40.2068,41.97965 -80.5763,83.86445 -123.1771,123.43955"
       style="color:#000000;fill:none;stroke:#808000;stroke-width:60;stroke-linecap:square;stroke-linejoin:round;stroke-miterlimit:4;stroke-opacity:1;stroke-dasharray:none;stroke-dashoffset:0;marker:none;visibility:visible;display:inline;overflow:visible;enable-background:accumulate"
       sodipodi:nodetypes="caac" /><path
       inkscape:connector-curvature="0"
       id="path4036"
       d="m 1325.5868,-39.213233 c 61.2302,250.394233 490.8768,207.066363 501.2945,426.132043 11.2596,236.77016 -330.2147,340.15597 -495.6571,509.90785 -28.4102,29.15023 -55.701,59.42174 -85.3455,87.33854"
       style="color:#000000;fill:none;stroke:#ffff00;stroke-width:40;stroke-linecap:square;stroke-linejoin:round;stroke-miterlimit:4;stroke-opacity:1;stroke-dasharray:none;stroke-dashoffset:0;marker:none;visibility:visible;display:inline;overflow:visible;enable-background:accumulate"
       sodipodi:nodetypes="caac" /><path
       sodipodi:nodetypes="caac"
       style="color:#000000;fill:none;stroke:#800000;stroke-width:100;stroke-linecap:square;stroke-linejoin:round;stroke-miterlimit:4;stroke-opacity:1;stroke-dasharray:none;stroke-dashoffset:0;marker:none;visibility:visible;display:inline;overflow:visible;enable-background:accumulate"
       d="m 2435.5868,3.213174 c 100.7738,213.516816 -195.8554,255.511416 -142.2093,379.489186 54.5128,125.98071 281.0551,63.52768 380.0182,158.6543 131.3528,126.26057 305.7862,428.97528 230.3484,495.67844"
       id="path4038"
       inkscape:connector-curvature="0" /><path
       sodipodi:nodetypes="caac"
       style="color:#000000;fill:none;stroke:#ff0000;stroke-width:80;stroke-linecap:square;stroke-linejoin:round;stroke-miterlimit:4;stroke-opacity:1;stroke-dasharray:none;stroke-dashoffset:0;marker:none;visibility:visible;display:inline;overflow:visible;enable-background:accumulate"
       d="m 2435.5868,-10.928962 c 89.1453,231.238202 -199.8979,283.811332 -136.7835,415.123772 56.1427,116.80737 268.7716,48.14672 364.3632,135.65785 133.4786,122.1955 306.8539,424.25426 233.5065,490.11144"
       id="path4040"
       inkscape:connector-curvature="0" /><path
       sodipodi:nodetypes="caac"
       style="color:#000000;fill:none;stroke:#808000;stroke-width:60;stroke-linecap:square;stroke-linejoin:round;stroke-miterlimit:4;stroke-opacity:1;stroke-dasharray:none;stroke-dashoffset:0;marker:none;visibility:visible;display:inline;overflow:visible;enable-background:accumulate"
       d="m 2435.5868,-25.071097 c 78.6547,236.571737 -202.9205,293.718627 -153.0588,441.172847 93.5076,276.52653 700.852,192.92736 730.251,483.35169 5.8543,57.83258 -80.5763,83.86445 -123.1771,123.43956"
       id="path4042"
       inkscape:connector-curvature="0" /><path
       sodipodi:nodetypes="caac"
       style="color:#000000;fill:none;stroke:#ffff00;stroke-width:40;stroke-linecap:square;stroke-linejoin:round;stroke-miterlimit:4;stroke-opacity:1;stroke-dasharray:none;stroke-dashoffset:0;marker:none;visibility:visible;display:inline;overflow:visible;enable-background:accumulate"
       d="M 2435.5868,-39.213233 C 2496.817,211.181 2196.5336,290.81413 2251.9456,458.86583 c 89.3737,271.04914 685.1118,185.88267 715.9308,469.61752 4.3955,40.46671 -55.701,59.42174 -85.3455,87.33855"
       id="path4044"
       inkscape:connector-curvature="0" /><path
       style="font-size:medium;font-style:normal;font-variant:normal;font-weight:normal;font-stretch:normal;text-indent:0;text-align:start;text-decoration:none;line-height:normal;letter-spacing:normal;word-spacing:normal;text-transform:none;direction:ltr;block-progression:tb;writing-mode:lr-tb;text-anchor:start;baseline-shift:baseline;color:#000000;fill:#ffffff;fill-opacity:1;stroke:#000000;stroke-width:2;stroke-miterlimit:4;stroke-dasharray:none;marker:none;visibility:visible;display:inline;overflow:visible;enable-background:accumulate;font-family:Sans;-inkscape-font-specification:Sans"
       d="m 2390.375,1064.5625 c 20.8823,44.2448 19.3684,69.9902 10.875,93.8125 -8.4934,23.8223 -28.212,47.5957 -53.7188,72.0938 -25.5067,24.498 -55.85,48.2034 -80.2812,80.5 -24.4312,32.2965 -40.2393,84.2422 -19.75,131.5937 19.2386,44.461 56.204,73.8232 94.25,90.5 38.046,16.6768 78.2116,23.7345 117.125,29.9063 77.8269,12.3434 148.0769,23.872 179.875,54.4374 59.2556,56.9584 134.8358,162.151 182.7812,256.7188 23.9728,47.2839 41.1355,92.4454 47.4688,124.7188 6.3333,32.2733 -0.7381,42.8082 1.625,40.7187 m 66.25,74.9375 c 40.082,-35.4411 39.5109,-87.7459 30.25,-134.9375 -9.2609,-47.1916 -29.7812,-98.141 -56.4062,-150.6563 -53.2501,-105.0305 -130.5904,-214.2916 -202.6876,-283.5937 -67.1649,-64.5613 -159.6554,-69.3869 -233.4687,-81.0937 -36.9066,-5.8535 -69.8013,-12.732 -92.6563,-22.75 -22.8549,-10.0181 -34.6072,-20.0957 -42.625,-38.625 -6.3337,-14.6375 -5.2309,-14.4439 7.7188,-31.5626 12.9497,-17.1186 40.4332,-40.5 69.7812,-68.6874 29.3481,-28.1875 61.5508,-62.6787 78.6563,-110.6563 17.1055,-47.9776 14.8796,-107.5489 -14.625,-170.0625"
       id="path3040"
       inkscape:connector-curvature="0"
       sodipodi:nodetypes="csssssssssccsssssssssc" /><path
       style="font-size:medium;font-style:normal;font-variant:normal;font-weight:normal;font-stretch:normal;text-indent:0;text-align:start;text-decoration:none;line-height:normal;letter-spacing:normal;word-spacing:normal;text-transform:none;direction:ltr;block-progression:tb;writing-mode:lr-tb;text-anchor:start;baseline-shift:baseline;color:#000000;fill:#ffffff;fill-opacity:1;stroke:#000000;stroke-width:2;stroke-miterlimit:4;stroke-dasharray:none;marker:none;visibility:visible;display:inline;overflow:visible;enable-background:accumulate;font-family:Sans;-inkscape-font-specification:Sans"
       d="m 2398.25,1043.4688 c 19.4937,50.5655 17.5693,85.4471 6.875,116.5624 -10.6943,31.1154 -32.3637,59.2739 -57.75,87.1563 -25.3863,27.8824 -54.2235,54.3819 -75.25,88.125 -21.0265,33.7431 -30.7691,81.7073 -9.375,126.2187 18.9691,39.4661 53.2743,64.3734 88.7812,78.125 35.507,13.7517 73.202,18.8174 110.0313,23.0938 73.6585,8.5528 141.5363,16.3306 174.5937,46.5938 60.9936,55.8377 137.0547,160.1622 185.75,254.9687 24.3477,47.4032 41.9526,92.8358 48.7813,126.4375 6.8287,33.6017 0.4478,48.362 -0.75,49.4375 m 53.4687,59.5313 c 35.476,-31.8532 34.9089,-79.5311 25.6876,-124.9063 -9.2214,-45.3752 -29.5188,-95.4445 -56.0313,-147.0625 -53.0251,-103.236 -130.39,-211.0485 -202.875,-277.4062 -62.5341,-57.2481 -148.7855,-58.8661 -219.375,-67.0626 -35.2947,-4.0982 -67.2367,-9.2574 -90.375,-18.2187 -23.1383,-8.9613 -36.4915,-19.2498 -45.5937,-38.1875 -10.1631,-21.1447 -7.4449,-29.009 5.1874,-49.2812 12.6324,-20.2723 38.658,-45.9829 66.5,-76.5626 27.8421,-30.5796 57.7932,-67.1186 74.25,-115 16.4569,-47.8813 17.204,-106.2901 -7.875,-171.3437"
       id="path3042"
       inkscape:connector-curvature="0"
       sodipodi:nodetypes="csssssssssccsssssssssc" /><path
       style="font-size:medium;font-style:normal;font-variant:normal;font-weight:normal;font-stretch:normal;text-indent:0;text-align:start;text-decoration:none;line-height:normal;letter-spacing:normal;word-spacing:normal;text-transform:none;direction:ltr;block-progression:tb;writing-mode:lr-tb;text-anchor:start;baseline-shift:baseline;color:#000000;fill:#ffffff;fill-opacity:1;stroke:#000000;stroke-width:2;stroke-miterlimit:4;stroke-dasharray:none;marker:none;visibility:visible;display:inline;overflow:visible;enable-background:accumulate;font-family:Sans;-inkscape-font-specification:Sans"
       d="m 2407.125,1024.4062 c 17.8589,53.7147 14.9316,93.3414 2.4375,128.4688 -12.4941,35.1274 -35.9459,66.1137 -62.3125,96.3438 -26.3666,30.23 -55.5032,59.1109 -76.4062,93.4062 -20.9031,34.2953 -32.1485,77.5565 -16.75,123.0938 26.6806,78.9016 90.037,131.0166 164.3437,168.5 74.3067,37.4833 161.2739,62.1741 244.6563,87.0937 83.3823,24.9196 163.1495,50.2398 220.9687,84.75 57.8192,34.5102 92.5822,74.2411 98.875,136.4063 0.6959,6.8747 -0.59,10.9658 -5.4063,17.75 -4.8162,6.7841 -13.8531,15.0027 -25.5937,23.375 -23.4813,16.7445 -56.4407,32.8717 -82.75,57.3124 m 40.8437,43.9688 c 16.2915,-15.1344 47.8294,-31.8141 76.75,-52.4375 14.4604,-10.3117 28.6133,-21.901 39.6876,-37.5 11.0742,-15.599 18.3874,-36.4584 16.1562,-58.5 -8.4067,-83.047 -60.564,-141.768 -127.8125,-181.9063 -67.2485,-40.1382 -150.7142,-65.6692 -234.5313,-90.7187 -83.817,-25.0495 -168.0244,-49.4656 -234.8124,-83.1563 -66.7881,-33.6906 -114.4581,-74.7946 -134.5313,-134.1562 -9.5324,-28.1899 -4.2545,-47.3721 11.1563,-72.6562 15.4107,-25.2842 42.4123,-53.1276 70.375,-85.1876 27.9626,-32.0599 57.0035,-68.956 73.625,-115.6874 16.6214,-46.7315 19.4371,-102.9289 -2.0313,-167.5"
       id="path3044"
       inkscape:connector-curvature="0"
       sodipodi:nodetypes="cssssssssssccssssssssssc" /><path
       style="font-size:medium;font-style:normal;font-variant:normal;font-weight:normal;font-stretch:normal;text-indent:0;text-align:start;text-decoration:none;line-height:normal;letter-spacing:normal;word-spacing:normal;text-transform:none;direction:ltr;block-progression:tb;writing-mode:lr-tb;text-anchor:start;baseline-shift:baseline;color:#000000;fill:#ffffff;fill-opacity:1;stroke:#000000;stroke-width:2;stroke-miterlimit:4;stroke-dasharray:none;marker:none;visibility:visible;display:inline;overflow:visible;enable-background:accumulate;font-family:Sans;-inkscape-font-specification:Sans"
       d="m 2416.1562,1005.5312 c 28.707,117.394 -25.692,190.9074 -85.5312,262.3438 -29.9196,35.7182 -61.1749,69.753 -82.25,107.7812 -21.0751,38.0283 -31.1199,81.9078 -15.4375,129.4688 24.5102,74.3337 83.8366,123.5957 155.2813,159.4375 71.4446,35.8418 156.186,59.5736 238.0312,83.5625 81.8452,23.9889 160.78,48.3498 219.2188,82.6562 58.4387,34.3065 95.585,75.9248 102.5312,139.875 0.5525,5.0862 -0.4401,8.2638 -3.875,13.2188 -3.4349,4.955 -9.7815,10.8602 -17.9688,16.8438 -16.3745,11.967 -39.2556,23.4972 -57.3437,40.5312 m 27.4375,29.125 c 11.5564,-10.8828 33.5453,-22.7686 53.5312,-37.375 9.993,-7.3032 19.6954,-15.491 27.2188,-26.3438 7.5234,-10.8527 12.3953,-25.1964 10.75,-40.3437 -8.4633,-77.9172 -57.3083,-132.0357 -122.0312,-170.0313 -64.723,-37.9955 -146.1054,-62.495 -228.2188,-86.5624 -82.1134,-24.0675 -164.9881,-47.6175 -231.3438,-80.9063 -66.3556,-33.2888 -115.0421,-75.0278 -135.2187,-136.2187 -12.0236,-36.4649 -5.2925,-65.539 12.4375,-97.5313 17.73,-31.9923 47.3353,-65.0042 77.9062,-101.5 61.142,-72.9916 126.242,-164.531 93.7188,-297.53125"
       id="path3046"
       inkscape:connector-curvature="0"
       sodipodi:nodetypes="csssssssssccsssssssssc" /></g><g
     style="display:inline"
     id="g3840"
     inkscape:groupmode="layer"
     inkscape:label="005"><path
       sodipodi:nodetypes="csssssssssccsssssssssc"
       inkscape:connector-curvature="0"
       id="path3867"
       d="m -51.598803,331.90552 c 59.37952,-5.71825 88.299132,6.63602 112.135079,26.20678 23.835934,19.57076 42.988914,52.00315 60.587724,91.3768 17.59862,39.37356 32.2943,83.97056 59.28537,125.32588 26.9911,41.35523 80.08445,80.91777 142.86703,76.93171 58.95012,-3.74286 107.88064,-34.05506 142.69971,-70.83859 34.81906,-36.78357 59.47359,-79.96627 82.5954,-122.0773 46.2434,-84.22228 88.42874,-160.08547 136.61009,-183.97163 89.78563,-44.51177 241.65014,-87.86633 369.9317,-103.88926 64.1409,-8.0116 123.0392,-9.0833 162.6843,-3.04225 39.6451,6.04102 48.8195,18.50041 47.3957,14.92689 l 113.3002,-45.12411 c -24.1485,-60.612546 -84.4052,-81.526776 -142.3762,-90.360206 -57.9709,-8.83341 -124.8949,-6.29542 -196.1321,2.60241 C 897.51077,67.768514 740.25207,111.46513 631.00856,165.62332 529.2383,216.07632 485.5777,320.22643 441.71913,400.10531 c -21.92937,39.93934 -43.38132,74.85202 -64.29771,96.94867 -20.9165,22.09648 -37.32493,31.42736 -61.89265,32.98725 -19.40761,1.23214 -18.73089,0.0464 -33.03744,-21.87383 C 268.18489,486.24719 252.68232,445.06561 232.43323,399.76244 212.18406,354.45915 185.87785,303.28042 137.87275,263.86537 89.86769,224.45031 20.590407,202.43849 -63.307103,210.51776"
       style="font-size:medium;font-style:normal;font-variant:normal;font-weight:normal;font-stretch:normal;text-indent:0;text-align:start;text-decoration:none;line-height:normal;letter-spacing:normal;word-spacing:normal;text-transform:none;direction:ltr;block-progression:tb;writing-mode:lr-tb;text-anchor:start;baseline-shift:baseline;color:#000000;fill:#ffffff;fill-opacity:1;stroke:#000000;stroke-width:1;stroke-miterlimit:4;stroke-dasharray:none;marker:none;visibility:visible;display:inline;overflow:visible;enable-background:accumulate;font-family:Sans;-inkscape-font-specification:Sans" /><path
       sodipodi:nodetypes="csssssssssccsssssssssc"
       inkscape:connector-curvature="0"
       id="path3869"
       d="m -67.558493,282.16966 c 66.0604097,-1.51821 105.294837,15.07477 136.592485,40.17878 31.297788,25.10402 54.678718,61.58346 76.210748,102.21448 21.53203,40.631 40.05478,84.65189 70.10919,122.69652 30.05443,38.04466 81.07898,69.00469 140.97541,62.80903 53.10725,-5.49336 95.82914,-34.58992 126.24488,-69.66595 30.4159,-35.07611 51.76621,-76.24507 71.85394,-116.74608 40.17545,-81.00188 77.07883,-155.68957 125.43247,-181.14547 89.21597,-46.96843 240.28253,-91.23286 369.14717,-108.01793 64.4323,-8.3926 123.8239,-9.85998 165.1975,-3.83967 41.3736,6.02031 55.6814,19.4298 56.4219,21.24789 l 90.3528,-36.80983 c -21.9298,-53.847216 -76.8754,-72.857986 -132.7456,-80.987786 -55.8703,-8.1297 -121.6925,-5.48457 -191.8537,3.65421 -140.32235,18.27768 -295.9289,62.599896 -401.95346,118.417326 -91.4694,48.15464 -128.87756,146.46766 -167.37913,224.09457 -19.2507,38.8134 -38.33702,73.3418 -58.15762,96.19933 -19.82057,22.85752 -37.13091,33.93856 -62.61426,36.57447 -28.45322,2.94323 -36.35733,-3.41922 -54.41341,-26.27575 C 273.80663,463.91116 255.03031,423.44213 231.41524,378.88069 207.80033,334.31917 178.21611,284.87986 130.05405,246.24891 81.892139,207.61788 15.174317,182.6737 -69.813743,184.62682"
       style="font-size:medium;font-style:normal;font-variant:normal;font-weight:normal;font-stretch:normal;text-indent:0;text-align:start;text-decoration:none;line-height:normal;letter-spacing:normal;word-spacing:normal;text-transform:none;direction:ltr;block-progression:tb;writing-mode:lr-tb;text-anchor:start;baseline-shift:baseline;color:#000000;fill:#000000;fill-opacity:1;stroke:#000000;stroke-width:1;stroke-miterlimit:4;stroke-dasharray:none;marker:none;visibility:visible;display:inline;overflow:visible;enable-background:accumulate;font-family:Sans;-inkscape-font-specification:Sans" /><path
       sodipodi:nodetypes="cssssssssssccssssssssssc"
       inkscape:connector-curvature="0"
       id="path3871"
       d="m -85.775303,264.12382 c 69.00041,1.6565 113.266543,21.35724 148.426433,50.18114 35.159802,28.82392 61.05108,68.51491 84.87305,111.23908 23.82191,42.72409 44.95397,88.07061 75.693,126.20121 30.73888,38.1308 75.74717,68.87601 134.34959,69.98378 101.53919,1.91962 187.45717,-49.29547 261.0985,-119.11072 C 692.30647,432.803 756.48636,343.18338 819.45122,257.77196 882.41603,172.36064 944.35045,91.263134 1007.784,39.142484 c 63.4337,-52.12064 123.3547,-75.62955 197.2849,-57.21515 8.1758,2.0364 12.3404,5.19919 18.1403,13.5239598 5.7998,8.32461 11.506,22.0843702 16.2741,39.0102302 9.5362,33.85179 14.4573,78.325856 31.6595,118.596786 l 67.2906,-28.73934 c -10.6521,-24.936956 -16.7931,-68.007596 -28.5385,-109.701006 -5.8726,-20.8468202 -13.3381,-41.86761 -26.6737,-61.00901 -13.3357,-19.14128 -34.2581,-36.135816 -60.4712,-42.66492 -98.7639,-24.599854 -187.6463,11.039198 -261.42495,71.65977 C 887.54654,43.224424 823.84575,128.47932 760.55266,214.33604 697.25963,300.19264 634.53249,386.75845 568.34249,449.50946 502.15257,512.2606 435.33572,550.01509 358.94271,548.57092 322.66486,547.88505 302.82821,533.91784 280.16605,505.806 257.50374,477.69422 236.68225,435.22562 211.41825,389.91522 186.1543,344.60496 155.78515,296.06292 109.01063,257.7172 62.23595,219.37155 -1.0916133,192.96546 -84.037813,190.97408"
       style="font-size:medium;font-style:normal;font-variant:normal;font-weight:normal;font-stretch:normal;text-indent:0;text-align:start;text-decoration:none;line-height:normal;letter-spacing:normal;word-spacing:normal;text-transform:none;direction:ltr;block-progression:tb;writing-mode:lr-tb;text-anchor:start;baseline-shift:baseline;color:#000000;fill:#ffffff;fill-opacity:1;stroke:#000000;stroke-width:1;stroke-miterlimit:4;stroke-dasharray:none;marker:none;visibility:visible;display:inline;overflow:visible;enable-background:accumulate;font-family:Sans;-inkscape-font-specification:Sans" /><path
       sodipodi:nodetypes="csssssssssccsssssssssc"
       inkscape:connector-curvature="0"
       id="path3873"
       d="M -103.71233,266.97606 C 42.833257,282.44383 104.76956,375.18668 162.0802,473.316 c 28.65527,49.0647 54.82826,98.96799 89.77989,138.83554 34.9518,39.86751 81.16451,69.48988 142.20614,71.1065 95.40281,2.52657 176.38578,-45.24031 246.96366,-112.44817 70.5778,-67.20773 132.73978,-154.66856 194.00302,-238.69974 61.26324,-84.03116 121.75375,-164.56904 185.20889,-217.48476 63.4552,-52.915566 126.5245,-78.381186 202.7723,-59.980506 6.0643,1.46344 9.3015,3.91291 13.5717,9.89808 4.2702,5.98518 8.4307,15.70361 11.9223,27.56672 6.9832,23.725996 10.7832,54.738726 22.8746,82.520766 l 44.7311,-19.47602 c -7.725,-17.74976 -12.3008,-47.88524 -20.8242,-76.844076 -4.2617,-14.47947 -9.6582,-28.99024 -19.0111,-42.09945 -9.3528,-13.10917 -23.8045,-24.61515 -41.8646,-28.97353 -92.9007,-22.41946 -175.1364,11.31646 -245.41515,69.92232 C 918.72004,135.7657 857.06162,219.05523 795.59775,303.36182 734.13377,387.66835 672.94986,473.06195 607.39921,535.48259 541.84864,597.90312 473.88413,636.56224 395.34932,634.48237 348.54884,633.2429 317.95992,613.52875 288.55585,579.98909 259.15179,546.44943 233.4725,498.86148 204.19334,448.72871 145.6351,348.46295 67.424152,236.00628 -98.603113,218.48216"
       style="font-size:medium;font-style:normal;font-variant:normal;font-weight:normal;font-stretch:normal;text-indent:0;text-align:start;text-decoration:none;line-height:normal;letter-spacing:normal;word-spacing:normal;text-transform:none;direction:ltr;block-progression:tb;writing-mode:lr-tb;text-anchor:start;baseline-shift:baseline;color:#000000;fill:#ffffff;fill-opacity:1;stroke:#000000;stroke-width:1;stroke-miterlimit:4;stroke-dasharray:none;marker:none;visibility:visible;display:inline;overflow:visible;enable-background:accumulate;font-family:Sans;-inkscape-font-specification:Sans" /></g></svg>