<?xml version="1.0" encoding="UTF-8" standalone="no"?>
<!-- Created with Inkscape (http://www.inkscape.org/) -->

<svg
   xmlns:dc="http://purl.org/dc/elements/1.1/"
   xmlns:cc="http://creativecommons.org/ns#"
   xmlns:rdf="http://www.w3.org/1999/02/22-rdf-syntax-ns#"
   xmlns:svg="http://www.w3.org/2000/svg"
   xmlns="http://www.w3.org/2000/svg"
   xmlns:sodipodi="http://sodipodi.sourceforge.net/DTD/sodipodi-0.dtd"
   xmlns:inkscape="http://www.inkscape.org/namespaces/inkscape"
   id="svg2"
   version="1.1"
   inkscape:version="0.48.3.1 r9886"
   width="545.66876"
   height="765.35376"
   xml:space="preserve"
   sodipodi:docname="150314_typewriters.svg"><metadata
     id="metadata8"><rdf:RDF><cc:Work
         rdf:about=""><dc:format>image/svg+xml</dc:format><dc:type
           rdf:resource="http://purl.org/dc/dcmitype/StillImage" /><dc:title /></cc:Work></rdf:RDF></metadata><defs
     id="defs6" /><sodipodi:namedview
     pagecolor="#cccccc"
     bordercolor="#666666"
     borderopacity="1"
     objecttolerance="10"
     gridtolerance="10"
     guidetolerance="10"
     inkscape:pageopacity="1"
     inkscape:pageshadow="2"
     inkscape:window-width="640"
     inkscape:window-height="480"
     id="namedview4"
     showgrid="false"
     inkscape:zoom="0.35099246"
     inkscape:cx="752.50486"
     inkscape:cy="280.92951"
     inkscape:current-layer="g3824"
     units="mm"
     guidecolor="#ff0000"
     guideopacity="0.47058824"
     guidehicolor="#00ff00"
     guidehiopacity="1"
     inkscape:snap-global="false"
     showguides="false"
     showborder="false"
     inkscape:showpageshadow="false"><sodipodi:guide
       position="21.259843,754.72441"
       orientation="0,1048.8189"
       id="guide4271" /><sodipodi:guide
       position="1070.0787,754.72441"
       orientation="744.09449,0"
       id="guide4273" /><sodipodi:guide
       position="1070.0787,10.62992"
       orientation="0,-1048.8189"
       id="guide4275" /><sodipodi:guide
       position="21.259843,10.62992"
       orientation="-744.09449,-4.6185278e-14"
       id="guide4277" /><sodipodi:guide
       position="545.669,10.63"
       orientation="-761.31029,0"
       id="guide4301" /><inkscape:grid
       type="xygrid"
       id="grid4326"
       empspacing="5"
       visible="true"
       enabled="true"
       snapvisiblegridlinesonly="true"
       units="mm"
       spacingx="8mm"
       spacingy="8mm"
       originx="10mm" /></sodipodi:namedview><g
     style="display:inline"
     id="refbuild"
     inkscape:groupmode="layer"
     inkscape:label="XX_Referenz"
     sodipodi:insensitive="true"><path
       inkscape:connector-curvature="0"
       style="color:#000000;fill:#ffffff;fill-opacity:1;fill-rule:nonzero;stroke:none;stroke-width:0;marker:none;visibility:visible;display:inline;overflow:visible;enable-background:accumulate"
       d="m 1091.3438,-2.3437505e-7 -21.25,0 -1048.8438,0 -21.25,0 L 0,765.34375 l 21.25,0 524.40625,0 524.43755,0 21.25,0 z"
       id="canvasfull" /><path
       style="color:#000000;fill:#ff00ff;fill-opacity:1;fill-rule:nonzero;stroke:none;stroke-width:0;marker:none;visibility:visible;display:inline;overflow:visible;enable-background:accumulate"
       d="m 0,-4.6223438e-4 21.259843,0 0,765.35433223438 -21.259843,0 z"
       id="outercropleft"
       inkscape:connector-curvature="0" /><path
       style="color:#000000;fill:#ff00ff;fill-opacity:1;fill-rule:nonzero;stroke:none;stroke-width:0;marker:none;visibility:visible;display:inline;overflow:visible;enable-background:accumulate"
       d="m 0,754.72395 545.66929,0 0,10.62992 -545.66929,0 z"
       id="bottomcropleft"
       inkscape:connector-curvature="0"
       sodipodi:nodetypes="ccccc" /><path
       style="color:#000000;fill:#ff00ff;fill-opacity:1;fill-rule:nonzero;stroke:none;stroke-width:0;marker:none;visibility:visible;display:inline;overflow:visible;enable-background:accumulate"
       d="m 0,1.0976562e-4 545.66929,0 0,10.62992023438 -545.66929,0 z"
       id="topcropleft"
       inkscape:connector-curvature="0" /><path
       style="color:#000000;fill:#00ff00;fill-opacity:1;fill-rule:nonzero;stroke:#00ff00;stroke-width:0;stroke-linecap:round;stroke-linejoin:miter;stroke-miterlimit:4;stroke-opacity:1;stroke-dashoffset:0;marker:none;visibility:visible;display:inline;overflow:visible;enable-background:accumulate"
       d="m 0,-4.6323438e-4 10.629921,0 0,765.35433323438 -10.629921,0 z"
       id="outercropbeforeshiftleft"
       inkscape:connector-curvature="0" /><path
       style="color:#000000;fill:none;stroke:#0000ff;stroke-width:1;stroke-linecap:butt;stroke-linejoin:miter;stroke-miterlimit:4;stroke-opacity:1;stroke-dasharray:none;stroke-dashoffset:0;marker:none;visibility:visible;display:inline;overflow:visible;enable-background:accumulate"
       d="m 10.63,-10.00046 -7.9e-5,785.35433"
       id="beforecropleft"
       inkscape:connector-curvature="0"
       sodipodi:nodetypes="cc" /><path
       style="color:#000000;fill:#00ff00;fill-opacity:1;fill-rule:nonzero;stroke:none;stroke-width:0;marker:none;visibility:visible;display:inline;overflow:visible;enable-background:accumulate"
       d="m 1091.3381,-4.6223438e-4 -21.2598,0 0,765.35433223438 21.2598,0 z"
       id="outercropright"
       inkscape:connector-curvature="0" /><path
       style="color:#000000;fill:#00ff00;fill-opacity:1;fill-rule:nonzero;stroke:none;stroke-width:0;marker:none;visibility:visible;display:inline;overflow:visible;enable-background:accumulate"
       d="m 1091.3381,754.72395 -545.66929,0 0,10.62992 545.66929,0 z"
       id="bottomcropright"
       inkscape:connector-curvature="0" /><path
       style="color:#000000;fill:#00ff00;fill-opacity:1;fill-rule:nonzero;stroke:none;stroke-width:0;marker:none;visibility:visible;display:inline;overflow:visible;enable-background:accumulate"
       d="m 1091.3381,1.0976562e-4 -545.66929,0 0,10.62992023438 545.66929,0 z"
       id="topcropright"
       inkscape:connector-curvature="0" /><path
       style="color:#000000;fill:#ff00ff;fill-opacity:1;fill-rule:nonzero;stroke:#00ff00;stroke-width:0;stroke-linecap:round;stroke-linejoin:miter;stroke-miterlimit:4;stroke-opacity:1;stroke-dashoffset:0;marker:none;visibility:visible;display:inline;overflow:visible;enable-background:accumulate"
       d="m 1091.3381,-4.6323438e-4 -10.63,0 0,765.35433323438 10.63,0 z"
       id="outercropbeforeshiftright"
       inkscape:connector-curvature="0" /><path
       style="color:#000000;fill:#00ff00;fill-opacity:1;fill-rule:nonzero;stroke:#0000ff;stroke-width:1;stroke-linecap:butt;stroke-linejoin:miter;stroke-miterlimit:4;stroke-opacity:1;stroke-dasharray:none;stroke-dashoffset:0;marker:none;visibility:visible;display:inline;overflow:visible;enable-background:accumulate"
       d="m 1080.7081,-10.00046 0,785.35433"
       id="beforecropright"
       inkscape:connector-curvature="0"
       sodipodi:nodetypes="cc" /><path
       style="color:#000000;fill:#ffff00;fill-opacity:1;fill-rule:nonzero;stroke:#00ff00;stroke-width:0;stroke-linecap:round;stroke-linejoin:miter;stroke-miterlimit:4;stroke-opacity:1;stroke-dashoffset:0;marker:none;visibility:visible;display:inline;overflow:visible;enable-background:accumulate"
       d="m 556.29876,-4.6023438e-4 -10.63,0 0,765.35433023438 10.63,0 z"
       id="innercropright"
       inkscape:connector-curvature="0" /><path
       style="color:#000000;fill:#ffff00;fill-opacity:1;fill-rule:nonzero;stroke:#00ff00;stroke-width:0;stroke-linecap:round;stroke-linejoin:miter;stroke-miterlimit:4;stroke-opacity:1;stroke-dashoffset:0;marker:none;visibility:visible;display:inline;overflow:visible;enable-background:accumulate"
       d="m 545.66876,-4.6023438e-4 -10.63,0 0,765.35433023438 10.63,0 z"
       id="innercropleft"
       inkscape:connector-curvature="0" /><path
       style="opacity:0.5;color:#000000;fill:#ffffff;fill-opacity:1;stroke:none"
       d="m 21.259843,10.62935 1048.818857,0 0,744.09449 -1048.818857,0 z"
       id="canvasoverlay"
       inkscape:connector-curvature="0"
       sodipodi:nodetypes="ccccc" /><path
       style="fill:none;stroke:#00ff00;stroke-width:1px;stroke-linecap:butt;stroke-linejoin:miter;stroke-opacity:1;display:inline"
       d="m 545.669,771.94051 0,-778.5270405"
       id="centerbuild"
       inkscape:connector-curvature="0" /></g><g
     inkscape:label="XX_PAGE"
     inkscape:groupmode="layer"
     id="refcanvas"
     style="display:inline"
     sodipodi:insensitive="true"><path
       sodipodi:nodetypes="ccccc"
       inkscape:connector-curvature="0"
       id="canvas"
       d="m 21.259843,10.62935 1048.818857,0 0,744.09449 -1048.818857,0 z"
       style="color:#000000;fill:#ffffff;fill-opacity:1;stroke:none;stroke-width:1;marker:none;visibility:visible;display:inline" /><path
       style="fill:none;stroke:#000000;stroke-width:1px;stroke-linecap:butt;stroke-linejoin:miter;stroke-opacity:1;display:inline"
       d="m 545.669,771.94051 0,-778.5270403"
       id="center"
       inkscape:connector-curvature="0" /></g><g
     inkscape:label="001"
     inkscape:groupmode="layer"
     id="content"
     style="display:none"><text
   xml:space="preserve"
   style="font-size:28px;font-style:normal;font-variant:normal;font-weight:normal;font-stretch:normal;text-align:start;line-height:125%;letter-spacing:0px;word-spacing:0px;writing-mode:lr-tb;text-anchor:start;fill:#000000;fill-opacity:1;stroke:none;font-family:Arimo;-inkscape-font-specification:Arimo"
   x="639.67181"
   y="93.6576"
   id="text3007"
   sodipodi:linespacing="125%"><tspan
     sodipodi:role="line"
     id="tspan3009"
     x="639.67181"
     y="93.6576">type writers</tspan></text>


<text
   sodipodi:linespacing="125%"
   id="text3011"
   y="153.65759"
   x="639.67181"
   style="font-size:16px;font-style:italic;font-variant:normal;font-weight:normal;font-stretch:normal;text-align:start;line-height:125%;letter-spacing:0px;word-spacing:0px;writing-mode:lr-tb;text-anchor:start;fill:#000000;fill-opacity:1;stroke:none;font-family:Junicode;-inkscape-font-specification:Junicode Italic"
   xml:space="preserve"><tspan
     y="153.65759"
     x="639.67181"
     id="tspan3013"
     sodipodi:role="line">they call themselves writers</tspan><tspan
     y="173.65759"
     x="639.67181"
     sodipodi:role="line"
     id="tspan3015">because that's what they do.ยน</tspan></text>


<path
   sodipodi:nodetypes="cac"
   inkscape:connector-curvature="0"
   id="path3017"
   d="m 10.63,-80.50209 c 137.1701,0 175.34413,70 267.5195,70 92.17537,0 126.21948,-70 267.5195,-70"
   style="fill:none;stroke:#000000;stroke-width:1px;stroke-linecap:butt;stroke-linejoin:miter;stroke-opacity:1;display:inline" /><path
   style="fill:none;stroke:#000000;stroke-width:1px;stroke-linecap:butt;stroke-linejoin:miter;stroke-opacity:1;display:inline"
   d="m 10.63,819.49788 267.5195,70 267.5195,-70"
   id="path3019"
   inkscape:connector-curvature="0"
   sodipodi:nodetypes="ccc" /><path
   inkscape:connector-curvature="0"
   style="fill:none;stroke:#000000;stroke-width:1;stroke-linecap:butt;stroke-linejoin:miter;stroke-opacity:1;display:inline"
   d="m 10.63,-77.07389 c 136.6476,0 175.69524,69.9999998 267.5195,69.9999998 91.82426,0 126.75771,-69.9999998 267.5195,-69.9999998"
   id="path3187" /><path
   inkscape:connector-curvature="0"
   style="fill:none;stroke:#000000;stroke-width:1;stroke-linecap:butt;stroke-linejoin:miter;stroke-opacity:1;display:inline"
   d="m 10.63,-70.80566 c 135.69226,0 176.33721,69.99999977 267.5195,69.99999977 91.18229,0 127.74182,-69.99999977 267.5195,-69.99999977"
   id="path3189" /><path
   inkscape:connector-curvature="0"
   style="fill:none;stroke:#000000;stroke-width:1;stroke-linecap:butt;stroke-linejoin:miter;stroke-opacity:1;display:inline"
   d="m 10.63,-62.68862 c 134.45513,0 177.16853,69.9999998 267.5195,69.9999998 90.35097,0 129.0162,-69.9999998 267.5195,-69.9999998"
   id="path3191" /><path
   inkscape:connector-curvature="0"
   style="fill:none;stroke:#000000;stroke-width:1;stroke-linecap:butt;stroke-linejoin:miter;stroke-opacity:1;display:inline"
   d="m 10.63,-53.07645 c 132.99013,0 178.15298,70 267.5195,70 89.36652,0 130.52531,-70 267.5195,-70"
   id="path3193" /><path
   inkscape:connector-curvature="0"
   style="fill:none;stroke:#000000;stroke-width:1;stroke-linecap:butt;stroke-linejoin:miter;stroke-opacity:1;display:inline"
   d="m 10.63,-42.1736 c 131.32841,0 179.26962,70 267.5195,70 88.24988,0 132.23705,-70 267.5195,-70"
   id="path3195" /><path
   inkscape:connector-curvature="0"
   style="fill:none;stroke:#000000;stroke-width:1;stroke-linecap:butt;stroke-linejoin:miter;stroke-opacity:1;display:inline"
   d="m 10.63,-30.11798 c 129.491,0 180.50432,70 267.5195,70 87.01518,0 134.12979,-70 267.5195,-70"
   id="path3197" /><path
   inkscape:connector-curvature="0"
   style="fill:none;stroke:#000000;stroke-width:1;stroke-linecap:butt;stroke-linejoin:miter;stroke-opacity:1;display:inline"
   d="m 10.63,-17.01086 c 127.49332,0 181.84672,70 267.5195,70 85.67278,0 136.18761,-70 267.5195,-70"
   id="path3199" /><path
   inkscape:connector-curvature="0"
   style="fill:none;stroke:#000000;stroke-width:1;stroke-linecap:butt;stroke-linejoin:miter;stroke-opacity:1;display:inline"
   d="m 10.63,-2.9306802 c 125.34735,0 183.28877,70.0000002 267.5195,70.0000002 84.23073,0 138.39819,-70.0000002 267.5195,-70.0000002"
   id="path3201" /><path
   inkscape:connector-curvature="0"
   style="fill:none;stroke:#000000;stroke-width:1;stroke-linecap:butt;stroke-linejoin:miter;stroke-opacity:1;display:inline"
   d="m 10.63,12.05943 c 123.06269,0 184.82401,70 267.5195,70 82.69549,0 140.75164,-70 267.5195,-70"
   id="path3203" /><path
   inkscape:connector-curvature="0"
   style="fill:none;stroke:#000000;stroke-width:1;stroke-linecap:butt;stroke-linejoin:miter;stroke-opacity:1;display:inline"
   d="m 10.63,27.90725 c 120.6473,0 186.4471,70 267.5195,70 81.0724,0 143.23975,-70 267.5195,-70"
   id="path3205" /><path
   inkscape:connector-curvature="0"
   style="fill:none;stroke:#000000;stroke-width:1;stroke-linecap:butt;stroke-linejoin:miter;stroke-opacity:1;display:inline"
   d="m 10.63,44.56866 c 118.10791,0 188.15351,70 267.5195,70 79.36599,0 145.85559,-70 267.5195,-70"
   id="path3207" /><path
   inkscape:connector-curvature="0"
   style="fill:none;stroke:#000000;stroke-width:1;stroke-linecap:butt;stroke-linejoin:miter;stroke-opacity:1;display:inline"
   d="m 10.63,62.00569 c 115.45031,0 189.93936,70 267.5195,70 77.58014,0 148.59321,-70 267.5195,-70"
   id="path3209" /><path
   inkscape:connector-curvature="0"
   style="fill:none;stroke:#000000;stroke-width:1;stroke-linecap:butt;stroke-linejoin:miter;stroke-opacity:1;display:inline"
   d="m 10.63,80.18528 c 112.67954,0 191.80126,70 267.5195,70 75.71824,0 151.4474,-70 267.5195,-70"
   id="path3211" /><path
   inkscape:connector-curvature="0"
   style="fill:none;stroke:#000000;stroke-width:1;stroke-linecap:butt;stroke-linejoin:miter;stroke-opacity:1;display:inline"
   d="m 10.63,99.07824 c 109.80004,0 193.73622,70 267.5195,70 73.78328,0 154.4136,-70 267.5195,-70"
   id="path3213" /><path
   inkscape:connector-curvature="0"
   style="fill:none;stroke:#000000;stroke-width:1;stroke-linecap:butt;stroke-linejoin:miter;stroke-opacity:1;display:inline"
   d="m 10.63,118.65859 c 106.81578,0 195.74159,70 267.5195,70 71.77791,0 157.48771,-70 267.5195,-70"
   id="path3215" /><path
   inkscape:connector-curvature="0"
   style="fill:none;stroke:#000000;stroke-width:1;stroke-linecap:butt;stroke-linejoin:miter;stroke-opacity:1;display:inline"
   d="m 10.63,138.90299 c 103.7303,0 197.81496,70 267.5195,70 69.70454,0 160.66608,-70 267.5195,-70"
   id="path3217" /><path
   inkscape:connector-curvature="0"
   style="fill:none;stroke:#000000;stroke-width:1;stroke-linecap:butt;stroke-linejoin:miter;stroke-opacity:1;display:inline"
   d="m 10.63,159.79034 c 100.54684,0 199.95418,70 267.5195,70 67.56532,0 163.9454,-70 267.5195,-70"
   id="path3219" /><path
   inkscape:connector-curvature="0"
   style="fill:none;stroke:#000000;stroke-width:1;stroke-linecap:butt;stroke-linejoin:miter;stroke-opacity:1;display:inline"
   d="m 10.63,181.30142 c 97.26831,0 202.15728,70 267.5195,70 65.36222,0 167.32264,-70 267.5195,-70"
   id="path3221" /><path
   inkscape:connector-curvature="0"
   style="fill:none;stroke:#000000;stroke-width:1;stroke-linecap:butt;stroke-linejoin:miter;stroke-opacity:1;display:inline"
   d="m 10.63,203.41865 c 93.89739,0 204.42246,70 267.5195,70 63.09704,0 170.79504,-70 267.5195,-70"
   id="path3223" /><path
   inkscape:connector-curvature="0"
   style="fill:none;stroke:#000000;stroke-width:1;stroke-linecap:butt;stroke-linejoin:miter;stroke-opacity:1;display:inline"
   d="m 10.63,226.12583 c 90.43656,0 206.74807,70 267.5195,70 60.77143,0 174.36007,-70 267.5195,-70"
   id="path3225" /><path
   inkscape:connector-curvature="0"
   style="fill:none;stroke:#000000;stroke-width:1;stroke-linecap:butt;stroke-linejoin:miter;stroke-opacity:1;display:inline"
   d="m 10.63,249.40804 c 86.888092,0 209.13256,70 267.5195,70 58.38694,0 178.01538,-70 267.5195,-70"
   id="path3227" /><path
   inkscape:connector-curvature="0"
   style="fill:none;stroke:#000000;stroke-width:1;stroke-linecap:butt;stroke-linejoin:miter;stroke-opacity:1;display:inline"
   d="m 10.63,273.2514 c 83.254097,0 211.57453,70 267.5195,70 55.94497,0 181.75879,-70 267.5195,-70"
   id="path3229" /><path
   inkscape:connector-curvature="0"
   style="fill:none;stroke:#000000;stroke-width:1;stroke-linecap:butt;stroke-linejoin:miter;stroke-opacity:1;display:inline"
   d="m 10.63,297.643 c 79.536543,0 214.07265,70 267.5195,70 53.44685,0 185.58827,-70 267.5195,-70"
   id="path3231" /><path
   inkscape:connector-curvature="0"
   style="fill:none;stroke:#000000;stroke-width:1;stroke-linecap:butt;stroke-linejoin:miter;stroke-opacity:1;display:inline"
   d="m 10.63,322.57078 c 75.737269,0 216.62568,70 267.5195,70 50.89382,0 189.50193,-70 267.5195,-70"
   id="path3233" /><path
   inkscape:connector-curvature="0"
   style="fill:none;stroke:#000000;stroke-width:1;stroke-linecap:butt;stroke-linejoin:miter;stroke-opacity:1;display:inline"
   d="m 10.63,348.02346 c 71.857995,0 219.23247,70 267.5195,70 48.28703,0 193.498,-70 267.5195,-70"
   id="path3235" /><path
   inkscape:connector-curvature="0"
   style="fill:none;stroke:#000000;stroke-width:1;stroke-linecap:butt;stroke-linejoin:miter;stroke-opacity:1;display:inline"
   d="m 10.63,373.99042 c 67.900339,0 221.89193,70 267.5195,70 45.62757,0 197.57482,-70 267.5195,-70"
   id="path3237" /><path
   inkscape:connector-curvature="0"
   style="fill:none;stroke:#000000;stroke-width:1;stroke-linecap:butt;stroke-linejoin:miter;stroke-opacity:1;display:inline"
   d="m 10.63,400.46167 c 63.865823,0 224.60303,70 267.5195,70 42.91647,0 201.7308,-70 267.5195,-70"
   id="path3239" /><path
   inkscape:connector-curvature="0"
   style="fill:none;stroke:#000000;stroke-width:1;stroke-linecap:butt;stroke-linejoin:miter;stroke-opacity:1;display:inline"
   d="m 10.63,427.42778 c 59.755884,0 227.36483,70 267.5195,70 40.15467,0 205.96448,-70 267.5195,-70"
   id="path3241" /><path
   inkscape:connector-curvature="0"
   style="fill:none;stroke:#000000;stroke-width:1;stroke-linecap:butt;stroke-linejoin:miter;stroke-opacity:1;display:inline"
   d="m 10.63,454.87984 c 55.571883,0 230.17638,70 267.5195,70 37.34312,0 210.27446,-70 267.5195,-70"
   id="path3243" /><path
   inkscape:connector-curvature="0"
   style="fill:none;stroke:#000000;stroke-width:1;stroke-linecap:butt;stroke-linejoin:miter;stroke-opacity:1;display:inline"
   d="m 10.63,482.80938 c 51.315108,0 233.03685,70 267.5195,70 34.48265,0 214.6594,-70 267.5195,-70"
   id="path3245" /><path
   inkscape:connector-curvature="0"
   style="fill:none;stroke:#000000;stroke-width:1;stroke-linecap:butt;stroke-linejoin:miter;stroke-opacity:1;display:inline"
   d="m 10.63,511.20838 c 46.986782,0 235.94539,70 267.5195,70 31.57411,0 219.11804,-70 267.5195,-70"
   id="path3247" /><path
   inkscape:connector-curvature="0"
   style="fill:none;stroke:#000000;stroke-width:1;stroke-linecap:butt;stroke-linejoin:miter;stroke-opacity:1;display:inline"
   d="m 10.63,540.0692 c 42.588069,0 238.90123,70 267.5195,70 28.61827,0 223.64919,-70 267.5195,-70"
   id="path3249" /><path
   inkscape:connector-curvature="0"
   style="fill:none;stroke:#000000;stroke-width:1;stroke-linecap:butt;stroke-linejoin:miter;stroke-opacity:1;display:inline"
   d="m 10.63,569.38457 c 38.120077,0 241.90362,70 267.5195,70 25.61588,0 228.2517,-70 267.5195,-70"
   id="path3251" /><path
   inkscape:connector-curvature="0"
   style="fill:none;stroke:#000000;stroke-width:1;stroke-linecap:butt;stroke-linejoin:miter;stroke-opacity:1;display:inline"
   d="m 10.63,599.14754 c 33.583866,0 244.95186,70 267.5195,70 22.56764,0 232.92449,-70 267.5195,-70"
   id="path3253" /><path
   inkscape:connector-curvature="0"
   style="fill:none;stroke:#000000;stroke-width:1;stroke-linecap:butt;stroke-linejoin:miter;stroke-opacity:1;display:inline"
   d="m 10.63,629.35149 c 28.980445,0 248.04526,70 267.5195,70 19.47424,0 237.66651,-70 267.5195,-70"
   id="path3255" /><path
   inkscape:connector-curvature="0"
   style="fill:none;stroke:#000000;stroke-width:1;stroke-linecap:butt;stroke-linejoin:miter;stroke-opacity:1;display:inline"
   d="m 10.63,659.99006 c 24.310782,0 251.18318,70.00002 267.5195,70.00002 16.33632,0 242.47677,-70.00002 267.5195,-70.00002"
   id="path3257" /><path
   inkscape:connector-curvature="0"
   style="fill:none;stroke:#000000;stroke-width:1;stroke-linecap:butt;stroke-linejoin:miter;stroke-opacity:1;display:inline"
   d="m 10.63,691.05718 c 19.575804,0 254.36498,70 267.5195,70 13.15452,0 247.35431,-70 267.5195,-70"
   id="path3259" /><path
   inkscape:connector-curvature="0"
   style="fill:none;stroke:#000000;stroke-width:1;stroke-linecap:butt;stroke-linejoin:miter;stroke-opacity:1;display:inline"
   d="m 10.63,722.54698 c 14.7764,0 257.59008,70 267.5195,70 9.92942,0 252.29821,-70 267.5195,-70"
   id="path3261" /><path
   inkscape:connector-curvature="0"
   style="fill:none;stroke:#000000;stroke-width:1;stroke-linecap:butt;stroke-linejoin:miter;stroke-opacity:1;display:inline"
   d="m 10.63,754.45398 c 9.913422,0 260.85789,70 267.5195,70 6.66161,0 257.3076,-70 267.5195,-70"
   id="path3263" /><path
   inkscape:connector-curvature="0"
   style="fill:none;stroke:#000000;stroke-width:1;stroke-linecap:butt;stroke-linejoin:miter;stroke-opacity:1;display:inline"
   d="m 10.63,786.77268 c 4.987693,0 264.16788,70 267.5195,70 3.35162,0 262.38164,-70 267.5195,-70"
   id="path3265" /></g><g
     style="display:inline"
     id="g3824"
     inkscape:groupmode="layer"
     inkscape:label="002">



<path
   id="path3850"
   d="m 10.63,-30.11798 c 129.491,0 180.50432,70 267.5195,70 87.01518,0 134.12979,-70 267.5195,-70"
   style="fill:none;stroke:#000000;stroke-width:1;stroke-linecap:butt;stroke-linejoin:miter;stroke-opacity:1;display:inline"
   inkscape:connector-curvature="0" /><path
   id="path3854"
   d="m 10.63,-2.9306802 c 125.34735,0 183.28877,70.0000002 267.5195,70.0000002 84.23073,0 138.39819,-70.0000002 267.5195,-70.0000002"
   style="fill:none;stroke:#000000;stroke-width:1;stroke-linecap:butt;stroke-linejoin:miter;stroke-opacity:1;display:inline"
   inkscape:connector-curvature="0" /><path
   id="path3858"
   d="m 10.63,27.90725 c 120.6473,0 186.4471,70 267.5195,70 81.0724,0 143.23975,-70 267.5195,-70"
   style="fill:none;stroke:#000000;stroke-width:1;stroke-linecap:butt;stroke-linejoin:miter;stroke-opacity:1;display:inline"
   inkscape:connector-curvature="0" /><path
   id="path3862"
   d="m 10.63,62.00569 c 115.45031,0 189.93936,70 267.5195,70 77.58014,0 148.59321,-70 267.5195,-70"
   style="fill:none;stroke:#000000;stroke-width:1;stroke-linecap:butt;stroke-linejoin:miter;stroke-opacity:1;display:inline"
   inkscape:connector-curvature="0" /><path
   id="path3866"
   d="m 10.63,99.07824 c 109.80004,0 193.73622,70 267.5195,70 73.78328,0 154.4136,-70 267.5195,-70"
   style="fill:none;stroke:#000000;stroke-width:1;stroke-linecap:butt;stroke-linejoin:miter;stroke-opacity:1;display:inline"
   inkscape:connector-curvature="0" /><path
   id="path3870"
   d="m 10.63,138.90299 c 103.7303,0 197.81496,70 267.5195,70 69.70454,0 160.66608,-70 267.5195,-70"
   style="fill:none;stroke:#000000;stroke-width:1;stroke-linecap:butt;stroke-linejoin:miter;stroke-opacity:1;display:inline"
   inkscape:connector-curvature="0" /><path
   id="path3874"
   d="m 10.63,181.30142 c 97.26831,0 202.15728,70 267.5195,70 65.36222,0 167.32264,-70 267.5195,-70"
   style="fill:none;stroke:#000000;stroke-width:1;stroke-linecap:butt;stroke-linejoin:miter;stroke-opacity:1;display:inline"
   inkscape:connector-curvature="0" /><path
   id="path3878"
   d="m 10.63,226.12583 c 90.43656,0 206.74807,70 267.5195,70 60.77143,0 174.36007,-70 267.5195,-70"
   style="fill:none;stroke:#000000;stroke-width:1;stroke-linecap:butt;stroke-linejoin:miter;stroke-opacity:1;display:inline"
   inkscape:connector-curvature="0" /><path
   id="path3882"
   d="m 10.63,273.2514 c 83.254097,0 211.57453,70 267.5195,70 55.94497,0 181.75879,-70 267.5195,-70"
   style="fill:none;stroke:#000000;stroke-width:1;stroke-linecap:butt;stroke-linejoin:miter;stroke-opacity:1;display:inline"
   inkscape:connector-curvature="0" /><path
   id="path3886"
   d="m 10.63,322.57078 c 75.737269,0 216.62568,70 267.5195,70 50.89382,0 189.50193,-70 267.5195,-70"
   style="fill:none;stroke:#000000;stroke-width:1;stroke-linecap:butt;stroke-linejoin:miter;stroke-opacity:1;display:inline"
   inkscape:connector-curvature="0" /><path
   id="path3890"
   d="m 10.63,373.99042 c 67.900339,0 221.89193,70 267.5195,70 45.62757,0 197.57482,-70 267.5195,-70"
   style="fill:none;stroke:#000000;stroke-width:1;stroke-linecap:butt;stroke-linejoin:miter;stroke-opacity:1;display:inline"
   inkscape:connector-curvature="0" /><path
   id="path3894"
   d="m 10.63,427.42778 c 59.755884,0 227.36483,70 267.5195,70 40.15467,0 205.96448,-70 267.5195,-70"
   style="fill:none;stroke:#000000;stroke-width:1;stroke-linecap:butt;stroke-linejoin:miter;stroke-opacity:1;display:inline"
   inkscape:connector-curvature="0" /><path
   id="path3898"
   d="m 10.63,482.80938 c 51.315108,0 233.03685,70 267.5195,70 34.48265,0 214.6594,-70 267.5195,-70"
   style="fill:none;stroke:#000000;stroke-width:1;stroke-linecap:butt;stroke-linejoin:miter;stroke-opacity:1;display:inline"
   inkscape:connector-curvature="0" /><path
   id="path3902"
   d="m 10.63,540.0692 c 42.588069,0 238.90123,70 267.5195,70 28.61827,0 223.64919,-70 267.5195,-70"
   style="fill:none;stroke:#000000;stroke-width:1;stroke-linecap:butt;stroke-linejoin:miter;stroke-opacity:1;display:inline"
   inkscape:connector-curvature="0" /><path
   id="path3906"
   d="m 10.63,599.14754 c 33.583866,0 244.95186,70 267.5195,70 22.56764,0 232.92449,-70 267.5195,-70"
   style="fill:none;stroke:#000000;stroke-width:1;stroke-linecap:butt;stroke-linejoin:miter;stroke-opacity:1;display:inline"
   inkscape:connector-curvature="0" /><path
   id="path3910"
   d="m 10.63,659.99006 c 24.310782,0 251.18318,70.00002 267.5195,70.00002 16.33632,0 242.47677,-70.00002 267.5195,-70.00002"
   style="fill:none;stroke:#000000;stroke-width:1;stroke-linecap:butt;stroke-linejoin:miter;stroke-opacity:1;display:inline"
   inkscape:connector-curvature="0" /><path
   id="path3914"
   d="m 10.63,722.54698 c 14.7764,0 257.59008,70 267.5195,70 9.92942,0 252.29821,-70 267.5195,-70"
   style="fill:none;stroke:#000000;stroke-width:1;stroke-linecap:butt;stroke-linejoin:miter;stroke-opacity:1;display:inline"
   inkscape:connector-curvature="0" /><path
   id="path3918"
   d="m 10.63,786.77268 c 4.987693,0 264.16788,70 267.5195,70 3.35162,0 262.38164,-70 267.5195,-70"
   style="fill:none;stroke:#000000;stroke-width:1;stroke-linecap:butt;stroke-linejoin:miter;stroke-opacity:1;display:inline"
   inkscape:connector-curvature="0" /><path
   sodipodi:nodetypes="cc"
   inkscape:connector-curvature="0"
   id="path3920"
   d="m 546.7821,482.8091 532.9351,0"
   style="fill:none;stroke:#000000;stroke-width:1px;stroke-linecap:square;stroke-linejoin:miter;stroke-opacity:1" /><path
   style="color:#000000;fill:#000000;fill-opacity:1;fill-rule:evenodd;stroke:none;stroke-width:1px;marker:none;visibility:visible;display:inline;overflow:visible;enable-background:accumulate"
   d="m 935.40392,482.8091 c 0,58.70744 -47.59178,106.29922 -106.29922,106.29922 -58.70742,0 -106.29921,-47.59178 -106.29921,-106.29922 z"
   id="path3922"
   inkscape:connector-curvature="0"
   sodipodi:nodetypes="cscc" /><path
   style="fill:none;stroke:#000000;stroke-width:1px;stroke-linecap:square;stroke-linejoin:miter;stroke-opacity:1"
   d="m 546.7821,1172.8091 532.9351,0"
   id="path3929"
   inkscape:connector-curvature="0"
   sodipodi:nodetypes="cc" /><path
   inkscape:connector-curvature="0"
   id="path3931"
   d="m 935.40392,1172.8091 c 0,58.7074 -47.59178,106.2992 -106.29922,106.2992 -58.70742,0 -106.29921,-47.5918 -106.29921,-106.2992 0,-58.7074 47.59179,-106.2992 106.29921,-106.2992 58.70744,0 106.29922,47.5918 106.29922,106.2992 z"
   style="color:#000000;fill:#000000;fill-opacity:1;fill-rule:evenodd;stroke:none;stroke-width:1px;marker:none;visibility:visible;display:inline;overflow:visible;enable-background:accumulate" /><path
   style="color:#000000;fill:#000000;fill-opacity:1;fill-rule:evenodd;stroke:none;stroke-width:1px;marker:none;visibility:visible;display:inline;overflow:visible;enable-background:accumulate"
   d="m 838.70348,182.8091 c 0,5.30126 -4.29752,9.59878 -9.59878,9.59878 -5.30125,0 -9.59877,-4.29752 -9.59877,-9.59878 0,-5.30126 4.29752,-9.59878 9.59877,-9.59878 5.30126,0 9.59878,4.29752 9.59878,9.59878 z"
   id="path3922-9"
   inkscape:connector-curvature="0" /></g></svg>