<?xml version="1.0" encoding="UTF-8" standalone="no"?>
<!-- CLEANED: 1565690319/17bd35e1975381a8519ad195a4639a8f -->

<!-- Created with Inkscape (http://www.inkscape.org/) -->

<svg
   xmlns:dc="http://purl.org/dc/elements/1.1/"
   xmlns:cc="http://creativecommons.org/ns#"
   xmlns:rdf="http://www.w3.org/1999/02/22-rdf-syntax-ns#"
   xmlns:svg="http://www.w3.org/2000/svg"
   xmlns="http://www.w3.org/2000/svg"
   xmlns:sodipodi="http://sodipodi.sourceforge.net/DTD/sodipodi-0.dtd"
   xmlns:inkscape="http://www.inkscape.org/namespaces/inkscape"
   style="display:inline"
   sodipodi:docname="200120_Cyclist.svg"
   inkscape:version="0.48.3.1 r9886"
   version="1.1"
   id="svg2902"
   height="400"
   width="400">
  <sodipodi:namedview
     id="base"
     pagecolor="#f0f0f0"
     bordercolor="#666666"
     borderopacity="1.0"
     inkscape:pageopacity="1"
     inkscape:pageshadow="2"
     inkscape:document-units="px"
     showgrid="false"
     showguides="false"
     inkscape:guide-bbox="true"
     inkscape:snap-bbox="true"
     inkscape:snap-global="false"
     inkscape:zoom="1.130459287"
     inkscape:cx="528.0720239"
     inkscape:cy="198.5115901"
     inkscape:current-layer="layer1">
    <sodipodi:guide
       position="67,370"
       orientation="11,0"
       id="guide5010" />
    <sodipodi:guide
       position="333,370"
       orientation="11,0"
       id="guide5012" />
    <sodipodi:guide
       position="370,333"
       orientation="0,-11"
       id="guide5014" />
    <sodipodi:guide
       position="370,67"
       orientation="0,-11"
       id="guide5016" />
    <sodipodi:guide
       position="67,30"
       orientation="-11,0"
       id="guide5018" />
    <sodipodi:guide
       position="333,30"
       orientation="-11,0"
       id="guide5020" />
    <sodipodi:guide
       position="30,333"
       orientation="0,11"
       id="guide5022" />
    <sodipodi:guide
       position="30,67"
       orientation="0,11"
       id="guide5024" />
  </sodipodi:namedview>
  <defs
     id="defs2904" />
  <metadata
     id="metadata2907">
    <rdf:RDF>
      <cc:Work
         rdf:about="">
        <dc:format>image/svg+xml</dc:format>
        <dc:type
           rdf:resource="http://purl.org/dc/dcmitype/StillImage" />
        <dc:title />
      </cc:Work>
    </rdf:RDF>
  </metadata>
  <g
     inkscape:groupmode="layer"
     id="bg"
     inkscape:label="XX_BG"
     sodipodi:insensitive="true">
    <path
       style="fill:#ffd5e5"
       d="M 400,0 400,400 0,400 0,0 z"
       id="bgrect" />
  </g>
  <g
     inkscape:label="XX_REF"
     inkscape:groupmode="layer"
     id="XX_referenz"
     style="display:inline"
     sodipodi:insensitive="true">
    <path
       style="fill:none;stroke:#000000;stroke-width:1px;stroke-linecap:butt"
       d="m 67,30 0,11"
       id="C-top-1"
       sodipodi:nodetypes="cc"
       inkscape:connector-curvature="0" />
    <path
       style="fill:none;stroke:#000000;stroke-width:1px;stroke-linecap:butt"
       d="m 333,30 0,11"
       id="C-top-4"
       sodipodi:nodetypes="cc"
       inkscape:connector-curvature="0" />
    <path
       style="fill:none;stroke:#000000;stroke-width:1px;stroke-linecap:butt"
       d="m 370,67 -11,0"
       id="C-right-1"
       sodipodi:nodetypes="cc"
       inkscape:connector-curvature="0" />
    <path
       style="fill:none;stroke:#000000;stroke-width:1px;stroke-linecap:butt"
       d="m 370,333 -11,0"
       id="C-right-4"
       sodipodi:nodetypes="cc"
       inkscape:connector-curvature="0" />
    <path
       style="fill:none;stroke:#000000;stroke-width:1px;stroke-linecap:butt"
       d="m 67,370 0,-11"
       id="C-bottom-1"
       sodipodi:nodetypes="cc"
       inkscape:connector-curvature="0" />
    <path
       style="fill:none;stroke:#000000;stroke-width:1px;stroke-linecap:butt"
       d="m 333,370 0,-11"
       id="C-bottom-4"
       sodipodi:nodetypes="cc"
       inkscape:connector-curvature="0" />
    <path
       style="fill:none;stroke:#000000;stroke-width:1px;stroke-linecap:butt"
       d="m 30,67 11,0"
       id="C-left-1"
       sodipodi:nodetypes="cc"
       inkscape:connector-curvature="0" />
    <path
       style="fill:none;stroke:#000000;stroke-width:1px;stroke-linecap:butt"
       d="m 30,333 11,0"
       id="C-left-4"
       sodipodi:nodetypes="cc"
       inkscape:connector-curvature="0" />
  </g>
  <g
     inkscape:groupmode="layer"
     id="layer1"
     inkscape:label="XX_IMPORT">
    <path
       id="15"
       style="fill:#000000;stroke:none"
       d="m 592.5787242,98.6322357 -3.6001059,0.8139756 -3.7448783,3.2248794 -1.3162472,3.5203334 0,2.4995401 1.3162472,3.5247651 2.6487443,2.6384035 3.4494244,1.3147699 3.7463556,-0.2939767 3.3002202,-1.759428 2.2040862,-3.0018118 0.7327257,-2.422722 -0.2880676,-3.6710149 -1.0267023,-2.3488586 -2.6546534,-2.6428352 -2.2676088,-1.0267024 m 9.1861499,16.1584903 -3.0930331,0.276988 -2.5390571,1.7542576 -27.6526395,33.9310352 -9.0944408,22.8976782 -3.6470092,-0.4154821 -4.3394793,-0.5539761 -5.6782549,0.6463055 -8.3558059,3.5546799 -3.6931739,2.7237157 -3.1391978,3.2776918 -2.5852218,3.831668 -2.5852217,6.3245603 -0.8309641,3.5085152 -0.046165,5.5859255 0.6924701,4.524138 2.400563,6.4168897 2.4928924,3.8778325 3.0468685,3.3700212 3.5546799,2.8160451 6.1860662,3.0468685 6.6938777,1.4772696 6.8323717,-0.2769881 6.6015484,-1.9389163 5.8629136,-3.5085152 3.3700211,-3.0930331 2.8160451,-3.6008446 2.2159044,-4.0163266 1.4772695,-4.3394793 0.6924701,-4.4779734 0,-4.6164673 -0.7847994,-4.4779734 -1.4772696,-4.3394793 -2.2159043,-4.0163266 -2.8622098,-3.5085152 -3.3700212,-3.0930332 -1.8927516,-1.3387755 -1.985081,-1.1541169 3.0007038,-7.4786771 20.8664326,27.2371575 1.6619282,9.4637581 2.3082337,0.7386348 6.509219,-2.6775511 5.5397608,0 1.5234343,6.6938777 1.9850809,4.108656 4.0163267,5.4474315 5.4012668,4.2471499 6.1399016,2.8622098 6.786207,1.2464462 4.5241381,-0.138494 6.6015483,-1.5695989 4.108656,-1.985081 3.7855032,-2.5390571 3.2776918,-3.1391978 2.6313864,-3.6931739 2.123575,-4.0163266 1.8004223,-6.6015483 0.1846587,-4.5703027 -1.6619283,-8.9097821 -3.1391978,-6.0937369 -4.5703027,-5.0319494 -5.6320902,-3.8316679 -5.5397608,-2.123575 -5.4474315,-0.7847995 -6.8323717,0.5078114 -4.2933147,1.1541169 -6.5553836,-12.9261087 6.5553836,-4.5703027 0.6463055,-1.0617875 0.8771288,-3.7855032 -1.0156229,-3.6470092 -18.4658695,-32.3152716 -2.7698804,-1.2926109 z m -5.6782548,18.1427168 9.048276,16.1114711 -11.6796625,10.4332163 -22.1128787,0 1.708093,-4.24715 23.0361722,-22.2975374 z m -23.1285016,32.4999303 14.4957076,0 -2.1697397,2.3543983 -0.4154821,0.8771288 -0.2308233,2.9545391 1.8927516,11.5873332 -13.5724141,-17.7733994 z m 33.8387059,1.5234342 -8.5866294,17.9118934 -0.553976,-12.4644619 9.1406054,-5.4474315 z m 6.0014075,1.3387755 4.385644,8.7251234 -3.5546798,2.7237157 -3.0468685,3.3238565 -2.4928924,3.6470093 -1.8465869,4.0624912 -1.2464462,4.3394794 -0.2769881,2.1697396 -5.8167489,0 13.8955668,-28.9914151 z m -63.6149204,10.479381 6.0014076,0 1.985081,0.4616467 -8.0788179,20.1739624 0.138494,2.2159044 1.0617875,1.1079521 2.3543984,0.3693174 2.0312456,-1.6157636 7.9403239,-20.0354683 3.3238565,2.262069 2.7698804,2.7698804 2.262069,3.4161858 2.0774104,5.5397609 0.3693174,1.985081 0,5.9552429 -0.9694582,3.8778326 -2.7237157,5.3551021 -2.5390571,3.0468685 -4.8472907,3.5546799 -3.6931739,1.5695989 -5.8629136,1.0156228 -3.9701619,-0.2308234 -2.8160451,-0.6001407 -6.4168897,-2.9545392 -4.3394793,-4.1548206 -2.3082337,-3.2776918 -1.5234342,-3.6931739 -0.8771288,-3.8778326 0.046165,-6.0014076 0.9694582,-3.8778326 1.6157636,-3.6008445 3.6931739,-4.8011261 1.4311048,-1.2926109 5.1704435,-3.0930331 5.7244195,-1.5695989 z m 79.8187209,0 6.0475723,0 3.8778326,0.9232934 3.6470092,1.6157636 1.7080929,1.0156229 4.385644,4.0163266 2.3082337,3.3238565 1.6157636,3.6470092 0.9232935,3.8778326 0.1846587,1.985081 -0.1846587,3.9701619 -0.8771288,3.9239973 -1.6157636,3.6470092 -3.6008446,4.7549614 -4.7549614,3.6008445 -5.5859255,2.2159044 -3.9701619,0.5078114 -4.0163266,-0.138494 -3.9239973,-0.9694582 -6.1860663,-2.9545391 -3.5546799,-3.7393386 -3.1391978,-5.0319494 -1.6157636,-5.8167489 21.4204087,0 1.8465869,-0.6463054 1.0156228,-1.708093 0,-1.2926108 -9.8330755,-19.7584804 3.8778326,-0.9694581 z m -9.1867701,3.6008445 0.046165,0 7.4786772,14.9111896 -16.6654473,0 0.6924702,-2.9083744 0.9232934,-2.8622098 0.8771288,-1.8004223 2.262069,-3.2776918 2.7698805,-2.8622098 1.6157635,-1.2002815 z"
       inkscape:connector-curvature="0" />
    <path
       style="fill:#000000;fill-rule:evenodd;stroke:none"
       d="m 605.375,240.0625 -2.6875,0.1875 -0.875,0.28125 -1.625,0.84375 -0.71875,0.53125 -1.09375,1.40625 -0.4375,1.25 0,1.34375 0.40625,2.03125 0.34375,1.40625 0.0625,0.875 -0.15625,1.28125 0.09375,0.59375 0.375,0.9375 0.4375,1.25 0.46875,1.84375 0.15625,0.875 0.46875,0.84375 2.0625,0.15625 1.0625,0.34375 1.34375,1 0.5625,1.0625 -0.15625,1.1875 -3.90625,6 -5.1875,10.4375 -7.1875,2.875 -4.15625,1.1875 -6.78125,1.3125 -1.34375,0.4375 -1.21875,0.65625 -1.125,0.84375 -0.96875,0.9375 -1.65625,-0.03125 -0.8125,0.03125 -0.84375,0.1875 -0.71875,0.375 -0.6875,0.53125 -0.46875,0.65625 -0.375,0.75 -0.25,1.28125 0.1875,1.1875 0.5,1.03125 1.03125,0.9375 0.75,0.375 -1.21875,3.4375 -0.4375,-0.1875 -7.0625,19.15625 -2.0625,-0.71875 -2.0625,-0.59375 -2.15625,-0.375 -2.1875,-0.21875 -2.15625,-0.03125 -2.15625,0.15625 -2.15625,0.28125 -2.09375,0.59375 0.34375,1.40625 -3.03125,1.0625 -2.03125,0.96875 -2,1.125 -1.84375,1.28125 -1.6875,1.46875 -1.59375,1.625 -1.5,1.6875 -1.28125,1.875 -1.125,1.9375 -0.96875,2.0625 -0.78125,2.125 -0.59375,2.1875 -0.375,2.25 -0.21875,2.21875 -0.03125,2.28125 0.1875,2.25 0.4375,2.21875 0.5625,2.1875 0.75,2.125 0.9375,2.0625 1.15625,1.96875 1.28125,1.84375 1.4375,1.75 1.59375,1.625 1.6875,1.5 1.875,1.28125 1.9375,1.125 2.03125,1 2.125,0.78125 2.1875,0.625 2.25,0.40625 2.25,0.1875 2.25,0.03125 2.25,-0.1875 2.21875,-0.375 2.21875,-0.53125 2.125,-0.75 2.0625,-0.96875 1.96875,-1.09375 1.875,-1.28125 1.75,-1.4375 1.625,-1.59375 1.46875,-1.6875 1.34375,-1.84375 1.15625,-1.96875 0.96875,-2.03125 1.34375,0.4375 0.75,-2.09375 0.65625,-2.125 0.40625,-2.25 0.28125,-2.21875 0.03125,-2.25 -0.125,-2.25 -0.28125,-2.21875 -0.46875,-2.21875 -0.6875,-2.125 -0.8125,-2.09375 -1,-2 -1.15625,-1.9375 -1.3125,-1.875 -1.46875,-1.6875 -1.59375,-1.59375 -1.71875,-1.4375 -1.8125,-1.34375 -2,-1.15625 0.84375,-1.96875 22.5,18.75 -0.15625,1.125 -0.40625,1.09375 -0.53125,1 -0.75,0.90625 -0.875,0.75 -0.96875,0.59375 -3.46875,0.625 -0.3125,2.78125 2.78125,0.40625 -0.03125,1.125 4.65625,0.59375 0.40625,-1.59375 1.9375,-0.25 0.34375,1.1875 0.53125,1.09375 0.6875,1.03125 0.8125,0.90625 0.9375,0.78125 1.03125,0.65625 1.09375,0.5 1.5,0.5 0.84375,0.03125 1.21875,0 1.1875,-0.15625 1.1875,-0.34375 1.125,-0.5 1.03125,-0.6875 0.96875,-0.75 0.78125,-0.90625 0.6875,-1.03125 0.53125,-1.09375 0.375,-1.1875 2.53125,0 0.28125,2.28125 0.4375,2.25 0.6875,2.15625 0.8125,2.125 1.03125,2.03125 1.21875,1.9375 1.375,1.8125 1.5,1.71875 1.6875,1.5625 1.78125,1.40625 1.875,1.28125 2,1.0625 2.125,0.90625 2.1875,0.65625 2.21875,0.53125 2.25,0.34375 2.28125,0.125 2.25,-0.09375 2.28125,-0.25 2.21875,-0.5 2.21875,-0.625 2.125,-0.875 2,-1.03125 1.9375,-1.21875 1.8125,-1.34375 1.71875,-1.53125 1.5625,-1.65625 1.375,-1.78125 1.25,-1.9375 1.0625,-2 0.90625,-2.09375 0.71875,-2.1875 0.5,-2.21875 0.34375,-2.25 0.125,-2.34375 1.34375,0.0625 -0.125,-2.28125 -0.3125,-2.25 -0.46875,-2.21875 -0.6875,-2.15625 -0.8125,-2.125 -1.03125,-2.0625 -1.15625,-1.90625 -1.34375,-1.875 -1.46875,-1.75 -1.625,-1.59375 -1.75,-1.4375 -1.875,-1.3125 -1.96875,-1.1875 -2.03125,-0.96875 -2.125,-0.84375 -2.15625,-0.625 -2.25,-0.46875 -2.25,-0.3125 -2.3125,-0.0625 -2.25,0.0625 -2.21875,0.28125 -2.25,0.5 -2.1875,0.625 -2.125,0.8125 -5.875,-10.78125 1.15625,-0.875 1.78125,-0.0625 1.75,-0.15625 1.25,-0.3125 1.96875,-0.59375 1.1875,-0.84375 0.78125,-1.625 0.1875,-1.0625 0.28125,-2.21875 0.28125,-2.28125 0,-1.78125 -0.125,-3.125 -0.34375,-2.40625 -1,-4.09375 -1.375,-3.1875 -0.90625,-1.4375 -0.75,-1.5 -0.75,-2.5625 -0.53125,-2.6875 -0.875,-3.84375 -0.5625,-1.625 -0.84375,-1.5625 -1.0625,-1.40625 -1.84375,-1.84375 -1.84375,-1.5625 -1.6875,-1.75 -1.03125,-0.875 -1.125,-0.75 -0.5625,-0.625 -0.34375,-0.71875 -0.21875,-0.8125 -0.09375,-1.03125 0.15625,-1.09375 0.40625,-1.1875 0.46875,-1.5 0.15625,-0.90625 0.09375,-1.25 -0.03125,-1.25 -0.1875,-1.21875 -0.3125,-1.21875 -0.4375,-1.0625 -1.40625,-1.78125 -0.875,-0.71875 -0.96875,-0.5 -1.40625,-0.40625 -1.6875,-0.40625 z m 1.125,38.09375 1.53125,3.71875 1.65625,3.46875 1.28125,3.1875 0.4375,1.3125 -0.4375,0.875 -0.5625,0.40625 -1.9375,1.5 -3.09375,2.21875 -1.78125,1.21875 -4.125,3.34375 -2,1.96875 -1.65625,1.875 -25.875,-0.03125 1.75,-5 -0.5,-0.15625 2.25,-6.34375 -0.4375,-0.0625 0.125,-0.53125 -1.53125,-0.4375 -0.25,0.5625 -0.5,-0.46875 -0.1875,-0.5625 0.3125,-1 0.4375,-0.28125 0.71875,-0.15625 0.78125,0.15625 0.28125,0.46875 0.65625,0.9375 1,0.75 1.28125,0.5 1.96875,0.40625 1.0625,-0.15625 0.59375,-0.5625 0.3125,-0.5 1.25,0.28125 0.71875,-2.40625 -1.375,-0.40625 0.03125,-0.65625 1.28125,-0.625 0.46875,0.1875 0.78125,1.40625 11.625,-2.09375 2.03125,-0.5625 1.21875,-0.5625 4.0625,-2.96875 4.34375,-4.21875 z m -38.15625,29.25 26.09375,0 0.71875,1.4375 -0.8125,0.8125 -0.625,0.84375 -0.5625,0.9375 -0.4375,0.875 -0.25,0.9375 L 589,329.71875 566.9375,311.3125 l 1.40625,-3.90625 z m 41,0 2.5,0.375 -1.9375,5.3125 -3.03125,-4 2.46875,-1.6875 z M 601.25,317.875 l 4.78125,5.8125 -3.75,10.375 -2,-0.59375 -1.5625,-0.15625 -1.5,0.09375 L 601.25,317.875 z m 34.40625,3.15625 2.03125,0.09375 1.96875,0.25 1.96875,0.4375 1.9375,0.65625 1.8125,0.875 1.75,0.96875 1.625,1.21875 1.53125,1.34375 1.40625,1.46875 1.1875,1.59375 1.0625,1.75 0.875,1.8125 0.71875,1.875 0.5,1.9375 0.3125,2 0.125,2.21875 -0.09375,1.84375 -0.28125,1.96875 -0.46875,1.96875 -0.65625,1.9375 -0.84375,1.84375 -1.0625,1.71875 -1.15625,1.625 -1.34375,1.53125 -1.5,1.34375 -1.59375,1.21875 -1.75,1.0625 -1.8125,0.875 -1.90625,0.6875 -1.96875,0.5 -1.96875,0.3125 -2.125,0.09375 L 634,362 l -2,-0.3125 -1.9375,-0.5 -1.9375,-0.625 -1.8125,-0.875 -1.75,-1.03125 -1.625,-1.21875 -1.46875,-1.34375 -1.375,-1.5 -1.1875,-1.625 -1.0625,-1.75 L 617,349.40625 616.3125,347.5 l -0.84375,-3.96875 16.6875,0 0.53125,0.75 0.65625,0.625 0.78125,0.4375 0.875,0.28125 0.75,0.0625 1.03125,-0.15625 0.84375,-0.3125 0.75,-0.5 0.59375,-0.65625 0.46875,-0.78125 0.3125,-0.84375 0.0625,-0.84375 -0.125,-0.9375 -0.28125,-0.875 -0.5,-0.75 -0.65625,-0.625 -0.78125,-0.46875 -0.84375,-0.3125 -0.875,-0.0625 -7.90625,-14.75 1.84375,-0.84375 1.9375,-0.5 2,-0.3125 2.03125,-0.125 z m -84.25,0.03125 2.21875,0.15625 1.96875,0.3125 1.9375,0.46875 1.9375,0.78125 -1.21875,3.0625 -2.65625,6.09375 -3.09375,6 -0.84375,0 -0.78125,0.15625 -0.8125,0.34375 -0.625,0.53125 -0.53125,0.625 -0.375,0.75 -0.21875,0.8125 -0.0625,0.53125 0.1875,1.125 0.34375,0.75 0.53125,0.6875 0.625,0.53125 0.75,0.4375 0.84375,0.1875 0.8125,0 0.8125,-0.125 0.78125,-0.34375 0.6875,-0.5 0.53125,-0.625 0.375,-0.78125 0.21875,-0.78125 0.03125,-0.84375 -0.125,-0.84375 -0.34375,-0.78125 -0.5,-0.6875 0.0625,-0.0625 2.59375,-4.5625 2.21875,-4.21875 2.90625,-5.875 1.59375,1.1875 1.5,1.34375 1.375,1.46875 1.1875,1.59375 1.0625,1.75 0.875,1.78125 0.6875,1.875 0.53125,1.9375 0.3125,2 0.09375,2.03125 -0.0625,2 -0.3125,1.96875 -0.4375,1.96875 -0.6875,1.90625 -0.84375,1.8125 -1,1.75 -1.21875,1.625 -1.34375,1.46875 -1.46875,1.375 -1.625,1.21875 -1.71875,1 -1.8125,0.875 -1.90625,0.6875 -1.9375,0.5 -2,0.28125 -2.03125,0.125 -1.96875,-0.125 -1.96875,-0.25 -1.96875,-0.5 -1.90625,-0.6875 -1.8125,-0.875 -1.71875,-1 -1.625,-1.21875 -1.46875,-1.375 -1.375,-1.46875 -1.15625,-1.625 -1.0625,-1.71875 -0.84375,-1.8125 -0.6875,-1.90625 -0.46875,-1.9375 -0.28125,-2 -0.125,-1.90625 0.125,-2.09375 0.3125,-2 0.5,-1.9375 0.6875,-1.90625 0.875,-1.8125 1.03125,-1.6875 1.21875,-1.65625 1.34375,-1.46875 1.53125,-1.3125 1.625,-1.1875 1.71875,-1.03125 1.8125,-0.8125 1.9375,-0.6875 1.9375,-0.46875 2,-0.28125 1.78125,-0.09375 z m 72.75,3.71875 8.0625,14.84375 -16.78125,0 0.34375,-2.1875 0.65625,-2.15625 0.78125,-2.125 3.03125,-2 -0.53125,-2.21875 L 621,327.375 622.53125,326 l 1.625,-1.21875 z m -14.96875,2.625 0.25,0.90625 0.09375,1 -0.09375,0.96875 -0.21875,0.9375 -0.375,0.90625 -0.5625,0.8125 -0.65625,0.71875 -0.9375,0.6875 2.5,-6.9375 z"
       id="4"
       inkscape:connector-curvature="0" />
    <path
       style="fill:#ff0000;stroke:none"
       d="m 572.3337729,287.0087124 -1.1986115,0.1933244 -0.8506275,0.2706542 -0.9279572,0.5026436 -0.5413084,0.5413084 -0.4253138,0.6959679 -0.2706542,0.695968 -0.1159946,0.7732977 0,0.8119626 0.1933244,0.7732977 0.347984,0.695968 0.4639786,0.657303 0.5799733,0.5026435 0.6573031,0.4253138 -1.2759413,3.6344993 -0.4639786,-0.1933244 -6.0703871,17.979172 -2.3198932,-0.8119626 -4.2918024,-0.8119626 -3.5571695,-0.2706542 -4.2918024,0.1159947 0.1159947,1.1212817 -4.0211482,0.9279572 -3.8278237,1.5465955 -3.5185046,2.1652336 -3.1705207,2.6678771 -2.6678771,3.0931909 -2.1652337,3.5185047 -1.5852603,3.7891588 -1.005287,3.9824833 -0.347984,4.1371428 0.3093191,4.0984779 0.9666221,4.0211482 1.5465955,3.7891588 2.1265687,3.5571696 1.2759413,1.6239252 3.5571695,3.5185046 4.4851268,2.8612016 2.4745527,1.1986115 5.3357543,1.353271 4.6784512,0.3479839 5.5677436,-0.6959679 3.9051535,-1.2759413 3.7118291,-1.8559145 3.3251802,-2.3972229 2.9385313,-2.8998665 2.397223,-3.3251802 1.8945794,-3.6731642 1.1599466,0.3866489 1.2759412,-3.9824833 0.6573031,-4.1758077 0.038665,-4.1758077 -0.6186382,-4.1371428 -1.2759412,-4.0211482 -1.8172497,-3.7891588 -2.3972229,-3.4411749 -2.8998665,-3.0158611 -2.8225367,-2.2425634 -2.3198932,-1.4306008 1.2372764,-3.5571695 24.5522027,27.1427501 -0.8892924,1.8945794 -0.3093191,3.1705206 0.5413084,2.049239 1.0826169,1.8172497 2.4358878,2.0492389 3.054526,0.8119626 1.0439519,0 1.1986115,4.4464619 -1.8945794,0 0,2.7065421 6.9596795,0 -0.038665,-2.6678772 -2.4358878,0 -1.4306008,-5.1037649 1.8559145,-1.2759413 1.4306008,-1.701255 0.9279573,-1.5079305 0.309319,-1.6239253 4.8717757,-0.4253137 0.9666221,3.9824833 1.5852604,3.7891588 2.2038985,3.5185047 2.6678771,3.1318557 3.1705207,2.6678772 3.5185046,2.1652336 3.8278238,1.5465954 6.0317222,1.2372764 4.1371428,0 4.098478,-0.6186382 3.9051535,-1.2372763 3.711829,-1.8559146 3.3251802,-2.4358878 2.9385314,-2.8612016 2.4745527,-3.3251802 1.8945794,-3.6731642 1.3146061,-3.9051535 0.695968,-4.059813 0.07733,-4.1371428 1.005287,-0.07733 -0.2706542,-2.1265687 -1.0439519,-4.1371429 -1.6625901,-3.9438183 -2.2425634,-3.6731642 -2.7838718,-3.2478505 -3.2478505,-2.7452069 -3.6731642,-2.2425634 -3.9438183,-1.6625901 -4.1758077,-1.005287 -4.2531375,-0.3866489 -4.2531375,0.3093191 -4.2144726,0.9666222 -3.9438184,1.5852603 -6.4957008,-11.4448063 0.6959679,-1.4692657 -0.3866488,-0.1933244 0.8119626,-1.8172496 0.8506275,-0.038665 0.7732977,-0.1546596 0.7732977,-0.3093191 0.695968,-0.4253137 0.6186381,-0.5413084 3.750494,-4.755781 0.2319893,-0.8506275 -0.07733,-0.4253138 -0.5413084,-0.7346328 -0.8506275,-0.2706542 -3.2865153,1.005287 -3.2865153,0.5413084 -1.6625901,0.038665 -4.4464619,-0.5799733 -1.1599466,-0.07733 -1.1212817,0.07733 -0.8119626,0.4253138 -0.07733,1.2759412 1.9719092,1.7399199 3.5958344,2.3198932 1.9332443,0.9666221 -0.6959679,1.5079306 -0.347984,-0.1546596 -0.2319893,0.4253138 -44.4646191,0 1.353271,-4.0984779 -0.4639786,-0.1159947 2.0879039,-5.7224031 -0.4639787,-0.1933245 0.1546596,-0.3866488 -1.043952,-0.4253138 -0.1933244,0.3866489 -0.5799733,-0.2706542 -0.347984,-0.3093191 -0.2706542,-0.8506275 0.038665,-0.4639786 0.1546596,-0.3866489 0.3093191,-0.347984 0.4639786,-0.2319893 0.6186382,-0.2706542 1.0439519,-0.1546595 8.7382643,0.9279572 0.4639786,-2.4358878 -4.5237917,-0.5799733 -4.6397863,-0.2319893 -0.9279573,-0.038665 z m -3.2478504,19.5257675 44.2712946,0 -14.5379972,31.4345524 -2.2425634,-0.1159946 -1.2372763,-4.7944459 2.2038985,0 0,-2.7838718 -6.80502,0 0,2.7838718 2.1265688,0 1.4306007,5.3744192 -0.7346328,0.3479839 -25.7894791,-28.3413615 1.3146062,-3.9051535 z m 46.5911878,2.3198932 5.5290787,9.5502268 -1.6625901,1.1986115 -1.5852603,1.2759413 -1.5079306,1.3919359 -1.353271,1.5079305 -1.2759413,1.6239252 -1.1599465,1.701255 -1.0052871,1.7399199 -0.8892924,1.8559145 -0.7346328,1.8945795 -0.6186382,1.9719092 -0.4639786,1.9719091 -0.3093191,2.0105741 -0.1933244,2.049239 0,2.049239 -3.9051535,0.4639786 -0.8119626,-1.8172497 -0.5799733,-0.8119626 -0.695968,-0.6959679 -0.7732977,-0.6186382 13.9966888,-30.3132707 z m -64.3383706,11.0194925 1.8559146,0.038665 1.8559145,0.1933244 1.8559145,0.347984 1.8172497,0.5413084 1.7399199,0.6573031 -2.9385314,8.7769291 -0.5026435,1.353271 -0.6573031,1.3532711 -0.7346328,1.2759412 -0.9279573,1.1599466 -0.9666221,1.1212817 -1.0826168,1.005287 -0.695968,-0.07733 -0.7346328,0.07733 -0.6573031,0.1546596 -1.1986115,0.8119626 -0.7732977,1.1986115 -0.2706542,1.3919359 0.3093191,1.3919359 0.8119626,1.1986114 1.1986115,0.7346329 1.3919359,0.2319893 1.3919359,-0.3093191 1.1599466,-0.8506275 0.7346328,-1.1986115 0.2319893,-1.4306008 -0.3479839,-1.3919359 -0.3866489,-0.5799733 2.8998665,-4.2531374 1.6625901,-2.7838718 1.4306007,-2.8998665 2.3585581,-6.0317222 1.5465954,1.0826168 1.4692657,1.1599466 1.3146061,1.3146061 1.2372764,1.4306008 1.0826168,1.5079305 0.9279573,1.6239253 0.8119626,1.7012549 0.6573031,1.7399199 0.5026435,1.8172497 0.3479839,1.8172496 0.1546596,1.8945794 0.038665,1.8559146 -0.1933245,1.8559145 -0.2706542,1.8559145 -0.5026435,1.8172497 -0.6186382,1.7785848 -0.7732977,1.7012549 -0.9666221,1.6239253 -1.043952,1.5079305 -1.2372763,1.4692657 -1.3146061,1.3146061 -1.4306008,1.1986115 -1.5079306,1.0826168 -1.6625901,0.9279573 -1.6625901,0.8119626 -1.7785848,0.6186382 -1.8172496,0.5026435 -1.8172497,0.3093191 -1.8945794,0.1546595 -2.4745527,0 -1.2372763,-0.1546595 -1.8559146,-0.347984 -1.8172496,-0.5026435 -1.7785848,-0.6186382 -1.6625901,-0.8119626 -1.6239252,-0.9279573 -1.5465955,-1.1212817 -1.4306007,-1.1986114 -1.3146062,-1.3146062 -1.3146061,-1.6625901 -0.9279573,-1.3146061 -0.9279572,-1.6239252 -0.7732978,-1.701255 -0.6186381,-1.7785848 -0.4639787,-1.8172496 -0.3093191,-1.8559146 -0.1546595,-1.8559145 0,-1.8945794 0.1933244,-1.8559146 0.347984,-1.8559145 0.5026435,-1.7785847 0.6573031,-1.7399199 0.8119626,-1.701255 0.9666221,-1.6239252 1.0826169,-1.5079306 1.2372763,-1.4306008 1.3146061,-1.3146061 1.4692657,-1.1599466 1.5465955,-1.0439519 1.6239252,-0.8892924 1.7399199,-0.7732977 1.7399198,-0.6186382 2.2425634,-0.5799733 3.3251802,-0.3093191 z m 84.2121221,0.3093191 1.8945794,0.038665 1.8559145,0.2319893 1.8172497,0.347984 1.8172496,0.5413084 1.7399199,0.6959679 1.701255,0.8506275 1.5852603,0.9666222 1.5079306,1.1212817 1.3919359,1.2372763 1.2759412,1.3919359 1.1986115,1.4692657 1.005287,1.5852604 0.8892924,1.6625901 0.7346328,1.7399198 0.5799733,1.7399199 0.4253138,1.8559145 0.2319893,1.8559146 0.1159946,1.8559145 -0.038665,1.8945794 -0.2319894,1.8559146 -0.4253137,1.8172496 -0.5413084,1.8172497 -0.695968,1.7399198 -0.8892923,1.6625901 -0.9666222,1.5852604 -1.1599466,1.5079305 -1.2372763,1.3919359 -1.3919359,1.2759413 -1.4692657,1.1599466 -1.6239252,1.005287 -1.6239252,0.8506275 -1.7399199,0.7346328 -1.8172497,0.5799733 -1.8172496,0.3866489 -1.6625901,0.2706542 -2.0879039,0.038665 -1.8945794,-0.038665 -1.8559145,-0.2706542 -1.8172497,-0.3866489 -2.0105741,-0.5799733 -1.7012549,-0.8119626 -1.4692657,-0.7732977 -1.5852604,-1.0439519 -1.5079305,-1.1212817 -1.3919359,-1.2759413 -1.2372764,-1.3919359 -1.1212817,-1.5079305 -1.005287,-1.5852604 -0.8506275,-1.6625901 -0.7346328,-1.7399198 -0.5413084,-1.8172497 -0.3866489,-1.8172496 16.9352201,-1.701255 0.4639787,0.7732977 0.5799732,0.6186382 0.9666222,0.657303 1.3919359,0.5026436 0.8506275,0.07733 0.8892924,-0.1159946 0.8119626,-0.2706542 0.7732977,-0.4639787 0.6573031,-0.5413084 0.5413084,-0.6959679 0.3866488,-0.8119626 0.2319894,-0.8506275 0.07733,-0.8506275 -0.1159946,-0.8892924 -0.2706542,-0.8506275 -0.4253138,-0.7346328 -0.6186382,-0.6573031 -0.657303,-0.5413084 -0.8119626,-0.4253137 -0.8119626,-0.2319894 -0.8892924,-0.038665 -0.8892924,0.07733 -8.3516154,-14.8086514 1.701255,-0.7732977 1.7785847,-0.5799733 1.8172497,-0.4253137 2.1652336,-0.3093191 1.5852604,-0.07733 z m -11.3288117,3.4411749 8.506275,14.7313216 -0.5799733,0.6186382 -0.4253138,0.6959679 -0.2706542,0.8119626 -16.973885,1.6239252 0,-1.8172496 0.1933244,-1.7785848 0.347984,-1.8172496 0.5026435,-1.7399199 0.6573031,-1.701255 0.7732977,-1.6625901 0.8892924,-1.5465954 1.0826168,-1.5079306 1.1599466,-1.3919359 1.2759412,-1.2759412 1.3919359,-1.1599466 1.4692657,-1.0826168 z"
       id="5"
       inkscape:connector-curvature="0" />
    <path
       id="path7435"
       style="fill:#ff0000;fill-opacity:1;fill-rule:nonzero;stroke:none"
       d="m 641.3181797,222.2575898 c -11.1149199,2.8741497 -22.4562299,-3.816787 -25.3238364,-14.9299621 l 21.425043,0 c 0.3699012,0 0.7275887,-0.066303 1.0634659,-0.2215917 1.3068679,-0.5862585 1.8979246,-2.1282405 1.3068679,-3.4333635 l -9.5864603,-21.4660463 c 0.2368589,-0.068048 0.4789522,-0.1343509 0.7210456,-0.1958557 11.1127389,-2.8798203 22.4557936,3.8098078 25.3234002,14.9312707 2.8745859,11.1131752 -3.816787,22.4475058 -14.9295259,25.3155486 z m -15.8739081,-37.9567471 7.9707599,17.8368271 -18.080229,0 c 0,-7.3168897 3.8442678,-14.0815449 10.1094691,-17.8368271 z m -15.3064063,17.8368271 -5.1969372,0 12.9923429,-34.6529363 5.384505,12.0435988 c -8.1448053,4.6106787 -13.1799107,13.2462138 -13.1799107,22.6093375 z m -10.6425108,-0.2761173 -32.5382181,-36.0993895 46.0758163,0 -13.5375982,36.0993895 z m -27.5851191,8.8584355 c -4.7384866,10.4470912 -17.0560216,15.0917939 -27.5166352,10.3533073 -10.4531981,-4.7454658 -15.0913576,-17.0582025 -10.3458918,-27.5183799 3.9171139,-8.6490574 13.1999761,-13.5428326 22.5425982,-11.8935445 l -6.0981351,19.7094519 c -0.4244267,1.3666278 0.3424204,2.8200603 1.7160275,3.2440508 1.3731709,0.4244267 2.8283482,-0.3424203 3.2527749,-1.7090481 l 6.0981351,-19.7024726 c 10.4601774,4.7389227 15.0917939,17.0564577 10.3511264,27.5166351 z m 88.914125,-16.6385741 c -4.4418677,-13.6449044 -19.1092349,-21.0961451 -32.7541393,-16.6472981 l -7.5384815,-16.8688899 1.9441623,-5.2021717 5.8499349,0 0,-5.1969371 -22.0845839,0 c -0.5997808,0 -1.1179914,0.4174474 -1.2593216,0.9949818 -0.1753541,0.6935647 0.2621588,1.4006518 0.9557235,1.5764421 l 10.9923465,2.6255132 -1.945907,5.2021717 -46.4182367,0 2.0872372,-6.7371743 c 0.6730631,-2.1744781 2.6852732,-3.6619345 4.9600783,-3.6619345 l 8.5417512,0 0,-5.1899579 -8.5417512,0 c -4.5565894,0 -8.5757752,2.9679335 -9.9288807,7.3094742 l -7.5450245,24.3816353 c -12.1099018,-2.4501591 -24.2738929,3.9581172 -29.092641,15.3404303 -5.593883,13.2139347 0.5862585,28.4658155 13.7984483,34.0527193 13.2204778,5.5943192 28.4671242,-0.5792792 34.0614434,-13.7914691 5.593883,-13.227457 -0.5862585,-28.4675603 -13.8001932,-34.0679864 l 2.0601926,-6.6643282 30.7214276,34.0749657 c 0.9832043,1.0905105 2.3890905,1.7160274 3.8647694,1.7160274 l 10.909904,0 c 0.2028349,0.969682 0.4514713,1.9254055 0.7550695,2.8610635 4.4488469,13.6449045 19.1092348,21.1026882 32.7545755,16.6455534 13.6431596,-4.4423039 21.0944002,-19.109671 16.6520964,-32.7528307"
       inkscape:connector-curvature="0" />
  </g>
</svg>
