<?xml version="1.0" encoding="UTF-8" standalone="no"?>
<!-- CLEANED: 1604956773/31cb356b5741d088b51bea636a518663 -->
<!-- Created with Inkscape (http://www.inkscape.org/) -->
<svg
   xmlns:dc="http://purl.org/dc/elements/1.1/"
   xmlns:cc="http://creativecommons.org/ns#"
   xmlns:rdf="http://www.w3.org/1999/02/22-rdf-syntax-ns#"
   xmlns:svg="http://www.w3.org/2000/svg"
   xmlns="http://www.w3.org/2000/svg"
   xmlns:xlink="http://www.w3.org/1999/xlink"
   xmlns:sodipodi="http://sodipodi.sourceforge.net/DTD/sodipodi-0.dtd"
   xmlns:inkscape="http://www.inkscape.org/namespaces/inkscape"
   id="svg2"
   version="1.1"
   inkscape:version="0.48.3.1 r9886"
   width="223"
   height="247"
   sodipodi:docname="applications-office-notepad-macos11.svg">
  <metadata
     id="metadata8">
    <rdf:RDF>
      <cc:Work
         rdf:about="">
        <dc:format>image/svg+xml</dc:format>
        <dc:type
           rdf:resource="http://purl.org/dc/dcmitype/StillImage" />
        <dc:title />
      </cc:Work>
    </rdf:RDF>
  </metadata>
  <defs
     id="defs6" />
  <sodipodi:namedview
     pagecolor="#ffffff"
     bordercolor="#666666"
     borderopacity="1"
     objecttolerance="10"
     gridtolerance="10"
     guidetolerance="10"
     inkscape:pageopacity="0"
     inkscape:pageshadow="2"
     id="namedview4"
     showgrid="false" />
  <g
     inkscape:groupmode="layer"
     id="layer1"
     inkscape:label="XX_SRC"
     sodipodi:insensitive="true"
     style="display:inline">
    <image
       xlink:href="../../src/incoming/2018/guidebookgallery/applications-office-notepad-macos11.png"
       checksum="8422a71f94a97839"
       y="0"
       x="0"
       id="image10"
       height="247"
       width="223" />
  </g>
  <g
     inkscape:groupmode="layer"
     id="layer2"
     inkscape:label="XX_TRACE"
     style="display:inline"
     sodipodi:insensitive="true">
    <path
       style="fill:#ffffff;fill-opacity:1;fill-rule:nonzero;stroke:none"
       d="m 0,0 0,246 0,1 1,0 222,0 0,-246 0,-1 -1,0 L 0,0 z"
       id="path4263" />
    <path
       style="fill:#000000;fill-opacity:1;fill-rule:nonzero;stroke:none"
       d="m 0,0 0,246 1,0 0,1 222,0 0,-246 -1,0 0,-1 L 0,0 z M 1,1 221,1 221,18 1,18 1,1 z m 0,18 220,0 0,220 -195,0 0,-24 -25,0 0,-196 z m 0,197 1,0 0,1 1,0 0,-1 22,0 0,22 -1,0 0,1 1,0 0,1 196,0 0,1 -220,0 0,-25 z m 0,26 220,0 0,1 -220,0 0,-1 z m 0,2 220,0 0,1 -220,0 0,-1 z"
       id="path12" />
    <path
       style="fill:#ffffff;fill-opacity:1;fill-rule:nonzero;stroke:none"
       d="m 222,0 0,1 1,0 0,-1 -1,0"
       id="path3023" />
    <path
       style="fill:#000000;fill-opacity:1;fill-rule:nonzero;stroke:none"
       d="M 2,4 2,5 8,5 8,4 2,4"
       id="path3031" />
    <path
       style="fill:#000000;fill-opacity:1;fill-rule:nonzero;stroke:none"
       d="M 9,4 9,15 20,15 20,4 9,4 z m 1,1 9,0 0,9 -9,0 0,-9 z"
       id="path3029" />
    <path
       style="fill:#000000;fill-opacity:1;fill-rule:nonzero;stroke:none"
       d="M 21,4 21,5 75,5 75,4 21,4"
       id="path3027" />
    <path
       style="fill:#000000;fill-opacity:1;fill-rule:nonzero;stroke:none"
       d="m 146,4 0,1 74,0 0,-1 -74,0"
       id="path16" />
    <path
       style="fill:#000000;fill-opacity:1;fill-rule:nonzero;stroke:none"
       d="m 82,5 0,9 1,0 0,-5 1,0 0,1 1,0 0,1 1,0 0,1 1,0 0,1 1,0 0,1 1,0 0,-9 -1,0 0,5 -1,0 0,-1 -1,0 0,-1 -1,0 0,-1 -1,0 0,-1 -1,0 0,-1 -1,0"
       id="path3045" />
    <path
       style="fill:#000000;fill-opacity:1;fill-rule:nonzero;stroke:none"
       d="m 100,5 0,2 -1,0 0,1 1,0 0,5 1,0 0,1 2,0 0,-1 -1,0 0,-5 1,0 0,-1 -1,0 0,-2 -2,0"
       id="path3043" />
    <path
       style="fill:#000000;fill-opacity:1;fill-rule:nonzero;stroke:none"
       d="m 117,5 0,9 2,0 0,-4 3,0 0,-1 1,0 0,-3 -1,0 0,-1 -5,0 z m 2,1 2,0 0,3 -2,0 0,-3 z"
       id="path3041" />
    <path
       style="fill:#000000;fill-opacity:1;fill-rule:nonzero;stroke:none"
       d="m 137,5 0,2 -3,0 0,1 -1,0 0,5 1,0 0,1 5,0 0,-9 -2,0 z m -2,3 2,0 0,5 -2,0 0,-5 z"
       id="path3039" />
    <path
       style="fill:#000000;fill-opacity:1;fill-rule:nonzero;stroke:none"
       d="M 2,6 2,7 8,7 8,6 2,6"
       id="path3037" />
    <path
       style="fill:#000000;fill-opacity:1;fill-rule:nonzero;stroke:none"
       d="M 21,6 21,7 75,7 75,6 21,6"
       id="path20" />
    <path
       style="fill:#000000;fill-opacity:1;fill-rule:nonzero;stroke:none"
       d="m 146,6 0,1 74,0 0,-1 -74,0"
       id="path3059" />
    <path
       style="fill:#000000;fill-opacity:1;fill-rule:nonzero;stroke:none"
       d="m 92,7 0,1 -1,0 0,5 1,0 0,1 4,0 0,-1 1,0 0,-5 -1,0 0,-1 -4,0 z m 1,1 2,0 0,5 -2,0 0,-5 z"
       id="path3057" />
    <path
       style="fill:#000000;fill-opacity:1;fill-rule:nonzero;stroke:none"
       d="m 106,7 0,1 -1,0 0,5 1,0 0,1 4,0 0,-1 -3,0 0,-2 4,0 0,-3 -1,0 0,-1 -4,0 z m 4,6 1,0 0,-1 -1,0 0,1 z m -3,-5 2,0 0,2 -2,0 0,-2 z"
       id="path3055" />
    <path
       style="fill:#000000;fill-opacity:1;fill-rule:nonzero;stroke:none"
       d="m 126,7 0,1 3,0 0,1 -3,0 0,1 -1,0 0,3 1,0 0,1 5,0 0,-6 -1,0 0,-1 -4,0 z m 0,2 0,-1 -1,0 0,1 1,0 z m 1,1 2,0 0,3 -2,0 0,-3 z"
       id="path3053" />
    <path
       style="fill:#000000;fill-opacity:1;fill-rule:nonzero;stroke:none"
       d="M 2,8 2,9 8,9 8,8 2,8"
       id="path3051" />
    <path
       style="fill:#000000;fill-opacity:1;fill-rule:nonzero;stroke:none"
       d="M 21,8 21,9 75,9 75,8 21,8"
       id="path24" />
    <path
       style="fill:#000000;fill-opacity:1;fill-rule:nonzero;stroke:none"
       d="m 146,8 0,1 74,0 0,-1 -74,0"
       id="path3073" />
    <path
       style="fill:#000000;fill-opacity:1;fill-rule:nonzero;stroke:none"
       d="m 2,10 0,1 6,0 0,-1 -6,0"
       id="path3071" />
    <path
       style="fill:#000000;fill-opacity:1;fill-rule:nonzero;stroke:none"
       d="m 21,10 0,1 54,0 0,-1 -54,0"
       id="path28" />
    <path
       style="fill:#000000;fill-opacity:1;fill-rule:nonzero;stroke:none"
       d="m 146,10 0,1 74,0 0,-1 -74,0"
       id="path3089" />
    <path
       style="fill:#000000;fill-opacity:1;fill-rule:nonzero;stroke:none"
       d="m 2,12 0,1 6,0 0,-1 -6,0"
       id="path3087" />
    <path
       style="fill:#000000;fill-opacity:1;fill-rule:nonzero;stroke:none"
       d="m 21,12 0,1 54,0 0,-1 -54,0"
       id="path3085" />
    <path
       style="fill:#000000;fill-opacity:1;fill-rule:nonzero;stroke:none"
       d="m 146,12 0,1 74,0 0,-1 -74,0"
       id="path3083" />
    <path
       style="fill:#000000;fill-opacity:1;fill-rule:nonzero;stroke:none"
       d="m 2,14 0,1 6,0 0,-1 -6,0"
       id="path3081" />
    <path
       style="fill:#000000;fill-opacity:1;fill-rule:nonzero;stroke:none"
       d="m 21,14 0,1 54,0 0,-1 -54,0"
       id="path3079" />
    <path
       style="fill:#000000;fill-opacity:1;fill-rule:nonzero;stroke:none"
       d="m 146,14 0,1 74,0 0,-1 -74,0"
       id="path32" />
    <path
       style="fill:#000000;fill-opacity:1;fill-rule:nonzero;stroke:none"
       d="m 148,27 0,11 -1,0 0,1 1,0 0,4 1,0 0,-16 -1,0"
       id="path3133" />
    <path
       style="fill:#000000;fill-opacity:1;fill-rule:nonzero;stroke:none"
       d="m 10,30 0,1 3,0 0,8 1,0 0,-8 3,0 0,-1 -7,0"
       id="path3131" />
    <path
       style="fill:#000000;fill-opacity:1;fill-rule:nonzero;stroke:none"
       d="m 19,30 0,9 1,0 0,-5 1,0 0,-1 2,0 0,6 1,0 0,-6 -1,0 0,-1 -2,0 0,1 -1,0 0,-3 -1,0"
       id="path3129" />
    <path
       style="fill:#000000;fill-opacity:1;fill-rule:nonzero;stroke:none"
       d="m 27,30 0,1 1,0 0,-1 -1,0"
       id="path3127" />
    <path
       style="fill:#000000;fill-opacity:1;fill-rule:nonzero;stroke:none"
       d="m 43,30 0,1 1,0 0,-1 -1,0"
       id="path3125" />
    <path
       style="fill:#000000;fill-opacity:1;fill-rule:nonzero;stroke:none"
       d="m 84,30 0,2 -1,0 0,1 1,0 0,5 1,0 0,1 2,0 0,-1 -2,0 0,-5 1,0 0,-1 -1,0 0,-2 -1,0"
       id="path3123" />
    <path
       style="fill:#000000;fill-opacity:1;fill-rule:nonzero;stroke:none"
       d="m 114,30 0,2 -3,0 0,1 3,0 0,5 -3,0 0,1 4,0 0,-9 -1,0 z m -3,8 0,-5 -1,0 0,5 1,0 z"
       id="path3121" />
    <path
       style="fill:#000000;fill-opacity:1;fill-rule:nonzero;stroke:none"
       d="m 122,30 0,2 -1,0 0,1 1,0 0,5 1,0 0,1 2,0 0,-1 -2,0 0,-5 1,0 0,-1 -1,0 0,-2 -1,0"
       id="path3119" />
    <path
       style="fill:#000000;fill-opacity:1;fill-rule:nonzero;stroke:none"
       d="m 142,30 0,2 -1,0 0,1 1,0 0,5 1,0 0,1 2,0 0,-1 -2,0 0,-5 1,0 0,-1 -1,0 0,-2 -1,0"
       id="path3117" />
    <path
       style="fill:#000000;fill-opacity:1;fill-rule:nonzero;stroke:none"
       d="m 26,32 0,1 1,0 0,6 1,0 0,-7 -2,0"
       id="path3115" />
    <path
       style="fill:#000000;fill-opacity:1;fill-rule:nonzero;stroke:none"
       d="m 32,32 0,1 -1,0 0,2 1,0 0,1 3,0 0,2 -3,0 0,-1 -1,0 0,1 1,0 0,1 3,0 0,-1 1,0 0,-2 -1,0 0,-1 -3,0 0,-2 3,0 0,1 1,0 0,-1 -1,0 0,-1 -3,0"
       id="path3113" />
    <path
       style="fill:#000000;fill-opacity:1;fill-rule:nonzero;stroke:none"
       d="m 42,32 0,1 1,0 0,6 1,0 0,-7 -2,0"
       id="path3111" />
    <path
       style="fill:#000000;fill-opacity:1;fill-rule:nonzero;stroke:none"
       d="m 48,32 0,1 -1,0 0,2 1,0 0,1 3,0 0,2 -3,0 0,-1 -1,0 0,1 1,0 0,1 3,0 0,-1 1,0 0,-2 -1,0 0,-1 -3,0 0,-2 3,0 0,1 1,0 0,-1 -1,0 0,-1 -3,0"
       id="path3109" />
    <path
       style="fill:#000000;fill-opacity:1;fill-rule:nonzero;stroke:none"
       d="m 59,32 0,1 3,0 0,-1 -3,0 z m 3,1 0,1 -3,0 0,1 3,0 0,3 -3,0 0,1 4,0 0,-6 -1,0 z m -3,5 0,-3 -1,0 0,3 1,0 z m 0,-4 0,-1 -1,0 0,1 1,0 z"
       id="path3107" />
    <path
       style="fill:#000000;fill-opacity:1;fill-rule:nonzero;stroke:none"
       d="m 69,32 0,7 1,0 0,-5 1,0 0,-1 2,0 0,6 1,0 0,-6 -1,0 0,-1 -2,0 0,1 -1,0 0,-1 -1,0"
       id="path3105" />
    <path
       style="fill:#000000;fill-opacity:1;fill-rule:nonzero;stroke:none"
       d="m 77,32 0,1 3,0 0,-1 -3,0 z m 3,1 0,5 1,0 0,-5 -1,0 z m 0,5 -3,0 0,1 3,0 0,-1 z m -3,0 0,-5 -1,0 0,5 1,0 z"
       id="path3103" />
    <path
       style="fill:#000000;fill-opacity:1;fill-rule:nonzero;stroke:none"
       d="m 90,32 0,1 3,0 0,-1 -3,0 z m 3,1 0,2 -3,0 0,-2 -1,0 0,5 1,0 0,-2 4,0 0,-3 -1,0 z m -3,5 0,1 3,0 0,-1 -3,0 z m 3,0 1,0 0,-1 -1,0 0,1 z"
       id="path3101" />
    <path
       style="fill:#000000;fill-opacity:1;fill-rule:nonzero;stroke:none"
       d="m 96,32 0,9 1,0 0,-2 3,0 0,-1 -3,0 0,-5 3,0 0,-1 -4,0 z m 4,1 0,5 1,0 0,-5 -1,0 z"
       id="path3099" />
    <path
       style="fill:#000000;fill-opacity:1;fill-rule:nonzero;stroke:none"
       d="m 104,32 0,1 3,0 0,-1 -3,0 z m 3,1 0,1 -3,0 0,1 3,0 0,3 -3,0 0,1 4,0 0,-6 -1,0 z m -3,5 0,-3 -1,0 0,3 1,0 z m 0,-4 0,-1 -1,0 0,1 1,0 z"
       id="path3097" />
    <path
       style="fill:#000000;fill-opacity:1;fill-rule:nonzero;stroke:none"
       d="m 128,32 0,1 3,0 0,-1 -3,0 z m 3,1 0,2 -3,0 0,-2 -1,0 0,5 1,0 0,-2 4,0 0,-3 -1,0 z m -3,5 0,1 3,0 0,-1 -3,0 z m 3,0 1,0 0,-1 -1,0 0,1 z"
       id="path3095" />
    <path
       style="fill:#000000;fill-opacity:1;fill-rule:nonzero;stroke:none"
       d="m 135,32 0,1 -1,0 0,2 1,0 0,1 3,0 0,2 -3,0 0,-1 -1,0 0,1 1,0 0,1 3,0 0,-1 1,0 0,-2 -1,0 0,-1 -3,0 0,-2 3,0 0,1 1,0 0,-1 -1,0 0,-1 -3,0"
       id="path36" />
    <path
       style="fill:#000000;fill-opacity:1;fill-rule:nonzero;stroke:none"
       d="m 3,217 0,1 1,0 0,1 1,0 0,1 1,0 0,1 1,0 0,1 1,0 0,1 1,0 0,1 1,0 0,1 1,0 0,1 1,0 0,1 1,0 0,1 1,0 0,1 1,0 0,1 1,0 0,1 1,0 0,1 1,0 0,1 1,0 0,1 1,0 0,1 1,0 0,1 1,0 0,1 1,0 0,1 1,0 0,-1 -1,0 0,-1 -1,0 0,-1 -1,0 0,-1 -1,0 0,-1 -1,0 0,-1 -1,0 0,-1 -1,0 0,-1 -1,0 0,-1 -1,0 0,-1 -1,0 0,-1 -1,0 0,-1 -1,0 0,-1 -1,0 0,-1 -1,0 0,-1 -1,0 0,-1 -1,0 0,-1 -1,0 0,-1 -1,0 0,-1 -1,0 0,-1 -1,0 0,-1 -1,0"
       id="path3157" />
    <path
       style="fill:#000000;fill-opacity:1;fill-rule:nonzero;stroke:none"
       d="m 111,222 0,1 -1,0 0,1 1,0 0,7 1,0 0,-9 -1,0"
       id="path40" />
    <path
       style="fill:#ffffff;fill-opacity:1;fill-rule:nonzero;stroke:none"
       d="m 0,246 0,1 1,0 0,-1 -1,0"
       id="path42" />
  </g>
</svg>
