<?xml version="1.0" encoding="UTF-8" standalone="no"?>
<!-- CLEANED: 1604956765/c7b226a76a5352181685e412987b1458 -->
<!-- Created with Inkscape (http://www.inkscape.org/) -->
<svg
   xmlns:dc="http://purl.org/dc/elements/1.1/"
   xmlns:cc="http://creativecommons.org/ns#"
   xmlns:rdf="http://www.w3.org/1999/02/22-rdf-syntax-ns#"
   xmlns:svg="http://www.w3.org/2000/svg"
   xmlns="http://www.w3.org/2000/svg"
   xmlns:xlink="http://www.w3.org/1999/xlink"
   xmlns:sodipodi="http://sodipodi.sourceforge.net/DTD/sodipodi-0.dtd"
   xmlns:inkscape="http://www.inkscape.org/namespaces/inkscape"
   id="svg2"
   version="1.1"
   inkscape:version="0.48.3.1 r9886"
   width="430"
   height="323"
   sodipodi:docname="applications-office-addressbook-win203.svg">
  <metadata
     id="metadata8">
    <rdf:RDF>
      <cc:Work
         rdf:about="">
        <dc:format>image/svg+xml</dc:format>
        <dc:type
           rdf:resource="http://purl.org/dc/dcmitype/StillImage" />
        <dc:title />
      </cc:Work>
    </rdf:RDF>
  </metadata>
  <defs
     id="defs6" />
  <sodipodi:namedview
     pagecolor="#ffffff"
     bordercolor="#666666"
     borderopacity="1"
     objecttolerance="10"
     gridtolerance="10"
     guidetolerance="10"
     inkscape:pageopacity="0"
     inkscape:pageshadow="2"
     id="namedview4"
     showgrid="false" />
  <g
     inkscape:groupmode="layer"
     id="layer1"
     inkscape:label="XX_SRC"
     sodipodi:insensitive="true">
    <image
       xlink:href="../../src/incoming/2018/guidebookgallery/applications-office-addressbook-win203.png"
       checksum="c8148f96f88e5409"
       y="0"
       x="0"
       id="image10"
       height="323"
       width="430" />
  </g>
  <g
     inkscape:groupmode="layer"
     id="layer2"
     inkscape:label="XX_COVER"
     sodipodi:insensitive="true">
    <path
       style="color:#000000;fill:#d3d3d3;fill-opacity:1;fill-rule:nonzero;stroke:none;stroke-width:0;marker:none;visibility:visible;display:inline;overflow:visible;enable-background:accumulate"
       d="M 1,25 5,25 5,5 31,5 31,1 1,1 z"
       id="rect2984"
       sodipodi:nodetypes="ccccccc" />
    <path
       sodipodi:nodetypes="ccccc"
       id="path2989"
       d="m 1,26 4,0 0,271 -4,0 z"
       style="color:#000000;fill:#d3d3d3;fill-opacity:1;fill-rule:nonzero;stroke:none;stroke-width:0;marker:none;visibility:visible;display:inline;overflow:visible;enable-background:accumulate" />
    <path
       style="color:#000000;fill:#d3d3d3;fill-opacity:1;fill-rule:nonzero;stroke:none;stroke-width:0;marker:none;visibility:visible;display:inline;overflow:visible;enable-background:accumulate"
       d="m 31,322 0,-4 -26,0 0,-20 -4,0 0,24 z"
       id="path2991"
       sodipodi:nodetypes="ccccccc" />
    <path
       style="color:#000000;fill:#d3d3d3;fill-opacity:1;fill-rule:nonzero;stroke:none;stroke-width:0;marker:none;visibility:visible;display:inline;overflow:visible;enable-background:accumulate"
       d="m 32,318 366,0 0,4 -366,0 z"
       id="path2995"
       sodipodi:nodetypes="ccccc" />
    <path
       style="color:#000000;fill:#d3d3d3;fill-opacity:1;fill-rule:nonzero;stroke:none;stroke-width:0;marker:none;visibility:visible;display:inline;overflow:visible;enable-background:accumulate"
       d="m 429,298 -4,0 0,20 -26,0 0,4 30,0 z"
       id="path2997"
       sodipodi:nodetypes="ccccccc" />
    <path
       sodipodi:nodetypes="ccccc"
       id="path3001"
       d="m 425,26 4,0 0,271 -4,0 z"
       style="color:#000000;fill:#d3d3d3;fill-opacity:1;fill-rule:nonzero;stroke:none;stroke-width:0;marker:none;visibility:visible;display:inline;overflow:visible;enable-background:accumulate" />
    <path
       sodipodi:nodetypes="ccccccc"
       id="path3004"
       d="m 429,25 -4,0 0,-20 -26,0 0,-4 30,0 z"
       style="color:#000000;fill:#d3d3d3;fill-opacity:1;fill-rule:nonzero;stroke:none;stroke-width:0;marker:none;visibility:visible;display:inline;overflow:visible;enable-background:accumulate" />
    <path
       sodipodi:nodetypes="ccccc"
       id="path3008"
       d="M 32,5 398,5 398,1 32,1 z"
       style="color:#000000;fill:#d3d3d3;fill-opacity:1;fill-rule:nonzero;stroke:none;stroke-width:0;marker:none;visibility:visible;display:inline;overflow:visible;enable-background:accumulate" />
  </g>
  <g
     inkscape:groupmode="layer"
     id="layer3"
     inkscape:label="XX_TRACE"
     style="display:inline"
     sodipodi:insensitive="true">
    <path
       style="color:#000000;fill:#000000;fill-opacity:1;fill-rule:nonzero;stroke:none;marker:none;visibility:visible;display:inline;overflow:visible;enable-background:accumulate"
       d="M 0,0 0,323 430,323 430,0 0,0"
       id="path12" />
    <path
       style="fill:#cccccc;fill-opacity:1;fill-rule:nonzero;stroke:none"
       d="M 1,1 1,25 5,25 5,5 31,5 31,1 1,1"
       id="path3051" />
    <path
       style="fill:#cccccc;fill-opacity:1;fill-rule:nonzero;stroke:none"
       d="M 32,1 32,5 398,5 398,1 32,1"
       id="path3049" />
    <path
       style="fill:#cccccc;fill-opacity:1;fill-rule:nonzero;stroke:none"
       d="m 399,1 0,4 26,0 0,20 4,0 0,-24 -30,0"
       id="path14" />
    <path
       style="fill:#ffffff;fill-opacity:1;fill-rule:nonzero;stroke:none"
       d="M 6,6 6,25 31,25 31,6 6,6"
       id="path16" />
    <path
       style="fill:#6666ff;fill-opacity:1;fill-rule:nonzero;stroke:none"
       d="m 32,6 0,19 85,0 0,-19 -85,0"
       id="path3057" />
    <path
       style="fill:#6666ff;fill-opacity:1;fill-rule:nonzero;stroke:none"
       d="m 287,6 0,19 85,0 0,-19 -85,0"
       id="path18" />
    <path
       style="fill:#ffffff;fill-opacity:1;fill-rule:nonzero;stroke:none"
       d="m 373,6 0,19 25,0 0,-19 -25,0"
       id="path3061" />
    <path
       style="fill:#ffffff;fill-opacity:1;fill-rule:nonzero;stroke:none"
       d="m 399,6 0,19 25,0 0,-19 -25,0"
       id="path20" />
    <path
       style="fill:#000000;fill-opacity:1;fill-rule:nonzero;stroke:none"
       d="m 383,8 0,8 -3,0 0,1 1,0 0,1 1,0 0,-1 2,0 0,-8 3,0 0,8 2,0 0,1 -1,0 0,1 -1,0 0,1 -1,0 0,1 -1,0 0,1 1,0 0,1 1,0 0,-1 1,0 0,-1 1,0 0,-1 1,0 0,-1 1,0 0,-1 1,0 0,-1 -1,0 0,-1 -2,0 0,-6 -1,0 0,-2 -5,0 z m 2,13 0,-1 -1,0 0,1 1,0 z m -1,-1 0,-1 -1,0 0,1 1,0 z m -1,-1 0,-1 -1,0 0,1 1,0 z"
       id="path3065" />
    <path
       style="fill:#000000;fill-opacity:1;fill-rule:nonzero;stroke:none"
       d="m 411,8 0,1 1,0 0,-1 -1,0 z m 1,1 0,1 1,0 0,1 1,0 0,1 1,0 0,1 -2,0 0,8 -3,0 0,-8 -2,0 0,-1 -1,0 0,1 -1,0 0,1 3,0 0,8 1,0 0,1 5,0 0,-8 2,0 0,-1 1,0 0,-1 -1,0 0,-1 -1,0 0,-1 -1,0 0,-1 -1,0 0,-1 -2,0 z m -4,3 1,0 0,-1 -1,0 0,1 z m 1,-1 1,0 0,-1 -1,0 0,1 z m 1,-1 1,0 0,-1 -1,0 0,1 z"
       id="path22" />
    <path
       style="fill:#ffffff;fill-opacity:1;fill-rule:nonzero;stroke:none"
       d="m 161,10 0,2 2,0 0,-2 -2,0"
       id="path3089" />
    <path
       style="fill:#ffffff;fill-opacity:1;fill-rule:nonzero;stroke:none"
       d="m 241,10 0,2 2,0 0,-2 -2,0"
       id="path3087" />
    <path
       style="fill:#ffffff;fill-opacity:1;fill-rule:nonzero;stroke:none"
       d="m 120,11 0,1 -1,0 0,7 1,0 0,1 4,0 0,-1 1,0 0,-2 -2,0 0,2 -2,0 0,-7 2,0 0,2 2,0 0,-2 -1,0 0,-1 -4,0"
       id="path3085" />
    <path
       style="fill:#ffffff;fill-opacity:1;fill-rule:nonzero;stroke:none"
       d="m 147,11 0,2 -3,0 0,1 -1,0 0,5 1,0 0,1 5,0 0,-9 -2,0 z m -2,3 2,0 0,5 -2,0 0,-5 z"
       id="path3083" />
    <path
       style="fill:#ffffff;fill-opacity:1;fill-rule:nonzero;stroke:none"
       d="m 153,11 0,1 -1,0 0,3 -1,0 0,1 1,0 0,4 2,0 0,-4 3,0 0,-1 -3,0 0,-3 3,0 0,-1 -4,0"
       id="path3081" />
    <path
       style="fill:#ffffff;fill-opacity:1;fill-rule:nonzero;stroke:none"
       d="m 167,11 0,1 2,0 0,7 -2,0 0,1 6,0 0,-1 -2,0 0,-8 -4,0"
       id="path3079" />
    <path
       style="fill:#ffffff;fill-opacity:1;fill-rule:nonzero;stroke:none"
       d="m 210,11 0,1 -1,0 0,2 -1,0 0,5 1,0 0,2 1,0 0,1 2,0 0,-1 -1,0 0,-2 -1,0 0,-5 1,0 0,-2 1,0 0,-1 -2,0"
       id="path3077" />
    <path
       style="fill:#ffffff;fill-opacity:1;fill-rule:nonzero;stroke:none"
       d="m 232,11 0,2 -1,0 0,1 1,0 0,5 1,0 0,1 4,0 0,-1 -3,0 0,-5 3,0 0,-1 -3,0 0,-2 -2,0"
       id="path3075" />
    <path
       style="fill:#ffffff;fill-opacity:1;fill-rule:nonzero;stroke:none"
       d="m 248,11 0,2 -1,0 0,1 1,0 0,5 1,0 0,1 4,0 0,-1 -3,0 0,-5 3,0 0,-1 -3,0 0,-2 -2,0"
       id="path3073" />
    <path
       style="fill:#ffffff;fill-opacity:1;fill-rule:nonzero;stroke:none"
       d="m 255,11 0,1 2,0 0,7 -2,0 0,1 6,0 0,-1 -2,0 0,-8 -4,0"
       id="path3071" />
    <path
       style="fill:#ffffff;fill-opacity:1;fill-rule:nonzero;stroke:none"
       d="m 275,11 0,2 -3,0 0,1 -1,0 0,5 1,0 0,1 5,0 0,-9 -2,0 z m -2,3 2,0 0,5 -2,0 0,-5 z"
       id="path3069" />
    <path
       style="fill:#ffffff;fill-opacity:1;fill-rule:nonzero;stroke:none"
       d="m 280,11 0,1 1,0 0,2 1,0 0,5 -1,0 0,2 -1,0 0,1 2,0 0,-1 1,0 0,-2 1,0 0,-5 -1,0 0,-2 -1,0 0,-1 -2,0"
       id="path24" />
    <path
       style="fill:#000000;fill-opacity:1;fill-rule:nonzero;stroke:none"
       d="m 8,13 0,4 1,0 0,1 20,0 0,-4 -1,0 0,-1 -20,0"
       id="path26" />
    <path
       style="fill:#ffffff;fill-opacity:1;fill-rule:nonzero;stroke:none"
       d="m 128,13 0,1 3,0 0,2 -3,0 0,1 -1,0 0,2 1,0 0,1 5,0 0,-6 -1,0 0,-1 -4,0 z m 1,4 2,0 0,2 -2,0 0,-2 z"
       id="path3113" />
    <path
       style="fill:#ffffff;fill-opacity:1;fill-rule:nonzero;stroke:none"
       d="m 135,13 0,7 2,0 0,-4 1,0 0,-1 3,0 0,-2 -2,0 0,1 -1,0 0,1 -1,0 0,-2 -2,0"
       id="path3111" />
    <path
       style="fill:#ffffff;fill-opacity:1;fill-rule:nonzero;stroke:none"
       d="m 159,13 0,1 2,0 0,5 -2,0 0,1 6,0 0,-1 -2,0 0,-6 -4,0"
       id="path3109" />
    <path
       style="fill:#ffffff;fill-opacity:1;fill-rule:nonzero;stroke:none"
       d="m 176,13 0,1 -1,0 0,5 1,0 0,1 4,0 0,-1 -3,0 0,-2 4,0 0,-3 -1,0 0,-1 -4,0 z m 1,1 2,0 0,2 -2,0 0,-2 z"
       id="path3107" />
    <path
       style="fill:#ffffff;fill-opacity:1;fill-rule:nonzero;stroke:none"
       d="m 215,13 0,6 1,0 0,1 5,0 0,-7 -2,0 0,6 -2,0 0,-6 -2,0"
       id="path3105" />
    <path
       style="fill:#ffffff;fill-opacity:1;fill-rule:nonzero;stroke:none"
       d="m 223,13 0,7 2,0 0,-6 2,0 0,6 2,0 0,-6 -1,0 0,-1 -5,0"
       id="path3103" />
    <path
       style="fill:#ffffff;fill-opacity:1;fill-rule:nonzero;stroke:none"
       d="m 239,13 0,1 2,0 0,5 -2,0 0,1 6,0 0,-1 -2,0 0,-6 -4,0"
       id="path3101" />
    <path
       style="fill:#ffffff;fill-opacity:1;fill-rule:nonzero;stroke:none"
       d="m 264,13 0,1 -1,0 0,5 1,0 0,1 4,0 0,-1 -3,0 0,-2 4,0 0,-3 -1,0 0,-1 -4,0 z m 1,1 2,0 0,2 -2,0 0,-2 z"
       id="path3099" />
    <path
       style="fill:#ffffff;fill-opacity:1;fill-rule:nonzero;stroke:none"
       d="m 9,14 0,2 18,0 0,-2 -18,0"
       id="path28" />
    <path
       style="fill:#ffffff;fill-opacity:1;fill-rule:nonzero;stroke:none"
       d="m 191,15 0,1 6,0 0,-1 -6,0"
       id="path32" />
    <path
       style="fill:#cccccc;fill-opacity:1;fill-rule:nonzero;stroke:none"
       d="M 1,26 1,297 5,297 5,26 1,26"
       id="path36" />
    <path
       style="color:#000000;fill:#66ffff;fill-opacity:1;fill-rule:nonzero;stroke:none;marker:none;visibility:visible;display:inline;overflow:visible;enable-background:accumulate"
       d="M 6,26 6,45 424,45 424,26 6,26"
       id="path38" />
    <path
       style="fill:#cccccc;fill-opacity:1;fill-rule:nonzero;stroke:none"
       d="m 425,26 0,271 4,0 0,-271 -4,0"
       id="path40" />
    <path
       style="fill:#000000;fill-opacity:1;fill-rule:nonzero;stroke:none"
       d="m 25,29 0,2 2,0 0,-2 -2,0"
       id="path3181" />
    <path
       style="fill:#000000;fill-opacity:1;fill-rule:nonzero;stroke:none"
       d="m 81,29 0,2 2,0 0,-2 -2,0"
       id="path3179" />
    <path
       style="fill:#000000;fill-opacity:1;fill-rule:nonzero;stroke:none"
       d="m 121,29 0,2 2,0 0,-2 -2,0"
       id="path3177" />
    <path
       style="fill:#000000;fill-opacity:1;fill-rule:nonzero;stroke:none"
       d="m 15,30 0,9 2,0 0,-4 3,0 0,-1 -3,0 0,-3 4,0 0,-1 -6,0"
       id="path3175" />
    <path
       style="fill:#000000;fill-opacity:1;fill-rule:nonzero;stroke:none"
       d="m 31,30 0,1 2,0 0,7 -2,0 0,1 6,0 0,-1 -2,0 0,-8 -4,0"
       id="path3173" />
    <path
       style="fill:#000000;fill-opacity:1;fill-rule:nonzero;stroke:none"
       d="m 63,30 0,9 6,0 0,-1 -4,0 0,-3 3,0 0,-1 -3,0 0,-3 4,0 0,-1 -6,0"
       id="path3171" />
    <path
       style="fill:#000000;fill-opacity:1;fill-rule:nonzero;stroke:none"
       d="m 75,30 0,2 -3,0 0,1 -1,0 0,5 1,0 0,1 5,0 0,-9 -2,0 z m -2,3 2,0 0,5 -2,0 0,-5 z"
       id="path3169" />
    <path
       style="fill:#000000;fill-opacity:1;fill-rule:nonzero;stroke:none"
       d="m 88,30 0,2 -1,0 0,1 1,0 0,5 1,0 0,1 4,0 0,-1 -3,0 0,-5 3,0 0,-1 -3,0 0,-2 -2,0"
       id="path3167" />
    <path
       style="fill:#000000;fill-opacity:1;fill-rule:nonzero;stroke:none"
       d="m 111,30 0,7 1,0 0,1 1,0 0,1 2,0 0,-1 1,0 0,-1 1,0 0,-7 -2,0 0,7 -2,0 0,-7 -2,0"
       id="path3165" />
    <path
       style="fill:#000000;fill-opacity:1;fill-rule:nonzero;stroke:none"
       d="m 160,30 0,1 -1,0 0,7 1,0 0,1 4,0 0,-1 1,0 0,-2 -2,0 0,2 -2,0 0,-7 2,0 0,2 2,0 0,-2 -1,0 0,-1 -4,0"
       id="path3163" />
    <path
       style="fill:#000000;fill-opacity:1;fill-rule:nonzero;stroke:none"
       d="m 187,30 0,2 -3,0 0,1 -1,0 0,5 1,0 0,1 5,0 0,-9 -2,0 z m -2,3 2,0 0,5 -2,0 0,-5 z"
       id="path3161" />
    <path
       style="fill:#000000;fill-opacity:1;fill-rule:nonzero;stroke:none"
       d="m 208,30 0,1 -1,0 0,2 1,0 0,1 1,0 0,1 1,0 0,1 1,0 0,2 -2,0 0,-1 -2,0 0,1 1,0 0,1 4,0 0,-1 1,0 0,-2 -1,0 0,-1 -1,0 0,-1 -1,0 0,-1 -1,0 0,-2 2,0 0,1 2,0 0,-1 -1,0 0,-1 -4,0"
       id="path3159" />
    <path
       style="fill:#000000;fill-opacity:1;fill-rule:nonzero;stroke:none"
       d="m 247,30 0,9 2,0 0,-6 2,0 0,6 2,0 0,-6 -1,0 0,-1 -3,0 0,-2 -2,0"
       id="path3157" />
    <path
       style="fill:#000000;fill-opacity:1;fill-rule:nonzero;stroke:none"
       d="m 23,32 0,1 2,0 0,5 -2,0 0,1 6,0 0,-1 -2,0 0,-6 -4,0"
       id="path3155" />
    <path
       style="fill:#000000;fill-opacity:1;fill-rule:nonzero;stroke:none"
       d="m 40,32 0,1 -1,0 0,5 1,0 0,1 4,0 0,-1 -3,0 0,-2 4,0 0,-3 -1,0 0,-1 -4,0 z m 1,1 2,0 0,2 -2,0 0,-2 z"
       id="path3153" />
    <path
       style="fill:#000000;fill-opacity:1;fill-rule:nonzero;stroke:none"
       d="m 79,32 0,1 2,0 0,5 -2,0 0,1 6,0 0,-1 -2,0 0,-6 -4,0"
       id="path3151" />
    <path
       style="fill:#000000;fill-opacity:1;fill-rule:nonzero;stroke:none"
       d="m 119,32 0,1 2,0 0,5 -2,0 0,1 6,0 0,-1 -2,0 0,-6 -4,0"
       id="path3149" />
    <path
       style="fill:#000000;fill-opacity:1;fill-rule:nonzero;stroke:none"
       d="m 128,32 0,1 -1,0 0,5 1,0 0,1 4,0 0,-1 -3,0 0,-2 4,0 0,-3 -1,0 0,-1 -4,0 z m 1,1 2,0 0,2 -2,0 0,-2 z"
       id="path3147" />
    <path
       style="fill:#000000;fill-opacity:1;fill-rule:nonzero;stroke:none"
       d="m 135,32 0,5 1,0 0,2 2,0 0,-2 1,0 0,2 2,0 0,-2 1,0 0,-5 -2,0 0,5 -1,0 0,-4 -1,0 0,4 -1,0 0,-5 -2,0"
       id="path3145" />
    <path
       style="fill:#000000;fill-opacity:1;fill-rule:nonzero;stroke:none"
       d="m 168,32 0,1 3,0 0,2 -3,0 0,1 -1,0 0,2 1,0 0,1 5,0 0,-6 -1,0 0,-1 -4,0 z m 1,4 2,0 0,2 -2,0 0,-2 z"
       id="path3143" />
    <path
       style="fill:#000000;fill-opacity:1;fill-rule:nonzero;stroke:none"
       d="m 175,32 0,7 2,0 0,-4 1,0 0,-1 3,0 0,-2 -2,0 0,1 -1,0 0,1 -1,0 0,-2 -2,0"
       id="path3141" />
    <path
       style="fill:#000000;fill-opacity:1;fill-rule:nonzero;stroke:none"
       d="m 216,32 0,1 -1,0 0,5 1,0 0,1 4,0 0,-1 -3,0 0,-2 4,0 0,-3 -1,0 0,-1 -4,0 z m 1,1 2,0 0,2 -2,0 0,-2 z"
       id="path3139" />
    <path
       style="fill:#000000;fill-opacity:1;fill-rule:nonzero;stroke:none"
       d="m 224,32 0,1 3,0 0,2 -3,0 0,1 -1,0 0,2 1,0 0,1 5,0 0,-6 -1,0 0,-1 -4,0 z m 1,4 2,0 0,2 -2,0 0,-2 z"
       id="path3137" />
    <path
       style="fill:#000000;fill-opacity:1;fill-rule:nonzero;stroke:none"
       d="m 231,32 0,7 2,0 0,-4 1,0 0,-1 3,0 0,-2 -2,0 0,1 -1,0 0,1 -1,0 0,-2 -2,0"
       id="path3135" />
    <path
       style="fill:#000000;fill-opacity:1;fill-rule:nonzero;stroke:none"
       d="m 240,32 0,1 -1,0 0,5 1,0 0,1 4,0 0,-1 1,0 0,-1 -2,0 0,1 -2,0 0,-5 2,0 0,1 2,0 0,-1 -1,0 0,-1 -4,0"
       id="path42" />
    <path
       style="fill:#000000;fill-opacity:1;fill-rule:nonzero;stroke:none"
       d="m 14,40 0,1 8,0 0,-1 -8,0"
       id="path3205" />
    <path
       style="fill:#000000;fill-opacity:1;fill-rule:nonzero;stroke:none"
       d="m 62,40 0,1 8,0 0,-1 -8,0"
       id="path3203" />
    <path
       style="fill:#000000;fill-opacity:1;fill-rule:nonzero;stroke:none"
       d="m 110,40 0,1 8,0 0,-1 -8,0"
       id="path3201" />
    <path
       style="fill:#000000;fill-opacity:1;fill-rule:nonzero;stroke:none"
       d="m 158,40 0,1 8,0 0,-1 -8,0"
       id="path3199" />
    <path
       style="fill:#000000;fill-opacity:1;fill-rule:nonzero;stroke:none"
       d="m 206,40 0,1 8,0 0,-1 -8,0"
       id="path46" />
    <path
       style="fill:#6666ff;fill-opacity:1;fill-rule:nonzero;stroke:none"
       d="M 6,46 6,317 424,317 424,46 6,46"
       id="path48" />
    <path
       style="fill:#000000;fill-opacity:1;fill-rule:nonzero;stroke:none"
       d="m 14,124 0,16 1,0 0,-15 321,0 0,15 1,0 0,-16 -323,0"
       id="path50" />
    <path
       style="fill:#ffffff;fill-opacity:1;fill-rule:nonzero;stroke:none"
       d="m 15,125 0,15 321,0 0,-15 -321,0"
       id="path52" />
    <path
       style="fill:#ff6666;fill-opacity:1;fill-rule:nonzero;stroke:none"
       d="m 14,140 0,1 323,0 0,-1 -323,0"
       id="path54" />
    <path
       style="fill:#000000;fill-opacity:1;fill-rule:nonzero;stroke:none"
       d="m 14,141 0,1 1,0 0,-1 -1,0"
       id="path56" />
    <path
       style="fill:#ffffff;fill-opacity:1;fill-rule:nonzero;stroke:none"
       d="m 15,141 0,1 321,0 0,-1 -321,0"
       id="path58" />
    <path
       style="fill:#000000;fill-opacity:1;fill-rule:nonzero;stroke:none"
       d="m 336,141 0,1 1,0 0,-1 -1,0"
       id="path60" />
    <path
       style="fill:#ff6666;fill-opacity:1;fill-rule:nonzero;stroke:none"
       d="m 14,142 0,1 323,0 0,-1 -323,0"
       id="path62" />
    <path
       style="fill:#000000;fill-opacity:1;fill-rule:nonzero;stroke:none"
       d="m 14,143 0,166 323,0 0,-166 -1,0 0,165 -321,0 0,-150 1,0 0,-15 -2,0"
       id="path64" />
    <path
       style="fill:#ffffff;fill-opacity:1;fill-rule:nonzero;stroke:none"
       d="m 16,143 0,15 -1,0 0,150 321,0 0,-165 -320,0"
       id="path66" />
    <path
       style="fill:#cccccc;fill-opacity:1;fill-rule:nonzero;stroke:none"
       d="m 1,298 0,24 30,0 0,-4 -26,0 0,-20 -4,0"
       id="path3231" />
    <path
       style="fill:#cccccc;fill-opacity:1;fill-rule:nonzero;stroke:none"
       d="m 425,298 0,20 -26,0 0,4 30,0 0,-24 -4,0"
       id="path3229" />
    <path
       style="fill:#cccccc;fill-opacity:1;fill-rule:nonzero;stroke:none"
       d="m 32,318 0,4 366,0 0,-4 -366,0"
       id="path68" />
  </g>
</svg>
